<?xml version="1.0" encoding="utf-8"?>
<!-- Generator: Adobe Illustrator 18.1.1, SVG Export Plug-In . SVG Version: 6.00 Build 0)  -->
<svg version="1.1" id="amsterdam" xmlns="http://www.w3.org/2000/svg" xmlns:xlink="http://www.w3.org/1999/xlink" x="0px" y="0px"
	 viewBox="0 0 1001.2258 100.3533" enable-background="new 0 0 1001.2258 100.3533" xml:space="preserve">
<g>
	<polygon   points="946.1747,9.4978 946.1078,9.5878 946.2065,9.6178 946.1396,9.7184 946.1396,9.8684 
		946.2456,10.008 946.4326,10.093 946.4326,10.3649 946.5317,10.3664 946.5317,10.0822 946.6199,10.1071 946.8068,10.1071 
		946.9518,10.0344 947.0401,9.9339 947.1884,9.9339 947.3543,9.888 947.4885,9.7556 947.5167,9.5896 947.4672,9.4164 
		947.393,9.3318 947.2238,9.2595 947.086,9.2577 946.8951,9.3318 946.835,9.4323 946.8777,9.5365 946.9059,9.6638 946.8491,9.7625 
		946.754,9.7911 946.5949,9.7911 946.468,9.7397 946.4116,9.6551 946.4257,9.505 946.3903,9.4609 946.2984,9.436 946.4431,9.3795 
		946.4149,9.3318 946.2807,9.3141 946.1252,9.3955 946.0442,9.5119 946.1396,9.4678 	"/>
	<path   d="M1001.2114,70.4142l0.0145-0.4538l-0.3429-0.1569l0.0109-0.055l-0.0072-0.1269l-0.0387-0.145
		l-0.0637-0.0651h-0.085l0.0036-0.0336l0.0213-0.0336l0.0424-0.0246l-0.0106-0.0441l-0.025-0.06l-0.0423-0.0532l-0.0069-0.1164
		l-0.1096-0.0477l-0.7771,0.0036l-0.0033,0.0846l-0.0459,0.009l-0.0459,0.0618l0.0209,0.0405h-0.0919l-0.0455,0.0705l-0.8585-1.1159
		l0.2369-9.6866l0.0068-0.2788l0.0778-3.2368l-0.0565-0.2434l-0.0955-0.106l-0.0423-0.2596l0.0355-0.4625l0.1201-0.2878
		l0.0068-0.3074l-0.1588-0.0246l0.0069-0.166l-0.0527-0.009l0.0209-0.1729l-0.0033-0.1182l-0.0391-0.1291l-0.0564-0.0459h-0.0704
		v-0.0051l0.0176-0.0409l0.0351-0.0351l-0.0069-0.0391l-0.025-0.0495l-0.0386-0.0387l-0.0073-0.1096l-0.0987-0.0123h-0.7485v0.0846
		l-0.046,0.0231l-0.0355,0.0705l0.0319,0.0618l0,0h-0.1024l-0.0532,0.1023l-0.0036,0.2119l0.0214,0.1837l0.0386,0.0072h-0.3775
		l-0.7912-5.8603l-0.0704-0.3674l0.0632-0.4734h-0.0528l0.0246-0.4343l-0.0209-0.1888l-0.0496-0.4502l0.0247-0.9413h0.039
		l0.0987-0.5384l-0.5366-1.04h-1.01l-0.5793,1.0559l0.0213,0.4025h0.0847l-0.0246,0.9586l-0.106,0.6607l0.0601,0.4202h-0.0988
		v0.4271h-0.0991l-0.0105,0.4647l-0.085,0.4925l-42.4683,0.0087v-1.4584l-0.2365-0.0387h-0.7311v-9.4464l0.0177-1.1709
		l-0.2615-0.0177h-0.6813V24.9741l-0.9218-0.0018l-0.4697,0.0636h-0.2082l-0.0073-6.6497h-0.4553l-0.2014,0.0336l0.3283-0.2806
		l0.2579-0.3515l0.166-0.392l0.0529-0.4115l-0.0565-0.4115l-0.1624-0.3934l-0.2615-0.3533l-0.3461-0.2983l-0.413-0.2296
		l-0.1414-0.0582l-0.1765-0.0495v-0.0792l0.1306-0.0636l0.1132-0.0919l0.0846-0.106l0.0496-0.1237l0.0177-0.1287l-0.0177-0.1309
		l-0.0532-0.1201l-0.081-0.111l-0.1132-0.0886l-0.1342-0.0669l-0.0459-0.0213l-0.0282-0.0051l0.1164-1.8081l1.3951-0.0759
		l0.0705-0.0036v-0.1396l-0.0705-0.0069l-1.3951-0.1027l-0.1128-1.4248l-0.0073-0.1201h-0.1483l-0.0068,0.1182l-0.0851,1.4251
		l-1.4197,0.0951l-0.0742,0.0036v0.1432l0.0742,0.0014l1.4197,0.085l0.0955,1.8099l-0.0282,0.0033l-0.0459,0.0231l-0.1342,0.0655
		l-0.1095,0.09l-0.0847,0.106l-0.0532,0.1251l-0.0176,0.1291l0.0176,0.1287l0.0532,0.1201l0.0883,0.1096l0.1091,0.09l0.1345,0.0673
		v0.0774l-0.1837,0.0477l-0.1342,0.06l-0.4133,0.2242l-0.3461,0.2969l-0.2614,0.3529l-0.1588,0.392l-0.0532,0.4133l0.0532,0.4112
		l0.1624,0.392l0.2615,0.3551l0.332,0.2842l-0.2192-0.0372l-0.5012-0.0014l0.0142,6.6475h-0.131l-0.4729-0.0618l-1.0137-0.0014
		l0.0387,10.5288h-0.6921l-0.2579,0.0159l0.025,1.1724l0.0351,9.4537h-0.6531l-0.3424,0.0387l0.0068,1.5275l0.1023,23.3617
		l0.0037,1.8963l0.0072,1.4656l-0.311,1.5398l0.0072,1.8699l-0.0918,0.0018l0.0036,0.2329v0.0318h-0.2578l-0.046,0.6549
		l-0.0036,0.1027v0.0351h-4.6298l0.3428-24.3381l0.5789-0.0072l0.0141-0.9709l0.3392-0.0036l0.0069-0.3851l-0.9569-0.0687
		l-7.9421-12.088l-2.7722,4.0823l-0.251-0.0018l-0.2328,0.1486l-0.0073,0.5721l-4.4001,6.4888l-0.0174-0.0159l0.0106-2.5248
		l0.5684-0.2614l0.0036-0.6675l-0.6003-0.0387l-0.1909-0.3584l0.0141-3.678l-1.8504-2.0008l-0.3884,1.5488l-7.9808-14.8056
		l-7.9844,14.7419l-0.4133-1.5998l-1.8859,2.0095l0.0391,3.7749l-0.1768,0.3233l-0.6072,0.0351l0.0033,0.673l0.5865,0.2506
		l0.0173,2.0518l-7.6029-11.048l-8.2036,12.3495l-1.0027,0.0723l0.0073,0.397l0.3565,0.0054l0.0178,0.9995l0.8159,0.0069
		l0.4765,24.3312h-16.8342l1.9176-0.0564l1.9495-0.0759l1.3348-0.0778l0.7626-0.0759l0.2119-0.0741l-0.0036-0.482l-0.2893-0.0582
		l-0.7416-0.0546l-1.1547-0.055l-1.5256-0.0474l-1.8471-0.0459l-0.4202-0.0072l-0.0032-0.2278l-0.1027-0.0369l-0.5084-0.0354
		l-0.8758-0.0354l-1.2111-0.0333l-1.5152-0.0318l-0.9109-0.0159l-0.0286-3.0231l-0.0173-0.0105l-0.4061-0.0069l-0.7416-0.0072
		l-0.9536-0.0018h-0.286l0.0036-0.0087l0.0036-0.0268v-0.0264v-0.0264v-0.0264V74.175l-0.0036-0.0246l-0.0036-0.0264l-0.0036-0.0246
		v-0.0213l-0.0069-0.0195l-0.0036-0.0177l0.0105,0.0108l0.0108,0.0018l0.0105-0.0072l0.0105-0.0159l0.0073-0.0228l0.0104-0.0318
		l0.0073-0.0372l0.0033-0.0441l0.0073-0.0477l0.0036-0.0546v-0.0532v-0.0564v-0.0705l-0.0036-0.0723l-0.0073-0.0673v-0.0669
		l-0.0069-0.0655l-0.0073-0.0636L860.913,73.22l-0.0072-0.0564l-0.0105-0.0514l-0.0069-0.0441l-0.0108-0.0441l-0.0141-0.0354
		l0.0036-0.03v-0.0318v-0.0333v-0.03l-0.0036-0.0318l-0.0037-0.0268l-0.0032-0.021l-0.0072-0.0177l-0.0037-0.0105l-0.0032-0.0054
		l-0.0109,0.0018l-0.0032,0.0087l-0.0317,0.0018l-0.071-0.2947l0.0141-0.0832l0.0109-0.09l0.0036-0.0937l0.0069-0.0969
		l0.0072-0.1023v-0.1023v-0.1045l-0.0036-0.1041l-0.0036-0.1005l-0.0069-0.0973l-0.0072-0.0933l-0.0141-0.09l-0.0036-0.0618
		l-0.0069-0.0582l-0.0072-0.0532l-0.0069-0.0477l-0.0109-0.0387l-0.0105-0.0318l-0.0141-0.0246l-0.0104-0.0141l-0.0109-0.0072
		l-0.014,0.0018l-0.0106,0.0141l-0.0105,0.0228l-0.0141,0.0937l-0.0072-0.0036h-0.0037l-0.0032,0.0018l-0.0036,0.0054
		l-0.0073,0.0036l-0.0036,0.0069l-0.0032,0.009l-0.0037,0.0123v0.0123l-0.0036,0.0141l-0.0068,0.0141v0.0177l-0.0037-0.0054h-0.0036
		h-0.0068l-0.0037,0.0036l-0.0036,0.0072l-0.0036,0.0087l-0.0069,0.0123l-0.0036,0.0159l-0.0036,0.0177l-0.0037,0.0177v0.021v0.0213
		v0.0105l-0.0068,0.0108v0.0123l-0.0036,0.0141v0.0141v0.0141v0.0159v0.0159v0.0159v0.0159v0.0141v0.0141v0.0177v0.0177v0.0174
		v0.0195v0.0195v0.0177l0.0036,0.0159l0.0036,0.0141l0.0032,0.0123v0.0087l0.0037,0.009l0.0036,0.0018l0,0l0,0l0.0036-0.0018
		v-0.0054l0.0036-0.0036v-0.0051l0.0033-0.0054v-0.0072v-0.0051v-0.0072v-0.0069v-0.0072v0.0036l0,0h0.0036l0.0036-0.0036v-0.0018
		v-0.0051l0.0037-0.0072l0.0032-0.0054v-0.0087v-0.0069l0.0036-0.0108v-0.0087l0.0073,0.051l0.0032,0.0108v0.0087l0.0036,0.0105
		v0.0127v0.0141v0.0105v0.0105l-0.0036,0.0108l-0.0032,0.0123v0.0069v0.0054l-0.0037,0.0054v0.0069l-0.0036,0.009v0.0105v0.0087
		v0.0108v0.0123l-0.0036,0.0105v0.0141v0.0105v0.0127v0.0105v0.0123v-0.0159l-0.0069-0.0105v-0.0108l-0.0036-0.0069l-0.0036-0.0054
		v-0.0018l-0.0069,0.0018l-0.0036,0.0036v0.0072l-0.0036,0.0105l-0.0037,0.0105v0.0159v0.0864l-0.0141,0.0336l-0.014,0.0459
		l-0.0178,0.0582l-0.0105,0.0673l-0.0068,0.0796l-0.0073,0.081l-0.0036,0.09v0.0918v0.0937l0.0036,0.0919l0.0073,0.0882
		l0.0032,0.0814v0.0174v0.0195v0.0159l0.0036,0.0195v0.0159v0.0159v0.0174v0.0177l0.0036,0.0159v0.0177l0.0037,0.0123l0.0032,0.0159
		l-0.0069,0.0423l-0.0036,0.0409v0.0387l-0.0036,0.0423l-0.0032,0.0423v0.0427v0.0423V73.37v0.0441v0.0441v0.0423v0.0691v0.0228
		v0.0264v0.0249v0.0246v0.0246v0.0249v0.021l-0.0037,0.0268l-0.0036,0.021v0.0231l-0.0036,0.0405v0.0177l-0.0032,0.0195
		l-0.0037,0.021v0.0177v0.0228v0.0195v0.0195v0.0228v0.0177v0.0231v0.0192l-0.0072-0.0141l-0.0032-0.0123l-0.0037-0.0069
		l-0.0036-0.0054l-0.0072,0.0018l-0.0069,0.0036l-0.0036,0.0087l-0.0069,0.0123l-0.0036,0.0141v0.0195l-0.0073,0.0213v0.0228
		l-0.0068,0.0072v0.0087l-0.0036,0.0141l-0.0037,0.0159l-0.0032,0.0195l-0.0036,0.021v0.0231v0.0228v0.0264v0.0213l-0.2119,0.0018
		l-0.929,0.0054l-0.678,0.0069l-0.3389,0.0105l0.0141,2.6098l-0.1696-0.0018l-1.1687-0.0123l-0.0036-0.3584l-0.1624-0.0105
		l-0.4311-0.009l-0.6849-0.0087l-0.9218-0.009l-1.1369-0.0069l-2.331-0.0123v-0.4061l-0.0527-0.0018l-0.2684-0.0018l-0.4697-0.0036
		v0.0036l-0.6675-0.0018v-0.0018l-0.8476-0.0018l-0.2401-0.0018v0.0018v0.0123l-0.7731,0.0018h-0.3251l-0.8367,0.0018h-0.4802
		l-0.0073-1.739l-0.8263-0.0072l-0.0177-7.2377l-1.1619-0.0828l-1.3456-0.0778l-1.5076-0.0705l-1.653-0.0618l-1.084-0.0318
		l0.0037-0.2615h-0.664l-0.0036-0.0051l-0.0178-0.0177l0.0036-0.0264l0.0037-0.0249v-0.0282l-0.0037-0.0228l-0.0068-0.0282
		l-0.0073-0.0231l-0.0141-0.0246l-0.0104-0.0213l-0.0178-0.0228l-0.014-0.0195l-0.0214-0.0159l-0.021-0.0177l0.0492-0.0846
		l0.0427-0.0882l0.0314-0.09l0.0286-0.0955l0.0174-0.0955l0.0108-0.0969l0.007-0.0973l-0.007-0.0987l-0.0108-0.0973l-0.0141-0.0937
		l-0.0319-0.0933l-0.0314-0.0919l0.0705-0.8776v-0.2047l0.0355,0.0174l0.0809-0.0174l0.0601-0.0955h0.0881v-0.1801l-0.0246-0.0123
		l-0.0635,0.0087v-0.1587l-0.007-0.0108l-0.0073-0.0087l-0.0104-0.009l-0.0037-0.0105l-0.0068-0.0123l-0.0037-0.0105l-0.0036-0.0108
		v-0.0141v-0.0123l0.0036-0.0105l0.0037-0.0123l0.0032-0.009l0.0319-0.0705l0.0281-0.0705l0.0282-0.0727l0.0249-0.0723
		l0.0178-0.0723l0.0141-0.0777l0.0105-0.0723l0.0036-0.0777l0.0032-0.0759v-0.0777l-0.0032-0.0741l-0.0073-0.0759l-0.035-0.8332
		l0.0068-0.0495l0.0073-0.0495v-0.051v-0.0513v-0.0495l-0.0073-0.0477l-0.0036-0.0528l-0.0141-0.0477l-0.0105-0.0495l-0.0177-0.0492
		l-0.0177-0.0459l-0.0178-0.0459l-0.0246-0.0372l-0.0282-0.03l-0.0354-0.0264l-0.0351-0.0228l-0.0426-0.0177l-0.0388-0.0141
		l-0.046-0.0108l-0.0423-0.0033l-0.0423,0.0033h-0.0282h-0.0286l-0.0246-0.0033l-0.0282-0.0072l-0.0246-0.0105l-0.0282-0.0123
		l-0.025-0.0145l-0.021-0.0174l-0.0177-0.0177l-0.0177-0.025l-0.0177-0.021l-0.014-0.0246l-0.0106-0.1819l0.0178-0.0108
		l0.0104-0.0123l0.0141-0.0123l0.0105-0.0123l0.0072-0.0141l0.0105-0.0159l0.0072-0.0159l0.0069-0.0141l0.0072-0.0177v-0.0177
		l0.0033-0.0159v-0.0177l0.0109-0.0123l0.0068-0.0123l0.0036-0.0141l0.0037-0.0123l0.0036-0.0141v-0.0127v-0.0155l-0.0036-0.0127
		l-0.0037-0.0141l-0.0036-0.0141l-0.0068-0.0123l-0.0109-0.0123V60.182l0.0109-0.0369l0.0068-0.0354l-0.0036-0.0372l-0.0069-0.0351
		l-0.0105-0.0354l-0.0177-0.0318l-0.0213-0.03l-0.0282-0.0264l-0.0283-0.0195l-0.0318-0.0192l-0.0318-0.0127l-0.0387-0.0069
		l-0.025-0.0036l-0.0282-0.0036h-0.0282h-0.0282h-0.0319l-0.0282,0.0036h-0.0282l-0.0246,0.0054l-0.0286,0.0051l-0.0282,0.0054
		l-0.0282,0.0072l-0.0281,0.0069l-0.0178,0.0072l-0.0141,0.0069l-0.0177,0.0105l-0.0141,0.0127l-0.0105,0.0141l-0.0105,0.0141
		l-0.0072,0.0177l-0.0105,0.0159l-0.0036,0.0155l-0.0037,0.0195v0.0195v0.0177v0.2701l-0.0032,0.0105l-0.0072,0.0123l-0.0073,0.0141
		v0.0127l-0.0032,0.0141v0.0141v0.0141l0.0032,0.0141v0.0105l0.0073,0.0141l0.0072,0.0141l0.0032,0.0123v0.0159v0.0141v0.0177
		v0.0141l0.0037,0.0141l0.0036,0.0177l0.0068,0.0123l0.0073,0.0141l0.0069,0.0141l0.0108,0.0127l0.0069,0.0141l0.0141,0.0087v0.226
		l-0.0032,0.0123l-0.0109,0.0123l-0.0036,0.0127l-0.0069,0.0141l-0.0105,0.0105l-0.0072,0.0072l-0.0141,0.0105l-0.0105,0.0069
		l-0.0109,0.0072l-0.0141,0.0036l-0.014,0.0051l-0.0142,0.0036l-0.0387-0.0018h-0.0355l-0.0423,0.0018l-0.0387,0.0036
		l-0.0354,0.0087l-0.0355,0.0108l-0.0351,0.0123l-0.0391,0.0159l-0.035,0.0159l-0.0319,0.021l-0.0318,0.0195l-0.0317,0.0264
		l-0.0178,0.0441l-0.0141,0.0459l-0.0105,0.0513l-0.0108,0.0459l-0.0069,0.0492l-0.0072,0.0477l-0.0033,0.0513v0.0495l0.0033,0.0492
		l0.0072,0.0495l0.0069,0.0495l0.0108,0.0495l-0.0072,0.0423l-0.0036,0.0441v0.0441v0.0423l0.0036,0.0441l0.0036,0.0423
		l0.0036,0.0423l0.0069,0.0445l0.0036,0.0405l0.0069,0.0459l0.0109,0.0423l0.0106,0.0405l-0.0247,0.0582l-0.0249,0.0618
		l-0.0174,0.0568l-0.0145,0.0633l-0.0105,0.0618l-0.0068,0.0618l-0.0073,0.0636v0.0655l0.0073,0.0615l0.0068,0.0636l0.0105,0.0618
		l0.0391,0.1501l-0.0036,0.6321l-0.0036,0.0655l-0.0033,0.0669l-0.0036,0.0673v0.0655v0.0651l0.0069,0.0673v0.0655l0.0108,0.0651
		l0.0069,0.0655l0.0072,0.0655l0.0142,0.0651l0.0142,0.0673l-0.0142,0.0336l-0.0109,0.0369l-0.0105,0.0387l-0.0069,0.0372
		l-0.0072,0.0354l-0.0036,0.0387v0.0391l-0.0033,0.0369l-0.0036,0.0372l0.0036,0.0387l0.0033,0.0387v0.0372l-0.0246,0.0655
		l-0.0214,0.0669l-0.0209,0.0673l-0.0178,0.0669l-0.0176,0.0691l-0.0142,0.0687l-0.0069,0.0691l-0.0072,0.0705l-0.0069,0.0705
		l-0.0036,0.0709v0.0687v0.0687l0.0177,0.1768l-0.0286,0.0228l-0.2542,0.3001l0.0073-6.7889h-0.1379l-1.9775-30.7285l-0.127-0.6657
		l-0.3142-0.6071l-0.1733-0.2032l-0.4306-0.4661l-0.5406-0.3124l-0.2893-0.1023l-0.4697-0.0882l-0.226-0.0372l-0.2651-0.0141
		l-0.2574,0.0054l-0.226,0.03l-0.4697,0.0741l-0.2933,0.0933l-0.5439,0.2933l-0.4379,0.4538l-0.1729,0.2014l-0.3142,0.5949
		l-0.1378,0.6621l-2.1082,30.7603h-0.1309l-0.0033,0.3989l-0.0354-0.0354l-0.0565-0.0405l-0.06-0.0354l-0.0601-0.0315l-0.06-0.0231
		l-0.0673-0.0177l-0.0669-0.0141l-0.0673-0.0036h-0.0669l-0.0709,0.0072l-0.0637,0.0141l-0.0351,0.0105l-0.0318,0.0141
		l-0.0282,0.0127l-0.0281,0.0174l-0.0287,0.0177l-0.0245,0.0177l-0.0246,0.0231l-0.025,0.0246l-0.021,0.0246l-0.0213,0.0264
		l-0.014,0.03l-0.0142,0.0304l-0.0069,0.0105v0.0105l-0.0072,0.0123v0.0108v0.0105v0.0123v0.0105v0.0127l0.0036,0.0141
		l0.0036,0.0087l0.0032,0.0123l0.0073,0.009l-0.0282-0.0072l-0.025-0.0054l-0.0246-0.0051l-0.0214-0.0036l-0.0245-0.0018
		l-0.0246-0.0018h-0.0282l-0.025,0.0018l-0.021,0.0018l-0.0282,0.0054l-0.025,0.0051l-0.0246,0.0036l0.0319-0.0105l0.0282-0.0177
		l0.0209-0.0246l0.0178-0.0286l0.0109-0.0315l0.0032-0.0318l-0.0032-0.0336l-0.0109-0.03l-0.0178-0.0282l-0.0209-0.025
		l-0.0282-0.0174l-0.0319-0.0141l-0.0249-0.0054l-0.0246-0.0054l-0.0319-0.0036h-0.0246h-0.0249l-0.0282,0.0036l-0.0283,0.0054
		l-0.0282,0.0054l-0.0246,0.0087l-0.0249,0.0123l-0.0245,0.0105l-0.0247,0.0159l-0.0814,0.0108l-0.0778,0.0159l-0.0778,0.021
		l-0.0774,0.0264l-0.0778,0.0318l-0.0709,0.0336l-0.0705,0.0423l-0.0705,0.0441l-0.0637,0.0477l-0.0636,0.0513l-0.0565,0.0582
		l-0.0564,0.06l-0.0178,0.0213l-0.014,0.0246l-0.0108,0.021l-0.0106,0.03l-0.0069,0.0268l-0.0036,0.0282l-0.0036,0.0264
		l0.0036,0.0282v0.0264l0.0068,0.0268l0.0073,0.0264l0.0106,0.0264l0.0422,0.0882l0.0459,0.0882l0.0496,0.0868l0.0496,0.0828
		l0.0495,0.085l0.0565,0.081l0.0564,0.0814l0.06,0.0796l0.0601,0.0774l0.0637,0.0759l0.067,0.0741l0.0672,0.0727l-0.0037,0.0369
		v0.0372l0.0037,0.0405l0.0036,0.0372v0.0351l0.0032,0.0391l0.0073,0.0369l0.0072,0.0354l-0.0036,0.0018l0.0105,0.0369
		l0.0105,0.0372l0.0141,0.0351l0.0108,0.0354v0.0318v0.0318l0.0033,0.0336l0.0072,0.0318v0.0315l0.0106,0.0318l0.0037,0.03
		l0.0104,0.0318l0.0073,0.03l0.0141,0.0318l0.0072,0.03l0.021,0.0441l0.0072,0.0195l0.0069,0.0123l0.0036,0.0177l0.0036,0.0177
		l0.0069,0.0159l0.0036,0.0159v0.0174v0.0177v0.0177l0.0036,0.0177l-0.0036,0.0159l-0.0177,0.0423l-0.0282,0.0459l-0.0178,0.0459
		l-0.0177,0.0477l-0.014,0.0477l-0.0142,0.0474l-0.0069,0.0495l-0.0072,0.0477l-0.0069,0.0495l-0.0036,0.0492v0.0495v0.0513
		l-0.0318,0.081l-0.0282,0.0832l-0.0246,0.0828l-0.0249,0.085l-0.0142,0.0864l-0.0177,0.0882l-0.0105,0.0864l-0.0073,0.0868
		l-0.0032,0.0882l0.0032,0.0864v0.09l0.0109,0.0864l-0.0177,0.2473l-0.0178,0.2506l-0.0036,0.0409l-0.0032,0.0423l-0.0073,0.0423
		l-0.0104,0.0387l-0.0073,0.0427l-0.0141,0.0387l-0.0069,0.0405l-0.0176,0.0409l-0.0142,0.0387l-0.0141,0.0372l-0.0214,0.0387
		l-0.0177,0.0372l-0.0141,0.0582l-0.0141,0.0564l-0.0105,0.06l-0.0036,0.0582l-0.0036,0.06l-0.0033,0.0582l0.0033,0.06
		l0.0036,0.0582l0.0036,0.06l0.0069,0.06l0.0141,0.0568l0.0036,0.0282l-0.0141,0.0018l-0.0246,0.0069l-0.0109-0.0105l-0.0141-0.0105
		l-0.014-0.0054l-0.0142-0.0087l-0.0141-0.0054l-0.0105-0.0054l-0.0177-0.0036l-0.0177-0.0014l-0.0105-0.0018h-0.0177
		l-0.0142,0.0018l-0.0141,0.0014l-0.0036-0.0069l-0.0036-0.0087l-0.0068-0.0054l-0.0073-0.0072l-0.0033-0.0033l-0.0073-0.0054
		l-0.0105-0.0018l-0.0072-0.0036h-0.0105l-0.0073,0.0036l-0.0104,0.0018l-0.0069,0.0036v0.0033l-0.0072,0.0036l-0.0037,0.0054
		l-0.0068,0.0036v0.0051l-0.0037,0.0072v0.0051v0.0072v0.0054v0.0051l0.0037,0.0054v0.0054l-0.0214,0.0405v0.2437v0.0087
		l0.0036,0.0054l0.0069,0.0069l0.0109,0.0054l0.0068,0.0036l0.0073,0.0051h0.0068l0.0073,0.0036l0.0068-0.0018l0.0109-0.0018
		l0.0069-0.0033l0.0072-0.0036l0.2047,0.136l0.0354,0.0441l0.0423,0.0387l0.0073,0.0054l-0.0036,0.2296v0.0069l-0.618-0.0018v0.2614
		l-1.0063,0.0246l-1.6848,0.0514l-1.5394,0.06l-1.3738,0.0705l-1.1937,0.0778l-1.0099,0.0832l-0.8054,0.09l-0.0632,0.0105
		L814.634,74.38l-0.307,0.0036l-1.1373,0.0174l-0.9004,0.0177l-0.6639,0.0195l-0.0141,1.6721l-0.3215,0.0018l-0.4766,0.0018
		l-0.2614,0.0018h-0.0424v0.413l-2.4683,0.0123l-1.1619,0.009l-0.9358,0.0105l-0.6959,0.0072l-0.4307,0.0105l-0.1483,0.0105
		l-0.0073,0.3638l-1.2042,0.0123l0.0355-2.659l-0.3956-0.0108l-0.7449-0.0105l-0.9854-0.0051h-0.272v-0.0018v-0.0231v-0.0264
		v-0.0246v-0.0231l-0.0036-0.021l-0.0032-0.0195l-0.0037-0.0177l-0.0036-0.0141l-0.0036-0.0105l-0.0036-0.0036l-0.0033-0.0264
		l-0.0036-0.0213l-0.0036-0.0213l-0.0036-0.0141l-0.0033-0.0123l-0.0072-0.0087l-0.0036-0.0036l-0.0069-0.0018l-0.0072,0.0054
		l-0.0037,0.0069l-0.0032,0.0141l-0.0036,0.0141v-0.021v-0.0213v-0.021v-0.0213v-0.0228l-0.0036-0.0195v-0.0213v-0.0192
		l-0.0037-0.0195v-0.0195v-0.021l-0.0032-0.0409l-0.0036-0.0228l-0.0037-0.0231v-0.0246v-0.0246v-0.0249v-0.0246v-0.0264v-0.0231
		V73.536v-0.0246v-0.0709v-0.0441v-0.0459v-0.0423v-0.0441v-0.0459V73.174l-0.0036-0.0441v-0.0405l-0.0032-0.0427l-0.0036-0.0405
		l-0.0037-0.0423l0.0037-0.0159l0.0036-0.0159v-0.0159v-0.0177l0.0032-0.0177v-0.0141v-0.0192l0.0036-0.0177V72.812v-0.0195v-0.0177
		v-0.0174l0.0073-0.085l0.0069-0.0882l0.0072-0.0955v-0.0951V72.3l-0.0072-0.09l-0.0069-0.0882l-0.0073-0.0796l-0.0141-0.0705
		l-0.0104-0.0568l-0.0178-0.0474l-0.0141-0.0354v-0.0882l-0.0036-0.0141v-0.0123v-0.0108l-0.0069-0.0069l-0.0036-0.0054v-0.0036
		l-0.0072,0.0036v0.0054l-0.0033,0.0069v0.0123l-0.0036,0.0108l-0.0036,0.0159v-0.0123v-0.0127v-0.0105v-0.0123v-0.0123v-0.0123
		v-0.0127v-0.0105v-0.0087l-0.0036-0.0127l-0.0037-0.0087v-0.0054v-0.0051l-0.0032-0.009v-0.0069v-0.0108l-0.0036-0.0105V71.562
		v-0.0141v-0.0123v-0.0127v-0.0105l0.0036-0.0105v-0.009l0.0105-0.051v0.0087l0.0036,0.009v0.0105l0.0036,0.0054v0.0069v0.0054
		v0.0051l0.0033,0.0036v0.0036h0.0036h0.0036v-0.0036v0.0072v0.0069v0.0072v0.0069v0.0054v0.0072v0.0051l0.0036,0.0036v0.0018
		l0.0033,0.0036v0.0014h0.0036v-0.0051l0.0072-0.0054v-0.0123l0.0069-0.0105v-0.0141l0.0036-0.0177v-0.0177v-0.0195v-0.0192v-0.0177
		v-0.0195v-0.0177v-0.0123v-0.0177v-0.0159v-0.0159v-0.0159v-0.0159v-0.0141v-0.0141v-0.0141l-0.0036-0.0141v-0.0123l-0.0036-0.0087
		l-0.0033-0.0213v-0.0213l-0.0036-0.0192l-0.0036-0.0177l-0.0036-0.0159l-0.0069-0.0123v-0.0108l-0.0072-0.0051l-0.0033-0.0054
		l-0.0036-0.0018l-0.0036,0.0018l-0.0073,0.0054v-0.0159l-0.0032-0.0159l-0.0036-0.0141l-0.0036-0.0141l-0.0037-0.0108
		l-0.0032-0.0087l-0.0073-0.0087l-0.0036-0.0054l-0.0032-0.0036h-0.0036h-0.0037l-0.0068,0.0018l-0.0109-0.0987l-0.0141-0.0195
		l-0.0104-0.0141l-0.0142-0.0036l-0.0141,0.0054l-0.0109,0.0159l-0.0141,0.0246l-0.0105,0.0318l-0.0068,0.0423l-0.0109,0.0477
		l-0.0105,0.0528l-0.0072,0.0586l-0.0069,0.0651l-0.0105,0.0919l-0.0072,0.0955l-0.0069,0.1023l-0.0036,0.1023l-0.0072,0.106v0.1059
		v0.106l0.0072,0.1041l0.0036,0.1009l0.0069,0.0969l0.0072,0.09l0.0105,0.0864l-0.0705,0.3001l-0.0318-0.0033l-0.0037-0.0072
		l-0.0104-0.0018v0.0054l-0.0109,0.0105l-0.0033,0.0177l-0.0036,0.0213l-0.0072,0.03v0.0282v0.0351v0.03v0.0336v0.03l-0.0105,0.0372
		l-0.0105,0.0441l-0.0141,0.0477l-0.0109,0.0528l-0.0068,0.0564l-0.0109,0.06l-0.007,0.0618l-0.0036,0.0691l-0.0068,0.0687
		l-0.0037,0.0691l-0.0072,0.0723v0.0741v0.0564v0.0564l0.0036,0.0532l0.0073,0.051l0.0032,0.0445l0.0036,0.0387l0.0106,0.0318
		l0.0109,0.0246l0.0104,0.0141l0.0104,0.009l0.0109-0.0018l0.0105-0.0105l-0.0036,0.0174l-0.0069,0.0195v0.0246v0.0231
		l-0.0036,0.0264l-0.0036,0.0249v0.0282v0.0264v0.0282v0.0264v0.0282l0.0036,0.0108h-0.2506l-0.9817,0.0018l-0.7349,0.0051
		l-0.3848,0.0105l-0.0423,3.099l-1.236,0.0195l-1.5679,0.0333l-1.2501,0.0354l-0.8972,0.0372l-0.5084,0.0387l-0.0847,0.0387
		l-0.0036,0.2296l-0.5685,0.0105l-1.9247,0.0495l-1.5891,0.0532l-1.1937,0.0546l-0.759,0.06l-0.2756,0.0582l-0.0104,0.4979
		l0.2574,0.0759l0.8372,0.0759l1.4479,0.0777l1.4656,0.0528h-8.917l-0.0247-1.0469l-0.3247-0.5402l-0.2192-0.0691l-0.1942-8.2405
		h0.4448l-0.533-22.5426l-0.0177-0.7963l-0.0705-0.0105l-0.0709-0.0159l-0.0632-0.0231l-0.0673-0.0315l-0.0564-0.0391
		l-0.0565-0.0441l-0.0532-0.0477l-0.0422-0.0564l-0.0391-0.0582l-0.0314-0.0654l-0.0286-0.0651l-0.0174-0.0691l0.1234-0.4061
		l0.0568-0.422l-0.0214-0.4274l-0.0882-0.4184l-0.1591-0.4007l-0.226-0.3674l-0.2824-0.3265l-0.332-0.2792l-0.3671-0.2188
		l-0.4028-0.1519l-0.4239-0.0882l-0.4234-0.0123l-0.0286-1.2678l-0.2505,0.0264l-0.2542-0.0123l-0.2438-0.0532l-0.2401-0.09
		l-0.2224-0.1219l-0.2051-0.1569l-0.1765-0.1819l-0.1447-0.2083l-0.1132-0.2278l-0.0778-0.2401l-0.0387-0.2491v-0.2047
		l0.3106-0.0955l0.1342-0.0864l0.1027-0.1237l0.0633-0.1465l0.0213-0.1606l-0.0282-0.1591l-0.0673-0.1483l-0.1092-0.1219
		l-0.1413-0.0864l-0.1555-0.0495h-0.1588l-0.0105-0.4802l0.5366-0.1801l0.4307-0.6853l-0.985-0.0018l-0.0109-0.3493h-0.7272
		l-0.0109-0.3743l-0.3989-0.5493l0.1447-0.2473l0.1132-0.2665l0.0742-0.2806l0.0354-0.2842v-0.2897l-0.0354-0.2878l-0.0742-0.2842
		l-0.1096-0.2701l-0.1447-0.2542l-0.1801-0.235l-0.2051-0.2101l-0.2296-0.1819l-0.6708,0.2933l-0.046,0.051l-0.0955-0.0069
		l-0.1342-0.03l-0.12-0.0532l-0.1165-0.0669l-0.106-0.0882l-0.0883-0.0991l-0.1413-0.2029l-0.1379-0.2068l-0.1201-0.2152
		l-0.1165-0.2191l-0.0987-0.2242l-0.0919-0.2296l-0.0778-0.2329l-0.0705-0.2351l-0.0532-0.2401l-0.0459-0.2437l-0.0319-0.2401
		l-0.0209-0.2434l0.6212-0.8617L771.7915,27.9l0.2365-0.4361l-0.5084-0.703l-0.618-0.6039l-0.7167-0.4925l-0.7839-0.362
		l-0.191-9.5347l-3.3652-0.0036l0.1766,9.5347l-0.7736,0.362l-0.5757,0.362l-0.6849,0.4856l-0.5934,0.5952l-0.473,0.6954
		l0.2611,0.4329l0.0072,0.2365l0.6462,0.8527l-0.0105,0.2401l-0.025,0.2405l-0.035,0.2365l-0.046,0.2383l-0.06,0.2332
		l-0.0673,0.2293l-0.0814,0.2278l-0.0914,0.2209l-0.1059,0.217l-0.1097,0.2119l-0.1273,0.2065l-0.1342,0.1978l-0.0387,0.0495
		l-0.0883,0.0069l-0.1342-0.0105l-0.1308-0.0318l-0.1238-0.051l-0.1128-0.0673l-0.106-0.0882l-0.0883-0.1005l-0.537,0.2929
		l-0.2224,0.1783l-0.1942,0.2068l-0.166,0.2329l-0.1342,0.2524l-0.0882,0.2296l-13.1581-0.0069l-0.0636-0.2419l-0.1093-0.2719
		l-0.145-0.256l-0.1729-0.2332l-0.2015-0.2101l-0.2296-0.1819l-0.3352,0.2683l-0.0885,0.0372l-0.127,0.03l-0.1342,0.0123
		l-0.1342-0.0123l-0.1309-0.03l-0.1233-0.0495l-0.1132-0.0687l-0.1023-0.0864l-0.0883-0.1027l-0.145-0.2011l-0.1306-0.2083
		l-0.1236-0.2155l-0.1093-0.2191l-0.0991-0.226l-0.0882-0.2278l-0.0814-0.2329l-0.0601-0.2365l-0.0564-0.2387l-0.0423-0.2416
		l-0.0282-0.2419l-0.0177-0.2437l0.6285-0.8617l-0.0037-0.2419l0.2401-0.4361l-0.4976-0.7026l-0.6147-0.6057l-0.7131-0.4943
		l-0.784-0.3602l-0.0955-9.5419l-3.3688-0.0036l0.0811,9.5437l-0.7804,0.3602l-0.6993,0.4907l-0.6072,0.6057l-0.2473,0.3497
		l-0.4838,0.6939l0.2614,0.4307l0.0036,0.2401l0.639,0.8512l-0.0141,0.2419l-0.0282,0.2383l-0.0355,0.2401l-0.0459,0.2365
		l-0.0633,0.2314l-0.0709,0.2311l-0.0846,0.226l-0.0919,0.2228l-0.106,0.2188l-0.12,0.2101l-0.127,0.2065l-0.0391,0.0604
		l-0.0387,0.0333l-0.1168,0.0691l-0.1201,0.051l-0.1306,0.0318l-0.1342,0.009l-0.1306-0.009l-0.1309-0.0318l-0.1269-0.0528
		l-0.1095-0.0673l-0.106-0.0864l-0.0883-0.1005l-0.226,0.1819l-0.1978,0.2101l-0.2224,0.286l-0.1696,0.2329l-0.1342,0.2524
		l-0.0919,0.2314l-6.2505-0.0054l-0.0742-1.7762h0.5685l0.1024-0.2029l-0.3953-0.558h-0.3074l-0.1342-3.3337l-0.0214-4.5411
		l0.2969-0.1909l0.2225-0.6108l-0.4944-0.8617l-0.0036-0.0159l-0.0073-1.3984l0.2051,0.0018l0.0881-0.2842l-0.3392-0.4788h-0.4979
		l-0.106-0.4079l-0.9041-1.2819l-0.1624-0.5294l0.1024-0.0513l0.5651-0.5507l0.1519-0.1732l0.3884-0.7576l0.1342-0.8368
		l-0.1378-0.8404l-0.0742-0.2173l-0.3811-0.7276l-0.597-0.5489l-0.2047-0.1255l-0.0496-0.021l-0.0105-2.8799l0.1765-0.0709
		l0.0777-0.367l-0.7771-2.4615l0.1555-0.95l-0.7626-2.3678l0,0l0.4096-2.6821L723.9304,0l0.4802,2.698l-0.7131,2.3519
		l-0.0355,0.2383l0.1519,0.8494l-0.6849,2.3219l-0.0567,0.3674l0.2542,0.0987l0.0072,2.8586l-0.0354,0.0141l-0.247,0.1255
		l-0.572,0.5493l-0.1415,0.187l-0.3884,0.7558l-0.1306,0.8368l0.1374,0.8408l0.0919,0.2065l0.3779,0.724l0.5898,0.5544
		l0.2083,0.1114l0.0672,0.0282l-0.1273,0.4397l-0.8581,1.2801l-0.0952,0.4079h-0.6147l-0.2719,0.4784l-0.0387,0.2806l0.2897,0.0018
		l0.0032,1.6211l-0.3493,0.6531l-0.0991,0.6129l0.5052,0.307l0.0069,4.8717l-0.1024,2.9558h-0.3674l-0.3175,0.558l-0.046,0.2029
		h0.7095L721.4584,33.1l-6.0563-0.0054l-0.06-0.2437l-0.1059-0.2719l-0.1374-0.2524l-0.1733-0.2365l-0.2014-0.2101l-0.226-0.1819
		l-0.0919,0.1005l-0.0988,0.0864l-0.1163,0.0691l-0.1201,0.0528l-0.1342,0.03l-0.1309,0.009l-0.1342-0.009l-0.1306-0.03
		l-0.1201-0.0546l-0.1165-0.0673l-0.1027-0.0864l-0.081-0.1023l-0.145-0.2014l-0.1306-0.2083l-0.1165-0.2137l-0.1096-0.2206
		l-0.0987-0.2242l-0.085-0.2296l-0.0741-0.2332l-0.0637-0.2347l-0.0492-0.2419l-0.0282-0.1537v-0.0087l-0.0145-0.2419l0.6357-0.8512
		v-0.2401l0.2437-0.4307l-0.0318-0.3424l-0.4943-0.703l-0.6075-0.6039l-0.7098-0.4943l-0.7804-0.3638l0.0214-9.5488l-3.376-0.0036
		l-0.0319,9.5524l-0.784,0.3602l-0.7098,0.4911l-0.6144,0.6057l-0.4979,0.7026l0.1342,0.3424l0.1273,0.2173v0.1182l0.1233,0.3356
		l0.5052,0.678l-0.0072,0.0933l-0.0282,0.2419l-0.0387,0.2419l-0.0565,0.2401l-0.0636,0.2369l-0.0742,0.2329l-0.0881,0.2314
		l-0.0992,0.2224l-0.1096,0.2206l-0.1201,0.2137l-0.1305,0.2101l-0.1414,0.2014l-0.0883,0.1005l-0.1024,0.085l-0.1127,0.0705
		l-0.1237,0.0513l-0.1309,0.0282l-0.1375,0.0123l-0.1309-0.0123l-0.127-0.03l-0.1237-0.0495l-0.1132-0.0705l-0.1024-0.085
		l-0.0883-0.1023l-0.226,0.1819l-0.2046,0.2083l-0.1733,0.2369l-0.1411,0.256l-0.1096,0.2683l-0.0705,0.2842l-0.0319,0.2896
		l0.0033,0.2893l0.0459,0.2878l0.0814,0.281l0.1129,0.2647l0.1519,0.2506l-0.392,0.5457l-0.0033,0.3779h-0.7311l-0.0036,0.3497
		l-0.9427-0.0018l0.3989,0.6885l0.1732,0.2351h0.3674l-0.0036,0.4271l-0.1624,0.0018l-0.1591,0.0459l-0.1342,0.0882l-0.106,0.1219
		l-0.0705,0.1483l-0.025,0.1591l0.025,0.1606l0.0636,0.1468l0.1766,0.217l0.1022,0.1219l0.1378,0.0864l0.1483,0.0459v0.0409
		l-0.0355,0.2488l-0.0774,0.2401l-0.1096,0.2278l-0.1414,0.2083l-0.1727,0.1855l-0.2015,0.1569l-0.226,0.1219l-0.2365,0.0882
		l-0.2473,0.0513l-0.2543,0.0141l-0.2506-0.0246l-0.0072,1.2678l-0.4271,0.0141l-0.4238,0.0846l-0.3992,0.1555l-0.3706,0.217
		l-0.3284,0.2774l-0.2756,0.3302l-0.2191,0.3674l-0.1519,0.4007l-0.0811,0.4202l-0.0177,0.4274l0.0637,0.4238l0.1306,0.4079
		l-0.0178,0.0669l-0.0246,0.0673l-0.0318,0.0633l-0.0355,0.0586l-0.0458,0.0564l-0.046,0.0495l-0.0601,0.0441l-0.0564,0.0387
		l-0.0637,0.03l-0.0704,0.0246l-0.0706,0.0159l-0.0709,0.009v0.6057l-6.2223-8.3023l-0.0173-0.0477l-0.106-0.1219l-0.0036-0.0018
		l-0.4415-0.588l0.0036-0.1978h0.5366l0.4488-0.6798l-0.2969-0.2437h-0.678v-0.1023l-0.3069-0.247h-0.417l0.0036-0.1255
		l-0.3815-0.5439l0.1519-0.2437l0.1201-0.2647l0.085-0.2756l0.0459-0.2842l0.0105-0.2897l-0.0318-0.2842l-0.0601-0.2788
		l-0.106-0.2705l-0.1342-0.2506l-0.1696-0.2314l-0.1942-0.2101l-0.3284-0.2893l-0.2224-0.1819l-0.0919,0.0987l-0.1024,0.0882
		l-0.1132,0.0691l-0.1237,0.0492l-0.1306,0.0318l-0.1378,0.009l-0.1305-0.009l-0.1309-0.0318l-0.0988-0.0387l-0.1164-0.1732
		l-0.1273-0.2083l-0.1128-0.2101l-0.106-0.2188l-0.0955-0.2209l-0.0813-0.2293l-0.0742-0.2296l-0.06-0.2351l-0.0492-0.2365
		l-0.0355-0.2383l-0.0213-0.2419l-0.0174-0.2401l0.6462-0.8527l0.0032-0.2369l0.2437-0.4343l-0.4765-0.6957l-0.3498-0.3493
		l-0.6039-0.6075l-0.7025-0.4925l-0.7805-0.3605l0.1165-9.5575l-3.3796-0.0036l-0.1306,9.5578l-0.7912,0.3602l-0.7131,0.4907
		l-0.6147,0.6057l-0.5048,0.7026l0.2506,0.4397l-0.0032,0.2401l0.6321,0.8635l-0.0177,0.2455l-0.0355,0.2434l-0.0387,0.2405
		l-0.0568,0.2401l-0.0633,0.2365l-0.0814,0.2329l-0.0882,0.2296l-0.0991,0.2278L677.846,31.05l-0.1273,0.2134l-0.1306,0.2105
		l-0.1446,0.2029l-0.0883,0.0987l-0.1027,0.0868l-0.1164,0.0687l-0.1237,0.0513l-0.1269,0.0318l-0.1342,0.0105l-0.1378-0.0105
		l-0.0673-0.0159l-0.0245-0.0318l-0.4593-0.2915l-0.2293,0.1801l-0.2087,0.2119l-0.1765,0.2332l-0.1447,0.256l-0.1096,0.2719
		l-0.0705,0.2824l-0.0355,0.2896v0.2893l0.0387,0.2878l0.0778,0.281l0.1169,0.2665l0.1483,0.2491l-0.3993,0.5489l-0.0069,0.3761
		l-0.7311-0.0018l-0.0069,0.3515l-0.9431-0.0018l0.3884,0.6885l0.4875,0.2369h0.0531l-0.0073,0.4253l-0.1624,0.0036l-0.1555,0.0459
		l-0.1411,0.0864l-0.106,0.1237l-0.0709,0.1483l-0.0246,0.1591l0.021,0.1587l0.0636,0.1483l0.1024,0.1219l0.1378,0.0882
		l0.3215,0.1414v0.1606l-0.0423,0.251l-0.0778,0.2383l-0.1132,0.2296l-0.1483,0.2083l-0.1693,0.1855l-0.205,0.1533l-0.2224,0.1237
		l-0.2401,0.09l-0.251,0.0513l-0.2505,0.0123l-0.2542-0.0246l-0.0213,1.2693l-0.4271,0.0141l-0.4238,0.085l-0.3992,0.1551
		l-0.3743,0.2191l-0.3318,0.2774l-0.2789,0.3302l-0.226,0.367l-0.1555,0.401l-0.0882,0.422l-0.0142,0.4271l0.0528,0.422
		l0.1309,0.4061l-0.0212,0.0691l-0.0247,0.0669l-0.0283,0.0636l-0.039,0.0618l-0.0496,0.0528l-0.0456,0.0513l-0.0604,0.0459
		l-0.0599,0.0372l-0.0634,0.03L669.3,45.5992l-0.0706,0.0177l-0.0705,0.0087l-0.0109,0.7999l-0.3956,22.6045h0.452l-0.1411,8.26
		l-0.1696,0.0723l-0.2929,0.5439l-0.0036,0.3443l-52.2717-1.5434l-22.011-26.6831l0.0282-2.1028l28.4525,3.7275l6.0422-1.2309
		l0.579-3.8103l-69.095-9.0526l-0.0673,0.4943l-0.1833,1.3843h-0.014l-0.0637,0.431l-0.4556,3.4979l2.3306,0.3052l-2.6025,27.3525
		l-2.9063-0.4874l-2.9063,0.4874l-2.5566-27.3452l2.3342-0.3074l-0.4488-3.4997l-0.0633-0.4289l-0.0141,0.0018l-0.1804-1.3861
		l-0.0705-0.4943l-68.8477,9.1145l0.5648,3.7962l6.0035,1.2219l28.3144-3.738l0.0213,2.0974l-21.9547,26.6217l-52.8437,1.5343
		l-0.3106-14.7437l0.7026-0.0405l0.2297-0.0123l-0.0319-1.4074l0.4767-0.0369l0.4629-0.0354l-0.0072-0.4697h-1.875l-0.2719-12.6742
		l0.9218-0.2824l-0.0108-0.5703l0.929-0.2915l-0.0141-0.7945h-2.0872l-10.3046-6.8331l-0.0741-4.326h-1.6844l-0.4133,0.277
		l0.0741,4.2855l-1.3311,1.2237v-0.0427l0.1201-0.2011l0.1092-0.0636l-0.1906-0.0796h-1.0277l-0.2401,0.1396l-0.187,0.1219h0.0847
		l0.1519,0.2137l0.0177,0.98l-0.431,0.3956h-0.7167l-0.0036-0.2014l0.1164-0.1891l0.1027-0.0615l-0.1801-0.0759h-0.9749
		l-0.2188,0.1269l-0.1732,0.1132h0.0777l0.1447,0.2047v0.0832h-5.5725l-0.1483-0.1645h-0.1164l-0.0355-2.7031l0.106-0.1837
		l0.1309-0.0973l-0.1945-0.0828h-1.0841l-0.1342,0.0828l-0.2542,0.2014h0.085l0.1551,0.2224l0.0354,2.6362l-0.1164,0.0777
		l-0.0109,0.0108l-13.6524,0.0014l-0.1342-0.1624h-0.1128l-0.0213-2.7049l0.0459-0.0814h0.025l0.1515-0.1996l-0.1765-0.0828h-1.01
		l-0.1555-1.4656l0.1168-0.482h-0.371l-0.2611,0.1678l-0.1342,0.3743v0.0991h-0.4274l-0.4307-0.8512l-0.2897-0.2929v-0.3269
		l0.3461-0.4961l-0.0036-0.7485l-0.618-0.4079l-0.5334,0.2014h-0.5153l0.0069,0.6636l0.2119,0.3692v0.2278l-0.413,0.2947
		l-0.498,0.8899l-0.1732,0.7294l0.3142,0.4925v0.4097h0.371l-0.2155,0.9818l0.4166,0.4484l-0.2365,1.3119l0.0036,0.6408
		l-3.0159,0.0018l-2.6343-1.1319l-0.0141-3.0773h-1.7799l-0.0459-14.1912l0.3706-0.4712V23.89l-0.1801-0.4979l-0.141-0.0882
		l0.1342-0.0673l0.0987-0.1287l0.8335-0.4202v-0.2191l-0.2509-0.0177l0.2614-0.3388v-0.2224l-0.0741-0.2173l0.3178-0.1519v-0.226
		l-0.8512-0.5648l-0.3952,0.0528l-0.883-0.3019l-0.0637-0.4448l-0.166-0.4611l-0.7272-1.6931l-1.1441-1.411l-0.4875-0.3388
		l-1.3488-0.9377l-0.572-0.2119l-0.9008-0.2596v-0.1642l0.0991-0.0987l0.0036-0.0072v-0.0018l0.0105-0.0105v-0.3833h0.0069
		l0.0109-0.0123l0.0033-0.0087l-0.0069-3.5066l0.0423-0.0268l0.0741-0.1519v-0.0441l-0.0355-0.0846l0.2333-0.1606v-0.055
		l-0.0742-0.0051l0.0564-0.1186V9.8298l-0.0351-0.0882l0.0705-0.0372v-0.051l-0.2191-0.1696l-0.0919,0.0177l-0.1833-0.0759
		L386.4466,9.39l-0.0564-0.136l-0.166-0.3971l-0.2719-0.332l-0.1237-0.0937l-0.3179-0.2155l-0.1342-0.0546l-0.3001-0.0777
		l0.0528-0.0705l0.0459-0.2068v-0.217l-0.0951-0.3233l-0.145-0.3424l-0.0987-0.0723V6.2172l0.127-0.1519l0.0354-0.1555
		l0.1765-0.0564h0.1237l0.0919,0.0528h0.06V5.8111L385.352,5.767l-0.1414-0.0354l-0.2506,0.0441V5.6115l0.06-0.1237l-0.0214-0.0759
		l-0.0564-0.0177l-0.0778,0.0372l-0.0459,0.1414l-0.0283,0.0141V5.2723l-0.0354-0.03V4.4956l0.4097-0.1501l0.1588-0.0777
		l0.0992-0.1146l0.0422-0.1537V3.7716l0.0564-0.0087l0.0213-0.0409l-0.0072-0.0492l-0.0492-0.0427l-0.0741-0.0141l-0.0213-0.4379
		l-0.0636,0.0072h-0.2401l0.0036,0.2897h0.2365l0.0213,0.1519l-0.0391,0.0387l-0.1306,0.0937l-0.1023,0.0441V3.542l-0.06-0.0423
		h-0.1132l-0.106,0.3479h-0.0423l-0.0423-0.5334l0.106-0.0846l0.1377-0.0369l0.0919-0.0759l0.0318,0.0351l0.0951-0.0459
		l0.0459-0.0723l-0.0459-0.0246l-0.3497,0.1428l-0.1092-0.0336l0.0351-0.1092l0.0814-0.0372V2.8781l-0.06-0.0705h-0.0564V2.6188
		l-0.0213-0.0159h-0.141v0.2029l-0.4806,0.2014l-0.1447,0.1942v0.3088l0.1128,0.0759l-0.2083,0.0991V3.853h0.2473V3.6852
		l0.106-0.1237l0.3001-0.0546l0.1378-0.1519v0.7981L384.508,4.185h-0.1168V4.1408l0.0495-0.0586V3.8758l-0.0637-0.0405V3.7716
		l-0.0423-0.0387l-0.0705,0.0282l-0.0458,0.1041l-0.0319,0.136h-0.0882l-0.4029,0.0354l-0.2364-0.0336l-0.1201-0.0796h-0.1201
		l-0.0919,0.2437l0.0423,0.0759l0.1696,0.0387l0.1906-0.106h0.106l0.3287,0.281l0.4166,0.0546h0.2578v1.1123l-0.0213,0.1573h-0.1164
		l-0.06-0.03l-0.06-0.0882l-0.1659-0.0372l-0.1624,0.0264l-0.0318,0.0868l0.1414-0.0108l0.1128,0.0318l0.1165,0.0582l0.1801,0.4028
		l0.0036,0.6762l-0.0919,0.03l-0.1696,0.895l0.0778,0.2119l0.039,0.0495l-0.2969,0.0777l-0.141,0.0564l-0.3142,0.2137
		l-0.1201,0.0937l-0.2719,0.332l-0.1696,0.3989L383.0601,9.39l-0.0036,0.0405l-0.1801,0.0709l-0.0919-0.0159l-0.2224,0.1678v0.0528
		l0.0705,0.0354l-0.0354,0.0882v0.0546l0.0532,0.1186l-0.0741,0.0051v0.0532l0.226,0.1624l0.0069,0.0018l-0.0318,0.081v0.0441
		l0.0709,0.1537l0.0492,0.0336l-0.0033,3.4979l0.0033,0.0105l0.0072,0.0072V14.44l0.0105,0.0123l0.0072,0.0018v0.0072l0.1024,0.106
		v0.1569l-0.8863,0.2578l-0.5757,0.2137l-0.3565,0.2437l-1.4834,1.0328l-1.1405,1.4125l-0.7239,1.6934l-0.1801,0.4607
		l-0.0637,0.4592l-0.8509,0.2878l-0.3992-0.055l-0.8617,0.567v0.226l0.311,0.1483l-0.0814,0.2224v0.2209l0.2506,0.3388
		l-0.2578,0.0177v0.2173l0.8476,0.4343l0.085,0.1164l0.1551,0.0777l-0.1269,0.0777l-0.1978,0.4961v0.1837l0.3638,0.4802
		l0.0282,0.0123l-0.039,14.168h-1.4935l-0.0109,2.9909l-2.8322,1.2183h-2.4789l0.0069-1.2183l-0.3142-2.4015l0.5052-0.2383
		l0.1974-0.8899l-0.1729-0.5844l-0.2437-0.1519l-0.2542-0.7963l-0.7417-0.5334l0.2224-0.1533l0.1273-0.5261v-0.1837l0.1096-0.0955
		v-0.3265l-0.4169-0.1873l-0.639,0.1642l-0.4452,0.422l-0.1519,0.7099l0.2828,0.1642l-0.6075,0.1591l-0.4167,0.3725l-0.5652-0.618
		l-0.4871-0.2065l-0.0072,0.8245l0.2965,0.2897l0.5334,0.2452l-0.3142,0.3728l-0.0036,0.639l0.1519,0.3692h0.4025l0.2401-0.1324
		l-0.1165,1.2215l0.1201,0.9731l-0.3074,1.5698l0.1627,0.648l0.1729,0.1005h-1.2182l-0.0036-0.0054l-0.106-0.1392l0.0177-2.5729
		l0.1414-0.2224h0.0778l-0.1345-0.2011l-0.1483-0.085l-1.0806,0.0018l-0.1801,0.0832l0.1446,0.2011h0.0318l0.0459,0.0796
		l-0.021,2.7031h-0.1096l-0.1273,0.1573l-13.6628,0.0018l-0.0036-0.0054l-0.1128-0.0792l0.0282-2.6347l0.1519-0.2206h0.0846
		l-0.2469-0.2014l-0.131-0.0846h-1.084l-0.1906,0.0846l0.1342,0.1041l0.0991,0.1768l-0.0317,2.7031h-0.1201l-0.1345,0.1573h-5.2792
		v-0.0832l0.1414-0.2047h0.081l-0.1765-0.1128l-0.2083-0.1273h-0.9749l-0.1801,0.0759l0.106,0.0636l0.1096,0.1888v0.1996h-1.0559
		l-0.0247-0.0231l0.021-1.3506l0.1519-0.2119h0.0849l-0.1837-0.1255l-0.2332-0.1374h-1.0276l-0.1906,0.0792l0.1096,0.0673
		l0.1201,0.1996l-0.0036,0.4166l-1.7339-1.598l0.0709-4.2855l-0.4028-0.2752h-1.6772l-0.0709,4.3224l-10.2409,6.8331h-2.0764
		l-0.0177,0.7948l0.9253,0.2965l-0.0145,0.5634l0.2227,0.0705l0.6957,0.2188l-0.2614,12.6601h-1.8644l-0.0072,0.4697l0.226,0.0177
		l0.7062,0.0582l-0.0282,1.4038l0.2224,0.0141l0.703,0.0405l-0.3178,15.425h-4.4497l0.2224-0.2101l0.7062-18.0648l-0.858-2.08
		l-1.3594-6.4234l0.0705-1.854l-0.1624-1.0118l-0.2368,1.01l-0.0705,1.8558l-1.1546,4.0168l-2.2955-6.5579l0.0459-1.2765h-0.4766
		l-0.7489,0.0195l-0.0351,1.0928l-5.8234-0.0036l0.4629-13.601l-3.5738-9.1391l-4.1532-0.0159l-1.3419,0.3493l-3.8704,8.9698
		l-4.965-0.0141l-0.1555-1.4107l0.0142-0.5916l-1.4866-0.0036l-0.1024,0.0213l-0.1027,0.0195l-0.0141,0.5912l-0.0459,0.2878
		l-2.08-0.0051l-5.1028-12.5791l-8.154-0.0333l-2.0587,0.8863l-6.0954,14.5882l-1.2852-0.0018l-0.0282-0.311l0.0069-0.503
		l-0.0387-0.2137l-0.3851-0.0018l-0.0565,0.1873l-0.0105,0.5507l-0.2223,1.7817l-0.0427,0.0087l-0.0246,0.3656l-0.0141,0.6939
		l0.0246,0.3247l-0.0351,2.1154l-26.9518-0.0459l0.0495-7.0522l-2.659-9.2486l-3.3833-0.0105v-0.1855h-0.021l-0.0709-1.6511v-0.5562
		l-0.0177-0.1501l-0.392-0.0018l-0.0174,0.2473l-0.0036,0.5048l-0.0141,0.2828l-2.2496-0.009l-4.347-7.7071l-3.9767,7.6753
		l-2.7262-0.0105l-0.0105-0.3247v-0.5052l-0.0069-0.2083l-0.392-0.0018l-0.0072,0.1978v0.558l-0.0318,1.8399l-0.0069,0.0195
		l-0.0036,0.3743v0.699l0.0036,0.3197l0.0033,1.8699h-0.0633l-0.2227,0.4961L193.9119,30.07l-0.2648-0.4202l-0.0177-1.9567
		l0.0036-0.3142l-0.0036-0.593l-0.0072-0.3233l-0.0068-0.0177l-0.0706-2.0091l-0.0036-0.507l-0.0141-0.247l-0.392-0.0036
		l-0.0105,0.1519l0.0033,0.5598l-0.0069,0.3283l-2.7052-0.0105l-3.9586-7.4583l-0.1696-0.281l-4.3506,7.7038l-2.2106-0.0072
		l-0.0177-0.2824l-0.0072-0.5598l-0.0246-0.1978l-0.3992-0.0014l-0.0173,0.2083l0.0069,0.5066l-0.0741,1.8135h-0.0177v0.0318
		l-4.4034-0.0159l-2.6347,9.2982l0.1237,7.1014l-25.4612-0.0441l-0.0564-2.1151l0.0318-0.3233l-0.0177-0.5916l-0.025-0.3211
		l-0.0387-0.0072l-0.2756-1.9636l-0.0141-0.5048l-0.0528-0.2383l-0.3956-0.0018l-0.0528,0.1642l0.0174,0.5562l-0.0315,0.3197
		l-1.5998-0.0054l-6.5192-14.9748l-1.974-0.8158l-8.9662-0.0351l-5.2015,12.7606l-2.2037-0.0054l-0.0282-0.1906l-0.0213-0.5016
		l-0.1696-0.0354l-1.6949-0.0051l0.0214,0.5048l-0.7594,7.2218l-0.1165,0.392l-3.1468-0.3302l-0.226-5.6802l-4.2833-9.4906
		l-1.3137-0.3338l-6.0881-0.0213l-3.6834,9.33l0.3569,7.9049h-0.1836l0.0104,0.2915l-1.8431-0.0036l-0.0249-0.4607l-0.2437-0.0177
		h-0.4907l0.0213,0.4766l-1.9918-0.0018l-0.0282-0.6585l-0.205-0.0159l-0.5012-0.0018l0.0315,0.6675l-0.9532,6.879h-0.4943
		l0.8863,18.5135l-3.5101,0.0033l-0.0072-0.1501l0.1659-0.0228l-0.0177-0.3056h-0.8368l-0.0423-0.8491l0.2365-0.0318l-0.0141-0.2878
		l-0.9286,0.0018l-0.0354-0.7098l0.2365-0.0282l-0.0177-0.3074h-0.8013l-0.0354-0.6994l0.1837-0.0192l-0.0141-0.2878h-0.8581
		l-0.0318-0.6075l0.2401-0.0228l-0.0177-0.3461L84.439,64.185l-0.3179,0.0333l0.0177,0.3443h0.2578l0.0246,0.5175l-5.1523,0.5826
		l-0.0213-0.3775l0.2509-0.0268l-0.0213-0.3602h-1.8045l-0.3533,0.0372l0.0177,0.3638h0.2683l0.0354,0.6303l-0.6075,0.0033
		l-0.3529,0.0409l0.0178,0.3797l0.2119-0.0018l0.0351,0.6831h-0.6039l-0.3566,0.0427l0.0177,0.3229h0.2152l0.0391,0.7558h-0.5475
		l-0.3566,0.0459l0.0141,0.286h0.272l0.0459,0.8458l-0.6425,0.0018l-0.3606,0.0477l0.0177,0.2842h0.2719l0.0423,0.8422H74.491
		l-0.3601,0.0528l0.0213,0.3992h0.2329l0.0424,0.7626h-0.805l-0.3602,0.0564l0.1446,2.6329l0.2119-0.0018l0.1978,3.6125
		l-6.9003-6.5224l-0.1873-2.9135l-0.0351-0.5507l0.7485-0.06l-0.0177-0.2173l-1.3561-0.367l-3.2382,0.2701l0.014,0.2152
		l0.7663,0.196l0.025,0.4502l0.1092,1.8417l-16.0112,1.1673l1.6208-2.8304l1.2327-0.5511l0.7731-2.0551l-6.4834-1.577
		l-0.6748-0.0177l-0.9214-1.266l-1.3069-3.0122l-0.2578-1.2642l1.0773-8.2632l0.1269-0.0213l-0.0141-0.5157l-0.0174-0.0069
		l0.1801-0.6571l-0.12,0.0177l0.1305-0.9941l0.3388-0.0564l-0.0141-0.6639l-0.2224-0.09l0.0565-0.4184l-0.0528-0.2191l-0.3533,0.06
		l-0.081,0.6198l-3.0513,0.5193l-0.1201-0.251l-0.2542-0.3884l-0.3248-0.3866l-0.3956-0.3851l-0.4484-0.3638l10.1454-1.8113
		l0.205-2.421l0.2293-0.0474l0.0318-0.4133L48.56,41.6124l0.0882-1.0277l-15.1426,2.9468l-0.0282-0.0177l-0.1269-0.03l2.101-16.0466
		l-2.1787,0.567l-0.3392,0.0864l-0.8367,0.2191l-2.2992,16.2354l-0.0882,0.0159l-0.0387,0.2683l-0.1413,0.1678l0.3178-2.2478
		l-15.0507,3.0231l-0.4307,2.3057l-0.0673,0.3638l-0.1729,0.9131l14.8775-2.7562l-0.0423,0.1201l-0.8476,0.1569l-0.5016,3.4538
		l-1.0592,0.1801l-0.431-0.4889l-0.307,0.0528l-0.2191,0.2492l0.2683,0.307l-0.1974,0.0318L25.659,51.283l0.3001,0.0951
		l0.4911-0.081l0.8722,0.9905l-1.8222,12.531l-5.1913,0.5652l-1.377,1.7817l0.7449,1.9209l0.9745,0.1537l2.412,4.0928
		l-11.1486,0.814l0.0354-1.2483l0.0177-0.4415l0.6357-0.0528l0.0069-0.1732l-1.8399-0.2311l-2.0587,0.171l-0.0036,0.1732
		l0.6358,0.0777l-0.0142,0.4397l-0.0814,2.3465L4.7107,78.893H0v21.4603h402.3837h32.171h21.0434h25.2884h5.276v-7.7248
		l2.4261-0.136l3.7821-0.0054l3.7785,0.1924l3.768,0.3938l3.7434,0.588l3.7149,0.7876l0.1906,0.0528l-0.406,1.9108l0.06,3.9409
		h19.5568L526.653,85.163l29.6957-4.9422l29.7377,4.974l-0.1519,15.1585h19.6273l0.0637-3.8649l-0.4025-1.914l0.1978-0.0513
		l3.729-0.7858l3.768-0.588l3.7894-0.3884l3.803-0.1891l3.8034,0.0145l3.7927,0.2133l3.7785,0.4133l0.3533,0.0582l-0.1765,7.0822
		h4.7744h20.7328h0.1765h5.7067h15.4004h25.5567h296.8168V78.893h-0.2297L1001.2114,70.4142z M849.7468,76.1176h0.4166h0.251l0,0
		h-0.4379H849.7468L849.7468,76.1176z M837.3835,64.568v0.0018l0,0V64.568z M553.1279,74.5688l-13.797,2.3042l-2.0764-1.5379
		l15.697-2.6221L553.1279,74.5688z M497.0954,76.6596l21.4213-25.9682l0.0214,1.8963l-19.8288,24.0224L497.0954,76.6596z
		 M499.2496,76.5942l19.2921-23.3689l0.0141,1.2588l-18.2362,22.0783L499.2496,76.5942z M500.8211,76.5482l17.7415-21.4763
		l0.0214,1.7553l-16.269,19.6787L500.8211,76.5482z M502.8165,76.4918l15.7711-19.0784l0.1978,18.6155L502.8165,76.4918z
		 M525.096,47.31l-0.3252-0.187l25.4685-3.3619l2.5674,27.3648l-17.318,2.8958l-10.2305-7.5979L525.096,47.31z M525.2619,66.9253
		l9.6793,7.1882l-9.6016,1.603L525.2619,66.9253z M526.5861,77.1167l10.1208-1.6916l2.0731,1.5398l-12.1798,2.0341L526.5861,77.1167
		z M526.6248,81.9001l-0.0068-0.5793l-0.0037-0.4838l14.1926-2.3679l1.1692,0.8708L526.6248,81.9001z M542.5232,79.2462
		l-1.1688-0.8686l11.9431-1.9936l0.0991,1.0523L542.5232,79.2462z M558.6653,77.3286l-2.3096-0.3848l-2.3165,0.3829l-0.0991-1.0487
		l2.4156-0.4025l2.4083,0.4025L558.6653,77.3286z M558.9408,74.4664l-2.5851-0.4343l-2.5848,0.4307l-0.1696-1.8573l2.7544-0.4629
		l2.7617,0.4629L558.9408,74.4664z M559.7599,72.713l13.8784,2.3237l-2.0695,1.5416l-11.9853-2.0059L559.7599,72.713z
		 M559.3079,77.4382l0.1024-1.0487l10.1317,1.6931l-1.1724,0.8704L559.3079,77.4382z M586.1219,81.344l-0.0036,0.5789
		l-17.2368-2.885l1.1651-0.869l16.0821,2.6893L586.1219,81.344z M586.1465,79.0184l-14.069-2.3537l2.0764-1.5412l12.0139,2.0109
		L586.1465,79.0184z M587.4179,75.7343l-11.495-1.9245l11.6042-8.6202L587.4179,75.7343z M587.7108,47.2836l-0.1801,17.4363
		l-12.1231,9.0031l-15.4959-2.5971l2.6061-27.372l25.5213,3.3428L587.7108,47.2836z M593.9932,76.0467l0.2296-18.6474
		l15.8101,19.1225L593.9932,76.0467z M610.5377,76.5359l-16.3081-19.7282l0.025-1.7567l17.7842,21.529L610.5377,76.5359z
		 M612.54,76.596l-18.2785-22.1366l0.0141-1.2555l19.338,23.4239L612.54,76.596z M614.1643,76.6437l-19.8815-24.0806l0.0246-1.8981
		l21.4744,26.0261L614.1643,76.6437z M771.1171,68.9981l0.1906-0.6994l0.0673-0.247l0.3389-0.627l0.1273-0.2275l0.5013-0.5547
		l0.1519-0.1674l0.7029-0.4788l0.0987-0.0669l0.9077-0.3374l0.1306-0.0141l0.4734-0.0582l0.1128-0.0141h0.0036l0.2474-0.03
		l0.9745,0.1164l0.925,0.3374l0.8267,0.5439l0.6813,0.7203l0.5016,0.8563l0.2965,0.9463l0,0l-0.0351-0.0069l-0.0919-0.0159
		l-0.0423-0.009l0.187,8.1754h-0.2151l-0.2933,0.482l0.0282,1.2711h-7.5993l-0.0176-1.04l-0.3074-0.5421l-0.1907-0.0723
		l-0.1624-8.2405H771.1171z M761.0845,69.0017l0.2575-0.9463l0.4697-0.8581l0.6534-0.7189l0.805-0.5457l0.9113-0.3406l0.9713-0.1114
		l0,0h0.0033l0.9713,0.1114l0.925,0.3406l0.823,0.5439l0.6816,0.7207l0.498,0.8563l0.2929,0.9463h-0.0037l-0.0669-0.0159
		l-0.0354-0.0087l0.1591,8.1696h-0.1873l-0.2792,0.482l0.0213,1.266h-7.7089l-0.0141-1.0364l-0.2969-0.5421l-0.1588-0.0723
		l-0.1306-8.2405H761.0845z M751.0446,69.0053l0.1942-0.7012l0.0669-0.2455l0.3464-0.6303l0.127-0.2278l0.5052-0.5525l0.1515-0.1696
		l0.7098-0.4766l0.0991-0.0673l0.9145-0.3388l0.6003-0.0705l0.2969-0.0354l0.0706-0.009l0.9745,0.115l0.9254,0.3388l0.8227,0.5439
		l0.678,0.7189l0.498,0.8581l0.286,0.9482h-0.0036l-0.0141-0.0054l-0.0246-0.0054l0.1306,8.1577h-0.1551l-0.272,0.482l0.0173,1.2606
		h-7.8185l-0.0141-1.031l-0.2788-0.5421l-0.1273-0.0741l-0.1023-8.2405H751.0446z M741.0012,69.0086l0.265-0.9482l0.473-0.8581
		l0.6606-0.7221l0.8122-0.5439l0.9146-0.3388l0.9713-0.115l0,0l0.9745,0.115l0.925,0.3388l0.8194,0.5439l0.6744,0.7203
		l0.4944,0.8581l0.2827,0.9467h0.0247l0.099,8.1504h-0.1237l-0.2615,0.482l0.0178,1.2552h-7.9349l-0.0072-1.0259l-0.2647-0.5435
		l-0.0991-0.0777l-0.0706-8.2372H741.0012z M730.9508,69.0104l0.1978-0.699l0.0709-0.2473l0.3492-0.6303l0.1309-0.2278
		l0.5048-0.5544l0.1591-0.1678l0.7131-0.4784l0.0992-0.0673l0.918-0.337l0.6003-0.0709l0.3707-0.0441l0.9714,0.115l0.9217,0.337
		l0.8226,0.5439l0.6713,0.7221l0.4906,0.8563l0.2825,0.95h0.0882l0.0673,8.1522h-0.0919l-0.2473,0.4784l0.0109,1.2519h-8.0482
		l-0.0073-1.0205l-0.2433-0.5421l-0.0637-0.0846l-0.039-8.2354H730.9508z M720.8972,69.014l0.1978-0.7008l0.0741-0.2473
		l0.3494-0.6285l0.1309-0.2296l0.5121-0.5525l0.1552-0.1696l0.717-0.4784l0.0987-0.0655l0.9182-0.3392l0.6039-0.0723l0.3674-0.0423
		l0.9745,0.1146l0.9218,0.3374l0.8194,0.5457l0.6744,0.7203l0.4874,0.8581l0.2752,0.9463h0.1414l0.0424,8.1558h-0.0565
		l-0.2332,0.4802l0.0036,1.2465h-8.1573l-0.0036-1.0151l-0.0564-0.226l-0.1978-0.4379l-0.0073-8.2H720.8972z M710.6418,69.0176
		h0.1942l0.2755-0.9482l0.0318-0.06l0.1237-0.2137l0.2011-0.3551l0.1309-0.2293l0.512-0.5529l0.1588-0.1692l0.7172-0.4788
		l0.0986-0.0669l0.9218-0.3392l0.6039-0.0705l0.3707-0.0441l0.9713,0.1146l0.9218,0.3392l0.8158,0.5439l0.6672,0.7221l0.4874,0.8581
		l0.2756,0.9463h0.1974l0.0109,8.1576h-0.0177l-0.2261,0.482v1.2393h-8.214v-1.236l-0.2261-0.482h-0.0213L710.6418,69.0176z
		 M700.6306,69.0194h0.1411l0.2791-0.9467l0.4907-0.8596l0.6712-0.7225l0.2297-0.1515l0,0l0.3742-0.2473l0.1165-0.0778
		l0.0988-0.0669l0.9217-0.341l0.6039-0.0723l0.3743-0.0441l0.975,0.1164l0.9145,0.3392l0.8194,0.5439l0.6636,0.7221l0.4874,0.8581
		l0.2651,0.95h0.2542l-0.0213,8.2137l-0.187,0.4238l-0.0709,0.226v1.01h-8.154l0.0036-1.2306l-0.2365-0.482h-0.06L700.6306,69.0194z
		 M690.6189,69.0227h0.085l0.2789-0.9482l0.491-0.8599l0.6813-0.7203l0.8195-0.5471l0.4838-0.175l0.4412-0.1624l0.0109-0.0018
		l0.593-0.0705l0.371-0.0441l0.9745,0.1146l0.9182,0.3392l0.8122,0.5453l0.6675,0.7221l0.4766,0.8581l0.2687,0.9485h0.307
		l-0.0495,8.2423l-0.0669,0.0828l-0.2506,0.5421l-0.0073,1.0046h-8.0444l0.0068-1.227l-0.2469-0.482h-0.0991L690.6189,69.0227z
		 M680.604,69.0263h0.0214l0.286-0.95l0.4943-0.8581l0.678-0.724l0.8299-0.5439l0.9214-0.3388l0.3179-0.0372l0.2437-0.0282
		l0.0424-0.0069l0.3747-0.0441l0.3669,0.0441l0.6075,0.0723l0.9145,0.337l0.0991,0.0691l0.7168,0.4766l0.1519,0.1696l0.5047,0.5525
		l0.1309,0.2296l0.3497,0.6285l0.067,0.2473l0.1978,0.7008h0.3566l-0.081,8.2495l-0.1027,0.0796l-0.2647,0.5439l-0.0068,0.9514
		l-7.9457-0.2347l0.0142-0.9413l-0.2648-0.482l-0.1273,0.0018L680.604,69.0263z M670.6101,77.1945h-0.1624l0.1414-8.1768
		l-0.025,0.0051l-0.0246,0.0054l0.2897-0.95l0.5012-0.8563l0.6816-0.724l0.8263-0.5457l0.929-0.3388l0.7239-0.085l0.2542-0.03
		l0.1202,0.0141l0.2505,0.03l0.6039,0.0709l0.9145,0.3388l0.0991,0.0673l0.7099,0.4766l0.1551,0.1696l0.5052,0.5525l0.1306,0.2296
		l0.3461,0.6285l0.0673,0.2492l0.1906,0.7008h0.4061l-0.1096,8.2564l-0.1374,0.0741l-0.2792,0.5421l-0.0105,0.6498l-7.8325-0.2311
		l0.0068-0.6393L670.6101,77.1945z"/>
</g>
</svg>
