<?xml version="1.0" encoding="utf-8"?>
<!-- Generator: Adobe Illustrator 18.1.1, SVG Export Plug-In . SVG Version: 6.00 Build 0)  -->
<svg version="1.1" id="athens" xmlns="http://www.w3.org/2000/svg" xmlns:xlink="http://www.w3.org/1999/xlink" x="0px" y="0px"
	 viewBox="0 0 1000.1384 98.7267" enable-background="new 0 0 1000.1384 98.7267" xml:space="preserve">
<path   d="M1000.1384,73.484L1000.1384,73.484v-3.4893h-11.661l-0.4222-0.1797l0.0105-0.2039h4.056l-1.3544-0.1794
	l0.0352-0.3343l-0.6509-0.0843l-0.0422-0.1232l-0.0104-0.1336l0.0245-0.2287l0.0213-0.232l0.0915-0.1055l0.0983-0.1585
	l0.0951-0.1862l0.0811-0.2042l0.063-0.2039l0.0353-0.1898l0.0141-0.1689l-0.0105-0.1304l-0.0389-0.0843l-0.0666-0.0353
	l-0.9114-0.2882l-2.5888-2.1598l-4.7032-3.6021l-4.9247-3.4684l-5.1427-3.328l-5.3469-3.1835l-5.5472-3.025l-5.7338-2.8669
	l-5.9167-2.698l-6.0854-2.5222l-6.2474-2.3464l-6.3915-2.1562l-6.5536-1.9736l-2.8384-0.6084l-2.86-0.496l-2.8914-0.3905
	l-2.9163-0.2813l-2.9303-0.1761l-2.9407-0.063l-2.9476,0.0457l-2.9375,0.1545l-2.9231,0.264l-2.9054,0.3692l-2.8741,0.482
	l-2.8597,0.5911l-6.6099,1.9415l-6.469,2.1353l-6.3353,2.3324l-6.1945,2.5186l-6.0363,2.7084l-5.8675,2.8846l-5.688,3.0567
	l-5.4983,3.2224l-5.2976,3.3838l-5.0865,3.5318l-4.8682,3.6795l-2.8528,2.3428l-1.6357,0.5169l-0.0598,0.0317l-0.0317,0.0879
	l-0.0104,0.1336l0.0209,0.1689l0.0422,0.197l0.0671,0.2075l0.0842,0.2075l0.0951,0.1902l0.1019,0.1617l0.1019,0.1196l0.0036,0.0036
	l-4.4745,0.5662l0.6473,0.563h-7.8125l0.0068-0.366l0.3624-24.8137h-0.5486l0.0879-6.2475l0.2357-0.1653l0,0l0.299-0.2111
	l0.6436-0.4503l-0.0775-0.2882l-0.0771-0.1725l-0.0424-0.0983l-0.1337-0.1196l-0.0634-0.0353l-0.3937-0.2356l-0.2324-0.1689
	L805.123,33.78l0.0032-0.3869l-0.2881-0.0598h-0.1481l0.014-1.4351l0.236,0.0036l0.0349-0.0425v-0.1934l-0.2673-0.0036
	l0.0072-0.4359l-0.2568-0.0036l-0.0353,0.0421l-0.0036,0.3973l-0.2356-0.0032l-0.0317,0.0421l-0.0036,0.1934l0.2676,0.0036
	l-0.014,1.4351h-0.0389l-0.3869,0.0493l-0.0703,0.0774l-0.0036,0.3271l-5.5123,3.2361l-0.0807,0.1761l-0.0811,0.313l-0.0739,0.4362
	l-0.0317,0.2709l-0.014,0.1055v0.0173h0.0036l1.108,0.7038v-0.0036l-0.0457,6.3458l-0.3239,0.2356l-0.014,1.7589v0.2464
	l-2.0751-0.6192l0.0068-1.1469l-1.0799-2.8669l-2.7401-0.0104l-2.1566-0.7211v-0.1898l-0.3094-0.053l0.0036-0.1232l-0.9041-0.1055
	l0.0072-4.2915l0.0911-0.0281l1.0202-0.3058l0.2993-0.5277l0.1654-0.6192l-9.899-4.5941l-0.0036-0.5137l-0.014-0.0879
	l-0.4749-0.5698l-0.1159-0.049l-0.2079-0.0389l-0.2252-0.0177l-0.0104-1.8468h0.3483v-0.2496l-0.0036-0.0598l-0.3447-0.0036
	l-0.0036-0.5029v-0.0598l-0.3307-0.0036l0.0036,0.5662l-0.3483-0.0036v0.25l0.0072,0.0598l0.3447,0.0036l0.007,1.8468
	l-0.2601,0.0173l-0.1935,0.0389l-0.0987,0.049l-0.4747,0.5666v0.5943l-8.7238,3.9504l-1.2979,0.6052l0.3235,0.559l0.0739,0.0987
	l0.3659,0.4924l1.0096,0.2709l0.0454,4.07l-0.8898,0.2885l-0.4679,0.0526l0.0036,0.1019l-0.0951,0.0281l-0.327,0.053v0.0562
	l-2.1879,0.7107l-2.2654,0.0598l-1.305,2.9829l0.0173,0.9816l-2.5467,0.6999l-0.0353-1.9768l-0.4009-0.2392l-0.0068-0.0036
	l-0.1127-6.3811l1.1329-0.7035l-0.0177-0.1232l-0.0421-0.2709l-0.0951-0.4398l-0.0987-0.313l-0.1019-0.1758l-5.6632-3.3348
	l-0.0072-0.3307l-0.0811-0.0774l-0.3904-0.0598l-0.0282-1.4455h0.2709l-0.0032-0.197l-0.0389-0.0421h-0.2356l-0.0072-0.4013
	l-0.0458-0.0457h-0.2601l0.0105,0.4434h-0.2781l0.0072,0.197l0.0421,0.0421h0.236l0.0281,1.4459h-0.2042l-0.2813,0.0526
	l0.0072,0.3905l-5.0656,2.8284l-0.4118,0.299l-0.014,0.014l-0.1441,0.0843l-0.0703,0.0389l-0.1512,0.1196l-0.0706,0.1405
	l-0.0667,0.1268l-0.0843,0.2918l0.7384,0.5068l0.3239,0.2215v0.0036l0.1862,0.1264l0.1549,6.3177h-0.6473l0.0634,2.4447
	l0.5803,22.946h-6.5252l-0.144-23.0833l0.0385-0.0281l0.3906-0.2673v-0.4326l-0.4327-0.2039l-8.9418-4.2811l-0.0706-0.4186
	l-0.1794-1.0237h-2.7015l-0.0104-4.1791l-0.0458-0.0209l-0.1372-0.0177l-0.0177-0.0036l-0.014-0.4009l-0.0209-0.3696l-0.0212-0.2813
	l-0.0281-0.1862l-0.0245-0.0846h-0.6685l-0.3094-0.5241l-0.1336-0.1934l-0.3624-0.5029l-0.4009-0.4679l-0.4434-0.4258
	l-0.4783-0.3833l-0.5101-0.3379l-0.5381-0.2918l-0.5594-0.2359l-0.2323-0.0843l-0.5241-0.1653l-0.5381-0.1127l-0.1934-0.0385
	l-0.2568-0.0281l-0.3235-0.0245L723.71,30.885h-0.0176v-0.911l-0.0068-0.0036l-0.0036-0.0036l0,0h-0.0036l-0.0072-0.0032h-0.0068
	h-0.0036V29.96h-0.014l-0.0104-0.0036h-0.0036h-0.0036h-0.014h-0.0178l0,0v-0.0036H723.58h-0.0036l-0.0036-1.9379h1.5406
	l0.0037-0.0144v-0.0807l-1.5443-0.0036v-0.8476h-0.0386h-0.0425v0.014v0.8335h-1.5406v0.014v0.0847h1.5406l0.0036,1.9379h-0.0176
	v0.0036l0,0h-0.0173l0,0h-0.0144h-0.0033h-0.0036l-0.0104,0.0036l0,0h-0.0036h-0.0104v0.0036h-0.0036h-0.0072h-0.0032
	l-0.0072,0.0032l0,0l0,0l-0.0072,0.0036l-0.0032,0.0036h-0.0036v0.0036l0,0v0.9074l-0.1477,0.0108l-0.3026,0.0245l-0.2637,0.0281
	l-0.2043,0.0385l-0.5277,0.1091l-0.5136,0.1689l-0.2532,0.0843l-0.5557,0.2359l-0.531,0.2918l-0.5064,0.3379l-0.4716,0.3833
	l-0.4362,0.4258l-0.1654,0.1758l-0.4117,0.4748l-0.3656,0.5137l-0.3062,0.5241h-0.6506l-0.0072,0.0846l-0.0036,0.1862
	l-0.0068,0.2813l-0.0072,0.3696l-0.0036,0.4045h-0.0032l-0.1445,0.0177l-0.049,0.0209l-0.0036,4.1791h-2.8035l-0.0739,1.0237
	l-0.0248,0.3483l-8.949,4.3477l-0.4254,0.2075l-0.0036,0.4326l0.2568,0.2673l0.1689,0.1761l-0.0317,8.0096h-13.4869h-0.6296
	l-0.1441,0.3833l-7.9851,0.0634l0.5101-30.2273l0.9531-0.0036l0.5875-0.6015l0.014-0.8476l0.0281-1.6357l-0.035-0.8126
	l-1.4599-0.0493h-0.6999l0.0422-2.5712l0.3658-1.9174l0.5414-0.4924l0.8937-1.5266l-1.657-0.7035l0.2218-0.3869l-0.4996-0.4398
	l0.0036-0.4222l0.3516-0.4431l0.0212-1.2171l-0.7773-0.25l-0.6862,0.8375l-0.0068,0.6188l-0.9254,0.1585l-0.7737,1.4596
	l-0.0737,4.9846l0.756,0.4784l-0.756,1.8468h-0.3624l-1.1995,0.1549l-0.3026,0.4258l-0.0775,1.3119l-0.0176,1.228l-0.0106,0.8335
	l1.4459-0.0072l-0.4644,30.2449l-8.8082,0.0706l0.0314-2.5787v-0.0173v-0.0072l0.0108-0.795l0.3342-0.1091l0.0314-2.6908
	l0.7636-0.3696l0.0631-0.0281l0.014-1.1573h-0.7632l-17.4089-4.7699l-17.0538,4.8052h-0.8439v1.1537l0.0562,0.0317l0.8444,0.4467
	l0.0032,2.596l0.2993,0.1127v0.2637l-0.0951,0.0951l-0.0598,0.0421l-0.0915,0.1232l-0.0598,0.1405l-0.0176,0.1513l0.0176,0.1513
	l0.0562,0.1408l0.0915,0.1232l0.1196,0.0915l0.0421,0.0209l0.0036,1.8046l-7.8302,0.0634l-0.1444-30.0515l1.4952-0.0036v-0.8303
	l-0.0072-1.604l-0.1019-1.0025l-0.2776-0.4431l-0.781-0.0281l-0.5453-1.5903l1.0306-1.9804l0.5065-0.3235l0.4996-0.9005
	l-0.0036-1.1012l-0.3339-1.0659l-0.8443-1.2838l-0.8548-0.1336l-0.5173,0.429l-0.2881,0.6192l0.0032,0.4186l-0.573-0.2147v-0.1934
	l0.225-0.3764l-0.0036-0.5522l-0.25-0.4045l-0.3198-0.1091l0.3764-0.2918l-0.0036-0.4643l-0.5734-0.2183l-0.468,0.3062
	l-0.299,0.6858l0.0072,1.1221l0.2461,0.482l0.0036,0.3098l-0.5486,0.0104l-0.3098,0.5029l-0.2709,0.929l-1.34,1.3155l-0.5947-0.2006
	l-1.7023-4.2141l0.0068,0.7283l3.1309,7.7492h-0.1268l-0.9639,0.1549l-0.1196,0.3343l0.014,1.7445l0.0072,1.1084l0.5241,0.5979
	l0.8865-0.0036l0.1934,30.0691l-12.2942,0.0947h-5.1817l-14.4364,0.0036l-0.1617,0.1617l-11.5098,0.0036l-2.3287,2.7895
	l0.0244,0.978l0.4996,0.0281l0.2604,10.4547H565.707l0.0389-0.0144l0.1055-0.0807l0.0775-0.1019l0.0457-0.1232l0.0104-0.1268
	l-0.0248-0.13l-0.0562-0.1196l-0.0843-0.1055l-0.1127-0.0774l-0.1299-0.0493l-0.1337-0.0173l-0.0245-0.0036l-0.0212-0.0108
	l-0.0177-0.014l-0.0176-0.0173l-0.0104-0.0213l-0.0036-0.0212l0.0036-0.0209l0.0072-0.0212l0.014-0.0177l0.0173-0.014l0.0212-0.0104
	l0.0245-0.0036l0.0494-0.0032l0.0493-0.0213l0.0386-0.0317l0.028-0.0353l0.0176-0.049l0.0036-0.0493l-0.0072-0.0493l-0.0209-0.0457
	l-0.0317-0.0385l-0.0458-0.0281l-0.0494-0.0212l-0.049-0.0068l-0.0036-0.053l-0.067-0.0104l-0.1232-0.0036l-0.4045-9.8528
	l-1.3224-23.7161l0.0422-0.0389l0.0068-0.232l-0.0104-0.2532l-0.1653-0.1163l0.0526-0.0457l0.3977-1.8713l0.1408,0.0281
	l0.3833-0.1862l0.2496-0.3836l0.0389-0.4571l-0.1866-0.38l-0.1301-0.0702l0.2252-0.1268h0.2637l-0.0068-0.1196l0.2709-0.1196
	l-0.0353-0.7071l-0.2709,0.0213l-0.0806-1.6815l0.64-0.0036l0.496-0.4643l-0.0634-1.3227h-0.0598v-0.4996l1.006-0.0068
	l-0.0737-1.4599l-0.5631,0.0036l-0.2143-4.5588l-0.0248-0.4928l2.1425-0.014l-0.0425-0.8231l0.1304-0.1405h0.3624l-0.0281-0.5875
	l2.0085-0.014L526.9179,7.6335l0.3235-0.134l0.0036-0.0385l0.2673-0.3905l0.2709-0.0036l0.2323,0.1477l0.0069-0.0807l0.0104-0.0846
	l-0.0032-0.3447l-0.1866-0.2111l-0.285,0.0036l0.1337-0.13l0.3098-0.0036l0.014-0.0807l0.0105-0.0846l-0.1866-0.1758l-0.246,0.0036
	l0.0703-0.1725l0.014-0.081l0.0072-0.0843l-0.0072-0.6541l-0.1935-0.4503l-0.1934-0.2323h0.0178l0.1688-0.0807l0.1369-0.1232
	l0.0987-0.1513l0.0526-0.1725l0.0108-0.1228l0.0173-0.1232l-0.0032-0.1794l-0.0494-0.1725l-0.1019-0.1513l-0.0036-0.0036
	l0.1301-0.0807l0.1163-0.1549l0.014-0.0843l0.0069-0.0879l-0.0036-0.2392l-0.0562-0.0566l0.0353-0.0317l0.0739-0.2251l0.0104-0.0879
	l0.0104-0.0879V1.7657l-0.1196-0.0807l-0.0032-0.4326l-0.183,0.0032V1.1188l-0.183,0.0032l-0.0036-0.4467l-0.1545-0.1898h-0.2183
	l-0.0951-0.0774l-0.1794,0.0036l-0.1404-0.2251l-0.1444,0.0032L526.3938,0l-0.3062,0.0036l-0.0104,0.0879L526.07,0.183
	l0.2251,0.2885l0.0987,0.415l0.0033,0.2532l-0.144,0.9992l-0.2533,0.0032l-0.2568,0.0036l-0.183-1.1184V0.8231l0.0739-0.3447
	l0.2183-0.2918l0.0068-0.0915l0.0108-0.0879l-0.3098,0.0032l-0.1513,0.1938h-0.1441l-0.1336,0.2251h-0.1794l-0.0951,0.0807
	l-0.218,0.0036l-0.1476,0.1934l-0.0072,0.0915l-0.0072,0.0879l0.0036,0.2673h-0.1689l-0.0032,0.0915l-0.0036,0.0457l-0.1726,0.0036
	l-0.0068,0.0879l-0.0036,0.0879v0.1372v0.1268l-0.102,0.0738l-0.0036,0.0879l-0.0036,0.0843V2.153l0.0775,0.2215l0.0563,0.0526
	l-0.0422,0.0353l-0.0032,0.0879l-0.0072,0.0879v0.2392l0.1232,0.1513l0.1617,0.0915l-0.0879,0.1408l-0.0493,0.1758l-0.0068,0.1232
	l-0.0108,0.1232l0.0036,0.1794l0.0529,0.1689l0.1019,0.1509l0.1373,0.1196l0.1722,0.0774l0.053,0.0072l-0.1794,0.2287l-0.183,0.4535
	l-0.0072,0.081l-0.0068,0.0843l0.0068,0.6545l0.0706,0.1722h-0.2078l-0.1826,0.1761l-0.0036,0.0843l-0.0072,0.081l0.3098-0.0036
	l0.1373,0.13l-0.25,0.0036l-0.1794,0.2111l-0.0068,0.0843l-0.0036,0.081v0.3447l0.2251-0.1513h0.2709l0.2778,0.3833l-0.0036,0.0353
	l0.345,0.1408l-39.0498,10.0005l0.0108-0.0104l0.0068-0.2392l-0.0421-0.0702l-0.0421-0.067l-0.0108-0.0104v-0.0213l0.1055-0.0947
	l0.0811-0.2251l0.0036-0.1689l-0.0421-0.0706l-0.0426-0.0666l-0.0245-0.0213l0.0072-0.2179l0.0032-0.1372l-0.0421-0.067
	l-0.0421-0.0702h-0.0915l-0.0385-0.0666l-0.0424-0.067h-0.0912l0.0068-0.3094l-0.0421-0.067l-0.0389-0.0702l-0.1441-0.1902h-0.2111
	l-0.0915-0.0771h-0.1722l-0.0457-0.081l-0.0421-0.0702l-0.0458-0.0706h-0.1408l-0.1441-0.1898l-0.3026,0.0036l0.0457,0.0702
	l0.0421,0.067l0.1264,0.1758l0.0742,0.3941l-0.0072,0.3094l-0.2039,1.1257h-0.25l-0.0068,0.1585l0.0458,0.0666l0.0457,0.0702
	l0.2284-0.0032l0.067,0.0879l-0.0104,0.429l-0.3378,0.1653h-0.0807l0.0385,0.1934l-1.1818,0.3026l1.2802-0.0104l0.081,0.197
	l0.0634,0.0947l0.0457,0.0706l-0.0036,0.2111l0.1758-0.0036l0.0634,0.0807l0.1127,0.0493l0.0703,0.0281l-0.0212,0.7917
	l2.4588-0.0213l-0.014,0.4856l-0.1228,4.5058l-0.6264,0.0072l-0.0385,1.4423l0.8901-0.0072v0.4924l-0.0316,1.3086l0.3375,0.4503
	l0.4467-0.0032l-0.0421,1.6249h-0.0844l-0.9602-0.0349l-0.9604-0.0598l-0.0177,0.6963l0.3447,0.1758l-0.2604,0.1761l-0.1544,0.3728
	l0.0421,0.4362l0.2251,0.3656l0.3375,0.183l0.3483-0.0526l0.2007-0.067l0.0176,0.0738l-0.0389,0.1336l0.0072,0.3977l0.1264,0.2532
	l0.0775,0.0104l0.2604,1.1786l0.0036,0.0068l0,0l-0.1725,0.1268l-0.0562,0.2251l-0.0104,0.2496l0.0173,0.0177l-0.8018,23.5721
	l-0.2215,9.7649l-0.0883,0.0068v0.0565l-0.049,0.0032l-0.0457,0.0213l-0.0388,0.0281l-0.0318,0.0389l-0.0209,0.0457l-0.0072,0.049
	l0.0036,0.0493l0.0176,0.0421l0.0281,0.0421l0.0385,0.0285l0.0457,0.0209l0.0457,0.0072l0.0354,0.0032l0.0104,0.0036l0.0176,0.0141
	l0.0141,0.0176l0.0104,0.0245v0.0212l-0.0032,0.0213l-0.0108,0.0209l-0.0141,0.0177l-0.0172,0.014l-0.0213,0.0104h-0.0212
	l-0.13,0.0177l-0.1196,0.0493l-0.1055,0.0774l-0.0811,0.1019l-0.0562,0.1196l-0.0209,0.13l0.014,0.1268l0.049,0.1196l0.0738,0.1055
	l0.1023,0.0774l0.0069,0.0036H463.438l-0.1862-10.9928l-1.9347-0.2813l-0.313-19.1328l2.2089-0.4992l0.3098-1.3263l-2.0861-0.5137
	l-12.8922-3.4576l-15.5095,3.4825l-1.5374,0.4395l-5.7968,3.5671l-0.0141-2.4447l1.1289-0.7845l0.929-1.5442l-21.4965-5.1499
	l-21.5563,5.1146l1.0446,1.5478l1.291,0.7633l-0.0141,1.8223l-5.9449-2.9443l-1.5442-0.4434l-15.5409-3.4825l-12.9171,3.4757
	l-2.0892,0.5137l0.3094,1.3331l2.3781,0.4888l-0.1585,8.8399l-6.5075-1.4527l-14.69,1.3295l-0.9459,0.2395l-9.4908,2.4166
	l0.0245,0.9776l0.4784-0.0032h-0.0281l0.0108,0.4114h0.0281l0.0245,0.8865l-0.1758,0.0072h-0.0281l0.0245,0.8126l-5.6812,0.0666
	l-6.8627,0.0774l-7.4609,0.0879l-7.9254,0.0951l-2.6699,0.0317l-0.0213-0.9254l-0.2251,0.0036l-0.0245-1.0659l-0.0072-0.4467
	l0.6087-0.0562l-0.0281-1.1682v-0.0068l-0.6088,0.0068l-0.0843-3.7217l-0.0036-0.2849l-0.0068-0.3339v-0.0249l-2.8846,0.0421
	l-14.4156,0.2006l-0.5204,0.0072l-3.6126,0.0526l-0.3274,0.0036l-8.5056,0.1196l-0.0068-0.0072l0.0562-0.0562l0.0421-0.9218
	l0.0212-0.0666l0.1794,0.0634v0.0738l0.1159-0.0036l-0.0036-0.0738l-0.3202-0.197l-0.0032-0.1196l-0.0494-0.1124l-0.13-0.0389
	v-0.0915l0.049-0.0774l-0.0033-0.0843l-0.0774-0.1091l-0.0915,0.0036l-0.0598,0.1268l0.0457,0.1196v0.1124l-0.197,0.0598
	l-0.0388,0.264l0.0036,0.1826l0.1127,0.1513l0.0036,0.1689l-0.0353,0.5979h-0.1055l-0.0072-0.5345l-0.049-0.1794l-0.1055-0.1477
	l-0.0529-0.5875h0.0457V45.181l-0.0807,0.0036l-0.0036-0.0951h0.0775v-0.0987h-0.0775l-0.0036-0.13h0.0775v-0.1019l-0.1445,0.0036
	l-0.0032-0.1268l0.0667-0.0036v-0.0843l-0.1056,0.0036l-0.0457-2.6382l0.0811-0.067v-0.081l-0.2463,0.0036v0.081l0.0633,0.0843
	l0.0104,0.4643l-0.299,0.3869v0.0846l-0.7456,0.8018l-0.3202,0.4539l-0.0739,0.2921l0.1019,0.1055l0.1164-0.1091l0.5735-0.0072
	l0.285-0.1653l0.2251-0.299l0.1826-0.0666l0.0072,0.5169l-0.197,0.0281l-0.0036-0.1826l-0.116,0.0032l0.0072,0.1794l-0.1513,0.081
	v-0.0738h-0.1023v0.1689l-0.1055-0.0353l-0.0281,0.0738l0.0598,0.0457l0.0036,0.0879h-0.0914v0.081l0.0421,0.0281l0.0036,0.1196
	h-0.0634l0.0036,0.0983l0.0915,0.0108l-0.1055,0.1055l0.0104,0.6401l-0.1686,0.2568l0.014,0.6754l-0.1231,0.0036l-0.0141-0.679
	l0.1196-0.2921l-0.0036-0.1369l-0.1617-0.2536l-0.1232-0.0702l-0.0036-0.1336l0.039-0.0879l-0.1305-0.1549l-0.1088,0.1617
	l0.0738,0.1336v0.1549h-0.1372l-0.102,0.3202l-0.1902,0.1055v0.0774l0.1337,0.0738l0.1372-0.0951l0.0141,0.8937l-8.7553,0.1228
	l-0.6156,0.0108l-3.6093,0.049l-0.8158,0.0108l-13.7438,0.1934l-3.2116,0.0457v0.0245l0.0036,0.3307l0.0036,0.2777l0.0421,3.6655
	l-0.6015,0.0072v0.0036l0.014,1.1537l0.6015,0.0317l0.0072,0.4503l0.0105,1.0446l-0.2215,0.0036v0.0036l0.0105,0.9074
	l-1.3648,0.0176l-7.7214,0.0951l-7.2323,0.0911l-6.6343,0.0846l-4.1755,0.0526l-0.0068-0.7914h-0.0281h-0.1653l-0.0072-0.8584
	v-0.4009l0.4467-0.0072l-0.0068-0.9495l-9.6562-2.3111l-14.5171-0.8901l-11.4889,3.078v1.1397l0.679,0.0068v0.4647v1.0306
	l-0.2464,0.0068v0.9535l0.0104,12.7024l-4.235-25.1267l0.0598-0.0281l0.4924-0.8865l3.9256-0.482l-0.5768-4.696l2.3532-0.3343
	l-0.1195-0.9535l-2.6242-0.3728l-0.3905-3.2185l1.0305-0.1689l1.7449-0.2813l-0.0847-0.5875l-1.0691-0.1268l-0.0598-0.4888
	l-2.1353-0.3447l2.4588-0.4326l-0.0843-0.6826l-1.3403-0.7456l-4.0279-2.8493l-0.809,0.1617l-0.6999-0.3905l-4.1719,0.8371
	l-1.7095-0.9182l1.1642-0.2356l-0.1617-1.4668l-1.4386-0.2604l-2.3112,0.4892l-3.3453-1.7942l-2.7895,0.6156l-0.0281,0.4186
	l0.1441,1.4495l-1.421,0.3058l0.1545,1.6008l-0.4254,0.0879l-0.4751-4.879l-1.6534-0.299l-1.4632,0.3375l-1.7766-0.3166
	l-0.197-2.1562l-3.2361-0.5979l-0.2604-2.9584l-15.3615,1.6851l1.5442-0.4294l-0.0774-1.1116l-4.8052,0.7492l-4.6996,1.3544
	l0.0176,0.3202l-1.9451,0.2147l0.9427-0.264l-0.0561-0.9816l-4.0139,0.0493l-0.1055-0.6505l-7.7106,0.0771l-3.8553,1.1927
	l0.2356,1.5406L78.5248,23.79l0.0353,1.4635l1.5406,0.2107l0.0598,2.364l-8.569,2.3849l-2.8914-0.3519l-1.189,0.3415l0.0141,1.1433
	l-0.8231,0.2284l0.0036,0.2745l-0.7002-0.081L62.02,32.8795v0.3555l-0.9218-0.0987l-3.8236,1.0626v0.7244l-9.2091-0.9567
	l-3.1273,0.9391l-0.0068,0.5698l-1.4142-0.1405l-1.5514,0.4643l-0.0104,0.5803l-1.4527-0.1372l-3.2433,0.9744l-0.0177,0.6754
	l-1.7059-0.1581l-1.3475,0.4045l-0.0385,1.3648l1.4985,0.13l-0.0493,1.6606l-0.6048,0.1653l-0.0072,0.2179l-3.1378,0.8371
	l-0.0209,0.7809l1.1678,0.0883v0.0032l-0.0281,0.9711l-3.0394,0.7525l-0.014,0.3941l-0.6401,0.1549l-1.2276-0.0843l-1.358,0.3375
	l-0.0068,0.1794l-0.3343-0.0245l0.0068-0.1585l-2.3039-0.1581l0.0457-1.1469l0.0457-1.1397l-3.391-0.2496l0.0141-0.2813
	l-1.2842,0.1862l-3.7566-0.2777l-2.6172,0.8126l-0.0213,0.4009l-3.0038,0.4395l-1.7661,0.5526L8.27,45.7966l0.0915-0.0317
	l-0.014,0.2532l-0.1232,0.0353l-0.0245,0.4362l0.2428,0.0173l0.0598-0.0209l-0.1336,2.3007l-1.541,0.4114l-0.0349,0.6088
	l11.3549-2.9552L18.13,47.1999L8.0802,49.7751l-0.1866,3.0953l4.7807,0.2287l0.0068,0.0072l0.0317,0.0245h0.0108l-0.0493,0.4892
	l-0.0104-0.0213l-0.0883-0.0213l-0.1545-0.0209l-0.211-0.0213l-0.2569-0.014l-0.2781-0.0104l-0.2882-0.0072l-0.2745,0.0036
	l-0.2392,0.0072l-0.1902,0.014l-0.13,0.0173l-0.0598,0.0213L8.7909,69.9947H0v28.732h1000.1384V73.4876V73.484z M987.3237,67.5568
	l-0.0775,0.8231l-2.2618-0.3094l-0.0108,0.3094l-1.1678-0.1653l0.014-0.3026l-1.488-0.2039l-0.0141,0.299l-0.9037-0.067
	l-0.6581-0.4467l-6.912-0.5522l-6.666-0.1055l0.1476-4.6009l0.876-0.7496L987.3237,67.5568z M942.8638,40.7101l6.0259,2.4973
	l5.8603,2.6699l5.6812,2.832l5.491,2.9969l5.2975,3.1446l5.0901,3.2927l4.879,3.4331l4.6571,3.5635l0.4045,0.3343l-0.4186-0.1336
	l-16.1143-9.7862l0.0105-0.2428l-2.1386-0.7424l-5.4208-0.9567l-2.8424-0.4222l-9.494-1.4034l-4.0559-0.3941l-7.2078-12.2943
	L942.8638,40.7101z M960.8638,60.0183l-1.421,0.014l-7.2009,0.0389l-4.865,0.0176l0.0036-0.2219l-0.1617,0.2219l-3.5038,0.014
	l-9.6733,0.0245l-5.53,0.0104v-0.2287l-0.0807,0.2287h-1.1152l0.0421-0.2287l0.014-0.3411l-0.0068-0.2885l-0.0353-0.232
	l-0.0421-0.1725l-0.074-0.197l-0.0987-0.1545l-0.1055-0.067l-5.8534,0.0036l-0.0983,0.0281l-0.0915,0.1232l-0.0457,0.0983
	l-0.0069,1.4354l-4.8264,0.0068l0.0176-0.232l0.0036-0.3415l-0.0036-0.2918l-0.014-0.2323l-0.0176-0.1758l-0.0281-0.197
	l-0.0386-0.1581l-0.0389-0.0634h-6.0292l-0.0317,0.0281l-0.028,0.1268l-0.0141,0.0947l0.0036,1.4459h-1.7802v-0.2287l-0.0068,0.2287
	h-0.1024h-1.8922l-0.0072-1.4459l-0.0072-0.0947l-0.014-0.1268l-0.0173-0.0281h-6.054l-0.0245,0.0634l-0.0248,0.1581l-0.0176,0.197
	l-0.0068,0.1758l-0.0072,0.2359v0.2882l0.0036,0.3451l0.0104,0.232l-7.7283-0.0036l-4.8895-0.0068l-0.0775-0.2287l0.0036,0.2287
	l-5.5966-0.0072l-9.9446-0.0209l-3.6932-0.0108l-0.1585-0.2251l0.0072,0.2251l-5.0234-0.0173L855.246,60.05l-1.6182-0.014
	l-0.2287-0.2215l0.0072,0.2215l-2.7264-0.0245l0.7388-0.1761l2.3777-0.4643l3.4019-0.6613l3.6088-0.7035l3.5989-0.4431
	l3.8516-0.4751l3.6619-0.4535l3.8237-0.4715l0.0248,1.1188l7.8547-0.4928l7.6545-0.4784l7.8338-0.0774l8.038-0.1653l7.8655,0.1902
	l3.8517,0.0562l4.1194,0.0598l3.9115,0.2392l11.4464,0.7035l0.0176-1.108l3.5985,0.4326l0,0h0.0036l3.6233,0.4362h0.0034
	l3.6165,0.4326h0.0032l3.7923,0.4539l0.0032,0.0036v-0.0036l0.0072,0.0036l3.7603,0.7175l0.0072,0.0036v-0.0036l0.0068,0.0036
	l3.5215,0.6718l0.014,0.0036v-0.0036l0.0104,0.0036l0.4186,0.0807l2.2937,0.5526l-1.9559,0.0173l0.0068-0.2143L960.8638,60.0183z
	 M930.3516,36.26l6.3317,2.1317l1.5583,0.5875l7.2639,12.3894l-9.1317-0.8832l-0.5735-0.0349l-7.528-14.8165L930.3516,36.26z
	 M921.1847,33.7379l2.7224,0.5807l4.0736,1.224l7.563,14.8903l-10.1871-0.6332l-5.3293-16.262L921.1847,33.7379z M912.7493,32.6018
	l2.8385,0.2745l2.8143,0.3797l1.3685,0.2359l5.3397,16.2937l-3.0848-0.1934l-7.6299-0.0987l-3.2292-16.9831L912.7493,32.6018z
	 M904.1696,32.4152l2.8632-0.0457l2.8636,0.0634l1.0306,0.0634l3.236,16.9939l-6.9401-0.0915l-7.0284,0.1232l2.6136-17.0361
	L904.1696,32.4152z M895.6394,33.1857l2.8245-0.3624l2.8459-0.2568l1.2629-0.0666l-2.6101,17.0253l-7.6086,0.1304l-2.9127,0.1545
	l4.3687-16.3218L895.6394,33.1857z M890.099,34.2162l2.7437-0.5662l0.7175-0.1196l-4.3618,16.2937l-10.5707,0.5666l6.1664-14.6158
	L890.099,34.2162z M877.1996,38.2405l6.4023-2.1141l0.9111-0.2673l-6.1316,14.542l-0.4852,0.0281l-9.5366,0.6613L874.6,39.1972
	L877.1996,38.2405z M826.8409,65.2702l4.8189-3.6406l5.0339-3.4965l5.245-3.3453l5.4453-3.1907l5.6282-3.025l5.8113-2.8529
	l5.973-2.6771l6.1311-2.4973l3.3557-1.2312l-6.1873,11.7983l-3.6129,0.2496l-3.1519,0.3977l-2.944,0.3728l-3.1061,0.3869
	l-3.0463,0.3552l-1.9523,0.3555l-0.0317-0.4117l-0.0108-0.2075l-0.1581-1.7063l-0.0914-0.4784l-0.0036-0.0032l-0.0984-0.0425
	l0.0068-0.0032h-0.0104l-0.1055,0.0457l-0.0598,0.4784l-0.0352,1.7938v0.1196l-0.0033,0.4434v0.0807l-2.1072,0.3588l-2.5643,0.3836
	l-0.7596,0.0209l0.0562-0.2777l-17.8555,11.8649l-0.1938,0.0598L826.8409,65.2702z M838.9695,63.5361l6.5745-2.0651l0.9675,0.8198
	l0.0951,2.5503l-1.6288,2.216l-5.1251,0.1019l-7.8093,0.38l-7.4012,0.9358l-0.0494-0.4222L838.9695,63.5361z M973.6541,69.78
	l3.704,0.1124l-0.0036,0.1023h-8.5585L973.6541,69.78z M734.3931,45.624l0.0036,0.3098v0.1369l0.0915,23.7655L734.3931,45.624
	L734.3931,45.624z M713.301,46.0707v-0.2251v-0.2179h0.0036l-0.0176,9.4378l0,0L713.301,46.0707z M511.1656,69.0516l0.0389,0.0036
	v0.0036l-0.014-0.0036L511.1656,69.0516z M565.4188,69.0448h-0.0036l-0.0389-0.0036L565.4188,69.0448z M553.5467,34.16
	l0.2637-1.2348l0.0176-0.0032l0.1196-0.2464l0.0036-0.3869l0.1196,0.0245l0.3624-0.183l0.2356-0.3833l0.0385-0.4575l-0.1758-0.3833
	l-0.1055-0.0598l0.0915-0.0598l4.3513-0.0281l-0.0176,0.0176l-0.38,0.2356l-0.4712,0.2251l0.0281,0.6822l0.4607-0.0317
	l-0.0281,0.0249l-0.1441,0.429l0.0739,0.4013l0.2601,0.2532l0.549,0.1264l0.1866,0.0213l0.4045,1.2978l-0.1304,0.1127l0.0108,0.2532
	l0.0173,0.2215l0.0494,0.0389l0.8195,23.5962l0.447,9.7862l-0.0706,0.0108l0.0072,0.0526l-0.0529,0.0072l-0.0458,0.0177
	l-0.0385,0.0313l-0.028,0.0389l-0.0214,0.0458l-0.0032,0.0493l0.0104,0.049l0.0209,0.0457l0.0317,0.0389l0.0425,0.0317
	l0.0454,0.0173l0.053,0.0036l0.0212,0.0036l0.0209,0.0104l0.0212,0.0105l0.014,0.0176l0.0105,0.0249l0.0036,0.0209v0.0213
	l-0.0105,0.0209l-0.014,0.0176l-0.0176,0.0141l-0.0212,0.0108h-0.0209l-0.134,0.0173l-0.1196,0.053l-0.1019,0.0774l-0.0775,0.1019
	l-0.0458,0.1196l-0.014,0.13l0.0248,0.1268l0.0526,0.1196l0.0879,0.1019l0.1091,0.0774l0.0104,0.0072h-5.2518l0.0389-0.0144
	l0.1019-0.0807l0.0775-0.1055l0.0457-0.1196l0.014-0.1268l-0.0248-0.13l-0.0526-0.1232l-0.0879-0.1019l-0.1091-0.081l-0.1232-0.049
	l-0.1337-0.014h-0.0208h-0.0213l0.0213-0.0036l-0.0213-0.0108l-0.0212-0.014l-0.0141-0.0173l-0.0068-0.0213l-0.0072-0.0212
	l0.0036-0.0245l0.0072-0.0212l0.0141-0.0173l0.0173-0.0108l0.0177-0.0104h0.0248l0.0526-0.0068l0.0457-0.0213l0.0386-0.0317
	l0.0284-0.0385l0.0173-0.0458l0.0072-0.0493l-0.0104-0.0493l-0.0212-0.0457l-0.0316-0.0385l-0.0422-0.0317l-0.0457-0.0176
	l-0.0526-0.0068V68.436l-0.1024-0.0068l-0.0807-0.0036l-0.313-9.8528l-1.0975-23.6916l0.0775-0.0738l-0.0072-0.2532l-0.0526-0.2323
	l-0.1512-0.1124L553.5467,34.16z M543.6867,34.1845l0.2532-1.1818l0.2003-0.0526l0.1373-0.25l0.0104-0.3869l-0.0032-0.0177
	l0.2532-0.1405l0.2215-0.38l0.0386-0.4575l-0.1653-0.3797l-0.0843-0.0493l0.0493-0.0385l4.4496-0.0281l-0.246,0.1794l-0.4153,0.2251
	l0.0212,0.6822l0.4045-0.0317l-0.0245,0.0249l-0.1372,0.4254l0.0598,0.4045l0.246,0.2532l0.5875,0.1268l0.1019,0.0104l0.3732,1.2701
	l-0.0036,0.0032l-0.1725,0.148l0.0072,0.2532l0.0739,0.2215l0.0104,0.0068l0.6052,23.6355l0.3552,9.7862l-0.0349,0.0032
	l-0.0353,0.0108l0.0036,0.049l-0.014,0.0036l-0.0353,0.0072l-0.0458,0.0177l-0.0385,0.0313l-0.0317,0.0389l-0.0141,0.0458
	l-0.0072,0.0493l0.0105,0.049l0.0176,0.0457l0.0317,0.0389l0.0422,0.0281l0.0457,0.0209l0.0494,0.0036l0.0245,0.0036l0.0176,0.0104
	l0.0212,0.0105l0.014,0.0176l0.0105,0.0249l0.0036,0.0209l-0.0036,0.0213l-0.0069,0.0209l-0.014,0.0176l-0.0176,0.0141
	l-0.0108,0.0072l-0.1228,0.014l-0.0389,0.0068l-0.1196,0.0494l-0.1019,0.081l-0.0774,0.1019l-0.0458,0.1196l-0.014,0.1268
	l0.0248,0.13l0.0526,0.1196l0.0843,0.1019l0.1055,0.0774l0.014,0.0072h-5.3292l0.0389-0.0144l0.1019-0.0807l0.0775-0.1019
	l0.0457-0.1232l0.014-0.1268l-0.0212-0.13l-0.0526-0.1196l-0.0811-0.1055l-0.1055-0.0774l-0.1229-0.0493l-0.1304-0.0173
	l-0.0245-0.0036l-0.0176-0.0072l-0.0212-0.014l-0.0141-0.0209l-0.0104-0.0177v-0.0212v-0.0245l0.0104-0.0212l0.0108-0.0177
	l0.0141-0.0104l0.0104-0.0036h-0.0036h0.0036h0.0036h-0.0036l0.0212-0.0032l0.049-0.0072l-0.0385,0.0036l0.0068-0.0036
	l0.0493-0.0068l-0.0176,0.0068l0.0458-0.0177l0.0177-0.0104l0.0388-0.0317l0.0281-0.0353l0.0173-0.0457l0.0036-0.049l-0.0068-0.0493
	l-0.0213-0.0493l-0.0281-0.0385l-0.0421-0.0281l-0.0494-0.0176l-0.0457-0.0072v-0.0562l-0.1337-0.0068l-0.0458-0.0036
	l-0.2215-9.8459l-0.8656-23.6459l0.1091-0.1055l-0.0036-0.2532l-0.116-0.232l-0.1336-0.1023L543.6867,34.1845z M533.1301,34.3218
	l0.2392-1.1257l0.3973-0.1088l0.1549-0.2464l0.0212-0.3905l-0.0388-0.13l0.0352-0.0213l0.2111-0.38l0.0353-0.4571l-0.1549-0.38
	l-0.0529-0.0317l0.1372-0.1336l5.2061-0.0317l-0.1653,0.1408l-0.3621,0.2287l0.0173,0.6786l0.3448-0.0245l-0.0209,0.0213
	l-0.1337,0.4254l0.049,0.4045l0.2287,0.25l0.6262,0.13h0.0212l0.3447,1.2488l-0.0562,0.0353l-0.169,0.1441v0.2532l0.1055,0.1689
	l0.3869,23.6772l0.264,9.7793l-0.067,0.0032l-0.0036,0.0108l0.0036,0.0457l-0.0458,0.0068l-0.0457,0.0177l-0.0422,0.0317
	l-0.0281,0.0385l-0.014,0.0425l-0.0072,0.0526v0.0036v0.0036l0.0072,0.049l0.0176,0.0457l0.0317,0.0389l0.0386,0.0317l0.0457,0.0173
	l0.0526,0.0072h0.0212l0.0176,0.0104l0.021,0.0141l0.0144,0.0176l0.0068,0.0213l0.0036,0.0209l-0.0036,0.014l-0.0068,0.0213
	l-0.0144,0.0176l-0.0174,0.0141l-0.0176,0.0104l-0.0212,0.0036l-0.1301,0.0177l-0.1196,0.0457l-0.0987,0.0807l-0.0771,0.1019
	l-0.0457,0.1232l-0.0141,0.1268l0.0173,0.1264l0.0036,0.0072l0.0529,0.1196l0.0807,0.1055l0.1019,0.0774l0.0108,0.0036h-6.0857
	l0.014-0.0072l0.1019-0.0774l0.0742-0.1019l0.049-0.1232l0.0108-0.1264l-0.0176-0.1268l-0.0494-0.1196l-0.0811-0.1019l-0.1019-0.081
	l-0.1196-0.0494l-0.0245-0.0068l-0.1268-0.014l-0.014-0.0036l-0.0068-0.0036l-0.0177-0.0141l-0.014-0.0176l-0.0108-0.0173v-0.0249
	v-0.0209l0.0108-0.0213l0.014-0.0212l0.0141-0.0105l0.0212-0.0104l0.0245-0.0036l0.0458-0.0036l0.0457-0.0209l0.0386-0.0281
	l0.0281-0.0389l0.0176-0.0457l0.0072-0.049l-0.0072-0.0493l-0.0176-0.0458l-0.0317-0.0389l-0.0422-0.0313l-0.0209-0.0072
	l-0.0457-0.0177l-0.0249-0.0068v-0.0457l-0.0245-0.0108l-0.1477-0.0068l-0.1196-9.7757l-0.6296-23.5789l0.1336-0.1232
	l-0.0036-0.2532l-0.1758-0.2284l-0.116-0.0951L533.1301,34.3218z M521.0292,33.2491l0.5277-0.1585l0.1758-0.246l0.0317-0.3905
	l-0.1196-0.4081l-0.0104-0.014l0.2319,0.014l-0.0032-0.679l-0.2392-0.2215l-0.0598-0.0983l0.0386-0.0529l7.3133-0.0457
	l-0.1023,0.0879l-0.0598,0.2006l-0.2108,0.1581l0.0068,0.679l0.2814-0.0213l-0.0176,0.0177l-0.1337,0.4222l0.0458,0.4045
	l0.2075,0.25l0.5983,0.116l0.313,1.2171l-0.1091,0.0774l-0.1721,0.1477l0.0032,0.246l0.0951,0.1055l0.1477,23.6178l0.1653,9.7789
	l-0.0703,0.0072v0.0562l-0.0457,0.0068l-0.0458,0.0177l-0.0389,0.0281l-0.0313,0.0389l-0.0176,0.0458l-0.0036,0.0493l0.0072,0.049
	l0.0173,0.0457l0.0317,0.0389l0.0389,0.0317l0.0458,0.0173l0.0385,0.0072l0.0421,0.0068l0.0108,0.0036l0.0173,0.0141l0.014,0.0176
	l0.0072,0.0213l0.0036,0.0209v0.0249l-0.0108,0.0173l-0.014,0.0176l-0.0141,0.0141l-0.0245,0.0108l-0.0212,0.0032l-0.1265,0.0177
	l-0.1196,0.0493l-0.0987,0.0774l-0.0775,0.1019l-0.0453,0.1196l-0.0177,0.13l0.0177,0.1268l0.0526,0.1196l0.0775,0.1019
	l0.1055,0.0774l0.014,0.0072h-8.038l0.014-0.0072l0.0987-0.0774l0.0811-0.1019l0.0491-0.1196l0.014-0.13l-0.0176-0.1268
	l-0.0491-0.1196l-0.0775-0.1019l-0.1055-0.081l-0.116-0.0494l-0.1268-0.014l-0.0245-0.0032l-0.0176-0.0108l-0.0213-0.0141
	l-0.014-0.0176l-0.0032-0.0173l-0.0072-0.0249l0.0072-0.0209l0.0032-0.0213l0.014-0.0212l0.0213-0.0105l0.0176-0.0104h0.0209
	l0.0494-0.0072l0.0457-0.0173l0.0386-0.0317l0.0284-0.0389l0.0209-0.0457l0.0036-0.049l-0.0036-0.0493l-0.0209-0.0458
	l-0.0284-0.0389l-0.0422-0.0313l-0.0421-0.0177l-0.0494-0.0036v-0.0562l-0.0667-0.0108l-0.1019-0.0032l-0.0072-9.7793
	l-0.3483-23.5648l0.1445-0.1336v-0.2532l-0.25-0.2287l-0.0317-0.0281L521.0292,33.2491z M511.3101,33.2631l0.5735-0.183
	l0.1898-0.2496l0.0421-0.3836l-0.1231-0.415l-0.0141-0.014l0.2885,0.0177l0.0036-0.679l-0.2921-0.2215l-0.0667-0.0774l4.4288-0.0281
	l-0.0176,0.014l-0.1268,0.3728l0.0389,0.4398l0.1898,0.3692l0.1477,0.0951l-0.0526,0.1794l0.0281,0.4009l0.1862,0.2496
	l0.5453,0.0987l0.2674,1.1501l-0.0916,0.0774l-0.2428,0.2287l-0.0032,0.2532l0.0843,0.0738l-0.1337,23.6423l0.0562,9.7753
	l-0.0104,0.0036l-0.0634,0.0072v0.0562l-0.0493,0.0068l-0.0458,0.0177l-0.035,0.0317l-0.0317,0.0389l-0.0176,0.0421l-0.0068,0.0493
	l0.0068,0.049l0.0176,0.0457l0.0317,0.0389l0.035,0.0317l0.0458,0.0173l0.0493,0.0072l0.0212,0.0036l0.0209,0.0068l0.0177,0.0141
	l0.014,0.0176l0.0072,0.0213l0.0032,0.0209l-0.0032,0.0249l-0.0072,0.0173l-0.014,0.0176l-0.0177,0.0141l-0.0176,0.0108h0.0176
	h-0.014h-0.0036l-0.0245,0.0032l-0.1265,0.0177l-0.1196,0.0493l-0.0986,0.0774l-0.0775,0.1019l-0.0526,0.1196l-0.0176,0.13
	l0.0176,0.1268l0.0526,0.1196l0.0775,0.1019l0.1019,0.081l0.0072,0.0036h-5.3891l0.014-0.0072l0.1056-0.0774l0.0775-0.1019
	l0.049-0.1232l0.0176-0.1264l-0.0176-0.1268l-0.049-0.1196l-0.0775-0.1019l-0.102-0.081l-0.1163-0.0494l-0.1264-0.0173
	l-0.0212,0.0032h-0.0208l0.0208-0.0032l-0.0208-0.0108l-0.0177-0.0141l-0.0141-0.0176l-0.0104-0.0209v-0.0213v-0.0209l0.0104-0.0249
	l0.0141-0.0176l0.0177-0.0105l0.014-0.0068l0.0317-0.0036l0.0457-0.0072l0.0421-0.0209l0.0421-0.0281l0.0281-0.0389l0.0212-0.0457
	l0.0032-0.049l-0.0032-0.0493l-0.0212-0.0458l-0.0281-0.0389l-0.0385-0.0313l-0.0457-0.0177l-0.0493-0.0072v-0.0526l-0.1019-0.0108
	l-0.0565-0.0032l0.081-9.7793l-0.1267-23.5436l0.1513-0.1653v-0.2532l-0.1686-0.1477l-0.0072-0.0036l0.0072-0.0072l-0.067-0.0457
	L511.3101,33.2631z M501.2495,58.678l0.0916-23.459l0.014-0.0144l0.1441-0.2215l0.0036-0.2532l-0.1689-0.1477h-0.0033l0.0069-0.0072
	l-0.0177-0.0104l0.3275-1.2521l0.028-0.0036l0.5875-0.2006l0.2107-0.2496l0.0457-0.3869l-0.1227-0.4117l-0.0177-0.0213
	l0.3483,0.0213l0.0068-0.679l-0.3446-0.2215l-0.0494-0.0421l4.0596-0.0249l-0.1127,0.3134l0.0388,0.4362l0.2003,0.3692
	l0.3026,0.1866l0.0774-0.0144l-0.0317,0.1055l0.0249,0.4013l0.1653,0.2496l0.4503,0.0774l0.246,1.1152l0.0036,0.0068h-0.0036
	l-0.1545,0.1268l-0.183,0.2284l-0.0036,0.2536l0.0667,0.0666l-0.3481,23.6563l-0.0389,9.7789h-0.0457l-0.0281,0.0108v0.049
	l-0.0209,0.0036l-0.0248,0.0072l-0.049,0.0209l-0.0352,0.0281l-0.0318,0.0389l-0.0176,0.0458l-0.0068,0.0493l0.0032,0.049
	l0.0212,0.0457l0.0282,0.0389l0.0388,0.0317l0.0454,0.0173l0.0457,0.0072h0.0213l0.0212,0.0104l0.0173,0.0141l0.0141,0.0176
	l0.0108,0.0213v0.0209v0.0249l-0.0108,0.0173l-0.0141,0.0176l-0.0173,0.0141l-0.0072,0.0072h-0.0068l-0.1268,0.0177l-0.028,0.0032
	l-0.1197,0.053l-0.1019,0.0774l-0.081,0.1019l-0.0494,0.1196l-0.0176,0.1268l0.0176,0.13l0.0458,0.1196l0.0774,0.1019l0.1019,0.0774
	l0.0141,0.0072h-5.3362l0.0104-0.0072l0.102-0.0774l0.0811-0.1019l0.0493-0.1196l0.0209-0.13l-0.0176-0.1268l-0.0453-0.1196
	l-0.0775-0.1019l-0.0987-0.0774l-0.1196-0.053l-0.1264-0.014l-0.0212-0.0032l-0.0212-0.0108l-0.0173-0.0141l-0.0141-0.0176
	l-0.0072-0.0173l-0.0036-0.0249l0.0036-0.0209l0.0105-0.0213l0.0108-0.014l0.014-0.0104l0.0177-0.0072l0.0208-0.0036l0.0493-0.0068
	l0.0457-0.0176l0.0385-0.0317l0.0072-0.0068l0.0317-0.0389l0.0173-0.0457l0.0072-0.049l-0.0036-0.0493l-0.0176-0.0458
	l-0.0313-0.0389l-0.0389-0.0281l-0.0421-0.0177l-0.0493-0.0068v-0.0562l-0.1372-0.0108h-0.0173L501.2495,58.678z M486.3872,69.0588
	h0.0353h-0.0213l-0.0176,0.0036L486.3872,69.0588z M491.0728,69.4457l-0.0457-0.116l-0.0774-0.1019l-0.0984-0.081l-0.1196-0.0493
	l-0.0281-0.0068l-0.1268-0.0177h-0.0036l-0.0104-0.0036l-0.0176-0.014l-0.0104-0.0177l-0.0072-0.0209l-0.0033-0.0212l0.0033-0.0213
	l0.0072-0.0245l0.014-0.0176l0.0176-0.014l0.0209-0.0068l0.0212-0.0036l0.0493-0.0036l0.0457-0.0176l0.0385-0.0317l0.0317-0.0385
	l0.0212-0.0457l0.0068-0.0457l-0.0036-0.0493l-0.0173-0.0457l-0.0317-0.0385l-0.0389-0.0281l-0.0421-0.0212l-0.0317-0.0104h-0.0177
	v-0.0526l-0.0281-0.0072l-0.1232-0.0072l0.264-9.7051l0.3199-23.3714l0.0634-0.0526l0.0811-0.2215l0.0068-0.25l-0.1369-0.1196
	l0.3621-1.291l0.1163-0.0068l0.5417-0.2042l0.2215-0.246l0.0598-0.3872l-0.1268-0.4078l-0.0209-0.0249l0.4078,0.0249l0.0144-0.679
	l-0.4013-0.2183l-0.1653-0.1228l4.4709-0.0285l-0.1088,0.2817l0.0421,0.4395l0.2148,0.366l0.3162,0.183l0.3238-0.0493
	l-0.0389,0.1408l0.0144,0.4009l0.1477,0.2532l0.2673,0.0421l0.2532,1.1469l0.0036,0.0104l0,0l-0.1653,0.1268l-0.1232,0.2287
	l-0.0072,0.2496l0.0566,0.0526l-0.5699,23.6178l-0.1268,9.807l-0.0775,0.0036l-0.0036,0.0529l-0.0454,0.0104l-0.0457,0.0177
	l-0.0424,0.0281l-0.0281,0.0385l-0.0209,0.0457l-0.0072,0.0494l0.0072,0.0493l0.0176,0.0457l0.0281,0.0385l0.0105,0.0104
	l0.0352,0.0285l0.0457,0.0209l0.049,0.0036l0.0213,0.0036l0.0208,0.0068l0.0144,0.0141l0.0069,0.0108l0.0104,0.0209l0.0036,0.0245
	l-0.0036,0.0213l-0.0104,0.0212l-0.0141,0.0173l-0.0176,0.0144l-0.0209,0.0068l-0.0212,0.0036l-0.13,0.0177l-0.1196,0.0457
	l-0.1023,0.0807l-0.0807,0.1019l-0.0493,0.1232l-0.0212,0.1268l0.0176,0.1264l0.0457,0.1196l0.0775,0.1055l0.0988,0.081
	l0.0104,0.0036l0.0069,0.0036h-5.8742l0.0983-0.0742l0.0811-0.1019l0.0493-0.1196l0.0209-0.1264L491.0728,69.4457z
	 M269.6147,55.5262l0.0284-0.8476l1.8115-0.0213h0.0068l0.3275-0.0032l0.0631,0.8476l0.4081,0.7316l0.0177,12.7409l-0.1758,0.4117
	l-0.3555,0.0036l-0.0104-0.3869l-0.0036-0.0108l-2.0226,0.0177l-0.0036-0.0068l-0.4748-12.7341L269.6147,55.5262z M265.3866,55.5755
	l0.0317-0.8443l1.6076-0.0209h0.0703l0.4643-0.0072l0.0634,0.8479l0.4081,0.7316l0.0068,12.7269l-0.1758,0.415l-0.4924,0.0036
	l-0.0036-0.0105l-0.0702-0.1549l-1.7168,0.014l-0.1091-0.2392l-0.4643-12.7197L265.3866,55.5755z M261.1689,55.6285l0.0354-0.8479
	l2.1353-0.0245l0.0667,0.8443l0.4045,0.7316l-0.0036,12.7164l-0.1019,0.2424l-2.3496,0.0213l-0.1128-0.2428l-0.4539-12.7024
	L261.1689,55.6285z M256.9617,55.6775l0.0353-0.844l2.1317-0.0281l0.0634,0.844l0.4045,0.7319l-0.014,12.7056l-0.102,0.2392
	l-2.3428,0.0213l-0.1128-0.2392l-0.4431-12.692L256.9617,55.6775z M268.9113,69.8257l4.9882-0.0389l-24.9614,0.2078h-0.0457
	L268.9113,69.8257z M252.7617,55.7268l0.0354-0.8443l2.1281-0.0245l0.0634,0.8443l0.4009,0.728l-0.0209,12.6952l-0.0915,0.2219
	l-0.0072,0.0173l-2.3392,0.0177l-0.1124-0.2392l-0.433-12.6775L252.7617,55.7268z M248.5721,55.7761l0.0353-0.8443l0.7139-0.0068
	h0.1304l1.2769-0.0177l0.0598,0.844l0.4045,0.7283l-0.0281,12.6848L251.0626,69.4l-1.3857,0.0104l-0.1196,0.1585l1.4246,0.0209l0,0
	l-1.4246-0.0209l-0.0072,0.0104l-0.742,0.0072l-0.1902-0.4081l-0.4254-12.6635L248.5721,55.7761z M246.539,54.9599l0.0634,0.8407
	l0.4009,0.7283l-0.0385,12.6703l-0.0036,0.0072l-1.9102,0.014l-0.2323-14.2394L246.539,54.9599z M154.0458,43.1512l0.7524,0.081
	l0.6015-0.0706l0.3447,0.4153l-0.1124,0.0421l-0.0249,0.0562l1.228,19.9523l-3.2541-20.1494l0.4927-0.0598L154.0458,43.1512z
	 M147.2284,42.6624l0.0036,0.0209l0.063-0.0068l2.4379,0.2673l-0.0072,0.0209l0.0108,0.1621l0.0703,1.3083l-0.0141,0.0566h0.0177
	l0.0177,0.2918l1.3893,25.2114h-0.8022L146.4439,43.89l-0.0036-0.0213l-0.0457-0.2918l-0.0209-0.1585l-0.0951-0.612l-0.0385-0.2532
	L147.2284,42.6624z M141.1146,41.9164l0.8688-0.1196l0.3556,0.4467l0.0208,0.0072l0.0281,0.5594l0.0213,0.496l0.0036,0.0738
	l0.0141,0.2637l0.0245,0.5522l0.0318,0.6368l1.1923,25.162h-1.8677l-3.3982-23.9906l-0.0349-0.2604l-0.1585-1.0976l-0.0281-0.2003
	l-0.081-0.5839L138.1,43.823l-0.0177-0.1232l-0.0493-0.362l-0.0421-0.2921l-0.0104-0.081l-0.0703-0.4816v-0.0036l-0.1304-0.9322
	L141.1146,41.9164z M135.307,40.8999h0.0036l-0.014,0.0036L135.307,40.8999z M133.1965,41.0476l0.5101-0.0774l0.1196,0.1585
	l0.0141,0.3516l0.0069,0.1336l0.014,0.4153l0.0177,0.4888v0.0249l0.0036,0.0911l0.0245,0.5666l0.0072,0.1934l0.0141,0.4431
	l0.0104,0.1866l0.0108,0.2885l0.0032,0.0843l0.0141,0.4575l0.0072,0.2003l0.0177,0.4398l0.9286,24.5007h-2.2794l-3.261-24.9369
	l-0.0598-0.4539l-0.0212-0.1545l-0.0421-0.3307l-0.0069-0.0493l-0.0493-0.3836L129.021,42.3l-0.0281-0.2075l-0.0634-0.496
	l-0.0141-0.0951l-0.1232-0.9391L133.1965,41.0476z M123.5686,39.7778l0.7809-0.1232l0.3764,0.496l0.0245,0.0317l0.0177,0.014
	l0.0212,0.8018v0.0494l0.0141,0.5032l0.0036,0.116l0.0104,0.3411l-0.0457,0.3202l0.0633,0.3588l0.0036,0.1581l0.0032,0.0457
	l0.0353,1.2593l0.0036,0.183l0.7139,25.6616h-2.698l-3.145-26.3756l-0.0141-0.1232l-0.1405-1.1782l-0.0879-0.7319l-0.0598-0.4992
	v-0.0108l-0.0141-0.1019l-0.0597-0.5205l-0.1373-1.1537L123.5686,39.7778z M115.0874,38.9476l0.0177,1.0518l0.0072,0.5205
	l0.0209,1.2243l0.014,0.7175v0.1232l0.0249,1.5619l0.0032,0.1196l0.4363,25.7283h-4.4288l-2.6133-24.7892l-0.0144-0.116
	l-0.1546-1.4844l-0.014-0.1196l-0.0598-0.5771l-0.0176-0.1617l-0.0036-0.0385l-0.1653-1.5446v-0.0209l-0.0493-0.4607l-0.0032-0.0317
	v-0.014l-0.0281-0.2604l-0.067-0.6156l-0.0562-0.5345l-0.1127-1.0767L115.0874,38.9476z M103.4264,37.7762l0.1408-0.0245
	l0.0702,0.0915l0.0036,0.9146v0.3516l0.0036,0.5382v0.2604l0.0032,0.7492l0.0036,0.5662v0.2781v0.0774l0.0036,0.7211v0.2777
	l0.0036,0.8548l0.0032,0.7669v0.1196l0.0072,1.4704v0.1127l0.0983,24.0926h-2.0435l-2.2726-24.1315l0,0V45.86l-0.0843-0.8937
	l-0.0108-0.1124l-0.0702-0.7388l-0.1757-1.8572l-0.039-0.3977l-0.1336-1.4034l-0.0036-0.0566l-0.0245-0.2709l-0.0526-0.5626
	l-0.0598-0.6228l-0.014-0.1617l-0.0529-0.5486v-0.0072l-0.0915-0.978L103.4264,37.7762z M90.2316,37.8043l1.0028,0.1055l3.127-0.626
	l-0.0104,1.2557v0.549l-0.0036,0.1372l-0.1019,0.0598l0.0104,0.1019l0.0879,0.13v0.2568l-0.0104,1.6321L94.3296,41.92
	l-0.1757,28.0747h-1.1502l-2.3781-28.3351l-0.0526-0.612l-0.0598-0.742l-0.0846-0.9992l-0.116-1.3612l-0.116-0.0738H90.193
	L90.2316,37.8043z M81.5044,39.9641l0.0879-0.0666l0.2179-0.3624l0.039-0.0634l1.9591,0.1934l2.466-0.4924l-0.0141,0.9358
	l-0.014,0.992v0.0209l-0.0036,0.2287l-0.4431,28.6445h-2.1457l-2.1847-30.0198L81.5044,39.9641z M72.7946,41.227l1.801,0.1617
	l3.0463-0.6048l-0.7388,29.2108h-2.1807l-1.787-28.4864l-0.0176-0.0666l-0.1372-0.0598l-0.0738-0.014L72.7946,41.227z
	 M65.893,42.9718l0.0526-0.0562l0.2006-0.3238l1.6991,0.1444l1.4772-0.2957l-0.9672,27.5542h-1.0342l-1.4668-27.0088L65.893,42.9718
	z M59.5083,43.8442l0.8375-0.1689l1.3083,0.1055l0.7528-0.1513l-1.1361,26.3651h-0.8022l-1.1995-25.7355l0.2428-0.0494
	L59.5083,43.8442z M53.2082,45.5642l0.0036-0.4362l0.7248-0.1513l1.2733,0.0987l0.7669-0.1549l-1.2701,25.0741h-0.7352
	l-0.9567-24.3915L53.2082,45.5642z M47.7557,46.6549l0.0036-0.4222l0.5101-0.1019l1.5478,0.1088l0.0421-0.0068l-1.3717,23.7619
	h-0.3588l-0.7564-23.2659L47.7557,46.6549z M37.7798,48.7233l0.014-0.4643l0.1689-0.0353l1.1923,0.0774l-1.4386,20.5643
	L37.2978,48.818L37.7798,48.7233z M34.2479,49.3529l0.0036-0.2111l0.2673,0.0177l-1.4491,19.2027l-0.2922-18.7175L34.2479,49.3529z
	 M30.1008,50.109l-0.8162,10.1276l-0.1123-9.941L30.1008,50.109z M25.2744,51.0095l1.0907-0.2215l0.0068-0.1934l0.2287,0.014
	l-1.2805,15.154l-0.1019-14.672L25.2744,51.0095z M22.3445,51.7306l0.014-0.3339l0.3833-0.0774l-1.2557,14.1094L21.4508,51.91
	L22.3445,51.7306z M18.1372,54.0136v-0.1405l0.0036-1.3439l0.0068-0.0036l0.014-0.0209l0.8688-0.1758L18.8865,53.88l-0.014,0.1549
	L18.13,61.9847L18.1372,54.0136z M15.3056,52.4835l0.5309,0.0281l-0.9214,9.445l0.0421-8.7905l-0.0108-0.0249l-0.0807-0.0209
	L15.3056,52.4835z M42.0536,47.8717l0.8303-0.165l0.0104-0.4856l0.0706-0.014l1.3825,0.0947l-1.4531,22.6928h-0.2568
	L42.0536,47.8717z"/>
</svg>
