<?xml version="1.0" encoding="utf-8"?>
<!-- Generator: Adobe Illustrator 18.1.1, SVG Export Plug-In . SVG Version: 6.00 Build 0)  -->
<svg version="1.1" id="berlin" xmlns="http://www.w3.org/2000/svg" xmlns:xlink="http://www.w3.org/1999/xlink" x="0px" y="0px"
	 viewBox="0 0 999.4293 248.5903" enable-background="new 0 0 999.4293 248.5903" xml:space="preserve">
<g>
	<path   d="M986.4969,221.0625v-0.0334h-0.2289v-0.1315h-0.2307v-0.133h-9.2836v-1.1423h-0.1667v-0.1686h-12.688
		l0.7471-11.2492l0.6474-0.3888l1.6658-0.9842l1.531-0.9119l1.3716-0.8197l1.1779-0.7027l-0.0817-0.1417l0.0836,0.1417
		l0.9632-0.5817l-0.085-0.1402l0.085,0.1402l0.7201-0.4382l-0.085-0.1421l0.0886,0.1421l0.4523-0.2841l-0.0868-0.1366l0.0941,0.1366
		l0.1402-0.0956l-0.0923-0.1384l0.4487-0.7434l0.1312-0.0781l-0.0407-0.0672l0.0018-0.0036l0.0443,0.0621l0.1544-0.1028
		l-0.0923-0.1352l-0.259-0.4541l0.0087-0.0069l-0.1842-0.2714l-0.2627,0.1562l-0.933,0.0603l-0.0712-0.1493l-0.1097,0.048
		l0.0087,0.0178l-0.0087,0.0036l-0.0109-0.0142l-0.4167,0.2271l0.0211,0.0407l0,0l-0.0211-0.0407l-0.683,0.3829l0.0356,0.0639
		l-0.0356-0.0639l-0.9243,0.5254l-0.1133,0.0639l0.053,0.0919l-0.0709,0.0411l0.0247,0.037l-0.016,0.0036l-0.0178-0.0265
		l-0.0018-0.0036l-0.218,0.1279l-1.1605,0.4647l-4.6869,1.515l-4.7471,1.1833l-4.7919,0.848l-4.8235,0.5108l-4.8362,0.1704
		l-4.8358-0.1704l-4.8239-0.5145l-4.7914-0.8444l-4.7457-1.187l-4.6887-1.5151l-0.9705-0.3902l0.0781-0.1421l-0.4898-0.2714
		l-0.0777,0.1457l0.0777-0.1457l-0.9595-0.525l-0.0781,0.1453l0.0763-0.1453l-0.7205-0.3833l-0.0549,0.1046l0,0l0.0534-0.1083
		l-0.4542-0.2271l-0.0233,0.0447l-0.0105-0.0073l0.0141-0.0407l-0.1366-0.0534l-0.0585,0.1526l-1.0024-0.0585l-0.0657-0.0498
		l-0.1133-0.0956l-0.0995,0.1152l0.0109-0.1562h-0.0109l-0.0033,0.1599l-0.1137,0.1293l0.0233,0.0232l-0.2558,0.4505l-0.1079,0.1261
		l0.1224,0.1046l0.0709-0.0854l0.0051,0.0073l-0.0618,0.0887l0.197,0.1348l0.4203,0.6918l-0.1064,0.1261l0.1101,0.0941
		l0.1079-0.1225l-0.0919,0.1366l0.4203,0.2838l0.0886-0.1384l-0.0868,0.1384l0.6844,0.4382l0.0872-0.1417l-0.0872,0.1417
		l0.9261,0.5802l0.0869-0.1402l-0.0851,0.1402l1.1427,0.7077l0.085-0.1417l-0.085,0.1417l1.3341,0.8142l0.085-0.1366l-0.085,0.1366
		l1.4973,0.9119l1.632,0.9901l1.0166,0.6191l0.7325,11.029l-5.6395-0.0105v-2.9767h-0.1631v-0.1635h-14.1906l-0.0978-11.0981
		l0.2573-0.0073l0.5555-0.048l-0.016-1.4598l-0.1047-0.0712l-0.7858-0.0654l-1.437-0.0603l-2.0012-0.0516l-1.6942-0.0196
		l-0.2253-0.2892l-0.0036-0.9312l-0.0694-0.0302l-0.3103-0.0338l-0.0745-0.0036L899.2712,163.3l0.2271-0.1526l0.085-0.1115
		l0.0516-0.016l0.0229-0.0818l0.0037-0.0073v-0.0193l0.1613-0.7397l-0.0051-1.4816v-0.4683l-1.6644-0.4734v-0.0621l-0.0406-0.1315
		l-0.1704-0.1221l-0.2889-0.1083l-0.2042-0.048l-0.0283-0.1224l-0.0197-0.1243l-0.0657-0.1115l-0.2783-0.4988l-0.1544-0.4415
		l-0.0585-0.4331l-0.0018-0.6918l0.0123-0.101l0.1047-0.0552l0.0712-0.0142l0.0476-0.0941l-0.0283-0.1897l-0.0585-0.3459
		l0.025-0.3975l-0.1384-1.0166l0.0124-0.3989l0.0247-0.1366l0.1846,0.0033l0.2856-0.1526h0.2681l0.0814-0.1046l0.1686-0.1897
		l0.1667-0.1046l0.0567-0.0283l0.0233-0.1188l0.0142-0.1384l-0.048-0.1969l-0.275-0.2572v-0.1297l0.1064-0.1453l0.19-0.3619
		l0.2039-0.557l0.1329-0.3887l0.08-0.1933l0.1773-0.1293l0.0658-0.1119l-0.08-0.3121l-0.1207-0.1457l-0.1082-0.0639l-0.1686-0.0407
		l-0.1522,0.0498l-0.1863,0.0814l-0.0284,0.1809l0.133,0.5323l0.1224,0.2307l-0.0694,0.1987l-0.0726,0.0407l-0.0513,0.0712
		l-0.0676,0.1773l-0.1083,0.3495l-0.149,0.1987l-0.0817,0.2605l-0.0992,0.0694l-0.117,0.0087l-0.11-0.0338l-0.048-0.053
		l-0.0654-0.1261l-0.0712-0.0639l-0.149,0.0127l-0.1526,0.4683l-0.037,0.1384l-0.1064,0.0745l-0.165,0.0174l-0.0763-0.2641
		l0.0389-0.2042l0.1791-0.0636l0.0781-0.6583l-0.1988-0.1526l-0.1544-0.1348l-0.0461-0.0817l0.0127-0.0512l0.0886-0.1046
		l-0.0127-0.1297l-0.0567-0.0193l-0.3477-0.0443l-0.149-0.0534l-0.1526,0.0091l-0.053,0.0247l0.0051,0.0407l0.0781,0.0676
		l0.1297,0.0781l0.1595,0.1115l0.0178,0.1421c0,0-0.174,0.0443-0.2289,0.3121c-0.0567,0.2645,0.0799,0.4614,0.0799,0.4614
		l-0.1297,0.1791l0.0763,0.1526l0.0995,0.0338l0.0175,0.0512l0.0214,0.1649l-0.0283,0.1668l-0.0497,0.0036l-0.2642-0.1261
		l-0.0036-1.8395l-0.0037-1.3163l0.2024-0.1649l0.0672-0.0214l-0.0106-0.0672l-0.101-0.3764l-0.2183-0.3492l-0.0425-0.2823
		l-0.0374-0.0639l-0.0726,0.048l-0.085,0.6104l-0.0658,0.3691l0.0251,0.2198l0.1541,0.0781l0.0497,2.9872l-0.1188-0.234
		l0.0036-0.2111l0.0302-0.0425l-0.0302-0.048l-0.0853-0.0374l-0.1719,0.0498l-0.3851,0.0549l-1.1372-0.0105l-0.4451,0.0443
		l-0.1366,0.0639l-0.0142,0.0516l-0.0142,0.1079l0.0512,0.048l0.1312,0.2787l0.4669,0.3582l0.4186,0.5126l0.6492,0.4029
		l0.4633,0.5355l0.1381,0.1526l0.0392,0.4436l0.0123,0.1737l-0.1046,0.1668l-0.2751,0.3212l0.1065,0.3459l-0.0302,0.3194
		l-0.493,0.8462l-0.1918,0.4047l-0.1987,0.1453l-0.1381,0.2165l0.0585,0.3085l0.2002,0.2165l0.1508,0.048l0.1581,0.2572
		l0.3015,0.085l0.1828-0.1933l0.0977,0.0887l0.1984,0.0941h-0.0175l-0.4066,0.0817l-0.3139,0.1028l-0.2038,0.1243l-0.0781,0.1293
		v0.1297l-1.5329,0.3884l-0.0603,0.8851v0.4614v1.4547l0.1613,0.0407l0.0374,0.0905l0.2943,0.1864v38.8406l-0.3157,0.0302
		l-0.1384,0.0302v0.9297l-0.2285,0.2979l-1.0362,0.016l-2.1305,0.0407l-1.6005,0.0585l-0.9719,0.0676l-0.2983,0.0708l-0.007,1.4584
		l0.3724,0.053l0.44,0.0214l-0.0498,12.4111l-0.4432,0.0498l-0.376,0.1224l-0.4527,0.5214h-3.5817l-0.1595,0.2184l-2.0934,0.0036
		l-0.4044,0.4167h-0.016l-0.3869,0.4029h-3.3102l-1.0732-80.7295l-7.8856-0.7804v-0.0534l-0.2805,0.0233l-0.2943-0.0265v0.0531
		l-0.4596,0.0407l-0.1453-12.2956l-0.9439,1.3497l0.1279,11.0276l-7.1513,0.6031l-0.0087-0.573l-0.4349,0.6104l-0.1312,0.0105
		l0.0018,0.1722l-1.0732,1.5132l0.8142,80.752h-3.1827l-0.0054-0.8905l-1.215,0.0338l0.0087,0.8567h-11.5311l-0.1243-16.9632
		l0.1755-0.2431l-0.0795-10.9138h-0.8l-0.8535-6.1859l0.0018-0.0036l-1.8627-12.5495l-0.0091-1.2916l0.3124,0.0302l-0.3139-0.4436
		l-0.0018-0.1668l-0.1279-0.0105l-0.1577-0.2234l-0.2111-31.8652l0.117,0.0196l-0.1207-0.4029l-0.0018-0.2005l-0.0621-0.0069
		l-0.0461-0.1599l-0.2147-4.85h-1.2364l-0.0887-0.2892l-0.2202-2.5865l-4.208-0.7648l-3.5144-12.1608h-1.5274l-0.8763-1.187
		l0.0054-0.2536l-0.174,0.0302l-0.3884-0.5254l-0.0142,0.6035l-1.4067,0.2605l-1.9373-0.4167l0.1312-1.8239l-0.5693-0.0814
		l-0.1421,0.699l-0.1686,2.136l-0.0621,0.3175l-1.183,16.0389h-1.4904l0.0054,0.291l-0.0781,5.936l-0.0443,0.1737l0.085,26.1901l0,0
		v0.0781l-3.2924-17.2099l-0.1348-0.0178l-0.0018-0.0338h-0.181l0.0015-0.0443l-0.1896,0.0251l-0.2093-0.0287l0.0036,0.048h-0.1827
		l-0.0018,0.0338l-0.1402,0.0178l-0.0374,0.2056l-3.2728,17.9372l-0.1083,0.0196l-0.0251,0.1224h-0.2856l0.0073,0.2856
		l-0.0215,1.3181l-0.259,1.4246h-0.3706l0.0055,0.2838l-0.0269,1.8984v0.0302l-0.2093,1.1564l0.2111-0.3492l0.0233,14.3803
		l-0.0251,0.0585h0.0251v0.0036l-0.0443,0.1381l0.053,32.0621h-2.5651v-9.7854h-0.0214l0.0214-4.9975h-0.5254v-0.5217
		l-7.7878-0.0033l-8.4374-3.126l-0.1791,0.4916l-0.0552-0.5181l-5.2543,0.5323l0.0512,0.5214l-0.1809-0.4912l-7.0554,2.5865
		l-7.4758-0.0036l0.0037-8.1126h-0.5236l0.0054-0.525l-1.5648-0.0036l0.0073-32.3034h-0.5217l0.0054-0.5217l-2.7638-0.0443
		l-5.3913-3.9737v-1.579l4.5876,0.085l0.0069-0.5232h0.5254v-2.4909H763.41l0.0142-0.525l-4.6087-0.0886v-0.5533h-1.0486v3.5638
		v2.1182l-4.9709,3.7804l-3.408-0.0549l-0.0106,0.525h-0.5214l0.037,32.582l-1.7367-0.0105v0.5232l-0.525,0.0036l0.0105,8.125
		l-40.6005-0.0069v0.5196h-0.5236l0.0251,5.0208h-0.0251v9.7854h-1.7243l-0.0585-16.8603l-0.44,0.0054l0.0392-0.44l-0.6263-0.0549
		l-0.0516-15.75h-0.44l0.4207-0.1279l-1.1532-3.8l-0.4222,0.1279l0.3459-0.2714l-1.6197-2.0368l-0.3441,0.275l0.2162-0.3829
		l-3.3458-1.9056l-0.2162,0.3833l0.0709-0.4345l-0.699-0.1155l-0.0727,0.4349v-0.4418h-0.3568h-0.0015l-0.0127-3.667l-0.7096,0.0036
		v-0.1065l-0.1152,0.1065h-0.6296l0.0106,3.6739l-0.0498,0.0036l-0.9454,0.1119l0.0549,0.44l-0.2536-0.3655l-2.7747,1.9158
		l0.2518,0.3619l-0.2783-0.3423l-0.7081,0.5766l0.275,0.3422l-0.36-0.2572l-1.4936,2.1287l0.36,0.254l-0.4258-0.1188l-1.0359,3.7324
		l0.4255,0.1188h-0.4415l0.0033,0.8178l-0.3422,0.2362l0.2536-0.3622l-1.4155-0.9933l-0.2536,0.3601l0.0389-0.4382l-0.1791-0.0193
		l-0.0392,0.4396v-0.4396h-0.2092l-0.0037-2.7198l-0.1224-0.0069v-0.0818l-0.3779,0.0549l-0.3779-0.0265l0.0037,2.7801h-0.1384
		v0.3724l-0.0334-0.3673l-0.2271,0.0142l0.0316,0.4382l-0.266-0.3495l-0.1329,0.1014l0.2696,0.3495l-0.2802-0.3426l-1.3912,1.1354
		l0.2787,0.3426l-0.371-0.238l-0.6968,1.086l0.3706,0.2376l-0.4309-0.0887l-0.332,1.5895l0.4312,0.0887h-0.44l0.0088,7.0303h-0.5995
		v0.44l-0.0124-10.0531l-0.4436,0.0033l-0.0087-5.3804l0.424-0.1224l-1.9321-6.6404l-0.424,0.1243l0.392-0.1987l-1.4155-2.8136
		l-0.3957,0.2024l0.3281-0.2979l-2.7177-2.9665l-0.3248,0.2983l0.2572-0.3586l-3.0333-2.1836l-0.2573,0.3564l0.202-0.3938
		l-0.5569-0.2874l-0.202,0.392l0.1773-0.4026l-4.6818-2.0615v-2.2475h-0.0229v-0.0269l0.0229-0.0036l-0.0229-0.3459l-0.1794,0.0109
		v-0.0817h-0.1791l0.2024-0.2376l-1.1729-0.9759l-0.4875-4.4474l-0.0037-0.0407l-0.0374,0.0033l-0.0033-0.0284l-0.2271,0.0251
		l-0.0036-0.0658l-0.0941,0.0073v-0.0073h-0.0069l0.1649-0.2645l-0.041-0.0229l-0.1791,0.291h-0.0087v-0.0868l0.0709-0.2558
		l-0.0709-0.0193v-0.6176l0.0905-0.0105l-0.0036-0.0498l-0.0869,0.0127v-0.4098h0.0974v-1.5968h0.3636v-0.4436h0.44v-0.2641h-0.3016
		v-0.0105l0.2997-0.0269l-0.0069-0.0956l-0.4349,0.0334v-0.0745h-0.0033l-0.0036-0.3651h-0.3531v-0.4349h-0.3034v-0.016
		l0.3016-0.0283l-0.0087-0.0974l-0.4399,0.0407v-0.4382h-0.3231l0.0055,0.4382h-0.4437v0.5428h-0.4113l0.0015,0.44h-0.44v0.2714
		h0.44l-0.4363,0.0567l0.0123,0.0959l0.4258-0.0549v0.0476l0,0v0.0269h0.0123l0.0018,0.3637h0.3938v1.5928v0.4436h0.0854v0.0407
		l-0.0836,0.0109l0.0054,0.048l0.0782-0.0073v0.5323l-0.0941,0.0302l0.0941,0.323v0.0124l-0.0375-0.0036l-0.1969-0.2645
		l-0.0302,0.0214l0.1773,0.2431h-0.0142v0.0073l-0.0905-0.0073l-0.0032,0.0658l-0.213-0.0214l-0.0018,0.0247l-0.0338-0.0033
		l-0.5039,4.4918l-1.1957,0.9864l0.197,0.2394h-0.2039v0.0992h-0.1526l-0.0036,2.569l-4.8929,2.1163l0.1758,0.4026l-0.2325-0.3724
		l-0.4665,0.2874l0.2322,0.376l-0.2554-0.3582l-3.0813,2.1963l0.2536,0.3601l-0.3212-0.3016l-2.7583,2.9749l0.3226,0.2965
		l-0.3939-0.1969l-1.437,2.8099l0.392,0.2006l-0.424-0.1261l-1.9619,6.6277l0.4222,0.1224l-0.0087,5.0473l-0.3248,0.2093
		l0.275-0.3423l-1.4104-1.1321l-0.2732,0.3462l0.2006-0.3906l-0.1933-0.101l-0.2006,0.3902l0.0302-0.4382l-0.1403-0.0069
		l0.0055-2.7216l-0.3568-0.0229v-0.0658l-0.234,0.0552l-0.4399-0.0269l-0.0054,2.7729h-0.3121v0.44l-0.0461-0.44l-0.1686,0.0196
		l0.0425,0.4382l-0.2449-0.3637l-1.4758,0.9933l0.2449,0.3637l-0.3568-0.2554l-0.7539,1.0416l0.355,0.2572l-0.4313-0.0977
		l-0.3655,1.6001l0.4294,0.0977h-0.4418l-0.016,7.4721h-0.0425l0.0247-11.146h-0.44l0.424-0.1192l-1.0554-3.7095l-0.4222,0.1192
		l0.3564-0.2572l-1.522-2.1131l-0.3564,0.2554l0.2482-0.36l-3.2449-2.2334l-0.2482,0.3651l0.2217-0.3829l-0.3975-0.2271
		l-0.2198,0.3797l0.048-0.44l-0.6812-0.0745l-0.048-0.0036l0.0123-3.6848l-0.8178,0.0036l-0.1544-0.1028v0.1028h-0.4665
		l-0.0124,3.6438h-0.0018h-0.6565v0.4436l-0.0778-0.4363l-0.6406,0.1188l0.0818,0.4364l-0.2166-0.3829l-3.3956,1.898l0.2147,0.3869
		l-0.3408-0.2805l-1.6426,2.0295l0.3404,0.275l-0.4203-0.1297l-1.1692,3.7771l0.4208,0.1293h-0.4418l-0.0585,15.6312l-0.6921,0.048
		l0.0302,0.44h-0.4414l-0.0621,16.8814h-5.5015c-0.1206-10.2947-0.6049-20.6443-0.6296-31.0543
		c0.085-0.1668,0.2696-0.2343,0.5054-0.2521c0-0.335,0-0.6703,0-1.0057c0.6264-0.2075,1.3502-0.3266,1.1303-1.3839
		c0.2714-0.6474-0.6387-0.1152-0.5039-0.6278c0-0.8429,0-1.68,0-2.5175c-0.1686-0.5501,0.4879-0.2678,0.3779-0.7539
		c-0.117-0.2165-0.4629-0.206-0.3779-0.63c0.0992-0.7699-0.1631-1.1797-0.1224-1.8911c1.0005-0.8,2.2159-1.3872,3.1453-2.2617
		c0.1937-0.1828,0.1119-0.6442,0.1243-1.006c0.3408-0.17,0.6456-0.6278,1.006-1.0075c0.2129-0.2202,1.1655-0.7931,0.6296-0.8781
		c-0.6104,0.1595-1.1354-0.2006-1.7599-0.2536c-1.0641-0.0923-2.1909,0.0708-3.3989,0c0.2943-0.7557-0.5944-0.3266-0.7557-0.6282
		c0.0549-1.6498-0.0461-3.1416-0.1243-4.6567c0.2928-0.3797,0.7896-0.5537,1.0075-1.0079c0.4527-0.2609,0.9865-0.4363,0.88-1.2578
		c-0.9385-0.4204-2.0081-0.2747-3.0211-0.376c-1.0522-0.1083-2.0775-0.2838-3.142-0.3797
		c-2.2406-0.2002-4.3976-0.5145-6.4202-0.6296c-3.5301-0.2006-7.2752,0-10.9473,0c-3.6423,0-7.325,0-10.944,0
		c0.4255-0.6616,0.5159-1.6622,0.6278-2.6417c0.0214-0.5214-0.3865-0.6209-0.3779-1.1317c0.2006-0.2609,0.0887-0.8338,0.2518-1.1318
		c-0.17-0.4578-0.4327-0.8251-0.5018-1.3839c0.1984-0.3866,0.4327-0.7397,0.7539-1.0075c-0.206-0.4294-0.1457-1.0842,0.1243-1.3821
		c-0.2467-0.6245,0.0955-0.7503,0.2554-1.2578c-0.4117,0.2093-0.662,0.0374-0.8837-0.2518c-1.123,0.218-1.531,1.1532-2.0135,2.0135
		c-0.0407,0.7539-0.1453,1.4475-0.376,2.0117c-0.7078-0.0374-1.1975,0.1421-1.6357,0.376c-0.016,0.0374-0.0338,0.0708-0.0498,0.1046
		l-2.2813-1.0787c-0.0105-0.0123-0.0283-0.0193-0.0585-0.0302h-0.0054l-0.266-0.1312c-0.1224-0.1224-0.1562-0.3299-0.1064-0.6245
		c0.149-0.1933,0.3815-0.7361,0-0.7557c0.218-0.9188-0.1297-1.3588,0-2.0135c-0.4203,0.2202-0.5606-0.0621-1.1335,0
		c-0.3477,0.6602-0.4294,1.5826-0.7543,2.2675c-0.0654-1.0751,0.0872-2.3899,0-3.5253c-0.0795-1.0199-0.1559-2.2653-1.1299-2.3896
		c-0.5021,0.2129,0,1.4264-0.885,1.2578c-0.7365-0.6173,0.4272-1.3269,0-2.0117c-0.4099-0.355-1.118,0.1439-1.2579,0
		c-0.2466-0.8,0.0974-1.3519-0.1242-2.0135c0.5675-0.1453,0.9933-0.4327,1.2578-0.8836c0.2518-1.3799-0.747-1.5165-1.006-2.3878
		c0.2554-0.2056,0.6583-0.2641,0.8818-0.5039c-0.243-0.3601,0.2659-0.3263,0.376-0.5018c0.2964-0.4828,0.206-1.123,0.5039-1.6375
		c0-0.557-0.4418,0.2056-0.6314,0.2536c-0.3107,0.1864-0.6158,0.3866-1.0043,0.5021c-0.3495,0.2874,0.2911,0.7859-0.3778,0.7557
		c-0.2823-0.1722,0.0425-1.3661-0.5021-0.8818c-0.6263,0.3016,0.4167,0.8375-0.2518,1.0079
		c-0.3459-0.1828-0.0676-0.6068-0.504-0.8818c-0.7822-0.101-1.1514-0.6104-1.7635-0.8818c0.1192,0.6405,0.4367,1.0751,0.63,1.6375
		c0.3139,0.1453,0.4203,0.4985,0.8799,0.5021c-0.1333,0.6369,0.4843,0.525,0.7576,0.7557
		c-0.3336,0.6369-1.0184,1.1496-0.8836,2.0135c0.1243,0.7768,0.7201,0.901,1.3857,1.2578c-0.174,0.3459,0.1417,1.946,0,2.2617
		c-0.332,0.1315-0.424,0.5003-0.756,0.63c-0.1736-0.5464-0.6493-0.0109-1.0075,0c-0.4167,1.1565-0.1188,2.3965,0,3.7767
		c0.0817,0.9119,0.4665,1.9463-0.6263,2.136c0.2042-0.6474,0.3568-1.2825,0-1.8857c-0.6333-0.254-0.626,0.1969-1.1336,0
		c0.2289,0.4204-0.1471,0.6776-0.1257,1.0075c0.0051,0.0639,0.1508,0.1526,0.1257,0.376c-0.0566,0.4985-0.4131,1.0202-0.2518,1.7654
		c-0.0977,0.0247-0.1472,0.1028-0.126,0.2481c0.0603,0.6068-0.7663,0.3212-0.6279,1.006c-0.307,0.4578,0.032,1.6215-0.126,1.8857
		c-0.1472-0.1046-0.3441-0.1631-0.5163-0.2449l-0.2572-0.1897c-0.085-0.101-0.1294-0.2394-0.1083-0.4436
		c-0.2234-0.3655-0.0461-1.1281-0.376-1.3835c-0.3706-0.3887-1.1939-0.3212-1.7618-0.5039c-0.7484-1.224-0.6918-3.2517-2.2653-3.651
		c-0.2376,0.2271-0.5072,0.4171-1.0057,0.3797c0.3085,0.4701,0.165,0.7009,0.1239,1.3857c0.3354,0.4007,0.1758,0.8106,0.1261,1.3799
		c0.1293,0.339,0.6758,0.2503,0.8818,0.5058c-0.0443,0.5853-0.5163,0.7415-0.5057,1.3821c0.2271,0.3637,0.1773,1.0006,0.3796,1.3835
		c-0.7219,0.4614-0.44,1.3803-0.3796,2.2675c0.0338,0.4414,0.1028,0.8992,0,1.1299c-4.1034,0-8.2936,0-12.4554,0
		c-4.2167,0-8.4302-0.2271-12.4572,0c-1.9976,0.1152-4.43,0.573-6.1649,0.6296c-0.5908,0.0214-0.9545,0.0959-1.3821,0.1261
		c-1.1354,0.0817-2.4056,0.2093-3.5231,0.376c-0.5926,0-1.2844-0.1083-1.2596,0.5057c-0.1367,0.351,0.2078,0.4629,0.3778,0.6296
		c0.165,0.1599,0.3372,0.3459,0.5058,0.5021c0.3299,0.3121,0.8781,0.5057,1.0042,1.0093c-0.1882,1.4035-0.1137,3.0694-0.1261,4.6552
		c-0.6263-0.1758-0.8694,0.2129-1.1317,0.25c-1.9304,0.2681-4.2578-0.2162-6.1667,0.1261
		c-0.1261,0.1631,0.1137,0.3531,0.2536,0.5021c0.4879,0.5323,1.1815,0.9632,1.5099,1.5114
		c-0.0621,0.4789,0.0334,0.8037,0.2518,1.0042c0.4026,0.4505,0.9723,0.6918,1.5096,1.0093c0.5519,0.323,1.1107,0.6616,1.632,1.0042
		c0,0.7557,0,1.5114,0,2.2671c0.1243,0.4578-0.61,0.0585-0.3742,0.6278c-0.0211,0.3586,0.424,0.2467,0.2503,0.7557
		c0,0.8375,0,1.6785,0,2.5156c0.0407,0.3354-0.7026-0.1152-0.5021,0.3797c0,0.2946,0,0.5853,0,0.8781
		c0.1969,0.4738,0.9595,0.3833,1.2578,0.7557c0,0.3354,0,0.6707,0,1.0097c0.2376,0.0549,0.7575-0.1722,0.6315,0.2482
		c-0.3121,10.2486-0.7078,20.8627-0.9774,31.1803h-2.2835v-17.9532v-0.9828v-0.1188h-0.0603l-0.3299-0.6634l-0.981-0.1969h-2.1589
		l-0.1954-0.1933l-1.1761-0.2005v-2.3525l-0.197-0.5871l0.197-0.5889v-3.5322l-0.3939-0.7804l-0.392-0.7859l0.1987-11.3771v-1.373
		l-0.3938-0.9792l-0.392-0.3902h-0.7859h-1.5685l-0.1969-1.7672h-6.4715l-0.1951-0.392h-0.3939v-0.3938h-0.5871l-6.2749-0.3902
		v-1.5717l0.1951-1.3697l3.3335,1.3697l0.392-0.7808l-0.1951-0.9828v-2.1552l-0.7859-0.3938l-0.5871-0.5875l-1.3734-2.3558
		l-0.392-0.7822l-0.392-0.5871l-0.392-0.1969l-0.589-0.3957l-0.392,2.3558v8.4338l-3.7255,0.3902l-3.7291,0.5908l-2.1552,1.1761
		l-0.589,0.1936l-0.3906,0.3957l-0.5908,0.1969l-0.3902,0.1933l-0.1969,0.1969l-1.1779,0.392l-0.3902,0.3938l-2.7464,1.5663
		l-0.1969,4.7083l-4.3163-0.1969v-2.1552l1.3748,0.7859l0.3906,0.3902l0.5908-0.1969l0.1969-1.1761v-1.5699l-0.9828-0.9795
		l-0.7844-1.7632l-1.3712-1.3752l-0.3938,0.5893v0.9792v6.4715l-3.7273,0.1969l-2.5509,0.5875l-2.7427,1.5717l-1.373,0.7804
		l-0.5893,0.3938l-0.7859,0.392v8.432h-1.3712l-0.7168,0.4541l-0.2641-0.0585h-4.7083h-0.3902l-0.1969-0.1969l-2.5494-0.1987
		l-0.9348,0.44l-0.2431-0.0443h-4.7065l-0.392,1.5699l-0.3248,1.414l-0.2609-0.0407l-0.3971-1.1797v-1.7636l-0.5857-0.9828
		l-0.1951-2.1556l-0.7859-0.7841l-0.1969-1.9619l-4.3145-0.1969l-1.373,0.5871l-0.3125-0.4683
		c-0.917-1.9016-2.2867-4.034-4.1971-5.9999v-0.0033h-0.0018c-3.5144-3.614-8.8473-6.6582-16.5395-6.6582
		c-0.0247,0-0.0443,0.0036-0.069,0.0036l-0.0603-0.0142l-0.0603,0.0142c-12.5495,0.0639-17.3145,6.4435-20.4812,12.6843
		l-0.0534,0.0516l-0.5871,0.9791l-0.392,0.3938v-0.9828l-0.5889-0.5871l-5.1003,0.1969v1.9619l-0.5871,0.7841l0.0334,0.905
		l-0.0334,0.2714l-0.3938,0.1969v0.5889l-0.3906,0.9792l-0.1969,0.7841l-0.7859-0.5871h-1.3712l-0.5889-0.5889h-1.9605
		l-1.1034,0.6369l-0.2696-0.048h-4.7065l-0.5889-0.3957l-2.7464-0.1933l-1.3872,0.6264l-2.1432-0.0374V189.38l-0.5871-0.5889
		h-0.3938v-0.1969h-0.392v-0.1969h-0.3902v-0.1933h-0.3939l-0.784-0.3902l-0.589-0.5926h-0.3924v-0.1933h-0.3902l-0.1969-0.3938
		l-1.1779-0.5889h-0.674h-0.6972l-0.7859-0.5875l-1.7654-0.1969l-1.9601-0.1933l0.1951-0.9828l0.1951-0.9792l-0.3902-4.7083
		l-0.589-1.1764l-0.3924,1.5685v6.4715l-0.1682,0.0142l-1.2048-0.2075l-1.5681-0.1987v-3.9224l-0.3939-0.3902l-0.5889-0.1969
		l-0.392-0.3902h-0.3906l-0.1969-0.3957l-0.589-0.1969l-1.1761-0.5871l-0.5871-0.392l-0.981-0.5871l-0.7862-0.5893h-0.3902
		l-0.3939-0.3935l-0.7859-0.1936l-0.3902-0.3938l-0.589-0.392l-2.1592-0.3938h-0.7841l-3.138-0.3902l-0.3161,0.0374l-0.6616-0.2343
		l-0.9828-0.1951l-0.1951-8.8277l-0.589-1.5699h-0.392l-0.1951,0.5926l0.1951,10.0001l-2.1574-0.0123l-4.1193,0.2093l-0.5853,0.3902
		l-0.7877,0.3938h-5.8825l-0.392,0.7859l-0.1955,1.1764h-2.1589l-1.373,0.3902l-0.1951,0.3957v0.3902v0.784v1.8842v10.0818
		l-0.9814,1.9565l0.1955,3.9224l-0.3924,1.5717v1.7672l-2.5756,0.186l-1.542,0.2042l0.0018,0.1421h-0.5908v19.5762h-2.4426
		l-2.0048-108.1044h0.2202l0.933-0.0371l0.0054-1.4973l-0.323-0.048l-0.864-0.0229l-0.016-0.8375h0.2732l0.9315-0.048l0.0051-1.4954
		l-0.3212-0.0639l-0.9188-0.0302l-0.0549-3.0247c4.2469-1.4177,7.309-5.4197,7.309-10.1458c0-4.0074-2.2104-7.499-5.4745-9.3298
		l0.2801-0.048l0.0055-1.325l-0.3673-0.2234l-0.5199-0.0552l0.0091-2.0506l0.3546-0.2714l-0.1933,0.8247l0.0196,0.339l0.9774,0.2874
		l0.2645-0.5108l0.3495-1.0645l0.2162-0.9225l0.0571-0.0516l0.0283,0.0073h0.0461l0.0211-0.0036l0.3869-0.4469l-1.5169-0.4473
		l-0.3372,0.7488l0.0055,0.0069l0.0621,0.0196l-0.1882,0.5693l-0.0407,0.0073l-0.5108,0.4098l0.0265-8.5635l0.1613-0.0087
		l1.1692-0.2819l0.0036-1.3181l-0.3939-0.3335l-1.8787-0.2874l-1.1888-0.0676l-0.6383-3.6278l0.0745-2.6435l-0.3034-2.73
		l0.0974-0.0091l0.3902-0.1188l0.0036-0.6315l-0.1417-0.1384l-0.3586-0.0639l-0.0549-17.8486l-0.3052-3.3298l0.0036-1.6746
		l0.2253-0.0265l0.3103-0.1384l0.0018-0.5021l-0.1133-0.1526l-0.424-0.1083l0.0763-36.3003l-0.0712-0.1366L304.6198,0
		l-0.9919,1.1496l-0.1988,36.3857l-0.2321,0.0302l-0.307,0.1348l-0.0018,0.5054l0.1206,0.1493l0.4153,0.1046l-0.0073,1.6302
		l-0.3335,3.307l-0.1882,17.9053l-0.117,0.0105l-0.3848,0.1188l-0.0036,0.6369l0.1508,0.1348l0.3335,0.0585l-0.3175,2.6842
		l0.053,2.645l-0.6758,3.6474l-2.3718,0.1758l-1.118,0.2979l-0.0051,1.3236l0.472,0.3244l0.8691,0.1224l-0.0302,7.2505
		l-0.0549-0.0708l-0.1915-0.6031l0.0956-0.5588l-0.0407-0.1777l-0.2202-0.3016l-0.1559-0.2129l-0.2874,0.3993l-0.3513,0.8073
		l-0.2111,0.7521l0.0512,0.2518l0.6104-0.133l0.206-0.2801l0.1737-0.2645l-0.0265,0.0905l0.1275,0.4313l0.2732,0.2714
		l-0.0051,1.3854l-0.0443,0.0411h0.0443l-0.0018,0.3299l-0.0443,0.3016l0.0425,0.0868l-0.0055,1.357l-0.8974,0.1722l-0.0055,1.3287
		l0.3103,0.1562c-3.3458,1.8079-5.6166,5.347-5.6166,9.4148c0,4.7188,3.0552,8.7125,7.2915,10.1385l-0.0781,3.0105l-0.3495,0.0073
		l-0.901,0.0516l-0.0054,1.5078l0.3706,0.0516l0.8429,0.0265l-0.0214,0.8338l-0.2979,0.0033l-0.8978,0.0411l-0.0069,1.5078
		l0.3724,0.0407l0.7877,0.0145l-2.8227,108.12h-13.9668V221.02v-0.3194l-0.0018-0.5286l-0.0018-0.2714l-0.0018-0.5126v-0.2234
		l-0.0014-0.5076l-0.0091-3.2481l0.1188,0.0036l0.0124-0.048l0.0142-0.101l0.0091-0.1457l0.0069-0.1773l0.0055-0.2024v-0.2111
		l-0.0018-0.2056l-0.0051-0.1846l-0.0054-0.1206l1.6197-0.0073l3.021-0.1079l2.4324-0.1864l1.6622-0.2485l0.8087-0.291
		l-0.0192-3.885l-0.0498-0.2006l-0.6173-0.1453l-0.0018-0.1046h0.016l0.037-0.0178v-0.0105h0.032l0.0356-0.0196l-0.0018-0.2819
		h-0.016v-0.0269l-0.0425-0.0193h-0.0374v-0.0142l-0.0247-0.0109l-0.0073-1.2913l0.0145-0.1155l-0.0018-0.2678h-0.0142
		l-0.0018-0.4026h0.0178l0.0371-0.0109v-0.0069h0.0283l0.0374-0.0123l-0.0018-0.2823h-0.0142v-0.0178l-0.0425-0.0124h-0.0356
		v-0.0105l-0.0265-0.0036l-0.0018-0.2271l0.626-0.0814l-0.0193-3.8748l-0.0479-0.0069l-0.8393-0.0124l-1.5183-0.0073l-2.0546-0.0069
		l-6.8973-0.0073l-0.0178-6.2535c1.1852-0.0407,2.3169-0.2006,3.3531-0.4611c0.1951,0.0087,0.3902,0.016,0.5799,0.016
		c0.9526,0,1.7919-0.1046,2.4946-0.3016c0.3405,0.1115,0.6278,0.186,0.848,0.2234c-0.0018,0.0142-0.0036,0.0302-0.0036,0.0443
		c0,0.2678,0.2166,0.4843,0.4843,0.4843c0.2696,0,0.4861-0.2165,0.4861-0.4843c0-0.2343-0.1617-0.424-0.376-0.4738
		c-0.0251-0.048-0.0589-0.0992-0.105-0.1595c0.3212-0.1224,0.529-0.3016,0.6264-0.5428c0.0392-0.1014,0.0516-0.2078,0.0479-0.3248
		c0.1243-0.1704,0.2253-0.3564,0.2943-0.5533c0.1351-0.3993,0.1457-0.8269,0.0447-1.2775c0.3015-0.3938,0.4665-0.8142,0.4665-1.2542
		c0-0.0854-0.0073-0.1704-0.0196-0.2522c0.0124-0.1115,0.0196-0.2271,0.0196-0.3423c0-0.8037-0.291-1.5663-0.8109-2.2602
		c0.0887-0.234,0.1119-0.4487,0.0676-0.6474c0.0672-0.4309,0.0284-0.8284-0.1312-1.1866c-0.4367-0.9741-1.7087-1.5118-3.582-1.5118
		c-0.6954,0-1.4584,0.0745-2.2584,0.2202c-0.7717-0.149-1.5841-0.2412-2.4266-0.275c0-0.0036,0.0014-0.0036,0.0014-0.0105
		c0-0.2681-0.2162-0.4879-0.4857-0.4879c-0.2663,0-0.4843,0.2198-0.4843,0.4879c0,0,0,0,0,0.0033
		c-1.1303,0.0178-2.2159,0.1526-3.2183,0.3797c-0.3103-0.0229-0.6173-0.0334-0.9171-0.0334c-1.4991,0-2.7107,0.2536-3.5587,0.7219
		c-0.1297-0.0265-0.2413-0.0374-0.3336-0.0374c-0.1809,0-0.2979,0.048-0.3531,0.1493c-0.0461,0.0814-0.0211,0.1969,0.0603,0.335
		c-0.2591,0.2412-0.4487,0.513-0.5712,0.8178c-0.0247,0.0374-0.0498,0.0781-0.0657,0.1192
		c-0.0371,0.0905-0.0512,0.186-0.0512,0.2874c-0.0639,0.3423-0.0443,0.7059,0.0585,1.0856
		c-0.2965,0.4948-0.4756,1.0235-0.5217,1.5717c-0.2111,0.0516-0.367,0.2412-0.367,0.4683c0,0.2271,0.1541,0.4135,0.36,0.4683
		c0.0229,0.5323,0.2838,1.0395,0.7434,1.5009c0.0283,0.0407,0.0585,0.0817,0.0887,0.1224c-0.0941,0.2856-0.149,0.5624-0.1526,0.8266
		c-0.1864,0.3601-0.2376,0.6885-0.1297,0.9635c0.1155,0.2979,0.3957,0.5126,0.8251,0.6511
		c-0.3015,0.3085-0.2485,0.3989-0.2129,0.4611c0.0356,0.0639,0.1064,0.0941,0.2056,0.0941c0.1493,0,0.4189-0.0745,0.7913-0.2165
		c0.5962,0.238,1.3588,0.3655,2.2621,0.3655c0.5693,0,1.1866-0.053,1.8308-0.149c0.9577,0.2147,1.9903,0.3495,3.0653,0.3797
		l0.0178,6.2444l-7.5291,0.0073l-1.7952,0.0069l-1.2222,0.0073l-0.5341,0.0087l0.0055,3.7026l0.2412,0.1083l0.4487,0.0443v0.2449
		l0,0v0.0123h-0.0124l-0.0142,0.0105v0.0073h-0.0091l-0.016,0.0105v0.2769h0.0498v0.0174h0.0018l0.0018,0.2467h-0.0233
		l-0.0087,0.0214l-0.0036,0.0371h-0.0494l-0.0055,0.0109l-0.0036,0.0302l-0.0051,0.0443l-0.0018,0.0531l-0.0018,0.0585
		l-0.0018,0.0603l-0.0018,0.1457l-0.0018,0.1595v0.1631v0.1758l0.0018,0.149l0.0018,0.1224l0.0018,0.0956l0.0036,0.0712
		l0.0051,0.053l0.0055,0.0214l0.0069,0.0036h0.0429l-0.0036,0.0636l0.0425,0.0142l0.0018,0.2503l0,0h-0.0018v0.0142h-0.0124
		l-0.0124,0.0196v0.0142l-0.0109-0.0036l-0.016,0.0196v0.275h0.0498v0.0265h0.0036v0.0814l-0.1188,0.0178l-0.5341,0.1828
		l0.0036,3.7095l0.2431,0.2979l1.066,0.3052l1.87,0.2805l2.5774,0.2376l3.1082,0.1668l0.3477,0.0087l-0.0105,0.0959l-0.0142,0.1969
		l-0.0036,0.2202l0.0054,0.2234l0.0142,0.2165l0.0211,0.1933l0.0284,0.1559l0.0338,0.1119l0.0356,0.0549h0.117l0.0073,3.3088
		l0.0018,0.6547v0.0636l0.0014,0.7081v0.0781l0.0018,0.759v0.0745H263.455l0.6173-66.6573c0,0-14.3323-0.3317-22.7309,4.5502
		c0,9.2713,0.2718,44.3777,0.4135,62.1071h-3.021l0.1969-16.9933l-1.2313-0.0338l0.1722-15.7638l-2.3347-0.0196l0.2111-21.6627
		l-3.445-1.1568l0.037-4.6037l-0.4222-0.186l0.0247-3.3495l-1.2684-0.6474l0.0251-3.4363l-9.1612-5.3576l0.032-11.251
		l-0.4988-0.1083l-0.2729,0.0105l-0.4258,0.1649l-0.0712,10.9742l-9.1467,5.6239l0.0051,3.4043l-1.256,0.674l0.0073,3.3157
		l-0.4523,0.2096l0.0174,6.7945l-0.2431,0.0745l0.0748,26.0444l-2.8971,0.0338l0.0603,14.0115l-5.654-0.0302l-0.0796,0.0265
		l-0.0036-0.0123l-0.392,0.1348l0.2783-19.2216v-0.0338l-0.4665-1.9249l0.0018-0.2271h-0.0585l-0.4596-0.0036l-1.082-0.0178
		l0.1453-10.621l-0.0105-0.0567l0.0087-0.4436l-0.0142-0.259h-0.0123l-0.0054-0.0905h-0.0142l-0.0051-0.085h-0.0109l-0.0051-0.0854
		h-0.0109l-0.0069-0.0905h-0.0073v-0.085h-0.0142l-0.0033-0.0995h-0.0214l-0.0073-0.0905h-0.0033l-0.0018-0.0887h-0.0233
		l-0.0051-0.0886h-0.0109l-0.0051-0.0974h-0.0142l-0.0054-0.089h-0.0105l-0.0073-0.0938h-0.0051l-0.0054-0.0923h-0.0178
		l-0.0069-0.1014h-0.0145l-0.0069-0.0956h-0.0036l-0.0036-0.0941h-0.0193l-0.0091-0.0959h-0.0105l-0.0073-0.101h-0.0105
		l-0.0087-0.101h-0.0073l-0.0036-0.0995h-0.0211l-0.0073-0.0941h-0.0105l-0.0087-0.1046h-0.0036l-0.0018-0.1028h-0.0214
		l-0.0069-0.1046h-0.0124l-0.0091-0.101h-0.0087l-0.0073-0.1028h-0.0123l-0.0087-0.1083h-0.0123l-0.0073-0.1046h-0.0142
		l-0.0073-0.1046h-0.0124l-0.0069-0.1119h-0.0142l-0.0073-0.1028h-0.0124l-0.0073-0.1119h-0.0142l-0.0087-0.1119h-0.0124
		l-0.0073-0.1115h-0.0142l-0.0087-0.1119h-0.0123l-0.0091-0.1115h-0.0123l-0.0073-0.1083l-0.0142-0.0036l-0.0105-0.1119
		l-0.0123-0.0033l-0.0073-0.1119h-0.0142l-0.0087-0.1224h-0.0018l0.0018-0.1119h-0.1613l-0.3691-0.0033h-0.1722v-0.0676
		l-0.1649-0.0036l0.0018-0.234l-0.3423,0.2271l-0.1791-0.0036l-0.0799-0.0036l0.0036-0.2394l-0.3426,0.2343l-0.1791-0.0073h-0.0818
		l0.0036-0.2412l-0.3423,0.2343l-0.1791-0.0036l-0.0799-0.0036l0.0036-0.2467l-0.3444,0.2398l-0.1773-0.0036h-0.0832l0.0033-0.2536
		l-0.3441,0.2445l-0.1755-0.0033l-0.1028-0.0036l0.0014-0.2572l-0.3441,0.25h-0.0905l-0.1668-0.0033l0.0036-0.2645l-0.3477,0.2536
		l-0.174-0.0051h-0.0832l0.0036-0.2681l-0.339,0.254l-0.0178-0.1421h-0.0247l-0.016-0.1064h-0.0214l-0.016-0.0745l-0.0033-0.0302
		h-0.0018l-0.4171-1.9623l-0.0018,0.0781l-0.0371-0.1809l-0.0018,0.048l-0.0374-0.1791v0.0516l-0.0407-0.1969l-0.0018,0.0868
		l-0.0407-0.2024v0.0567l-0.0407-0.202l-0.0036,0.186l-0.0854-0.4131v0.202l-0.1275-0.6511l-0.0036,0.2859l-0.1311-0.678
		l-0.0036,0.3797l-0.0443-0.2006v0.0571l-0.0461-0.2093v0.0814l-0.0443-0.2075l-0.0018,0.1261l-0.0923-0.4349v0.0995l-0.048-0.2238
		v0.0676l-0.0461-0.2234l-0.0018,0.0708l-0.0458-0.2271l-0.0036,0.3248l-0.048-0.206v0.0534l-0.048-0.2093l-0.0018,0.0814
		l-0.0461-0.2147l-0.016,1.3465l-0.0461-0.1224l-0.0069,0.6921h-0.0763h-0.0836l0.0018-0.1421l-0.1686-0.0036l0.0055-0.3226
		l-0.291,0.2518l0,0l-0.0727,0.0639l-0.1581-0.0036H189.9l0.0015-0.3354l-0.2888,0.2609v-0.0073l-0.0817,0.0712l-0.0727-0.0036
		h-0.0425h-0.032h-0.0941l0.0036-0.3423l-0.2928,0.2714v-0.0196l-0.0868,0.0781h-0.0658l-0.1686-0.0036l0.0036-0.3459
		l-0.2928,0.2714v-0.0178l-0.0923,0.0854l-0.0992-0.0036l-0.1293-0.0036l0.0033-0.3582l-0.2943,0.2838v-0.0265l-0.0995,0.0887
		l-0.1257-0.0036v0.0036l-0.0941-0.0036l0.0036-0.36l-0.3001,0.2856l0.0036-0.032l-0.1046,0.0959l-0.1206-0.0036v0.0036
		l-0.0923-0.0036l0.0018-0.3691l-0.2979,0.2946v-0.0443l-0.1083,0.1115h-0.0392l-0.0211-0.0033h-0.0534l-0.0937-0.0036
		l0.0033-0.3724l-0.3016,0.2979v-0.0498l-0.117,0.1155l-0.0763-0.0036l-0.1206-0.0036l0.0036-0.3833l-0.3016,0.3052v-0.0549
		l-0.1206,0.1257h-0.0269h-0.0123l-0.0603-0.0033h-0.0941l0.0018-0.3938l-0.3016,0.3121v-0.0639l-0.1257,0.1348h-0.0196l0,0
		l-0.1668-0.0033l0.0036-0.4098l-0.3052,0.3263l0.0018-0.0745l-0.1366,0.1453l-0.0676-0.0033h-0.1083l0.0018-0.4171l-0.3052,0.3317
		v-0.0781l-0.1417,0.1526h-0.0727l-0.0959-0.0033l0.0036-0.4295l-0.307,0.3423v-0.0887l-0.149,0.1631h-0.0658l-0.0941-0.0033
		l0.0018-0.4349l-0.307,0.3462l0.0018-0.0977l-0.1577,0.1755h-0.0585h-0.0959l0.0018-0.4505l-0.3088,0.3586l0.0018-0.1083
		l-0.1613,0.186l-0.149-0.0033l0.0033-0.4578l-0.3368,0.3975l-0.259-0.4879l-0.0018,0.0603l-0.0923-0.1686l-0.0036,0.7415h-0.202
		l-0.2416-0.0036h-0.2572l-0.0015,0.2609v0.1773l-0.0781-0.0036l-0.0036,0.2645l-0.0054,0.7822l-0.0142,2.7162l-0.202,36.0768
		l-4.1408-0.0178h-0.2856l-0.3052-0.1152v0.1115l-0.0018,0.4382l-0.0461,12.9557h-3.9293l-0.0694-45.9403v-0.2518l-0.2554-0.0091
		l-1.1212-0.0211l-1.4068-0.0265l-0.0051-1.7458l-0.254-0.0036l-1.8697-0.0407l-0.0087-2.4749v-0.2536l-0.254-0.0073l-4.0837-0.085
		l-0.0265-4.685l-0.2522-0.0073l-0.3226-0.0087l-0.9722-0.0214l-0.0374-6.0886l-0.0087-0.1046l-0.0105-0.0142l-0.0091-0.0781
		l-0.0302-0.0124l-0.0033-0.0214l-0.041-0.0069l-0.0051-0.016l-0.0338-0.0073l-0.016-0.0142v-0.0033h-0.0036l-0.259-0.2983
		l-0.0018-0.1046l-0.0461,0.0516l-0.0618-0.0708v0.1381l-0.238,0.2645h-0.016v0.0105h-0.0512v0.016l-0.0429,0.0073v0.0142
		l-0.0334,0.0036v0.0334l-0.0196,0.0073l0.0018,0.0905l-0.0073,0.0069l0.0392,6.174l-1.2702-0.0302l-0.2681-0.0073l0.0018,0.2678
		l0.032,4.4263l-4.0874-0.0905l-0.2659-0.0036l0.0018,0.2645l0.0211,2.4782l-1.3853-0.0302l-0.7557-0.0142l0.0033,0.2678
		l0.016,1.4885L149.67,174.45l0.0018,0.2678l0.3194,30.2811l-4.1938-0.0251l-1.0751-0.0036v-0.1046l-0.2979,0.1014l-24.3488-0.149
		v0.0033H120.04l-0.8302,0.1119l-0.2482-0.0036v0.0585l-1.8559-0.0105l0,0h-0.0356l-0.3953,0.0516h-0.2503l0.0054,0.1221
		l-0.6423-0.0033l0,0h-0.0338l-0.4007,0.0531h-0.2467l0.0073,0.2681l0.0018,0.0814l0.0352,1.3588h-0.1046v-0.0229l-0.1312,0.0229
		l-0.9029-0.0051l0,0h-0.0447l-1.2949,0.2129l-6.7324,0.0745l-0.2769-0.0233l0.0087,0.2874l0.0214,0.7557l0.1987,6.5605h-0.0923
		l-0.0018-0.1562l-0.0923-0.2783h-0.477v0.234l-0.0872,0.2006h-0.2144v-0.1562l-0.0923-0.2783h-0.4349v0.234h-0.0443l-0.0868,0.2006
		h-0.1722l-0.0014-0.1562l-0.0905-0.2783h-0.4527v0.3016l-0.0549,0.133h-0.25v-0.1562l-0.089-0.2783h-0.4149l0.0018,0.2303h-0.0567
		l-0.0836,0.2042h-0.1686v-0.1562l-0.085-0.2783h-0.3531v0.2303h-0.323l-0.0727-0.2303h-0.4789l0.0018,0.2303h-0.3248
		l-0.0709-0.2303h-0.5871v0.2303H99.816l-0.0018,0.0036l-0.069-0.234h-0.4756l0.0018,0.2303h-0.3317l-0.0658-0.2303h-0.25
		l-0.0036-1.0431l-0.0814-0.0109h-0.5857l0.0018,0.481l-0.6721-0.9421v-0.376l-0.0781-0.0073h-0.1065v-0.048l-0.0745-0.2765
		l-0.1508-0.1155l-0.0018-0.5501h-0.2111l-0.0374-0.0033v0.0033h-0.1755l0.0036,0.9901h-0.0977v0.0338h-0.1544l-0.0018-1.7083
		h-0.0352l-0.0036-1.203h-0.6456v-0.3194h-0.1508v0.6333l-0.0447,0.0923v-0.4062h-0.7521l0.0018,1.1993H94.533l0.0036,1.7083H94.118
		l-0.0018-1.0202h-0.2111l-0.032-0.0033v0.0033H93.694l0.0018,1.0202h-0.0338l0.0036,1.8682h-0.2256l0.0018,0.4345h-0.0868v-0.2042
		h-0.1933l-0.0639-0.2303h-0.5766l0.0018,0.4345h-0.0374l-0.0014-0.2042h-0.2431l-0.0621-0.2303h-0.4916v0.4345h-0.0621v-0.2042
		h-0.2216l-0.0603-0.2303h-0.4807l0.0018,0.4345h-0.0621v-0.2042h-0.2253l-0.057-0.2303H90.075v0.4345h-0.1188v-0.2042h-0.1686
		l-0.0552-0.2303h-0.4701l0.0018,0.4345h-0.1243l-0.0015-0.2042H88.973l-0.0512-0.2303H88.48v0.4345h-0.149v-0.2042h-0.1439
		l-0.0494-0.234h-0.4331v0.4382H87.531l-0.0018-0.2042h-0.1188l-0.048-0.234h-0.4276v0.4382h-0.1261v-0.2042h-0.1668l-0.0494-0.234
		h-0.3477v0.4382h-0.2856v-0.2075h-0.0109l-0.0461-0.2307h-0.4734v0.2307h-0.0639l-0.0392,0.2075h-0.1915v-0.1933l-0.048-0.2449
		h-0.5675v0.2307h-0.0054l-0.0389,0.2038h-0.254v-0.1897l-0.0443-0.2449h-0.477v0.2307h-0.0534l-0.0352,0.2038h-0.2078v-0.1897
		l-0.0458-0.2449h-0.4861v0.2307h-0.0338l-0.0356,0.2038h-0.2322v-0.1897l-0.0411-0.2449h-0.4363v0.2307h-0.1065l-0.032,0.2038
		H81.76v-0.1897l-0.0407-0.2449h-0.4418v0.2307h-0.1137l-0.032,0.2038h-0.1809v-0.1897l-0.0371-0.2449h-0.4185v0.2307H80.424
		v-0.8197h-0.8923l-0.1152-1.9267l-0.0887-1.0129v-0.9933v-0.4171h0.0636l0.0018-0.0036h0.0269l0.0708-0.1526l0.0211-0.0371
		l0.1777-0.1933l0.1417-0.1119l0.073-0.1791l-0.073-0.1791V208.3h-0.0193h0.0142v-1.6549l0.2303-0.4436l-1.3163-0.9119
		l-0.0069-6.074l-0.5039-0.0516l-0.6707-0.0178l-0.8727-3.0443h0.1101v-1.728h-0.6849l0.0018,1.728h0.266l-0.8709,3.0515
		l-0.4614,0.0105l-0.6369,0.0516l-0.0585,0.0636l0.0036,6.0337l0.0498,0.0036l-1.3003,0.9454l0.2216,0.4313l0.0018,1.6179h-0.0374
		v0.2358l-0.0672,0.174l0.0672,0.1755l0.1366,0.1119l0.1686,0.1897l0.0443,0.0745l0.0516,0.1155h0.0214h0.0425l0.0018,0.0033h0.0211
		h0.0142l0.0018,0.0036h0.016v1.3766l-0.053,0.9635l-0.1333,2.1182H59.1995v0.1827h-0.186l-0.1421-2.3046l-0.0338-0.9635v-1.373
		h0.0727v-0.0036h0.0036h0.0124l0.0018-0.0033h0.0265h0.0127l0.0868-0.19l0.0105-0.016l0.1526-0.1737l0.1348-0.1119l0.0676-0.1755
		l-0.0676-0.174l0.0018-0.2358H59.315v-1.6179l0.2198-0.4276l-1.1459-0.8462l0.0018-5.205l-0.0745-0.1046l-1.0097-0.0447
		l-1.034-3.9595h0.2481l0.0018-1.728h-0.683v1.728h0.1188l-1.034,3.9526h-0.0055l-1.0555,0.0549l-0.0018,5.2511l-1.1939,0.8411
		l0.2289,0.4469l-0.0018,1.648h0.0087h-0.0178v0.238l-0.0709,0.1791l0.0709,0.1791l0.1402,0.1119l0.1471,0.1631l0.0196,0.0302
		l0.0886,0.1897h0.0374v0.0036h0.069v0.4171v0.9897l-0.069,1.0111l-0.1137,1.9249h-0.7452l-0.0015,0.8197h-0.158h-0.0567v-0.2307
		h-0.4171l-0.0302,0.2449v0.19h-0.048l-0.0247-0.2042h-0.2609v-0.2307h-0.44l-0.032,0.2449v0.19h-0.0618l-0.0251-0.2042h-0.2536
		l0.0018-0.2307H50.216l-0.0302,0.2449v0.19h-0.1032l-0.0283-0.2042H49.877v-0.2307H49.389l-0.0352,0.2449v0.19h-0.0781
		l-0.0283-0.2042h-0.2006l0.0018-0.2307h-0.4774l-0.0352,0.2449l-0.0018,0.19h-0.1206l-0.032-0.2042h-0.1508v-0.2307h-0.5661
		l-0.0389,0.2449v0.19h-0.0621l-0.032-0.2042h-0.2093v-0.2307h-0.472l-0.0407,0.2449v0.19h-0.19l-0.0338-0.2042h-0.0763v-0.2307
		H46.162l-0.0389,0.2307H46.093v0.2042h-0.2714v-0.4349h-0.424l-0.0443,0.2449v0.19h-0.2947l-0.0033-0.0109l0.0015-0.424h-0.4345
		l-0.0425,0.2307h-0.0036v0.2042h-0.2925v-0.4349h-0.44l-0.0443,0.2307h-0.0302v0.2042H43.501v-0.4349h-0.4665l-0.0461,0.2307
		h-0.0302v0.2042h-0.266v-0.4349h-0.4418l-0.0498,0.2307h-0.0868v0.2042h-0.206v-0.4349H41.429l-0.0512,0.2307H41.296
		l-0.0018,0.2042h-0.2075l0.0018-0.4349H40.597l-0.053,0.2307h-0.1046v0.2042h-0.1828v-0.4349h-0.5748l-0.0552,0.2307h-0.053
		l-0.0018,0.2042H39.341v-0.4349h-0.2641l0.0015-1.8642h-0.0302l0.0018-1.0202H38.869l0,0h-0.0283h-0.2129v1.0202h-0.4204
		l0.0036-1.7051h-0.032l0.0036-1.1957h-0.747v0.4062l0,0l0.392,0.7931h-0.0302l-0.44-0.8854h0.0087h0.0214l0.0018-0.6333h-0.0214
		h-0.1275l-0.0018,0.3194h-0.6424l-0.0033,1.1993h-0.0287l-0.0033,1.6713h-0.0941v-0.0498l-0.0639-0.2787l-0.0941-0.0512v-0.6104
		H36.13v-0.0036l-0.0319,0.0036H35.887v0.7699l-0.0444,0.1704v0.0498h-0.1118l-0.0692,0.0069v0.2413h-0.0674v0.2234l-0.6102,0.8607
		l0.0017-0.4916h-0.5819l-0.0727,0.0105l-0.0018,1.0431h-0.3956l-0.0603,0.2256h-0.3193v0.2056h-0.0159l0,0v-0.4313l-0.4719-0.0051
		l-0.0621,0.2307h-0.3317v-0.2307h-0.5872l-0.0621,0.2307h-0.3246v0.2056h-0.0053v-0.0036l0.0018-0.4327h-0.4772l-0.0621,0.2307
		h-0.33l0.0018-0.2307h-0.3513l-0.078,0.2801v0.1562h-0.0372l-0.0763-0.2056h-0.2023v-0.2307h-0.408l-0.0834,0.2801v0.1562h-0.1188
		l-0.0745-0.2056h-0.1189v-0.2307h-0.4506l-0.0816,0.2801l-0.0018,0.1562h-0.039l-0.0781-0.2056H28.436v-0.2307h-0.4293
		l-0.0852,0.2801v0.1562h-0.0834l-0.0798-0.2056h-0.1473l0.0018-0.2307H27.141l-0.0851,0.2801l-0.0018,0.1526h-0.0727l-0.0798-0.202
		h-0.1526v-0.2307h-0.4648l-0.0887,0.2801v0.1526h-0.0639l-0.0851-0.202h-0.1561v-0.2307h-0.4879l-0.0905,0.2765v0.1562H25.225
		l-0.0869-0.202h-0.1295l0.0018-0.2307l-0.4879-0.0036l-0.0922,0.2801l-0.0018,0.1562h-0.0976l-0.0869-0.202h-0.1135v-0.2343
		h-0.5908l-0.094,0.2801v0.1562h-0.023l-0.0869-0.202h-0.1881l0.0018-0.2343h-0.9438l0.0124-4.8307l-0.644-2.1538l-0.0994-0.0033
		l-0.6475,2.1607l-0.0053,2.4339h-0.7007l-0.1011,0.0087l-0.0017,0.8375h-0.6795l0.0018-0.8462h-0.9225l-0.1065,0.0087
		l-0.0018,0.8375h-0.6759l0.0017-0.8462h-0.8551l-0.11,0.0087l-0.0018,0.9334h-0.6724L16,211.9245H15.129l-0.1135,0.0087
		l-0.0018,0.9334h-0.667l0.0036-0.9421h-0.848l-0.1206,0.0087l-0.0018,0.8375h-0.6635l0.0036-0.8462h-0.7877l0.0089-2.4375
		l-0.6777-2.1538L11.141,207.33l-0.9225,2.1607l-0.0089,3.0443l-0.8019,0.8673l-0.0036,1.1463H7.1866l-0.016,4.3286H6.7147
		l-4.6001-0.0036l-0.11,0.0196l-0.0089,2.1694H0v27.5279h999.4293v-27.5279H986.4969z M834.0646,141.2594l0.5729,0.0941
		l0.3637,0.5799l0.1279,1.0751l-0.0872,0.5893l0.449,1.7116l0.0549,8.8153l-0.7735-0.1064l-0.0461-7.1938l-0.392-1.522l0.142-0.5108
		l-0.0073-0.763l-0.674-0.9563l-0.1864,0.0302l-0.0657-0.2609l-0.0033-0.7147L834.0646,141.2594z M833.7877,143.5603l0.3957,0.5624
		l0.0054,0.6315l-0.1508,0.5428l0.4044,1.5594l0.0425,6.9791l-0.949-0.1312l-0.0549-8.6965L833.7877,143.5603z M827.4528,140.8797
		h0.8709l0.5537,0.525l0.1896,1.0645l-0.1348,0.6068l0.6776,1.6517l0.0461,8.8843h-1.3021l-0.032-6.2303l-0.5195-1.6004
		l0.1933-0.5021l-0.0073-0.6918l-0.7841-0.9279h-0.5341l0.1846-0.5835l-0.2038-0.5217l-0.0037-0.7183L827.4528,140.8797z
		 M826.8799,143.9469h0.1915l0.6332,0.7434l0.0037,0.5377l-0.2092,0.5464l0.5373,1.6517l0.0266,5.8985h-1.4014l-0.0406-8.5508
		L826.8799,143.9469z M820.7699,141.3375l0.6423-0.0923l0.4026,0.4647l0.142,1.038l-0.0995,0.6227l0.4971,1.5768l0.037,8.8578
		l-0.7027,0.0854l-0.0302-6.7698l-0.3459-1.6215l0.1261-0.4738l-0.0055-0.7132l-0.5817-1.1387l-0.6671-0.105l-0.0037-0.6954
		L820.7699,141.3375z M820.4807,143.5781l-0.0548-0.1828l0.2394,0.0371l0.4843,0.9174l0.0037,0.6387l-0.1366,0.4985l0.36,1.6604
		l0.0233,6.635l-1.272,0.1577l-0.0356-8.6271L820.4807,143.5781z M569.2952,148.2348c-0.0516-0.3016,0.2307-0.2732,0.1242-0.6296
		c0.7699-0.048,0.8499,1.4173,0.2536,1.6375c-0.3815,0.0443-0.2626-0.4098-0.3778-0.6282c0.2252-0.0196,0.2641,0.1526,0.5021,0.1261
		c0.1737-0.0407,0.1047-0.3157,0.1257-0.5057C569.9055,147.9547,569.6054,148.398,569.2952,148.2348z M568.793,149.2427
		c-0.3317,0.037-0.541-0.0443-0.5057-0.3797c0.1475-0.1046,0.3372-0.1631,0.63-0.1225
		C568.9333,148.964,568.7629,149.0047,568.793,149.2427z M568.1616,148.2348c-0.0585-0.3957,0.3386-0.3317,0.3797-0.6296
		c0.2572,0.0371,0.117,0.4683,0.376,0.5054C568.9031,148.3911,568.3814,148.164,568.1616,148.2348z M273.127,192.3462
		c0.3673-0.3902,0.8691-0.8106,1.4776-1.24c0.5108,0.4098,1.0787,0.8,1.6978,1.1692c-0.4258,0.275-0.8266,0.5392-1.192,0.7859
		c-0.0977,0.0658-0.1882,0.1297-0.2787,0.19C274.1614,192.9867,273.5863,192.6815,273.127,192.3462z M274.6297,193.3911
		c-0.0712,0.0498-0.1384,0.0977-0.2024,0.1421c-0.3691-0.2307-0.706-0.4807-1.0024-0.7434
		C273.7817,193.0082,274.1843,193.2102,274.6297,193.3911z M275.6496,186.2347c0.4044,0.1722,0.8429,0.3655,1.3076,0.582
		c-0.6794,0.1471-1.3112,0.3335-1.886,0.5428c-0.4469-0.3157-0.8193-0.5962-1.1212-0.8374
		c0.1813-0.1348,0.3746-0.2609,0.5751-0.3833C274.871,186.1497,275.247,186.1832,275.6496,186.2347z M274.8815,185.9332
		c0.0018,0,0.0036,0,0.0055,0c0.0051,0,0.0087,0,0.0124,0.0036C274.8939,185.9368,274.887,185.9368,274.8815,185.9332z
		 M277.3172,186.7423c-0.2769-0.1315-0.5392-0.254-0.7964-0.3655c0.4098,0.0745,0.8353,0.1631,1.2789,0.275
		C277.6366,186.6784,277.4753,186.7085,277.3172,186.7423z M278.1529,186.8168c-0.1046,0.0549-0.2093,0.1152-0.3088,0.1737
		c-0.0654-0.0302-0.1293-0.0639-0.1896-0.0923C277.8175,186.868,277.9825,186.8415,278.1529,186.8168z M279.9818,190.4249
		c-0.0425-0.0247-0.0887-0.048-0.1294-0.0745c0.0443-0.0211,0.0887-0.048,0.1312-0.0745c-0.0018,0.0302-0.0055,0.0639-0.0055,0.0977
		C279.9782,190.3879,279.98,190.4071,279.9818,190.4249z M280.0138,190.6982c0.0247,0.1297,0.069,0.2521,0.1275,0.3673
		c-0.5036-0.0036-0.9861-0.0105-1.4438-0.0214c0.2997-0.1828,0.6118-0.3688,0.9366-0.5621
		C279.762,190.5565,279.8859,190.6273,280.0138,190.6982z M278.3996,192.4883c-0.2111,0.1119-0.4189,0.2216-0.6195,0.3299
		c-0.3637-0.1773-0.7147-0.36-1.0518-0.5533c0.355-0.2271,0.7343-0.4614,1.1372-0.715c0.2075,0.1046,0.4149,0.2006,0.6296,0.2979
		c-0.1064,0.0887-0.1773,0.2238-0.1773,0.3728C278.3178,192.3197,278.348,192.4138,278.3996,192.4883z M275.6921,190.1234
		c-0.3423-0.2075-0.6616-0.4116-0.9559-0.6136c0.6863-0.0745,1.4918-0.1402,2.4179-0.1969
		C276.6342,189.5806,276.1462,189.852,275.6921,190.1234z M275.6993,190.3879c0.3212,0.1951,0.6634,0.3884,1.0166,0.5784
		c-0.6369-0.0338-1.2135-0.0781-1.7261-0.1243C275.2132,190.6931,275.4508,190.5405,275.6993,190.3879z M274.1382,189.3608
		c-0.307,0.037-0.5944,0.0832-0.8585,0.1275c-0.1791-0.2271-0.3317-0.4469-0.4596-0.6671c0.0392-0.0338,0.0781-0.0672,0.117-0.0992
		c0.1046-0.0123,0.1987-0.0603,0.2714-0.1315C273.4729,188.8409,273.785,189.0981,274.1382,189.3608z M273.3541,188.4205
		c0.4629-0.3052,1.0289-0.5857,1.6746-0.8269c0.2874,0.2042,0.5926,0.4135,0.9138,0.6209c-0.4861,0.3586-0.9315,0.7223-1.3287,1.091
		c-0.0498,0.0036-0.0977,0.0109-0.1475,0.0142C274.0299,189.0076,273.6575,188.7024,273.3541,188.4205z M274.351,189.5559
		c-0.1864,0.1809-0.3637,0.3637-0.5268,0.5464c-0.1384-0.1421-0.2682-0.2787-0.387-0.4207
		C273.7072,189.6373,274.0121,189.5966,274.351,189.5559z M273.9732,190.5597c0.0708,0.0676,0.1472,0.1333,0.2234,0.2005
		c-0.2129-0.0211-0.4099-0.048-0.5926-0.0745c0.0694-0.0887,0.1439-0.1773,0.2202-0.2714
		C273.874,190.4624,273.9198,190.5121,273.9732,190.5597z M274.124,190.3966c-0.0531-0.0531-0.1028-0.101-0.1526-0.149
		c0.1755-0.1969,0.371-0.3993,0.5748-0.5962c0.2874,0.2006,0.5995,0.4029,0.9297,0.6068c-0.3001,0.1828-0.5802,0.3691-0.8447,0.5501
		c-0.0123-0.0036-0.0283-0.0036-0.0407-0.0036C274.4292,190.668,274.2729,190.5332,274.124,190.3966z M277.1752,191.2075
		c0.1493,0.0778,0.3001,0.1526,0.4541,0.2303c-0.3884,0.2413-0.7608,0.4774-1.1158,0.699
		c-0.5835-0.3386-1.1212-0.7023-1.6092-1.0787C275.6212,191.1222,276.3984,191.1701,277.1752,191.2075z M276.5172,192.3978
		c0.3281,0.1933,0.6671,0.3724,1.0184,0.5483c-0.5127,0.2678-0.9919,0.5126-1.4301,0.7325
		c-0.3564-0.1046-0.6972-0.2129-1.0202-0.3317C275.5006,193.0648,275.9795,192.7473,276.5172,192.3978z M277.7129,191.2304
		c0.0799,0.0036,0.1577,0.0073,0.2358,0.0105c-0.0302,0.0178-0.0636,0.0374-0.0937,0.0552
		C277.8088,191.2747,277.759,191.2519,277.7129,191.2304z M278.0907,191.4114c0.085-0.0512,0.1755-0.1028,0.2627-0.1595
		c0.6812,0.0229,1.3323,0.0334,1.9245,0.0371c0.0269,0.0411,0.0571,0.0781,0.0905,0.1155c-0.3546,0.1969-0.7023,0.3902-1.034,0.5762
		c-0.0552-0.0247-0.1064-0.0476-0.1599-0.0708c-0.0887-0.1064-0.2198-0.1737-0.3706-0.1737c-0.0054,0-0.0105,0.0033-0.0178,0.0033
		C278.5485,191.6315,278.316,191.5233,278.0907,191.4114z M278.2877,191.0317c-0.3619-0.0105-0.7096-0.0247-1.0413-0.0407
		c-0.4774-0.2449-0.9174-0.4879-1.3287-0.7328c0.5374-0.3157,1.1208-0.6369,1.7491-0.9454c0.5802,0.3528,1.171,0.7077,1.7458,1.0431
		C279.0292,190.583,278.6532,190.8082,278.2877,191.0317z M274.9665,189.2648c0.355-0.3088,0.7488-0.6173,1.1692-0.9225
		c0.3761,0.2482,0.7681,0.4985,1.1692,0.747C276.4907,189.1337,275.6957,189.194,274.9665,189.2648z M276.127,188.0815
		c-0.3052-0.2005-0.5875-0.3957-0.848-0.5766c0.6086-0.2129,1.2807-0.392,2.0044-0.5355c0.1083,0.0512,0.2166,0.0992,0.3248,0.1522
		C277.0847,187.4304,276.5898,187.7498,276.127,188.0815z M273.7799,186.3801c-0.0854-0.0745-0.1667-0.1417-0.238-0.2038
		c0.1758-0.0233,0.3728-0.0374,0.5875-0.0374C274.0088,186.2169,273.8933,186.2951,273.7799,186.3801z M274.8248,187.4519
		c-0.5573,0.2198-1.054,0.4611-1.4798,0.7292c-0.0302-0.238-0.2321-0.4207-0.4789-0.4207c-0.0356,0-0.0708,0.0036-0.1046,0.0124
		c-0.0178-0.0229-0.0338-0.0443-0.0479-0.0672c0.2838-0.376,0.6424-0.7256,1.0609-1.0536
		C274.0724,186.9018,274.4292,187.1696,274.8248,187.4519z M273.0293,189.5326c-0.3299,0.0639-0.6136,0.133-0.8407,0.2078
		c-0.0215-0.0214-0.0425-0.0447-0.0676-0.0621c0.1206-0.2431,0.3016-0.4774,0.5305-0.7045
		C272.7615,189.1602,272.8858,189.3466,273.0293,189.5326z M272.3161,190.0649c0-0.048-0.0106-0.0974-0.0247-0.1453
		c0.2202-0.0639,0.5181-0.1297,0.8905-0.1969c0.149,0.1828,0.3139,0.3688,0.4952,0.5464c-0.1083,0.1312-0.2096,0.2572-0.3052,0.3829
		c-0.5341-0.0814-0.9315-0.1668-1.1924-0.2518C272.263,190.3134,272.3161,190.1946,272.3161,190.0649z M273.45,190.8882
		c0.2801,0.0443,0.5835,0.0814,0.9065,0.1152c-0.5748,0.4171-1.0486,0.8215-1.4035,1.208
		c-0.0567-0.0443-0.1115-0.0923-0.1649-0.1399C272.9283,191.6918,273.1535,191.2962,273.45,190.8882z M274.8797,193.4925
		c0.2961,0.1152,0.614,0.2234,0.9472,0.3194c-0.1649,0.0832-0.3208,0.1577-0.4716,0.2271
		c-0.2503-0.1192-0.4916-0.2449-0.7187-0.3797C274.7148,193.6077,274.7947,193.5473,274.8797,193.4925z M275.3658,194.2852
		c0.1403,0.0676,0.2838,0.1261,0.4309,0.1864c-0.3564,0.0443-0.6936,0.0708-1.0093,0.0781
		C274.9702,194.4716,275.1635,194.3812,275.3658,194.2852z M275.6212,194.1628c0.1722-0.0832,0.3441-0.1686,0.5268-0.2572
		c0.4062,0.1119,0.8338,0.2111,1.2793,0.2983c-0.4135,0.085-0.8109,0.1559-1.1906,0.2111
		C276.0256,194.3368,275.8218,194.2514,275.6212,194.1628z M276.4354,193.7639c0.424-0.2111,0.8749-0.4473,1.3501-0.6954
		c0.4948,0.234,1.0111,0.4574,1.5434,0.6616c-0.4611,0.1312-0.9101,0.25-1.3465,0.3495
		C277.4415,193.9942,276.9234,193.8863,276.4354,193.7639z M279.6766,193.8613c0.133,0.048,0.2663,0.0959,0.4011,0.1439
		c0.243,0.0832,0.4861,0.1613,0.7274,0.2358c-0.0995,0.0338-0.2006,0.0585-0.3015,0.0923c-0.6671-0.0302-1.313-0.085-1.9322-0.1631
		C278.9315,194.0723,279.3024,193.9731,279.6766,193.8613z M280.1504,193.794c-0.0392-0.0142-0.0763-0.0302-0.1152-0.0443
		c0.3244-0.0977,0.6525-0.206,0.9828-0.3212l0.0014,0.6369C280.7306,193.9801,280.4414,193.895,280.1504,193.794z
		 M279.6839,193.6273c-0.5715-0.2129-1.123-0.4436-1.6535-0.6903c0.1791-0.0923,0.36-0.1933,0.5446-0.2892
		c0.069,0.0374,0.1472,0.0589,0.2289,0.0589c0.2536,0,0.4611-0.1969,0.4807-0.4454c0.0215-0.0123,0.0425-0.0229,0.0603-0.0338
		c0.339,0.1457,0.6849,0.2892,1.038,0.4313c0.2126,0.0814,0.4222,0.1595,0.6351,0.2376v0.2979
		C280.5671,193.3468,280.1202,193.4957,279.6839,193.6273z M280.468,192.4508c-0.2997-0.1206-0.5908-0.2394-0.8745-0.3619
		c0.3066-0.1668,0.6227-0.3423,0.9384-0.5214c0.1417,0.1206,0.3034,0.2129,0.4825,0.2801l0.0018,0.8142
		C280.8335,192.5911,280.6507,192.5257,280.468,192.4508z M280.028,189.9904c-0.1348,0.0781-0.266,0.1562-0.3957,0.2343
		c-0.5802-0.3321-1.1194-0.6511-1.6197-0.9563c0.7648-0.0338,1.5986-0.0552,2.5015-0.0712
		C280.2798,189.4033,280.1061,189.6816,280.028,189.9904z M277.6649,189.0556c-0.4861-0.2965-0.933-0.5802-1.341-0.848
		c0.4734-0.3353,0.9828-0.6547,1.5274-0.9704c0.5784,0.2819,1.1902,0.5871,1.8253,0.9152
		C278.9689,188.4452,278.2964,188.7467,277.6649,189.0556z M278.0853,187.106c0.1544-0.0854,0.3106-0.1704,0.4701-0.2572
		c0.7913,0.2162,1.6161,0.4771,2.4626,0.7822c-0.2042,0.0745-0.4117,0.1526-0.6176,0.2307
		c-0.1526,0.0603-0.3034,0.1188-0.456,0.1827C279.3006,187.7055,278.6761,187.3934,278.0853,187.106z M288.2703,186.242
		c0.1275,0,0.2482,0.0051,0.367,0.0087c-0.3441,0.2554-0.7753,0.5661-1.2931,0.9119c-0.3619-0.1155-0.747-0.2202-1.1477-0.3139
		c0.4113-0.2078,0.7946-0.3938,1.1423-0.5606C287.6686,186.2613,287.9811,186.242,288.2703,186.242z M287.903,186.0273
		c0.0727-0.0338,0.1417-0.0639,0.2075-0.0941c0.0549,0.0302,0.1064,0.0567,0.1599,0.0868l0,0
		C288.1497,186.02,288.0287,186.02,287.903,186.0273z M288.4015,193.1535c-0.1846-0.1384-0.3884-0.2819-0.6155-0.4436
		c-0.4153-0.2961-0.8767-0.6049-1.3715-0.9258c0.3335-0.2238,0.6493-0.4509,0.9508-0.6812c0.0603,0.0265,0.1315,0.0443,0.206,0.0443
		c0.1348,0,0.2572-0.0552,0.3423-0.1402c0.1261,0.0814,0.2467,0.1668,0.3637,0.2482c0.6013,0.4367,1.0732,0.8498,1.4086,1.2207
		C289.3185,192.7226,288.8876,192.9497,288.4015,193.1535z M289.5706,192.7898c-0.2485,0.2184-0.5236,0.4313-0.8251,0.6282
		c-0.048-0.0374-0.1028-0.0781-0.1577-0.1192C288.9461,193.1393,289.276,192.9707,289.5706,192.7898z M288.0414,190.5528
		c0.3386-0.2946,0.6562-0.5926,0.9384-0.8941c0.0302-0.0338,0.0585-0.0658,0.0887-0.0959c0.069,0.0109,0.1403,0.0178,0.2093,0.0302
		c0.2769,0.2892,0.5181,0.5766,0.7132,0.8589c-0.472,0.101-1.1212,0.2002-1.9445,0.2907c0.0054-0.0265,0.0091-0.0531,0.0091-0.0781
		C288.0556,190.6237,288.0501,190.5866,288.0414,190.5528z M287.0354,190.4373c-0.2572,0.1562-0.525,0.3088-0.8018,0.465
		c-0.3513,0.0265-0.7219,0.048-1.1121,0.0672c-0.5573-0.3422-1.1427-0.6936-1.7531-1.0467c0.3957-0.234,0.7808-0.4683,1.155-0.6954
		c0.1046,0.0036,0.2075,0.0073,0.3088,0.0109C285.6268,189.6285,286.3683,190.0311,287.0354,190.4373z M284.8765,189.0113
		c0.7343-0.4542,1.4173-0.8854,2.0346-1.2916c0.731,0.4541,1.3857,0.9457,1.9445,1.4566c-0.0461,0.0407-0.0959,0.0781-0.1421,0.1152
		c-1.1212-0.1348-2.4906-0.2198-3.8142-0.2678C284.8925,189.0182,284.8852,189.0145,284.8765,189.0113z M285.7776,191.1472
		c-0.0654,0.0334-0.1312,0.0708-0.1969,0.1046c-0.0461-0.0269-0.0923-0.0552-0.1384-0.0817
		C285.5559,191.1632,285.666,191.1559,285.7776,191.1472z M283.081,190.095c0.0233-0.0124,0.0443-0.0265,0.0676-0.0407
		c0.5428,0.3157,1.0696,0.6246,1.5753,0.933c-0.5519,0.0233-1.1445,0.0443-1.7686,0.0567c0.0956-0.202,0.1526-0.4291,0.1526-0.6703
		C283.1078,190.2814,283.097,190.1873,283.081,190.095z M283.1467,189.7971c-0.0658-0.0374-0.1366-0.0781-0.2024-0.1155
		c-0.0938-0.186-0.2234-0.3582-0.3797-0.4912c0.5432,0.0036,1.0609,0.0142,1.5507,0.0265
		C283.8047,189.4033,283.4839,189.5966,283.1467,189.7971z M282.8237,191.2679c0.7292-0.016,1.4813-0.0429,2.2301-0.0799
		c0.0992,0.0603,0.1969,0.1243,0.2946,0.1827c-0.6158,0.3121-1.2705,0.6191-1.9463,0.9083
		c-0.3495-0.1791-0.7041-0.3691-1.066-0.5588C282.5312,191.6046,282.6962,191.4521,282.8237,191.2679z M284.0975,192.8785
		c-0.3299,0.1631-0.6671,0.3266-1.0111,0.4792c-0.0073,0.0051-0.0142,0.0087-0.0215,0.0124
		c-0.3244-0.1014-0.6511-0.206-0.9828-0.3248c0.0959-0.0338,0.1937-0.0654,0.291-0.1083c0.3459-0.133,0.6867-0.275,1.0184-0.4167
		C283.6328,192.6445,283.8668,192.7633,284.0975,192.8785z M283.6594,192.4101c0.6671-0.291,1.3058-0.5926,1.9107-0.901
		c0.1453,0.0923,0.291,0.186,0.4345,0.275c-0.5232,0.3386-1.0787,0.6634-1.6622,0.9686
		C284.1172,192.6409,283.8901,192.5257,283.6594,192.4101z M286.2106,191.9189c0.5232,0.3386,1.0093,0.6652,1.4456,0.9701
		c0.1846,0.1315,0.3513,0.254,0.5039,0.3655c-0.4985,0.1969-1.0486,0.3728-1.6393,0.5199c-0.5926-0.259-1.24-0.5642-1.9318-0.8996
		C285.1584,192.57,285.6994,192.2488,286.2106,191.9189z M286.2088,191.6544c-0.1333-0.0905-0.2696-0.1755-0.4098-0.2641
		c0.1737-0.0941,0.3441-0.1864,0.5127-0.275c0.2536-0.0196,0.5021-0.0374,0.747-0.0603
		C286.7872,191.2588,286.5031,191.4575,286.2088,191.6544z M286.7534,190.8649c0.1134-0.0672,0.2234-0.1293,0.3299-0.1969
		c0.0018,0.0585,0.016,0.1155,0.0338,0.1668C286.9983,190.842,286.8759,190.8544,286.7534,190.8649z M285.3714,189.2612
		c1.2346,0.0516,2.2635,0.1297,3.0868,0.2271c-0.0283,0.0178-0.0567,0.0407-0.085,0.0621c-0.2997,0.2202-0.6227,0.44-0.9654,0.6565
		c-0.0618,0.0211-0.1152,0.0549-0.1613,0.0992C286.6717,189.953,286.0439,189.6002,285.3714,189.2612z M288.5043,189.7295
		c0.0941-0.0672,0.1864-0.1366,0.2751-0.2038c0.0054,0,0.0087,0,0.016,0c-0.2627,0.2783-0.5501,0.5497-0.8586,0.8211
		c-0.0429-0.0476-0.0941-0.0887-0.1526-0.1188C288.0359,190.0649,288.279,189.8981,288.5043,189.7295z M289.0293,189.0341
		c-0.5515-0.5054-1.1957-0.997-1.914-1.4511c0.0956-0.0603,0.1878-0.1243,0.2783-0.1864c0.8978,0.2892,1.6695,0.6405,2.2693,1.0344
		C289.4834,188.6243,289.2723,188.8249,289.0293,189.0341z M286.9078,187.4551c-0.2024-0.1221-0.4084-0.2445-0.6209-0.36
		c0.2874,0.0676,0.5657,0.1366,0.832,0.2202C287.0514,187.3596,286.9787,187.4075,286.9078,187.4551z M286.7,187.5903
		c-0.5977,0.3938-1.288,0.8302-2.0615,1.3054c-0.4007-0.1933-0.816-0.3797-1.2433-0.5657c0.8636-0.4756,1.6604-0.896,2.3754-1.2615
		C286.09,187.2317,286.4039,187.4108,286.7,187.5903z M284.3442,189.004c-0.7433-0.0229-1.4584-0.0338-2.0862-0.037
		c0.3034-0.1704,0.5995-0.339,0.8923-0.5021C283.5584,188.6385,283.9558,188.8212,284.3442,189.004z M283.1362,192.3905
		c-0.2787,0.1155-0.5588,0.2307-0.8462,0.339c-0.0799,0.0338-0.1617,0.0639-0.243,0.0923l-0.0037-0.9668
		c0.0142-0.0036,0.0284-0.0073,0.0407-0.0142C282.4408,192.0305,282.7918,192.2114,283.1362,192.3905z M282.7529,193.5066
		c-0.2358,0.101-0.4683,0.1933-0.7027,0.2874l-0.0015-0.5254C282.2827,193.3504,282.5222,193.4322,282.7529,193.5066z
		 M283.0777,193.6077c0.6155,0.1897,1.2168,0.3564,1.7897,0.4948c-0.8832,0.1384-1.829,0.2202-2.8154,0.2467l0,0l-0.0018-0.3175
		C282.3928,193.8987,282.7351,193.7602,283.0777,193.6077z M283.3843,193.4692c0.3285-0.1526,0.6474-0.3085,0.9617-0.4683
		c0.6456,0.3157,1.256,0.6031,1.8217,0.8571c-0.2358,0.0549-0.4789,0.1028-0.7274,0.1472
		C284.7879,193.8649,284.0994,193.6821,283.3843,193.4692z M286.4926,194.0015c0.2198,0.0941,0.4309,0.1864,0.6351,0.2678
		c-0.0214,0.0091-0.0425,0.016-0.0621,0.0269c-0.3423-0.0447-0.7059-0.105-1.0838-0.1795
		C286.1554,194.0796,286.324,194.0422,286.4926,194.0015z M286.8348,193.9092c0.5446-0.149,1.0558-0.3194,1.5187-0.5145
		c0.069,0.0567,0.1311,0.1046,0.1933,0.1526c-0.3495,0.2165-0.7325,0.4222-1.1405,0.5995
		C287.2236,194.0723,287.0335,193.9942,286.8348,193.9092z M288.4069,191.0778c-0.0607-0.0461-0.1243-0.0905-0.1882-0.1348
		c0.7433-0.085,1.3962-0.1864,1.8965-0.3052c0.2093,0.3317,0.3618,0.6547,0.4541,0.9668c-0.0694,0.1155-0.1457,0.2307-0.2253,0.3477
		c-0.1421,0.1366-0.3019,0.2681-0.4774,0.3975C289.5172,191.956,289.0311,191.5265,288.4069,191.0778z M289.6342,189.6482
		c0.8712,0.149,1.3094,0.3048,1.3094,0.424c0,0.0937-0.2431,0.2093-0.7187,0.3244
		C290.0582,190.1499,289.8598,189.9018,289.6342,189.6482z M289.3861,189.3837c-0.0284-0.0302-0.0567-0.0603-0.0854-0.0887
		c0.2115-0.2467,0.3975-0.4879,0.5573-0.7256c0.5145,0.3706,0.8799,0.784,1.066,1.2204
		C290.633,189.6249,290.0851,189.4919,289.3861,189.3837z M289.7835,188.2715c-0.5839-0.3906-1.3181-0.7328-2.1698-1.0202
		c0.5181-0.3531,0.9189-0.6405,1.2313-0.8745c0.5177,0.3528,0.9613,0.7448,1.3109,1.1688
		C290.0637,187.7763,289.9376,188.0212,289.7835,188.2715z M289.1005,186.2951c0.6634,0.0959,1.0838,0.3121,1.208,0.6405
		c0.0055,0.0105,0.0087,0.0283,0.0124,0.0443c-0.0196,0.1083-0.0461,0.2165-0.0818,0.3317
		C289.9234,186.9498,289.5405,186.6108,289.1005,186.2951z M288.9054,186.0451c-0.0621-0.0036-0.1279-0.0109-0.1969-0.0142
		c-0.1119-0.0712-0.2307-0.1384-0.3477-0.2096c0.6365-0.2714,1.0696-0.4204,1.2574-0.4273
		C289.551,185.5092,289.3098,185.7326,288.9054,186.0451z M285.847,186.7739c-0.0836-0.0174-0.1704-0.0316-0.2572-0.0512
		c-0.0836-0.0407-0.1686-0.0817-0.2558-0.1261c0.4651-0.0941,0.9101-0.1755,1.329-0.2307
		C286.4057,186.492,286.1307,186.6304,285.847,186.7739z M285.4974,186.9265c0.0087,0.0054,0.0178,0.0091,0.0265,0.016
		c-0.7328,0.3761-1.5365,0.8073-2.386,1.2756c-0.2823-0.1188-0.5679-0.2376-0.8553-0.3495
		c-0.2038-0.0814-0.4062-0.1595-0.6122-0.2376c0.9955-0.3459,1.9692-0.6333,2.8902-0.8571
		C284.8816,186.8201,285.1941,186.868,285.4974,186.9265z M284.5412,186.5523c-0.9599-0.1348-1.9797-0.2056-3.0406-0.2056
		c-0.7383,0-1.4511,0.0334-2.1414,0.101c0.1722-0.0817,0.3426-0.1631,0.5181-0.2412c0.6122-0.2769,1.2313-0.5217,1.8486-0.7346
		c0.3848,0.1083,0.7717,0.2271,1.1583,0.3622c0.6086,0.2075,1.1993,0.4382,1.7618,0.6918
		C284.612,186.5327,284.575,186.5399,284.5412,186.5523z M281.5005,186.5701c0.8462,0,1.6691,0.0443,2.4517,0.1261
		c-0.8411,0.2234-1.7174,0.5003-2.6079,0.816c-0.832-0.3052-1.6499-0.573-2.4339-0.7968
		C279.7333,186.6217,280.6009,186.5701,281.5005,186.5701z M280.4821,188.0692c0.2856-0.1101,0.5748-0.2184,0.8622-0.3194
		c0.2838,0.1046,0.5679,0.2129,0.8567,0.3248c0.2307,0.0919,0.4596,0.186,0.6867,0.2819c-0.2997,0.1631-0.6068,0.339-0.9152,0.5145
		c-0.1384-0.0374-0.2805-0.0603-0.4294-0.0603c-0.0516,0-0.0995,0-0.1453,0.0069c-0.4048-0.2198-0.8004-0.4309-1.1906-0.6402
		C280.2975,188.14,280.388,188.103,280.4821,188.0692z M282.0539,195.3018l-0.0018-0.7274c0.88,0.2129,1.7458,0.3619,2.5778,0.44
		C283.8138,195.1743,282.9516,195.2717,282.0539,195.3018z M285.3928,194.8389c-0.7986-0.0283-1.6339-0.1366-2.4891-0.3052
		c0.8836-0.0552,1.728-0.1562,2.5193-0.3052c0.4222,0.0941,0.8284,0.1722,1.2168,0.2307
		C286.2408,194.6046,285.8255,194.7325,285.3928,194.8389z M286.1609,194.8549c0.3194-0.1014,0.6278-0.2129,0.9225-0.3353
		c0.3139,0.0407,0.6104,0.0672,0.8905,0.0814c0.0407,0.016,0.0836,0.0338,0.1242,0.0443
		C287.5302,194.7768,286.881,194.844,286.1609,194.8549z M288.4243,194.3935c-0.1348,0-0.2765-0.0036-0.4222-0.0123
		c-0.1028-0.0407-0.2075-0.0781-0.3175-0.1224c0.3709-0.1737,0.7205-0.3637,1.0431-0.5693
		c0.2663,0.2162,0.4632,0.3866,0.6104,0.5286c-0.0992,0.048-0.2042,0.101-0.3139,0.1453
		C288.8433,194.3812,288.6427,194.3935,288.4243,194.3935z M289.4002,194.7874c-0.1508-0.0178-0.3354-0.0603-0.5501-0.1224
		c0.0745-0.0265,0.1439-0.0567,0.2129-0.0814c0.1951-0.0233,0.3709-0.057,0.525-0.0941c0.0302,0.0338,0.057,0.0672,0.0749,0.0974
		C289.5547,194.6206,289.4605,194.6951,289.4002,194.7874z M289.5405,194.1025c-0.1526-0.149-0.3513-0.3281-0.6158-0.5428
		c0.3673-0.25,0.7027-0.5181,0.9955-0.7964c0.1969,0.2678,0.3139,0.5054,0.3422,0.7183
		C290.0778,193.7159,289.8366,193.9234,289.5405,194.1025z M290.5712,192.9195c-0.0374,0.1115-0.0872,0.2162-0.1439,0.3121
		c-0.0657-0.1933-0.1846-0.4044-0.3531-0.6282c0.1759-0.1828,0.3335-0.3724,0.4738-0.5693c0.0338-0.0302,0.0639-0.0639,0.0941-0.101
		C290.6969,192.2826,290.6777,192.6143,290.5712,192.9195z M290.7148,191.3369c-0.0923-0.2449-0.2166-0.5021-0.3742-0.7593
		c0.3263-0.0887,0.5657-0.1897,0.699-0.2961C290.9916,190.6451,290.8815,190.9946,290.7148,191.3369z M291.0555,189.5628
		c-0.2202-0.4131-0.5857-0.8-1.0736-1.1583c0.1653-0.1969,0.2983-0.3869,0.3957-0.5697
		C290.7591,188.3707,290.9967,188.9528,291.0555,189.5628z M290.2181,185.8642c0.0992,0.2253,0.1472,0.4716,0.1435,0.7361
		c-0.2198-0.2536-0.6068-0.424-1.1496-0.5145c0.5272-0.4276,0.6442-0.6209,0.6511-0.7219
		C290.0121,185.5128,290.1345,185.6778,290.2181,185.8642z M286.8384,184.4857c1.2473,0,2.2068,0.2394,2.8085,0.6881
		c-0.0055,0-0.0127-0.0036-0.0178-0.0036c-0.2325,0-0.7648,0.1864-1.5187,0.5145c-0.8516-0.4505-1.8431-0.816-2.9306-1.0714
		C285.7634,184.5318,286.3185,184.4857,286.8384,184.4857z M284.5837,184.7092c1.2204,0.2376,2.3311,0.6104,3.275,1.0911
		c-0.1846,0.0814-0.3797,0.1737-0.5871,0.2714c-0.6867,0.0672-1.4515,0.1897-2.2657,0.3724
		c-0.6529-0.3052-1.3374-0.5799-2.0488-0.8229c-0.2878-0.0995-0.5733-0.19-0.8589-0.275
		C282.948,185.071,283.7855,184.8545,284.5837,184.7092z M281.2433,184.4236c0.0814,0.1526,0.2412,0.2554,0.4258,0.2554
		c0.1842,0,0.3404-0.0995,0.424-0.2485c0.6456,0.0214,1.2752,0.0818,1.8802,0.174c-0.7325,0.1577-1.4918,0.3724-2.2566,0.6333
		c-1.0111-0.2819-2.0081-0.4807-2.9695-0.5871C279.54,184.5122,280.3775,184.4341,281.2433,184.4236z M277.9756,184.8033
		c1.0751,0.069,2.2155,0.259,3.3793,0.5657c-0.525,0.1882-1.0482,0.4011-1.5681,0.6318c-0.3655,0.1682-0.7219,0.3386-1.0681,0.5145
		c-0.1221,0.0142-0.2413,0.0316-0.3601,0.0476c-0.9613-0.2536-1.8627-0.4363-2.6679-0.5428
		c-0.19-0.0832-0.3746-0.1559-0.5464-0.2234C275.9707,185.3762,276.927,185.0372,277.9756,184.8033z M277.0494,184.7695
		c0.0494,0,0.101,0,0.1526,0c-0.8535,0.2412-1.6357,0.5533-2.3278,0.9225c-0.4044-0.149-0.7557-0.2678-1.0482-0.3459
		C274.6225,184.97,275.719,184.7695,277.0494,184.7695z M273.5296,185.5019c0.2838,0.0552,0.6511,0.1668,1.0929,0.3321
		c-0.0498,0.0247-0.0959,0.0549-0.1421,0.0814c-0.0796,0-0.1613-0.0036-0.2376-0.0036c-0.3477,0-0.6475,0.0251-0.9083,0.0712
		c-0.0799-0.0781-0.1471-0.149-0.1969-0.2093C273.2545,185.6741,273.3842,185.5837,273.5296,185.5019z M273.1572,185.4543
		c0.0124,0,0.0229,0,0.032,0c-0.0603,0.0443-0.1206,0.0887-0.1777,0.133c-0.0193-0.0443-0.0247-0.0781-0.0123-0.0996
		C272.9991,185.4877,273.0242,185.4543,273.1572,185.4543z M272.9904,185.8994c0.032,0.0425,0.069,0.0868,0.1101,0.1315
		c-0.1224,0.0334-0.2307,0.0709-0.3303,0.1152C272.836,186.0611,272.9087,185.9793,272.9904,185.8994z M272.4618,186.7049
		c0.0087-0.0229,0.0196-0.0461,0.0283-0.0639c0.1294-0.1969,0.3975-0.3386,0.7946-0.424c0.0941,0.0959,0.2006,0.1933,0.3212,0.2946
		c-0.3957,0.3121-0.7361,0.6474-1.0184,1.0039c-0.1206-0.2093-0.1842-0.3938-0.1915-0.5552
		C272.4138,186.8716,272.4334,186.7866,272.4618,186.7049z M272.444,187.7055c-0.0142,0.0178-0.0283,0.0407-0.0407,0.0585
		c-0.0127-0.0585-0.0196-0.1152-0.0251-0.1737C272.3978,187.6274,272.4193,187.668,272.444,187.7055z M272.3288,188.305
		c0.0585,0.1599,0.133,0.323,0.2198,0.4861c-0.2591,0.2467-0.4647,0.5039-0.6086,0.7717
		C271.9844,189.1264,272.1159,188.7061,272.3288,188.305z M272.004,190.5565c0.291,0.1152,0.7132,0.2111,1.2204,0.2979
		c-0.2554,0.3601-0.4556,0.7132-0.594,1.0609C272.3215,191.4858,272.1104,191.0317,272.004,190.5565z M272.7633,192.4279
		c-0.0407,0.0549-0.0818,0.1046-0.1206,0.1562c0.0124-0.0745,0.032-0.1526,0.0512-0.2307
		C272.719,192.38,272.7401,192.4047,272.7633,192.4279z M272.4618,193.8685c-0.0461-0.1224-0.0516-0.2609-0.0233-0.4098
		c0.0233,0.1152,0.0585,0.2271,0.1064,0.3354c0.0763,0.17,0.1809,0.3226,0.307,0.4683
		C272.6569,194.1595,272.5257,194.0244,272.4618,193.8685z M272.7492,193.6999c-0.0941-0.2075-0.1403-0.4345-0.1439-0.6725
		c0.0781-0.1384,0.1809-0.2838,0.3052-0.4364c0.3709,0.3888,0.816,0.7521,1.3268,1.0805c-0.4167,0.2979-0.7147,0.5323-0.9225,0.7132
		C273.0594,194.1948,272.868,193.9695,272.7492,193.6999z M273.0878,194.9294c0.032-0.0603,0.1155-0.149,0.2398-0.2609
		c0.0015,0,0.0033,0,0.0051,0c0.0763,0.048,0.1544,0.0959,0.238,0.1421C273.3468,194.8851,273.1837,194.9258,273.0878,194.9294z
		 M273.5419,194.4858c0.222-0.1864,0.5236-0.4167,0.9032-0.6885c0.2111,0.1261,0.4327,0.2449,0.6616,0.3622
		c-0.3299,0.1526-0.6246,0.2819-0.88,0.3938C273.9732,194.5425,273.7443,194.5196,273.5419,194.4858z M276.127,195.0784
		c-0.763,0-1.4195-0.0905-1.9514-0.2645c0.0302-0.0123,0.0618-0.0229,0.0919-0.037c0.0781,0.0036,0.1562,0.0036,0.2362,0.0036
		c0.5108,0,1.091-0.0443,1.7207-0.1384c0.3655,0.1384,0.747,0.2572,1.1408,0.3655
		C276.9357,195.0551,276.5208,195.0784,276.127,195.0784z M276.6785,194.5708c0.424-0.069,0.8658-0.1595,1.3236-0.2678
		c0.5944,0.0977,1.2186,0.1686,1.8646,0.2165c-0.6547,0.1791-1.2935,0.3121-1.9071,0.4062
		C277.5141,194.8248,277.0883,194.7092,276.6785,194.5708z M278.5573,195.0518c0.6405-0.1224,1.304-0.291,1.9779-0.4952
		c0.1581,0.0073,0.3248,0.0073,0.4861,0.0109l0.0018,0.7379C280.1682,195.2789,279.3413,195.1936,278.5573,195.0518z
		 M280.8545,188.9702c-0.8353,0.0109-1.7349,0.0338-2.6377,0.0745c0.5497-0.2641,1.1245-0.5159,1.7189-0.759
		c0.3673,0.1933,0.7433,0.3953,1.123,0.5995C280.9879,188.9081,280.9203,188.9368,280.8545,188.9702z M598.361,190.5121
		c1.4671,0,2.9324,0,4.4031,0c0,0.3386,0,0.6685,0,1.0075c0.2198,0.0708,0.7379-0.1526,0.7539,0.1261
		c-0.2358,0.7415,0.4029,0.5995,0.5039,1.0057c0.2198,9.4148,0.3088,18.9643,0.4967,28.4111h-5.9287
		c-0.206-5.7016,0.1577-11.4708-0.1047-17.2131c-0.1315-2.9469,0.0175-6.3193-0.1242-9.438
		C598.297,193.0859,598.0397,191.8107,598.361,190.5121z M589.3008,190.5121c0,0.3386,0,0.6685,0,1.0075
		c0.1827,0.0676,0.6511-0.149,0.63,0.1261c-0.2431,0.7448,0.4578,0.5479,0.5035,1.0057c0.0233,9.523,0.1882,18.9059,0.2325,28.4111
		h-8.65c-0.064-10.165,0.0618-20.5219-0.1403-30.5503C584.353,190.5121,586.8262,190.5121,589.3008,190.5121z M575.0836,163.5892
		l0.016-0.0036c0.1351-0.0036,0.2521-0.0302,0.3636-0.0603l0.5555-0.085c0.0051,0,0.0123,0,0.0178,0v3.1257
		c-0.3107-0.1188-0.4117-0.4487-0.953-0.3386c-0.0302-0.784-0.0494-1.5576,0.3764-1.886
		C575.4651,163.9584,575.0077,164.0397,575.0836,163.5892z M575.6391,163.2735c0.2198-0.2431,0.6119-0.3157,0.8266-0.5661
		l0.2376,0.3975L575.6391,163.2735z M576.26,163.9424c0.186-0.1297,0.0229-0.6068,0.4578-0.4825
		c0.3688,0.9083,0.2252,2.3096,0,3.1435c-0.222,0-0.4313,0.0036-0.4578,0.0036V163.9424z M580.1149,163.5856
		c0.1581,0.0302,0.1279,0.2503,0,0.2536c0.2147,0.1635,0.7096-0.0778,1.1318,0.1224c0.0995,0.9795-0.234,1.5292-0.6278,2.0135
		c-0.0356,0.2892,0.0302,0.4756,0.2499,0.5057c-0.2819,0.275-1.2542,0.1722-1.2578-0.2536
		c-0.2253-0.0142-0.2642,0.1526-0.5018,0.1275C579.0983,165.0847,579.6448,164.3714,580.1149,163.5856z M578.2274,163.8392
		c0.0992,0.0621,0.2056,0.1297,0.3779,0.1224c0.0407,1.0449-0.6013,1.4104-0.3779,2.6417
		c-0.4062,0.1083-0.2093-0.4204-0.2503-0.6282C577.8478,165.3383,577.8638,164.3965,578.2274,163.8392z M577.2036,161.1252
		c-0.1367,0.2979-0.2554,0.61-0.3245,0.9755l-1.7138,0.9261c0.2289-0.5835-0.0142-1.1121,0.1704-1.8308
		c-0.4135-0.3353-0.6867-0.8996-0.7452-1.3091L577.2036,161.1252z M572.8201,164.9695c0.1439-0.0214,0.2217,0.0265,0.2485,0.1275
		c0.085,0.4578,0.1773,0.9156,0.1257,1.5063c-0.2075,0-0.4204,0-0.6278,0C572.5309,165.9417,572.8928,165.6736,572.8201,164.9695z
		 M571.8108,158.0489c-0.259,0.4487-0.3477-0.3052-0.5021-0.376C571.5659,157.2256,571.6564,157.9813,571.8108,158.0489z
		 M570.4287,165.2231c0.4789-0.1083,1.0075-0.1631,1.6339-0.1261c-0.0516,0.5944,0.2253,0.8676,0.1261,1.5063
		c-0.5857,0-1.1746,0-1.7599,0C570.4287,166.1456,570.4287,165.6809,570.4287,165.2231z M569.1691,153.0158
		c0,0.2096,0,0.4207,0,0.63c-0.2111,0-0.4185,0-0.6278,0C568.6121,153.2999,568.6743,152.9413,569.1691,153.0158z M568.0373,165.097
		c0.6424-0.101,0.9138,0.174,1.5096,0.1261c0.1508,0.3495,0.1384,0.8676,0.126,1.3803c-0.8872,0.3353-1.3871-0.8411-1.6357,0
		C567.6504,166.2131,568.1917,165.6772,568.0373,165.097z M567.2798,164.9695c-0.1508,0.6634,0.4897,1.1852,0.1261,1.6339
		c-0.5555,0.0229,0.0603-0.3531-0.2504-0.5021c0.0055-0.2946-0.2165-0.3691-0.1275-0.7557
		c-0.1439-0.0178-0.1046-0.2307-0.1243-0.376C567.028,164.9695,567.1555,164.9695,567.2798,164.9695z M565.8959,165.097
		c0.3938-0.1686,0.7081,1.102,0.126,1.3839C565.5573,166.1688,566.3413,165.3862,565.8959,165.097z M564.6381,163.7117
		c0.1083,0.4026-0.1097,0.4771-0.2499,0.6296c-0.0229,0.3157,0.2801,0.3052,0.376,0.5021c0,0.5889,0,1.1728,0,1.7599
		c-0.4738,0-0.9472,0-1.421,0l0.0389-2.2653c0,0,0,0,0,0.0033c0.2717,0.0233,0.057-0.4469,0.1243-0.6296
		C563.886,163.7117,564.262,163.7117,564.6381,163.7117z M563.3821,162.9578c0.0428-0.0054,0.0781,0,0.1137,0.0033l0.6566,0.4792
		c-0.2111,0.0941-0.6529-0.0407-0.8978,0.0196C563.2404,163.2361,563.4089,163.1954,563.3821,162.9578z M563.1303,163.7117
		c0.0123-0.0036,0.0247-0.0073,0.0392-0.0105l-0.0516,2.9022c-0.0817,0-0.1613,0-0.2412,0
		C563.3094,165.9824,562.7506,164.6094,563.1303,163.7117z M561.7464,192.0217c-0.0334-0.3299-0.0443-0.6282,0.3746-0.5021
		c0.0781-0.3016-0.1562-0.9156,0.1275-1.0075c4.3607,0,8.7231,0,13.0873,0c-0.0178,0.3637,0.069,0.8211-0.1279,1.0075
		c0.4952-0.1595,0.3746,0.2979,0.376,0.6264c0.08,0.2587,0.6387,0.0371,0.5076,0.5054c0,9.4718,0,18.9396,0,28.4111h-15.0811
		c0.0233-9.6099,0.0799-19.1823,0.2307-28.6647C561.2003,192.0624,561.947,192.5166,561.7464,192.0217z M559.4792,163.8392
		c0.1631,0.1704,0.5464,0.1224,0.8818,0.1224c0.0087-0.1755,0.0229-0.3528-0.1242-0.376c0.1471-0.3386,0.3284,0.3284,0.5021,0.376
		c0.0018,0.3764,0.3281,0.4276,0.376,0.7557c-0.2376,0.6478,0.0781,1.0751,0,1.886c-0.3848,0.0974-0.2394-0.3426-0.626-0.2485
		c-0.3746,0.0854-0.5519,0.3728-1.134,0.2485C559.6442,165.8564,558.5604,164.524,559.4792,163.8392z M547.4017,192.0217
		c-0.2129-0.6315,0.3975-0.4418,0.6297-0.6282c0.0763-0.3015-0.1577-0.9116,0.1242-1.0093
		c1.9994,0.2271,4.4689-0.0214,6.4166,0.2536c-0.1791,10.0818-0.2198,20.3021-0.3564,30.4246h-7.8536
		c0.1384-9.5121,0.3176-18.9803,0.4098-28.5368C546.7703,192.146,547.4053,192.4014,547.4017,192.0217z M533.0588,192.3978
		c0.1275-0.275,0.3335,0.016,0.4999-0.2518c0.1298-0.2024-0.2001-0.6369,0.1298-0.7524c0.307-0.0193,0.6031-0.0229,0.7538,0.1261
		c0.0763-0.3423-0.1595-0.997,0.1224-1.1354c1.1761,0,2.3525,0,3.525,0c-0.1312,10.1796-0.5355,20.4812-0.6314,30.6782h-5.1058
		C532.6079,211.5238,532.7446,201.8765,533.0588,192.3978z M145.2775,205.6089l0.0018,0.2234l-0.5464-0.0033l-0.0036-0.2238
		L145.2775,205.6089z M95.4627,209.9713l-0.0036,0.0073l-0.0055-0.0073H95.4627z M37.3009,209.9677l-0.0091,0.0142l-0.0015-0.0142
		H37.3009z"/>
</g>
</svg>
