<?xml version="1.0" encoding="utf-8"?>
<!-- Generator: Adobe Illustrator 18.1.1, SVG Export Plug-In . SVG Version: 6.00 Build 0)  -->
<svg version="1.1" id="brussels" xmlns="http://www.w3.org/2000/svg" xmlns:xlink="http://www.w3.org/1999/xlink" x="0px" y="0px"
	 viewBox="0 0 1002.7963 143.7288" enable-background="new 0 0 1002.7963 143.7288" xml:space="preserve">
<g>
	<path   d="M999.6945,122.3549l0.2332-3.9229l-6.6891,0.0336l0.6002-10.6985l-8.8253-0.7097h-1.5045l-2.0811-0.1678
		l0.231-4.6077l-9.5259-0.3901l-4.5585,0.0018l0.3019-6.901l-6.691-0.0018l-2.6921,0.0741l-0.0354,0.8634l-17.1563-0.0018
		l-0.4606,0.0108l-4.2725-0.0018l-0.909,0.0228l0.0282-0.9726l-6.9116-0.0018l-2.2597,0.0936l-0.1486,5.9758l-0.6743,0.0018
		l-0.7325-0.0441l-10.9263,0.0033l0.1273-6.6783h-1.6631l-0.3337,0.0228l-0.0654,3.561h-3.2888l0.1237-7.4466l-14.0494-0.0087
		l-0.4679,0.12l-1.4899,0.3778l-0.4115,0.1041v0.0828l-25.0085-0.0123l-0.0778-12.9492l-0.6552-0.0477l-0.9266-0.0018
		l-0.6516,0.0459l-0.1464,12.9528l-1.5308-0.0018l-0.0141-3.0787l-0.1024-0.2827l-8.7725,0.0108v0.03l-5.3756,0.0069l0.0159,1.5959
		l-15.8236,0.0177l0.0886,4.9891l-6.1827,0.0036l-0.0513-2.3465l-0.7239-0.0687l-3.1618-0.3073l-0.0723-46.8825l-42.3807-0.3619
		l-1.5818,5.2328l0.0018,5.021l-18.5967-0.1237l-1.4408-6.9875l-6.2195-0.0495l0.0036-4.7877l-0.9216-2.9181l-2.0001-0.0177
		l0.0069-5.5134l-0.0123-0.1359l-0.547-1.7091l-0.3287-0.0051l-0.201-9.1557l0.0246-0.0051l-0.0264-0.0955l-0.0159-0.5738
		l-0.0513-0.0705l0.0072-1.7319v-0.1978l-0.09-0.1359l-1.4017-5.1092l-0.0073,7.0088l0.1168,0.4147l-0.2773,9.6323l-0.8685-0.0087
		l-0.0072,7.3563l-2.5139-0.0228l-0.0087,7.7095L733.39,47.3971l-0.0828,58.2903l-36.1471,0.1378l-1.114-2.9518l0.3406,0.2014
		l-0.5261-0.7011l-0.0159-0.0369l-0.0246-0.0159l-2.6835-3.5678l0.2101,0.0405l-0.397-0.2665l0.0032-0.0036l-0.3424-0.2278
		l-0.0177-0.0246l-0.0264-0.0036l-2.4452-1.64l0.0141,0.0033l-0.5879-0.3883l0.1114-0.0882l-0.3547-0.0741l-0.1873-0.1218l0,0
		l-0.0636-0.0141l0.0018-0.0123l-0.5561-0.1182l-0.0087-0.0072l-0.0427-0.0036l-0.1323-0.0228l-0.662-0.1464l0.0582,0.0441
		l-0.2188-0.0372l0.0087-1.4777v-0.0582l-0.0423-0.0651v-0.0759l-0.0687-0.0231l-0.2932-0.436l-0.0018,0.3391l-0.1855-0.0618v0.03
		l-0.111-0.0108l-0.205-0.0333v0.0141l-0.0601-0.0072v-0.0054l-0.1692-0.0105l-0.1942-0.0177v0.009l-0.1395-0.0072v-0.0069
		l-0.1732-0.0018l-0.1906-0.0108v0.0072l-0.1077-0.0018l0.0423-8.728l-0.0032-0.055l-0.0073-0.0123l-0.0072-0.0636l-0.021-0.0105
		l-0.0036-0.0246l-0.0264-0.0054l-0.0037-0.009l-0.0018-0.0051v-0.009h-0.0069l-0.2827-0.5065l-0.0015,0.3178l-0.1873,0.1764
		h-0.0073v0.0072l-0.0015,0.0018l-0.039,0.0033v0.009l-0.0355,0.0036v0.0123l-0.0282,0.0051v0.0213l-0.0159,0.0054v0.051
		l-0.0087,0.0054l-0.0387,8.8057l-0.1327,0.0072l-0.1764,0.0018v0.0069l-0.1555,0.0072v-0.0072l-0.1942,0.0177l-0.1692,0.0072
		v0.0051l-0.0886,0.0108v-0.0126l-0.2047,0.03l-0.1464,0.0127V93.794l-0.2191,0.0582l-0.0069,0.0018v-0.1218l-0.2632,0.1923
		l-0.1024,0.0264v0.0495l-0.0882,0.0654v0.0918l-0.0036,0.9867l-0.0018,0.5102l-0.3496,0.0618l0.1486-0.1077l-0.9289,0.2455
		l-0.035,0.0036l-0.009,0.0069l-0.4802,0.1255l-0.0495,0.0336l-0.0051-0.009l-3.5204,2.3483l-0.0319,0.0087l-0.0228,0.03
		l-0.837,0.5561l0.5033-0.1218l-2.4839,3.3068l-0.0159,0.0033l-0.0123,0.0354l-0.2064,0.2773h0.0015l-0.0123,0.03l-0.0105,0.0141
		h-0.0036l-0.0051,0.0123l-0.0495,0.0654l0.0264-0.0054l-1.2745,3.3419l-42.0929,0.1591l-3.697-0.9748l-0.0369-0.0141l-3.8698,0.722
		l0.0015,0.0108l-2.2861,0.939l-0.5825-0.021l0.0264-0.0441l-0.0528,0.0441l-0.6146-0.0249l0.0213,0.4892l-0.0972,0.0759h-0.0369
		l-0.025,0.0387l-0.8048,0.3319l0.3987-0.0018l-3.3259,2.6198l-0.1201,0.009l0.0036,0.0828l-0.406,0.3178l0.4183-0.0336
		l0.521,11.7119h-7.5121l-3.0595-14.7396c1.4072-1.0521,2.3252-2.7345,2.3252-4.6377c0-2.7222-1.8715-4.9996-4.3854-5.6052
		l-0.6707-3.4619c1.5218-0.8298,2.5544-2.4557,2.5544-4.3253c0-2.7153-2.1783-4.915-4.8655-4.915
		c-0.8366,0-1.6241,0.2155-2.3129,0.5897l-12.2199-12.1353c0.5366-0.897,0.8507-1.9419,0.8507-3.0649
		c0-3.2746-2.6321-5.9317-5.8753-5.9317c-3.2446,0-5.8771,2.6571-5.8771,5.9317c0,1.068,0.2842,2.0674,0.7734,2.934
		l-12.3949,12.1198c-0.722-0.4274-1.559-0.6779-2.4575-0.6779c-2.6889,0-4.8672,2.1997-4.8672,4.915
		c0,1.9788,1.1617,3.6807,2.8317,4.4595l-0.1887,3.2641c-2.6517,0.5015-4.6608,2.8458-4.6608,5.6671
		c0,2.2138,1.234,4.133,3.0436,5.1001l-3.6969,14.5136h-3.5906l0.7361-20.8337l-7.7908-11.2209l-10.1793-0.0213l-3.4214,1.6382
		l-3.2573,5.0792l-41.5722-0.0582l0.0018-0.9744l-1.5091-3.6792l-2.0038-3.0823l-2.3924-2.3483l-2.6639-1.5287l-9.9779-0.0231
		l-2.7735,1.5185l-2.4843,2.3407l-2.0742,3.079l-1.55,3.681l0.0123,0.9762l-41.1572-0.0582l-3.4706-5.1323l-4.163-1.6646
		l-10.3734-0.0195l-8.1582,11.3182l0.0496,1.0735l-6.2636-0.0036v-0.0123l-0.226,0.0123h-0.2173v0.0141l-0.6992,0.0387
		l-1.0167,0.0582l-9.2913-0.0033l-1.7037-0.0018l-0.0123-5.3069l-0.0127-5.1356l0.461,0.0018l-0.461-0.341l-0.0015-0.1092h-0.1486
		l-4.3763-3.2309l-0.0072-5.8522l-0.0087-5.9954l0.1746,0.0014l-0.1746-0.2892l-0.0018-0.1609h-0.0973l-0.3475-0.572l-1.0999-1.8078
		l-0.0018-1.5941l-0.0091-6.8888l-0.3037-0.3901V64.774l-0.081-0.0354l-0.1942-0.2469l-0.0018-1.6118l-0.2878-0.3865v-0.0709
		l-0.0796-0.0351l-0.3355-0.4469l0.0018-0.021h-0.0018l0.0018-0.0213l-0.0369-1.0539h-0.0018v-0.0213l-0.1359-1.0431l0,0
		l-0.0018-0.0213l-0.2314-1.0257h-0.0014l-0.0054-0.021l-0.325-0.9975h-0.0014l-0.0072-0.0213l-0.4165-0.9621l0,0l-0.009-0.0195
		l-0.5065-0.918l0,0l-0.0105-0.0192l-0.5897-0.8652l0,0l-0.0109-0.0177l-0.6671-0.8066h-0.0018l-0.0123-0.0159l-0.7416-0.7397
		v0.0018l-0.0141-0.0159l-0.8052-0.6674l0,0l-0.0177-0.0123l-0.3474-0.2383v-0.1218l0.0315-0.0723l-0.0315-0.0441V51.747
		l0.8967,0.4715l-0.9853-0.8193l-0.0105-0.0141v-0.0654l-0.0705-0.0387l-0.3724-0.5351v0.2083l-0.0286-0.0141l-0.3742-0.5366v0.2842
		l-1.3504-1.1226l0.03-0.4133l-0.039,0.0318v-1.6205l0.0691-0.0072v-0.0018l0.0195-0.0018l0.1201-0.021V47.524l0.0246-0.0051
		l0.0018,0.0051l0.0069-0.0018l0.3286,0.8616v-1.1635l0.0105-0.0264l-0.0105-0.03v-0.1464l-0.0159-0.0391v-0.1182l-0.0514-0.0369
		v-0.0391l-0.0246-0.0087l-0.3673-0.978v0.7571l-0.0528-0.0351l-0.0018,0.1041l-0.055-0.0195v-0.0528h-0.4447v0.0636l-0.0405,0.0123
		V46.546l-0.0759,0.0441l-0.0091-0.3829l-0.3337,0.5525l-0.0282,0.0087v0.0354l-0.0582,0.0336v0.0669l-0.0228,0.0409v0.0615l0,0
		v0.1819l-0.0126,0.0268l0.0195,0.0441l0.0159,0.692l0.2701-0.4415l0.0105,0.0054l0.0018-0.0072l0.0268,0.0141l0.1146,0.0231
		l0.0036-0.0108l0.0177,0.0036l-0.0018,0.0108l0.1023,0.0123L355.7,49.5596l-1.2745,1.0771l-0.1291,0.0864l0.0018-0.9639
		l-0.4096,1.2394l-0.0069,0.0051l0.0033-0.9198l-0.4093,1.2622l-0.0336,0.0231v0.0846l-0.0072,0.0231l-0.141,0.1182l0.1146-0.0405
		l-0.0036,0.0087v0.0687h-0.0105v0.5951l-0.0228,0.0723l-0.3514,0.3655l0,0l-0.0105,0.0105l-0.6656,0.7821l0,0l-0.0109,0.0108
		l-0.5188,0.692l-0.5333,0.5684l0.2509-0.1641l-0.175,0.2665l-0.3619,0.4397l0.1237-0.0813l-0.2169,0.376l-0.2686,0.371
		l0.0832-0.0532l-0.1041,0.1782l0,0l-0.0072,0.0127l-0.1537,0.3052l-0.1906,0.3019l0.0564-0.0351l-0.1764,0.3478l0,0l-0.0054,0.0105
		l-0.0969,0.2242l-0.1378,0.2614l0.0372-0.0231l-0.2119,0.4838l0,0l-0.0054,0.0123l-0.0882,0.2473l-0.0618,0.1359l0.0159-0.0105
		l-0.2173,0.5966l0,0l-0.0036,0.0123l-0.2947,0.9852l-0.0036,0.0123l-0.2328,1.0008l-0.0036,0.0141l-0.1746,1.0116l0,0
		l-0.0018,0.0141l-0.0123,0.1168l-0.0814,0.0228v0.039l-0.2065,0.1164l0.0033-1.2394l-0.4129,1.4741l-0.0336,0.0195v0.0987
		l-0.1023,0.3569v0.0618h-0.0072l-0.0032,1.5818l-0.0213,0.0105l0.0018-1.2376l-0.4133,1.4618l-0.0351,0.0195v0.1005l-0.1027,0.3619
		v0.0618h-0.0087l-0.0195,8.9453l-0.7343,1.2994l-0.1978,0.3496h-0.0936v0.166l-0.1587,0.2806l0.1587,0.0018l-0.0141,5.953
		l-0.0141,5.9371l-2.1748,1.64l-2.0974,1.5818l-0.1464-0.0018l-0.0018,0.1128l-0.4469,0.3355l0.4451,0.0018l-0.0159,5.0951
		l-0.0177,5.4002H339.7l-9.0917-0.0018l-0.9693-0.0915v-0.0213h-0.2137l-0.2328-0.0213v0.0213l-8.6011-0.0018h-3.0208V88.4502
		l-1.5182-1.8063l-0.0159-0.0033l-0.1255-0.0018h-0.166l-0.1059,0.0018l-0.7025,0.828l-0.4465-0.5333l-0.0159-0.0036l-0.1273-0.0018
		h-0.1642l-0.1059,0.0036l-1.5182,1.7883v1.6418l-19.7975,0.0268V72.4534l-0.6674-1.3858v-9.9302l-0.9675-3.1304l-0.0069-0.0033
		h-0.0832h-0.1041l-0.0687,0.0014l-0.9657,3.1195v9.791l-0.0655,0.1345l-0.1537-0.0054V55.6255l-0.9303-0.03v-9.2031
		l-2.9359-18.7099l-0.1678-0.0036l-0.3496-0.0033l-0.3265,0.0033l-0.1128,0.0072l-2.9359,18.7153v9.189l-0.9288,0.0477v15.4085
		l-0.1819,0.0087l-0.0387-0.0795V61.153l-0.9657-3.13l-0.009-0.0018h-0.081h-0.1059h-0.0673l-0.9672,3.1195v9.6163l-0.6729,1.3931
		v18.2612l-12.6281,0.0159v-1.9224l-1.7951-2.1502l-0.0159-0.0036h-0.15h-0.196l-0.1273,0.0018l-1.7973,2.1325v1.9473
		l-3.9066,0.0054v-1.5345l-1.1353,0.0018v1.1053l-0.8225,0.0018l-0.0141-0.0264l-0.0141,0.0264h-0.5633v-1.1053l-1.1353,0.0018
		v1.5341l-3.6933,0.0054v-1.6509l-0.0456-0.0546V88.413l-0.1255-0.15l0,0l0,0l-1.2994-1.55l0.7625-0.0036v-0.9498l-1.324,0.009
		v0.683h-0.0705l-1.5164,1.7901v12.2203l-22.3786,0.0105l0.0072-0.7943h-0.5261l-6.3804-10.769l-5.2469,0.9798l-6.8566-8.6329
		l-9.7295,0.0582l-5.3825-6.3696l-0.286,0.0036l-3.1268-5.8753l0.0177-3.3104l0.7661-0.0387l0.8316-0.3847l0.0228-3.877
		l-0.7571-0.1305l-1.3558-4.253l-1.6473-6.0908l-0.9321,3.5346l-2.2634,6.8761l-0.8384,0.085l-0.3301,0.2065l-0.0213,3.8556
		l0.7097,0.2278l1.58,0.0759l-0.0195,3.2464l-1.0026,0.0123l-0.5138,0.5405l-2.7627,5.8044l-0.8865,0.7029l-3.9207,5.2943
		l-10.5557,0.0636l-5.2802,9.4095l-0.175,0.1327l-5.6175,8.9894l-0.0018,0.7857l-10.5235,0.0018l-0.0228,0.7148l-35.4269,0.009
		v-3.4182l-0.5666-0.0528l-9.6923-12.464l-0.4447-0.1305l-12.7395,0.0795l-3.1336,3.642l-0.0105-6.9011l-0.3442-0.0846l1.114-0.0108
		l-1.4672-1.5782l-0.2647-3.5715l-0.8157-1.4404l-0.3992-0.1359L76.674,75.492l-0.0054-3.6546l-1.7478-4.9714l-1.8096,5.0246
		l0.0072,3.5114l-0.4274,0.0051l-0.8243,1.3772l-0.2596,3.5874l-1.5041,1.4882l0.7943,0.1801l0.0423,19.5256l-20.4522,0.0054
		l-2.558,9.5683l0.4378,0.0018l-1.003,0.085l0.0177,4.5459l-9.8475-2.4875l-8.188,2.378l-10.4425-5.9881l-3.0312-0.0072
		l-12.4744,7.4944l1.5748,0.0069l-1.5677,0.1678l0.0353,5.0191H0v21.3738h1002.7963v-21.3738H999.6945z M31.3715,122.3549
		l-0.0265-5.261l13.2336,0.0795l2.8071-0.3833l0.021,5.5647H31.3715z M598.5438,93.8309c0.5952,0.3496,1.2659,0.5774,1.9861,0.6447
		l0.5738,2.95c-0.307,0.0846-0.6038,0.1978-0.888,0.3319l-3.0172-2.673L598.5438,93.8309z M597.8799,99.4784l-4.1134-1.1913
		l1.3472-1.2589L597.8799,99.4784z M567.8627,97.872l1.0416,0.897l-3.1549,1.008L567.8627,97.872z M567.1935,93.5467l0.9339,0.2719
		l-0.3037,0.2719L567.1935,93.5467z M562.2434,94.1964c0.3583-0.0564,0.7025-0.1519,1.0275-0.2824l2.4257,2.092l-2.1824,1.9651
		c-0.4411-0.3037-0.9285-0.5438-1.4477-0.717L562.2434,94.1964z M575.6836,122.3549H556.85l3.5273-13.8462
		c1.1385-0.0159,2.1961-0.3637,3.0805-0.9585l12.4676,11.4997c-0.2368,0.6447-0.3728,1.3381-0.3728,2.0638
		C575.5527,121.541,575.6004,121.9543,575.6836,122.3549z M580.0599,115.3515c-0.9516,0.2296-1.8114,0.6902-2.5211,1.3258
		l-12.1867-11.2368c0.4238-0.8052,0.6656-1.7232,0.6656-2.6994c0-0.0195-0.0036-0.0405-0.0036-0.0582l5.4201-1.7319l5.8312,5.0242
		c-0.1891,0.4997-0.295,1.038-0.295,1.6049c0,2.032,1.3312,3.7479,3.1585,4.3094L580.0599,115.3515z M569.9901,95.9583l1.345-1.2109
		l4.4385,1.285c-0.025,0.1855-0.0409,0.3724-0.0477,0.5597l-3.6474,1.1653L569.9901,95.9583z M580.3054,103.2285
		c-0.4468,0.1164-0.867,0.3019-1.2481,0.5434l-4.4489-3.8343l1.7141-0.5474c0.7803,1.5695,2.242,2.7312,3.9988,3.079
		L580.3054,103.2285z M580.5509,91.116c-1.5168,0.2365-2.8336,1.0731-3.7075,2.2648l-3.0172-0.8757l4.0975-3.6879
		c0.7821,0.5174,1.6824,0.8634,2.6535,0.9939L580.5509,91.116z M575.023,83.4061c0,1.2307,0.346,2.378,0.9375,3.3578l-5.3438,4.8109
		l-4.3694-1.2676c0.06-0.3088,0.0936-0.6284,0.0936-0.9567c0-0.7698-0.1801-1.4954-0.4928-2.1451l12.4235-12.1476
		c0.9126,0.5893,1.9933,0.9353,3.1582,0.9353c1.1089,0,2.1415-0.316,3.0259-0.8562l12.2308,12.1462
		c-0.3619,0.6884-0.5665,1.4705-0.5665,2.302c0,0.166,0.0087,0.3283,0.0245,0.4892l-3.3806,1.0785l-5.5716-4.936
		c0.4093-0.8511,0.6443-1.8027,0.6443-2.8108c0-3.5715-2.8707-6.4683-6.4068-6.4683
		C577.892,76.9378,575.023,79.8346,575.023,83.4061z M586.6326,99.182l1.5323,0.4451l-4.4135,4.1167
		c-0.1996-0.1251-0.4078-0.2365-0.6266-0.3265l0.0228-1.1035C584.703,101.8177,585.9688,100.6669,586.6326,99.182z
		 M583.3699,91.3893l0.0355-1.8324c0.7451-0.2437,1.4299-0.6215,2.0283-1.1053l4.1843,3.7074l-3.6456,1.1617
		C585.3137,92.4451,584.4116,91.7689,583.3699,91.3893z M587.1215,96.3593c-0.0105-0.1345-0.0282-0.2686-0.0459-0.401l5.0209-1.6028
		l0.8843,0.7835l-2.3884,2.2265L587.1215,96.3593z M582.8829,115.3725l0.0723-3.5642c1.7105-0.6302,2.934-2.2825,2.934-4.2281
		c0-0.5861-0.1146-1.144-0.316-1.6559l5.7676-5.376l5.6443,1.6368c-0.0354,0.2596-0.0618,0.5224-0.0618,0.7925
		c0,1.0471,0.2824,2.0269,0.7643,2.8726l-12.3631,10.8323C584.6357,116.0645,583.8027,115.6093,582.8829,115.3725z
		 M587.1728,122.3549c0.0846-0.4006,0.1323-0.8139,0.1323-1.2412c0-0.7256-0.1359-1.4191-0.3742-2.0638l12.7322-11.1555
		c0.8667,0.5366,1.8837,0.8526,2.9764,0.8526c0.2473,0,0.4892-0.021,0.7292-0.0528l2.8353,13.6607H587.1728z M760.7805,62.7015
		l18.6039,0.0987l0.0036,37.4993l-1.7814-0.0777l-3.3083,0.1605l-0.1732,0.5492l-4.5354,0.0087l-0.0018,7.1465l-4.5068,0.0177
		v-0.6092l-4.3253,0.0141L760.7805,62.7015z"/>
	<polygon   points="315.5667,0 314.2832,0.0072 314.2832,0.927 315.5667,0.918 	"/>
</g>
</svg>
