<?xml version="1.0" encoding="utf-8"?>
<!-- Generator: Adobe Illustrator 18.1.1, SVG Export Plug-In . SVG Version: 6.00 Build 0)  -->
<svg version="1.1" id="budapest" xmlns="http://www.w3.org/2000/svg" xmlns:xlink="http://www.w3.org/1999/xlink" x="0px" y="0px"
	 viewBox="0 0 1000.7938 80.9584" enable-background="new 0 0 1000.7938 80.9584" xml:space="preserve">
<g>
	<path   d="M999.1219,70.8764l-0.0349-6.7881l-0.6779-0.502l-0.0072-1.5909l-0.7059-0.7936l-0.0068-1.935
		l-4.8286-7.2833h-8.895l-0.1406-1.2748l-0.1334,1.2748h-1.2151l-0.0805-0.7516l-0.0809,0.7516l-0.79,0.0036l-0.0036-2.7006
		l-0.0104-0.6602h-0.2776l-0.0176-0.0421l-0.242,0.0176l-0.4707-7.754l-0.4495,7.7572l-0.246-0.014l-0.0173,0.0388h-0.2844v0.7059
		v2.6513l-17.6044,0.0068l-0.0561-0.2316l-0.0525,0.2316h-0.5023l-0.0701-0.2844l-0.0597,0.2388l-0.246-0.6883l0.0316-11.648
		l0.3794-0.0493l0.0104-3.775l-0.0525-0.1334l-0.9307-2.2723l-0.5621,1.2643l0.014-4.4248l-0.1755-0.4668l-0.7796-0.1618
		l-1.4995-12.0975l0.0036-1.3837l-0.0281-0.0633l-0.1546-0.0457h-0.1895l-0.1194,0.0457l-0.0036,1.3837l-1.6293,12.045
		l-0.9727,0.2247l-0.0176,4.3087l-0.1089,0.4182l-0.4319-1.0396l-1.0324,2.2615l-0.0176,3.7995l0.1089,0.109l0.2456,0.028
		l-0.0457,10.2226h-0.0068l-0.0072,1.7207h-0.3021l-0.014,2.8973h-0.1999l-0.0141,2.6337h-0.3582l-0.123,0.0104l-0.0633,13.8045
		h-3.6941l0.4002-13.8851l-0.2808-0.0316l0.0914-3.3011l-0.4848-0.0245h-0.4286l0.0284-0.9411l-0.0773-0.0036l-0.2247-0.2319
		l0.2175-0.3898l-0.4247-0.3333l-0.4322,0.3265l0.1758,0.3934l-0.2144,0.228h-0.0877l-0.0071,0.2355l-0.1019-0.0036l-0.4459-0.1334
		l0.0036-0.1474h-0.0845l-0.2071-0.2179l0.2071-0.3758l-0.4074-0.3229l-0.4106,0.3161l0.1686,0.379l-0.1089,0.1194l-1.0993-0.3265
		l-1.1798,0.3265l-0.0701-0.0737l0.2106-0.3898l-0.411-0.3333l-0.4214,0.3301l0.1723,0.3898l-0.2108,0.2316h-0.0421v0.0633
		l-0.425,0.1158h-0.0597l0.0068-0.2352l-0.0769-0.0036l-0.2039-0.2176l0.2003-0.3758l-0.397-0.3197l-0.4003,0.3161l0.165,0.3758
		l-0.1931,0.2176h-0.0561l-0.0212,0.9098h-0.5197v0.014h-0.4074l-0.028,1.1622l-1.0324-0.0982l0.0316-1.4258l-0.2985-0.014h-0.4495
		l-0.0389-0.0036l0.0176-0.7516h-0.056l-0.1723-0.1859l0.1615-0.3092l-0.3194-0.2668l-0.3232,0.2632l0.1334,0.3128l-0.1615,0.1823
		h-0.0665l-0.0036,0.1863l-0.0809-0.0036l-0.1439-0.0457V52.377h-0.0597l-0.1614-0.1758l0.1578-0.2985l-0.3088-0.2596
		l-0.3125,0.2564l0.1262,0.3017l-0.1158,0.137l-0.9799-0.3053l-1.0288,0.3053l-0.0949-0.1054l0.1547-0.3125l-0.3126-0.2632
		l-0.3161,0.2596l0.1298,0.3128l-0.1578,0.1859h-0.0281l-0.0036,0.1054l-0.1474,0.0457h-0.0421l0.0032-0.1895l-0.0561-0.0072
		l-0.1578-0.1719l0.151-0.3021l-0.3021-0.2564l-0.3056,0.2528l0.1265,0.3057l-0.1478,0.1719h-0.0421l-0.014,0.7303h-0.3021
		l-0.0032,0.0108h-0.3794l-0.0212,1.022h-1.036H920.766l0.095-7.3714l0.653-0.8706l-5.5486,0.0032l-0.6602,0.2179l0.5901,0.7972
		l-0.0421,4.2454l-5.4188-1.9138l-11.8167,0.0036l-3.7365,1.3974l-0.0105-3.7186l0.548-0.7972l-0.2144-0.2143l-5.5097,0.0036
		l0.5969,0.8638l0.0349,7.3429l-11.5848-0.0036l-0.014-1.2571h-0.425v-0.0104h-0.3229l-0.0072-0.7127h-0.0525l-0.1547-0.1722
		l0.1334-0.3021l-0.288-0.2528l-0.2808,0.2564l0.1298,0.3021l-0.1298,0.1687l-0.0597,0.0032l-0.1406-0.1543l0.137-0.3093
		l-0.2985-0.2596l-0.2845,0.2596l0.1298,0.3093l-0.1334,0.1755l-1.1446-0.3686l-1.0151,0.3405h-0.0349l-0.1582-0.1722l0.137-0.3017
		l-0.2985-0.2532l-0.2808,0.2564l0.1298,0.2985l-0.137,0.1758h-0.0421l0.0036,0.214h-0.0389l-0.0032-0.1791h-0.028l-0.1723-0.1859
		l0.1406-0.3093l-0.3057-0.2596l-0.2916,0.2632l0.1338,0.3089l-0.1442,0.1863h-0.0316l0.0108,0.6919l-0.0913,0.0068v0.0352h-0.014
		h-0.5092l-0.2075,0.014l0.0248,1.6365l-1.4503,0.1262l-0.0248-1.4186h-0.4319l-0.0036-0.014h-0.4811l-0.014-0.899h-0.0737
		l-0.2035-0.2107l0.1755-0.3758l-0.3794-0.3125l-0.3614,0.3161l0.1683,0.3722l-0.1683,0.2143l-0.0984,0.0036l0.0035,0.2352h-0.0737
		l-0.0561-0.0212l-0.0036-0.1719h-0.0669l-0.2175-0.2283l0.1827-0.3862l-0.397-0.3265l-0.3793,0.3301l0.1791,0.3862l-0.1226,0.151
		l-1.3137-0.397l-1.1725,0.3722l-0.1619-0.1683l0.1758-0.3758l-0.3898-0.3125l-0.369,0.3157l0.1758,0.3758l-0.179,0.2143
		l-0.0598,0.0036l0.0032,0.2003l-0.2247,0.0701l-0.0913,0.0036l-0.0068-0.2247h-0.0389l-0.2247-0.2319l0.1863-0.3862l-0.4075-0.3265
		l-0.3862,0.3301l0.1827,0.3862l-0.1967,0.2316l-0.0388,0.0036l0.0176,0.927l-0.0209,0.0036h-0.6426l-0.3337,0.0212l0.0773,3.5291
		l-0.2215,0.0352l0.274,13.0562l-1.3132-0.3582l-1.2784-0.151l-0.1262-3.5186l-3.6136-3.35l-0.4811-14.1451l-0.0352-0.0421
		l-3.3817-17.1513l-1.2395,9.2567l-0.5024-2.2191h-0.4563l-0.0633,0.4038l-9.5764,0.014l-0.5336,3.5222l-1.3381-7.1779
		l-0.9482,7.1811l-1.1694,0.0036l-2.0119-10.9177l-1.5031,11.4445l-1.1378,0.2176l-0.46,0.7692l-3.6733,0.0036l-2.7814,0.5372
		l-1.6189-9.2111l-1.4678,11.3075l-10.6473,0.0176h-1.475l-0.214-11.0827h-0.6077l-2.4686-14.9355l-1.2078,9.4959l-1.2432-7.617
		l-1.2748,10.0223l-9.8187,0.0212l-0.4847,0.3405l-1.415,0.0036l-1.8541-12.1472l-0.9763,7.8417l-0.9062-5.9873l-1.7944,14.4119
		l-0.2492,0.1827l0.1122,9.7483l-3.1989,0.0036l-3.2658-4.1825h-0.4006l-0.0982-0.5793l-1.6153,0.0032l-0.7271-5.1692l-0.639,5.1728
		h-0.5652l-0.4639,0.4002l-0.0245,0.1791l-2.0579,0.0036l-0.077-0.4355l0.0032,0.4355h-0.0068l-0.0353-5.1271L771.46,37.375
		l-0.0316-4.6215l-0.5513-0.0457l-0.0457-6.6896l-2.2126-11.392l-2.0612,11.5815l0.0352,6.5177l-0.4919,0.0388l-0.0525,0.1755
		l0.0245,4.4597l-0.6495,0.0424l-0.0529,0.1791l0.0248,5.0041l-0.2563,2.3492v0.3161h-1.1274l-0.4847-0.7235l-0.014-5.2465
		l-0.0036-0.0068v-0.2985l-3.4133-5.1167l0.0072,2.3949l-0.0457-0.0773l-0.0212-6.4684l-0.0457-0.3405l-1.1586-5.4889
		l-2.6445-4.1368l-4.3403-4.5018l-0.3794-1.0853l0.4459-0.6987l0.0281-1.5384l-0.7092-0.7584l0.0457-2.7006l-0.3862-0.639
		L750.5056,0l-0.3826,7.8381l-0.3862,0.6145l0.0457,2.7078l-0.7095,0.7199l0.0281,1.5416l0.4459,0.7231l-0.4564,1.282
		l-4.2774,4.4176l-2.6757,4.1544l-1.1694,5.4885l-0.0104,4.7477l-3.382,5.2221l-0.0245,4.3824l-0.3862-0.2737l-1.0889,1.7663
		l-0.776,0.0036l0.0036-0.5761l-0.4354-2.4862l0.0212-4.7373l-0.2215-0.1827l-0.5408-0.0316l0.0212-4.4561l-0.1718-0.1755
		l-0.383-0.0284l0.0352-6.5177l-2.1036-11.5463l-2.251,11.3848l-0.0421,6.6687l-0.5616,0.0529l-0.0317,4.6107l-0.7339,0.0561
		l-0.0352,4.7585V42.049l-0.014,0.0809l-0.4142,0.0032l-0.6254-5.0955l-0.0981,0.6005l-0.0316-0.2176l-0.748,4.7125h-0.1298
		l-0.1021,0.5408l-3.1008,0.0072l-3.4273,4.1332l-2.8936,0.0036l0.1053-9.8083l-0.3406-0.1683l-1.8648-14.2893l-1.3061,8.4318
		l-1.3452-10.2895l-1.9102,12.182l-1.1554,0.0036l-0.6602-0.3373l-8.9021,0.0212l-1.3169-9.9169l-1.6225,9.7379l-1.538-11.5711
		l-2.3564,13.9343l-0.6494,0.0036l-0.2248,12.1748l-1.4014,0.0036l-9.0704,0.0108l-1.5172-11.2305l-1.5804,8.8741l-0.0209-0.0352
		l-3.3961-0.5513l-4.4385,0.0068l-0.4743-0.8145l-1.5941-0.2564l-1.4891-10.8792l-1.4891,7.9259l-0.5757-4.2173l-1.2784,6.7633
		h-0.6214l-0.4671-3.2587l-9.5836,0.0173l-0.0665-0.4002h-0.4495l-0.9518,3.6592h-0.6214l-1.4539-10.4225l-3.4064,17.0035h0.0036
		l-0.0176,0.0209l-0.4564,13.601l-0.0388,0.1122l-3.2903,3.1885l-0.123,3.5046h-0.0036l-1.3974,0.1442l-4.9059,1.1798H624.131
		l-2.0299-0.4002l0.0704-1.0572l-0.3128-0.0597l0.5164-7.9435h0.0878l0.0071-0.0561h0.3862l0.0316-0.4599l-0.4707-0.0701
		l0.0353-0.5304l-0.7339-0.1054v-0.0072l-0.1017-0.3333l-0.0914-0.3409l-0.0809-0.3405l-0.0737-0.3369l-0.0701-0.3441v-0.0352
		v-0.0809l-0.0036-0.1859l-0.0281-0.1722l-0.0388-0.151l-0.0316-0.0629l-0.0385-0.3409l-0.0316-0.3441l-0.0209-0.3405h0.1543
		l0.0176-0.2316l-0.1614-0.0212l-0.0914-0.8148l-0.3793-0.7796l-0.6426-0.6811l-0.8569-0.534l-1.0148-0.3474l-0.5513-0.0737
		l-0.1298-0.0144l-0.0493-0.0597l-0.0389-0.0597l-0.0457-0.0629l-0.0349-0.0705l-0.0352-0.0629l-0.0349-0.0705l-0.0284-0.0701
		l-0.0244-0.0701l-0.0176-0.0493h0.0104h0.0176h0.0036l0.0388-0.014l0.0701-0.0457l0.0457-0.0597l0.0349-0.0669V52.514l0.014-0.0741
		l-0.0032-0.077l-0.0248-0.0669l-0.0421-0.0633l-0.0596-0.0421l-0.0702-0.0316h-0.0035l-0.0737-0.014l-0.0773,0.0104l-0.0737,0.0284
		l-0.0634,0.0457l-0.0525,0.0561v0.0036l-0.0316,0.0665l-0.014,0.0773l0.0036,0.0737l0.0244,0.0701l0.0421,0.0597l0.0561,0.0493
		l0.0425,0.014h0.0068h0.014l0.0108,0.0036l-0.0248,0.0457l-0.0316,0.0701h-0.0036l-0.0313,0.0701l-0.014,0.0212l-0.0284,0.0457
		l-0.0457,0.0669l-0.0453,0.0629l-0.0493,0.0633l-0.0529,0.0597l-0.0457,0.0493h-0.1403l-0.5513,0.0385l-1.0468,0.2812
		l-0.9094,0.4739l-0.7095,0.6322l-0.4704,0.7408l-0.1931,0.8044h-0.1547l-0.0104,0.2316l0.1475,0.0176l-0.0597,0.3229
		l-0.0773,0.3337l-0.0737,0.3373l-0.0913,0.3301l-0.0176,0.0209l-0.0561,0.137l-0.0456,0.1615l-0.0245,0.1582l-0.0597,0.1895
		l-0.1161,0.3265l-0.1226,0.3265l-0.1301,0.3269l-0.137,0.3229l-0.0209,0.0493h-0.7023l-0.0316,0.5513h-0.4603l-0.0281,0.4531
		l0.355,0.0561l-0.0036,0.1158l0.0981,0.0176l-0.4775,7.7468h-0.3053l-0.0529,0.8637h-1.3413l0.0421-0.7303l-0.2071-0.0421
		l-0.0705-0.0104l-0.1053-0.0108l-0.1299-0.0068l-0.1475-0.0072l-0.151-0.0068h-0.1475h-0.5512l-0.0493,0.8217h-1.2291
		l0.1791-1.3589l-0.1125-0.0072l-0.4844-0.1018l-5.2149-0.6005l-5.2044-0.6987l-5.204-0.7936l-7.3257-1.2856l-7.0233-1.429
		l-7.2023-1.675l-8.9935-2.346l-8.9795-2.6722l-8.9687-2.9922l-8.9547-3.3219l-8.9198-3.6801v-0.4952l0.0353-1.1414l0.0349-1.145
		l0.0352-1.1482l0.0353-1.145l0.0385-1.1482l0.0353-1.1518l0.0349-1.1486l0.0352-1.1482l0.2881-0.5761l-0.2039-0.4635
		l-0.5653-5.8819h0.0036l-0.0984-1.1309l0.0283-0.0068l0.1263-0.1298l0.0529-0.1722l-0.0389-0.1755l-0.123-0.1266l-0.0456-0.0104
		h0.0107v-0.0176l-0.0248-0.014l0.0141-0.1194l0.0212-0.0245l0.1755-0.0457l0.1161-0.0565l0.1086-0.0629l0.0913-0.028h0.2812
		l0.1578-0.0493l0.014-0.0316v-0.0245l-0.0317-0.0457l-0.0632-0.0597l-0.2176-0.137l-0.0913-0.0316l-0.1298-0.0176l-0.0878,0.014
		l-0.2391,0.1474l-0.0525,0.0529l-0.0633,0.0316l-0.028-0.0424l-0.0317-0.0173h-0.0665l-0.0248,0.014h-0.049l-0.0316,0.028
		l-0.0949-0.1126l-0.1053-0.0805l-0.0737-0.0457l-0.095-0.0212h-0.1158l-0.0669,0.0493l-0.3333,0.137l-0.0737,0.0421l0.0068,0.0457
		l0.0248,0.0385l0.0701,0.0248l0.0701,0.0349l0.0701,0.014h0.1266l0.0878,0.014l0.0668,0.0316l0.1158,0.0877l0.0914,0.0493
		l0.0701,0.0248l0.0913,0.0173h0.0561l0.0248,0.028l-0.0036,0.0601l-0.0493,0.105l-0.014,0.0036l-0.1263,0.1266l-0.0493,0.1755
		l0.0385,0.1722l0.123,0.1298l0.0245,0.0068l-0.1719,1.1309h0.0035l-0.9622,5.9416l-0.1863,0.3898l0.246,0.5761l-0.0385,1.145
		l-0.0316,1.1482l-0.0353,1.145l-0.0385,1.1446l-0.0317,1.145l-0.0107,0.2456v0.0036l-0.0032,0.0036l-0.0036,0.014l-0.0072,0.0176
		v0.0209l-0.0032,0.0212v0.0877h0.0173l-0.0245,0.7303l-0.0281,0.8814l-0.0071,0.26v0.0457l-0.0349-0.0036l-0.0072,0.1442
		l0.028,0.1158l0.0036,0.0385l-0.0068,0.2672l-0.0108,0.4071l-0.0036,0.123l-0.0312,0.4671l-0.8113,0.26l-0.4635,0.151
		l-0.2247,0.0737l-0.0878,0.028l-7.7644,2.5215l-9.3412,2.6826l-9.325,2.3564l-9.3078,2.0403l-9.2974,1.7171l-7.5465,1.1906
		l-7.5432,0.9867l-7.5379,0.7796l-5.341,0.4391l-5.3415,0.3369l-5.3393,0.2424l-5.3432,0.1474l-5.3393,0.0529l-5.345-0.0352
		l-5.3465-0.1262l-5.3483-0.2283l-5.3533-0.3233l-5.3573-0.4179l-7.5677-0.7584l-7.5817-0.9623l-7.5904-1.173l-9.357-1.6926
		l-9.3865-2.0227l-9.4114-2.3388l-9.4394-2.6686l-7.9575-2.5495l-0.0719-0.0212l0.0158-0.0877l-0.1844,0.0316l-0.4582-0.1474
		l-0.8044-0.2564l-0.0298-0.4671l-0.005-0.1334l-0.0072-0.2071l-0.0281-0.8044l-0.028-0.748l-0.0122-0.4002l-0.0406-1.1482
		l-0.0403-1.1518l-0.0403-1.1521l-0.0406-1.1518l-0.0402-1.1518l-0.0403-1.1518l0.2456-0.5793l-0.2104-0.425l-1.0925-6.7529h-0.005
		l-0.0511-0.3233l0.0281-0.0104l0.123-0.1266l0.0385-0.1719l-0.0507-0.1791l-0.1298-0.1266l-0.014-0.0032l-0.0475-0.1054
		l-0.0018-0.0597l0.0226-0.0316h0.0529l0.0964-0.0176l0.0705-0.0212l0.0928-0.0489l0.1161-0.0881l0.0683-0.0313l0.0842-0.0176
		h0.1301l0.0701-0.0176l0.0737-0.0316l0.0687-0.0245l0.028-0.0388v-0.0457l-0.0705-0.0421l-0.3387-0.137l-0.0665-0.0493h-0.1179
		l-0.0928,0.0176l-0.0755,0.0457l-0.1072,0.0845l-0.0949,0.1158l-0.0353-0.0316h-0.0507l-0.0212-0.014h-0.0683l-0.0298,0.0212
		l-0.0334,0.0421l-0.0579-0.0316l-0.0579-0.0561l-0.2387-0.1442l-0.0878-0.0209l-0.1352,0.0209l-0.0896,0.0352l-0.2247,0.1334
		l-0.0615,0.0633l-0.0316,0.0457v0.0245l0.0176,0.0316l0.1597,0.0525h0.2844l0.0932,0.0248l0.1086,0.0633l0.1161,0.0561
		l0.1773,0.0457l0.0244,0.0245l0.014,0.1194l-0.0244,0.014v0.0176h0.0068l-0.0453,0.0104l-0.118,0.1266l-0.0421,0.1791
		l0.0529,0.1719l0.128,0.1266l0.0316,0.0104l-0.028,0.3373h-0.0122l-0.662,6.8863l-0.1284,0.2985l0.2898,0.5761l0.0421,1.159
		l0.0406,1.1518l0.0403,1.1586l0.0421,1.1518l0.0421,1.1521l0.0406,1.1518l0.0421,1.1554l0.0403,1.1446l0.0036,0.4988h-0.0018
		l-9.0111,3.7222l-9.0582,3.368l-9.0758,3.0339l-9.1006,2.7146l-9.1269,2.3913l-7.1937,1.6786l-7.2796,1.4963l-7.457,1.3237
		l-5.2958,0.8148l-5.3044,0.7232l-5.3184,0.6253l-0.1104,0.0068l-0.4775,0.1021l0.1859,1.3974l-1.2237,0.0036l-0.0547-0.8253
		h-0.5599h-0.1528l-0.1546,0.0072l-0.1474,0.0032l-0.1316,0.0108l-0.1053,0.0104l-0.0702,0.014l-0.2039,0.0421l0.0493,0.7411
		l-3.633,0.0068l0.0126-11.0651l-0.6638-0.1615l0.0105-8.0596l-0.4355-0.0032l0.0036-4.4004l0.1107-0.0597V46.207l-0.1089-0.1582
		v-0.2003h-0.137l-0.028-0.0385l-0.3373-0.0036l-0.014,0.0388h-0.1298l0.0018-2.4478l-0.2618-0.5933l-0.5653-0.7095l0.0018-2.2511
		l-0.374-0.7444l-0.042-0.9691v-0.4707h0.0701l0.0018-0.0072v-0.028h-0.0719v-0.0913h-0.0281l-0.0018,0.0036v0.0845h-0.0737
		l-0.0018,0.0068v0.028h0.0755l-0.0018,0.4811h0.0036l0,0l-0.0438,0.9691l-0.374,0.7936l-0.0018,2.2406l-0.5603,0.7692
		l-0.2582,0.611l-0.0018,2.3108h-0.0895l-0.0104,0.0068l-0.0244-0.0421h-0.274l-0.0719,0.2773l-0.023,0.0773l-0.028,0.0212v0.0773
		l-0.0737,0.2668v0.3477h0.0633v0.0068h0.0104l-0.0036,4.1897l-0.4247,0.1543l-0.0036,4.7654h-2.5477v-0.0316l-0.1737-0.9058
		l-0.1773,0.9026v0.0349h-1.1662v-0.0946l-0.4301-0.0352l0.0018-6.9111l-1.2291-0.0949l-0.109-2.2543l-0.6653-2.4794l-1.022-1.6221
		l-1.2413-1.3452v-0.8217l0.3686-0.0737v-0.8778l-0.1212-0.2668l-0.5725-0.0913v-2.0159l0.2686-0.4283l-0.0982-0.2388
		l-0.7199-0.9695l-0.5567-1.2816l-0.6056,1.2992l-0.7796,0.9867l0.1316,0.2391l0.1406,0.242v0.6077l-0.0457,0.0104l0.0331,0.1722
		l0.0126,0.0032l0.0014,1.3452l-0.7091,0.1615v0.8886l0.179,0.2528l0.1773,0.0245v0.8217l-1.2485,1.3309l-1.0288,1.6189
		l-0.6706,2.4794l-0.1072,2.2334l-1.4661,0.1158l0.0068,6.9355l-0.4038,0.0421v0.0949h-1.3643v-0.0809l-0.1755-0.9094l-0.1723,0.913
		v0.0773l-1.7872,0.0036l-0.0072-4.7477l-0.4265-0.1967h-0.1266l-0.0068-4.1861h0.0104V46.846h0.0666v-0.2949l-0.077-0.3301v-0.0913
		l-0.0284-0.0248l-0.0245-0.1018l-0.0457-0.1967l-0.237-0.0036l-0.0158-0.014h-0.1054l-0.0036-2.3669l-0.2668-0.625l-0.5743-0.7796
		l-0.0014-2.2755l-0.3866-0.8077l-0.0457-0.9867h0.0018v-0.4847h0.0737v-0.0316l-0.005-0.0036h-0.0687v-0.0877l-0.005-0.0068
		h-0.0284v0.0946h-0.0751v0.0284l0.0032,0.0032h0.0705l0.0014,0.4811l0.0036,0.0036l-0.0439,0.9831l-0.3826,0.7516l0.0032,2.2791
		l-0.5811,0.7163l-0.2704,0.5969l0.0054,2.5039l-0.4355-0.0032v0.3474l-0.0493,0.0809l0.0018,0.3197l0.0492,0.0316l0.0086,4.4806
		h-0.6829l0.014,8.1053l-0.676,0.1895l0.023,11.5499h-9.7188l0.2844-22.9171l-0.8814-0.137l-0.3003-4.8779l0.1107-9.1586
		l-1.1712-1.6434l-1.1974,1.7243l-0.014,1.1378l-0.0737,0.5937l-0.1284,0.3301l0.0176-1.5452l-0.151-0.1126l0.0018-0.1194
		l-0.3934-0.653l-0.0086-1.2363l-0.7339-1.0252l-0.402-0.9447l-0.3866-0.4391l-0.7091-0.5969l-0.6991-1.6049l-0.7303,1.6434
		l-0.7145,0.6322l-0.3898,0.4531l-0.4143,0.9551l-0.7375,1.0396l-0.0018,0.1122l-0.804,1.3557l-0.0144,1.5344h-0.1525l0.0122-1.2323
		l-0.9605-1.5628l-0.9799,1.6293l-0.0104,1.1626h-1.912l-0.1881-0.2532l-19.9515-0.0173l-0.0705-0.8569l0.0054-1.2255h-0.0493
		l-0.091-0.2319H160.93l-0.0967,0.3513l-0.0334,0.0173l-0.0018,0.9026l-3.501-0.0036l-3.6629-5.9416l0.0036-2.697l-0.5178-0.8637
		l-0.52,0.9022l-0.0014,2.3669l-6.6845-0.0104l-0.0036-2.4194l-0.511-0.8641l-0.502,0.8605l-0.0054,0.0457l0.0054,2.6581
		l-3.5276,5.9488l-3.5186-0.0068l-0.0036-0.8709l-0.0226-0.0176l-0.0687-0.3582h-0.8533l-0.0683,0.2352h-0.0352l0.0054,1.201
		l-0.0511,0.8533l-20.6822-0.0176l-0.1456,0.2355h-1.3924l-0.0104-1.1766l-1.0834-1.7207l-0.8303,1.2888h-0.0442l-0.0032,0.0245
		l-1.1291-1.8152l-0.1633,0.256l-0.6584-0.9375l-0.4179-0.9655l-0.3934-0.4603l-0.7199-0.6462l-0.7375-1.6678l-0.7073,1.6221
		l-0.7148,0.6005l-0.3898,0.4427l-0.4074,0.9515l-0.7426,1.036l-0.0054,0.8781l-0.6566,1.064l0.028,2.328l0,0l-0.1841-0.7059
		l-0.1212-1.6786l-0.151-0.0209l-0.0054-0.3057l-1.0586-1.7383l-1.0306,1.661l0.0014,0.2283l-1.8451,3.5291l-0.0054,0.6005
		l-0.0633-0.0173l-0.1687,0.4775l-0.0068,0.9587l-0.1474,0.0032l-0.0212,2.6901l-0.1298,0.0036l0.0209-2.6513l-0.142-0.0212
		l-0.1791,0.5444l-0.023,3.0796h-1.9943l-0.0072-0.014h-1.1518l-0.0475-0.1579l-0.0457,0.1579l-2.811-0.0036l-0.0967-1.5204
		l-4.5949-0.0036l0.005-1.0709l-1.6451-0.0036l-0.2388,0.0176h-1.2395l-0.7918,0.0561l-0.0036,0.9972h-2.6848l-0.2387,0.0108
		l-2.8462,0.1367l-0.0036,1.3801H68.9572l0.0018-0.885l-1.7189-0.0032l-1.2363,0.0737l-0.0018,0.8145h-3.2903l-1.9156,0.0176
		l-1.3154,3.1713l0.0036,1.2992l-0.3405,0.899l0.0633,0.0316l0.0032,3.5747l-0.2668,1.3625l-0.9637,1.5909l0.0014,1.8789
		l-0.1474-0.0072v-0.3686l-0.3003-0.1161v-0.0032h-0.0032l-1.3064,0.0349v0.0036l0.0018,0.7584l-3.273-0.1018l-0.014-6.184h-0.539
		l-0.0176,0.0245v0.109h-0.0597v0.2003l0,0l-0.0068-2.6549l-0.0809-3.4626h-0.4549l-0.0123,0.0104l-0.0018,0.0809l-1.703,0.0036
		l-0.7127-3.2414l-0.0985,0.4567L49.1532,41.94l-0.1144,0.52l-1.6538-4.8883l-1.7735,4.9304l-0.1546-0.5969l-0.1104,0.5264
		l-0.1004-0.4211l-0.5563,2.3669h-0.634l-1.7365-2.8588l-0.0705-0.0068h-0.4563l-0.5214,0.8112l-0.3039-0.014l-0.0104-2.2931
		l-0.0457-0.5865h-0.3057l-0.005-0.0104l-0.1669,0.0032l-0.4286-6.5774l-0.3617,6.5774l-0.2579-0.0032l-0.0054,0.0104h-0.1546
		l-0.0104,0.1579l-0.0298-6.0926l0.2808-0.014l-0.0122-2.7462l-0.4635-1.1097l-0.3686-1.5696l-0.3459,1.5768l-0.0158-3.0235
		l-0.0809-0.1442l-0.5549-0.0525l-1.1852-9.0604l-0.005-1.0216l-0.0158-0.0212l-0.109-0.014h-0.1406l-0.0895,0.014l0.0072,1.022
		l-1.1029,9.0424l-0.6901,0.0597l0.0212,3.5643l-0.4074-0.9587l-0.7127,1.6754l0.0159,2.7599l0.0456,0.0316l0.2438,0.0108
		l0.0529,8.8h-0.0579l0.0122,2.0648h-1.2291l-0.0122-0.1438h-0.3776l-0.0352,0.0036l-0.0701,0.9551l-0.337-1.812l-0.2355-1.8961
		l-0.2107,1.8997l-0.5178,2.9918l0.0245,3.3888l0.0036,0.7303h-0.0403l-0.0352,0.0072l0.0176,2.4614l-0.0194,0.0072l0.023,3.364
		l-0.4477-0.014l-0.0072-1.0604l-1.0008-1.6049l-0.7886-3.8067l-0.7339,3.8139l-0.9813,1.6153l0.0086,0.9939l-12.0749,1.0745
		l-5.1444,0.0841l-0.9238-0.4671l-0.028-2.4406L7.38,53.0231l-0.762-3.5679l-0.6779,3.5711l-0.6516,1.0712l-0.0647-0.1018
		l-0.8393-3.9192l-0.7447,3.9261l-1.013,1.661l0.0227,1.7699l-0.2859,0.1687l0.0104,0.9587v0.0104L1.9282,58.849l0.0421,3.3536
		l-0.7375,8.6738H0v8.8353h250.3529v-6.6896l4.295-0.2179l5.3709-0.2352l7.5853-0.2704l7.5976-0.2035l7.5975-0.1266l9.3621-0.0665
		l9.3657,0.0457l9.3725,0.1543l9.4376,0.26l6.1124,0.2388l-0.0036,0.0877l0.0036,0.1158l0.0032,0.0737l0.0072,0.0705l0.0068,0.0633
		l0.0072,0.0629l0.0104,0.0565l0.0123,0.0525l0.0125,0.0421l0.0122,0.0352l0.0122,0.0316l0.0122,0.0176l0.0158,0.0104l0.014,0.0036
		h0.0615v0.0841l-0.0018,0.0913l-0.0036,0.0982l-0.0032,0.0881l-0.0036,0.091l-0.0054,0.0845l-0.0068,0.0877l-0.009,0.0809
		l-0.0068,0.0597l-0.1722,0.0806l-0.5707,0.3549l0.0054,0.1647l-0.2143,0.0985l-0.0316,0.0212l-0.0208,0.0313l-0.014,0.0316
		l-0.0036,0.0388l0.0068,0.0385l0.0159,0.0316l0.0266,0.028l0.0298,0.0212l0.0331,0.014l0.0863,0.0245l0.028,0.0072l0.0018,0.0032
		l0.0158,0.0457l0.0173,0.0457l0.014,0.0493l0.0144,0.0457l0.0122,0.0493l0.0086,0.0457l0.0105,0.0489l0.009,0.0457l0.005,0.0493
		l0.0072,0.0457l0.0054,0.0493l0.0086,0.4247l0.0054,0.4286l0.0018,0.4247v0.4286l-0.0018,0.4214l-0.0108,0.4283l-0.0086,0.425
		l-0.014,0.4247l-0.0177,0.4214l-0.0194,0.425l-0.0226,0.425l-0.0263,0.4247l0.0878,0.028l0.1089,0.028l0.1244,0.0248l0.146,0.0245
		l0.1614,0.0248l0.1773,0.0209l0.1931,0.0248l0.2071,0.0173l0.223,0.0176l0.237,0.0176l0.2478,0.014l0.2632,0.014l0.3129-0.0176
		l0.3071-0.014l0.3039-0.0176l0.2913-0.0209l0.2863-0.0176l0.2758-0.0245l0.2632-0.0212l0.251-0.0245l0.2373-0.028l0.228-0.0284
		l0.2107-0.028l0.1967-0.0245l2.209-1.2079l-0.0528-0.411l-0.0507-0.4143l-0.0457-0.4146l-0.0474-0.4107l-0.0403-0.4146
		l-0.037-0.4143l-0.0367-0.4178l-0.0298-0.411l-0.0299-0.4179l-0.0266-0.4143l-0.0245-0.4143l-0.0212-0.4182l0.0018-0.0457
		l0.0018-0.0489l0.0036-0.0457l0.0054-0.0457l0.0069-0.0457l0.0053-0.0493l0.0068-0.0457l0.0108-0.0457l0.0104-0.0457l0.0122-0.0457
		l0.0072-0.028l0.142-0.0665l0.0262-0.0212l0.0212-0.028l0.0122-0.0352l0.0036-0.0385l-0.0054-0.0316l-0.0158-0.0352l-0.0227-0.028
		l-0.028-0.0209l-0.2089-0.0877l-0.0036-0.1651l-0.5566-0.3337l-0.0212-0.6742l1.3959-0.1615l0.0421-0.0036l0.2546-0.0281
		l0.2442-0.0316l0.2827-0.0316l4.3561-0.4988l9.3448-0.9587l9.292-0.8533l9.2902-0.7444l9.2952-0.6322l7.5537-0.4355l7.5555-0.3653
		l7.5569-0.2985l5.3486-0.1615l5.3483-0.1298l5.3515-0.0949l5.3483-0.0597l5.3433-0.028h0.0018h0.0032l5.3432,0.0072l5.3411,0.0421
		l5.3432,0.0737l5.3393,0.1158l5.3361,0.1438l7.531,0.2704l7.5238,0.3337l7.5184,0.4074l9.2391,0.5969l9.2323,0.7059l9.2182,0.8148
		l9.2603,0.9234l4.1051,0.4567l0.165,0.0173l0.2456,0.028l0.3477,0.0388l0.0597,0.0068l1.4643,0.1651l0.014,0.0036l-0.0173,0.6847
		l-0.5516,0.3301l-0.0033,0.1651l-0.2039,0.0881l-0.0317,0.0209l-0.0176,0.028l-0.0172,0.0316l-0.0036,0.0352v0.0349l0.014,0.0352
		l0.0209,0.028l0.0284,0.0212l0.1366,0.0633l0.0108,0.0316l0.0104,0.0453l0.0072,0.0457l0.0104,0.0457l0.0104,0.0457l0.0071,0.0457
		l0.0068,0.0493l0.0036,0.0457l0.0036,0.0421l0.0036,0.0493l0.0033,0.0493l-0.0209,0.4143l-0.0248,0.411l-0.0209,0.4143
		l-0.0248,0.4107l-0.0313,0.4146l-0.0352,0.4107l-0.0353,0.4146l-0.0349,0.4107l-0.0457,0.411l-0.0457,0.4107l-0.0457,0.4146
		l-0.0529,0.4074l2.3424,1.1939l0.2003,0.0245l0.2103,0.028l0.2284,0.0248l0.2388,0.0245l0.2527,0.0245l0.2636,0.0212l0.274,0.0212
		l0.2877,0.0209l0.2916,0.0176l0.3021,0.0176l0.3021,0.014l0.3124,0.014l0.2564-0.0176l0.2456-0.014l0.2319-0.0176l0.2212-0.0209
		l0.2003-0.0176l0.1895-0.0245l0.1719-0.0212l0.1547-0.0245l0.137-0.0248l0.1229-0.028l0.1054-0.028l0.0877-0.0281l-0.0316-0.4214
		l-0.0245-0.4214l-0.0212-0.4214l-0.0212-0.4214l-0.014-0.4214l-0.0104-0.4211l-0.0104-0.425l-0.0036-0.425l-0.0035-0.4214v-0.4247
		l0.0035-0.4214l0.0072-0.425l0.0068-0.0489l0.0036-0.0493l0.0068-0.0457l0.0036-0.0493l0.0104-0.0457l0.0144-0.0493l0.0104-0.0453
		l0.014-0.0457l0.0104-0.0457l0.0176-0.0493l0.0176-0.0457v-0.0036l0.0316-0.0068l0.0806-0.0248l0.0389-0.0104l0.028-0.0245
		l0.0245-0.028l0.014-0.0352l0.0072-0.0352l-0.0036-0.0349l-0.014-0.0352l-0.0212-0.0316l-0.0312-0.0212l-0.2108-0.091
		l0.0032-0.1687l-0.5688-0.3513l-0.1683-0.0701l-0.0072-0.0669l-0.0104-0.0806l-0.0072-0.0877l-0.0068-0.0845l-0.0072-0.0877
		l-0.0036-0.0913v-0.0949l-0.0032-0.091v-0.0845h0.0629l0.0141-0.0036l0.0143-0.0104l0.014-0.0209l0.014-0.0284l0.014-0.0349
		l0.0104-0.0421l0.014-0.0529l0.0104-0.0561l0.0071-0.0597l0.0036-0.0669l0.0104-0.0701l0.0036-0.0701V72.309v-0.0913l5.9873-0.256
		l9.3236-0.2916l9.2463-0.1827l9.2322-0.0805l9.2147,0.0316l7.4764,0.105l7.4656,0.1722l7.4519,0.2424l5.2709,0.2143l4.4913,0.2104
		v8.0384h401.4695v-9.5448H999.1219z M327.141,65.1908l0.0633,1.7455l-4.9652,0.1579l4.8092-17.0492L327.141,65.1908z
		 M318.0231,51.7588l1.6487,15.4162l-6.7881,0.2071L318.0231,51.7588z M310.3288,67.4631l-5.8679,0.1827l-0.7321,0.0316
		l5.2271-12.702L310.3288,67.4631z M300.9897,67.786l-6.3774,0.2496l5.2519-10.1665L300.9897,67.786z M291.6503,68.1549
		l-6.0577,0.2388l5.1606-7.9331L291.6503,68.1549z M282.3091,68.5235l-4.4334,0.1755l3.7578-5.8186L282.3091,68.5235z
		 M274.7169,68.8256l-0.5635,0.0209l-3.4838,0.1686l3.5186-4.4985L274.7169,68.8256z M266.7296,65.9952l0.3635,2.9181h0.0036
		l0.0104,0.0072l0.009,0.014l0.0068,0.0104l0.0036,0.0176v0.014l-0.0054,0.014l-0.0068,0.0104l-0.009,0.0104l0.023,0.1722
		l-3.5909,0.1722l0.1809-0.1899h-0.0069l-0.0122-0.0104l-0.0108-0.0104l-0.0068-0.014l-0.0036-0.0176l0.0018-0.014l0.0036-0.0108
		l0.0086-0.014l0.0122-0.0068l0.0122-0.0108h0.0126h0.0172l0.0126,0.0072l0.0122,0.0068l0.0104,0.0108l0.0036,0.0104l2.9023-3.0904
		L266.7296,65.9952z M259.5395,69.5523l-1.9717,0.0949l1.6977-2.2263L259.5395,69.5523z M254.1632,69.8087l-1.6556,0.0809
		l1.4449-1.6998L254.1632,69.8087z M253.2519,68.2287l-1.4416,1.6926l-2.3298,0.1122l-0.1687-1.278L253.2519,68.2287z
		 M248.785,70.0687l-1.3204,0.0633l1.164-1.2539L248.785,70.0687z M247.8807,68.9378l-1.136,1.2291l-2.6301,0.123l-0.1194-0.8954
		L247.8807,68.9378z M250.3529,70.9116l0.6426-0.0316l-0.6426,0.7548V70.9116z M250.4039,72.3619l1.2888-1.5135l2.5862-0.123
		l0.188,1.4326L250.4039,72.3619z M254.8162,69.5807l-0.0068-0.0072l-0.0054-0.014l-0.0036-0.014v-0.014l0.0054-0.014l0.0018-0.0036
		l-0.1913-1.4891l4.0048-0.611l-1.5099,1.9735h0.0018l0.009,0.014l0.0068,0.0144l0.0036,0.014v0.014l-0.0054,0.014l-0.0087,0.0104
		l-0.0108,0.0104l-0.0122,0.0072l-0.014,0.0036l-0.0158-0.0036l-0.0122-0.0036l-0.0068-0.0068l-0.1546,0.2035l-2.049,0.0982
		L254.8162,69.5807z M254.9622,70.6901l1.1992-0.0561l-1.0324,1.3521L254.9622,70.6901z M255.6925,72.1019l1.1464-1.5028
		l2.8163-0.137l0.1863,1.4571L255.6925,72.1019z M259.9084,67.1927l6.0067-1.0536l-3.0537,3.2482l-2.6563,0.1302L259.9084,67.1927z
		 M260.5086,71.8947l-0.1877-1.4607l1.6347-0.0773l-1.4434,1.5344L260.5086,71.8947z M261.1814,71.8703l1.4503-1.5452l4.6108-0.2247
		l0.1913,1.5416L261.1814,71.8703z M267.3618,65.8618l6.1315-1.2503l-3.4662,4.4353l-2.2543,0.109L267.3618,65.8618z
		 M267.8868,70.0687l1.3924-0.0669l-1.2079,1.5452L267.8868,70.0687z M268.6401,71.6103l1.2798-1.6365l0.9185-0.0457l3.9944-0.1615
		l0.2021,1.6682L268.6401,71.6103z M274.7924,64.3235l6.2455-1.4431l-3.7715,5.8434l-1.926,0.0773L274.7924,64.3235z
		 M275.4563,69.7422l1.1834-0.0457l-0.999,1.552L275.4563,69.7422z M276.1233,71.4172l1.1255-1.7455l5.1728-0.2035l0.2211,1.8296
		L276.1233,71.4172z M282.2073,62.5924l7.924-2.058l-5.1267,7.8838l-2.0896,0.0809L282.2073,62.5924z M283.0258,69.4437
		l1.3467-0.0565l-1.1414,1.7595L283.0258,69.4437z M283.7086,71.2906l1.2521-1.9242l6.8003-0.2704l0.2492,2.1317L283.7086,71.2906z
		 M291.3062,60.2079l8.033-2.3809l-5.285,10.2294l-1.8228,0.0773L291.3062,60.2079z M292.3404,69.0748l1.2151-0.0489l-0.9975,1.9314
		L292.3404,69.0748z M292.9603,71.2345l1.1518-2.2335l6.9848-0.274l0.2877,2.5427L292.9603,71.2345z M301.5288,67.6281
		l-0.0018,0.0036l-0.014,0.0032h-0.014h-0.014l-0.014-0.0032l-0.0108-0.0108l-0.0104-0.0104l-0.0068-0.014v-0.014v-0.0176
		l0.0032-0.0104l0.009-0.014l0.0122-0.0072l0.0123-0.0068l0.014-0.0036l0.014,0.0036l0.0104,0.0032l-1.1378-10.0363l8.1193-2.6862
		l-5.2993,12.8912l-1.6574,0.0633L301.5288,67.6281z M301.65,68.7062l0.1755-0.0072l0.9745-0.0316l-0.9044,2.2018L301.65,68.7062z
		 M302.2433,71.2874l1.0835-2.634l7.1092-0.2212l0.3301,2.985L302.2433,71.2874z M310.8592,67.4455l-1.4276-12.9793l8.1913-3.0131
		l-5.2429,15.9466L310.8592,67.4455z M310.9646,68.4113l1.0921-0.0316l-0.8199,2.4967L310.9646,68.4113z M311.5457,71.4417
		l1.0148-3.0796l7.2131-0.2247l0.3776,3.5327L311.5457,71.4417z M318.4622,51.109l8.5685-3.5187l0.005,0.3934l-5.3922,19.128
		l-1.4697,0.0421L318.4622,51.109z M320.2774,68.1233l1.0871-0.0352l-0.79,2.8095L320.2774,68.1233z M326.588,71.8138
		l-0.0209,0.0284l-0.0212,0.0385l-0.0158,0.0385l-5.5942-0.214l1.0274-3.6348l3.35-0.1054l0.0036,0.0669l0.0036,0.0036
		l0.0208,0.0068l0.0299,0.0072l0.0474,0.0032l0.0547,0.0036l0.0665,0.0036l0.0773,0.0036h0.0877h0.0931l0.1-0.0036l0.1053-0.0036
		l1.2399-0.0349l0.1352,3.7923H326.588z M366.4315,57.5109l0.1913,8.4771l-1.5873,0.0248l-0.0104,0.0068l-0.0054-0.0068
		l-0.0823-0.123l-0.0018,0.0068l-0.009,0.014l-0.0105,0.0072l-0.014,0.0036l-0.014,0.0032l-0.0158-0.0032l-0.0122-0.0036
		l-0.0104-0.0104l-0.0108-0.0108l-0.005-0.014l-0.0036-0.014l0.0036-0.0176l0.005-0.014l0.009-0.0104l0.0105-0.0104l0.014-0.0036
		h0.0104l-6.8758-10.0996L366.4315,57.5109z M357.0238,55.4813l0.2758,10.707l-1.519,0.0352l-7.2815-12.8354L357.0238,55.4813z
		 M347.5912,53.1353l0.383,13.2673l-1.4593,0.0316l-7.5306-15.701L347.5912,53.1353z M329.4464,47.6993l0.0529,0.014l0.0244,0.0104
		l0.0406,0.014l0.0579,0.0176l0.0755,0.0212l0.1737,0.0561l0.0543,0.0176l0.0755,0.0245l0.0406,0.0104l0.1335,0.0424l0.1736,0.0561
		l0.1442,0.0457l0.0208,0.0068l7.6116,2.4233l0.5164,16.1538l-1.4503,0.0349l-0.0669-0.1579l-0.0018,0.0104l-0.0054,0.014
		l-0.0086,0.014l-0.0122,0.0072l-0.0104,0.0068h-0.0158h-0.0158l-0.0122-0.0068l-0.0126-0.0072l-0.0086-0.0104l-0.0072-0.0176
		l-0.0014-0.014l0.0014-0.014l0.0054-0.014l0.0072-0.014l0.0122-0.0072l0.014-0.0068h0.014h0.014l0.014,0.0068l0.0122,0.0072
		l-7.1074-16.526l-0.1284-0.2985l-0.0719-0.1687h0.0036l0.0032-0.0036h-0.0104l-0.0597-0.1438l-0.0176-0.0421l-0.0421-0.0985
		l-0.0651-0.1474l-0.0471-0.1054l-0.1618-0.3826l-0.0507-0.1194l-0.0687-0.1582l-0.1561-0.6566L329.4464,47.6993z M330.1663,65.0962
		l-0.7724-11.9505l-0.1737-2.6441l-0.014-0.2247l0.0104-0.014h-0.0104l-0.0018-0.0388l-0.0195-0.2949v-0.0036v-0.0068l0.0316-0.2636
		l0.0086-0.0701l0.0421,0.1018l0.1003,0.2319l0.005,0.0068l0.0194,0.0493l0.0633,0.151l0.2791,0.6462l6.8356,15.887l-1.812,0.0421
		l-4.437,0.1402l-0.0931,0.0352v-0.0352L330.1663,65.0962z M334.2258,71.5891l-0.4509,0.0493l-0.5657,0.0669l-0.9338,0.1054
		l-1.7175,0.0032H330.4l-0.1352-3.8944l0.0931-0.0032l0.0982-0.0108l0.0949-0.0068l0.0895-0.0072l0.0755-0.0068l0.0683-0.0108
		l0.0579-0.0104l0.0457-0.0068l0.0334-0.0072l0.151-0.0633l1.7279-0.0561l4.1875-0.0949l1.4942,3.4697L334.2258,71.5891z
		 M337.6114,67.6209l1.0641-0.0245l0.0859,2.7006L337.6114,67.6209z M338.5909,50.944l7.3289,15.2828l0.0036-0.0032l0.0122-0.0108
		l0.0122-0.0032l0.0158-0.0036l0.014,0.0036l0.0122,0.0032l0.014,0.0108l0.009,0.0104l0.005,0.014l0.0018,0.0176l-0.0018,0.0104
		l-0.0032,0.0176l-0.009,0.0104l-0.0122,0.0072l-0.0122,0.0068h-0.014l0.0579,0.1266l-6.9355,0.1579L338.5909,50.944z
		 M339.2317,71.0062l-0.1104-3.4169l7.3728-0.1683l1.3028,2.7142L339.2317,71.0062z M346.9785,67.407l1.0238-0.0212l0.0651,2.2895
		L346.9785,67.407z M348.2428,66.2268l-0.0054,0.0108l-0.0068,0.014l-0.0123,0.0068l-0.014,0.0072l-0.0108,0.0036h-0.0032
		l-0.0144-0.0036l-0.014-0.0072l-0.0122-0.0068l-0.0086-0.014l-0.0072-0.0108v-0.0173v-0.0144l0.0054-0.014l0.0087-0.0104
		l0.0108-0.0104l0.014-0.0036l0.014-0.0036h0.0018l0.014,0.0036l0.0122,0.0036l0.014,0.0104l0.0068,0.0104l0.0072,0.014
		l0.0018,0.0176L348.2428,66.2268z M348.0217,53.4058l7.2815,12.8282l-6.9075,0.1546L348.0217,53.4058z M348.501,70.0547
		l-0.0773-2.6794l7.4325-0.1686l1.178,2.0752L348.501,70.0547z M356.3337,67.1927l0.9903-0.0176l0.0475,1.8508L356.3337,67.1927z
		 M357.4258,55.5899l0.0141,0.0072l7.1042,10.4261l-6.8478,0.1579L357.4258,55.5899z M357.7736,69.205l-0.0529-2.0439l6.0351-0.137
		l1.4571-0.0176l1.045,1.5276L357.7736,69.205z M365.6904,66.996l0.9536-0.0104l0.0334,1.4607L365.6904,66.996z M375.8148,59.2071
		l0.128,6.6475l-1.6696,0.028l-6.76-8.1574L375.8148,59.2071z M366.8073,57.5986l0.1266,0.0212l6.851,8.2664l-6.7899,0.0949
		L366.8073,57.5986z M367.0497,68.4638l-0.0352-1.4855l7.5871-0.109l0.8533,1.0328L367.0497,68.4638z M375.922,67.8705
		l-0.8343-1.0079l0.8745-0.014l0.0212,1.0184L375.922,67.8705z M383.4264,60.3834l0.0878,5.3623l-1.4222,0.0212l-5.2537-6.3843
		L383.4264,60.3834z M376.164,59.2808l0.1352,0.0212l5.3274,6.472l-5.336,0.077L376.164,59.2808z M376.3276,67.8389l-0.0194-0.9939
		l6.1279-0.0877l0.5757,0.6987L376.3276,67.8389z M383.4613,67.4314l-0.5599-0.6814l0.6304-0.0068l0.0104,0.6847L383.4613,67.4314z
		 M391.024,61.3528l0.0597,4.2842l-1.5294,0.0245l-0.137-0.1438l-0.0072,0.014l-0.0086,0.014l-0.0086,0.0068l-0.014,0.0072h-0.0158
		h-0.0125l-0.0159-0.0072l-0.0122-0.0068l-0.0068-0.014l-0.0054-0.014l-0.0018-0.014l0.0018-0.014l0.0054-0.0176l0.0068-0.0108
		l0.0122-0.0068l0.0126-0.0072l-4.7952-4.9056L391.024,61.3528z M383.8389,65.6158l-0.0086,0.0036l-0.0122,0.0036l-0.0158,0.0068
		l-0.0122-0.0068l-0.0144-0.0036l-0.0122-0.0072l-0.0086-0.014l-0.0054-0.014l-0.0018-0.0104l0.0018-0.014l0.0054-0.014
		l0.0086-0.014l0.0122-0.0072l0.0144-0.0068l0.0122-0.0036l0.0158,0.0036l0.0122,0.0068l0.0068,0.0036l-0.0823-5.0883l0.2406,0.0313
		l5.076,5.1976l-5.2307,0.0737L383.8389,65.6158z M383.8687,67.4034l-0.0122-0.6674l6.1754-0.0877l0.4319,0.4427L383.8687,67.4034z
		 M390.9308,67.0661l-0.4178-0.4247l0.5847-0.0072l0.0068,0.425L390.9308,67.0661z M398.6125,62.1148l0.0406,3.4449l-1.6613,0.0068
		l-4.7197-4.0803L398.6125,62.1148z M391.3311,61.3949l0.3582,0.0349l4.7916,4.1404l-1.2007,0.0072l-3.8894,0.0561L391.3311,61.3949
		z M391.4102,67.0416l-0.0072-0.411l3.2748-0.0489l2.9516-0.0176l0.2615,0.2283L391.4102,67.0416z M398.386,66.7748l-0.2438-0.2143
		l0.5214-0.0036v0.2039L398.386,66.7748z M398.8969,62.1497l0.2442,0.0176l3.2184,3.368l-3.4219,0.0245L398.8969,62.1497z
		 M398.9498,66.7468v-0.1931l4.3615-0.0248l0.0806,0.0845L398.9498,66.7468z M402.8072,65.5317l-0.1-0.1018h-0.0054l-0.0122-0.0036
		l-0.014-0.0036l-0.0122-0.0104l-0.0072-0.0108l-0.0068-0.014l-0.0018-0.0173l0.0018-0.0036l-3.022-3.1641l4.3547,0.3369
		l0.028,2.985L402.8072,65.5317z M404.2823,65.5245l-0.028-2.9602l0.3053,0.0176l3.0781,2.9217L404.2823,65.5245z M409.4198,65.3418
		l-0.0072,0.0108l-0.0068,0.014l-0.0122,0.0068l-0.0158,0.0072h-0.009v0.1158l-1.273,0.0072l-3.0461-2.8937l4.3,0.2528
		l0.0173,2.4053h0.0144l0.0122,0.0072l0.0122,0.0104l0.0086,0.0104l0.0054,0.0176l0.0018,0.0108L409.4198,65.3418z
		 M409.6251,65.4896l-0.0208-2.606l0.3564,0.0108l2.7056,2.3669l0.009-0.0036l0.0122-0.0072h0.0158h0.0122l0.0158,0.0072
		l0.0104,0.0104l0.009,0.0108l0.005,0.014l0.0018,0.014l-0.0018,0.0176l-0.005,0.0104l0.1561,0.137L409.6251,65.4896z
		 M414.7084,65.4612l-1.3344,0.0108l-2.9199-2.5567l4.2544,0.1758V65.4612z M414.9964,65.4612v-2.3597l0.351,0.0104l2.8289,2.3284
		L414.9964,65.4612z M418.6467,65.4404l-2.8092-2.3176l4.2332,0.0982l0.0072,2.209L418.6467,65.4404z M420.3076,65.4299
		l-0.0104-2.2054l0.4178,0.0068l2.7354,2.181L420.3076,65.4299z M423.9176,65.4051l-0.1071-0.0842l-0.0069,0.0036l-0.014-0.0072
		l-0.014-0.0036l-0.0104-0.0068l-0.0108-0.014l-0.0036-0.014v-0.0036l-2.56-2.0439l4.2281,0.028l0.0054,2.1421L423.9176,65.4051z
		 M427.3575,65.2717l-0.0054,0.014l-0.0068,0.0104l-0.0108,0.0108l-0.0141,0.0068h-0.014h-0.014l-0.014-0.0032l-0.0072-0.0036
		l-0.1208,0.0946h-1.4977l-0.0036-2.1421l4.2191-0.0421l-2.5143,2.0191l0.0036,0.0072l0.0036,0.014L427.3575,65.2717z
		 M427.6348,65.4015l2.725-2.1878l0.4006-0.0032l0.0018,2.2018L427.6348,65.4015z M431.0042,65.4123v-2.209l4.2123-0.1122
		l-2.7951,2.3244L431.0042,65.4123z M436.0979,65.4263l-3.1922-0.0108l2.8164-2.3352l0.3776-0.014L436.0979,65.4263z
		 M436.2403,65.2681l-0.0072,0.0176l-0.0068,0.0104l-0.0122,0.0108l-0.014,0.0068h-0.014h-0.0158l-0.0126-0.0068l-0.0104-0.0108
		l-0.0104-0.0068l-0.0018-0.0072l-0.0036-0.0068l-0.0018-0.0176l0.0018-0.014l0.0036-0.0104l0.0018-0.0036l0.0068-0.014
		l0.0126-0.0072l0.0122-0.0068l0.0158-0.0036l0.0122,0.0036l0.0158,0.0068l0.0122,0.0072l0.0086,0.0104l0.0072,0.014v0.014V65.2681z
		 M436.3542,65.4263l0.0018-2.3705l4.2368-0.1895l-2.9059,2.5636L436.3542,65.4263z M441.4321,65.4368l-3.2641-0.0068l0.1773-0.1546
		l-0.0015-0.0104l0.0015-0.0144l0.0053-0.014l0.0086-0.014l0.0126-0.0104l0.014-0.0036l0.0104-0.0032l0.0176,0.0032h0.0069
		l2.6797-2.3633l0.3387-0.014L441.4321,65.4368z M441.7043,65.4404v-0.123l-0.014-0.0068l-0.0086-0.0144l-0.0054-0.0104
		l-0.0036-0.0176l0.0036-0.014l0.0036-0.014l0.0104-0.0104l0.0122-0.0104h0.0018l0.0108-2.4093l4.2684-0.2668l-3.0271,2.9009
		L441.7043,65.4404z M446.7631,65.4508l-3.3327-0.0068l3.0623-2.9325l0.2845-0.0176L446.7631,65.4508z M447.0648,62.4658
		l4.3267-0.3441l-2.9728,3.136l0.0054,0.0072l0.005,0.014l0.0018,0.014v0.014l-0.005,0.014l-0.009,0.0104l-0.0122,0.0104
		l-0.014,0.0072h-0.014h-0.0122l-0.0158-0.0036l-0.0054-0.0068l-0.1104,0.1158l-1.1852-0.0036L447.0648,62.4658z M452.0833,66.6554
		l-4.4108-0.1194l0.0791-0.0845l4.3367,0.0108L452.0833,66.6554z M452.0938,65.4648l-3.3992-0.0068l3.1953-3.3784l0.2283-0.0176
		L452.0938,65.4648z M452.4185,62.0271l6.2983-0.6426l-4.683,4.0839l-1.6398-0.0036L452.4185,62.0271z M452.6487,66.6763
		l-0.2636-0.0068v-0.2071h0.506L452.6487,66.6763z M459.6018,66.9222l-6.4457-0.2283l0.2632-0.2283l2.9641,0.0072l3.2216,0.0352
		L459.6018,66.9222z M459.6158,65.5177l-3.9735-0.0457h-1.0835l4.7585-4.1508l0.3369-0.0352L459.6158,65.5177z M459.9758,61.2403
		l6.4209-0.8253l-4.9549,5.1235l-1.5067-0.0176L459.9758,61.2403z M460.0794,66.9467l-0.1565-0.0068l0.0018-0.4286l0.5688,0.0072
		L460.0794,66.9467z M467.1116,67.256l-6.5511-0.288l0.4301-0.4459l6.1297,0.0701L467.1116,67.256z M461.9406,65.5421l5.0322-5.2008
		l0.2247-0.0316l-0.0633,5.2886L461.9406,65.5421z M467.2641,65.4404l-0.0069,0.0176l-0.0036,0.0032l-0.0054,0.0072l-0.0122,0.0104
		l-0.014,0.0036h-0.0104h-0.0176l-0.0104-0.0036l-0.0122-0.0104l-0.0108-0.0104l-0.0036-0.014l-0.0032-0.014l0.0032-0.0144
		l0.0036-0.014l0.0108-0.014l0.0122-0.0104l0.0104-0.0036l0.0176-0.0032l0.0104,0.0032l0.014,0.0036l0.0122,0.0104l0.0072,0.0072
		l0.0018,0.0068l0.0069,0.0108l0.0036,0.014L467.2641,65.4404z M467.5381,60.25l6.5299-1.0184l-5.1954,6.3843l-1.3995-0.014
		L467.5381,60.25z M467.4539,67.2768l0.0068-0.6847l0.611,0.0068l-0.5549,0.685L467.4539,67.2768z M474.616,67.6598l-6.6371-0.3513
		l0.5721-0.7023l6.0807,0.0669L474.616,67.6598z M474.644,65.6791l-5.2922-0.0561l0.1018-0.1266l-0.014,0.0072h-0.0122h-0.0158
		l-0.0122-0.0072l-0.0122-0.0068l-0.009-0.0108l-0.0068-0.014v-0.014v-0.0176l0.0068-0.0104l0.009-0.014l0.0122-0.0072
		l0.0122-0.0068l0.0158-0.0036l0.0122,0.0036l0.014,0.0068l0.0104,0.0072l0.009,0.0104l0.0068,0.014l0.0018,0.014l-0.0018,0.014
		l-0.0032,0.0072l5.148-6.321l0.1158-0.0176L474.644,65.6791z M474.9601,65.5666h-0.0158l-0.0122-0.0068l-0.0126-0.0072
		l-0.0086-0.014l-0.0072-0.014v-0.014v-0.014l0.0072-0.014l0.0086-0.0104l0.0126-0.0108l0.0122-0.0032l0.0158-0.0036l0.0122,0.0036
		l0.0123,0.0032l0.0122,0.0072l0.009,0.0104l0.0018,0.0108l0.0982-6.4371l8.2225-1.4995l-6.6773,8.1506l-1.6451-0.0176
		l0.0018-0.1543l-0.0018,0.0068l-0.009,0.014l-0.0122,0.0072l-0.0123,0.0068H474.9601z M474.9778,67.6914l0.0141-1.0151
		l0.8551,0.0108l-0.8271,1.0043H474.9778z M483.8411,68.2567l-8.3419-0.534l0.8461-1.0324l7.5238,0.0845L483.8411,68.2567z
		 M483.8849,65.7809l-6.732-0.0737l6.7722-8.2628l0.109-0.0176L483.8849,65.7809z M484.4222,57.3282l8.3405-1.8048l-6.9182,10.2819
		l-0.0263,0.0424l-0.0841-0.0457l-1.4628-0.014L484.4222,57.3282z M484.2535,66.7748l0.9324,0.014l-0.9587,1.4186L484.2535,66.7748z
		 M493.0539,68.9626l-8.4088-0.6394l1.0291-1.5308l1.4729,0.0173l5.9524,0.1161L493.0539,68.9626z M493.119,65.9459l-6.7831-0.1334
		l7.0042-10.4085L493.119,65.9459z M503.101,52.921l8.498-2.4089l-7.3886,15.6482l-1.429-0.0281L503.101,52.921z M493.7562,55.2846
		l8.4282-2.1072l-7.1675,12.8038l-1.4891-0.0281L493.7562,55.2846z M493.507,66.9327l0.9691,0.0176l-1.0062,1.798L493.507,66.9327z
		 M502.2581,69.7667l-8.4527-0.7303l1.159-2.0756l7.357,0.1406L502.2581,69.7667z M502.6407,65.9564l-0.0036,0.014l-0.0104,0.0108
		l-0.0105,0.0068l-0.014,0.0072l-0.014,0.0036l-0.014-0.0036l-0.0108-0.0036l-0.0032-0.0036l-0.0108-0.0068l-0.0068-0.0108
		l-0.0072-0.014l-0.0036-0.014l0.0036-0.0176l0.0072-0.0104l0.0068-0.014l0.014-0.0068l0.0036-0.0036l0.0072-0.0036h0.0176h0.014
		l0.014,0.0036l0.0069,0.0104l0.0104,0.0104l0.0036,0.014l0.0072,0.0144L502.6407,65.9564z M502.3459,66.1214l-6.8374-0.1298
		l7.1498-12.7721L502.3459,66.1214z M502.7565,67.1085l0.9939,0.0209l-1.05,2.2266L502.7565,67.1085z M511.4447,70.6833
		l-8.4739-0.8357l1.282-2.7078l7.2865,0.1406L511.4447,70.6833z M511.5674,66.3041l-6.8582-0.1334l0.0633-0.1334l-0.0072-0.0036
		l-0.0104-0.0068l-0.0104-0.0108l-0.0036-0.0173l-0.0036-0.014l0.0036-0.0144l0.0036-0.014l0.0104-0.0104l0.0104-0.0104
		l0.014-0.0036l0.0144-0.0036l0.014,0.0036l0.0104,0.0036l7.1743-15.1847L511.5674,66.3041z M511.9996,67.2876l1.0324,0.0209
		l-1.1061,2.6233L511.9996,67.2876z M520.1887,71.4557l-0.0068,0.2075l-1.8472-0.2075l-0.9238-0.1018l-0.776-0.0841l-0.4671-0.0529
		l-3.9645-0.4387l1.4643-3.4593l4.1684,0.0809l1.7103,0.0493l0.1615,0.0597l0.0316,0.0104l0.0529,0.0072l0.0561,0.0104
		l0.0701,0.0068l0.0737,0.0108l0.0877,0.0068l0.0985,0.0036l0.0982,0.0104h0.0317L520.1887,71.4557z M521.2808,50.0133h-0.0176
		l0.014,0.0212l-0.014,0.2283l-0.1614,2.7074l-0.7095,11.7994l-0.0525,1.7415v0.0633l-0.1895-0.0701l-4.3896-0.1194l-1.6786-0.0352
		l6.6615-15.7499l0.2916-0.6883l0.0629-0.1543l0.0317-0.0773h0.1089l0.0421,0.3265V50.0133z M521.1614,48.0927l-0.0385,0.0877
		l-0.0633,0.1543l-0.1755,0.4146l-0.0493,0.1122l-0.0529,0.123v0.0036l-0.0457,0.1018l-0.0421,0.1126l-0.0032,0.0032l-0.0144,0.0388
		l-0.0701,0.1651l-0.1439,0.3333l-7.0165,16.5964l-1.4222-0.028l0.4423-16.0765l7.4134-2.3949l0.0176-0.0072l0.1647-0.0525
		l0.1651-0.0529l0.1442-0.0493l0.0457-0.0104l0.0842-0.0316l0.0597-0.014l0.1722-0.0561l0.0773-0.028l0.0665-0.0212l0.0457-0.014
		l0.0281-0.0072l0.0561-0.0209l0.3337-0.1054L521.1614,48.0927z M590.2783,66.873l1.647,2.1633l-1.8998-0.0877L590.2783,66.873z
		 M582.9493,65.4648l0.0176,0.0036l3.0972,3.3043l-3.4974-0.1579L582.9493,65.4648z M575.6064,64.0426l3.4557,4.4144l-3.5046-0.1546
		l-0.4462-0.0176L575.6064,64.0426z M568.2811,62.4449l3.6945,5.7273l-4.3407-0.1579L568.2811,62.4449z M559.2911,60.0709
		l5.0919,7.8241l-5.9416-0.2176L559.2911,60.0709z M550.326,57.2862l0.1823,0.0529l-0.1823-0.0352V57.2862z M550.3013,57.5285
		l5.0638,9.7835l0.0072,0.0068l0.0104,0.0108l0.0036,0.014v0.014l0.1158,0.2176l-6.2681-0.2316L550.3013,57.5285z M541.3221,54.6805
		l5.1936,12.5646l-0.8148-0.028l-5.6816-0.1579l0.014-0.151l-0.0108,0.0104l-0.014,0.0072h-0.014h-0.014l-0.014-0.0072
		l-0.0104-0.0104l-0.0071-0.0104l-0.0068-0.014v-0.0144v-0.0173l0.0068-0.0108l0.0107-0.014l0.014-0.0068l0.0104-0.0072h0.014h0.014
		l0.014,0.0072l0.0104,0.0068l0.0036,0.0072L541.3221,54.6805z M537.4802,66.9888l-6.6899-0.1859l1.5627-15.29L537.4802,66.9888z
		 M523.402,64.8539l0.028-14.9912l4.8074,16.8701l-4.8883-0.137L523.402,64.8539z M524.0727,71.5434l-0.0176-0.0385l-0.0213-0.0385
		l-0.0208-0.0281l-0.8185,0.0032l0.1194-3.775l1.2715,0.0352l0.1053,0.0036h0.0982h0.0913h0.0842l0.0773-0.0036l0.0633-0.0036
		l0.0561-0.0036l0.0421-0.0032l0.0316-0.0072l0.0141-0.0068l0.0072-0.0072v-0.0597l3.2554,0.0877l1.0288,3.6136L524.0727,71.5434z
		 M529.9021,70.4654l-0.7868-2.7495l1.064,0.028L529.9021,70.4654z M528.8449,66.7468l-5.4116-18.9982v-0.3898l8.4667,3.473
		l-1.6258,15.9571L528.8449,66.7468z M530.3304,71.2734l0.3618-3.5118l7.1077,0.1931l1.0148,3.0623L530.3304,71.2734z
		 M539.1235,70.4165l-0.8076-2.4442l1.0604,0.028L539.1235,70.4165z M537.993,67.0032l-5.2397-15.8273l8.0842,2.9674l-1.359,12.9019
		L537.993,67.0032z M539.6011,70.9889l0.3161-2.9746l6.9952,0.1967l1.0817,2.6197L539.6011,70.9889z M548.3382,70.3812
		l-0.8882-2.1561l0.9935,0.0245l0.1302,0.0072L548.3382,70.3812z M548.6719,67.3261l-1.6189-0.0597l-5.2782-12.7826l7.9996,2.6445
		L548.6719,67.3261z M548.8582,70.8095l0.2737-2.5319l6.8618,0.2496l1.1518,2.2194L548.8582,70.8095z M557.5424,70.4445
		l-0.9868-1.8965l1.1903,0.0424L557.5424,70.4445z M557.8513,67.6598l-1.7839-0.0633l-5.2429-10.1349l7.905,2.332L557.8513,67.6598z
		 M558.0973,70.7394l0.2424-2.1281l6.6651,0.2424l1.2535,1.921L558.0973,70.7394z M566.729,70.606l-1.1273-1.7311l1.3168,0.0457
		L566.729,70.606z M567.0275,67.9931l-2.0472-0.0737l-5.071-7.7957l7.7888,2.0119L567.0275,67.9931z M567.3223,70.7746
		l0.2108-1.8296l5.0603,0.1827l1.1237,1.7415L567.3223,70.7746z M574.1949,70.6797l-0.9871-1.5276l1.1625,0.0388L574.1949,70.6797z
		 M574.4794,68.2635l-1.886-0.0701l-3.7258-5.7697l6.1279,1.4082L574.4794,68.2635z M574.8059,70.8836l0.1967-1.6682l3.9541,0.1438
		l0.8394,0.0388l1.2816,1.6362L574.8059,70.8836z M581.6325,70.9501l-1.1871-1.524l1.3661,0.0633L581.6325,70.9501z
		 M581.9205,68.5868l-2.209-0.0985l-3.4169-4.372l6.0121,1.2151L581.9205,68.5868z M582.2751,71.0659l0.1827-1.5484l4.4913,0.1999
		l1.4539,1.5488L582.2751,71.0659z M589.0632,71.2766l-1.429-1.5276l1.6117,0.0705L589.0632,71.2766z M589.3512,68.9205
		l-2.6092-0.1161l-2.9955-3.199l5.8891,1.0252L589.3512,68.9205z M589.7338,71.3118l0.1794-1.461l2.725,0.123l1.1518,1.5031
		L589.7338,71.3118z M594.3449,71.3435l-1.022-1.3417l1.1834,0.0529L594.3449,71.3435z M594.6678,68.8677l0.014,0.0072
		l0.0071,0.0068l0.0068,0.0104l0.0036,0.0144l0.0036,0.014l-0.0036,0.0173l-0.0068,0.014l-0.0107,0.0108l-0.014,0.0068
		l-0.014,0.0072h-0.0104h-0.0072l-0.0208,0.1791l-2.0051-0.0877l-0.1511-0.1931l-0.0071-0.0036l-0.014-0.0036l-0.014-0.0104
		l-0.0072-0.0108v-0.0173v-0.0108v-0.0068l-1.5027-1.9666l3.9153,0.5901l-0.1755,1.4326H594.6678z M767.5199,46.8496h-0.0036
		l-0.0176-3.5294L767.5199,46.8496z M607.0185,70.6164l0.2036,0.0424l0.5516,0.0245l0.8673,0.1931h-2.9501l0.0424-0.3197
		L607.0185,70.6164z M603.8192,70.8764l-0.3931-0.4214l1.5941,0.0701l-0.0421,0.3513H603.8192z M605.2486,68.7555l-0.1122,0.8706
		l-2.5812-0.1122l-0.2284-0.2528l-0.0036,0.014l-0.0068,0.014l-0.0108,0.0104l-0.0104,0.0108l-0.014,0.0068h-0.014h-0.0176
		l-0.0104-0.0068l-0.0072-0.0108l-0.0104-0.014l-0.0068-0.014v-0.0104l0.0068-0.0176l0.0036-0.0104l0.0104-0.014l0.014-0.0072
		l0.0104-0.0068h0.0108l-0.8185-0.8817L605.2486,68.7555z M600.7184,68.2743l1.1169,1.2043l-1.2607-0.0561L600.7184,68.2743z
		 M602.7062,70.4233l0.4214,0.4531h-2.7358l0.0701-0.5513L602.7062,70.4233z M600.0338,68.1409l-0.1547,1.2536l-2.2896-0.1054
		l-1.401-1.6541L600.0338,68.1409z M595.4967,67.6177l1.3942,1.6398l-1.5873-0.0701L595.4967,67.6177z M595.012,71.5294
		l0.1791-1.4395l2.4971,0.1086l1.2888,1.5207L595.012,71.5294z M598.3904,70.2302l1.3729,0.0597l-0.0737,0.5865h-0.3654v0.4599
		L598.3904,70.2302z"/>
	<polygon   points="221.5169,33.5895 221.5169,34.1512 221.5187,34.1616 221.5589,34.1616 221.5589,33.5895 
		221.696,33.5895 221.696,33.5366 221.696,33.5262 221.5625,33.5262 221.5625,33.3752 221.5589,33.3648 221.5169,33.3648 
		221.5169,33.5298 221.3853,33.5262 221.3853,33.5755 221.3853,33.5859 	"/>
	<polygon   points="891.2889,45.8625 894.1649,45.8593 894.1581,43.7136 894.0139,43.5449 891.0713,43.5449 
		891.0817,45.7431 	"/>
	<polygon   points="920.0638,45.7223 920.0918,43.5169 917.1244,43.5169 916.7382,43.6891 916.717,45.8453 
		919.6107,45.8417 	"/>
</g>
</svg>
