<?xml version="1.0" encoding="utf-8"?>
<!-- Generator: Adobe Illustrator 18.1.1, SVG Export Plug-In . SVG Version: 6.00 Build 0)  -->
<svg version="1.1" id="copenhagen" xmlns="http://www.w3.org/2000/svg" xmlns:xlink="http://www.w3.org/1999/xlink" x="0px" y="0px"
	 viewBox="0 0 1002.3923 110.3358" enable-background="new 0 0 1002.3923 110.3358" xml:space="preserve">
<path   d="M1002.3431,97.1812l-1.4731-44.8075l-4.4655-4.651l-0.5353-0.2974l-0.1505-5.3577l0.7174-0.3325
	l-2.3519-2.6912l-0.0873-3.2753l-2.3307-2.4988l-2.201,2.4988l0.0734,3.2753l-2.2189,2.6912l0.7386,0.42l0.1014,4.9062
	l-0.5984,0.0563l-4.4514,4.1748l0.0631,4.0386l-0.7103,0.0523l-0.1996-12.8292l-5.8092-6.0052l-0.8855-0.4967l-0.0627-6.5302
	l0.9306-0.693l-2.9535-3.4047l-0.028-4.1472l-2.9188-3.1531l-2.8868,3.1499l0.0036,4.1468l-2.9187,3.405l0.9345,0.5354
	l-0.0036,6.0575l-0.9973,0.1261l-4.5388,3.8705l0.014-2.0508l-2.5721-3.1635l0.0278-3.8494l0.8887-0.8507l-2.7643-2.4776
	l0.0455-4.5073l0.6927-0.7769l-2.1243-1.7602l0.0315-3.0341l-2.054-2.0437l0.0874-6.4739l-0.1996-0.6615l-0.091,6.7893
	l0.1086,0.3286l-1.7917,1.6133l-0.3289,0.4479l-0.0455,2.8381l-1.5327,1.113l-0.6403,0.84l0.6787,0.3741l-0.0803,4.7177
	l-1.8373,1.5534l-0.917,1.113l0.8679,0.4128l-0.0806,4.2941l-2.1416,2.5475l0.0524-0.0068v11.8108l-4.2239-5.295L928.4653,59.684
	l-0.0803,2.2956l-5.9353,0.028l-3.3631-0.2587L894.0689,44.986l-4.9972,0.4307l0.0068-1.6939h0.014l0.1293-0.014l0.0036-0.7314
	l-3.1635-0.3641l-2.3095,0.21l-0.0036,0.735l0.1433,0.0176l-0.0104,2.292l-12.8325,1.1094l0.0032-1.8756h0.0247l0.119-0.0107
	l0.0032-0.7067l-3.1879-0.3429l-2.1591,0.1992v0.707l0.1362,0.0176l-0.0104,2.4497l-11.2858,0.9761v-1.6971h0.0279l0.1122-0.0104
	v-0.7386l-3.1951-0.3218l-2.0228,0.1853v0.7421l0.1329,0.0104l-0.0068,2.2572l-4.966,0.4304l-18.0711,12.2132l-0.0248-0.0978
	l0.0212-0.1505l0.0315-0.1473l-0.0247-0.1329l-0.0315-0.1294l-0.1258-0.0491l-0.1365-0.0455l-0.0455-0.0487l-0.0035-0.0702
	l0.0455-0.2763l0.0387-0.0735l0.0032-0.0667l-0.0487-0.119l-0.3186,0.0176l-0.0734,0.0351l-0.0491,0.0699l-0.014,0.1401v0.1329
	l0.0491,0.1258l0.0104,0.0702l-0.0383,0.0767l-0.0595,0.0667l-0.077,0.0211l-0.1365,0.1014l-0.0806,0.1645l-0.0875,0.3254v0.3078
	l0.0631,0.2906l0.0175,0.1992l-3.7411,2.5303l-1.6025,0.0874l0.0036-0.2204l-0.1437-0.1086l-0.0384-0.2483l0.0036-0.0667
	l-0.0455-0.0176l-0.0982-0.0699l-0.0978-0.0631l-0.077-0.091l-0.028-0.1258l0.0104-0.1226l0.0734-0.091l0.0175-0.1258l-0.0559-0.105
	l-0.0107-0.0595l0.0107-0.0667l0.014-0.0631l0.0419-0.0419l0.0771-0.1014l0.0383-0.0491l0.0211-0.0631l0.0559-0.119l0.0419-0.1222
	l0.0211-0.1297l0.0176-0.2519l-0.0107-0.1258l0.0071-0.0631l0.0352-0.0491l0.0383-0.1294l0.0036-0.1297l-0.0212-0.0523
	l-0.0491-0.014l-0.0978-0.0072l-0.0978-0.0032l-0.091-0.0527l-0.091-0.0455l-0.0491-0.0104l-0.0523-0.014l-0.0283-0.1437
	l-0.119-0.0104l-0.0595,0.0072l-0.0455,0.0032l-0.0244,0.0563l-0.0244,0.105l-0.0422,0.0487l-0.0173,0.0072l-0.0806-0.0072
	l-0.028,0.0247l-0.0806,0.0942l-0.0838,0.0423l-0.0947,0.0104l-0.0839-0.0072l-0.0419,0.1297l0.014,0.1082l0.0839,0.0878
	l0.0176,0.0595l-0.0072,0.0419l-0.0208,0.2379l0.0104,0.1086l0.0316,0.1014l0.0244,0.1258l0.0423,0.105l-0.0036,0.0419
	l0.0104,0.0143l0.0212,0.0312l-0.014,0.0176l0.0699,0.077l0.0947,0.0839l0.0347,0.0423l-0.0032,0.0487l0.014,0.0667l-0.014,0.0419
	l-0.0598,0.0874l-0.014,0.0702l0.0352,0.0455l0.0419,0.0419l0.0176,0.0419l0.0244,0.0595v0.0663l-0.0383,0.119l-0.0559,0.1297
	l-0.0806,0.077l-0.1609,0.1014l-0.0176,0.014v0.0244l0.0071,0.0455l-0.0107,0.091l-0.0279,0.1645l-0.1609,0.1086v0.2204
	l-0.6264,0.0387l-0.0211,10.6419h-7.9299l-0.0698-0.0419l-0.1259-0.0702l-0.105-0.091l-0.0387-0.1154l0.014-0.119l0.0946-0.0839
	l0.0279-0.1226l-0.0734-0.105l-0.014-0.0595l0.028-0.119l0.0527-0.0351l0.0067-0.0036l0.1014-0.0942l0.0491-0.0419l0.0212-0.0631
	l0.0803-0.1154l0.0559-0.1122l0.0247-0.119l0.0244-0.2451l-0.0176-0.119l0.0108-0.0595l0.0487-0.0487l0.0455-0.1226l0.0071-0.1226
	l-0.028-0.0523l-0.063-0.014l-0.2591-0.0247l-0.2415-0.105l-0.0627-0.014l-0.0667-0.0104l-0.0418-0.1437h-0.0807h-0.0626
	l-0.0071,0.0072l-0.028,0.0523l-0.0316,0.0982l-0.0455,0.0419l-0.0699,0.0104l-0.0667-0.0172l-0.0347,0.0208l-0.1086,0.0842
	l-0.1086,0.0348l-0.0419,0.0036l0.0036-0.0176l0.0244-0.2519l-0.0176-0.1294l0.0104-0.0631l0.0455-0.0387l0.0072-0.0068
	l0.0491-0.1294l0.0068-0.1261l-0.0347-0.0559l-0.0667-0.014l-0.2659-0.0279l-0.252-0.1086l-0.0667-0.014l-0.0699-0.0104
	l-0.0419-0.1505h-0.0842h-0.0663l-0.0071,0.0068l-0.0316,0.0527l-0.028,0.105l-0.0523,0.0419l-0.0703,0.0104l-0.0663-0.014
	l-0.0419,0.0211l-0.1086,0.0907l-0.1154,0.0315l-0.1401,0.0072l-0.1118-0.0104l-0.0071,0.0068l-0.0527,0.1261l0.0176,0.1082
	l0.119,0.0946l0.0175,0.0631l-0.0068,0.0419l-0.028,0.2379l0.0172,0.105l0.0423,0.105l0.0347,0.1329l0.0595,0.1014l-0.0068,0.0455
	l0.0176,0.0176l0.028,0.028l-0.014,0.014l-0.0072,0.0036l0.0946,0.0838l0.1294,0.091l0.0527,0.0455l-0.0071,0.0455l0.0175,0.0631
	l-0.0175,0.0491l-0.0244,0.0208l-0.0527,0.0563l-0.0036,0.0068l-0.0208,0.0667l0.0523,0.0487l0.063,0.0423l0.014,0.0487
	l0.0352,0.0595v0.0667l-0.0455,0.1154l-0.0842,0.1226l-0.1013,0.0735l-0.2308,0.0946l-0.0212,0.0104l-0.0068,0.0072v0.0244
	l0.0104,0.0455l-0.0104,0.0946l-0.0422,0.1573l-0.21,0.0978l-0.0104,0.0072l0.0036,0.182h-7.2404v-0.182l-0.1996-0.1154
	l-0.0455-0.2519l0.0036-0.0631l-0.0666-0.0247l-0.1295-0.0767l-0.1329-0.0702l-0.1086-0.091l-0.0419-0.1258l0.0176-0.1226
	l0.0946-0.0839l0.0033-0.0072l0.0247-0.1226l-0.0735-0.1082l-0.0176-0.0631l0.0316-0.1226l0.0559-0.0351l0.1086-0.0978
	l0.0487-0.0455l0.0036-0.0072l0.028-0.0627l0.077-0.1122l0.0036-0.0104l0.0595-0.1154l0.0244-0.1261l0.0247-0.2555l-0.0176-0.1258
	l0.0104-0.0595l0.0419-0.0423l0.0071-0.0068l0.0523-0.1329l0.0072-0.1261l-0.0352-0.0523l-0.0663-0.0176l-0.2662-0.0247
	l-0.2484-0.1082l-0.0663-0.0176l-0.0735-0.0104l-0.0422-0.1505h-0.0804h-0.0666l-0.0068,0.0104l-0.028,0.0559l-0.0316,0.0982
	l-0.0563,0.0487l-0.0699,0.0072l-0.0663-0.014l-0.0386,0.0176l-0.1086,0.091l-0.1154,0.0383l-0.1365,0.0072l-0.119-0.014v0.0068
	l-0.0524,0.1261l0.0208,0.105l0.1122,0.0978l0.0244,0.0595l-0.0068,0.0455l-0.0315,0.2344l0.014,0.1086l0.0419,0.091l-0.2136-0.091
	l-0.0594-0.014l-0.0699-0.014l-0.0419-0.1401h-0.0771h-0.0631l-0.0035,0.0036l-0.028,0.0559l-0.028,0.0946l-0.0524,0.0419
	l-0.0667,0.0104l-0.0663-0.0172l-0.0351,0.0208l-0.105,0.0874l-0.1086,0.0315l-0.133,0.0036l-0.1086-0.0072l-0.0032,0.0036
	l-0.0491,0.1261l0.0209,0.0978l0.1085,0.091l0.0211,0.0559l-0.0036,0.0423l-0.0351,0.2272l0.0176,0.1018l0.0456,0.0978
	l0.0278,0.1226l0.0563,0.1014l-0.0071,0.0383l0.0175,0.0176l0.028,0.0315l-0.014,0.0072l-0.0035,0.0068l0.091,0.077l0.119,0.0839
	l0.0491,0.0455l-0.0036,0.0455l0.014,0.0631l-0.0036,0.0072l-0.0104,0.028l-0.077,0.0803l-0.0036,0.0036l-0.0172,0.0667
	l0.0487,0.0487l0.0563,0.0387l0.0172,0.0455l0.014,0.0244l-6.5334-6.8204l-6.369,6.8975l-0.0667-0.0383l-0.0104-0.0387
	l-0.0419-0.2064l0.0068-0.0631v-0.0068l-0.0662-0.0247l-0.1334-0.077l-0.1293-0.0663l-0.028-0.0244l0.0978-0.0842l0.0491-0.0455
	l0.0247-0.0631l0.0767-0.1118l0.0527-0.1122l0.028-0.119l0.0211-0.2412l-0.0176-0.119l0.0068-0.0595l0.0491-0.0423l0.0492-0.1258
	l0.0067-0.119v-0.0072l-0.0347-0.0491l-0.0631-0.014h-0.0035l0.0244-0.1154l0.0283-0.2555l-0.0212-0.1226l0.0104-0.0627
	l0.0492-0.0527l0.0454-0.1258l0.0104-0.1261v-0.0068l-0.0316-0.0527l-0.0663-0.0176l-0.2695-0.028l-0.2451-0.105l-0.063-0.014
	l-0.0735-0.014l-0.0455-0.1505h-0.0803h-0.0667l-0.028,0.0595l-0.0351,0.105l-0.0559,0.0419l-0.0663,0.0107l-0.0667-0.0143
	l-0.0419,0.0211l-0.1086,0.091l-0.1118,0.0351l-0.1365,0.0032l-0.1154-0.0068l-0.0527,0.1258l0.0212,0.105v0.0072l0.0032,0.0036
	l-0.0032,0.0487l-0.0072,0.0072L782.82,72.954l-0.0212,0.0491l-0.0175,0.0523l-0.0176,0.0072l-0.0172,0.0104l-0.0107,0.0072
	l-0.0036,0.0559v0.1226l0.0072,0.1258l0.0071,0.0491v0.0631v0.1226l0.0032,0.2483l0.0036,0.1226l0.0071,0.1154l0.0068,0.119
	l0.0036,0.0631l0.0104,0.0491l0.014,0.0942l0.0071,0.0387l0.0036,0.0631l0.0032,0.0595l-0.0032,0.0627l-0.0107,0.105l0.0035,0.119
	l0.014,0.0874l0.0036,0.1226l-0.0071,0.1226l-0.014,0.0874l-0.0208,0.0631l-0.014,0.0735l-0.014,0.0176l0.0032,0.0244l-0.0627,0.028
	l0.0068,0.2906h-0.0068v0.0383l-4.7596-1.3997l-24.3423,0.0667l-5.6798,1.3051l0.0104-0.105l0.0875-0.0803l0.0211-0.119
	l-0.063-0.105l-0.0176-0.0563l0.0176-0.0595l0.0107-0.0595l0.0523-0.0383l0.0946-0.091l0.0419-0.0455l0.0244-0.0559l0.0703-0.1154
	l0.0488-0.1086l0.0247-0.119l0.0208-0.2379l-0.014-0.119l0.0072-0.0631l0.042-0.0455l0.0454-0.119l0.0068-0.1226l-0.028-0.0491
	l-0.0176-0.0068l-0.0594-0.014l-0.2272-0.0247l-0.0981-0.0452l-0.1086-0.0491l-0.0172-0.0072l-0.0563-0.014l-0.0487-0.0068
	l-0.0352-0.1401l-0.0176-0.0036h-0.0523l-0.0035-0.0559l-0.0072-0.0176l-0.0279-0.0348L747.608,73.36l-0.0071-0.0211l-0.0068-0.014
	l-0.0036-0.1469l-0.0104-0.0036l-0.0071-0.0032l-0.1573,0.0032l-0.0036,0.0527v0.1014l-0.0035,0.0315h-0.0176l-0.0032,0.0176
	l-0.014,0.0806l-0.0036,0.0172h-0.035l-0.0035,0.119l0.0035,0.105l0.0072,0.0874l-0.0072,0.0036l-0.0947,0.0806l-0.1014,0.0383
	l-0.119,0.0036l-0.1014-0.0104l-0.0455,0.119l0.0212,0.1014l0.0977,0.091l0.0212,0.0559l-0.0072,0.0387l-0.028,0.224l0.014,0.105
	l0.042,0.0942l0.0279,0.1261l0.0527,0.0942l-0.0071,0.0455l0.0176,0.014l0.0211,0.0283l-0.0176,0.0172l0.0839,0.077l0.1122,0.0842
	l0.0455,0.0455l-0.0071,0.0419l0.0176,0.0631l-0.0176,0.0419l-0.0699,0.077l-0.0175,0.0663l0.0491,0.0455l0.0491,0.0419
	l0.0104,0.0211v0.0068l-0.014,0.0702l-0.0211,0.0839l-0.0036,0.0104v0.0211v0.0455v0.0351l-0.7801,0.1749l-0.1261-0.1365v-0.1365
	l-0.1821-0.1118l-0.0455-0.2487l0.0071-0.0631l-0.0594-0.0244l-0.1226-0.077l-0.1226-0.0663l-0.0978-0.091l-0.0387-0.1261
	l0.0143-0.1258l0.0942-0.0842l0.0176-0.1222l-0.0666-0.1122l-0.014-0.0595l0.014-0.0631l0.0143-0.0631l0.0522-0.0348l0.1014-0.0946
	l0.0419-0.0491l0.0247-0.0627l0.0771-0.119l0.0522-0.1157l0.0244-0.1258l0.0211-0.2487l-0.014-0.1258l0.0072-0.0631l0.0452-0.0491
	l0.049-0.1258l0.0036-0.1261l-0.028-0.0559l-0.0211-0.0036l-0.0595-0.014l-0.2415-0.0315l-0.0979-0.0419l-0.1154-0.0559
	l-0.0211-0.0072l-0.0594-0.014l-0.0456-0.0068l-0.0383-0.1469l-0.0211-0.0072h-0.077h-0.0595l-0.028,0.0559l-0.0279,0.105
	l-0.056,0.0455l-0.0594,0.0104l-0.0631-0.0172l-0.0383,0.0244l-0.0982,0.0874l-0.105,0.0351l-0.1258,0.0036l-0.105-0.0107
	l-0.0491,0.1297l0.0208,0.105l0.105,0.0942l0.0176,0.0595l-0.0032,0.0419l-0.0283,0.2347l0.014,0.1082l0.0423,0.1018l0.028,0.1258
	l0.056,0.105l-0.0071,0.0419l0.0175,0.0211l0.0247,0.0315l-0.014,0.014l0.0839,0.0806l0.119,0.0874l0.0455,0.0487l-0.0036,0.0455
	l0.014,0.0667l-0.014,0.0419l-0.014,0.0176l-4.6718-5.1233l-1.1897-0.525l-4.4059,4.6542h-0.0558h-0.0563l-0.0279,0.0563
	l-0.028,0.0978l-0.0491,0.0419l-0.0594,0.0107l-0.0595-0.0176l-0.0347,0.0208l-0.0911,0.0842l-0.1014,0.0348l-0.1193,0.0036
	l-0.1014-0.0104l-0.0455,0.1226l0.0175,0.0978l0.1014,0.0946l0.0211,0.0523l-0.0071,0.0423v0.0068l-1.5083,1.5921v-0.0735
	l-0.1817-0.1118l-0.0455-0.2451l0.0068-0.0663l-0.0594-0.0211l-0.1226-0.077l-0.119-0.0699l-0.1013-0.091l-0.0349-0.1226
	l0.0172-0.1258l0.0875-0.0806l0.0211-0.1261l-0.0663-0.1082l-0.0175-0.0631l0.0175-0.0595l0.014-0.0667l0.0523-0.0348l0.0982-0.0982
	l0.0452-0.0455l0.0247-0.0595l0.0734-0.1222l0.0524-0.1157l0.0247-0.1226l0.0244-0.2519l-0.0176-0.1222l0.0072-0.0631l0.0455-0.0491
	l0.0455-0.1258l0.0068-0.1261l-0.028-0.0527l-0.0244-0.0068l-0.063-0.0176l-0.2311-0.0244l-0.1014-0.0491l-0.1118-0.0491
	l-0.028-0.0068l-0.0595-0.0176l-0.0387-0.0072l-0.0419-0.1469l-0.0211-0.0068h-0.0767h-0.0594l-0.0283,0.0595l-0.0312,0.1014
	l-0.0491,0.0491l-0.0631,0.0068l-0.0594-0.014l-0.042,0.0176l-0.0946,0.091l-0.1086,0.0383l-0.1222,0.0036l-0.105-0.0104
	l-0.0491,0.1258l0.0212,0.105l0.1014,0.0946l0.0208,0.0595l-0.0032,0.0419l-0.0316,0.2344l0.0172,0.105l0.0423,0.105l0.028,0.1297
	l0.0559,0.0978l-0.0068,0.0491l0.014,0.014l0.028,0.0315l-0.0176,0.0176l0.0839,0.0803l0.119,0.0874l0.0492,0.0455l-0.0071,0.0455
	l0.0175,0.0631l-0.0175,0.0491l-0.0768,0.0839l-0.014,0.0667l0.0487,0.0455l0.0528,0.0455l0.0139,0.0455l0.0316,0.0595v0.0627
	l-0.0387,0.1122l-0.077,0.1258l-0.1014,0.077l-0.2028,0.091l-0.0247,0.014v0.0211l0.0107,0.0455l-0.0107,0.091l-0.0348,0.1609
	l-0.1996,0.0978l0.0036,0.2906l-7.8843,0.028l-0.0035-0.028l0.0071-0.0559l-0.056-0.0247l-0.1157-0.0735l-0.119-0.0663
	l-0.091-0.0842l-0.0383-0.1222l0.0176-0.1157l0.0874-0.0839l0.0176-0.1154l-0.0667-0.105l-0.014-0.0595l0.014-0.0563l0.0176-0.0627
	l0.0491-0.0387l0.0942-0.091l0.0423-0.0419l0.0208-0.0595l0.0735-0.1154l0.0491-0.1122l0.0244-0.119l0.0211-0.2379l-0.014-0.119
	l0.0068-0.0631l0.0423-0.0419l0.0455-0.119l0.0068-0.1226l-0.0315-0.0523l-0.028-0.0072l-0.028-0.0104l-0.0279-0.0036
	l-0.2172-0.0244l-0.0942-0.0455l-0.1122-0.0523l-0.0559-0.0143H722.52l-0.028-0.0068l-0.0316-0.0072l-0.0383-0.1398l-0.0247-0.0072
	h-0.0735h-0.0595l-0.0244,0.0559l-0.028,0.0982l-0.0491,0.0491l-0.0594,0.0068l-0.0352-0.0068l-0.028-0.0072l-0.0316,0.0211
	l-0.0978,0.0803l-0.0071,0.0036l0.0176-0.1749l-0.0176-0.1261l0.0071-0.0631l0.0492-0.0455l0.0419-0.1258l0.0104-0.1226
	l-0.0316-0.0559l-0.0278-0.0104l-0.0596-0.0107l-0.224-0.0244l-0.105-0.0491l-0.1118-0.0559l-0.0315-0.0036l-0.0594-0.014
	l-0.0352-0.0068l-0.0384-0.1473l-0.0283-0.0068h-0.0767h-0.0595l-0.0247,0.0559l-0.0315,0.105l-0.0523,0.0455l-0.0595,0.0104
	l-0.0351-0.0104l-0.028-0.0068l-0.0352,0.0208l-0.1013,0.091l-0.1015,0.0315l-0.1226,0.0068l-0.1082-0.0104l-0.0455,0.1226
	l0.0172,0.1086l0.105,0.0942l0.0211,0.0595l-0.0072,0.0423l-0.0279,0.2308l0.014,0.1086l0.0422,0.1014l0.0312,0.1294l0.0491,0.105
	l-0.0035,0.0387l0.014,0.0176l0.0315,0.0348l-0.0208,0.014l0.0874,0.0806l0.1154,0.0874l0.0455,0.0455l-0.0036,0.0455l0.014,0.0667
	l-0.014,0.0419l-0.0735,0.0839l-0.0175,0.0667l0.0455,0.0487l0.0527,0.0455l0.0176,0.0419l0.0315,0.0598v0.0663l-0.0455,0.1122
	l-0.0735,0.1258l-0.0946,0.0735l-0.2032,0.0946l-0.0244,0.014v0.0176l0.0104,0.0487l-0.0139,0.0878l-0.0347,0.1609l-0.1961,0.105
	l0.0036,0.287l-7.1426,0.0208h-0.014l-0.0104-10.6207l-0.5845-0.0247v-0.2344l-0.1541-0.1226l-0.0383-0.2483l0.0068-0.0595
	l-0.0523-0.0247l-0.1017-0.0839l-0.1014-0.0735l-0.0874-0.091l-0.028-0.1261l0.014-0.1222l0.0734-0.0806l0.0176-0.119
	l-0.0559-0.1122l-0.014-0.0595l0.028-0.1222l0.0419-0.0351l0.0839-0.091l0.0387-0.0455l0.0176-0.0595l0.0627-0.1118l0.0455-0.1157
	l0.0211-0.119l0.0176-0.2483l-0.0107-0.1261l0.0035-0.0595l0.0387-0.0419l0.0384-0.1258l0.0071-0.1226l-0.0247-0.0559
	l-0.0523-0.0176l-0.2064-0.0351l-0.1928-0.119l-0.0487-0.014l-0.0563-0.0176l-0.0347-0.1469l-0.0595-0.0036L711.7032,62.2
	l-0.0842,0.0072l-0.0208,0.0559l-0.0283,0.1014l-0.0312,0.0315l-0.0314-0.0104l-0.0875,0.0104l-0.0283,0.0211l-0.0839,0.0806
	l-0.063,0.0208h-0.0488l-0.0878-0.014l-0.0839,0.0104l-0.0419,0.119l0.014,0.105l0.091,0.0982l0.0176,0.0595l-0.0036,0.0455
	l-0.0244,0.2276l0.014,0.1082l0.0312,0.1018l0.0283,0.1329l0.0419,0.1014v0.0455l0.0104,0.0104l0.0243,0.0383l-0.0171,0.0143
	l0.0734,0.0839l0.1014,0.0874l0.0383,0.0527l-0.0068,0.0419l0.0176,0.0663l-0.0176,0.0419l-0.063,0.077l-0.014,0.0667l0.0419,0.0523
	l0.0455,0.0455l0.014,0.0419l0.028,0.0667v0.0631l-0.0383,0.1086l-0.063,0.1222l-0.0839,0.0702l-0.1716,0.0803l-0.0208,0.0107
	v0.0244l0.0104,0.0455l-0.0104,0.0874l-0.0314,0.1573l-0.1646,0.0946v0.2064l-1.1514-0.0559l-3.7655-2.712l0.0383-0.2415
	l-0.0454-0.1329l-0.0312-0.1329l0.0172-0.1437l0.0351-0.1398l-0.028-0.1329l-0.0315-0.1261l-0.1365-0.0631l-0.1434-0.0631
	l-0.0559-0.0559v-0.0663l0.0488-0.2663l0.0352-0.0699l0.0068-0.0631l-0.0488-0.119l-0.3465-0.0208l-0.0806,0.0208l-0.0523,0.0667
	l-0.014,0.1329v0.1294l0.0523,0.1297l0.0107,0.0663l-0.0387,0.0735l-0.0631,0.0595l-0.0838,0.0107l-0.1505,0.0839l-0.0838,0.1541
	l-0.0107,0.0383l-15.5237-11.2088l-5.2175-0.3709l-0.0072-2.0612l0.0594-0.0107l0.0595-0.0104l-0.0036-0.6579l-2.0261-0.1541
	l-2.3622,0.3816v0.6579l0.0527,0.0036l0.0595,0.0032l0.0032,1.5574l-12.2444-0.8643l-0.0072-2.3518l0.0595-0.0104l0.0559-0.0068
	v-0.6859l-2.1451-0.1613l-2.2852,0.406v0.6791l0.0595,0.0032l0.056,0.0036l0.0071,1.8269l-13.1024-0.9274l-0.0068-2.2924
	l0.063-0.014l0.056-0.0104l-0.0036-0.7629l-2.2712-0.1681l-2.1906,0.4272l0.0036,0.7558l0.0594,0.0036l0.0595,0.0036v1.7602
	l-5.7637-0.4096l-21.0182,16.1189l-4.0278,0.539l0.014,2.4952l-2.6035-2.8417L599.2012,63.6l-8.8465,8.7347l-1.8652,0.0068v-0.2727
	l-0.1122-0.1541l-0.028-0.3082l0.0036-0.0767l-0.035-0.0315l-0.0771-0.105l-0.0734-0.0946l-0.0596-0.119l-0.0244-0.1573
	l0.0068-0.1541l0.0562-0.0978l0.014-0.1541L588.115,70.48l-0.0072-0.0806l0.014-0.1505l0.0352-0.0455l0.0594-0.1118l0.028-0.0559
	l0.0104-0.0735l0.0491-0.1401l0.0315-0.1433l0.0104-0.1541l0.014-0.3114l-0.0104-0.1577l0.0072-0.0735l0.028-0.0559l0.0244-0.1541
	l0.0036-0.1537l-0.0176-0.0702l-0.0383-0.0244l-0.1505-0.0491l-0.1401-0.1505l-0.0351-0.0244l-0.0419-0.0211l-0.0244-0.1853
	l-0.0455-0.0036l-0.0351-0.0068l-0.196,0.0032l-0.014,0.0667l-0.0175,0.1258l-0.0244,0.0387h-0.0874l-0.0176,0.0244l-0.0663,0.1014
	l-0.0176,0.014h-0.1892l-0.0244,0.1541l0.0104,0.1329l0.0667,0.1261l0.0104,0.0735v0.0523l-0.0176,0.2906l0.0107,0.1365
	l0.0244,0.1329l0.0212,0.1573l0.0315,0.1329v0.0563l0.0068,0.0172l0.014,0.0455l-0.0068,0.0211l0.0523,0.105l0.0735,0.1154
	l0.028,0.0631l-0.0036,0.0559l0.0107,0.0842l-0.0107,0.0523l-0.0451,0.0982l-0.0072,0.0803l0.028,0.0667l0.0316,0.0595
	l0.0104,0.0523L587.59,70.9l0.0036,0.0803l-0.028,0.1401l-0.0455,0.1505l-0.0631,0.0839l-0.1261,0.105l-0.014,0.014v0.0247
	l0.0071,0.0595l-0.0071,0.1118l-0.0176,0.196l-0.1258,0.119l0.0036,0.3641l0.2132,0.014l0.0107,1.9562l0.0032,0.4863l-1.4767,0.0072
	l-0.1785-3.2441v-0.0036l-1.0496,0.0072l-0.8751,0.0068l-2.0892,0.0176l-1.0955,0.0104l0.0351,3.2234l-9.564,0.0348l-0.1856,0.1226
	l-0.1469-18.054l-0.0036-0.0036h-0.0036h0.0072l-0.0104-0.0068v-0.028l-0.0143,0.0176l-0.8012-0.6232l-0.0771-1.9981l0,0
	l-0.0662-0.4723l-0.3082-2.1418l0,0l0,0l-0.6404-2.5579l-0.9026-2.4744l-1.155-2.3587l-1.3893-2.2257l-1.6133-2.0644l-1.8196-1.8863
	l-0.0104-0.0072l-0.7873-0.7382l-1.9283-1.6133l-2.0787-1.3825l-2.2046-1.137l-1.8898-0.721v-0.0036l-0.0069-2.1838l0,0l0,0
	l-0.42-0.3917l-0.9485-0.3569l-1.4137-0.3046l-0.3533-0.0419l-0.0143-7.5275l0.0631-0.0211l0.4375-0.2867l0.0771-0.301v-0.0036l0,0
	v-1.1969v-0.0036h-0.0036l-0.2903-0.301l-0.3046-0.1258v-0.0036l-0.0036-0.0419l-0.0491-0.4479l-0.0032-0.0315l0,0l-0.091-0.4547
	l-0.0036-0.0176l0,0l-0.0316-0.1226l-0.0978-0.3429l0,0l0,0l0,0l-0.1644-0.4551l0,0l-0.1996-0.4408l-0.2311-0.42l-0.2623-0.4024
	l-0.2939-0.3849l-0.3221-0.3569l-0.0033-0.0072l-0.168-0.1713l-0.3326-0.315l-0.2415-0.1924l-1.8198-4.2694V5.8966V5.8898
	l-0.028-0.0315l-0.0667-0.0315l-0.0874-0.0211l-0.119-0.0172l-0.1257-0.0108l-0.0176-0.0032v-2.254V3.496l0.0104-0.1609V3.237
	l0.0631,0.182l0.0068,0.014h0.0176l0.0071-0.014l-0.0946-0.2659l-0.0104-0.014l0,0V0.0176L545.1096,0h-0.0734l-0.0387,0.0176v2.6912
	l-0.0735-0.2136l-0.0068-0.014h-0.014l-0.0072,0.014l0.091,0.2695v0.196l0.0104,0.1996v0.0455v2.5719l-0.1047,0.0036l-0.1193,0.0176
	l-0.1014,0.0211l-0.0699,0.0312l-0.0419,0.0315l-0.0036,0.0351h0.0036v4.6682l-1.8165,4.2729l-0.3709,0.2974l-0.3464,0.3254
	l-0.3219,0.3537l-0.2906,0.3777l-0.2587,0.3992l-0.2311,0.42l-0.196,0.434l-0.1644,0.4512l-0.1258,0.4655l-0.0911,0.4691
	l-0.0351,0.2727l-0.0383,0.315l-0.1716,0.0595l-0.4057,0.2974l-0.0351,0.3082l-0.0036,1.1969l0.3254,0.2938l0.2487,0.1014
	l-0.0071,7.5275l-1.3893,0.2483l-1.0987,0.3465l-0.5881,0.3816l-0.0454,0.4024l-0.0069,1.8756l-1.6064,0.6088l-2.1415,1.1094
	l-0.903,0.5809l-2.1555,1.4384l-1.9949,1.662l-1.8126,1.8688l-1.6101,2.0544l-1.3857,2.215l-1.1514,2.3586l-0.9026,2.4744
	l-0.6404,2.5579l-0.3745,2.6281l-0.0771,2.2257l-0.8188,0.4132l0.014,0.0663l-0.1577,19.8317l-0.1505,0.014l-2.1802,0.2415
	l-0.0244-2.5966l-13.4065-6.2819l-0.0383-5.186h-0.1717l-0.014-1.6835l0.3394-0.1469l-1.4872-6.0332l-1.3718,6.3306h0.3322
	l0.0143,1.7079l-0.1645,0.0735l0.0032,0.8013l-0.4899-0.0032l-0.5565,0.2344v0.2623l-0.5529-0.0032l-0.0104-1.5574l-1.9351-0.0072
	l-0.1469,0.0702l0.0068,1.4871l-2.0437-0.0068l-0.0104-1.5574l-1.9387-0.0036l-0.1365,0.0667l0.0068,1.4871l-2.0612-0.0068
	l-0.0104-1.5574l-1.8616-0.0072l-0.1329-0.5705l-0.4448,2.1279l-1.69-0.0072l-0.0108-1.557l-1.9422-0.0107l-0.1154,0.0702
	l0.0104,1.4871l-2.0892-0.0068l-0.0069-1.5574l-1.9458-0.0072l-0.105,0.0702l0.0071,1.4907l-2.1035-0.0072l-0.0068-1.5606
	l-1.9458-0.0104l-0.0943,0.0699l0.0068,1.4943l-2.1171-0.0072l-0.0036-1.5606l-1.9526-0.0072l-0.0806,0.0702l0.0072,1.4907
	l-2.1279-0.0107l-0.0068-1.5606h-0.2695l-0.0981-28.6048l1.309-2.4461l-3.7587-7.1462l-0.0244-8.0349l-3.5308-14.1695l-0.077-0.4512
	l-0.0176,0.0803l-0.0244-0.105l0.0208,0.1294l-0.0208,0.1086l-0.0283-0.1086l0.0176-0.0874l-0.0176,0.0842l-0.028-0.1014
	l-0.7733,3.9927l-2.6421,12.8816l0.014,7.1917l-2.3411,5.6447l-1.0883,3.5695h0.0491l1.0847,0.0068l0.0384,24.3602l-1.5291,3.7827
	l0.0068,5.1688H456.38l-0.0036-0.6755l-1.6831-3.9891l-1.666,4.1257l0.0036,1.9143l-0.889-0.0036l-0.0312,0.0491v1.5187
	l-2.1945-0.0036v-1.571l-1.9666-0.0072l-0.0208,0.0527v1.5187l-2.2084-0.0072v-1.5678l-1.9703-0.0068l-0.0032,0.0491v1.5223
	l-2.2257-0.0072v-1.5714l-1.967-0.0032l-0.0032,1.571l-2.0125-0.0068l-0.1154-0.2204l-0.0978,0.1992l0.0036-1.4975l-0.0072-0.0527
	l-1.9774-0.0068v1.5746l-2.215-0.0036V69.759l-0.0175-0.0523l-1.9738-0.0072l-0.0036,1.5785l-2.2082-0.0072l0.0036-1.5258
	l-0.0316-0.0491l-1.9738-0.0032l-0.0067,1.571l-2.2014-0.0032l0.0072-1.5258l-0.0419-0.0491l-1.981-0.0068l-0.0068,1.5746
	l-2.1873-0.0036l0.0071-1.5255l-0.0527-0.0491l-1.9842-0.0072l-0.0068,1.5749l-2.1802-0.0036l0.0068-1.5291l-0.0663-0.0491
	l-1.9845-0.0072l-0.0068,1.5785l-2.1734-0.0036l0.0072-1.5294l-0.077-0.0487l-1.9842-0.0072l-0.0068,1.5782l-2.1662-0.0032
	l0.0068-1.5258l-0.0839-0.0563l-1.9878-0.0032l-0.0104,1.5782l-2.1558-0.0036l0.0105-1.5291l-0.1015-0.0491l-1.9877-0.0072
	l-0.0105,1.5817l-2.1487-0.0068l0.0104-1.5294l-0.1118-0.0523l-1.2739-0.0036l-0.4411-2.1522l-0.8536,3.7304l-1.5714-0.0032
	l0.0104-1.533l-0.119-0.0487l-1.9981-0.0036l-0.0072,1.5782l-2.1347-0.0036l0.014-1.5327l-0.1329-0.0527l-1.9946-0.0032
	l-0.0104,1.3158l-0.4691-0.1613l-0.5002-0.0032l-0.0036,0.4304h-0.0595l0.0036-0.6228l-0.5006-0.1788h-0.2659l0.0068-0.5949
	l-0.1677-0.0627l0.014-1.7534l0.3322,0.0036l-1.3718-6.418l-1.4943,6.1729l0.3397,0.1261l-0.014,1.7355l-0.1716-0.0032
	l-0.0384,4.3604l-3.0201,1.8545l-4.168-0.0104l-0.5948,2.9327l-2.2433,1.3753l-8.8326-0.0176l-0.0703-1.533l-0.4443-8.3076
	l0.2659,7.0444l-0.3254-7.0408l-6.418,0.1573l-0.0874-2.2257l0.9167-0.1401l-0.0735-0.2132l-1.2109-2.1454l-1.9211-9.5116
	l-1.2283,9.5468l-1.1059,2.2608l0.1226,0.2132l0.7944,0.0667l0.0771,2.2397l-31.2609,0.7665V70.347l-1.1481-0.5461l0.0423-23.345
	l0.7837-0.0806v-0.2168l-2.726-2.789l-0.9066-9.8897l0.0351-6.761l-0.5425-5.295l-0.8257-1.1965l-0.2766-0.0631l0.0211-3.0553
	l0.6053-0.4024l-0.749-1.1442l-1.242-1.1059l0.0208-2.2465l0.3885-0.2802l-0.4899-0.7769l-1.0428-1.1338l-0.2974-0.077l0.014-1.242
	l0.1644-0.1261l-0.525-0.9554l-0.6823-2.2537l-0.7454,2.1906l-0.5498,0.917l0.1613,0.2415l-0.0139,1.1478l-0.6124,0.4687
	l-1.2879,1.3614l0.3813,0.5354l-0.0384,2.282l-0.0699,0.0487l-2.0088,1.8025l0.5913,0.7626l-0.0524,3.1531l-1.1373,0.7805
	l-0.6755,5.2842l-0.1294,6.7961l-1.1302,9.6062l-3.3807,0.4547l-0.0068,0.2311l0.8747,0.6543l-0.5705,24.7518l-1.4488,0.0387
	l-0.2727,11.0723l-1.7255-0.0036l-7.0201,5.085l-2.2815-0.0036l-1.1479-1.9071l-19.2437-2.9571l-12.598,2.908l-18.803,4.3604
	l-1.4137,3.0689l-4.8226-0.0104l-1.032,1.7882l-4.7-1.1302l-1.8653-0.0036l-0.1924-13.3227l-1.9666-4.8327l-12.9865-9.9349
	l-5.9877-0.0247l-9.3998,8.9096l-29.0983-0.0803l0.0104-3.5799l0.0036-1.3055h-0.9027l0.0383-11.9649l0.3114-0.4057l0.2344-1.5366
	l-0.0699-0.0595l-0.0383-1.6971l-1.9562-0.0068l-0.6404-0.5461l-0.3429-0.4092l0.4899-0.5497l0.5598-1.1127l0.3709-1.1023
	l0.0702-1.1653l-0.196-1.3019l-0.8224-1.5434l-0.5493-0.4268l-0.2731-0.1505l-0.6508-0.4691l-0.6687-0.1014l0.0211-5.6866
	l0.5913-0.0874l0.0315-0.5038l0.028-0.5074l-0.1574-0.3186l-0.2483-0.119l0.0767-0.2276l0.1541-1.3506l0.0244-0.5074l0.0283-0.5146
	l-0.1856-1.5119l-0.7349-1.1826l-0.4093-0.4236l0.0032-0.7454l-0.2835-0.1437l0.0595-0.2695l0.0107-0.3218l0.0104-0.3325
	l-0.1154-0.3673l-0.2627-0.2627l-0.028-0.5178l0.0735-0.1154l0.0072-0.287l0.0068-0.2903l0.0036-0.3465l-0.2591-0.2347
	l-0.0383-0.3394l0.0978-0.6719l0.0072-0.2659l0.0072-0.2695l-0.3186-1.0428l-0.0842-0.812l0.2347-0.8292l0.0068-0.2487
	l0.0036-0.2519l-0.0455-0.8851l-0.8049-0.3605l-0.5984-0.693l-0.1014-0.6823l0.0036-0.6823l0.1853-0.0527l0.105-0.63v-0.1537
	l-0.2799-0.1157l-0.0104-0.6683l0.1082-0.0208l0.0735-0.4307v-0.105l-0.1924-0.0595l0.014-2.579l0.2834,0.0036v-0.0211v-0.1082
	l-0.2834-0.0036l0.0036-0.4691V11.776h-0.0978v0.4899l-0.2974-0.0036v0.1086v0.0208l0.2938,0.0036l-0.014,2.579l-0.1888,0.0527
	v0.1086l0.0627,0.4304l0.1122,0.0208l-0.0176,0.6687l-0.287,0.1118l0.0036,0.1541l0.0946,0.63l0.1853,0.0595l-0.0032,0.6823
	l-0.105,0.6787l-0.5741,0.6895l-0.812,0.3501l-0.0523,0.8819l0.0068,0.2519v0.2483l0.224,0.8296l-0.0907,0.8152l-0.3325,1.0392
	l0.0036,0.2695l0.0068,0.2663l0.091,0.6579l-0.0455,0.3533l-0.2623,0.2344v0.3465l0.0068,0.2906l0.0072,0.2867l0.0663,0.1122
	l-0.0348,0.525l-0.2663,0.2555l-0.119,0.3673l0.0107,0.329l0.0105,0.329l0.0558,0.2623l-0.2903,0.1437l-0.0036,0.7454l-0.4164,0.42
	l-0.7489,1.1757l-0.2028,1.5083l0.0244,0.5142l0.0244,0.511l0.1365,1.351l0.0735,0.2276l-0.252,0.119l-0.1645,0.3146l0.0279,0.5146
	l0.028,0.5038l0.5809,0.0946l-0.0348,5.6902l-0.6719,0.091L152.4067,43.1l-0.5565,0.4232l-0.84,1.533l-0.2132,1.3019l0.0595,1.1686
	l0.3605,1.1094l0.5493,1.1198l0.4759,0.5458l-0.3465,0.4132l-0.644,0.539l-1.9598-0.0108l-0.0663,1.7079l-0.0699,0.0559
	l0.2344,1.533l0.2939,0.3953l-0.0943,11.9857l-0.7805-0.0032l-0.0108,1.1546l-0.028,3.7376l-29.3502-0.0806l-9.564-9.0497
	l-6.1697-0.0208l-13.5535,9.9771l-2.0963,4.885l-0.3501,13.5398h-2.0017l-0.8221-0.4479l-1.0256,0.4444h-0.3637l-4.7349,1.1059
	l-1.0675-1.7814h-4.154l-1.4416-3.1252l-10.8554-2.488l0.0946-2.8593l-0.2311-0.1501l-0.9238-0.1505l-1.1793-0.9625l-0.182-0.1258
	l-1.6764-0.7805l-3.2717-0.6823l-0.3325-0.0563l-0.5529-0.0487l-0.8504-0.0667l0.0176-0.4375l-0.0491-0.0315l-0.1645-0.0244
	l-0.2766-0.028l-0.3709-0.0279l-0.434-0.014l-0.4759-0.0107l-0.4795-0.0068l-0.4512,0.0036l-0.392,0.0104l-0.301,0.014
	l-0.1996,0.0244l-0.0735,0.0283l-0.0176,0.4444l-0.6963,0.0315l-0.6088,0.0348l-0.392,0.0419l-3.3104,0.5741L43.1627,79.61
	l-1.6516,0.693l-2.4253-0.5493l-20.3356,2.9571l-1.5398,2.4285L5.3297,85.1217L0,86.4236v10.7576v10.8099v2.3447h1002.3923V97.1812
	H1002.3431z M777.3993,81.6257l-0.0108,15.5555h-6.2499l0.0104-15.5484L777.3993,81.6257z M767.7651,81.6432l-0.0072,15.538h-6.0435
	l0.0036-15.5168L767.7651,81.6432z M758.0155,81.6748l-0.0072,15.5065h-5.2139V81.6819L758.0155,81.6748z"/>
</svg>
