<?xml version="1.0" encoding="utf-8"?>
<!-- Generator: Adobe Illustrator 18.1.1, SVG Export Plug-In . SVG Version: 6.00 Build 0)  -->
<svg version="1.1" id="istanbul" xmlns="http://www.w3.org/2000/svg" xmlns:xlink="http://www.w3.org/1999/xlink" x="0px" y="0px"
	 viewBox="0 0 999.6319 141.5658" enable-background="new 0 0 999.6319 141.5658" xml:space="preserve">
<path   d="M999.6319,101.4625l-13.7423-3.1704l-13.01-0.0103l0.0018-2.3038l1.672-0.0103l-9.9354-2.1716l-3.8315-0.522
	v-1.7921l0.6265-0.0627v-0.5531l-0.6265-0.0766l0.0035-4.2769l0.6265-0.0524v-2.7211l0.407-0.0282l-5.6442-11.5393l-5.0234,10.1859
	l-5.1907-10.6559l-5.3466,10.9029l0.3792,0.0349v2.5853l0.5897,0.0627v1.0755l-6.3943-0.7412l-8.2302,1.3117l1.3609,0.1743v0.9953
	l-2.5543,0.4034l-4.3204-0.5915l-3.948,0.6336l-4.2527-0.9607l-3.948,0.0139l-0.3724-0.0798l-42.9359,0.1425l-1.4878-2.4952
	l-3.045-1.7262l-0.1272-0.031l-0.562-0.0282l-0.8456-0.0171h-0.0852l-1.0719-6.3163l-1.0944,6.3719v0.139l-1.0858,0.5951V82.608
	l-1.0459-6.1841l-1.0438,6.1143v3.2364l-0.9326,1.5451h-0.3863v-0.0485l-2.0116-0.4109v-2.648l-0.7081-0.1322h-0.0435v-1.4756
	l-1.032-6.1841l-0.4611,2.7179l-0.2434-0.0139l-0.6525-0.0068l-0.5466,0.0103l-0.1251,0.0175v0.4768l0.1828,0.0068v0.7936
	l-0.475-0.0103h-0.5865l-0.5117,0.0032l-0.2905,0.0175v0.021V80.92l0.1878,0.0107v0.9222h0.0071l-1.5052,0.821l-0.1129,0.1914
	v-0.2608l-1.0249-6.1841l-1.0248,6.1146v1.6666l-0.475-0.0973l-0.5117-0.0139l-0.8071-1.3573l-0.4091-0.2263l-0.0068-0.0346v-2.8155
	h0.052l0.1358-0.0207v-0.4732l-0.3671-0.0175l-0.6475-0.0071l-0.5513,0.0107l-0.134,0.0171v0.4768l0.1878,0.0107l-0.0018,0.7897
	l-0.3549-0.0103h-0.588l-0.5099,0.0071l-0.3011,0.0139l-0.0103,0.0207v0.47l0.186,0.0103v0.9187h0.0139l-0.7896,0.4387
	l0.0032-12.288h1.4147v-1.2005l-2.4167-0.16h-0.4055l0.0035-8.2338l0.5916-0.0103l-0.0887-0.6856l-0.1094-0.5844l-0.1237-0.4736
	l-0.1393-0.3478l-0.1478-0.2088l-0.1497-0.0663l-1.0092-0.0032l-3.7078-11.9399l-3.6783,11.9188l-1.0405-0.0068l-0.1357,0.0763
	l-0.134,0.2227l-0.1254,0.3517l-0.1111,0.4768l-0.0991,0.5844l-0.0819,0.6788h0.4907v0.0032h0.0991l-0.0032,8.2545l-2.725,0.0036
	l-0.0018,1.1799l1.3609,0.1183l-0.0018,10.3979l-0.2523-0.1425l-0.1044-0.0175l-0.4055-0.0175l-0.6019-0.0103h-0.289v-0.4871h0.0349
	l0.1529-0.0139v-0.4768l-0.3495-0.0175l-0.6422-0.0068l-0.562,0.0068l-0.155,0.021v0.4732l0.1881,0.0139v0.661l-0.2141,0.1219
	l-0.4786-0.0036l-0.5203,0.0107l-0.3164,0.0139l-0.0278,0.0175v0.4697l0.1914,0.0103v0.1183l-0.5135,0.2819l-0.6054,1.0127
	l-0.1251-0.0834l-0.155-0.087l-3.412-0.0036l-0.4543-0.7658l-0.9707-0.5499v-1.2041h0.0278l0.1636-0.0207v-0.4697l-0.3392-0.0175
	l-0.6422-0.0071h-0.0228v-1.8723l-1.0316-6.5494l-1.0334,6.4973v2.937h-0.0139l-0.5063,0.0103l-0.2384,0.0175l-2.1367,1.1831
	l-1.1641,1.9524l-0.851,0.0381l-0.3478-0.5844l-0.5324-0.3029l0.0032-10.3285l-1.2682-1.2355l-1.2597,1.1902v8.3728h-0.0731
	l-0.3289,0.0139l-0.0453,0.0175v0.4697l0.1914,0.0139v0.9294h0.0295l-0.2783,0.1529l-0.2908-0.1636l-0.0627-0.0175l-0.2886-0.0139
	l-0.2559-0.0032l-0.4679-0.268l-0.0577-0.0139l-0.2904-0.0139l-0.4401-0.0071h-0.475l-0.3831,0.0103l-0.1878,0.0139l-1.585,0.8841
	l-0.3621,0.6054l-0.1653-0.2819l-0.9169-0.5256v-2.5714h0.0071l0.1842-0.021v-0.4732l-0.3235-0.0139l-0.6332-0.0103l-0.5117,0.0103
	v-7.1063l-1.2386-1.2283l-1.2319,1.1866v9.5805l-0.0018-0.0036l-0.0524-0.0139l-0.2819-0.0139l-0.4383-0.0068l-0.475,0.0032
	l-0.3898,0.0036l-0.1913,0.021l-1.507,0.8385l-0.3845,0.0246l-0.5584,0.3164l-0.9675-0.5531v-2.5162l0.1913-0.021v-0.4732
	l-0.315-0.0175l-0.635-0.0068l-0.583,0.0068l-0.1931,0.021v0.4732l0.1899,0.0103v0.7868h-0.1917l-0.5392,0.0068l-0.3446,0.0175
	l-0.0627,0.0207v0.4665l0.1932,0.0139v0.9258l0.0331,0.0036l-0.1479,0.0834l-0.1636-0.0976l-0.0452-0.0171l-0.2819-0.0107h-0.0175
	l-0.475-0.2712l-0.0417-0.0175l-0.2801-0.0139l-0.4351-0.0071h-0.4768l-0.207,0.0071l-0.0731-0.129l-0.2541-0.1461v-3.8521
	l-0.0049-0.0524l-0.9885-6.5978l-0.9935,6.5943l-0.0018,0.0559v2.7179l-0.3011-0.1743l-0.0659-0.0242l-0.4387-0.021l-0.6959-0.0103
	h-0.3706v-0.2331l0.1896-0.0175v-0.4732l-0.3043-0.021l-0.6315-0.0032l-0.5883,0.0068l-0.2017,0.021v0.4732l0.1896,0.0139v0.2715
	h-0.0085l-0.9536,0.5356l-0.0713,0.021v0.021l-0.7936,0.4419v-2.4916l-1.0145-6.6748l-1.0178,6.7339v3.2606l-0.1774,0.0941v-4.1205
	l-1.2736-1.2212l-1.2319,1.2212l-0.0471,0.0698v4.562l-0.0278,0.0036l-0.2733,0.1532l-0.8004-0.4593v-2.4014l0.1913-0.0171v-0.4736
	l-0.2993-0.0207l-0.6282-0.0036l-0.5916,0.0071l-0.2138,0.0207v0.4732l0.1896,0.0139v0.7865l-0.4836,0.0071l-0.362,0.0139
	l-0.0784,0.021v0.3966l-1.0002-0.9433l-1.1243,1.1172l-0.0641,0.0802v2.9962l-0.4315,0.0175l-0.2576-0.1636l-0.4073-0.7031
	l-0.0417-0.0278l-0.2295-0.1286l-0.0139-0.0246l-0.0385-0.0242l-0.2263-0.1322l-0.0139-0.0242l-0.0399-0.0246l-0.7968-0.4558
	l-0.1375-0.0071l-0.2263-0.0068l-0.2469,0.0036l-0.2123,0.0032l-0.061,0.0071l-0.0018-5.6061l-0.9219-5.9126l-0.919,5.961v6.5946
	l-7.6298-1.6809l-8.2684,1.7333l0.5149,0.8107h0.4454v0.6892l-1.7015-0.3898V76.946l-0.9693-6.0309l-0.9657,6.0761v7.3672
	l-5.1226-1.1728l-0.052,0.0103v-9.5698l-1.0666-6.5878l-1.0701,6.6295v10.0188l-3.8699,0.8944v-1.2458h-2.3002v-7.395
	l-0.4714-0.4248v-4.5135l-1.1083-6.7546l-1.1136,6.786l0.0018,9.9251l-1.5854-2.6659l-2.9855-1.6599l-0.3674-0.0207l-0.7309-0.0107
	l-0.8994-0.0036l-0.8232,0.0143l-0.5356,0.0207l-0.1012,0.021l-3.0012,1.7087l-1.6115,2.7211l-1.3901,0.042l-0.8146,0.2227v1.3848
	l-1.5031-0.8246l-0.2334-0.021l-0.4871-0.0103h-0.5983h-0.0577v-6.7649l-1.1307-6.647l-1.126,6.6919l0.0018,7.5101l-0.4034,0.2331
	l-0.8491-0.4697l-0.3742-0.0246l-0.2245-0.0032l-1.3605-0.7519l-0.3446-0.0242l-0.717-0.0139h-0.8962l-0.8402,0.0139l-0.5585,0.0242
	l-0.1272,0.0314l-3.0258,1.7123l-0.3759,0.6297h-0.2192h-0.0085l-0.0036-10.0847l-1.1239-6.5148l-1.1261,6.5565l0.0018,10.8017
	l-0.9814,0.5637l-0.1251,0.0766l-1.2006,2.0497l-1.3224,0.0592l-0.3656,0.2299v0.2017h-0.4365v-0.428l-1.6285-0.0731l-1.2583-2.0985
	l-2.3159-1.2668l-0.3043-0.0242l-0.5794-0.0103h-0.7031l-0.6368,0.0175l-0.402,0.0242l-0.0591,0.0242l-2.3316,1.3363l-1.2162,2.0569
	l-1.2337,0.052l-0.4889,0.2334v0.212l-10.7165,0.0453h-0.0071l-1.378,0.5499v0.7551l-0.5741-0.1008l-2.9809,0.6856l-0.8228-1.3502
	l-3.1946-1.7158l-0.3742-0.0346l-0.769-0.0175l-0.9572,0.0036l-0.8909,0.0242l-0.588,0.0349l-0.1268,0.0417l-0.9796,0.5534
	l-0.2715,0.0068l-0.6054,0.0385l-0.1358,0.0417l-3.3044,1.8687l-0.6749,1.1172l-0.1272,0.0381l-0.005-9.9108l-1.1014-5.9265
	l-1.098,5.9821l0.0018,7.0714l-1.058-0.0524l-1.3954-2.2621l-2.5875-1.3848l-0.2819-0.021l-0.6072-0.0139h-0.7654l-0.7291,0.0175
	l-0.489,0.0278l-0.1237,0.0278l-2.6013,1.4511l-1.3694,2.2553l-1.0124,0.0417l-0.9764,0.2573v4.3468l-1.6057,0.4975v0.6265
	l-0.1707,0.0036l-0.1703,0.0139l-0.0421,0.0103l-0.3585,0.2017l-0.1739,0.0036l-0.1685,0.0139l-0.0471,0.0139l-0.3603,0.2056
	l-0.1774,0.0068l-0.1689,0.0103l-0.0452,0.0107l-0.3671,0.2088l-0.181,0.0068l-0.1529,0.0103l-6.6434,0.0281l0.4454-23.9425h0.0071
	l0.955-1.2005l0.0435-2.4118l-0.0242-0.0068l-0.2644-0.0036l-0.4786-0.0068l-0.4665-0.0036l0.2334-12.4897l0.9532-1.2005
	l0.0246-0.0314l0.0452-2.4324l-0.1985-0.0349l-0.4141-0.0314l-0.5916-0.0207l-0.0314-0.0036l0.2922-15.7817l0.0071-0.0278
	l-1.5801-13.1543h0.0018v-0.0071l0.0242-1.3224l0.0453-0.0068l0.0748-0.0107l0.056-0.0175l0.026-0.0139l0.0018-0.0139l0.0121-0.6054
	l-0.026-0.0139l-0.0488-0.0103l-0.0731-0.0071l-0.0555-0.0036l0.0157-0.9953l0.0068-0.0032l0.0663-0.0107l0.0435-0.0103
	l0.026-0.0139v-0.0139l0.0103-0.5776l-0.0189-0.0139l-0.0421-0.0107l-0.0609-0.0068l-0.0556-0.0036l0.0246-1.43l0.1076-0.0107
	l0.2958-0.1112l0.1237-0.0453l0.2576-0.181l0.1999-0.2437l0.129-0.2851l0.0452-0.3065l-0.0331-0.3132l-0.1201-0.2922l-0.1913-0.2541
	l-0.2106-0.1671l-0.1219,0.0488l0.1461,0.1914l0.0869,0.2192l0.0282,0.2366L616.9,15.1937l-0.0977,0.2124l-0.1493,0.1842
	l-0.1882,0.129l-0.113,0.0417l-0.2402,0.0242l-0.2419-0.0381l-0.2209-0.0941l-0.1913-0.1497l-0.1426-0.1914l-0.0887-0.2227
	l-0.0281-0.2331l0.0349-0.2334l0.0977-0.2156l0.1511-0.181l-0.1201,0.0488l-0.2191,0.1497l-0.2,0.247l-0.129,0.2819l-0.0466,0.3097
	l0.0345,0.3097l0.1201,0.2961l0.1913,0.2505l0.2523,0.2017l0.294,0.1286l0.2245,0.0349l0,0l-0.0261,1.4336l-0.0452,0.0071
	l-0.0627,0.0103l-0.0467,0.0139l-0.021,0.0139l-0.0036,0.0107l-0.0085,0.5812l0.0189,0.0103l0.0421,0.0103l0.0609,0.0071h0.0172
	l-0.0189,0.9985l-0.0471,0.0036l-0.073,0.0139l-0.0542,0.0139l-0.0278,0.0107l-0.0036,0.0171l-0.0103,0.6058l0.0246,0.0139
	l0.052,0.0103l0.0713,0.0071l0.0555,0.0068l-0.0224,1.3224l0.0018,0.0036l-2.0376,13.2099l-0.0506,0.0175l-0.0068,0.052
	l-0.2751,15.7193l-0.5602,0.0314l-0.4315,0.0381l-0.226,0.0385l-0.0071,0.0417l-0.0399,2.4114l0.9236,1.1973l-0.2156,12.4338
	l-0.5342,0.0036l-0.4508,0.0036l-0.233,0.0068l-0.0399,2.3908l0.0032,0.0139l0.8894,1.1902l0,0l-0.4144,23.9945h-0.0363
	l-0.3428-0.5499l-2.2169-1.1517l-0.212-0.0278l-0.3221-0.0107l-0.0937-0.0659l-0.9083-0.3517l-0.0663-0.0242l-0.1233-0.0207
	l-0.1793-0.021l-0.1985-0.021h0.0435l0.0766-0.0068l0.0381-0.0139v-0.0139l0.0054-0.1914l-0.0381-0.0107l-0.0734-0.0139
	l-0.1041-0.0103l-0.1254-0.0103h-0.0506l0.0107-0.5951v-0.0837v-0.0032l-0.0125-0.0036L607.1003,91.2l-0.0313-0.0036h-0.0121
	l0.0103-0.6054l0,0l-0.0067-0.0036l-0.0125-0.0032h-0.0157l-0.0206-0.0036h-0.026h-0.0228h-0.026h-0.0175l-0.0192,0.0036h-0.0121
	l-0.0068,0.0032l0,0l-0.0089,0.6054h-0.0121h-0.0295l-0.0225,0.0036l-0.0125,0.0071l0,0l-0.0104,0.6785h-0.0435l-0.1268,0.0036
	l-0.108,0.0068l-0.073,0.0107l-0.0403,0.0103l-0.0015,0.0139l-0.0018,0.1914l0.0346,0.0139l0.0716,0.0139l0.0502,0.0036
	l-0.1842,0.0103h0.0014l-0.186,0.0139l-0.1287,0.0139l-0.0698,0.021l-0.0749,0.0242l-0.6785-0.4764l-0.877-0.3446l-0.061-0.0175
	l-0.1183-0.021l-0.1757-0.0207l-0.2071-0.021l0.0488-0.0036l0.0731-0.0103l0.0399-0.0103l0.0018-0.0107l0.0036-0.1842
	l-0.0331-0.0103l-0.0677-0.0139l-0.0994-0.0107l-0.1218-0.0068l-0.0574-0.0036l0.0107-0.6578l-0.0107-0.0068l-0.0207-0.0036h-0.0278
	l-0.0125-0.0036l0.0089-0.588h-0.0071l-0.0104-0.0036h-0.0175l-0.0206-0.0036h-0.0211h-0.026h-0.0211h-0.0206h-0.0175
	l-0.0121,0.0036h-0.0071v0.0036l-0.0085,0.5844l-0.0071,0.0036h-0.0313l-0.0225,0.0036l-0.0121,0.0036l-0.0018,0.0032
	l-0.0089,0.6578h-0.0363l-0.1237,0.0036l-0.1027,0.0068l-0.0748,0.0071l-0.0399,0.0139l-0.0018,0.0103l-0.0035,0.181l0.0349,0.0139
	l0.0677,0.0107l0.061,0.0068l-0.3585,0.0242l-0.1268,0.0175l-0.0717,0.021l-0.0296,0.0103l-0.6036-0.4315l-0.8524-0.3307
	l-0.0577-0.0207l-0.113-0.0175l-0.3845-0.0417l0.0538-0.0036l0.0731-0.0103l0.0367-0.0107l0.0054-0.0068l0.0014-0.181
	l-0.0278-0.0103l-0.0677-0.0103l-0.0923-0.0107l-0.1201-0.0068l-0.0556-0.0036l0.0085-0.6404l-0.0085-0.0068l-0.021-0.0036h-0.0296
	l-0.0139-0.0036l0.0107-0.5673v-0.0036h-0.0053h-0.0121l-0.0157-0.0032l-0.0192-0.0036h-0.0225h-0.0228h-0.0207h-0.0211
	l-0.0156,0.0036h-0.0157l-0.0068,0.0032l0,0l-0.0071,0.5709h-0.0035h-0.0331l-0.0207,0.0036l-0.0121,0.0036l-0.0017,0.0032
	l-0.009,0.6368h-0.0278l-0.1219,0.0071l-0.1008,0.0036l-0.0731,0.0103l-0.0381,0.0103l-0.0036,0.0107l-0.0054,0.1807l0.0331,0.0071
	l0.0627,0.0139l0.0713,0.0071l-0.3478,0.0242l-0.1272,0.0139l-0.0556,0.0175l-0.5413-0.3827l-0.2869-0.108l-0.1479-0.3724
	l-0.1376,0.2576l-0.2559-0.1012l-0.0488-0.0171l-0.1076-0.0143l-0.3881-0.0417l0.0556-0.0032l0.0731-0.0107l0.0399-0.0068
	l0.0071-0.0139l0.0018-0.1743l-0.0295-0.0103l-0.0645-0.0103l-0.0887-0.0107l-0.1147-0.0068h-0.0591l0.0085-0.6265l-0.0085-0.0036
	h-0.021l-0.0261-0.0068h-0.0139l0.0068-0.5534l-0.005-0.0036h-0.0121l-0.0139-0.0032h-0.0175H596.97h-0.0225h-0.0228h-0.0193
	h-0.0171l-0.0107,0.0032h-0.0068v0.0036l-0.0071,0.5499h-0.0049l-0.0314,0.0036l-0.0211,0.0036l-0.0121,0.0032h-0.0018
	l-0.0068,0.6229h-0.0246l-0.1183,0.0036l-0.0973,0.0071l-0.0713,0.0068l-0.0421,0.0107l-0.005,0.0103l-0.0018,0.1739l0.0278,0.0139
	l0.0627,0.0071l0.0816,0.0103l-0.3428,0.0278l-0.0452,0.0036l-0.4052-0.2922l-0.0748-0.0246l-0.7587-0.2993l-0.0941-0.0171
	l-0.4401-0.042l0.0798-0.0068l0.0784-0.0071l0.0435-0.0068l0.0121-0.0107l0.0018-0.1703l-0.0225-0.0071l-0.0541-0.0103
	l-0.0798-0.0068l-0.1062-0.0071l-0.0802-0.0036l0.0071-0.609l-0.0071-0.0032l-0.0157-0.0036l-0.0242-0.0036h-0.021l0.0071-0.5427
	h-0.0018h-0.0104h-0.0139l-0.0157-0.0036h-0.0211h-0.0192h-0.0225h-0.0175l-0.0192,0.0036h-0.0121h-0.0068h-0.0018l-0.0071,0.5427
	h-0.026l-0.0242,0.0036h-0.0139l-0.0035,0.0036l-0.0054,0.6122l-0.1147,0.0036l-0.0991,0.0036l-0.0748,0.0068l-0.0435,0.0071
	l-0.0125,0.0103l-0.0015,0.1707l0.0207,0.0103l0.0524,0.0071l0.0852,0.0068l0.0538,0.0036l-0.3599,0.0346l-0.3759-0.2676
	l-0.7829-0.3029l-0.0453-0.0175l-0.0994-0.0175l-0.3895-0.0381l0.0605-0.0036l0.0717-0.0068l0.0399-0.0107l0.0085-0.0068
	l0.0018-0.1671l-0.0278-0.0103l-0.0556-0.0107l-0.0851-0.0068l-0.1044-0.0071l-0.0645-0.0032l0.0071-0.5951H591.67l-0.0175-0.0036
	l-0.026-0.0036h-0.0157l0.0071-0.5256l-0.0054-0.0032h-0.0071l-0.0139-0.0036h-0.0189h-0.0192h-0.0211h-0.0189h-0.021h-0.0157
	l-0.0103,0.0036h-0.0071h-0.0018l-0.0068,0.5253l0,0l-0.0295,0.0036h-0.0228l-0.0085,0.0036l-0.0035,0.0036l-0.0068,0.5915h-0.0139
	l-0.0488,0.0036l0.2263-19.0113h0.0032l0.7363-0.9536l0.026-1.9068l-0.1461-0.0036l-0.3236-0.0036l-0.475-0.0036h-0.0175
	l0.1183-9.8866l0.7551-0.9639l0.021-1.9211l-0.0349-0.0242l-0.2124-0.0207l-0.3688-0.0175l-0.3464-0.0139l0.1497-12.4897
	l0.0018-0.0036l-0.0242-0.0314l-1.2789-10.4015h0.0053l0.0121-1.058l0.0556-0.0036l0.0524-0.0068l0.0345-0.0107l0.0175-0.0103
	l0.0071-0.4732l-0.0071-0.0103l-0.026-0.0107l-0.0452-0.0068l-0.061-0.0036h-0.021l0.0089-0.8039h0.0206l0.0453-0.0068
	l0.0278-0.0107l0.0143-0.0068l0.005-0.4558l-0.005-0.0071l-0.0211-0.0071l-0.0349-0.0068l-0.052-0.0036l-0.026-0.0036l0.0139-1.1414
	l0,0l0.0991-0.0103l0.2402-0.0905l0.0748-0.0242l0.2053-0.1461l0.1618-0.1917l0.1008-0.2259l0.0367-0.2437l-0.0296-0.2437
	l-0.0976-0.2331l-0.1565-0.1981l-0.1707-0.129l-0.0763,0.0278l0.1183,0.1497l0.0731,0.1707l0.0206,0.1878l-0.026,0.181
	l-0.0766,0.1703l-0.1183,0.1465l-0.1532,0.1044l-0.1094,0.0417l-0.1931,0.0207l-0.1931-0.0314l-0.1793-0.0763l-0.1533-0.1151
	l-0.1183-0.1497l-0.0713-0.1739l-0.0228-0.1842l0.0281-0.181l0.0748-0.1743l0.1198-0.1425l-0.0745,0.0278l-0.1742,0.1219
	l-0.16,0.1949l-0.1008,0.2263l-0.0385,0.2434l0.0331,0.2437l0.0941,0.2331l0.1547,0.1949l0.2056,0.16l0.2384,0.0976l0.1739,0.0242
	l-0.0139,1.1414L589.843,27.76l-0.047,0.0068l-0.0314,0.0107l-0.0121,0.0068L589.749,28.24l0.0036,0.0071l0.0228,0.0068
	l0.0364,0.0071l0.047,0.0036l-0.0085,0.8004l-0.0574,0.0068l-0.0524,0.0071l-0.0364,0.0103l-0.0156,0.0103l-0.0054,0.4736
	l0.0054,0.0068l0.0278,0.0103l0.0417,0.0071l0.0609,0.0068h0.0242l-0.0121,1.0512l0.0018,0.0068h0.0035l-1.5052,10.4158
	l-0.0731,0.0314l-0.1393,12.4929l-0.1094,0.0036l-0.4387,0.021l-0.2887,0.0242l-0.1236,0.0242l-0.0211,1.9175l0.7327,0.9572
	l-0.108,9.8762l-0.2662,0.0032h-0.402l-0.2366,0.0036l-0.0574,0.0036l-0.0192,1.9068l0.7152,0.95l-0.0018,0.0036l-0.1999,18.1724
	l-0.2263-0.0905l-0.0905-0.0171l-0.3913-0.042l0.0695-0.0032l0.0677-0.0071l0.0403-0.0068l0.0085-0.0107l0.0018-0.1529
	l-0.0228-0.0107l-0.052-0.0068l-0.0784-0.0071l-0.0991-0.0068l-0.0663-0.0036l0.0071-0.5638l-0.0071-0.0036l-0.0175-0.0036h-0.0225
	h-0.0175l0.0054-0.5046h-0.0054h-0.0068l-0.0139-0.0032h-0.0157h-0.0192h-0.0193h-0.0189h-0.0192h-0.0139h-0.0121l-0.0071,0.0032
	h-0.0018l-0.0053,0.5014l-0.0278,0.0032h-0.0189l-0.0107,0.0036h-0.005l-0.0054,0.5673h-0.0035h-0.1062l-0.0937,0.0068
	l-0.0663,0.0036l-0.0399,0.0103l-0.0121,0.0071v0.1564l0.0207,0.0071l0.0541,0.0103l0.0767,0.0071l0.0345,0.0036l-0.3115,0.0242
	l-0.3307-0.2298l-0.0695-0.031l-0.6906-0.268l-0.0855-0.0139l-0.3895-0.0421l0.0695-0.0032l0.0677-0.0071l0.0385-0.0071
	l0.0085-0.0068l0.0018-0.1532l-0.0192-0.0068l-0.0503-0.0071l-0.0748-0.0068l-0.0958-0.0071l-0.0695-0.0036l0.0054-0.5531h-0.0071
	l-0.0139-0.0036l-0.0225-0.0036h-0.0156l0.0032-0.4871h-0.0018l-0.0085-0.0036h-0.0139h-0.0139h-0.0192h-0.0189h-0.0211h-0.0175
	h-0.0139h-0.0103l-0.0071,0.0036H583.84l-0.0014,0.4871h-0.0264h-0.0207l-0.0121,0.0036l-0.0018,0.0036l-0.0053,0.5498h-0.0036
	l-0.1026,0.0032l-0.0923,0.0036l-0.0624,0.0071l-0.0403,0.0068l-0.0121,0.0107l-0.0018,0.1493l0.0211,0.0107l0.0471,0.0068
	l0.078,0.0071l0.0435,0.0036l-0.3147,0.0278l-0.1165,0.0103l-0.0663,0.0139l-0.7134,0.2576l-0.6229,0.428l-0.0506,0.0417
	l-0.515,0.5776l-0.1774,0.3375l-1.8288,0.0282l-0.113-0.2263l-0.5046-0.5883l-0.635-0.4486l-0.0591-0.0282l-0.6978-0.2712
	l-0.082-0.0139l-0.4002-0.0417l0.061-0.0036l0.0695-0.0071l0.0435-0.0068l0.0139-0.0071v-0.1564l-0.0189-0.0071l-0.0471-0.0068
	l-0.0731-0.0107l-0.0941-0.0032l-0.0802-0.0036l0.0054-0.5534l-0.0068-0.0036h-0.0125l-0.0207-0.0032h-0.021l0.0035-0.4943h-0.0018
	h-0.0085h-0.0125h-0.0139h-0.0207h-0.0192h-0.0193h-0.0171h-0.0142h-0.0104h-0.0068h-0.0035l-0.0035,0.4907l-0.0242,0.0036
	l-0.0211,0.0032h-0.0121h-0.0054l-0.0032,0.5534l-0.0977,0.0036l-0.0905,0.0036l-0.0695,0.0068l-0.0417,0.0103l-0.0139,0.0071
	v0.1532l0.0156,0.0103l0.0467,0.0068l0.0734,0.0071l0.052,0.0036l-0.4212,0.0381l-0.0731,0.0139l-0.1233,0.0417l-0.2715-1.3082
	l-0.3029,1.5241h-0.0085l-0.0453,0.0314l-0.6422,0.4383l-0.5131,0.5812l-0.1743,0.341l-1.8862,0.0246l-0.1112-0.2227l-0.5099-0.5919
	l-0.635-0.4522l-0.0538-0.0278l-0.7031-0.2715l-0.0784-0.0139l-0.4105-0.0453h0.0538l0.0748-0.0071l0.0435-0.0103l0.0139-0.0068
	l0.0018-0.1532l-0.0139-0.0071l-0.0453-0.0103l-0.0731-0.0036l-0.0923-0.0068l-0.0887-0.0036l0.0036-0.5534l-0.005-0.0068h-0.0125
	l-0.0225-0.0036h-0.0211l0.0018-0.4943v-0.0032h-0.0103h-0.0089l-0.0171-0.0036h-0.0157h-0.021h-0.0193h-0.0189l-0.0139,0.0036
	h-0.0125h-0.0085l-0.0018,0.0032l-0.0036,0.4943h-0.0207h-0.0192l-0.0139,0.0036l-0.0054,0.0036l-0.0032,0.5531l-0.0887,0.0036
	l-0.0923,0.0036l-0.073,0.0068l-0.0435,0.0071l-0.0157,0.0103l-0.0018,0.1532l0.0157,0.0068l0.0435,0.0071l0.0695,0.0068
	l0.0556,0.0036l-0.4088,0.0385l-0.0766,0.0139l-0.7031,0.2608l-0.0574,0.0278l-0.6418,0.449l-0.5117,0.5812l-0.1757,0.341
	l-1.8758,0.0278h-0.0645l-0.113-0.2263l-0.5099-0.5915l-0.64-0.4558l-0.0453-0.0314l-0.7084-0.2715l-0.0713-0.0103l-0.1201-0.0139
	l-0.3011-0.0314l0.0453-0.0036l0.0748-0.0068l0.0471-0.0071l0.0156-0.0103l0.0036-0.1497l-0.0121-0.0103l-0.0417-0.0071
	l-0.0698-0.0068l-0.0923-0.0071l-0.0991-0.0036l0.0018-0.5602l-0.0054-0.0036l-0.0103-0.0036h-0.0211l-0.0242-0.0032l0.0018-0.4907
	l-0.0018-0.0036h-0.0053h-0.0121l-0.0157-0.0036h-0.0171h-0.021h-0.0175h-0.0193l-0.0171,0.0036h-0.0107h-0.0068l-0.0053,0.0036
	v0.4907l-0.0207,0.0032h-0.0192l-0.0139,0.0036h-0.0071l-0.0035,0.5637h-0.0763l-0.0976,0.0071l-0.0731,0.0036l-0.0471,0.0103
	l-0.0189,0.0068l-0.0018,0.1532l0.0139,0.0103l0.0381,0.0071l0.0695,0.0068l0.061,0.0036l-0.3966,0.0385l-0.0817,0.0139
	l-0.7013,0.2608l-0.0645,0.0278l-0.6422,0.449l-0.515,0.5848l-0.1739,0.3442l-0.5865,0.0071l0.0035-0.5324l0,0l-0.0103-0.0036
	h-0.0121h-0.0157l-0.0193-0.0036h-0.021h-0.0225l-0.0175,0.0036h-0.0192h-0.0157l-0.0068,0.0036h-0.0054l-0.0018,0.5359
	l-1.0612,0.0139l-0.1882,0.0036l-0.113-0.2299l-0.5117-0.5951l-0.0449-0.0453l-0.63-0.4383l-0.717-0.2715l-0.0677-0.0175
	l-0.1166-0.0103l-0.3114-0.0314l0.0345-0.0036l0.0748-0.0068l0.0524-0.0071l0.0207-0.0103v-0.1568l-0.0085-0.0068l-0.0399-0.0071
	l-0.0681-0.0103l-0.0887-0.0036l-0.1044-0.0036h-0.0049l0.0014-0.5602l-0.0014-0.0036l-0.0143-0.0032h-0.0189l-0.0278-0.0036
	l0.0018-0.4943h-0.0018l-0.0071-0.0036h-0.0104h-0.0157h-0.0157l-0.0192-0.0032h-0.0207l-0.0175,0.0032H553.78h-0.0139h-0.0071
	l-0.0018,0.0036l-0.0015,0.4943h-0.0175l-0.0228,0.0036l-0.0139,0.0032h-0.0068l-0.0036,0.5605l-0.0677,0.0032l-0.0958,0.0036
	l-0.0784,0.0071l-0.0485,0.0068l-0.0246,0.0107v0.1564l0.0104,0.0103l0.0385,0.0071l0.0645,0.0068l0.0677,0.0036l-0.3845,0.0385
	l-0.087,0.0139l-0.6995,0.2608l-0.0731,0.0314l-0.6439,0.4454l-0.5131,0.5915l-0.1725,0.341l-1.7468,0.0242l-0.3115,0.0036
	l-0.113-0.2263l-0.0438-0.052l-0.506-0.588l-0.6354-0.449l-0.722-0.2715l-0.0645-0.0139l-0.1111-0.0139l-0.3235-0.0314
	l0.0206-0.0036l0.0802-0.0068l0.0538-0.0071l0.026-0.0068v-0.1568l-0.0067-0.0068l-0.0385-0.0071l-0.0659-0.0103l-0.087-0.0036
	l-0.1044-0.0068h-0.0175V86.488v-0.0032h-0.0104l-0.0175-0.0036h-0.0278l-0.0036-0.0036v-0.4975v-0.0036h-0.0071h-0.0086
	l-0.0174-0.0036h-0.0157h-0.0206h-0.0192h-0.0192h-0.0139l-0.0139,0.0036h-0.0103h-0.0018v0.0036v0.501h-0.0139h-0.0261
	l-0.0156,0.0036l-0.0071,0.0032v0.5605l-0.0591,0.0032l-0.0991,0.0036l-0.0784,0.0071l-0.0538,0.0068l-0.0245,0.0107v0.1529
	l0.0035,0.0139l0.0385,0.0036l0.0641,0.0071l0.0713,0.0068l-0.3724,0.0349l-0.0919,0.0139l-0.0453,0.0175l-0.7344,0.2747
	l-0.6453,0.4526l-0.5135,0.5915l-0.174,0.3446l-1.6773,0.0242l-0.4333,0.0071l-0.1425-0.2822l-0.5117-0.5915l-0.6404-0.4486
	l-0.7323-0.2751l-0.0591-0.0139l-0.108-0.0139l-0.3357-0.0314h0.0121l0.0798-0.0068l0.0559-0.0107l0.0278-0.0068v-0.1532
	l-0.0018-0.0103l-0.0349-0.0071l-0.0645-0.0103l-0.0834-0.0036l-0.1044-0.0036h-0.0278v-0.5705l0,0h-0.0121l-0.0193-0.0071h-0.0242
	h-0.0053l-0.0018-0.501l0,0l-0.0068-0.0036h-0.0107h-0.0139h-0.0189h-0.0175h-0.0175h-0.0192h-0.0189h-0.0143l-0.0085,0.0036
	h-0.0054l0.0018,0.501h-0.0103h-0.026l-0.0175,0.0071h-0.0085l0.0014,0.5705h-0.0467l-0.103,0.0036l-0.0798,0.0071l-0.0591,0.0068
	l-0.0278,0.0103v0.1532l0.0049,0.0103l0.0314,0.0071l0.0645,0.0103l0.0784,0.0036l-0.3621,0.0349l-0.0991,0.0175l-0.0506,0.0139
	l-0.7327,0.2783l-0.6471,0.4558l-0.3603,0.4141l-0.0435-17.8556h0.0035l0.9501-1.2633l-0.0071-2.544l-0.0153-0.0036l-0.2648-0.0068
	l-0.4836-0.0036l-0.4943-0.0036l-0.0314-13.1333l0.959-1.2597l0.0139-0.0349l-0.0071-2.5611l-0.2106-0.042l-0.4262-0.0417
	l-0.614-0.0278h-0.0125l-0.0278-10.3562l1.0248-1.2565l0.0175-0.0766l-0.0071-2.575l-0.1982-0.0802l-0.4001-0.0695l-0.5759-0.0627
	l-0.0941-0.0068l-0.0278-10.4539l-0.0157-0.0036l-1.7123-13.9757l0.0054-0.0036v-0.0068l-0.0054-1.3955l0.0453-0.0036l0.0695-0.0103
	l0.047-0.0175l0.0264-0.0139l0.0015-0.0175l-0.0015-0.6404l-0.0264-0.0175L533.255,8.742l-0.0677-0.0143l-0.0506-0.0032
	l-0.0032-1.0441h0.0068l0.0591-0.0103l0.0417-0.0139l0.0246-0.0139V7.6284l-0.0036-0.6161l-0.021-0.0139l-0.0399-0.0139
	l-0.0574-0.0139l-0.0488-0.0071l-0.0035-1.5031l0.1568-0.0175l0.2993-0.1183l0.2541-0.1914l0.1946-0.2576l0.0402-0.0524
	l0.1215-0.3025l0.0403-0.3271l-0.0417-0.3271l-0.1254-0.3132l-0.1967-0.2715l-0.2138-0.1775l-0.0403,0.0592l0.1479,0.2021
	l0.0923,0.2331l0.0331,0.2505l-0.0314,0.2437l-0.0869,0.2192l-0.1147,0.1461l-0.1882,0.1425l-0.2259,0.0905l-0.2402,0.021
	l-0.242-0.0417l-0.2263-0.1044l-0.1896-0.1568l-0.1515-0.2017l-0.0937-0.2366l-0.0331-0.247l0.0314-0.2473l0.087-0.2124
	l0.1147-0.1493l0.0399-0.0592l-0.2156,0.1632l-0.1985,0.2576l-0.0363,0.0556l-0.1237,0.3029l-0.0417,0.3271l0.0453,0.3307
	l0.1237,0.3097l0.1981,0.268l0.2576,0.2088l0.2975,0.139l0.1967,0.0349l0.0032,1.5102l-0.0435,0.0036l-0.0574,0.0103l-0.0435,0.0139
	l-0.021,0.0139l-0.0015,0.0175l0.0015,0.6126l0.021,0.0175l0.0435,0.0139l0.0556,0.0103l0.0139,0.0036L532.78,8.721l-0.0435,0.0036
	l-0.0713,0.0139l-0.0471,0.0139l-0.026,0.0175l-0.0018,0.0171l0.0018,0.6439l0.026,0.0175l0.0453,0.0103l0.0695,0.0139
	l0.0505,0.0071l0.0036,1.4022h0.0035l-1.6374,13.9618v0.0663l0.0363,10.3947l-0.0574,0.0032l-0.5844,0.0559l-0.4127,0.0624
	l-0.2102,0.0802l0.0085,2.5786l0.0018,0.0766l1.0473,1.2772l0.0349,10.353l-0.5969,0.0314l-0.4401,0.0314l-0.2263,0.0453
	l0.0103,2.5611l0.0036,0.0349l0.976,1.2736l0.0506,13.1333l-0.5342,0.0036l-0.4732,0.0071l-0.2487,0.0032l-0.0018,0.0071
	l0.0085,2.5404l0.9554,1.2633v0.0036l0.0018,1.5067l-0.216-0.0278h0.0506h0.0574h0.0471l0.0331-0.0036h0.0189v-0.0036
	l-0.0032-0.1009h-0.0157l-0.0331-0.0032h-0.0471l-0.0574-0.0036h-0.0645h-0.0677h-0.0627l-0.0574,0.0036h-0.0506l-0.0314,0.0032
	h-0.0171l0,0l0.0014,0.1044l0.0157,0.0036h0.0314h0.0506h0.0556h0.0538l-0.3339,0.0488l-0.3481,0.1497l-0.3008,0.2295
	l-0.2299,0.3065l-0.1443,0.3549l-0.047,0.3792l0.0139,3.8073l-0.0068-0.0036l-0.752,0.0036l-0.0192-4.6147l-0.0467-0.3442
	l-0.1321-0.3204l-0.2106-0.2747l-0.2751-0.2088l-0.32-0.1322l-0.3047-0.0417h0.0452h0.0542h0.0452l0.0296-0.0036h0.0157l0,0v-0.0941
	l-0.0143-0.0036h-0.0296h-0.0417h-0.0538h-0.0574h-0.0591h-0.0592h-0.0524h-0.0417l-0.0331,0.0036h-0.0175l0,0v0.0941l0.0143,0.0036
	h0.031h0.042h0.0521h0.0538l-0.3061,0.0417l-0.1842,0.0798l-0.0125-2.1851l0.0054-0.0036l0.7394-0.9953l-0.0085-1.987l-0.181-0.0036
	l-0.3621-0.0036h-0.4419l-0.052-10.3007l0.7601-0.9953l-0.0103-2.0009l-0.0085-0.0278l-0.1882-0.0281l-0.3531-0.0242l-0.4419-0.0139
	l-0.0385-8.1326l0.811-0.9953l-0.0089-2.0116l-0.0085-0.0453l-0.1774-0.0485l-0.3307-0.0453l-0.4661-0.0385h-0.0125l-0.0417-8.1711
	l-1.3798-10.9617h0.0018l-0.0068-1.1033l0.0435-0.0036l0.0538-0.0068l0.0367-0.0071l0.0154-0.0103l-0.0032-0.501v-0.0107
	l-0.0211-0.0139l-0.0399-0.0068l-0.0542-0.0107l-0.0328-0.0032l-0.0054-0.8285h0.0121l0.0452-0.0068l0.0314-0.0071l0.0157-0.0103
	l-0.0035-0.4804l-0.0018-0.0103l-0.0172-0.0068l-0.0349-0.0071l-0.0435-0.0068l-0.0314-0.0036l-0.0071-1.1938l0,0l0.1273-0.0139
	l0.233-0.0905l0.2003-0.1529l0.1511-0.1985l0.0264-0.0349l0.0955-0.2366l0.0314-0.2541l-0.0331-0.2573l-0.1008-0.2402
	l-0.1547-0.2124l-0.1689-0.1358l-0.0261,0.0349l0.1201,0.1564l0.0731,0.1846l0.0242,0.1914l-0.0242,0.1914l-0.0698,0.1739
	l-0.0938,0.1219l-0.1497,0.1151l-0.1757,0.0695l-0.1913,0.0175l-0.1881-0.0278l-0.1775-0.0837l-0.1514-0.1183l-0.1183-0.16
	l-0.0731-0.181l-0.026-0.1949l0.0242-0.1914l0.0681-0.1703l0.0973-0.1219l0.0211-0.0349l-0.1671,0.1219l-0.155,0.2053
	l-0.0225,0.0349l-0.0973,0.2366l-0.0314,0.2541l0.0364,0.2541l0.0977,0.247l0.1546,0.2053l0.2039,0.1671l0.2349,0.1008
	l0.1497,0.0242l0.0068,1.1938l-0.0417,0.0036l-0.0435,0.0068l-0.0295,0.0036l-0.0139,0.0139l0.0018,0.4768l0.0032,0.0103
	l0.0157,0.0107l0.0331,0.0068l0.0452,0.0071h0.0035l0.0054,0.8282l-0.0421,0.0036l-0.052,0.0103l-0.035,0.0071l-0.0189,0.0103
	l0.0015,0.501l0.0035,0.0103l0.021,0.0139l0.0399,0.0071l0.0538,0.0103h0.0295l0.009,1.0997v0.0036h0.0017l-1.2632,10.9097
	l0.0471,8.2092l-0.0959,0.0036l-0.4454,0.0349l-0.3079,0.0417l-0.1479,0.0488l0.0121,2.0184l0.0193,0.0417l0.8071,0.9882
	l0.0488,8.1469h-0.035l-0.475,0.0171l-0.3271,0.0246l-0.16,0.0242l0.0139,2.008l0.7744,1.0056l0.061,10.3217l-0.3653,0.0036h-0.3881
	l-0.2159,0.0068l-0.0242,0.0036l0.0121,1.9941l0.7551,0.9917h-0.0018l0.0211,3.4591l-0.5987,0.0036v-0.0139l-0.0175-0.2053
	l-0.0189-0.181l-0.0228-0.1393l-0.026-0.108l-0.0242-0.0695l-0.0264-0.0278l-1.8929,0.0071l-0.0211-3.0589l-0.2644-0.0143
	l-0.2993-0.5324v-0.0242h-0.0121H518.78l-0.0331-0.0627l-0.0085-1.3188h-0.0103h-0.0193h-0.0224h-0.0367h-0.0367h-0.0399h-0.0399
	h-0.0331h-0.0314h-0.0206h-0.0107h-0.0032l0.0068,0.7761l-0.3828-0.6788l-1.378-1.625l-1.6724-1.3363l-1.8965-0.9953l-0.8232-0.2437
	l-0.0189-2.3626l0.1931-0.0143l-0.1411-1.0056l-0.3931-0.9361l-0.6247-0.8004l-0.8111-0.6229l-0.9411-0.3863l-0.8752-0.1183h0.0834
	h0.1532l0.1269-0.0036l0.0941-0.0032l0.052-0.0036l0.0089-0.0036l-0.0018-0.4768l-0.0349-0.0036l-0.0766-0.0068l-0.113-0.0036
	l-0.1407-0.0036h-0.1133l-0.0035-0.2958h0.0349l0.0731-0.0036h0.0524l0.0296-0.0032l0.005-0.0036l-0.0036-0.3585l-0.0171-0.0036
	h-0.0453l-0.0645-0.0032l-0.0784-0.0036h-0.0766l-0.005-0.4732h0.0331h0.0417l0.0296-0.0036h0.0157l0.005-0.0036l-0.005-0.2608
	h-0.0089l-0.026-0.0036h-0.0349l-0.0453-0.0036h-0.0538h-0.0538h-0.0524h-0.0485l-0.0421,0.0036h-0.0296h-0.0157l-0.005,0.0036
	l0.0018,0.2608l0.0121,0.0036h0.0242h0.0349l0.0471,0.0036h0.0067l0.0054,0.4732h-0.0385h-0.0834l-0.0731,0.0036h-0.0538
	l-0.0296,0.0032l-0.0035,0.0036l0.0017,0.3585l0.0189,0.0036l0.0421,0.0032h0.0659l0.0681,0.0036l0.0032,0.2926h-0.0435
	l-0.1497,0.0032l-0.1286,0.0036l-0.0923,0.0036l-0.0538,0.0036l-0.0103,0.0032l0.005,0.4768l0.0349,0.0036l0.0784,0.0071
	l0.113,0.0032l0.1407,0.0036h0.155l-0.7013,0.0941l-0.5221-0.2644l-0.0014-0.1497h-0.0175l-0.0385-0.0036h-0.0624l-0.0698-0.0036
	h-0.0677l-0.0053-0.4315h0.0314l0.0367-0.0036h0.0278h0.0121h0.0036l-0.0036-0.2398h-0.0071h-0.0242l-0.0314-0.0036h-0.0435
	l-0.0488-0.0036h-0.0471h-0.0485l-0.0453,0.0036h-0.0385h-0.026l-0.0139,0.0036h-0.0018l0.0018,0.2366l0.0103,0.0032h0.0228h0.0314
	l0.0417,0.0036h0.0053l0.005,0.3795l-0.1896-0.0905l-0.9711-3.0728l-1.651-2.7877l-2.25-2.3523l-2.73-1.7992l-0.1739-0.1008
	l-2.9966-1.0894l-0.3114-0.052l-1.1118-0.1219l-1.3502-2.596h0.0018l-0.0103-0.7761h0.0139l0.1846-0.0103l0.1443-0.0107
	l0.0923-0.0139l0.031-0.0171l-0.0068-0.5431l-0.0296-0.021l-0.0869-0.0171l-0.1411-0.0175l-0.1842-0.0139h-0.0264l-0.0068-0.5046
	l0.0592-0.0036l0.1112-0.0103l0.0698-0.0139l0.0242-0.0139l-0.0018-0.2751l-0.0242-0.0139l-0.0663-0.0175l-0.1112-0.0103
	l-0.1443-0.0139h-0.0609l-0.0071-0.5848l-0.0103-0.0068l-0.0278-0.0071l-0.047-0.0068l-0.0592-0.0036h-0.0228l-0.0225-1.7262
	l-0.0035-0.0036v-0.0314v-0.0763v-0.1183l-0.0036-0.1429v-0.1636l-0.0018-0.1703l-0.0014-0.1636l-0.0036-0.1532l-0.0018-0.0869
	l-0.2455-0.0036v0.0869h-0.005l0.0018,0.1044v0.1636l0.0032,0.1671l0.0018,0.1671l0.0018,0.1497l0.0036,0.1251v0.087l0.0036,0.0524
	v0.0068l0.0242,1.7262h-0.0207l-0.0591,0.0036l-0.047,0.0036l-0.0296,0.0068l-0.0107,0.0036l0.0089,0.5848l-0.0542,0.0032
	l-0.1443,0.0071l-0.1112,0.0068l-0.0716,0.0139l-0.0242,0.0139l0.0036,0.2751l0.0242,0.0175l0.0681,0.0139l0.1112,0.0139
	l0.0645,0.0036l0.0067,0.5078h-0.0157l-0.1878,0.0071l-0.1425,0.0139l-0.0905,0.0139l-0.0313,0.0175l0.0085,0.5463l0.0296,0.0175
	l0.0887,0.0175l0.1411,0.0139l0.186,0.0139h0.0228l0.0103,0.7793h0.0018l-1.2875,2.5718l-1.0512,0.087l-0.3253,0.0488
	l-2.9891,1.0302l-0.1913,0.0937l-2.7354,1.7575l-2.2393,2.3387l-1.6253,2.8013l-0.9169,3.1109l-0.2958,0.1429h-0.0349h-0.0784
	h-0.0399l-0.0086-0.4387h0.0032h0.0435h0.0349l0.026-0.0036h0.0089l-0.0036-0.2434h-0.0018h-0.0157l-0.0278-0.0036h-0.0381
	l-0.0453-0.0036h-0.0488h-0.0524h-0.0502h-0.0435l-0.0331,0.0036h-0.0242h-0.0121l0.005,0.2437h0.0018l0.0157,0.0032h0.0278h0.0367
	l0.0345,0.0036l0.0071,0.4387h-0.0663h-0.0766h-0.0606h-0.0421l-0.0189,0.0068l0.005,0.2751l-0.2245,0.1076l-0.5688-0.0731h0.1497
	h0.1497l0.1183-0.0032l0.0798-0.0036l0.0403-0.0036l-0.0089-0.4871l-0.0085-0.0071l-0.0506-0.0032l-0.0955-0.0071l-0.1308-0.0036
	l-0.1565-0.0032h-0.0538l-0.0053-0.2993h0.0677l0.0681-0.0036h0.0453l0.0207-0.0036l-0.005-0.3653l-0.0036-0.0036l-0.0314-0.0036
	l-0.0524-0.0036h-0.0745l-0.0891-0.0032h-0.0417l-0.0085-0.4804h0.0036h0.0485h0.0367l0.0278-0.0036h0.0121l-0.005-0.268
	l-0.0018-0.0068h-0.0193h-0.0296h-0.0417h-0.0506l-0.0556-0.0036h-0.0556h-0.0541l-0.0485,0.0036h-0.0385h-0.026h-0.0121
	l0.005,0.2715h0.0018h0.0193l0.0296,0.0032l0.0417,0.0036h0.0367l0.0068,0.4804h-0.0748h-0.0816h-0.0681l-0.0452,0.0032
	l-0.0207,0.0036l0.005,0.3656l0.0053,0.0032l0.0313,0.0036h0.0524l0.0731,0.0036h0.0417l0.0018,0.3029h-0.1044h-0.1497
	l-0.1201,0.0032l-0.082,0.0036l-0.0363,0.0036l0.0068,0.4907l0.0089,0.0036l0.0538,0.0032l0.0941,0.0071l0.1322,0.0036
	l0.1564,0.0032h0.0941l-0.8474,0.1012l-0.0278,0.0139h-0.0175l-0.9536,0.3966l-0.8125,0.6265l-0.6176,0.821l-0.3813,0.9536
	l-0.1183,1.0266l0.1586,0.0036l0.0435,2.3455l-1.0876,0.3168l-1.9678,1.016l-1.7261,1.3748l-1.4165,1.6738l-0.1515,0.2747
	l-0.0068-0.3724h-0.0035h-0.0121h-0.0242h-0.0314h-0.0367h-0.0399h-0.0435h-0.0403h-0.0363h-0.0278h-0.0175h-0.0089l0.0175,0.9361
	l-0.5688,1.037l-0.1151,0.0036l-0.6194,0.0417l0.0663,3.1601l-2.0134,0.0068l-0.0574-2.8152h0.0036l0.7793-1.0302l-0.0417-2.0601
	h-0.0381l-0.2384-0.0036l-0.428-0.0036l-0.3567-0.0032l-0.2263-10.6802l0.8004-1.0302l-0.0435-2.074l-0.16-0.0314l-0.341-0.0278
	l-0.5014-0.0242l-0.0641-0.0036l-0.1775-8.4391l0.8264-0.9917l0.0296-0.0453l-0.0435-2.0914l-0.1497-0.0524l-0.3218-0.052
	l-0.47-0.0453l-0.1304-0.0071l-0.1811-8.5086l-1.6652-11.369l0,0l0.0018-0.0068l-0.0242-1.1346h0.0296l0.0591-0.0071l0.0435-0.0068
	l0.0242-0.0103l0.0018-0.0139l-0.0103-0.5185l-0.0193-0.0143l-0.0381-0.0103l-0.0556-0.0103l-0.0488-0.0071l-0.0175-0.8595l0,0
	l0.0506-0.0068l0.0363-0.0071l0.0193-0.0068l0.0018-0.0107l-0.0089-0.4939l-0.0171-0.0107l-0.0313-0.0103l-0.0471-0.0103
	l-0.0471-0.0036l-0.0242-1.239l0.16-0.0139l0.2487-0.0973l0.2142-0.16l0.1618-0.2053l0.0973-0.2437l0.0296-0.268l-0.0417-0.2644
	l-0.108-0.2505l-0.0242-0.0385l-0.1689-0.2156l-0.1878-0.1429l0.0242,0.0385l0.1133,0.1461l0.0748,0.1671l0.0314,0.2017
	l-0.0228,0.1985l-0.0748,0.1842l-0.1219,0.1568l-0.16,0.1219l-0.1878,0.0695l-0.2052,0.0175l-0.2021-0.0314l-0.1931-0.0802
	l-0.1653-0.1286l-0.113-0.1429l-0.0748-0.1703l-0.0331-0.2017l0.0246-0.2021l0.0748-0.181l0.1215-0.16l-0.0242-0.0381l-0.181,0.1358
	l-0.16,0.2053l-0.0991,0.247l-0.0314,0.268l0.0435,0.2644l0.108,0.2505l0.0242,0.0349l0.1703,0.2192l0.2195,0.1707l0.2555,0.108
	l0.1393,0.0242l0,0l0.0278,1.2355h-0.0313l-0.0503,0.0032l-0.0367,0.0071l-0.0193,0.0103l-0.0032,0.0107l0.0103,0.4939
	l0.0175,0.0107l0.0313,0.0103l0.0471,0.0103h0.0157l0.0189,0.8631h-0.0313l-0.0609,0.0071l-0.0399,0.0068l-0.0242,0.0103
	l-0.0036,0.0107l0.0121,0.5221l0.0175,0.0103l0.0381,0.0103l0.0577,0.0139l0.0485,0.0036l0.0246,1.1414l0.0018,0.0036
	L458.74,32.3848l0.186,8.4947l-0.4889,0.0242l-0.3653,0.0385l-0.1985,0.0417l-0.0189,0.0488l0.0485,2.095l0.9048,1.0576
	l0.1864,8.4494l-0.4472,0.0139l-0.3898,0.0175l-0.2124,0.0246l-0.0189,0.0278l0.0453,2.0811l0.8506,1.0438l0.2366,10.708
	l-0.4992,0.0036h-0.3827l-0.1864,0.0068l0.0264,1.1938l-0.0089-0.021l-0.7829-0.7793l-1.0195-0.4244l-0.9711,0.4625h-0.2348
	l-0.3186-13.7494l1.0145-1.2978l0.0193-0.0385l-0.0592-2.6794l-0.2316-0.0488l-0.4643-0.0453l-0.6717-0.0417H454.27l-0.2523-10.8437
	l1.0926-1.2911l0.0157-0.0766l-0.0627-2.6969l-0.2156-0.0905l-0.4383-0.0834l-0.63-0.0802l-0.1062-0.0103l-0.2559-10.9481
	l-2.194-14.7376l0.0036-0.0036V8.2231l-0.0349-1.4614l0.0471-0.0036l0.0766-0.0068l0.0538-0.0139l0.0278-0.0175l0.0018-0.0175
	l-0.0157-0.6753l-0.0278-0.0171l-0.0538-0.021l-0.0748-0.0175l-0.0538-0.0103l-0.0263-1.0929h0.0089l0.0641-0.0068l0.0435-0.0139
	l0.0246-0.0103V4.82l-0.0157-0.6439l-0.0228-0.0175l-0.0435-0.0175l-0.0624-0.0139l-0.0542-0.0103l-0.0363-1.5868l0.2103-0.0175
	l0.3257-0.1251l0.2766-0.1985l0.2088-0.2715l0.1287-0.3168l0.0385-0.341l-0.0542-0.3442l-0.1443-0.3271l-0.0367-0.0627
	l-0.2227-0.2819l-0.2416-0.1878l0.0363,0.0624l0.1461,0.181l0.0923,0.2159l0.0417,0.2608l-0.0278,0.2576l-0.0991,0.2366
	l-0.1582,0.2053l-0.207,0.1497l-0.2437,0.0905l-0.2644,0.0278l-0.2662-0.0453l-0.2505-0.1115l-0.216-0.1636l-0.1393-0.1807
	l-0.0955-0.2195l-0.0435-0.2608l0.0296-0.2576l0.0955-0.2366l0.1586-0.2053L450.0903,0l-0.2331,0.1707l-0.2106,0.268l-0.1286,0.3164
	l-0.0367,0.3446l0.0542,0.3482l0.1443,0.3271l0.0399,0.0592l0.2227,0.2854l0.2872,0.2192l0.3307,0.1461l0.1775,0.0314l0.0363,1.5833
	h-0.0467l-0.0645,0.0103l-0.0453,0.0107l-0.0242,0.0139v0.0175l0.0153,0.6436l0.0228,0.0175l0.0453,0.0175l0.0645,0.0175h0.0121
	l0.026,1.0926l-0.0488,0.0036l-0.0748,0.0071l-0.0556,0.0139l-0.026,0.0171v0.021l0.0139,0.6717l0.0278,0.0175l0.0538,0.0207
	l0.0748,0.0175l0.0542,0.0103l0.0345,1.4685l0.0036,0.0036l-1.4895,14.5915h-0.0086v0.0698l0.2644,10.9236l-0.0574,0.0036
	l-0.6439,0.0417l-0.454,0.0592l-0.2348,0.0766l0.0677,2.7179l0.0036,0.0731l1.1781,1.3712l0.2662,10.8819l-0.6543,0.0207
	l-0.4854,0.0349l-0.2491,0.0417l0.0663,2.6936l0.0018,0.0381l1.1065,1.3466l0.3375,13.8054l-0.5898,0.0032l-0.5203,0.0071
	l-0.2747,0.0068l-0.0018,0.0036l0.0677,2.6726l1.0772,1.3224l0.0991,4.0054l-0.2263,0.2715l-0.0713-0.0314l-0.6646,0.3236
	l-0.5167,0.5498l-0.3029,0.7066l-0.0036,0.2434l-0.5185,0.5082l0.0784,0.0524l0.4315,0.0139l-0.0314,2.008l-0.5149,0.1564
	l-0.4857,0.2156l-0.6001-0.2747l-0.6247-0.1878l0.0502-3.5254l-0.0763-0.2017l0.8403-0.0627l-0.9048-0.9083l0.0645-0.0071h-0.0681
	l-1.914-2.4114l-0.1112-0.1115l-2.6153-1.5483l-0.9276-0.1532v-0.0071h0.108l0.026-0.0171l0.0399-3.6889l-0.428-1.0231
	l-0.7551-0.7797l-0.976-0.4208l-0.9205,0.4244l-0.722,0.7797l-0.0941,0.1251l-0.4387,1.0477l-0.0278,3.6052l-0.5602,0.1008
	l-0.3428,0.0695l-2.6812,1.5872l-1.9717,2.4185l-0.9237,0.9083l0.4576,0.0902l0.4629,0.021l-0.0192,4.5032l-1.3466,0.7551
	l0.2174,0.0834h0.5463v0.1151l-0.0887,0.052l0.0887,0.0349l-0.0036,0.4209h-1.8113v-0.3303h1.0078l-1.3278-0.7726l0.0193-6.6331
	l0.1147-0.0068l0.8021-0.129l-0.9151-0.9048l0.0435-0.0103h-0.0506l-1.9418-2.415l-2.669-1.5904l-0.216-0.0834l-0.7237-0.1219
	l-0.0054-4.3047l-0.0453-0.1775l-0.4158-1.0234l-0.7256-0.769l-0.9326-0.4176l-0.9604,0.4212l-0.7484,0.7726l-0.4244,1.0266
	l0.0157,4.4266l0.0139,0.0207h0.0609v0.0107l-0.7918,0.1286l-0.2053,0.0834l-2.6659,1.5868l-1.9453,2.4221l-0.9133,0.9083
	l0.8353,0.1254l0.0852,0.0068l0.0399,5.7109l-1.2198,0.5983l-0.1233-0.0592l-1.0965-0.5288l-0.2071-0.0731l-0.0328-3.8386
	l0.4871-0.0207l0.4298-0.087l-0.9258-0.9048l0.0228-0.0071h-0.0278l-1.9681-2.4047l-2.683-1.5833l-0.3517-0.0698l-0.4992-0.087
	l-0.0435-3.6123l-0.4525-1.0437l-0.7776-0.825l-0.1183-0.0731l-0.8859-0.4209l-0.9967,0.4244l-0.7676,0.7726l-0.4333,1.0231
	l0.0559,3.6715l0.0453,0.0175h0.1165l-0.9187,0.1497l-2.6224,1.5416l-0.0905,0.1044l-1.425,1.7956l-0.2053-0.0976l-0.8228,0.3692
	l-0.6353,0.6646l-0.3304,0.8039l-0.3898-0.4002l-0.6856-0.3239l-0.6699,0.3029l-0.1251,0.1322l-1.1727-1.4094l-2.6954-1.5729
	l-0.8057-0.1497h0.0453l-0.0852-3.6191l-0.4818-1.0338l-0.8178-0.8178l-1.0512-0.4871l-1.0298,0.4248l-0.79,0.7758l-0.4383,1.0199
	l0.0955,3.654l0.0784,0.0139h0.1026l-0.9796,0.1564l-2.7197,1.5451l-1.5573,1.9036l0,0l-0.4105-0.8631l-0.6977-0.6785l-0.8894-0.397
	l-0.8716,0.3692l-0.6682,0.661l-0.3653,0.8595l0.1112,3.5218l-0.9743,0.1671l-1.982,0.6785l-2.4307,1.0648h1.352l0.0278,0.8595
	l-2.0009,0.0837l-2.8693,1.0926l2.9442,0.9988l0.3688,10.3634l-2.8398,1.2422l2.9146,0.8178l0.5498,15.3295h-11.5692V111.61l0,0
	v-0.0103l-0.0278-0.407h-0.3132l-0.5898-3.6679h0.047l0.2366-0.3271l0.0139-0.0976h-0.3531l-0.3535-0.6019l0.3047-0.3236
	l0.0036-0.6475l-0.609-1.6078l0.0032-0.64l-0.0677-0.0107h-0.0225l0.0467-8.7869l0.0367-0.0071l0.0574-0.0485l0.0018-0.6229
	l-0.0681-0.0559l-0.0225-0.0032l0.0071-1.1172l0.0345-0.0103l0.0556-0.0592l0.0053-0.6197l0.6126-1.5416l0.0018-0.6158
	l-0.0855-0.0941l-0.1076-0.1147l0.1582-0.0905l0.0035-0.6126l0.0068-1.6043l0.3428-0.108l0.0018-0.299l0.0121-0.0036l0.0018-0.3029
	l-0.0417-0.2715l-0.769-0.2366l-0.4091-0.0417l0.2993-0.4907l0.0036-0.6054l-0.3343-0.16l0.0053-0.8734l0.336-0.1743v-0.4522
	l-0.5498-0.2819l-0.1133-0.0107l0.0036-0.7237l0.3325-0.1878l0.0032-0.449l-0.4504-0.2505l-0.2106-0.0175l0.0036-0.6888
	l0.1058-0.0627l0.1044-0.3827l0.0053-0.7448l-0.3114-0.181l-0.4141-0.0488l0.0471-6.1071h-0.2769l-0.0086-0.0905l-0.0018,0.0905
	l-0.268-0.0036l-0.0556,6.1004l-0.4593,0.0488l-0.2715,0.1807l-0.0053,0.7448l0.0976,0.3831l0.1044,0.0556l-0.0071,0.6924
	l-0.2783,0.021l-0.3916,0.2434l-0.005,0.449l0.3321,0.1671l-0.0068,0.7412l-0.1931,0.0175l-0.4768,0.2783l-0.0053,0.449
	l0.3342,0.1564l-0.0103,0.8702l-0.3378,0.1842l-0.0068,0.609l0.2869,0.4871l-0.553,0.0627l-0.6283,0.2366l-0.0035,0.2958
	l-0.0175,0.0071l-0.0032,0.3061l0.1062,0.2576l0.2694,0.0766l-0.0189,1.625l-0.0089,0.6126l0.1447,0.0663l-0.1358,0.139
	l-0.0506,0.0941l-0.0086,0.6158l0.5898,1.5487l-0.0071,0.6193l0.0837,0.0592l0.0068,0.0036l-0.0139,1.1136l-0.0503,0.0139
	l-0.0403,0.0556l-0.0068,0.6229l0.0834,0.0488h0.0089l-0.0994,8.8008h-0.0538l-0.0385,0.0143l-0.0068,0.64l-0.6368,1.6114
	l-0.0103,0.6471l0.3026,0.3236l-0.3653,0.5987h-0.1828l-0.3393,0.0976l0.2469,0.3303h0.0959l-0.6874,3.7064l-0.4212,0.3756
	l-0.0103,0.6821h0.0103v0.0107h-12.5817l-0.0591-8.7487l-0.8004-0.2299l-5.589-0.0068l-0.0748-0.4351l-1.5138-8.8496l-1.0876-0.1981
	l-0.769-0.0731l-0.2958-1.9108l-1.0231-0.1564h-1.9086l-0.047-0.2958l-0.9361-0.1461h-3.0244l-0.0032-0.7205l-2.5493-0.3792
	l-2.6744-0.0036l-0.0207-4.1518l-1.6114-12.3746l-0.3877-0.0417l-0.1097-22.8495l0.1842-0.0453l0.1985-0.1151l-0.0035-1.0405
	l-0.0955-0.1147l-0.2908-0.0766l-0.0032-0.6682l0.2975-0.0766l0.207-0.1215l-0.0035-0.8527l0.2783-0.0731l0.2348-0.1425
	l-0.0139-2.7909l-0.1094-0.1497l-0.444-0.1393l-0.7533-0.108l-0.0991-0.0068l-0.0538-11.4841l-0.0819-0.1425l-3.0867-12.4445
	l-0.0054-1.0719l-0.026-0.0242l-0.0574-0.021l-0.0834-0.0139l-0.103-0.0103h-0.0068l-0.0036-0.0071l-0.0035-1.0576l0.0855-0.0107
	l0.0991-0.0207l0.0713-0.0278l0.0399-0.0282l0.0089-0.0278l-0.0035-0.6995l-0.0278-0.0242l-0.0592-0.021l-0.0869-0.0171
	l-0.1115-0.0107h-0.0207l-0.0053-1.1065l-0.0103-0.0103h-0.0053l0.0663-0.0385l0.1183-0.1219l0.0713-0.0834l0.0905-0.16
	l0.0556-0.1846l0.0192-0.1981l-0.021-0.1985l-0.0574-0.1846l-0.0923-0.1564l-0.0695-0.0766l-0.0713,0.0869l0.0748,0.1286
	l0.0453,0.1532l0.0175,0.1636l-0.0143,0.1636l-0.0453,0.1497l-0.0606,0.1115l-0.0403,0.0381l-0.1112,0.0627l-0.1219,0.0242
	l-0.1237-0.0207l-0.113-0.0663l-0.0976-0.1008l-0.0745-0.129l-0.0488-0.1529l-0.0157-0.1636l0.0157-0.1636l0.0452-0.1532
	l0.0749-0.1322l-0.0713,0.0766l-0.0681,0.0869l-0.0923,0.1564l-0.0538,0.1846l-0.0192,0.1985l0.021,0.1949l0.0556,0.1878
	l0.0923,0.1564l0.1183,0.1219l0.1219,0.0695v0.0036l0.005,1.0961l-0.0869,0.0139l-0.0991,0.021l-0.0695,0.0278l-0.0421,0.0278
	l-0.0068,0.0278l0.0036,0.6963l0.0278,0.0278l0.0574,0.0207l0.0887,0.0175l0.1112,0.0103h0.0192l0.0053,1.0651l-0.0748,0.0103
	l-0.0923,0.021l-0.0677,0.0242l-0.0385,0.0242l-0.005,0.0246l0.005,1.0997l0.0071,0.0068l-2.8971,12.5314l-0.1411,0.1497
	l0.0488,11.4702l-0.6767,0.1183l-0.5203,0.1529l-0.1899,0.1568l0.0107,2.7735l0.1461,0.1393l0.3635,0.0937l0.0036,0.8111
	l0.1286,0.1215l0.3724,0.0905l0.0035,0.6682l-0.2124,0.0524l-0.1703,0.1183l0.0054,1.037l0.1269,0.108l0.2559,0.0624l0.0937,22.7316
	l-0.3984,0.0171l-1.2822,12.0129l-0.3029-0.0278l-0.6856-0.3375l-0.0018-0.3061l-1.0787-9.5912l-0.3168-0.0242l-0.0677-17.7758
	l0.1757-0.0346l0.1219-0.0698l-0.0053-0.8071l-0.1062-0.0698l-0.1896-0.0346l-0.0018-0.5883l0.263-0.0556l0.1251-0.0766
	l-0.0036-0.6856l0.2577-0.0556l0.1393-0.087l-0.0089-2.168l-0.1219-0.0905l-0.381-0.0798l-0.5794-0.0663l-0.0349-9.0096
	l-0.0901-0.0869l-2.3491-9.7023l-0.0036-0.8492l-0.0224-0.0139l-0.0488-0.0103l-0.0663-0.0103l-0.0748-0.0071l-0.0032-0.0103
	l-0.0036-0.8492l0.0816-0.0071l0.0699-0.0139l0.0538-0.0171l0.0278-0.0139l0.0035-0.0175l-0.0035-0.5431l-0.0242-0.0175
	l-0.0506-0.0103l-0.0695-0.0103l-0.087-0.0071h-0.0035l-0.0036-0.8802l-0.0103-0.0071l-0.0121-0.0036l0.0695-0.0381l0.0905-0.0905
	l0.0453-0.0524l0.0695-0.1251l0.0435-0.1425l0.0139-0.1568l-0.0157-0.1497l-0.0435-0.1461l-0.0713-0.1254l-0.0556-0.0556
	l-0.0417,0.0488l0.0574,0.1044l0.0363,0.1219l0.0139,0.1215l-0.0139,0.129l-0.0346,0.1219l-0.0524,0.0869l-0.0349,0.0381
	l-0.0887,0.0488l-0.0955,0.0175l-0.0959-0.0175l-0.0869-0.0488l-0.0766-0.0766l-0.0574-0.1008l-0.0381-0.1219l-0.0121-0.1215
	l0.0121-0.129l0.0363-0.1219l0.0559-0.1008l-0.0524,0.0592l-0.0453,0.0488l-0.0695,0.1251l-0.0435,0.1429l-0.0139,0.1564
	l0.0157,0.1532l0.0417,0.1425l0.0731,0.1254l0.0905,0.0905l0.0955,0.0556h-0.0032v0.0071l0.0032,0.8734l-0.0798,0.0103
	l-0.0713,0.0139l-0.0542,0.0139l-0.0278,0.0139L296.343,31.48l0.0018,0.5463l0.0242,0.0139l0.0506,0.0139l0.0695,0.0107
	l0.0887,0.0068h0.0018l0.0053,0.8563l-0.0695,0.0103l-0.0681,0.0103l-0.0502,0.0139l-0.0264,0.0175l-0.0018,0.0139l0.0018,0.8527
	l0.0018,0.0036l-2.2689,9.7683l-0.0869,0.0937l0.0314,8.9818l-0.5865,0.0802l-0.3706,0.0941l-0.1147,0.0937l0.0071,2.1577
	l0.1461,0.0869l0.2469,0.0453l0.0018,0.6821l0.1304,0.0766l0.2594,0.0417l0.0018,0.5883l-0.1949,0.0417l-0.1012,0.0695
	l0.0018,0.8075l0.1272,0.0695l0.1703,0.0278l0.0609,17.7131l-0.3253,0.0139l-0.0645,0.6788l-0.8994-0.4144l-0.0157-5.3171
	l-0.0121-0.0282l-0.1671-0.0171l-0.3688-1.0199l-0.0296-0.0624l-0.8125-0.7483l-1.0423-0.2505l-1.0616,0.2644l-0.821,0.7587
	l-0.0994,0.2783l-0.722-0.181l-0.9743,0.2437l-0.7537,0.6995l-0.3567,0.9917h0.0018l-0.1233,0.0175l0.005,2.0287l-0.5584-0.0453
	h-0.1985l-0.0036-1.5102l-0.0014-0.1671l-0.0071-0.1529l-0.0086-0.1358l-0.0125-0.1012l-0.0139-0.0556l-0.0157-0.0175h-0.165
	v-0.1497l0.0834-0.0032l0.8666-0.1393l-0.1707-0.1425l-2.4082-1.4268l-1.6249-1.6253l-0.1636-0.1286l-1.9229-1.4372l-2.1035-1.1382
	l-2.2357-0.8107l-2.3213-0.4768l-0.2142-0.0314l-0.3635-0.0314l-0.4857-0.0207l-0.5096-0.021l-0.0036-1.7746l0.0766-0.1219v-0.7205
	h-0.0784v-0.5776l-0.0018-0.5741l-3.4103-0.1393l-0.3097-0.2854l-0.1272-0.0207l-0.0032-2.9442h0.026v-0.0103h0.0242l0.0331-0.0976
	v-0.0937h0.0331l0.0641-0.1985v-0.0973h0.0349l0.0349-0.1012V55.405h-0.0139v-0.0071l-0.2559-0.0659l-0.0018-0.0663l-0.0036-0.1703
	l-0.0018-0.0175l0.2402-0.1147l-0.0018-0.4037l-0.3742-0.4176l-0.1789-0.0453l-0.0036-0.9953l-0.0887-0.0973h-0.1828v-0.2124
	l-0.0067-0.0103l-0.397-0.1012l-0.7516,0.0314v-0.2295l-0.4037-0.1044l-0.0645,0.0068l-0.3774-0.5288l-0.3482-0.3795l-1.1745-1.1446
	l-1.1727-1.145l-1.3484-0.9119l-1.3448-0.9119l-1.4792-0.6507l-1.4771-0.6507l-0.6368-0.1878l-2.8205-0.6578l-0.5274-0.0834
	l-0.6942-0.0663l-0.1098-0.0068l-0.1076-0.0314l-0.1272-0.021V44.589l-0.9604-1.3431v-0.181l0.0207-0.0036l0.0802-0.0139
	l0.0506-0.0175l0.0175-0.0139v-0.8873l-0.0192-0.021l-0.0524-0.0171l-0.0816-0.0107l-0.108-0.0139h-0.0399v-0.8805l0.0609-0.0032
	l0.1094-0.0139l0.087-0.0139l0.0542-0.0175l0.0175-0.021v-0.5637l-0.0192-0.0207l-0.0556-0.0175l-0.087-0.0139l-0.1151-0.0139
	l-0.052-0.0036v-0.9012l-0.0071-0.0071h-0.0036l0.1098-0.0453l0.1272-0.1008l0.1008-0.1254l0.0609-0.1497l0.0224-0.16
	l-0.0036-0.0592l-0.0207-0.16l-0.0609-0.1497l-0.1008-0.1286l-0.0748-0.0627l0.0018,0.0627l0.0816,0.1044l0.0506,0.1215
	l0.0139,0.0941l-0.0175,0.1147l-0.0506,0.1219l-0.0798,0.1044l-0.108,0.0834l-0.1237,0.0524l-0.1322,0.0139l-0.1322-0.0139
	l-0.1251-0.0524l-0.1062-0.0798l-0.0802-0.108l-0.052-0.1219l-0.0125-0.0869l0.0157-0.1219l0.0524-0.1183l0.0798-0.1076
	l-0.0032-0.0627l-0.0748,0.0627l-0.1009,0.1286l-0.0627,0.1497l-0.021,0.16l0.0054,0.0592l0.0192,0.16l0.0641,0.1497l0.0976,0.129
	l0.1304,0.0973l0.1062,0.0453h-0.0053l-0.0071,0.0103v0.898l-0.0624,0.0068l-0.1115,0.0107l-0.0834,0.0139l-0.0542,0.0207
	l-0.0153,0.0175v0.5637l0.0189,0.021l0.0556,0.0175l0.0873,0.0171l0.1112,0.0107l0.0538,0.0032v0.8805l-0.0467,0.0036
	l-0.1062,0.0103l-0.0802,0.0139l-0.0488,0.0139l-0.0171,0.021v0.8873l0.0189,0.0175l0.0524,0.0139l0.0816,0.0175h0.0139v0.181
	l-0.9586,1.3466v0.4141l-0.1411,0.0242l-0.0973,0.0282l-0.155,0.0068l-0.6835,0.0695l-0.5188,0.0802l-2.843,0.6682l-0.6126,0.1846
	l-1.4824,0.6543l-1.4842,0.6543l-1.3502,0.9115l-1.3538,0.9151l-1.1763,1.145l-1.1795,1.145l-0.2837,0.3827l-0.3809,0.5327
	l-0.202-0.0107l-0.3863,0.1012v0.2295l-0.7184-0.0278l-0.3742,0.1008v0.2192l-0.1515-0.0032l-0.073,0.1008v0.9778l-0.2402,0.0659
	l-0.2993,0.4144l-0.0018,0.2505h-0.078l-0.0228,0.0032l-0.0192,0.0488l-0.0189,0.0976l-0.0157,0.1322l-0.0139,0.1739l-0.0018,0.0592
	l-0.2993,0.0695v0.0071h-0.0121l-0.0018,0.3792l0.1062,0.1012h0.1008v0.0973l0.0435,0.0417l-0.0053,3.4103l0.0959,0.0837
	l-0.113,0.1322l-4.3938,0.1914l-0.0014,0.5741l-0.0018,0.5709h-0.082v0.7202l0.0802,0.0524l-0.0036,2.3316l-1.4703,0.2747
	l-0.2765,0.0524l-1.7835,0.5812l-1.693,0.8143l-1.5801,1.0299l-1.4318,1.2323l-2.5215,1.197l-2.4966,1.4721l0.0641,0.139
	l0.2195,0.0278l-0.0053,1.6428h-0.1133l-0.7879,0.0905l-0.0036,1.5833h-2.6031l-0.2819,0.0417l-0.2837,0.2053l-0.2854,0.376
	l-0.2783,0.5463l-0.1286,0.3378l-1.7105,0.4209l-2.6969,1.0302l-2.2133,1.2597l-1.1485,1.0163l0.0103-3.1704l-0.0314-0.0068
	l-0.0189-0.0036l0.0609-16.0044l0.1201-0.0417l0.0032-0.8075l-0.0328-0.0453l-0.0873-0.021l0.0036-0.8941l0.0802-0.0071l0.32-0.0453
	l0.1479-0.0488l0.0018-0.8349l0.1429-0.0524l0.0068-1.9799l-0.0417-0.0663l-0.2348-0.0627l-0.4141-0.0592l-0.2559-0.0242
	l0.026-7.4474l0.0627-0.0139l0.113-0.0592l0.0036-0.8178L201.778,46.9l-1.7607-9.2327l0.0157-0.0032l0.0435-0.0107l0.0207-0.0103
	l0.0036-0.7726l-0.0036-0.0139l-0.0278-0.0139l-0.052-0.0139l-0.0713-0.0103l-0.0577-0.0071l0.0018-0.7761h0.0121h0.0837
	l0.0677-0.0103l0.047-0.0139l0.0242-0.0139l0.0018-0.4907l-0.005-0.0175l-0.0296-0.0139l-0.0542-0.0139l-0.0748-0.0103
	l-0.0713-0.0071l0.0036-0.7865v-0.0036h-0.0036l0.0941-0.052l0.0937-0.0834l0.0698-0.1115l0.0435-0.1286l0.0139-0.1393
	l-0.0139-0.1393l-0.0435-0.1286l-0.0663-0.1112l-0.0538-0.0524l-0.0524-0.0453l0.056,0.0869l0.0381,0.108l0.0121,0.1147
	l-0.0139,0.1151l-0.0363,0.1076l-0.0592,0.0941l-0.0748,0.0695l-0.0855,0.0417l-0.0955,0.0143l-0.0923-0.0143l-0.0816-0.0381
	l-0.0296-0.0278l-0.056-0.0905l-0.0346-0.108l-0.0125-0.1147l0.0125-0.1147l0.0363-0.108l0.0574-0.0905l-0.0502-0.0453
	l-0.0542,0.0524l-0.0713,0.1076l-0.0417,0.1322l-0.0175,0.1358l0.0139,0.1393l0.0435,0.1322l0.0698,0.108l0.0887,0.087l0.052,0.0453
	l0.0663,0.0349l-0.0157,0.0032l-0.0071,0.0071l-0.0036,0.7865h-0.0139l-0.0852,0.0068l-0.0677,0.0107l-0.047,0.0103l-0.021,0.0139
	l-0.0018,0.4943l0.0036,0.0139l0.0314,0.0139l0.0538,0.0175l0.073,0.0103l0.0716,0.0036l-0.0036,0.7761h-0.0018l-0.0816,0.0032
	l-0.0645,0.0107l-0.0453,0.0103l-0.021,0.0139l-0.0032,0.7726l0.0032,0.0139l0.0296,0.0139l0.0524,0.0103l0.0175,0.0036
	l-1.8167,9.1628l-0.0574,0.0314l-0.0054,0.8214l0.0399,0.0592l0.1375,0.0485l-0.0314,7.4613l-0.4836,0.0417l-0.3307,0.052
	l-0.1425,0.0627l-0.0089,1.987l0.0559,0.0592l0.0887,0.021l-0.0036,0.8178l0.0538,0.0556l0.2334,0.0524l0.2626,0.0314
	l-0.0018,0.9012h-0.0071l-0.1165,0.0381l-0.0018,0.8143l0.0403,0.042l0.0798,0.0171l-0.0659,16.05l-0.0506,0.0032l-0.0207,5.0217
	h-0.1621l-0.7708,3.6159h0.0246l-0.0107,2.5611l-9.1454,2.0394l0.0157-3.1288l-2.8465-11.4281l-0.2872-0.0103l0.129-25.1359
	l0.247-0.021l0.3652-0.0766l0.1358-0.0905l0.0139-2.756l-0.1008-0.1044l-0.3375-0.1044l-0.5481-0.0973l-0.3253-0.0349
	l0.0556-10.5825l-0.0663-0.0869h-0.0032l0,0v-0.0036l-1.7768-11.9677l0.0331-0.0071l0.0399-0.0175l0.0157-0.0171l0.0053-0.9988
	l-0.0103-0.0175l-0.0349-0.021l-0.0574-0.0171l-0.0784-0.0139l-0.0417-0.0071l0.0071-0.9988l0.031-0.0032l0.0873-0.0071
	l0.0641-0.0103l0.0453-0.0175l0.0157-0.021l0.0018-0.6332l-0.0086-0.021l-0.0385-0.0207l-0.0627-0.021l-0.0798-0.0175
	l-0.0524-0.0068l0.0054-1.0163l-0.0018-0.0032l0.1044-0.0627l0.0923-0.1151l0.0731-0.1425l0.0453-0.1671l0.0157-0.1842
	l-0.0139-0.1775l-0.0435-0.1636l-0.0716-0.1461l-0.0538-0.0698l-0.0713-0.0659l0.0574,0.1215l0.0367,0.1393l0.0121,0.1461
	l-0.0139,0.1532l-0.0385,0.1358l-0.0591,0.1183l-0.0766,0.0941l-0.0902,0.0556l-0.0959,0.0175l-0.0959-0.0175l-0.0467-0.0278
	l-0.0453-0.0559l-0.0592-0.1183l-0.0367-0.1425l-0.0121-0.1461l0.0139-0.1497l0.0381-0.1358l0.0592-0.1219l-0.0713-0.0627
	l-0.0574,0.0663l-0.0695,0.1461l-0.047,0.1671l-0.0175,0.181l0.0139,0.1775l0.0453,0.1703l0.0695,0.1429l0.0941,0.1112
	l0.0713,0.0663l0.0592,0.0381h-0.005l-0.0175,0.0071l-0.0053,0.0032l-0.0068,1.0199h-0.0331l-0.0852,0.0103l-0.0663,0.0139
	l-0.0417,0.0139l-0.0175,0.021l-0.0018,0.6332l0.0103,0.021l0.0367,0.0242l0.0609,0.0175l0.0816,0.0175l0.0524,0.0068
	l-0.0071,0.9988h-0.0225l-0.0802,0.0103l-0.0627,0.0107l-0.0417,0.0139l-0.0139,0.0207l-0.005,0.9988l0.0103,0.0175l0.0349,0.0207
	l0.0592,0.0175h0.0014l-1.9033,11.839l-0.0246,0.0036l-0.0766,0.0834l-0.0574,10.6242l-0.2887,0.0175l-0.5638,0.0663l-0.3549,0.0834
	l-0.1183,0.1008l-0.0157,2.7703l0.1215,0.0941l0.3553,0.0973l0.2747,0.0417l-0.1408,25.2335l-0.2733,0.0417l-3.1615,11.5849
	l-0.0417,6.9249l-61.6949,0.0488l-0.0018-0.0036l-0.5324,0.0488l-10.8227,8.1152l-99.6929,3.261H2.0671l0.0192,0.0068H2.0845
	l-0.0174-0.0068l-1.345,0.1286l-0.5237,7.2211H0v29.2631h381.9804h54.0701h563.5814v-29.2631h-0.0086L999.6319,101.4625z
	 M52.6312,106.853l-0.1842,5.4497h-2.5126l0.1949-5.589l0.0278-0.4315l0.1582-0.407l0.2872-0.3585l0.3809-0.2783l0.2003-0.0766
	l0.2487,0.0314l0.4419,0.1739l0.3688,0.2783l0.2594,0.3621l0.134,0.4141L52.6312,106.853z M59.6314,112.3027h-3.1947l0.1949-5.7943
	l0.0852-0.4665l0.2174-0.4315l0.3392-0.372l0.4351-0.2854l0.2644-0.0976l0.3706,0.042l0.4925,0.1775l0.4159,0.2886l0.3186,0.3759
	l0.1914,0.4351l0.0556,0.4697L59.6314,112.3027z M66.7477,112.3027h-3.1544l0.1878-5.9856l0.0453-0.4839l0.1914-0.4625l0.3289-0.397
	l0.4369-0.3132l0.32-0.1215l0.4194,0.052l0.5046,0.1949l0.4209,0.3132l0.3047,0.4037l0.1636,0.4629l0.0139,0.4907L66.7477,112.3027z
	 M73.9652,112.3027h-3.1665l0.1789-5.9892l0.082-0.4522l0.2124-0.4212l0.3236-0.3621l0.4209-0.2747l0.2698-0.0976l0.4194,0.0488
	l0.4768,0.1775l0.4073,0.2783l0.3061,0.3621l0.1878,0.4212l0.0542,0.4558L73.9652,112.3027z M81.3409,112.3027h-3.4798
	l0.1739-6.0936l0.1914-0.3827l0.2787-0.341l0.3531-0.2819l0.4123-0.216l0.16-0.0417l0.4558,0.0417l0.449,0.1326l0.402,0.212
	l0.3375,0.2819l0.263,0.341l0.1703,0.3863L81.3409,112.3027z M88.2716,112.3027h-3.0415l0.1547-5.8082l0.0766-0.4244l0.1967-0.397
	l0.3061-0.341l0.3966-0.2608l0.2455-0.0905l0.4576,0.052l0.4508,0.1671l0.3827,0.2644l0.2922,0.341l0.1792,0.397l0.0506,0.428
	L88.2716,112.3027z M93.3959,106.8146l-0.1376,5.4881h-2.7909l0.1443-5.6271l0.021-0.4248l0.1582-0.4105l0.2765-0.3585
	l0.3813-0.2747l0.268-0.108l0.4661,0.0592l0.4437,0.1739l0.3674,0.2819l0.2644,0.3549l0.1376,0.4141V106.8146z M100.2895,112.3027
	h-3.473l0.129-5.3869l0.0816-0.4629l0.2142-0.4351l0.3339-0.3724l0.4315-0.2854l0.2662-0.0937l0.1219-0.0139l0.5306,0.0556
	l0.4943,0.1842l0.4194,0.2854l0.3182,0.3724l0.1949,0.4387l0.0592,0.4661L100.2895,112.3027z M171.1978,98.1984l0.0189-0.3898
	l0.1393-0.3688l0.2469-0.3204l0.2612-0.1878l0.3742-0.1461l0.4401-0.0524l0.4383,0.0488l0.4055,0.1636l0.3375,0.2469l0.2455,0.3239
	l0.134,0.3688l0.0139,0.3898l-0.0367,5.8046h-3.0621L171.1978,98.1984z M166.4912,98.4385l0.0417-0.2612l0.1165-0.2469
	l0.1846-0.2088l0.1668-0.1115l0.2088-0.0766l0.3011-0.0346l0.3011,0.0346l0.2783,0.1012l0.2402,0.16l0.1842,0.2156l0.1151,0.2437
	l0.0346,0.2644l-0.0435,5.8431h-2.1784L166.4912,98.4385z M159.2737,98.3512l0.073-0.2747l0.1461-0.2541l0.2142-0.2088l0.233-0.1461
	l0.1376-0.0453l0.32-0.0349l0.3204,0.0349l0.3008,0.1008l0.2612,0.1636l0.2102,0.2124l0.1447,0.2541l0.0695,0.2747l-0.0556,5.7871
	h-2.4342L159.2737,98.3512z M144.7812,98.0241l0.0641-0.4002l0.1792-0.3688l0.2854-0.32l0.3638-0.2437l0.2886-0.1044l0.2958-0.0346
	l0.4543,0.0556l0.4226,0.1529l0.3621,0.2473l0.2765,0.32l0.1743,0.3724l0.052,0.3966l-0.0713,5.8605h-3.226L144.7812,98.0241z
	 M131.091,98.219l0.0242-0.3895l0.1429-0.3692l0.2541-0.32l0.3425-0.247l0.3271-0.1254l0.1219-0.0175l0.4405,0.0524l0.4034,0.16
	l0.3378,0.2505l0.2434,0.32l0.1304,0.3724l0.0107,0.3898l-0.0905,5.8149h-2.7824L131.091,98.219z M126.3772,97.9546l0.0452-0.2644
	l0.1201-0.2469l0.1881-0.2088l0.2398-0.1604l0.1743-0.0624l0.2783,0.0314l0.2801,0.1009l0.2384,0.1636l0.1828,0.2088l0.113,0.2469
	l0.0331,0.268l-0.0991,5.8534l-1.8986,0.0032L126.3772,97.9546z M119.0225,103.7385l0.1112-5.8744h-0.0018h0.0018l0,0l0,0
	l0.0784-0.2747l0.1497-0.2505l0.2138-0.216l0.268-0.16l0.1828-0.0627l0.2783,0.0314l0.3011,0.1044l0.2626,0.16l0.207,0.2124
	l0.1411,0.2576l0.0677,0.2747l-0.1076,5.9161l-2.6484,0.0032L119.0225,103.7385z M107.3801,112.3027h-3.4331l0.1254-5.5751
	l0.0381-0.4836l0.186-0.4629l0.3257-0.4002l0.433-0.3061l0.2943-0.1151l0.1775-0.0207l0.5498,0.0659l0.506,0.1949l0.423,0.3132
	l0.3061,0.4037l0.1671,0.4593l0.0192,0.4907L107.3801,112.3027z M114.5699,112.3027h-3.4452l0.1165-5.5819l0.0766-0.4526
	l0.2053-0.4176l0.3218-0.3585l0.4176-0.2783l0.207-0.0731l0.2505-0.0314l0.5149,0.0592l0.4786,0.1743l0.4073,0.2783l0.3097,0.3617
	l0.1914,0.4248l0.0556,0.4522L114.5699,112.3027z M121.9456,112.3027h-3.7566l0.1147-5.9892l0.1864-0.3792l0.273-0.341
	l0.3499-0.2854l0.4087-0.2088l0.0278-0.0071l0.4037-0.0381l0.4715,0.0453l0.4472,0.1286l0.4037,0.2124l0.341,0.2819l0.2626,0.3446
	l0.1725,0.3827L121.9456,112.3027z M128.8481,112.3027h-3.3198l0.1008-5.7002l0.0713-0.4248l0.1931-0.3966l0.3029-0.341
	l0.3913-0.2608l0.1322-0.0488l0.3724-0.0417l0.4853,0.0556l0.449,0.1636l0.3845,0.2644l0.2943,0.341l0.1807,0.3966l0.0559,0.4283
	L128.8481,112.3027z M133.8139,112.3027h-3.071l0.0837-5.0114l0.0189-0.4244l0.1514-0.4105l0.2751-0.3585l0.3756-0.2751
	l0.1322-0.0556l0.4037-0.0488l0.4857,0.0592l0.4419,0.1775l0.3706,0.2787l0.2644,0.3581l0.1411,0.4109l0.0032,0.4315
	L133.8139,112.3027z M137.6019,97.8399l0.1133-0.3688l0.2088-0.3343l0.2904-0.2819l0.3585-0.2124h0.0018l0.2662-0.0902
	l0.2227-0.0246l0.4298,0.0488l0.4055,0.1358l0.3531,0.212l0.2887,0.2854l0.1967,0.3343l0.1044,0.3724l-0.0887,6.121l-3.2431,0.0036
	L137.6019,97.8399z M141.2993,112.3027h-3.7495l0.0748-5.1539l0.0784-0.4665l0.2102-0.428l0.3289-0.3724l0.4055-0.2715
	l0.1654-0.0592l0.5324-0.0624l0.5306,0.0624l0.4907,0.1778l0.4212,0.2851l0.32,0.3724l0.1985,0.4351l0.0645,0.4665
	L141.2993,112.3027z M148.3654,112.3027h-3.7114l0.0698-5.3453l0.0346-0.4804l0.1828-0.4593l0.3186-0.4037l0.3827-0.2712
	l0.2559-0.0976l0.5498-0.0695l0.5481,0.0695l0.5064,0.1949l0.4244,0.3097l0.3079,0.4002l0.1739,0.4665l0.021,0.4836
	L148.3654,112.3027z M151.5569,98.0626l0.0763-0.4665l0.2088-0.4347l0.3289-0.3724l0.4262-0.2854l0.341-0.1219l0.4422-0.052
	l0.5324,0.0624l0.4942,0.1775l0.4226,0.289l0.3236,0.3724l0.2003,0.4383l0.0659,0.4665l-0.0641,5.9193l-3.8682,0.0036
	L151.5569,98.0626z M155.5291,112.3027h-3.7235l0.0627-5.3488l0.0713-0.4454l0.2017-0.4212l0.3168-0.3617l0.273-0.181l0.3706-0.1358
	l0.5153-0.0627l0.5132,0.0592l0.4768,0.1775l0.4091,0.2787l0.3129,0.3617l0.1931,0.4176l0.0627,0.4526L155.5291,112.3027z
	 M162.4979,112.3027h-4.0318l0.0556-5.5159l0.1828-0.3792l0.2698-0.341l0.2452-0.1985l0.3065-0.16l0.449-0.1322l0.4697-0.0453
	l0.4697,0.0453l0.4454,0.1286l0.402,0.2159l0.3428,0.2819l0.2662,0.341l0.1775,0.3792L162.4979,112.3027z M169.3776,112.3027
	h-3.5949l0.042-5.2305l0.0659-0.4244l0.1896-0.3934l0.2263-0.2576l0.3114-0.2085l0.4526-0.1671l0.4836-0.0524l0.4854,0.0524
	l0.449,0.1636l0.3863,0.2644l0.2958,0.341l0.1828,0.3966l0.0627,0.428L169.3776,112.3027z M174.3262,112.3027h-3.3479l0.0367-5.0459
	l0.0139-0.4283l0.1497-0.4105l0.181-0.2331l0.3496-0.2612l0.4472-0.1807l0.4839-0.0627l0.4818,0.0627l0.4454,0.1775l0.3706,0.2783
	l0.268,0.3585l0.1425,0.407l0.0107,0.4315L174.3262,112.3027z M458.1659,72.4638h0.139l0.0592-0.0103l0.0748-3.3269l0.428,0.5324
	h-0.0032l0.0659,2.9267L458.1659,72.4638z M466.2063,69.3283l-0.1425-0.0381h0.0068l0.1375,0.0381l0.2106,0.0103L466.2063,69.3283z"
	/>
</svg>
