<?xml version="1.0" encoding="utf-8"?>
<!-- Generator: Adobe Illustrator 18.1.1, SVG Export Plug-In . SVG Version: 6.00 Build 0)  -->
<svg version="1.1" id="madrid" xmlns="http://www.w3.org/2000/svg" xmlns:xlink="http://www.w3.org/1999/xlink" x="0px" y="0px"
	 viewBox="0 0 998.494 146.1558" enable-background="new 0 0 998.494 146.1558" xml:space="preserve">
<g>
	<path   d="M980.9651,116.966l-0.6557-3.3858l-4.6784-4.1463l-7.36-0.3027l-0.2365-5.2504l-0.1425-3.1653
		l-0.0054-0.026l-0.0712-1.5932l-0.0399-0.8851l-0.0435-0.9877l-0.0174-0.4174l-0.0855-1.8714h-0.0014l-0.0071-0.1236
		l-1.9305,0.0278l-0.0018,0.1236h-0.0068l0.0032,0.146l-0.0225,1.0521l0.0609,0.4296l0.0085,0.2365l0.0541,0.9549l0.0659,1.341
		l-0.1774,0.2504l0.0228,0.5984l0.1617,0.9962l-0.1097,0.0905l-1.0208,0.9724l-0.5286,0.525l-0.8452,1.835l-1.2541,1.3877
		l-0.3861,1.4942l-0.7668,0.7579l-1.1444-0.0014l0.0139,1.0571l-1.9619-0.0085l-0.0815-2.4156l1.6694-0.0036l-0.2746-7.7565
		l-1.4091-0.6037l-1.0101-0.8833l-0.0577-1.7602l-3.353,0.0089l-0.3875-2.2678l0.7319-3.0852l1.4176-0.1898l1.3702-1.6192
		l-0.1545-4.7721l-0.6643-1.7303l-0.1079-0.0036l-0.6418-3.5358l0.0574-1.1216l-0.5652-0.5097l0.7565-0.5774l0.1447-0.2956
		l-0.2315-0.3914l-1.0173-0.8694l-0.5773-0.3063l-1.6523,1.148l-0.2956,0.5652l-0.0488,0.1268l-0.026,0.0627l-0.0417,0.1079
		l0.0018,0.0296l-0.202,0.6661h0.2226l0.0417,1.1059l0.5791,0.0923l0.0385,1.0956l-1.1914,1.3132l-0.6312-0.4103l-0.1898-0.8591
		l-0.5062-0.1496l-0.5912,0.2938l-0.0573,0.12l0.0103,0.4452l1.0539,1.5615l-1.113,1.2245l-5.1094,3.1044l-2.2054,6.4938
		l-2.593,3.1757l-0.3167,0.0018l-0.2173,0.7722l0.0036,0.3341l-1.1583,0.3686l-0.9392,0.8452l-2.3793,0.6486l-0.1304-0.3929
		l-0.598-0.2369l-0.7498,0.2401l0.0452,0.7843l-1.0624,0.2924l-0.2244-0.0036l-0.1446,0.1008l-2.5093,0.6871l-0.327,0.0018v0.073
		l-1.2872,0.0712l-0.0085,8.7758l-1.4767,0.0018l0.4071-0.6678l-1.0383-2.915l-0.0748-0.1984l-1.0956-0.7059l-1.9219-3.6661
		l-1.9928-1.8226l-0.301-0.1442l-0.1809-0.0053l-0.1859-0.1738l-0.327-0.1567l-1.1479-0.0417l-3.4869,0.3775l-2.24-0.8595
		l-0.1478-0.193l0.0712-0.5617l-2.1741-2.7443l-1.8069,0.0663l-1.2138,0.0816l-1.9113,3.3776l1.0817,2.2696l1.6886,2.0156
		l-2.36,0.8103l-1.3043,1.5166l-0.4071,1.0799l2.1862,0.0627l0.348,0.0103l0,0l0.899,0.0264l0.3184,0.0068l0.3982-1.2505
		l1.6085,0.0577l-1.0365,2.993l1.7531,0.0538l0.7391,1.1341l-0.2433,0.228l-4.381,0.0278l-2.2279,0.1859l-8.2348,7.6243h-13.3167
		l-0.5111-34.7322l-0.0157-1.2228l-0.2401-0.0036l-0.0242-1.7531l-0.0281-1.8329l-2.374,0.0175l-0.1492-11.3809l-0.4855-0.0766
		l-0.2728-1.8261l-0.0139-0.9984l-0.4089,0.0053l-0.0175,0.0677l0.0121,0.8698h-0.233l-0.0139,0.0641l0.0121,0.9478l-0.113,0.6974
		l-0.7547-0.1215l-2.7255-0.021l-0.0609-5.4385h-0.0834L873.7,58.1256h-0.0036l-0.0053-0.4922l-0.0018-0.0435l-0.0085-0.9684
		l-0.0139-1.5237l-0.0071-0.1913l0.0018,0.3964l0.0054,0.5809l0.0018,0.3686l0.0157,1.3342v0.2155l0.0032,0.3234l-0.0103-0.0018
		l-0.0242-1.1494l-0.0071,0.198l0.0018,0.9513h-0.0157l-0.005-0.5528l-0.0053-0.1635l-0.0054-0.5777l-0.0049-0.3562l-0.0018,0.0242
		l0.0067,1.148l0.0089,0.478l-3.1881-0.0502l-1.4885,1.4293l0.0067,0.675l-6.0956-0.0627l0.0242,5.0837l-0.0641-13.0735
		l0.0018-0.0032h-0.0018l-1.1564-0.0175l-0.0036-1.0853l1.1547,0.0175l-0.3494-2.3166l-0.0035-1.1077l-0.4488-0.0089l-0.0659,0.1357
		l0.0032,1.1045l-0.1581,0.8936l-0.0488-0.28l-0.9966-1.5444l-0.4207-3.8225l-1.0019-2.4679v-0.0175l-0.0032-1.2641l-0.0035-1.2612
		l-0.3095-1.0643l0.1044-0.2312l0.0919-0.275l-0.2554-1.7809l-0.4541-0.0085l-0.0435,0.1442l-0.2419,1.9027l0.2037,0.3722
		l-0.0783,0.327l-0.0731-0.5133l-0.4331-0.0085l-0.0399,0.1304l-0.2177,1.7096l-1.7321-2.219h0.0035l-0.4488-0.249l0.1357-0.2468
		l-0.0018-0.5617l-0.5948-0.0139v0.5653l0.2123,0.306l-0.3826,0.1792l-2.3062,2.6539l-1.6138-0.0278l0.0018-1.2505l1.1163,0.021
		l-0.2832-1.0261l0.1321-0.2714l0.0452-0.2782l-0.2365-1.7827l-0.4559-0.0121l-0.0206,0.1443l-0.2401,1.9112l0.1026,0.1984
		l-0.1756-0.0018l-0.021,0.1321l-0.1026,0.8192l-0.0121-0.2678l0,0l-0.0175-0.1044l0.0071-0.2817v-0.5531l-0.0246,0.1792
		l-0.0018,0.5478l0.0089,0.2333l-0.0157,0.2903l-0.0175,0.5478l-0.052,0.4071l0.0363,0.0712l-0.0295,0.9236l-0.0627,0.2557
		l-0.0471,0.2956v1.0365l-0.6382,1.5722l-0.0417,0.2903l-0.1528,1.4122l-0.0609,0.1442l-0.0524,0.2611l-0.2034,1.8714l-0.499,0.774
		l-0.0281-0.1948l0.0036-1.1148l-0.572-0.0103l-0.0211,0.1076l-0.0035,1.1113l-0.2155,1.8158l-0.2436-0.0018l-0.0139,0.1133
		l-0.0035,1.0087l-0.2675,2.0295l-0.0264,0.2105l-0.0018,0.9321l-0.0103,0.0712l-0.0068,1.9793l-13.0681-0.1478l0.0089-1.0037
		l-0.0089-0.7408l-0.0417-0.1304l-0.0435,1.3827l-0.021-0.52l-0.0591-0.1827l-0.073,1.0418l0.0121-1.226l-0.0346-1.1793
		l-0.0313-0.1008l-0.0452,1.3008l-0.0157,1.3531h-0.1147l-0.0591,5.6315l-0.0054,0.4434h-0.2261l-0.0103,1.0226l-0.3723,1.9305
		l-0.7529,0.0887l-0.1304,11.5651l-3.4001-0.0086l-0.0175,1.4732l-0.0295,2.219l-5.1411,0.0627l-0.2903,7.8836l-10.207-0.7654
		l0.1895-5.9407l-5.7081-0.2504l-8.3705-0.068l-0.6885,0.2383l0.2034-8.3288l-3.0471-0.0224l-4.927,0.005l-0.2536,12.6785
		l-7.421-0.5546l0.0502-3.1322l-0.9774-0.3551l-9.0558-0.0086l0.0071-0.7601l0.2155-0.9008l-0.198-0.4488l0.1196-11.0454
		l-3.1008-0.0538h-1.2156l0.0435-5.0784l0.1289-14.6122l0.0712-8.28l0.0801-9.0907l-0.0295,0.1012l-0.0367,4.0487l-0.0331,0.8192
		l-0.0345,4.1114l-0.0541-0.0107l0.0035-0.3426l-0.0156-0.2052l-0.0175-0.1236l-0.0103-0.0467l-0.0018-0.9652l0.0036-0.3131
		l-0.0036-0.2002l-0.0103-0.167l-0.0192-0.0484l-0.0192,0.2992l-0.0296,1.0849l-0.0049,0.4003l-0.0036,0.2034l-0.0156,0.2746
		l-0.0071,0.1183l-0.0278-0.005l0.0295-3.4838l-0.0381-0.8434l0.0295-3.654l-0.0242,0.0748l-0.0698,7.8925l-1.9946-0.3986
		l0.0748-9.605l-0.5742,0.0018l-0.0207,3.1304l-0.0591,0.0623l0.0032-0.7579h-0.5371l-0.021,2.9459l-0.5339,0.5827l-0.0242,3.2975
		l-0.2696-0.0142l-1.5932-1.3111l0.0089-1.7723l-1.5444,0.0053l-0.0054,1.174l-0.967,0.5998l0.0104-2.64l-1.2224-1.1668
		l0.0157-4.1114l-0.6226-0.0784l-0.0089,2.4608l-0.1756-0.0242l-0.0242,7.2731l-2.4872,0.452l0.0036-0.3633v-0.2034v-0.1236v-0.0452
		l0.0018-1.4781v-0.1653v-0.0524l-0.0085,2.4313l0,0l0.0085-3.5372v-0.8452l0.0085-3.6469l-0.0014,0.073l-0.0192,7.9563
		l-0.0089,0.0036l0.021-9.0818v0.0976l-0.021,9.1146l-0.0104,0.6557l-0.0175,8.061l-0.0313,14.4871l-0.0085,4.6018l-3.3652,0.0573
		l-0.0071,13.1322l-8.8018-0.0085l-0.4381,0.3565l0.0157,3.7477l-0.8541,0.0452l-0.0502-10.3808l-0.0367-0.0036l-0.1008-0.0036
		l-0.1581-0.0036l-0.1984-0.0018l-0.2329-0.0014h-0.2437l-0.2436,0.0014l-0.2258,0.0018l-0.1931,0.0036l-0.1478,0.0018
		l-0.0905,0.0053l-0.026,0.0032l0.0591,10.4698l-3.0176,0.1496l-0.4-0.0331l-0.099-13.16l-1.1184-0.0192h-4.8593l-1.892,0.0157
		l0.1008,8.7933l-0.6069-0.2351l-8.4055-0.0224l-5.6244,0.3512l0.0976,5.0663l-8.2402,0.4l0.0104,0.3929l-2.0644,0.1012
		l-1.8016-0.2262l-5.0385,0.245l-0.2173-7.6642l-3.887-0.2696l-9.7062,0.2294l1.1148,31.7867l0.1581,4.4554h-5.3462l-0.0206-3.3687
		l-1.1776-0.327l-0.1218-21.7599l1.3235-0.1133l-0.0121-1.8642h-0.3896l-0.0139-2.6802l0.3096-0.052l-0.0157-2.739l-1.9824-0.0018
		l-0.0121-1.8454h0.6469l0.9755-0.2383l-0.0139-0.5809l0.1912-0.3583l0.3498-0.2137l0.1966-0.2522l-0.0976-0.0855l-0.3113-0.1824
		l-0.353-0.0488l-0.6906-0.1044l-0.358,0.0121l-0.2262-0.1357l-0.0157-0.1286l0.1286-0.7252l-0.0869-0.499l-0.3512-0.2158
		l-0.4053-0.1218l-0.2418-0.2921l-0.2191-0.0784l-0.1514,0.0157l-0.3113-0.0363l0.0175-0.1289l0.4089-0.5043l0.525-0.6835
		l-0.0973-0.6258l-0.2714-0.3426l0.0363-0.2087l0.1061-0.0976l0.4541-0.5998l-0.0139-0.115l-0.2575,0.0089l-0.3391-0.3409h-0.2575
		l-0.525,0.2034l-0.2401,0.0053l-0.9182,0.3583l-0.4541,0.2504l0.0922,0.3458l-0.0574,0.3601l-0.1756,0.4313l0.1949,0.4748
		l0.005,0.7373l-0.1443,0.4801l-0.0784,0.1948l-0.3669,0.0331l-0.3619,0.1232l0.0264-0.2397l-0.5948,0.0573l-0.0645-0.6051
		l-0.2294-0.7462l-0.5392-0.3462l-0.4993,0.1115l-0.6258,0.2383l-0.2786,0.2988l-0.5286,0.4541l-0.1442,0.0972l-0.2347-0.0627
		l-0.8245,0.3099l0.073,0.1304l0.1165,0.1617l0.1201,0.3305l0.2575,1.1163l0.0869,0.1339l-0.0766,0.1428l-0.8206-0.4402
		l-2.0626-0.9182l-0.567,0.2158l-0.0471,0.2714l0.3199,0.3875l0.5115,0.6037l0.2208,0.7319l0.0627,0.3184l-0.188,0.0139
		l-1.0817-0.3601l-0.5581,0.1881l0.7825,0.7651l0.1567,0.1549l-2.9253-0.0053l0.3458-0.92l0.2333-0.8783l-1.0055,0.1863
		l-0.5478-0.1532l-0.0748-0.2782l0.9393-1.2245l0.1774-0.3373l0.7373-0.306v-0.2767l-0.151-0.327l0.7476-0.6137l-0.1478-0.2575
		l-0.3006,0.094l-0.6767,0.2643l-0.8121,0.3597l-0.9792,0.6279l-1.1793,0.8627l0.0107-0.6105l-0.2212-0.8904l0.7255-0.894
		l0.2468-0.8434l-0.5392-0.3686l-0.233-0.1877l-0.3167,0.1599l-0.4417,0.2312l-0.1097-0.1931l-0.2329-0.1877l-0.7391,0.3964
		l-0.8018,0.6019l-0.4103,0.4399l-0.0089,0.2767l0.0296,0.8434l-0.7305-0.468l-0.9617,0.2383l-0.5756,0.3027l-0.4017,0.2329
		l-0.8922-0.4556l-0.6365,0.353l0.3758,0.9025l-0.1183,0.8245l-0.2853-0.1742l-0.5912-0.2486l-0.3462-0.0556l-0.5218,0.2782
		l0.7896,1.4279h-0.0452l-1.2469-0.1724l-0.5062,0.254l0.4922,0.5236l0.3879,0.6297l-12.308-0.0107v-0.1649h-1.5686v-0.0855h-1.5964
		l-0.0125-9.0868l1.9515-2.7134l-0.0018-1.892l-0.5079-0.0018l-2.5791-1.7791l-2.3287-1.2573l0.0278-0.0139l0.1321-0.2974
		l-0.1652-0.2522l-0.2034-0.5325l-0.2885-0.6988l-0.5236-0.1428l-0.4295,0.0869l-0.722,0.1966l-0.2016,0.3897l-0.2625,0.0923
		l-0.2942-0.1218l-0.4207-0.5115l-0.3427-1.045l-0.021-0.2105l-0.2451-0.0887l-0.2486-0.1428l-1.0575-1.5928l-0.0228-0.9617
		l-0.3494-0.2351l-0.2714,0.1061l-0.1251,0.5496l-0.7098,0.0887l-0.5859,0.1532l-0.4157,0.3198l-0.0573,0.3394l0.4591,0.5442
		l0.4452,0.1635l0.1756,0.1514l-0.2365,0.1824l-1.1323,0.4559l-0.4331,0.073l-0.2208-0.1357l-1.3043-1.2263l-0.4712-0.4466
		l-0.5568-0.0402l-0.0278,0.3391l0.1948,0.2942l-2.0452-0.8801l-0.6226-0.1393l-0.1532,0.3359l-0.0018,0.3409l0.3704,0.5093
		l0.6696,0.5271l0.0524,0.0627l-0.5182-0.0264l-1.715-0.6226l-1.6644,0.6436l-0.4242,0.021l-0.155-0.2418l0.1567-0.099
		l0.9025-0.6333l0.0574-0.1653l0.026-0.3704l-0.2226-0.0833l-0.1931,0.1425l-0.3754,0.1984l-0.8801,0.327l-0.7843,0.3409
		l-0.0833-0.0157l0.0851-0.1877l0.005-0.3672l-0.1788,0.0541l-0.52,0.4278l-0.7986,0.64l-0.8224,0.5236l-0.3669,0.0623
		l-0.0245-0.0399l-0.4695-0.2764l-0.7968-0.5133l-0.3127-0.0641l-0.0922-0.1948l-0.1791-0.4157l-0.1183-0.1724l0.0278-0.1895
		l0.3929-1.6103l-0.0399-0.3897l-0.0591-0.3637l-0.3826,0.0192l-0.7654,0.1097l-0.1511,0.0157l-0.0784-0.115l-0.0228-0.1756
		l-0.4659-0.2817l-0.3807,0.1443l0.0484,0.3323l-0.3024,0.0887l-0.261-0.2244l0.047,0.4174l-0.0278,0.1496l0.0505,0.3198
		l0.0887,0.7238l0.0605,0.3772l0.1621,0.5496l0.073,0.0801l-0.4453,0.2625l-1.0646,0.3548l-0.0919,0.6906l0.0748,0.3512
		l0.2849,0.447l0.2646,0.1895l0.3181,0.3323l0.0035,0.0224l-0.4886-0.1617l-0.2001,0.2593l-0.4784,0.5425l-1.1772,0.6262
		l-0.1321,0.0851l-0.141,0.0573l-3.1408,1.6783l-2.5584,1.7478h-0.572l-0.0035,1.8991l1.96,2.5705l-0.0192,9.2542l-2.2297-0.0053
		v0.0834l-1.3791-0.0032l-0.0015,0.5667l-12.9915-0.0121l0.4801-0.8192l0.478-0.826l0.1948-0.8833l-0.0905-0.4748l-0.5581-0.2889
		l-1.9949,0.5791l-0.0207-0.0103l-0.3045-0.0905l0.0416-0.1115l-0.5599-0.2643l-0.5563,0.3498l0.0156-0.094l0.1286-0.8523
		l0.5877-0.4954l-0.6956-0.8192l-0.6226-0.3198l-1.0436-0.4595l-0.1528,0.089l-0.5948-0.3027l-0.4278,0.3914l0.0381,0.6607
		l-0.4694-0.1218l-0.4506,0.0036l-0.2155,0.5182l-0.0645,0.5008l0.0139,0.5446l-0.0018,0.1546l-0.0627,0.0591l-0.0485,0.0784
		l-0.1966-0.1321l-0.8712-0.5132l-0.7081-0.3006l-0.3095-0.0716l0.3444,0.5115l0.6557,1.0764l-0.6489-0.2589l-0.0296,0.3512
		l-0.0591,0.2141l-0.1076,0.026l-0.3251-0.052l-0.2992-0.1061l-0.1236,0.1702l0.2921,0.7113l-0.3687-0.1371l-0.5321-0.0452
		l0.1599,0.8972l-0.0068,0.426l-0.0295,0.1079l-0.1097,0.026l-0.2051,0.0748l0.1859,0.3202l-3.9425-0.0053l-0.0887-0.254
		l0.7547-1.2712l0.3968-1.1636l-0.6821-0.2433l-2.193,1.2815l-0.0573-0.0157l-0.4506-0.5129l0.3305-0.6643l0.0121-0.301
		l-0.8085-0.2782l-0.2383-0.021l-0.2437,0.0435l-0.4381,0.3498l0.2052-0.5097l-0.2732-0.8035l0.0295-0.6522l-0.1649-0.4206
		l-0.8142-0.3601l-0.7615-0.2871l-0.5321,0.0313l-0.4993,0.4157l0.3861,0.6593l-0.2052-0.0766l-0.3583-0.4246l-0.8833-0.3145
		l-0.1756,0.1617l-0.4349-0.146l-0.2347,0.2155l-0.2123,0.6764l-0.1079,0.7462l-0.4018,0.2593l-0.0156,0.2294l-0.3669,0.5531
		l-0.3565,0.3758l0.0905,0.2415l0.3323,0.7394l0.1667,0.7875l-0.3007,0.3255l-0.2244,0.0381l-0.1339-0.0157l-0.2123-0.1183
		l-0.9374-0.2418l0.5446,1.0454l0.826,0.1998l-0.0104,1.6174l-2.0245-0.0032l-0.0192,2.8555l0.2001,0.0296l-0.0192,2.8174
		l-0.2678-0.0018l-0.0139,1.8507l1.0176,0.0851l-0.1411,21.8297l-0.946,0.2611l-0.0192,3.2519h-2.8782l-0.9115-27.5845
		l-5.8712,0.1026l-0.0488-1.8122l-0.6849,0.0121l-0.0349-1.351l-6.2245,0.1232l-0.1809,0.494l-2.4747,0.0452l-0.4381,1.673
		l-0.3896,0.0071l-0.1617-12.7013l-0.275-0.551l-0.5616-0.2123h-0.0018l-2.3058,0.0659l-0.0403-4.0832l-8.9877,0.2956
		l-0.0104,4.0554l-2.2645,0.068l-0.546,0.2418l-0.2625,0.5617l-0.0851,13.5148l-1.4297,0.0242l-0.4801-0.8103l-0.379,0.0071
		l0.0049-0.6454l-0.7042-1.1982l-0.8644,0.0174l-0.2589-0.4089l-1.8037,0.0349l-0.0416-0.0662l-3.5792,0.0698v0.0677l-0.3042,0.0071
		l-0.0228,1.1807l-1.6398,0.0331l-0.0403,1.8852l-4.6937,0.0816l0.0798-24.1741l0.0071-1.7862l-0.219-0.0538l-0.0018,0.6522
		l-0.0783-0.3843L505.7,64.2543l-0.0121-0.7426l-0.0054-0.2016l-0.0103-0.0801l-0.0139-0.0573l0.0018-0.0972l0.0157-0.3897
		l-0.0103-0.2016l-0.0228-0.2785l-0.0278-0.0591l-0.0224,0.0905l-0.0438,0.4l-0.0068,0.4192l-0.073,0.0242l-0.0193-0.1339
		l-0.0085-0.2312l0.0085-0.021l0.021-0.2401v-0.2988l-0.021-0.2472l-0.0192-0.0417l0.0018-0.2557l0.0139-0.2782l-0.0328-0.1827
		l-0.0313,0.1635l0.0103,0.2871v0.254l-0.021,0.0452l-0.0224,0.2401v0.2992l0.0224,0.2486l-0.0103,0.2365l-0.0192,0.4103
		l-0.0242,0.0662l-0.0224-0.1599l-0.042-0.0923l-0.0242-0.1079v-0.4242l-0.0067-0.202l-0.0367-0.2835l-0.0434,0.228l-0.0071,0.1984
		l0.0175,0.3024l0.0071,0.4313l-0.0071,0.2002l-0.0296,0.2433l0.0018,0.2069l-0.0121,0.1742L505.041,64.27l-0.0453,0.2454
		l-0.0228,0.2034l-0.0035,1.1113l-3.0956,0.026l-3.9425-0.7163l0.0018-0.701l0.0032-1.2505l-0.0677-0.1617l-0.026-0.1948
		l-0.0645-0.3216l-0.1008-0.2347L497.66,62.056l0.0053-0.2486l-0.0403-0.3149l-0.0121-0.2468l0.0157-0.5165l0.0246-0.3583
		l-0.0035-0.2401l-0.0663-0.3149l-0.0556,0.3166l-0.0103,0.2383l-0.0036,0.5165l-0.0399,0.1129l-0.0627,0.0801l-0.0349,0.1809
		l-0.0313-0.099l-0.0313-0.52l-0.0139-0.2974l0.0385-0.2853l0.0018-0.3669l-0.0331-0.3149l-0.0296-0.073V58.99l0.0193-0.3426
		l-0.0488-0.2312l-0.0488,0.1998l0.0192,0.3548v0.3149l-0.0278,0.0381l-0.0367,0.2853l-0.0035,0.3686l0.0349,0.3149l0.0121,0.0331
		l-0.0139,0.2782l-0.0363,0.1478l-0.1079-0.0869l-0.0089-0.5236l-0.0659-0.5357l-0.0313-0.1304l-0.0452,0.0506l-0.0399,0.3252
		l-0.0157,0.245l0.0207,0.5011l0.0036,0.125l-0.0242,0.0573l-0.0175,0.094l-0.0103,0.2486l-0.0264,0.92l-0.0295,0.2557
		L496.554,62.95l-0.0018,1.2138l-0.8541,0.0089l0.0036-2.2749l-0.2347-0.0573l-3.2088,0.0381l0.0035-0.9218l-0.6557-0.0538
		l-0.1984-5.3932l-1.5771-5.2625l-2.833-4.647l-1.4489-1.4625l-1.7079-1.1341l-0.6504-1.3531v-2.8971l-0.6002-0.1289l-0.5026-1.2886
		l-1.1843-0.9581v-0.4107l-0.0067-0.1859l-0.6646-0.1514l-1.071-0.0591l-1.061,0.0591l-0.6418,0.1514v0.5913l-1.2,0.9617
		l-0.5044,1.2819l-0.6051,0.1339l0.0018,2.8975l-0.6557,1.351l-1.7235,1.1341l-1.4575,1.4642l-2.8537,4.6453l-1.5878,5.2629
		l-0.1966,5.3929l-0.6557,0.0541v0.9182l-3.6245-0.0417l-0.1685,0.0623l0.0032,2.2785l-0.8904-0.0071l-0.026,0.0071l-0.0018-1.2156
		l-0.1357-0.6504l-0.0189-0.254l-0.0175-0.9218l-0.0089-0.2504l-0.0139-0.0887l-0.0157-0.0573l0.0018-0.1272l0.0157-0.5008
		l-0.0121-0.2436l-0.0278-0.3252l-0.0296-0.0502l-0.0242,0.1286l-0.042,0.5357l-0.0032,0.525l-0.0766,0.0855l-0.021-0.1478
		l-0.0121-0.2785l0.0086-0.031l0.021-0.3149l-0.0018-0.3704l-0.026-0.2835l-0.0157-0.0385l-0.0018-0.3163l0.0103-0.353
		l-0.0328-0.2002l-0.0331,0.2329l0.0157,0.3409v0.3131l-0.021,0.073l-0.0207,0.3149l0.0014,0.3669l0.0246,0.2853l-0.0089,0.2974
		l-0.0171,0.52l-0.0246,0.1008l-0.0225-0.1809l-0.0434-0.078l-0.0264-0.1165l-0.0032-0.515l-0.0053-0.2383l-0.0399-0.3163
		l-0.0417,0.3145l-0.0053,0.2401l0.0192,0.3565l0.0085,0.5165l-0.0071,0.2454l-0.026,0.3166l0.0036,0.2486l-0.0121,0.2226
		l-0.068,0.2329l-0.0417,0.3216l-0.0192,0.1916l-0.0435,0.1635l0.0036,1.2502l0.0018,0.6696l-5.1321-0.0399v-0.1532l-0.0296-0.1111
		l-0.0139-0.1446l-0.0296-0.2415l-0.0452-0.1549l-0.0071-0.1703V63.896l-0.0206-0.2397l-0.0054-0.1948l0.0036-0.4246l0.0103-0.2974
		l-0.0036-0.1931l-0.0296-0.2244l-0.0242,0.2803l-0.0053,0.1963v0.4157l-0.0139,0.1097l-0.0278,0.0869l-0.0139,0.1564
		l-0.0157-0.0659l-0.0157-0.4018l-0.005-0.2329l0.0139-0.2418v-0.2974l-0.0157-0.2329l-0.0139-0.0435v-0.2522l0.005-0.2817
		l-0.0175-0.1603l-0.0224,0.1809l0.0103,0.2732l0.0018,0.2504l-0.0139,0.0435l-0.0139,0.2383v0.2956l0.0157,0.2365l0.0071,0.021
		l-0.0071,0.2258l-0.0139,0.1307l-0.047-0.0228l-0.0053-0.4103l-0.0296-0.3964l-0.0139-0.0855l-0.0171,0.0573l-0.0175,0.2732
		l-0.0071,0.1966l0.0139,0.3825v0.0972l-0.0085,0.0541l-0.0089,0.0784l-0.0014,0.1998l-0.0071,0.727l-0.0103,0.2087l-0.0506,0.3758
		l-0.0036-0.6383l-0.1685,0.0609l0.0068,1.7531l0.1079,26.6246l-0.5218-0.0228h-0.5877l0.0018,0.0242h-1.0073l0.0591,1.6192
		l-1.118-0.0659l-0.0627-1.6993l-0.5845-0.026h-0.572l0.0591,1.6555l-0.1635-0.0103l-0.0591-1.6765l-0.5271-0.0242h-0.5635
		l0.0438,1.2676l-0.1289-0.1129l-0.172-0.1756l-0.1653-0.1809l-0.1567-0.1948l-0.1425-0.1998l-0.1339-0.2087l-0.12-0.2123
		l-0.0399-0.0922l-0.0089-0.2607l-0.1008-0.0036l-0.0905-0.2262l-0.1111-0.2938l-0.1008-0.2974l-0.0994-0.301l-0.0905-0.2992
		l-0.0833-0.3024l-0.0801-0.3045l-0.0695-0.3042l-0.0659-0.3063l-0.0591-0.3042l-0.0523-0.3095l-0.1877-0.275l-0.2333-0.2397
		l-0.2693-0.193l-0.301-0.1464l-0.3184-0.0851l-0.327-0.0296h-0.2451l-0.3252,0.0278l-0.3095,0.0869l-0.2906,0.1446l-0.2572,0.1913
		l-0.2176,0.2401l-0.1685,0.2746l-0.021,0.3045l-0.026,0.3006l-0.0278,0.3045l-0.0403,0.3024l-0.0399,0.3027l-0.0452,0.301
		l-0.0538,0.2992l-0.0559,0.2988l-0.0605,0.2974l-0.068,0.2974l-0.0713,0.2942l-0.0783,0.2938l-0.0538,0.2208l-0.0713,0.2173
		l-0.0869,0.2105l-0.1061,0.2002l-0.1254,0.1895l-0.1393,0.1792l-0.151,0.1667l-0.1514,0.1375h-2.3287l-0.0541-1.6138
		l-0.1945-0.0103h-1.1654l0.0103,0.3597h-1.5476l-0.0125-0.3494l-0.1877-0.0103h-1.174l0.0506,1.6242h-1.6053l-0.0417-1.4105
		l-0.3861-0.0189h-0.5164l0.0435,1.4293h-1.6174l-0.0488-1.6138l-0.1774-0.0071h-1.866l0.0502,1.7047h-0.6365l-0.0435-1.5063
		l-0.1321-0.0068h-1.9461l0.0417,1.513h-5.7669l-0.0385-1.5063l-0.1215-0.0068h-2.0626l0.0381,1.513h-5.5008l-0.0367-1.5063
		l-0.1111-0.0068h-1.9654l0.0331,1.513l-6.0557,0.0014l-0.0296-1.5077l-0.0958-0.0068h-2.0434l0.0331,1.5145h-5.9132l-0.0278-1.5077
		l-0.0851-0.0068h-1.8713l0.0278,1.5145h-4.3774l-0.0851-5.2087l-0.7843-0.0171l-0.5774-3.7687l-0.0855-5.5061l0.1496-0.0264
		l-0.0207-1.2851h-0.1496l-0.0887-5.4403h-1.2053l-0.7202-3.1824h-1.492l-0.8819,4.2627h-0.6903l-0.1236,0.0399l-0.3772-0.0018
		l-0.4089,0.0018l-0.3982,0.0071l-0.3583,0.0121l-0.2939,0.0139l-0.2105,0.0192l-0.1111,0.0207l-0.0053,0.0192l0.0103,0.7113
		l-0.2746-0.0053l-0.3687-0.0018l-0.3811,0.0018l-0.3687,0.0071l-0.2921,0.0085l-0.0367-2.5531l0.6365-0.7305l-0.0103-0.7181h-0.666
		l-0.1129-8.7687l0.8399-0.8887l-0.0053-0.4627l-0.1339-1.7132h-1.247l-0.0484-3.7616h-0.3861l-0.0228-1.9479h-0.8502
		l-0.0089-0.7825l0.5339-0.4976l-0.0068-0.6016h-0.5774l-1.2003-1.9394l0.2611-0.2764l-0.0103-0.8192h-0.4281l-0.8641-1.6537h0.0972
		l0.3462-0.395l-0.0175-1.44h-0.619l-0.7829-6.1896h-0.581l-0.0677,0.0994l-0.6888,6.0885h-0.3199l-0.3148,0.4107l0.0139,1.4261
		h0.5652l-0.727,1.6537h-0.172l-0.426,0.52l0.0085,0.8107h0.3619l-0.9933,1.7025h-0.2522l-0.7355,0.8627l0.0053,0.5895h0.5164
		l0.0036,0.4296h-0.2888l-0.8071,0.9182l0.0125,1.2854l-0.5635,0.6101l0.0381,3.5653h-0.4801l-0.7633,0.748l0.0435,1.0172h0.4627
		l0.1286,13.887h-1.8001l-0.099-1.3303l-0.073-1.8938l-0.2002-0.4452l-0.0014-0.6472l-0.3986-0.6974l-0.5268,0.1478l-0.2643,0.1393
		l-0.1724,0.1165v0.2575l-0.1303,0.7807l-0.0695,1.8924l-0.2643,0.5371l0.1321,0.5218l0.2451,0.6208h-2.2799l-0.047-6.3756h-0.6002
		l-0.0103-1.3877h-0.5339l-0.2764-0.2297l-0.2628-0.2504l-0.2433-0.2625l-0.2279-0.2785l-0.2123-0.2938l-0.1913-0.3042
		l-0.172-0.3149l-0.1532-0.3234l-0.1321-0.3359l-0.1111-0.3409l-0.0887-0.3476l-0.068-0.3515l-0.0641-0.4345l-0.0609-0.4349
		l-0.0506-0.4349l-0.047-0.4363l-0.0399-0.4367l-0.0296-0.4381l-0.0278-0.4367l-0.0192-0.4381l-0.0121-0.4385l-0.0036-0.4381
		v-0.4349l0.0071-0.4385l-0.0054-0.7875l-0.2436-0.0819l-0.8591-0.0972l-0.6782-1.7741l-0.3323-1.699l0.1428-0.042l0.0036-0.0606
		l-0.0125-0.12l-0.0363-0.1688l-0.0506-0.2069l-0.0609-0.2329l-0.073-0.2383l-0.0766-0.2333l-0.0748-0.2101l-0.0677-0.167
		l-0.0573-0.1236l-0.0417-0.0627h-0.0246l-0.0242,0.0089l-0.1827-0.546l-0.4242-0.8627l-0.3982-0.588l-0.3896-0.4538l-0.5599-0.5653
		l-0.4263-0.3946l-0.6468-0.3879l-0.727-0.4174l-1.0817-0.6208l-1.3983-0.6956v-0.868l-0.8-0.1097l-0.0157-4.7493l0.3548-0.0627
		l0.0573-0.2853l-0.0018-0.3808l-0.4659-0.0766l-0.3811-0.7081l0.1133-0.0207l0.0363-0.1984v-0.2782l-1.8033-5.5321h-0.2191
		l-1.6715,5.5304l-0.0224,0.1948v0.2782l0.1653,0.0313l-0.3672,0.7077l-0.4538,0.0716l-0.026,0.2817v0.3825l0.405,0.0712
		l0.0071,4.7689l-0.7305,0.1218l-0.0345,0.3355v0.5496l-1.315,0.6678l-1.0329,0.6137l-0.6974,0.4402l-0.6262,0.3946l-0.4071,0.4035
		l-0.5371,0.5706l-0.3722,0.4591l-0.3829,0.5877l-0.3982,0.8644l-0.2069,0.6262l-0.301-0.0591l-0.0068,0.0018l-0.0228,0.0623
		l-0.026,0.1183l-0.0399,0.1653l-0.0435,0.202l-0.047,0.2258l-0.047,0.2333l-0.0417,0.2244l-0.0367,0.1998l-0.026,0.1635
		l-0.0157,0.1147l-0.005,0.0573l0.2554,0.0524l-0.3145,1.6053l-0.6664,1.7581l-0.7077,0.0524l-0.2262,0.0972v0.7932l0.0488,0.3879
		l0.0385,0.3911l0.0207,0.3914l0.0089,0.3929l-0.0071,0.3932l-0.0225,0.3946l-0.0367,0.3897l-0.0488,0.3897l-0.0641,0.3879
		l-0.0801,0.3893l-0.0923,0.3811l-0.1061,0.3772l-0.1232,0.3879l-0.1393,0.3825l-0.1532,0.3775l-0.1649,0.3722l-0.1809,0.3633
		l-0.1948,0.3583l-0.2069,0.3515l-0.2191,0.3441l-0.2351,0.3323l-0.2468,0.327l-0.2539,0.3184l-0.2714,0.306h-0.6849l-0.0036,1.4521
		h-0.1845l-0.0175,6.3756h-1.1633l0.0085-2.4398l-0.2419-0.4103h-0.2034l0.0246-8.607h0.4484l0.0053-2.4334l0.1425-0.1478
		l-0.2365-0.7252l-0.146,0.1532h-0.8972l0.0207-4.308l-0.2696-0.8573h-0.7512l0.0053-1.1184l-0.2992-0.9075h-0.5652l0.0018-0.4107
		h0.4798l0.0036-0.5877l-0.2312-0.915h-0.5079l-1.1878-1.6049h0.1026l0.0036-0.8089l-0.1724-0.619h-0.3615l-0.5966-1.5654h0.5044
		l0.0071-1.4244l-0.1218-0.4555h-0.4662l-0.499-6.0732l-0.026-0.099h-0.5809l-0.6019,6.1722l-0.5774-0.0018l-0.0068,1.44
		l0.1528,0.4385h0.2906l-0.546,1.5633h-0.3896l-0.0071,0.821l0.1688,0.4296l-0.9791,1.7791l-0.5392-0.0018l-0.0018,0.6069
		l0.4071,0.8993h0.0923l-0.0036,0.4157h-0.946l-0.0139,2.0277h-0.6401l-0.0434,5.1653h-0.5321l-0.0157,2.24l0.5371,0.6625h0.0331
		l-0.052,8.2437h-0.5792l-0.021,3.4642h-9.0644l0.0175-1.8414l-0.1706-0.0837h-0.5079l-0.4242-4.3966h-1.1202l-0.6329,3.4036
		h-0.7444l-0.052,4.6524h-0.099l-0.0175,1.6345l0.099,0.0296l-0.0573,5.249l-0.4385,4.0522l-0.6415,0.0068l-0.0385,3.3897h-1.7948
		l-0.0399,0.0068l-0.0228,1.8525h-4.1548l-0.2294-0.1742l-0.0121-1.1059h-0.6454l0.0089-0.5791h-1.5376l-0.0488,0.0068
		l-0.1371-0.1058H271.058l-4.0939,0.2119l0.005-0.1129h-1.024l-0.562,0.0296l-0.0018,0.167l-0.8816,0.0452l0.0036-0.1496h-0.4295
		l-0.5254,0.026l-0.0086,0.2885l-0.9845,0.6714l0.026-0.8887h-0.4417l-0.4313,0.0228l-0.0381,1.4728l-0.8035,0.5478l-0.1321,0.0107
		l0.0435-1.9654h-0.4506l-0.4627,0.0246l-0.0452,2.0103l-0.1635,0.0103l0.0385-1.4642h-0.92l0.0139-0.4801h-0.4609l-0.541,0.0278
		l-0.0555,2.0594l-0.9635,0.073l0.0645-1.6801h-0.2087l0.0103-0.374h-0.473l-0.5652,0.0278l-0.0103,0.3515l-0.0748,0.0032
		l-0.0488,1.7688l-0.993,0.073l0.0677-2.12h-0.4851l-0.6853,0.0349l-0.0627,2.172l-1.1668,0.0887l0.0609-2.1791h-0.499
		l-0.7637,0.0367l-0.0036,0.1165h-1.2851l0.0018-0.0242h-0.515l-0.4278,0.0207v0.0036h-0.0923l-0.1685,0.0086l-0.7081,23.8525
		l-0.0242,0.8434h-7.8192l0.1478-30.0663l-0.3409-0.0695l-14.7828-0.052l0.094-23.357l-1.5515,0.0107l0.0434-11.388l0.0018-0.4399
		l0.0175-3.9308l-16.9601,0.2176v-0.068l-2.0331,0.0264l0.1094-0.4367v-0.4506l-0.4623,0.0071v-0.2244l-0.675,0.0085l0.0103-3.7267
		l-0.3825,0.0068v-0.2451l-2.8765,0.0417l-0.0175,0.1966l-0.5546,0.0085l-0.0367,0.5182l-0.0068,3.2505l-0.5168,0.0071
		l-0.0174,0.2433l-0.551,0.0071l-0.021,0.473l-0.0018,0.3929l-0.3373,0.0053l-0.0887,2.1912l-0.0349,15.369l-0.0345,0.3772
		l-0.042,19.2663l-0.0417,0.0018l-0.0609,25.9899l-0.005,2.8191l0.0762,3.019h-0.8851l-0.0103-7.0815v-0.7394l-0.1254,0.1168
		l-0.0278-0.4766v-0.4837l0.0506-0.4694l0.052-0.4402v-0.2867l-0.0189-0.1165l-0.0331-0.4559l-0.068-0.379l-0.193-0.193
		l-0.0502-0.374l-0.0417-0.2034l-0.0281,0.0278l-0.0573,0.1026l-0.0157,0.1635l-0.0018,0.4417l-0.0171,0.5706l-0.0071,0.3113
		l-0.0417,0.198l0.0053,2.6785l-3.5062-0.052l-0.6365,0.5407l0.0032,3.1376l-0.1321-0.0036l-0.0399-0.5182l-0.0036-0.2906
		l0.0331-0.3127l0.0869-0.6087l0.0228-0.5724l-0.0175-0.5357l-0.0506-0.4349l-0.0573,0.0349l-0.0036-0.2433l0.0036-0.254
		l-0.0627-0.0801l-0.1214,0.0538l-0.0801-0.379l-0.0819-0.0677l-0.0296,0.2885l-0.0103,0.5549l-0.0363,0.6956l-0.0282,0.5635
		l-0.0641,0.5218l0.0018,1.5757l-1.9394-0.0246v-0.4224l-3.5636-0.0506l-0.0085-4.5113l-0.0139-0.0784l-0.0121-0.0189v-0.468
		l-1.1148-0.2105l-0.0036-3.04l-1.1668-0.219l-0.4662-0.0071l-2.1705-20.8367l0.5984-0.3843l-0.0018-0.6051l-0.6347-0.0085
		l-0.0036-3.9133l-0.0502-0.0816l-0.0524-0.2244l-0.0399-0.7636l-0.0018-0.3216h-0.0712l0.0175-0.5738l-0.0175-0.567l-0.0435-0.4976
		l-0.0766-0.3718l-0.094-0.2212l-0.1079-0.0363l-5.0399-0.0538l-0.1097,0.1442l-0.0972,0.3149l-0.0766,0.452l-0.0502,0.5496
		l-0.0175,0.5845l0.0175,0.572l-0.0591,0.0331l-0.0331,0.2643l0.0224,0.5375l0.0228,0.5407l-0.0556,0.1325l-0.0281,0.0869
		l-0.0068,0.2764l0.0712,0.4833l0.0103,0.7601l0.0018,0.2817v0.1375l-0.0296,0.0801l-0.1111,0.0538l0.0018,1.6783l-0.6401,0.3929
		l0.0032,0.6087l0.6315,0.0089l-2.2122,20.5724l-0.3355,0.2347l-0.0018-1.1358l-0.1532-0.327l-0.0556-0.1044l-0.0157-0.0573v-0.1738
		l-0.1008-1.0105l-0.042-0.5147l-0.1304-0.1218l-0.0224-0.2105l-0.0403-0.1738l-0.0139-0.0766l0.0157-0.2016l0.0018-0.2401
		l-0.0627-0.3462l-0.0887,0.0958l-0.005,0.4296l-0.0385,0.4922l-0.0328,0.1026v0.2365l-0.1079,0.4018l-0.073,0.3669l-0.0385,0.2226
		l-0.0278,0.1165l0.0036,2.941l-0.3825,0.2661l0.005,2.3739l-0.2155,0.0417l-0.2436,0.0556l-0.198,0.0609l-0.1599,0.0645
		l-0.1115,0.0662l-0.0695,0.0623l-0.0246,0.0627l0.0018,0.5079l-0.1093,0.0748l0.0085,3.7965l-2.3949,1.7374l-0.0121-5.6678
		l-3.4937-0.0524l-0.1898,0.1393l-0.1546-1.4521l0.0224-1.014l-0.0224-1.0696l-0.0103-0.374l-0.0403-0.4798l-0.0121-0.1183
		l-0.0452-0.167l-0.0417,0.2016l0.0157,0.6351v0.2486l-0.0278,0.2589l-0.0559,0.3238l-0.078,0.426l-0.047,0.353l-0.0627,0.2557
		l0.0036,2.3686l0.0121,6.5932l-0.8399-0.0157l-0.0036-2.9947l-1.0329-0.0121l-0.0054-1.3567l-0.0869-0.3651l-0.0556-0.6019
		l-0.0698-1.0956l0.0036-0.5599l0.0851-0.4922l0.0591-0.2418l0.0573-0.9791v-0.3583l-0.052,0.0905l-0.0331-0.0157l-0.0053,0.1321
		l0.0053,0.2629l-0.0833,0.6974l-0.1218,0.0955v-0.3929l-0.0036-0.2906l-0.0417-0.1407l-0.0524,0.1877l0.0107,0.6472l-0.0488,0.3861
		l-0.1407,0.9214l-0.0264,0.2472l0.0174,0.125l0.0296-0.0833l0.0801-0.3323l0.0278-0.1147l0.0278,0.0869l0.0071,0.5307
		l-0.0716,0.9667l-0.0538,0.593l0.0103,0.7045l-0.0434,0.2244l-0.0417,0.2522l-0.0349-0.2956l-0.0121-0.8018l-0.1599-0.6661
		l0.0224-0.5393l-0.0435-0.1827l-0.0313,0.0506l-0.0467,0.219l0.0018,0.2611l0.0242,0.0851l-0.0609,0.0278l-0.0609,0.3601
		l-0.073,0.146v0.306l0.0036,1.2837l-1.9757-0.0313l-0.0036-2.1616l-0.0766-0.4541l0.073-0.494l-0.0937-0.5496l-0.073-0.6693
		l-0.12,0.0417l-0.1061,0.3181l-0.0121,0.4609l-0.1446,0.2767l-0.1044,0.0278l-0.0641,0.4174l-0.0121,0.2347l-0.0837-0.3184
		l0.0036,1.715l0.1514,0.3808l0.0556,0.4609l-0.0224,0.7633l-0.1792,0.1325l0.005,3.4015h-0.1809l0.0071-3.4521l0.1165-0.1532
		l0.0417-24.3967l0.0018-2.0174l-1.2644-0.0085l0.0645-39.983l-0.8224-0.9218l0.026-16.273l-0.0246-0.0349l0.0036-1.2886
		l-0.4331-0.748l-0.7843-0.1097l0.0018-0.7825l0.8644-0.0296v-0.1685l-0.8174-1.4471l0.4627-0.0157l0.0018-0.172l-0.3515-0.6333
		l-1.3841-0.2052l0.0068-3.4382l-0.1097-0.202v-1.0486l-0.3736-0.7027l-1.7634-0.2832l-0.0313-0.0559l-0.2418,0.0107l-0.4192-0.0698
		l0.0018-1.2174l-0.0224-0.005V16.294l0.6522,0.1097l0.0032-1.8315l-0.2173-0.0367l-0.0018,1.569l-1.0521-0.176l0.0036-1.5736
		l-0.1724-0.0296l-0.0032,1.8347l0.5599,0.0922l-0.0018,0.8242l-1.9843-0.3288l-0.5809,0.1549l0.0157-13.3809l-0.0417-0.0801
		l-0.3099,0.0157l-0.0139,13.5394l-0.0623,0.0189l-0.0018,1.0226l-1.5408,0.0264l0.0068-6.2021l-0.0488-0.078l-0.3441,0.0121
		l-0.0054,6.2748h-0.0399v0.068l-1.8019,0.0363l0.0018-0.6589l-0.026-0.0873l0.005-5.5948l-0.0434-0.0712l-0.3113,0.0139
		l-0.005,5.4278l-2.7707,0.0577v0.9809l-1.7079,0.0328l-0.0018,5.4784l-2.2956,0.0452v0.1756l0.9446,1.0611v0.0363l-0.369,0.0139
		v0.1706l0.369,0.4121v1.2192l-1.7759,0.0331l-0.005,18.5305l-1.035,0.0121L134.1265,75.59l-7.8715,0.0071l0.0018,11.6712
		l-2.8505-0.0014l-0.6436,0.4139l0.0142,29.2852H111.173v-1.4728v-4.6716V95.298h0.1653l0.4018-0.7077v-1.2331h-0.567V73.4615
		h0.0662l0.4-0.7045v-0.9998h-0.4662V51.8925l0.2472-0.3982l0.2678-0.0662l0.2746-0.0068l0.4609-0.1236l0.2436,0.0053l0.7686-0.0157
		v-0.2158l0.5635-0.0085l0.1913-0.306v-0.5339l-0.7843-0.4766l-0.0488,0.0121l-0.2365-0.1984l-0.3252-0.0032l-0.0869-0.0577
		l-0.3166-0.1215l0.0192-0.042h-1.2384V29.7604l0.4331-0.0698l0.275-0.0103l0.4609-0.1218l0.2433,0.0036l0.7704-0.0139v-0.2105
		l0.5774-0.0103l0.1742-0.322V28.487l-0.7843-0.4766l-0.0524,0.0125l-0.2347-0.1948l-0.3252-0.0053l-0.1966-0.1147l-0.6297-0.0869
		l0.0143-0.7444l0.104-0.0018v-0.1827l0.1061-0.0018v-0.4224l-0.0224-0.6678v-0.0278h-0.068l-0.031-0.614v-0.12l-0.0367-0.0018
		v-0.3946l-0.0609-0.0018V24.115l-0.0242-0.0018v-0.3131h-0.068v-0.3722l-0.2294-0.0036l0.052-0.0972l-0.0224-0.1774h0.0296v-0.421
		l-0.0246-0.6678v-0.078l-0.245-0.0071l0.1044-0.0192v-0.6643l-0.0381-0.4224v-0.0385l-0.254-0.0036l-0.4734-3.5493l-0.0641,0.4851
		l-0.0399-0.301l-0.0627,0.4851l-0.0402-0.2885l-0.4206,3.1686l-0.094,0.0018v0.1845l-0.1044,0.0036v0.1792h-0.1044l-0.0103,0.8904
		l-0.1061,0.0032v0.2002h-0.0905v1.0885l0.0399,0.0018l-0.026,0.2069l-0.0399,0.0246l-0.0139,0.1824l-0.0905,0.0018l-0.0157,0.7394
		l-0.0922,0.0032v0.6539l-0.073,0.0036l-0.0139,0.5738h-3.0938l-2.1428-6.7894l0.099-0.1724v-2.0242l-0.7982-0.0157l-1.2434-3.9393
		l0.3163-0.2572l0.068-0.0645l0.2262-0.5268l0.1321-0.562l-0.1133-0.499l-0.2226-0.5688l-0.5129-0.4157l-0.1966-0.0748V2.9235h3.826
		V1.9704l-3.826-0.0018l-0.005-1.9059l-0.3654-0.0559L101.194,0l-0.567,0.0538v1.9148H96.865v0.9549h3.7619v6.9618l-0.1393,0.0502
		l-0.4224,0.3444l-0.0712,0.068l-0.2226,0.5232l-0.1339,0.5617l0.1147,0.4994l0.219,0.5702l0.3982,0.3202l-1.2363,3.9443
		l-0.6069,0.0121l-0.2055,0.3565v2.0263h0.0591l-2.0555,6.5512h-3.0036l-0.0068-0.1443l-0.0645-0.0018l-0.0349-0.614v-0.12
		l-0.0363-0.0014v-0.3932h-0.0609v-0.3288h-0.0278v-0.3113l-0.0627-0.0018v-0.3722l-0.2329-0.005l0.0399-0.0801l-0.0085-0.193
		h0.0278v-0.4224l-0.021-0.6628v-0.0833l-0.245-0.0071l0.1026-0.0157v-0.666l-0.0385-0.4242v-0.0367l-0.2536-0.005l-0.4734-3.5479
		L91.86,17.7618l-0.0367-0.28l-0.0659,0.4833l-0.0435-0.3373l-0.4174,3.1999h-0.094v0.1809l-0.1044,0.0036v0.1809l-0.1026,0.0018
		l-0.0139,0.8887l-0.1044,0.0018v0.1998l-0.0905,0.0018v1.0888h0.0381l-0.0242,0.2069l-0.0417,0.0242l-0.0139,0.1827l-0.0887,0.0018
		l-0.0139,0.7408l-0.0819,0.0018l-0.0103,0.6539l-0.0869,0.0032v0.7654l-0.0851,0.005l-0.0174,1.0906l0.172,0.0018v0.567
		l-0.2208,0.026l-0.3426,0.1564l-0.3391,0.0192l-0.2835,0.2418L89.1,28.0073l-0.5756,0.3494l-0.1061,0.0712l-0.1061,0.202v0.7024
		h0.4954v0.2105l0.7793,0.0139l0.2504-0.005l0.1706,0.0641l0.5806,0.0698l0.2522,0.0591l0.4296,0.0157v19.5705l-0.7651,0.0278
		l-0.1966,0.021l-0.3409,0.1564l-0.3391,0.021l-0.2871,0.2415l-0.2451-0.0573l-0.5774,0.3512l-0.094,0.0645l-0.1182,0.1931v0.7184
		h0.4958v0.2137l0.779,0.0157l0.249-0.005l0.1738,0.0641l0.5791,0.0698l0.2921,0.0659l0.1827,0.395h0.2119v19.8697l-0.1442,0.0018
		l-0.3982,0.6974v0.9998l0.5425,0.0018v6.6227h-1.1651l-0.0296,2.8783l-78.0563-0.0157l-1.2-0.3077l-1.2035,0.3077H8.8175
		L1.5809,88.152l-0.2434,0.426v1.2523l-0.5809,0.7409l-0.5652,0.6643l-0.0052,10.1062L0,101.3434v1.0123l0.1913,0.0103v8.4556H0
		v6.1444v8.2003v20.9895h998.494V116.966H980.9651z M101.4511,23.6245h0.0018l0,0H101.4511L101.4511,23.6245z M573.5702,113.6443
		l-0.0175,3.3217h-3.2487l0.0662-12.8434l3.2451-0.0018L573.5702,113.6443z M594.346,113.6237l-0.0103,3.3424h-10.0766
		l0.0192-0.0103l0.0591-15.7409l0.3511-1.4817l0.6956-1.3567l1.0034-1.1497l1.2523-0.8712l1.4226-0.5425l0.2888-0.0349l1.4155,0.541
		l1.3759,0.9635l1.1006,1.2694l0.7601,1.4974l0.3776,1.6384L594.346,113.6237z M611.3635,116.966l0.0488-0.125l0.0054-4.9202
		h-0.0314l0.0139-12.6436l0.4833-1.487l0.8106-1.3371l1.0903-1.1202l1.3132-0.8416l1.4714-0.5254l1.5494-0.1756l1.5497,0.1774
		l1.4713,0.5236l1.3111,0.8452l1.0889,1.1166l0.8053,1.3371l0.4833,1.487l0.0035,12.6332h-0.021l0.0018,4.9184l0.0385,0.1371
		H611.3635z M642.0698,116.966l-0.0314-15.7669l0.4385-1.6192l0.8035-1.4678l1.1287-1.2384l1.3859-0.9357l1.3777-0.5129
		l0.5043,0.0591l1.419,0.5268l1.2555,0.847l1.0226,1.1166l0.7341,1.3289l0.4035,1.4607l0.0485,16.1063l0.1603,0.0955H642.0698z
		 M663.6389,116.966l-0.052-12.8868l3.685-0.0018l0.0573,12.7739l0.2732,0.1147H663.6389z M847.9483,51.8996l-0.1271-0.0018
		l0.0887,0.0018H847.9483L847.9483,51.8996z"/>
	<polygon   points="346.8397,43.9811 346.9333,44.0819 347.0516,44.1567 347.1855,44.2019 347.3248,44.2073 
		347.4623,44.1795 347.5873,44.1186 347.6899,44.0263 347.7664,43.9099 347.8099,43.7777 347.8345,43.6003 347.8395,43.4611 
		347.8117,43.3254 347.7472,43.2039 347.6553,43.0996 347.5353,43.0248 347.4049,42.9813 347.2639,42.9742 347.1246,43.0037 
		347.0014,43.0647 346.897,43.1569 346.8187,43.2734 346.777,43.4055 346.756,43.5847 346.7474,43.7239 346.7788,43.8579 	"/>
	<polygon   points="324.4917,49.0944 324.4967,49.2315 324.502,49.3448 324.507,49.4245 324.5159,49.4698 
		324.5227,49.4769 325.5577,49.4787 325.5663,49.4438 325.5699,49.3725 325.5752,49.27 325.5784,49.1414 325.5802,48.9968 
		325.5802,48.8454 325.5784,48.6944 325.5752,48.5587 325.5681,48.449 325.5645,48.3656 325.5577,48.3204 325.5524,48.3133 
		324.5141,48.3115 324.507,48.3464 324.5002,48.4159 324.4949,48.5188 324.4917,48.6492 324.4899,48.7916 324.4899,48.9466 	"/>
	<polygon   points="373.7563,49.0142 373.8486,49.1343 373.9704,49.2247 374.1111,49.2839 374.2607,49.3031 
		374.412,49.2839 374.551,49.2247 374.671,49.136 374.7632,49.016 374.8886,48.8351 374.946,48.6962 374.9648,48.5484 
		374.9442,48.3988 374.8833,48.2595 374.7892,48.1412 374.666,48.0472 374.5285,47.9899 374.3754,47.9706 374.2258,47.9881 
		374.0851,48.0454 373.9633,48.1395 373.8728,48.2559 373.7492,48.4404 373.6936,48.5779 373.6762,48.7272 373.6954,48.875 	"/>
</g>
</svg>
