<?xml version="1.0" encoding="utf-8"?>
<!-- Generator: Adobe Illustrator 18.1.1, SVG Export Plug-In . SVG Version: 6.00 Build 0)  -->
<svg version="1.1" id="moscow" xmlns="http://www.w3.org/2000/svg" xmlns:xlink="http://www.w3.org/1999/xlink" x="0px" y="0px"
	 viewBox="0 0 999.8306 161.5959" enable-background="new 0 0 999.8306 161.5959" xml:space="preserve">
<g>
	<polygon   points="522.7817,57.387 522.7817,57.387 522.7784,57.387 	"/>
	<path   d="M999.8232,145.5652l-0.0568-19.6961h-0.0106l-0.0037-0.4128v-0.2631l-0.0037-0.2529l-0.0036-0.2383
		l-0.007-0.2277l-0.0037-0.2062l-0.0069-0.1924l-0.0037-0.1705l-0.0036-0.1461l-0.0073-0.1246l-0.0069-0.0995l-0.0073-0.0711
		l-0.0069-0.0463l-0.0037-0.0251l-0.0036-0.0426l-0.0033-0.0568l-0.0037-0.0711l-0.0037-0.0856l-0.0036-0.0995l-0.0033-0.1104
		l-0.0037-0.121v-0.1352l-0.0036-0.1388v-0.1425l-0.0037-0.1527h-0.1531l-0.0032-0.0321l-0.0109-0.153l-0.0142-0.1031l-0.007-0.043
		l-0.0073-0.0711l-0.0037-0.0995l-0.0069-0.1177l-0.0073-0.1421l-0.0032-0.1603l-0.0037-0.1815l-0.0037-0.1957l-0.0073-0.2135
		l-0.0033-0.2241v-0.235l-0.0037-0.2452v-0.2172l-7.7147,0.0069l-0.0463-8.1914h0.0784l0.2346-0.0568v-0.4234l-0.9889-0.0142
		l0.2098-0.2456l0.1884-0.2813l0.153-0.3236l0.1141-0.3418l0.0674-0.3487l0.0216-0.3593l-0.0249-0.356l-0.0714-0.3524
		l-0.1173-0.3378l-0.16-0.3239l-0.2029-0.2988l-0.235-0.2707l-0.2383-0.1957l-0.2314-0.2026l-0.2241-0.2135l-0.2205-0.2172
		l-0.2135-0.2205l-0.2103-0.2277l-0.199-0.2387l-0.1957-0.242l-0.185-0.2456l-0.1783-0.2525l-0.1742-0.2562l-0.1636-0.2598
		l-0.0073-0.7153l0.0463-0.0179l0.1104-0.0783l0.0817-0.1031l0.0535-0.121l0.0248-0.1315l-0.0142-0.1352l-0.0463-0.1246
		l-0.0783-0.1104l-0.1031-0.0853l-0.1246-0.0568h-0.0106v-0.0572v-0.2452l0.0536-0.0109l0.0532-0.0179l0.0463-0.0284l0.0499-0.0321
		l0.0426-0.039l0.039-0.0463l0.032-0.0532l0.0284-0.0572l0.0215-0.0605l0.0142-0.0605l0.0073-0.0641l0.0033-0.0674l-0.0175-0.0036
		l-0.0215,0.0463l-0.0178,0.0426l-0.0248,0.0426l-0.0284,0.0394l-0.0321,0.0321l-0.0321,0.0321l-0.0393,0.0284l-0.039,0.0211
		l-0.039,0.0179l-0.043,0.0142l-0.039,0.0073l-0.0248,0.0036l-0.0037-0.6264h0.1104v-0.0926l-0.0178-0.0073h-0.0536v-0.0853
		l0.1461-0.16v-0.1246l-0.0784-0.1425v-0.0995l0.0249,0.0463l0.0178,0.0069h0.1494l0.121-0.1815l-0.1137-0.1709l-0.0178-0.0069
		h-0.0857l-0.0746,0.0711h-0.0285l-0.0033-0.0926l-0.0178-0.0106h-0.082l-0.0036-0.4628h0.1425l0.2277,0.2314l0.0179,0.0109
		l-0.1389-0.3418v-0.1388h0.3416v0.1315l0.0214,0.0073h0.0853v0.192l0.1319,0.1709l0.0178,0.0073l0.1527-0.1673v-0.1993h0.05
		l0.0604-0.1283h0.1567l0.1279-0.1421l-0.1315-0.1709l-0.0178-0.0106h-0.1422l-0.0714-0.1104v-0.0605l-0.1993-0.2383l-0.0175-0.0073
		l-0.1425,0.1673v0.1283h-0.0783v0.1458h-0.3557l-0.0037-0.1352l0.1742-0.2492l-0.0175-0.0106l-0.2172,0.1851h-0.2029
		l-0.0037-0.3596h0.0536h0.1138l0.2706-0.2915l-0.274-0.235l-0.0179-0.0106h-0.0962v-0.1173l-0.1567-0.164l-0.0211-0.0106
		l-0.153,0.1636v0.1283h-0.1141l-0.2704,0.2347l0.274,0.2919l0.0215,0.0106h0.1136h0.0321l0.0037,0.3596h-0.2135l-0.2063-0.1745
		l-0.0215-0.0106l0.1745,0.2492l0.0033,0.1458h-0.3557l-0.0036-0.1352l-0.0179-0.0106h-0.0605v-0.1177l-0.1458-0.1705
		l-0.0178-0.0109l-0.1957,0.2387v0.0605l-0.0784,0.121h-0.153l-0.1315,0.1742l0.1351,0.1425l0.0179,0.0069h0.1385l0.0604,0.1173
		l0.0215,0.0073h0.0284v0.192l0.1603,0.1673l0.0175,0.0109l0.1282-0.1673v-0.203h0.1031v-0.1388h0.3381l0.0037,0.1315
		l-0.1319,0.3382l0.0178,0.0109l0.235-0.2423h0.1315l0.0037,0.4628h-0.1031v0.1031h-0.0394l-0.064-0.0641l-0.0176-0.0106h-0.0889
		l-0.1068,0.1745l0.1174,0.1815l0.0178,0.0069h0.153l0.0248-0.0426v0.082l-0.0746,0.1421v0.1246l0.1494,0.1603v0.0922h-0.071v0.0926
		l0.0211,0.0073h0.0926l0.0037,0.6264l-0.0427-0.0036l-0.0426-0.0073l-0.0251-0.0106l-0.0354-0.0179l-0.043-0.0211l-0.0353-0.0288
		l-0.0357-0.0284l-0.0284-0.0353l-0.032-0.0394l-0.0248-0.039l-0.0178-0.0463l-0.0216-0.0463l-0.0178-0.0036v0.0641l0.0109,0.0641
		l0.0142,0.0605l0.0248,0.0605l0.0251,0.0568l0.0353,0.0532l0.0394,0.0463l0.0427,0.0394l0.0462,0.0321l0.0532,0.0284l0.0536,0.0179
		l0.0178,0.0069l0.0353,0.0073v0.3024l-0.0106,0.0036h-0.0037l-0.121,0.0568l-0.1031,0.0853l-0.0783,0.1104l-0.0425,0.1246
		l-0.0107,0.1315l0.0211,0.1352l0.0569,0.121l0.0857,0.1031l0.1104,0.0783l0.0459,0.0179l0.0037,0.7153l-0.1599,0.2598
		l-0.171,0.2562l-0.1742,0.2525l-0.1851,0.2456l-0.1388,0.1778l-0.0925-0.1064l-0.2242-0.2813l-0.2172-0.2846l-0.2099-0.2919
		l-0.203-0.2988l-0.1884-0.3024l-0.0073-0.833l0.0499-0.0175l0.0037-0.0036l0.1279-0.0889l0.0962-0.121l0.0641-0.1388l0.0248-0.1567
		l-0.0178-0.153l-0.0532-0.1458l-0.0926-0.1283l-0.121-0.0995l-0.1389-0.0641h-0.0106l-0.0037-0.0678v-0.2846l0.0642-0.0106
		l0.0604-0.0248l0.0568-0.0288l0.0532-0.039l0.0536-0.0463l0.0426-0.0532l0.039-0.0605l0.032-0.0678l0.0251-0.0678l0.0175-0.0747
		l0.0073-0.0747v-0.0747l-0.0215-0.0106l-0.0211,0.0532l-0.0251,0.0536l-0.0284,0.0499l-0.0321,0.0426l-0.0353,0.039l-0.0427,0.0394
		l-0.0392,0.0321l-0.0464,0.0248l-0.0463,0.0215l-0.0495,0.0142l-0.0463,0.0106h-0.0288l-0.0033-0.7226l0.1316,0.0036v-0.1104
		l-0.0248-0.0106h-0.0605v-0.0995l0.1706-0.1851v-0.1425l-0.0927-0.1673v-0.11l0.0251,0.0463l0.0248,0.0106h0.1746l0.1352-0.2099
		l-0.1246-0.203l-0.0248-0.0069h-0.1035l-0.0817,0.0816h-0.032l-0.0037-0.1031l-0.0248-0.0106h-0.0925l-0.0073-0.5411h0.164
		l0.2631,0.2704l0.0251,0.0109l-0.1603-0.395v-0.1603h0.3951v0.1494l0.0251,0.0109h0.0958l0.0037,0.2205l0.1494,0.1957
		l0.0249,0.0109l0.1818-0.1957l-0.0037-0.2314h0.0568l0.0748-0.1425h0.1777l0.1531-0.1673l-0.1563-0.203l-0.0251-0.0106h-0.16
		l-0.0856-0.1279v-0.0678l-0.231-0.2777l-0.0251-0.0142l-0.1636,0.1957v0.153h-0.0888v0.1673h-0.4129v-0.1563l0.1993-0.2882
		l-0.0248-0.0109l-0.2529,0.2099h-0.231l-0.0037-0.4125h0.0641h0.1315l0.3094-0.3418l-0.3167-0.2704l-0.0248-0.0142h-0.1068v-0.1388
		l-0.1815-0.1851l-0.0248-0.0142l-0.1814,0.1851v0.1494h-0.132l-0.313,0.274l0.3203,0.3418l0.0248,0.0106l0.1315,0.0036h0.0357
		l0.0037,0.4125h-0.2456l-0.2419-0.199l-0.0248-0.0142l0.2062,0.2882v0.1705h-0.4092l-0.0036-0.1563l-0.0248-0.0142h-0.0641
		l-0.0037-0.1355l-0.1672-0.1957l-0.0284-0.0142l-0.2241,0.2777v0.0678l-0.0889,0.1421h-0.1778l-0.1531,0.1993l0.1531,0.1673
		l0.0284,0.0106h0.1563l0.0715,0.1352l0.0248,0.0109h0.032v0.2205l0.1851,0.1957l0.0248,0.0109l0.1494-0.1957v-0.2314h0.1174
		v-0.1636h0.3917v0.1527l-0.1494,0.395l0.0248,0.0109l0.2704-0.2813h0.153l0.0037,0.5375h-0.121l0.0036,0.1173h-0.043
		l-0.0784-0.0747l-0.0211-0.0106h-0.103l-0.1247,0.2026l0.1352,0.2102l0.0284,0.0106h0.1746l0.0248-0.0463v0.0889l-0.0888,0.1673
		l0.0036,0.1425l0.1741,0.1884v0.1068h-0.0817v0.1104l0.0212,0.0069h0.1104l0.0069,0.7262l-0.0532-0.0036l-0.0499-0.0106
		l-0.0248-0.0073l-0.0463-0.0215l-0.0426-0.0248l-0.043-0.0321l-0.0389-0.0353l-0.039-0.0394l-0.0321-0.0463l-0.0284-0.0499
		l-0.0284-0.0496l-0.0215-0.0536l-0.0248-0.0106l0.0033,0.0783l0.0109,0.0747l0.0175,0.0711l0.0288,0.0714l0.0317,0.0638
		l0.0394,0.0605l0.0463,0.0536l0.0499,0.0499l0.0532,0.039l0.0605,0.0284l0.0605,0.0215l0.0248,0.0106l0.0394,0.0069l0.0036,0.3524
		l-0.0178,0.0036l-0.1389,0.0641h-0.0037l-0.1173,0.0995l-0.0889,0.1283l-0.0535,0.1458l-0.0142,0.153l0.0284,0.1567l0.0641,0.1388
		l0.0999,0.121l0.1279,0.0889l0.0535,0.0211l0.007,0.833l-0.1884,0.3024l-0.196,0.2952l-0.2062,0.2955l-0.2135,0.2846
		l-0.2172,0.2813l-0.231,0.2737l-0.2387,0.2635l-0.2419,0.2598l-0.2525,0.2525l-0.2598,0.2456l-0.2667,0.235l-0.2708,0.231
		l-0.2704,0.3134l-0.2277,0.3451l-0.1815,0.3739l-0.1279,0.395l-0.0783,0.4092l-0.0215,0.4125l0.0284,0.4165l0.0856,0.4092
		l0.1352,0.395l0.1884,0.3702l0.2208,0.3272l0.2455,0.2846l-0.8009,0.0109l-0.473,0.0747l0.007,0.4981l0.3702,0.0106l0.0532,5.594
		l-0.7648-0.0357l-0.0037-0.1778l-0.0037-0.4664l-0.0037-0.466l-0.0069-0.466l-0.0037-0.4697l-0.0036-0.466l-0.0069-0.4701
		l-0.0926-10.1663l0.5266-0.0215l0.0998-0.0459l-0.0215-2.4162l-0.63-0.0678v-0.1709l-0.0211-2.1207l-0.395-0.0605l0.0142-0.0926
		l0.0747-0.6938l0.0106-0.8541l-0.0747-0.8505l-0.16-0.8399l-0.2455-0.8217l-0.324-0.7936l-0.4019-0.7579l-0.477-0.7153
		l-0.5444-0.6654l-0.6085-0.6049l-0.6654-0.5411l-0.7652-0.5834l-0.7437-0.6085l-0.7295-0.63l-0.7043-0.6581l-0.6832-0.6799
		l-0.6621-0.7011l-0.6402-0.7259l-0.6158-0.7474l-0.5907-0.7648l-1.8325-2.4126l-0.0179-1.3843l0.192-0.0889l0.1567-0.1352
		l0.1174-0.1745l0.0642-0.1993l0.0141-0.2135l-0.0036-0.0211l-0.0427-0.2099l-0.0962-0.1924l-0.1385-0.1636l-0.1782-0.1173
		l-0.0248-0.0109L969.2419,80.2v-0.0958l-0.0032-0.2992l0.0637-0.0142l0.0641-0.0248l0.0605-0.0321l0.0568-0.039l0.0536-0.0499
		l0.0463-0.0568l0.039-0.0641l0.032-0.0678l0.0251-0.0747l0.0175-0.0783l0.0109-0.0783v-0.078l-0.0463-0.0394l-0.0215,0.0568
		l-0.0248,0.0536l-0.0284,0.0499l-0.0357,0.0496l-0.039,0.043l-0.0394,0.0353l-0.0463,0.0357l-0.0463,0.0248l-0.0496,0.0251
		l-0.0499,0.0142l-0.0499,0.0106h-0.0069l-0.0073-0.7331h0.1352v-0.1137l-0.0499-0.0394h-0.0389l-0.0037-0.0747l0.1814-0.1993
		l-0.0033-0.1494l-0.0962-0.1778v-0.1031l0.0069,0.0106l0.0463,0.039h0.1851l0.1389-0.2205l-0.1353-0.2135l-0.0463-0.0426h-0.1068
		l-0.0889,0.0889h-0.0106l-0.0037-0.082l-0.0463-0.039h-0.0784l-0.0073-0.5407h0.1782l0.2489,0.2562l0.0499,0.039l-0.1709-0.4161
		l-0.0033-0.1709h0.3914l0.0037,0.1315l0.0459,0.0394h0.082v0.2062l0.1603,0.2062l0.0458,0.043l0.1924-0.2066l-0.0073-0.2456h0.0642
		l0.0746-0.153h0.1851l0.1599-0.1778l-0.1636-0.2099l-0.0463-0.0426h-0.1673l-0.071-0.1068v-0.0747l-0.2456-0.2919l-0.0463-0.0426
		l-0.1709,0.2062v0.1603h-0.0958l0.0037,0.1815l-0.4128-0.0036v-0.1388l0.2062-0.2988l-0.0463-0.0426l-0.2598,0.2205h-0.2241
		l-0.0069-0.4092h0.0674h0.1389l0.3239-0.3593l-0.0463-0.043l-0.3345-0.2882h-0.0926l-0.0037-0.1137l-0.192-0.1993l-0.0462-0.0426
		l-0.1888,0.1957v0.16h-0.1389l-0.3236,0.285l0.3345,0.3629l0.0496,0.0426h0.1389h0.0178l0.0037,0.4092h-0.2704l-0.2708-0.2241
		l0.2172,0.3024l0.0037,0.1815h-0.4092v-0.1388l-0.0499-0.0426h-0.0499v-0.1141l-0.1779-0.2062l-0.0499-0.0426l-0.2383,0.2882
		l0.0037,0.0747l-0.0926,0.1494h-0.1887l-0.16,0.2099l0.1637,0.1778l0.0535,0.043h0.1563l0.0573,0.11l0.0532,0.043h0.0073
		l0.0032,0.2026l0.1957,0.2099l0.0499,0.0394l0.1567-0.2099l-0.0073-0.242h0.1283l-0.0037-0.1745l0.3914,0.0036l0.0036,0.1279
		l-0.1599,0.4165l0.0495,0.0426l0.2813-0.2952h0.1389l0.0069,0.5407h-0.1279l0.0033,0.121h-0.0532l-0.0463-0.0463l-0.0499-0.0426
		h-0.1068l-0.1316,0.2135l0.1458,0.2241l0.0499,0.039h0.1851l0.0037-0.0106v0.0248l-0.0893,0.1782v0.1494l0.1851,0.1993
		l0.0037,0.1137h-0.0889v0.1141l0.0499,0.039h0.0889l0.0106,0.7368l-0.0532-0.0036l-0.0535-0.0106l-0.0499-0.0179l-0.0496-0.0215
		l-0.0463-0.0284l-0.0109-0.0036l-0.0284-0.0284l-0.039-0.0426l-0.0357-0.0463l-0.0321-0.0499l-0.0247-0.0568l-0.0215-0.0568
		l-0.0496-0.0394l0.0033,0.082l0.0109,0.0783l0.0211,0.0783l0.0251,0.0711l0.0353,0.0711l0.043,0.0641l0.0459,0.0568l0.0536,0.0499
		l0.0499,0.0357l0.0568,0.0426l0.0641,0.0321l0.0638,0.0248l0.0178,0.0036l0.0073,0.3986l-0.1636,0.0496l-0.0215,0.0109
		l-0.1742,0.1137l-0.1389,0.1567l-0.0889,0.192l-0.0394,0.2099l0.0215,0.2103l0.0033,0.0248l0.0715,0.203l0.1209,0.1778l0.16,0.1388
		l0.1924,0.0926l0.0175,1.3876l-1.7826,2.3663l-0.5765,0.751l-0.6016,0.7331l-0.6297,0.7153l-0.6548,0.6901l-0.6759,0.669
		l-0.7011,0.6442l-0.7225,0.6227l-0.747,0.5976l-0.7689,0.5695l-0.6653,0.5371l-0.6085,0.6016l-0.5444,0.6581l-0.4697,0.7189
		l-0.3914,0.7616l-0.3134,0.7969l-0.231,0.8293l-0.1425,0.8468l-0.0535,0.8647l0.032,0.8647l0.1031,0.7189l0.0109,0.0711
		l-0.4023,0.0641l0.0357,2.1743l0.0037,0.1385h-0.0073l-0.1421,0.0179l-0.5018,0.0605l0.0463,2.4519l0.231,0.0463l0.4202,0.0179
		l0.0353,2.0424l-0.1421-0.1246l-0.2278-0.2205l-0.2208-0.2208l-0.2136-0.231l-0.2062-0.2387l-0.2029-0.2383l-0.1921-0.2492
		l-0.1887-0.2525l-0.1778-0.2562l-0.1742-0.2635l-0.0109-0.7186l0.0463-0.0142l0.1104-0.0783l0.0853-0.1035l0.0535-0.121
		l0.0212-0.1315l-0.0175-0.1352l-0.0463-0.1246l-0.082-0.1137l-0.1068-0.0856l-0.1173-0.0532v-0.0605l-0.0037-0.2456l0.0532-0.0106
		l0.0536-0.0215l0.0499-0.0248l0.0463-0.0357l0.0426-0.039l0.039-0.0463l0.032-0.0499l0.0248-0.0568l0.0215-0.0605l0.0142-0.0641
		l0.0073-0.0641v-0.0641l-0.0535-0.0069l-0.0179,0.0463l-0.0175,0.0426l-0.0251,0.0426l-0.0284,0.0394l-0.0321,0.0353l-0.032,0.0284
		l-0.0354,0.0288l-0.0394,0.0211l-0.0427,0.0179l-0.0389,0.0142l-0.0321,0.0073l-0.0109-0.6195h0.1104v-0.0958l-0.0531-0.0036
		h-0.0179l-0.0037-0.0889l0.1458-0.1636v-0.1213l-0.0816-0.1458v-0.0499l0.0426,0.0073h0.1531l0.1137-0.1815l-0.11-0.1745
		l-0.0573-0.0069h-0.0853l-0.0674,0.0674v-0.0889l-0.0536-0.0069h-0.0532l-0.0073-0.4664h0.1068l0.2314,0.235l0.0532,0.0069
		l-0.1389-0.3378l-0.0032-0.1425h0.3057l0.0036,0.1315l0.0536,0.0109h0.0532v0.1884l0.1351,0.1709l0.0536,0.0073l0.153-0.1673
		l-0.0036-0.1993h0.0499l0.0605-0.1283h0.1563l0.1282-0.1421l-0.1352-0.1745l-0.0535-0.0073h-0.1068l-0.0747-0.11v-0.0605
		l-0.2026-0.2387l-0.0535-0.0106l-0.1422,0.1709l0.0033,0.1279h-0.0816l0.0033,0.1461h-0.3235v-0.1352l0.1708-0.2492l-0.0572-0.0069
		l-0.2136,0.1815h-0.1672l-0.0069-0.3629h0.0532h0.1141l0.2667-0.2919l-0.274-0.235l-0.0569-0.0106h-0.0605v-0.1173l-0.16-0.164
		l-0.0572-0.0106l-0.153,0.1636l0.0036,0.1283h-0.1173l-0.2671,0.235l0.2776,0.2915l0.0568,0.0109h0.1141l0.0069,0.3629h-0.1815
		l-0.2098-0.1745l-0.0533-0.0106l0.1778,0.2489l0.0037,0.1461h-0.3239v-0.1388l-0.0569-0.0073h-0.0215l-0.0033-0.121l-0.1497-0.1705
		l-0.0532-0.0073l-0.1957,0.2383l0.0037,0.0605l-0.0783,0.1177h-0.153l-0.1284,0.1778l0.1352,0.1425l0.0536,0.0069h0.1031
		l0.0641,0.1173l0.0496,0.0073v0.192l0.164,0.1709l0.0532,0.0073l0.1246-0.1673v-0.1993h0.1031l-0.0036-0.1425h0.3061l0.0036,0.1315
		l-0.1282,0.3418l0.0535,0.0069l0.2314-0.242h0.0995l0.0106,0.4664h-0.1068l0.0037,0.0995h-0.0037l-0.0638-0.0641l-0.0572-0.0069
		h-0.0889l-0.1031,0.1709l0.121,0.1847l0.0536,0.0073h0.1384l0.0037,0.0357l-0.0747,0.1458v0.121l0.153,0.1636l0.0037,0.0962h-0.071
		v0.0889l0.0532,0.0106h0.0605l0.0106,0.6264l-0.007-0.0036l-0.0251-0.0033l-0.0426-0.0146l-0.0389-0.0175l-0.0394-0.0215
		l-0.0353-0.0284l-0.0357-0.0321l-0.032-0.0357l-0.0321-0.0353l-0.0247-0.0426l-0.0215-0.043l-0.0175-0.0463l-0.0573-0.0069
		l0.0037,0.0641l0.0106,0.0638l0.0179,0.0641l0.0215,0.0605l0.0284,0.0536l0.0357,0.0532l0.039,0.0463l0.0426,0.0394l0.0499,0.0353
		l0.05,0.0251l0.0531,0.0211l0.0569,0.0106l0.0037,0.3097h-0.007l-0.1246,0.0536l-0.1031,0.0853l-0.0784,0.1104l-0.0463,0.1243
		l-0.0109,0.1356l0.0288,0.1315l0.0568,0.1246l0.0889,0.1031l0.114,0.0783l0.0459,0.0179l0.0146,0.7186l-0.1603,0.2598
		l-0.1741,0.2562l-0.1746,0.2529l-0.1887,0.2452l-0.1921,0.242l-0.1993,0.235l-0.2062,0.2314l-0.2136,0.2205l-0.2208,0.2172
		l-0.2277,0.2135l-0.2347,0.203l-0.2383,0.199l-0.2387,0.2707l-0.1993,0.3024l-0.1563,0.3236l-0.114,0.3382l-0.0642,0.356
		l-0.0142,0.3593l0.0288,0.3593l0.078,0.356l0.1247,0.3382l0.1708,0.3236l0.1993,0.2813l0.2241,0.2525l-0.3702,0.0036
		l-0.9252,0.0499l0.0109,0.4303l0.3236,0.0073v0.192l-1.0673-0.0211h-0.2208l0.2419-0.285l0.2208-0.3272l0.1779-0.3739
		l0.1282-0.3913l0.0747-0.4092l0.0211-0.4161l-0.0353-0.4128l-0.0925-0.4092l-0.1461-0.3913l-0.1921-0.3739l-0.2456-0.3451
		l-0.2846-0.3134l-0.2882-0.231l-0.2776-0.235l-0.2777-0.2456l-0.2631-0.2525l-0.2598-0.2598l-0.2529-0.2667l-0.2419-0.274
		l-0.2384-0.2813l-0.2277-0.2882l-0.2205-0.2919l-0.2102-0.2988l-0.2026-0.3061l-0.0178-0.8363l0.0569-0.0175l0.1282-0.0893
		l0.0995-0.121l0.0641-0.1385l0.0215-0.1567l-0.0179-0.153l-0.0605-0.1494l-0.0926-0.1283l-0.1282-0.0995l-0.1279-0.0568
		l-0.0036-0.0751l-0.0037-0.2846l0.0641-0.0142l0.0605-0.0211l0.0568-0.0321l0.0536-0.0394l0.0496-0.0463l0.0463-0.0532
		l0.0357-0.0605l0.032-0.0678l0.0215-0.0674l0.0175-0.0747l0.0073-0.0747v-0.0751l-0.071-0.0106l-0.0215,0.0568l-0.0215,0.0499
		l-0.0284,0.0499l-0.032,0.0426l-0.0354,0.0426l-0.0394,0.0357l-0.0427,0.0321l-0.0463,0.0248l-0.0426,0.0215l-0.0499,0.0179
		l-0.0284,0.0033l-0.0142-0.7186h0.1315l-0.0032-0.1068l-0.0714-0.0109h-0.0106l-0.0036-0.0995l0.1709-0.1888l-0.0037-0.1421
		l-0.0925-0.1673l-0.0033-0.0605l0.0532,0.0069h0.1745l0.1315-0.2099l-0.1282-0.203l-0.071-0.0069h-0.1068l-0.0674,0.0674v-0.0922
		l-0.0751-0.0109h-0.0463l-0.0142-0.5407h0.121l0.2671,0.2704l0.071,0.0142l-0.1636-0.395l-0.0037-0.1636h0.3452l0.0073,0.153
		l0.0709,0.0106h0.0463l0.0073,0.2172l0.153,0.1993l0.0747,0.0106l0.1779-0.1957l-0.007-0.2314h0.0569l0.0747-0.1458h0.1778
		l0.153-0.1673l-0.16-0.203l-0.0713-0.0106h-0.1138l-0.0889-0.1283v-0.0711l-0.235-0.2777l-0.0747-0.0106l-0.1636,0.1957
		l0.0037,0.1494h-0.0926l0.0034,0.1709h-0.3663v-0.1567l0.1957-0.2882l-0.0714-0.0106l-0.2489,0.2099h-0.1887l-0.007-0.4161h0.0605
		h0.1352l0.3094-0.3418l-0.3236-0.274l-0.0747-0.0106h-0.0572l-0.0033-0.1388l-0.1851-0.1851l-0.0746-0.0142l-0.1783,0.1851
		l0.0037,0.153h-0.1351l-0.3094,0.2704l0.3235,0.3414l0.0747,0.0146h0.121l0.0073,0.4161h-0.1993l-0.2419-0.1993L946.34,98.01
		l0.2098,0.2882l0.0036,0.1709h-0.3629l-0.0036-0.1567l-0.0748-0.0142h-0.0178l-0.0037-0.1388l-0.1741-0.1957l-0.0715-0.0106
		l-0.2241,0.274v0.0711l-0.0889,0.1388h-0.1778l-0.1494,0.203l0.1563,0.1673l0.0747,0.0142h0.1104l0.071,0.1315l0.0572,0.0106
		l0.007,0.2208l0.1851,0.1993l0.0783,0.0106l0.1458-0.1993l-0.0069-0.2314h0.121L946.2011,98.8h0.3488v0.153l-0.1458,0.395
		l0.0747,0.0106l0.2667-0.2809h0.1031l0.0109,0.5407h-0.121l0.0033,0.1104l-0.0674-0.0678l-0.0747-0.0106h-0.103l-0.121,0.203
		l0.1384,0.2135l0.0747,0.0069h0.1531v0.0426l-0.0853,0.1673l0.0036,0.1425l0.1779,0.1888l0.0037,0.11h-0.0856l0.0036,0.1068
		l0.0714,0.0109h0.0605l0.0142,0.7259l-0.0251-0.0073l-0.0496-0.0142l-0.0463-0.0211l-0.0463-0.0251l-0.043-0.0321l-0.039-0.0353
		l-0.039-0.0426l-0.0357-0.043l-0.0284-0.0496l-0.0284-0.0499l-0.0215-0.0568l-0.0747-0.0073l0.0073,0.0783l0.0106,0.0747
		l0.0179,0.0711l0.0284,0.0714l0.032,0.0638l0.0389,0.0605l0.0463,0.0536l0.0535,0.0499l0.0568,0.039l0.0569,0.0321l0.0641,0.0215
		l0.0641,0.0106l0.007,0.3593h-0.007l-0.1461,0.0641l-0.1209,0.0995l-0.0889,0.1283l-0.0532,0.1458l-0.0146,0.153l0.032,0.1567
		l0.0678,0.1425l0.1068,0.121l0.1315,0.0889l0.0569,0.0211l0.0178,0.833l-0.1884,0.3057l-0.1993,0.2992l-0.2099,0.2915
		l-0.2172,0.2849l-0.2241,0.2809l-0.235,0.274l-0.2419,0.2671l-0.2488,0.2594l-0.2599,0.2529l-0.2634,0.2456l-0.2776,0.2347
		l-0.2773,0.2314l-0.2777,0.3167l-0.235,0.3487l-0.1815,0.3771l-0.1316,0.395l-0.0746,0.4128l-0.0179,0.4165l0.039,0.4198
		l0.0925,0.4092l0.1498,0.395l0.199,0.3771l0.2314,0.3276l0.2598,0.2809l-0.3097,0.0036l-1.2455,0.0711l0.0109,0.5018l0.3771,0.0106
		l0.1709,7.4265h-3.4092l-0.032,0.0073v0.2172l-0.0032,0.2489l-0.0146,0.242l-0.0212,0.235l-0.0284,0.2277l-0.0357,0.2135
		l-0.039,0.1993l-0.0499,0.1847l-0.0499,0.1673l-0.0568,0.1425l-0.0605,0.1246l-0.0641,0.0995l-0.0641,0.0747l-0.1385,0.1636
		l-0.1141,0.1851l-0.0215,0.0321l-0.1243,0.2634l-0.1177,0.3167l-0.0673,0.2314l-1.498,0.0036l-0.0287,0.0033l-0.0034,0.1673
		l-0.0109,0.1673l-0.0142,0.1567l-0.0178,0.153l-0.0248,0.1458l-0.0284,0.1352l-0.032,0.1246l-0.0357,0.1104l-0.039,0.0962
		l-0.0215,0.0426l-0.0212,0.0426l-0.0462,0.0674l-0.0463,0.0463l-0.0853,0.0926l-0.0784,0.1177l-0.0783,0.1494l-0.0747,0.1709
		l-0.0677,0.199l-0.0641,0.2172l-0.0532,0.2456l-0.0463,0.2562l-0.0427,0.274l-0.032,0.2882l-0.0215,0.2988l-0.0179,0.3024
		l0.0146,0.4985l-0.1319,0.0353l0.0962,3.9109l-11.4296-0.0284l-11.6326-2.4447l0.0036-12.6682l-2.5193-0.0747v-0.0889
		l-0.6974-0.121l-0.9041-0.0536l-13.33-4.3733l0.0215-6.1986l-0.8968-0.0146v-0.1173l-0.2634-0.0142l-0.3098-0.0106l-1.0283,0.0889
		l0.0073-2.0996l0.2383-0.11l0.2703-0.0605l0.2704,0.0033l0.2562,0.0641l0.2208,0.1246l0.0568,0.0605l-0.0248,0.0463l-0.1672,0.1851
		l-0.0037,0.4766v0.4518v0.2919l0.203-0.1851l0.153-0.2168l0.0926-0.242l0.0175-0.2456l-0.0284-0.3913l-0.032-0.3881l-0.0353-0.4128
		l-0.0427-0.2347l-0.0997-0.2241l-0.1458-0.203l-0.1957-0.1778l-0.2278-0.1352l-0.2565-0.0926l-0.2703-0.0499h-0.274h-0.0179
		h-0.0175h-0.0178h-0.0179h-0.0142l-0.0106,0.0036l-0.0109,0.0033h-0.0033l-0.0142,3.7652l-1.3489-0.0926l-0.2488,0.0069h-0.011
		l-0.2309,0.0142v0.121l-0.5908,0.0109l-0.0287,6.1665l-13.451,4.3449l-0.1352,0.0036l-1.3344,0.1137l-0.1136,0.121v0.1068
		l-1.6973,0.0572l-0.0925,12.6646l-11.1735,2.441l-8.2522,0.0211l0.0925-2.8218l-3.6759,0.0142l0.1458-4.5974l0.0215-0.8221
		l-9.9422,0.0678l-13.2446,1.1103l-0.0143,0.7259l-0.1068,4.0388l-2.8287,0.1068l-0.1461,5.7004l-2.4341-0.0033l-1.1671-0.0215
		l-24.3077-0.0321l0.082-4.3271l-1.5552,0.0036l0.0463-2.5871l0.0109-0.4624l-5.3699,0.0211l-4.3981,0.3702l-0.0073,0.4271
		l-0.039,2.3878l-1.3416,0.0532l-0.0533,3.4161l-0.6264-0.0106l-8.9922-0.0109l0.1639-11.8888l-2.3309,0.0215l0.1424-10.8142
		l-0.5517-0.1494l-0.9146,0.1246l-0.352,0.0073l0.0353-2.9752l-3.3341,0.0605l-1.1033,0.6337l-0.0285,2.37l-0.2419,0.0353
		l-0.0033,0.3239l-0.6406,0.3239l-0.8399,0.1173l-0.1174,10.2341l-0.6158,0.16l-3.2878,0.0251l-1.3132,0.3735l0.0572-5.715
		l-0.4628-0.0816l-0.6085,0.0674h-0.1851l0.0215-2.1386l-2.3984,0.0321l-0.5837,0.3345l-0.0175,1.7899l-0.4201,0.0499
		l-0.0036,0.2347l-0.2136,0.1104l-0.5692,0.0605l-0.0569,6.1705l-10.3729,0.0711l0.0037-0.0426l-0.6584,0.0036l0.0178-2.605
		l-2.5977,0.0251l-0.313,0.231v0.3524l-0.4875,0.0073l-0.2812,0.2062l-0.0106,1.8646l-1.8077,0.0142l0.082-15.5858l-2.1353,0.0426
		l0.0073-1.2808l-3.943,0.078l-0.0569,0.2135l0.0569-14.8137l-2.8466,0.0889l0.0037-1.6011l-0.0925-0.3345l-0.3309-0.3097
		l-0.4664-0.2172l0.0142-5.2843l-0.0747-0.2882l-0.2525-0.2631l-0.4198-0.2208l-0.3524-0.1031l0.0037-1.0604l-0.0463-0.1778
		l-1.1212-1.306l0.0036-0.0073l0.3881-3.1705l-0.0251-0.0962l-0.0784-0.0853l-0.1243-0.0711l-0.121-0.043l-0.395-10.8711
		l0.1957,0.0036l0.2845,0.0321l0.0142,0.0073l1.338-0.2103l1.0782-0.8716l0.548-1.0177l0.1173-0.9893l-0.1599-1.0534l-0.1852-1.0141
		l-0.7294-1.0104l-0.6691-0.1283l0.7758,1.8503l0.1494,1.3238l-0.2029,1.146l-0.8967,0.9252l-1.6653,0.1742l-1.6616-0.1993
		l-0.1567-0.1636l1.8256-1.2845l1.7294,1.3129l-0.6727-1.9855l1.5337-0.9714l-1.8646-0.0179l-0.7226-2.1244l-0.7648,2.1138
		l-1.7723-0.0106l1.3737,1.0993l-0.6653,1.8646l-0.7368-0.7685l-0.1993-1.1529l0.1567-1.3238l0.783-1.8361l-0.669,0.1173
		l-0.7368,0.9999l-0.1884,1.0108l-0.1639,1.0534l0.1104,0.9926l0.5444,1.025l1.0782,0.8858l1.3344,0.2314l0.0178-0.0073
		l0.2846-0.0284h0.1709l-0.4449,10.9104l-0.121,0.0496l-0.1242,0.0856l-0.0784,0.0926l-0.0251,0.0958l0.3738,3.1388v0.0033
		l-1.1208,1.3952l-0.0499,0.1778l-0.0036,1.064l-0.3414,0.1246l-0.4202,0.2525l-0.2562,0.2809l-0.0747,0.2919l-0.0106,5.2701
		l-0.4554,0.2383l-0.3345,0.3312l-0.0962,0.3378l-0.0037,1.5942l-3.1705,0.0998l-0.0106,14.4508l-3.4908,0.0711l-0.0036,1.2564
		l-2.0817,0.039l0.0073,15.2834l-1.7615,0.0142l-0.0037-1.8252l-0.2598-0.1993l-0.4518,0.0036v-0.3454l-0.2882-0.2205
		l-2.2705,0.0211l0.0037,2.5339l-0.6154,0.0033v0.0394l-9.9138,0.0674l-0.0215-5.8997l-0.5229-0.0463l-0.1851-0.0962l-0.0037-0.2277
		l-0.3914-0.039l-0.0073-1.7115l-0.5266-0.3028l-2.1743,0.0288l0.0106,2.0355h-0.1636l-0.5444-0.0463l-0.4235,0.0853l0.0284,5.3911
		l-1.0567-0.3024l-2.9322,0.0211l-0.5554-0.1494l-0.0605-9.6256l-0.7401-0.0853l-0.5517-0.2846v-0.3061l-0.2277-0.0284
		l-0.0142-2.1706l-0.9572-0.5517l-2.9177,0.0532l0.0175,2.7154l-0.3024,0.0069l-0.79-0.0926l-0.4839,0.1603l0.0784,10.0596
		l-2.0034,0.0142l0.0926,11.0277l-7.811-0.0073l-0.5302,0.0109l-0.0353-3.1279l-1.1176-0.0394l-0.0211-2.1812l-0.0037-0.3914
		l-3.6223-0.3061l-4.3843,0.0179l0.0036,0.4161l0.0284,2.3273l-1.2524,0.0036l0.0463,3.8858l-18.8172-0.0251l-0.8752,0.0179
		l-1.8328-0.0036l-0.0889-4.9283l-2.0996-0.082l-0.0605-3.4766l-0.0105-0.6227l-9.5899-0.8111l-7.0279,0.0499l0.0178,0.6865
		l0.0817,3.8395l-2.5442,0.0073l0,0l0.3488,15.7141h-3.1705l-0.0142-0.5123l-0.1461-0.082l-0.0357-1.4339l-0.1563-0.3775
		l-0.0714-2.8039l0.2634-0.1137l-0.0069-0.2208l-0.267-0.1279l-0.05-2.0001l-0.0142-0.5408l0.4092-0.2955l-0.0142-0.4908
		l-0.4161-0.1709l-0.0142-0.4912l0.3914-0.6938l-0.0142-0.587l-0.5018-0.1888h-0.1352l-0.1068-4.2203l0.9394,0.0036l-0.0214-0.8541
		l-2.8682-2.0497l-4.882-15.0877h0.2667l-0.0958-4.1208l-0.2493-0.0033v-0.0215l-0.3913,0.0179l-0.5054-0.0036l0.0926,4.1277h0.2634
		v0.0036l-4.1066,14.7674l-2.555,1.7472l-0.4909-0.121l-2.989-0.9467l-0.0927-5.0883l0.4376-0.0109l-0.0142-0.7543l-1.6798-1.1172
		l0.4555-0.7084l-0.4981-1.569l0.9966-1.6725l0.9285-0.3808l-1.7789-0.8756l-0.7047-0.7259h-1.6368l-0.235-13.8033l1.082-1.2987
		l-1.5549-0.2955h0.0212l-0.082-1.9429v-0.11l-0.1458-1.5621l-0.1957-0.4985l-1.146,0.0036l-0.2631-0.1458l-0.153-9.4299
		l0.8184-0.0747l0.5802-0.5837l-0.0215-1.2028l-0.7473-0.1636l0.1923-0.3524l0.669-0.4555l0.2525-0.2594l0.5587-0.79l0.3134-1.7188
		l-0.3703-2.3951l-2.0249-3.1454l-2.6724-2.5372l-0.3203-0.3844l-0.5623-0.6727l-0.0389-0.0463l-0.0037-0.0033l-0.0427-0.0499
		l-1.1671-1.3949l-1.0319-2.0034l-0.5123-2.3452l-0.164-1.7188l0.1036-0.0496l0.2134-0.2172l0.1385-0.2777l0.043-0.3094
		l-0.011-0.1068l-0.0532-0.3097l-0.1425-0.2704l-0.2205-0.2062l-0.2703-0.1213l-0.0536-0.0106l-0.0284-2.1743l0.427-0.0532
		l0.0248-0.0568l-0.0568-0.4023l-0.4023,0.0536l-0.0459-3.3735l2.1207-0.0179l-0.0073-0.0568l0.0394-0.0036v-0.0036l-0.0073-0.4413
		l-2.1528,0.0215L582.72,54.661l0.3061-0.0033l0.0215-0.0605l-0.0036-0.4023l-0.3308,0.0036l-0.0037-0.3024l-0.4697,0.0036
		l-0.0248,0.0638l0.0036,0.2387h-0.3028l-0.0211,0.0638l0.0037,0.4023l0.3272-0.0036l0.0036,0.3418l-2.128,0.0175l-0.0215,0.0605
		l0.0073,0.3808h0.0179l0,0l0.0033-0.0142v0.0142l0,0l0.0357,0.0036l-0.0037,0.0568l2.0996-0.0175l0.0463,3.4336l-0.4271,0.0572
		l-0.0211,0.0568l0.0568,0.3986l0.395-0.0499l0.0321,2.1138l-0.0604,0.0142l-0.2704,0.1352l-0.2172,0.2172l-0.1352,0.2773
		l-0.0427,0.3134l0.0142,0.1031l0.0496,0.3061l0.1426,0.274l0.2171,0.2062l0.0994,0.0426l-0.1173,1.7403l-0.4413,2.37l-0.9357,1.964
		l-1.299,1.662l-0.3309,0.4234l-0.0394,0.0499v0.0033l-0.0425,0.0536l-0.2988,0.3841l-2.5336,2.5624l-1.886,3.1599l-0.121,0.3167
		l-0.2955,2.3875l0.3524,1.6835l0.5659,0.7579l0.8541,0.548l0.2026,0.352l-0.2845,0.0714l-0.2809,0.6012l0.0142,1.1781l1.071,0.0995
		l0.2845,0.3345l0.0821,6.9142l-0.4877,1.9287h-0.7936l-0.007,0.3451h-0.1957l-0.082,0.7295l-0.0357,1.6725l0.0037,0.4234
		l-0.0106,0.6297h-0.3914l-0.0357-3.3593l0.4412-0.1173v-0.0069l0.0215,0.0069l-0.0073-0.8148l-0.3629-0.1388V94.313l-0.2634-0.0251
		l-0.274-0.2525l0.6337-0.3844l0.5302-0.6475l0.345-1.3275l0.1246-1.5195l-0.3098-1.2276l-0.7791-1.224l-0.0925-0.1104
		l-1.1423-1.1314l-0.9503-0.7331l0,0l-0.16-0.121l-0.0427-0.0357l0,0l-0.0426-0.0321l-0.6657-0.5123l-1.0531-1.0141l-0.0357-0.039
		l0,0l-0.0426-0.0394l-0.0142-0.0142l-0.0747-0.1104l-0.0427-0.0605l0,0l-0.0393-0.0605l-0.0674-0.0995l-0.1603-0.274
		l-0.1421-0.2562l-0.1246-0.2383l-0.1353-0.1851l-0.0141-0.0179l-0.1852-0.1815l-0.1461-1.459l0.1497-0.0747l0.2347-0.235
		l0.1458-0.2988l0.0499-0.3345l-0.0568-0.3345l-0.1494-0.3061l-0.0357-0.0641l-0.2277-0.2241l-0.2846-0.1421l-0.0568-0.0036
		l-0.0215-2.3521l0.4733-0.0605l0.0106-0.0426l-0.0568-0.4307l-0.4307,0.0568l-0.0211-2.1991l0.5228-0.0036l-0.0036-0.0353
		l0.032-0.0036l0,0v-0.4201l-0.5549,0.0036l-0.0073-0.982l2.2562-0.0106l-0.0037-0.0463l0.039-0.0036l0,0l-0.0032-0.4733
		l-2.2916,0.0142l-0.0037-0.3877h0.3414l0.0073-0.0463l-0.0036-0.4307h-0.3524v-0.3239l-0.5017,0.0036l-0.007,0.0499v0.274
		l-0.3418,0.0036l-0.0032,0.0463v0.4303h0.3487l0.0033,0.3808l-2.2807,0.0179l-0.0073,0.0463l0.0036,0.4271h0.0037l0.0426,0.0036
		l-0.0036,0.0426l0.829-0.0073v0.2172h-0.3025l-0.0069,0.0426l0.0037,0.3808h0.3093l0.0037,0.3418l-1.2382,0.0069l0,0
		l-0.7084,0.0073l-0.5265-3.6406l-0.6727-0.3913l-0.7116-4.5227l-0.5623-0.3309l-0.6405-4.1529l-0.5339-0.3236l-0.2452-4.5832
		l0.3913-0.833l0.4624-0.9857l0.9967-0.4588l-1.0215-0.8862l1.0819-0.9325l-2.1386-0.2489l-0.032-5.4446l-1.064-0.3061
		l-0.0925-0.3309l0.1352-0.0834l-0.7047-2.2934l0.0746,0.055l-0.0069-0.3345l-0.1993-0.1421l-1.5869-5.1794l-1.975-6.9036
		l0.4445,0.3203l-0.0211-0.3913l-0.5586-0.3986l-0.2066-0.7167l-0.1494,0.0408l-0.2241-0.7295l-0.363,0.2474l0.4125-0.9164
		l-0.0069-1.9768l-0.0248-0.9536l-0.2991,0.0036l-0.2136-0.2048l0.5554-4.7239l0.2135-0.0926l0.2915-0.3983l-0.1526-0.2616
		l0.0248-0.0106l0.4019-0.274l0.2991-0.3826l0.3735-0.5141l0.2383-0.5888l0.0714-0.6639l-0.0747-0.6351l-0.3097-0.7882
		l-0.2919-0.5265l-0.313-0.4486l-0.4023-0.3771l-0.4839-0.3167l-0.6548-0.3276l-0.587-0.3877l-0.5266-0.5284l-0.3702-0.5961
		l-0.192-0.8042l-0.121-1.9003l0.1279-0.0783l0.2029-0.2026l0.1352-0.2616l0.0427-0.2955l-0.0463-0.3006l-0.0641-0.1866
		l-0.121-0.2492l-0.1921-0.1851l-0.2383-0.0977l-0.0427-0.016l-0.0036-1.8879l0.4128-0.0605l-0.0073-0.1031l-0.0463-0.3826
		l-0.3593,0.0517l-0.0106-3.1778l1.9713-0.0339V1.1332l-0.0073-0.1086l-1.964,0.0339V0.7809l0.2988-0.0055V0.3913l-0.0106-0.1086
		l-0.2919,0.0055v-0.18L552.1602,0l-0.434,0.0069l0.0037,0.2882l-0.3024,0.0055v0.3841l0.0143,0.1104l0.2881-0.0051v0.2755
		l-1.9716,0.0339v0.4234l0.0146,0.1068l1.9604-0.0339l0.0036,3.2365l-0.4092,0.0587l0.0073,0.1053l0.0496,0.3822l0.3561-0.0514
		l0.0037,1.8219l-0.1567,0.0623l-0.1637,0.1031l-0.2029,0.2011l-0.1352,0.2594l-0.0427,0.2973l0.0427,0.3024l0.0677,0.1851
		l0.1243,0.2489l0.1851,0.1833l0.0925,0.0375l-0.1136,1.8966l-0.1888,0.8184l-0.3666,0.5961l-0.5086,0.5211l-0.5802,0.3899
		l-0.6442,0.329l-0.4767,0.3185l-0.395,0.3771l-0.3134,0.4537l-0.3271,0.5269l-0.3061,0.7882l-0.0712,0.6369l0.0712,0.6617
		l0.2419,0.5856l0.3381,0.5141l0.3024,0.3808l0.4056,0.2722l0.0714,0.0302l-0.164,0.2438l0.2635,0.3986l0.3061,0.1366l0.548,4.5942
		l-0.3276,0.3469l-0.2136,0.0036l-0.0463,0.274l0.0037,1.9892l0.0889,0.6635l0.4984,1.1103l-0.9004-0.2223l-0.4055,1.3362
		l-0.3739,0.2773l0.0605,0.3899l0.1425-0.1086l-4.4732,14.7816l0.751,0.1888l-1.3486,0.4198l-0.2066,5.4126l-2.1885,0.3057
		l1.1103,0.751l0.1246,0.2809l-0.6511,0.7725l0.9678,0.4482l0.4522,0.9678l-0.2671,5.4053l-0.5444,0.3312l-0.63,4.1489
		l-0.5728,0.3381l-0.7011,4.5191l-0.6832,0.395l-0.6974,4.8788l-0.79,0.8006h-0.0674v0.0678l-0.1494,0.153l0,0l-0.0677,0.0674
		h-0.0746l0.0037,0.0714l-0.0784,0.078l0.0248,0.4023l-0.0179-0.2598l-0.0069-0.1425l-0.1603,0.1673l0.1888,0.3097l0.0073,0.1388
		l-1.6867,0.0106l-0.0037,0.4201h0.0037l0.032,0.0033v0.0321l1.6831-0.0106l0.1884,3.2951l-0.3203,0.039l0.0463,0.3808
		l0.0215,0.0321l0.2776-0.0357l0.071,1.2101l-0.0073,0.8042l-0.0532,0.0106l-0.114-0.0926l-1.2597-1.5086l-0.6865-1.2385
		l-0.0321-0.0568V80.047l-0.032-0.0532l-0.0394-0.0711l-0.0317-0.0572l-0.0037-0.0069l-0.0109-0.0179l-0.0142-0.0605l-0.3557-1.5089
		l-0.3167-2.1455l0.2456-0.121l0.2383-0.235l0.1531-0.2955l0.0568-0.3309l-0.0532-0.3345l-0.1531-0.3061l-0.2349-0.242
		l-0.0675-0.0532l-0.2671-0.1352l-0.0357-0.0036l0.0109-2.3343l0.4803-0.0641l-0.0532-0.4271l-0.0284-0.0463l-0.395,0.0536
		l0.0142-3.6154l2.2097-0.0142l-0.0037-0.0463l0.0394-0.0036v-0.0036l-0.0037-0.0142l0.0037,0.0142v0.0036l0.0284-0.0036v-0.4198
		l-0.0251-0.0499l-2.2454,0.0142v-0.3771h0.3488v-0.4307l-0.0284-0.0532l-0.3167,0.0036v-0.2704l-0.0284-0.0536l-0.4981,0.0073
		v0.3203l-0.3486,0.0033v0.4271l0.0283,0.0536h0.3167v0.3735l-2.2701,0.0179l-0.0037,0.4697v0.0036l0.039,0.0033l-0.0069,0.0463
		l2.238-0.0175l-0.0179,3.6792l-0.4729,0.0605l0.0532,0.4271l0.0284,0.0499l0.3914-0.0536l-0.0106,2.2632l-0.0674,0.0179
		l-0.3025,0.1461l-0.2386,0.231l-0.1562,0.2992l-0.0536,0.3309l0.05,0.3382l0.1531,0.3024l0.2382,0.2452l0.0679,0.0499
		l0.1777,0.0889l-0.3381,2.1637l-0.3845,1.5727l-0.8505,1.5195l-1.2134,1.4521l-0.1815,0.1458l-0.0427,0.0357l-0.0037,0.0033
		l-0.0389,0.0321l-0.6013,0.4875l-0.0893,0.0747l-1.4623,1.1923l-1.2134,1.1351l-0.2493,0.2489l-0.8289,1.1566l0.0142-2.0602
		l0.274-0.3203l1.0958-0.121l0.0073-1.1671l-0.3987-0.3771l0.082-0.0215l0.9857-0.7863l0.6512-0.9751l0.3097-1.1314l0.0995-1.1529
		l-0.082-0.9893l-0.4092-1.2276l-0.5692-1.0392l-0.4518-0.5407l-0.7368-0.8789l-1.1813-0.993l-1.4233-0.9179l-0.7189-0.5233
		l-0.039-0.0321l-0.0073-0.0036l-0.0353-0.0248l-0.0784-0.0568l-0.5054-0.5269l-0.082-0.0816l-0.1315-0.1388l-0.5375-0.6905
		l-0.5229-0.9357l-0.1173-0.1352l-0.3524-0.1673l-0.5054-1.893l-0.3272-2.1994l0.11-0.0496l0.2277-0.2172l0.1461-0.274
		l0.0532-0.3094l-0.0463-0.3097l-0.1422-0.2846l-0.2208-0.2277l-0.0784-0.0605l-0.2419-0.121l-0.0211-0.0036l0.0211-2.1564
		l0.4486-0.0605l-0.05-0.395l-0.039-0.0568l-0.356,0.0463l0.032-3.3414l2.0424-0.0142L522.7,57.3334l0.0355-0.0033l0,0
		l-0.0034-0.0142l0.007,0.0142l0,0l0,0l0.0356-0.0036l0.0037,0.0353l0.0033-0.4125l-0.0389-0.0605l-2.0749,0.0175l0.0037-0.3378
		l0.3203-0.0036l0.0036-0.3986l-0.0389-0.0605l-0.2813,0.0036l0.0036-0.2383l-0.0426-0.0605l-0.4628,0.0033l-0.0037,0.2992
		l-0.3202,0.0033l-0.007,0.3986l0.0427,0.0605l0.2814-0.0036l-0.0037,0.3418l-2.1139,0.0179l-0.0036,0.4376l0,0l0.0357,0.0036
		l-0.0037,0.039l-0.0037,0.0142h0.0142l0.0037,0.0036v-0.0036l2.0676-0.0179l-0.0358,3.4055l-0.4413,0.0568l0.0463,0.3986
		l0.043,0.0536l0.3487-0.0463l-0.0215,2.0887l-0.0605,0.0179l-0.2846,0.1352l-0.2244,0.2172l-0.1494,0.274l-0.0496,0.3094
		l0.0463,0.3097l0.1422,0.2846l0.2208,0.2277l0.0783,0.0568l0.0284,0.0142l-0.3666,2.1601l-0.5623,1.9287l-0.4591,0.2099
		l-0.5444,0.904l-0.5764,0.6869l-0.0394,0.0459l-0.0069,0.0073l-0.0178,0.0248l-0.0143,0.0142l-0.8505,0.8151l-0.0037,0.0211
		l-0.0816,0.0463l-0.9004,0.6195l-1.541,0.9321l-1.2808,1.0035l-0.8079,0.8895l-0.6012,1.0177l-0.4412,1.2243l-0.1068,0.9962
		l0.0783,1.1744l0.2988,1.1566l0.6439,1.0177l0.993,0.8395l0.0962,0.0641l-0.4806,0.1068l-0.0142,1.1886l0.9429,0.5907
		l0.4592,0.0357l-0.1283,10.5114l-0.3235,0.1957h-0.9146l-0.3025,0.4948l-0.2135,1.5443l-0.039,2.0318h0.0069l-1.5658,0.3024
		l1.0855,1.2812l-0.1746,13.4757h-1.6368l-0.7011,0.7189l-1.772,0.8647l0.9288,0.3771l0.9998,1.6477l-0.4875,1.5479l0.4518,0.6938
		l-1.6794,1.1066l-0.0106,0.7437l0.434,0.0106l-0.0677,4.8256l-3.4799,1.0993l-3.1352-1.7363l-4.8678-14.4012h-0.032v-0.0036h0.2099
		l0.0748-4.06l-0.4625,0.0069l-0.4201-0.0179v0.0215l-0.1884,0.0036l-0.0783,4.0494h0.1742l-5.5405,14.7179l-3.6792,2.1564
		l-0.0179,0.8432l1.1314,0.0036l-0.0889,4.1314l-0.7685,0.1993l-0.0109,0.5797l0.477,0.6832l-0.0106,0.509l-0.5054,0.1458
		l-0.0106,0.4806l0.4945,0.2882l-0.0531,2.4337l-0.0037,0.0926l-0.3203,0.1031l-0.0073,0.2208l0.317,0.1104l-0.0572,2.7577
		l-0.1884,0.3735l-0.0179,0.904l-0.6548-0.5622l-0.1742-0.7117l-0.4985,0.4271l-0.0321-0.0714l-0.861-0.7153l-0.587-2.441
		l-0.466-0.8505l-0.7973-0.5338l-0.3665-0.0248h-0.007l-0.0179-0.7259l-0.1924,0.0036l-0.0426-1.4984l-0.1068-0.0033v-0.0179
		l-0.2988,0.0069l-0.4022-0.0142l0.0393,1.5268l0.1068,0.0033v0.0215l-0.2988,0.0073l0.0143,0.6759l-0.363,0.0106l-0.7616,0.5127
		l-0.4165,0.8395l-0.0142,0.0499l-0.4449,2.3736l-0.8042,0.6759l-0.3665,0.8825h-0.0354l-0.6869-26.2543l-3.1526-0.0426
		l-0.63-24.2793l-1.256-0.0853l-0.1746-6.6901l-0.7579-5.2486l-0.2135-8.1666l-0.1494-0.0179l0.0357-0.0532l-0.9572-1.1245
		l1.1529-1.4696l0.1138-0.1745l0.2244-1.8609l-1.075-1.6477l-2.2916-1.306l-1.4481-1.3664l-0.9041-3.352l-0.7294,3.4019
		l-1.3377,1.4196l-2.1674,1.4022l-0.9605,1.6867l-0.075,0.1884l0.3097,1.8219l1.3132,1.5089l-0.8042,1.0604l-0.0215,0.0536
		l-0.1778,0.0248l0.1993,8.1276l-0.4664,4.9677l-0.9463-1.1103l-2.1779-0.9503l-1.3734-0.9926l-0.8399-2.4162l-0.7153,2.441
		l-1.3023,1.0283l-2.0959,1.0108l-0.936,1.2098l-0.0318,0.1104l0.2809,1.3129l1.2418,1.0819l-0.8042,0.79v0.0036l-0.4734,0.0426
		l0.2103,8.9282l-0.591,0.0357l0.0926,4.0352l-0.6581-1.5552l-1.0108,2.7187l-2.7256-7.5796l0.2988-0.0069l-0.0499-2.1848
		l-0.4945-0.0284h-0.0853l-0.0714-3.0816l-0.5513,0.0463l0.071,3.0495l-0.5801,0.0106l0.0463,2.1849l0.3061,0.0179l-2.3736,7.608
		l-0.6548-1.5621l-0.0033-0.274l-0.1068,0.0069l-0.3381-0.8148l-1.4163,3.8326l0.0037,0.039l-0.7901,0.5375l-0.0783,0.121
		l-0.9288-0.6122l-0.8895-0.3061l0.8968-1.8183l-0.1814-2.0533l-1.5837-2.0318l-2.1743-1.1671l-1.3843-1.5516l-0.5655-2.1316
		l-0.0284-1.3486l-0.4343,0.0605l0.0251,1.2881l-0.477,2.1353l-1.3165,1.5585l-2.1138,1.1781l-1.498,2.0351l-0.0893,2.0464
		l0.4238,0.7933l0.0106,0.5732l0.1599-0.0109l-1.3697,0.4806l-1.0356,0.7044l-0.63-0.4161l-1.3413-0.4628l-1.3238,0.4664
		l-1.1067,0.7506l-0.7083,1.1172l-0.2063,1.3096l0.3382,1.2848l-0.4485,0.0069l0.0925,4.6758h-5.1207l-0.032-1.5016h-0.4588
		l0.0284,1.5016h-2.715l-0.0321-1.4911h-0.4449l0.0248,1.4911h-2.5904l-0.0321-1.8325h-0.4518l-0.0677-3.7579l-0.5907,0.0109
		l0.0714,3.747h-0.4522l0.0357,1.8288h-1.1387l-0.4128,1.0108l-0.0674,0.3913h-0.9041l-0.0036-0.2919h-0.3451l-0.0569-2.8681
		l-0.4413,0.0036l0.0533,2.8644h-0.3452l0.0321,1.7119l-0.0569,0.2915l-0.3167,0.0926l-0.5447,0.6016l-0.6154-0.6479l-0.9394-0.274
		l-0.9288,0.2707l-0.4518,0.4945l-0.0889-4.9713h-0.4806l0.4555-1.3129l-0.0211-1.377l-0.5338-1.381l-1.0534-1.103l-1.4659-0.8541
		l-0.6938-0.8505l-0.0463-2.6757l-0.3487,0.0284l0.0463,2.6473l-0.6657,0.8578l-1.4375,0.8574l-0.3308,0.3666l-0.1888-0.1993
		l-1.416-0.8253l-0.6727-0.8363l-0.0463-2.5835l-0.3276,0.0284l0.0463,2.5551l-0.6512,0.8399l-1.3948,0.8326l-0.3987,0.434
		l-0.0284-1.6441l-0.95-1.53l-1.6583-1.3413l-1.235-1.2491l-0.982-2.1353l0.0215-0.0033l-0.0426-2.726l-0.3097,0.0426l0.0426,2.7187
		h0.0037l-0.8968,2.1032l-1.1923,1.2455l-1.6153,1.3449l-0.9041,1.5268l0.0251,1.651l-0.5837-0.6158l-1.4659-0.8574l-0.7189-0.8931
		l-0.0426-2.6403l-0.2919,0.0248l0.0393,2.6119l-0.6942,0.8968l-1.4411,0.8574l-0.0641,0.0714l-1.2418-0.7259l-0.7011-0.872
		l-0.039-2.5514l-0.274,0.0248l0.039,2.523l-0.6759,0.8756l-1.3985,0.8326l-0.9857,1.0709l-0.466,1.3344l0.0175,1.3311
		l0.4842,1.2702h-0.4664l0.0783,5.5441l-1.3985,0.0889l-0.1884-0.5054l-0.5553-0.5087l-0.8432-0.3487l-0.2456-0.7652h0.0357
		l-0.0288-2.1564l-0.2347-0.0036l0.0285,2.1564h0.0393l-0.2278,0.7689l-0.6194,0.2598l-0.79-0.3276l-0.2419-0.7506h0.0357
		l-0.0284-2.1174l-0.2277-0.0036l0.0284,2.1138l0.0357,0.0036l-0.2245,0.7543l-0.8183,0.3418l-0.5302,0.4981l-0.0037,0.0069
		l-0.1884-0.0674l-0.0073-0.6122l0.6406-1.2098l-0.0248-1.6689l-1.0818-1.2564l-1.4448-0.5655l-0.5834-0.872l-0.0321-2.5121
		l-0.2598,0.0106l0.0321,2.5015l-0.5591,0.872l-1.4338,0.5655l-1.0424,1.2564l0.0211,1.6689l0.669,1.2098v0.1603h-1.0498
		l-0.626-0.2598l-0.2492-0.7689l0.0284,0.0036l-0.0321-2.1564l-0.2062-0.0036l0.0248,2.1532h0.0284l-0.2278,0.7721l-0.5196,0.2168
		l-0.6902-0.2846l-0.242-0.7543l0.0248,0.0036l-0.0248-2.1174l-0.2029-0.0036l0.0251,2.1138h0.0248l-0.2241,0.7579l-0.7794,0.3239
		h-6.0102v-0.0251h-0.0248l-0.751-0.8184l-0.5586-0.2062v-0.2777l-0.3913-0.0142l-0.0356-2.7719h-0.4023l0.032,2.7613
		l-0.7401-0.0215l-0.0248-2.1065l-18.6856-8.4869l-0.0175-2.0176l-36.3496,0.0215l-0.0073-1.0676h-2.2737l-0.4697-0.5943
		l-0.0284-5.7041l-0.3167,0.1993l0.0069,1.1955l-2.2559,0.0036l-1.1744-1.4484l-2.1386-1.4805l-2.1174-0.708l-1.3523,0.0036
		l-0.0142-3.1137l-1.3271-1.2775l-2.441-0.8647l-0.0073-1.7509l-1.0283-0.0426h-0.477l0.8899-1.4269l-1.0499-2.5015l-0.1246-16.3153
		h-0.1246l-0.0106-2.1994l-0.0036,0.0215l0.0106,2.1779h-0.1279l0.0036,16.3259l-1.0107,2.4946l0.8861,1.4233h-0.3702
		l-1.0961,0.0463l-0.039,0.0641l0.0036,1.6973l-2.331,0.8578l-1.2808,1.2808l-0.0999,0.1673l0.0106,2.9501h-1.1172l-2.0282,0.708
		l-2.0355,1.4874l-1.1176,1.4448l-2.8823,0.0036v-1.1955l-0.0248-0.1957l0.0143,6.2805l-0.0073,0.0069h-2.1776l0.0036,1.3275
		l-38.6769,0.0179l-0.0036,1.7472l-15.7283,8.4333l-0.0069,2.0712l-1.4521,0.0641l-0.0499,11.6217l-3.1242-0.0036l-3.5156,0.79
		l-0.0106,2.4162l-8.0245-0.0958l-6.9674,0.9l-3.1421,1.1033l-12.9455,0.548l-2.2811-2.3026l-10.4407,0.3345l-0.4839-1.6011
		l0.0357-3.6548l0.3702-0.2062l-1.6084-0.0284l-2.4198-5.7008l-2.5442,5.715l-1.6087,0.039l0.3739,0.2066l-0.0394,3.6617
		l-0.5939,1.8431l-63.9098,2.0533l-5.0672,2.5336l-9.971,0.1494l-2.0566-0.4449l-1.0997,0.4912l-36.6162,0.5444l-4.0389,1.8008
		l0.039-1.6867l0.3917-0.2419l-1.6015-0.0463l-2.4946-6.4514l-2.7897,6.5083l-1.6295,0.0678l0.3804,0.231l-0.0921,3.822
		l-1.2528,4.1988H0.0389v8.3269L0,155.3332l0.0389,0.0568v6.2058h0.5874h158.4823H181.05h85.794h732.9866v-16.0307H999.8232z
		 M566.2448,72.4641v-0.0036l0.0033-0.0106L566.2448,72.4641z M567.686,81.5132v0.0036l0,0V81.5132z M604.0708,134.591
		l-0.071-0.0321h0.0641l0.0925-0.4056l0.1705-0.3702l0.2386-0.3061l0.2915-0.2347l0.1425-0.0605l0.1494,0.2915l0.1031,0.3917
		l0.0784,0.0321h0.0073l-0.153,0.1815l0.1741,0.7543l0.3061,0.4092l0.0784,0.0357l0.2919-0.4092l0.1421-0.7546l-0.1884-0.2135
		h0.1389l0.0853-0.395l0.0889-0.1851l0.1672,0.1283l0.2493,0.3097l0.1884,0.3698l0.1104,0.4059l0.0784,0.0353h0.032l-0.153,0.1851
		l0.1779,0.7827l0.3239,0.4238l0.0784,0.0354l0.3024-0.4234l0.1494-0.7794l-0.1957-0.2241h0.1105l0.0925-0.4055l0.1672-0.3702
		l0.2383-0.3061l0.2952-0.2347l0.032-0.0142l0.1246,0.2456l0.0962,0.3593h-0.0073l0.0142,0.5659l0.4022,0.7153l0.0142,0.5907
		l-0.3914-0.0036l0.0106,0.4733l0.3987,0.3309l0.0321,1.3202l0.0284,1.2134h-0.2529l0.0073,0.2135l0.2562,0.1458l0.0605,2.6975
		l-0.1315,0.3382l0.0321,1.4339h-0.1389l0.0179,0.7011l-0.1603-0.0036v0.0568l-5.1276-0.0211l-0.0251-1.1176l-0.1494-0.3735
		l-0.0605-2.8007l0.2562-0.1137l-0.0032-0.2205l-0.2635-0.153l-0.0426-2.0712l-0.0109-0.4413l0.395-0.2952l-0.0105-0.4912
		l-0.4056-0.1993l-0.0106-0.4591l0.3841-0.6938L604.0708,134.591z M568.5612,76.2005l-0.4697,0.0568l-0.0073,0.0463l0.0605,0.4271
		l0.4201-0.0536l0.0212,2.2847l-0.0711,0.0142l-0.2952,0.1458l-0.235,0.2387l-0.1458,0.2988l-0.0143,0.0995l-0.153-0.0747
		l-0.0536-0.0069l-0.0142-2.0817l0.4198-0.0536l0.0073-0.039l-0.0499-0.3771l-0.3808,0.0463l-0.0248-3.2277l0.9678-0.0069
		L568.5612,76.2005z M568.5327,72.4962l0.0069,0.9784l-0.9678,0.0073l-0.0037-0.3418h0.3028l0.007-0.0426l-0.0037-0.3844
		l-0.3093,0.0036l-0.0037-0.2135L568.5327,72.4962z M566.1059,73.9122L566.1059,73.9122l1.0247-0.0069l-0.9357,0.0069
		l-0.0925,0.0073L566.1059,73.9122z M566.1023,73.9515L566.1023,73.9515l1.0177-0.0036l0.0284,3.2846l-0.4161,0.0532l-0.0073,0.0357
		l0.0532,0.3808l0.3738-0.0463l0.0179,2.0245l-0.0641,0.0146l-0.2634,0.1315l-0.2062,0.2062l-0.1315,0.2671l-0.043,0.2952
		l0.0462,0.2992l0.1352,0.2704l0.0357,0.0496l0.1993,0.203l0.2314,0.1141l-0.2562,1.8183l-0.2882,1.2917l-0.0288,0.0783
		l-0.3914,0.3913l-0.0142,0.0106l-0.0499-6.8391l0.4344-0.6942l0.2099-1.4448l-0.7222-0.7364l-0.6479-0.6617l-0.1137-0.7867
		L566.1023,73.9515z M560.4193,88.9718L560.4193,88.9718L560.4193,88.9718L560.4193,88.9718z M492.478,139.1921l0.0073-0.2813
		l0.3061-0.1421l0.0033-0.2103l-0.3024-0.0033l0.0499-2.4767l0.477-0.3276l0.0069-0.4624h-0.4697l0.0106-0.5764l0.477-0.7011
		l0.0106-0.3735l0.1389,0.2631l0.1104,0.4023h0.128l-0.2242,0.2172l0.1746,0.7721l0.3487,0.4198l0.1352-0.039l0.3629-0.4165
		l0.2029-0.7721l-0.1818-0.1815l0.1283-0.0357l0.1247-0.4019l0.2098-0.3629l0.2846-0.3028l0.3455-0.231l0.3024-0.1104l0.2667-0.0321
		l0.1778,0.3276l0.1035,0.3877h0.1563l-0.2168,0.2099l0.1669,0.7401l0.3382,0.4023l0.1246-0.0394l0.3487-0.3983l0.192-0.7404
		l-0.1778-0.1815l0.0962-0.0284l0.039-0.121l0.1425,0.1636l0.1993,0.3633l0.1068,0.4019h0.0747l-0.1246,0.0394l-0.0106,0.5797
		l0.466,0.6869l-0.0073,0.4875l-0.4908,0.1673l-0.0073,0.4839l0.4806,0.2882l-0.032,1.9108l-0.0109,0.6016l-0.3167,0.121
		l-0.0033,0.2205l0.3094,0.1104l-0.0498,2.765l-0.1779,0.3699l-0.0179,1.0035l-4.882-0.0248l0.0037-0.153h-0.1924l0.011-0.6832
		h-0.164l0.0284-1.4054l-0.1636-0.3276L492.478,139.1921z M477.6712,145.1702l0.9751,0.0889l2.4946,0.0926l2.6866,0.0248
		l1.8361-0.0568l0.2813-0.1137v-0.0357l0.3378-0.0142v0.0962l-0.2062,0.0853l-0.0073,0.2277h-8.3871L477.6712,145.1702z"/>
</g>
</svg>
