<?xml version="1.0" encoding="utf-8"?>
<!-- Generator: Adobe Illustrator 18.1.1, SVG Export Plug-In . SVG Version: 6.00 Build 0)  -->
<svg version="1.1" id="munich" xmlns="http://www.w3.org/2000/svg" xmlns:xlink="http://www.w3.org/1999/xlink" x="0px" y="0px"
	 viewBox="0 0 999.0359 222.6098" enable-background="new 0 0 999.0359 222.6098" xml:space="preserve">
<g>
	<path   d="M980.4421,195.5952l-0.0247-2.5105l-5.1926,0.0045l-0.0923-11.1752l-0.0356-4.4816l-0.1848,0.0794
		l0.0356,4.4022l-0.2982,0.0023l-0.3339-1.7816l-0.0214-2.6517l-0.1776,0.0771l0.0142,1.5814l-0.4157-2.2286l-0.799,0.0041
		l-0.0211-2.2286l-0.1528,0.0816l-0.778,0.0041l-0.0425,0.0289l-0.032,0.7221l0.0106,1.2269l-0.0604,0.6409l-0.0567,0.0284
		l0.0036,0.3613l-6.5709,0.0397l-0.0069-0.3279l-1.4279,0.0063l0.0037,0.3306l-6.3469,0.0374l-0.0037-0.6675l-0.3873-0.3126
		l-14.221-8.924l-0.0109-2.8984l0.0037-0.0068l-1.7971-3.3301l-1.7333,3.3675l-0.0212,0.1412l0.007,1.6229l-21.9605,0.2246
		l-0.0106-5.4992l-1.2468-16.3374l-1.4169,0.0244l-0.103-0.2576l-0.0036-2.6936l-0.064-0.1718l-0.6892,0.0135l0.0036,2.8055
		l-0.1491,0.0022v0.3216l-34.4696,0.6211l-4.1593,11.2036l-0.0604,21.7969l-7.4089,0.0442l-0.2272-10.8138l0.3375-0.0641
		l4.088,0.6058l1.5876-1.2264l-5.2813-2.4384l-6.8266-5.6818l-0.2379-13.3226l2.703-0.4249l1.7723-0.5394l0.2448-0.5751
		l-4.4324-2.1646l-4.9369-3.6318l-0.1705-11.3091l1.5912-0.6035l1.1293-0.8831v-0.9183l-1.2217-0.8922l-4.3258-1.7731l-2.3655-1.612
		l-0.1138-9.4571l0.4263-0.152l1.3675-0.8146l0.671-0.8922l-0.0992-0.9161l-0.902-0.8678l-1.6909-0.7596l-2.3691-0.5814
		l-1.0689-0.1831l-1.4668-0.7663l-0.0677-7.1667l1.2573-0.3608l1.3072-0.608l0.895-0.7113l0.4157-0.7708l-0.1102-0.7821
		l-0.6536-0.7352l-3.4664-1.9648l-1.6657-1.6847l-1.094-2.8542l-0.3019-4.5921l0.6038-0.8128l0.0498-0.1543l0.2059-1.1912
		l-0.0389-0.1786l-0.3091-1.1163l-0.0993-0.1322l-0.6183-0.5972l-0.0069-0.0108l-0.476-10.2302l-0.3409,10.2744l-0.5684,0.6053
		l-0.1208,0.1367l-0.0498,0.1452l-0.291,1.1633l0.2164,1.1849l0.0356,0.1497l0.6357,0.7993l-0.2415,4.6381l-1.0231,2.8678
		l-1.6338,1.7816l-3.1824,2.013l-0.767,0.7555l-0.2346,0.7862l0.2914,0.7555l0.7848,0.6824l1.2078,0.5638l1.545,0.4141
		l0.0604,0.0068l0.032,7.1288l-1.4672,0.8457l-0.3444,0.0771l-2.4754,0.65l-1.8294,0.8015l-1.0798,0.8944l-0.2804,0.9138
		l0.4866,0.8723l1.1933,0.7749l0.7885,0.2819l0.0215,9.3998l-2.4012,1.7419l-3.573,1.6148l-1.4777,0.9116l-0.2803,0.9138
		l0.8416,0.8592l1.8326,0.751l0.0251,0.0041l-0.0106,11.2302l-4.4648,3.46l-4.2302,2.1781l-0.1597,0.5683l1.3603,0.5196
		l2.6495,0.4492l0.4477,0.0442l-0.0429,13.1327l-6.3149,5.4067l-1.3744,0.8768l-3.5268,1.6761l0.1029,0.4975l0.4012-0.2025
		l1.5984,0.9228l3.477-0.4492l0.1175,1.0636l-0.0499,8.6046l-1.2573,0.3857l-1.2856,1.0965l-6.7874,0.0397l-0.4514,0.6211
		l-17.5242-0.0397l-4.2338-4.3761l-1.0725,0.8349l-17.3929-0.0442l0.0037-3.1339l0.6605-0.0663l0.2488-0.8831v-0.3234
		l-1.5061-0.8877l0.0037-2.7595l0.2022-0.0244l0.1812-0.958v-0.3239l-6.6063-6.0697l-0.0033-2.0414l0.2343-0.0419v-0.1588
		l-0.0069-0.3654l-0.2419-0.0442l-0.0142-0.3414l-0.0568-0.392l-0.0993-0.3721l-0.1317-0.3523l-0.1669-0.3239l-0.1917-0.2909
		l-0.2274-0.2485l-0.2415-0.203l-0.2699-0.1561l-0.2771-0.106l-0.3481-0.0681l-0.1171-0.0199h-0.2451l-0.1281,0.0176l-0.3339,0.0663
		l-0.284,0.1033l-0.2663,0.152l-0.2524,0.2048l-0.22,0.2445l-0.199,0.2864l-0.1705,0.3216l-0.1277,0.35l-0.096,0.3766
		l-0.0604,0.3897l-0.0142,0.3414l-0.2415,0.0419v0.1628l0.0567,0.3658l0.1848,0.0307l0.0073,2.0419l-6.6987,6.0409v0.3261
		l0.3975,0.8854l0.0142,2.8673l-1.5308,0.8809l0.0037,0.3239l0.5222,0.8877l0.4012,0.0397l0.0215,3.1582l-18.0144-0.0465
		l-0.4547-0.2927h0.5325l-0.0069-0.9007l-0.0924-0.0465h-2.6426l-0.1241-18.3481l-0.0037-0.5264l-0.0567-8.0341l-0.0037-0.5286
		l-0.0251-3.7617l0.0073-0.0023l0.3765-0.198l-1.0657-0.7424v-0.286l0.1848-0.2666h0.0178l0.3234-0.1894v-0.2864l0.4972-1.2354
		l0.2309-1.3522l-0.0497-1.3766l-0.3303-1.3017l-0.5862-1.1384l-0.7954-0.9007l-0.9769-1.4668l-0.7172-1.4073l-0.2698-1.1168
		l-0.0215-0.0902l-0.2629-2.9426l0.167-0.0636l0.2451-0.2269l0.0568-0.0681l0.1138-0.3284l0.0673-0.3216l-0.0673-0.3148
		l-0.1207-0.313l-0.2772-0.2224l-0.1989-0.0681l-0.0924-0.0131l-0.1418,0.0023l-0.1066,0.0131l-0.1848,0.0726l-0.2488,0.2246
		l-0.0531,0.0726l-0.1171,0.3261l-0.064,0.3239l0.0709,0.3126l0.1207,0.3103l0.2699,0.2228l0.2026,0.0681l-0.2236,2.9841
		l-0.2772,1.2291l-0.6892,1.4709l-0.9445,1.5484l-0.7707,0.9625l-0.5579,1.1736l-0.2982,1.3085l-0.0356,1.3608l0.2419,1.3148
		l0.504,1.1849v0.2819l0.2204,0.0176l0.2982,0.401v0.2819l-1.03,0.7975l0.3764,0.0239l0.0251,3.8655l0.0033,0.5219l0.0214,3.6999
		l0.0248,4.2286l0.0037,0.5219v0.3239l-29.032,0.0595v-0.0289h-0.2986l-0.0211,0.2977l0.1633-0.2603l-7.4729,12.1661
		l-1.4774-62.7303l1.4064-2.2422l2.7172-0.1407l1.062-0.3018v-2.1231l-0.8314-0.207l0.0037-2.7861l-0.0604-0.6739l0.9307-0.1849
		l0.0142-2.2643l-0.7958-0.1254l-1.353-0.0992l0.0106-2.9931l2.0316-0.1231l0.0142-2.4158l-0.8594-0.0663l-3.7261-0.0681
		l0.0037-2.5132l1.3781-2.3188l3.4028-0.0528l0.0211-6.4906l-0.0069-1.0374l0.0142-5.3142l-0.7387-0.1719l-4.0632-0.1958
		l0.0142-5.6119l1.4774-0.1101l1.0089-0.3085l0.0069-2.0284l-0.8168-0.3018l-3.0475-0.1935l0.0426-21.1428l-0.0426-0.6919
		l-0.5964-0.4118l-0.0073-0.0018l0.0356-18.4582l-0.0142-0.5507l-0.2593-0.2621l0.0353-20.3278l-0.0106-0.4474l-0.4153-0.544
		l-0.2168-0.097L680.9479,0l-0.8027,0.207l-0.391,0.5309l-0.0316,20.8122l-0.2274,0.2336l-0.032,19.0067l-0.643,0.4402
		l-0.032,21.7883l-1.7476,0.055l-1.3424,0.1101l-0.9733,0.35l-0.0142,2.0284l0.6961,0.2115l1.9465,0.1985l-0.0106,5.607
		l-1.7228,0.0374l-1.8716,0.0925l-1.0693,0.2467l0.0073,12.8314l3.4737,0.0505l1.1969,1.9048l-0.0036,2.9273l-2.6779,0.0262
		l-1.904,0.1015v2.4118l0.8347,0.0857l1.2006,0.0483v2.9954l-0.8525,0.0465l-1.0688,0.1651V97.81l0.7565,0.1583l1.1613,0.106v3.2638
		l-0.8274,0.0636l-1.1188,0.2557v2.1186l0.8878,0.2842l2.6459,0.1696l1.4813,2.3743l-1.6232,59.9532l-10.3036,0.0108
		l-9.8242-16.4916l-48.3572-0.2264l0.2237-0.7708l0.0073-10.1156l-0.0854-0.0023v-2.6603h0.2273h0.0142l0.0142-0.207l0.0178-0.3965
		l0.0109-0.5598l0.0106-0.6892l0.0069-0.7686l0.0036-0.7929l-0.0069-0.7641l-0.0073-0.6806l-0.0069-0.5548l-0.0142-0.3857
		l-0.0145-0.1917l-0.2521-0.0023l0.0073-13.2933l0.4651-1.903l0.2557-1.6387l0.0499-1.645l-0.1706-1.6102l-0.3728-1.5281
		l-0.5753-1.4032l-0.7565-1.2422l-0.9128-1.0437l-1.0479-0.8191l-1.1508-0.5706l-0.4761-0.1191l-0.746-0.1872l-0.5681-0.0812
		l-1.1365-0.0618l-0.6678,0.1078l-1.0798,0.2733l-1.03,0.5349l-0.9445,0.7817l-0.6678,0.6675l-0.9092,1.1759l-0.7354,1.3635
		l-0.5292,1.4997l-0.3196,1.5967l-0.0568,1.1605l-0.0284,0.4826l0.0069,0.0925l0.1349,1.5439l0.3695,1.5854l0.1669,0.4271
		l0.0073,0.511l0.2022,1.4957l0.128,0.7023l-0.0073,10.8689l-0.1528-0.0023l-0.0069,0.0686l-0.0106,0.2706l-0.0036,0.456
		l-0.0037,0.6098l-0.0073,0.7226v0.7862v0.7907l0.0037,0.7442l0.0036,0.6454l0.0073,0.5043l0.007,0.3261l0.0073,0.1277h0.1454
		l-0.0036,2.7906h-0.0353l-0.0146,10.9171l-3.5017-0.0153l0.007-10.1179h-0.0851v-2.6625l0.2274,0.0041h0.0142l0.0211-0.207
		l0.0109-0.3965l0.0142-0.5616l0.0106-0.687l0.0036-0.7708l0.0037-0.7907l-0.0037-0.7641l-0.0073-0.6829l-0.0106-0.553
		l-0.0142-0.3852l-0.0142-0.194l-0.2487-0.0023l0.0073-13.2933l0.4615-1.9052l0.2593-1.6364l0.0463-1.6427l-0.167-1.6102
		l-0.3765-1.5282l-0.579-1.4055l-0.7529-1.2422l-0.9129-1.0415l-1.0478-0.8196l-1.1508-0.5701l-0.4757-0.1213l-0.7496-0.1894
		l-0.5648-0.0789l-1.1366-0.0618l-0.6677,0.1078l-1.0795,0.2733l-1.03,0.5349l-0.9449,0.7817l-0.6641,0.6653l-0.9128,1.1804
		l-0.735,1.3613l-0.5295,1.4997l-0.3161,1.599l-0.0603,1.1583l-0.0284,0.4849l0.0073,0.0925l0.1349,1.5435l0.3692,1.5836
		l0.1669,0.4271l0.0109,0.5133l0.1989,1.4957l0.1277,0.7l-0.007,10.8711l-0.1495-0.0023l-0.0106,0.0681l-0.0069,0.2711
		l-0.0036,0.456l-0.0073,0.6098l-0.0032,0.7203l-0.0037,0.7839v0.7929l0.0069,0.7465v0.6454l0.0073,0.502l0.0069,0.3261
		l0.0073,0.1277h0.1491l-0.0036,2.7924h-0.0389l-0.0568,55.8789l-0.1207,0.1452h-5.4202l-0.1066-5.4861l-0.1171-0.0239
		l-0.2168-10.8932l0.4761-0.1254l-0.0142-0.8191h-0.483l-0.1989-10.1224l0.3942-0.6211l-0.3339-0.0023l-0.032-1.6364l0.9412-0.9995
		l0.231-0.4713l-0.0142-0.65l-1.1795-0.0023l-0.1775-8.97l0.5754-1.2047h-0.5186l-0.0284-1.2643l-1.2501-0.0045l-0.0073-0.3829
		l-1.9818-0.0113l-0.22,0.3879v0.0041l-10.0731-0.0284v-0.3857l-0.6285-0.0018l-0.0037-0.2864h-0.7957l-0.0353-0.0022
		l-0.0215-2.7509l-14.1359-0.0397l-0.0142,2.6341h-0.0356l-0.8027-0.0045v0.3726l-1.1686-0.009l-0.0033,0.3942l-10.1512-0.0284
		l-0.2201-0.3879l-1.996-0.0086l-0.0073,0.392l-0.8237-0.0022l-0.0287,1.3058l-0.7812,0.0135l0.8132,1.1475l-0.1455,6.9484h-0.3764
		l-0.032,1.3743l0.3727,0.3744l-0.0069,0.3965l-1.7974-0.0045l-0.007,0.3148l0.3125,0.903l1.0405,1.0703l-0.0106,1.7289h-0.3408
		l0.3339,0.5683l-0.0676,10.283l-0.5008,0.0199l-0.0142,0.7311l0.5045,0.2138l-0.2204,10.578l-0.0353,0.0063l-0.1138,5.4685h-6.1302
		l0.1349-23.629l-14.2639-16.6017h-0.0178l0,0l-56.2349,0.0794v-0.0221l1.4686-0.046l-0.0036-1.0176l-0.8169-0.0113l-0.0018-0.2224
		l-0.703-0.0086l-0.0091-3.5836h-0.4597l-0.0764-25.1003l-0.0037-0.5133l-0.0105-4.0017l0.3018-0.0284l-0.0036-0.9228l0.95-0.0884
		l-0.0051-1.0171l-0.1633-0.0158v-0.0595l0.9871-0.0988l-0.0033-1.055l-2.3302-0.2774l-0.0069-0.0861l-0.0142-0.1827l-0.0124-0.2048
		l-0.0127-0.2246l-0.0851-1.6959h-0.231l0.0215-0.3324l-0.032-0.4583l-0.0924-0.4163l-0.1436-0.3523l-0.1866-0.2621l-0.2186-0.1497
		l-0.2324-0.0329l-0.256-0.0884l-0.2447-0.1452l-0.231-0.2048l-0.2186-0.2643l-0.1971-0.3085l-0.1757-0.3586l-0.1509-0.401
		l-0.1244-0.4362l-0.0942-0.4668l-0.0673-0.4889l-0.0356-0.502l-0.0055-0.5133l-0.0069-2.4713l0.3124-0.0438l-0.0033-0.6784
		l-0.2735-0.2553h0.0051l0.6482-0.0929l-0.0033-0.6915l-0.3801-0.2995l0.2095-0.3063l-0.0106-0.2882l-0.0127-0.2796l-0.0106-0.2557
		l-0.0124-0.2224l-0.016-0.1917l-0.0124-0.1583l-0.016-0.1236l-0.0142-0.088l-0.016-0.0505l-0.016-0.0176l-0.7743-0.5814
		l0.2077-0.663v-0.5264l-0.2662-0.0465v-0.1322l-0.0018-0.3103l-0.0621-1.2246l-0.1135-1.1759l-0.1669-1.1037l-0.2113-1.0131
		l-0.256-0.8962l-0.291-0.76l-0.327-0.6188l-0.3481-0.4538l-0.3677-0.286l-0.3782-0.1146l-0.1258-0.0244l-0.739-2.1695
		l-0.5397-9.4152l-0.467,9.4485l-0.6892,2.1253l-0.1171,0.0217l-0.3499,0.1105l-0.3375,0.2819l-0.3193,0.4515l-0.2968,0.6143
		l-0.2663,0.7618l-0.231,0.8944l-0.1898,1.0085l-0.1404,0.9756l-0.1509,1.1389l-0.1015,1.189l-0.0266,0.6761l-0.1171,0.0176
		l-0.1582,1.0861v0.2133l-0.6321,0.4668l-0.0055,0.0199l-0.0015,0.009l-0.0055,0.0658l-0.0073,0.106l-0.0032,0.1407l-0.0055,0.1719
		l-0.0054,0.207l-0.0051,0.2359l-0.0054,0.2639l-0.0037,0.2909l-0.0018,0.3148l-0.0018,0.3347l-0.0033,0.3306l0.0106,0.0176
		l0.0018,0.4691l0.2026,0.0307l-0.3499,0.3193l0.0015,0.6784l0.6787,0.106l0.0124,3.3585v0.502l-0.0302,0.502l-0.0247,0.2007
		l-0.0676,0.2621l-0.1349,0.401l-0.1615,0.3586l-0.1815,0.3108l-0.2004,0.2621l-0.2131,0.2048l-0.2273,0.1475l-0.2364,0.0862
		l-0.2146,0.0329l-0.2007,0.1497l-0.1742,0.2621l-0.1313,0.3523l-0.0836,0.4186l-0.0247,0.4583l0.0178,0.2598l-0.0247,0.0726
		h-0.6732l-0.0106,1.9733v0.2621l-0.0018,0.2269l-1.9836,0.2133l0.0033,1.0595l0.7994,0.0862l-0.874,0.088l0.0055,1.0198
		l0.9555,0.0947l0.0036,0.9206l1.0496,0.1033l0.0211,4.8803l0.0018,0.4957l0.0746,17.5705l-1.7829-1.4492l-9.059-10.9943
		l-9.7191,11.7764l-1.4846,1.1759l-0.0444-18.1344l-0.0018-0.498l-0.0124-4.8934l1.0583-0.1037l-0.0018-0.9206l0.9591-0.0988
		l-0.0019-1.0176l-1.1951-0.1276l0.5168-0.0532l-0.0036-1.0658l-1.609-0.1741v-0.0307l-0.016-0.2445l-0.0124-0.2688l-0.0836-1.9819
		l-0.387-0.0023l-0.0709-0.1849l-0.183-0.2972l-0.2149-0.1962l-0.1742-0.0663l-0.0033-0.055l-0.0818-0.4204l-0.128-0.3545
		l-0.167-0.2621l-0.1935-0.1543l-0.2059-0.0352l-0.2273-0.0884l-0.2168-0.1497l-0.1437-0.1452l-0.0036-0.0068l-0.1509-0.4294
		l-0.1243-0.4601l-0.0979-0.4804l-0.0655-0.4952l-0.0374-0.5065l-0.0036-0.5047l-0.0087-3.3738l0.6856-0.1037l-0.0018-0.6824
		l-0.4583-0.4077l0.2735-0.4357l-0.0124-0.3306l-0.0142-0.3392l-0.0178-0.3148l-0.016-0.2927l-0.0179-0.2643l-0.0178-0.2382
		l-0.0211-0.207l-0.0196-0.1737l-0.0211-0.1434l-0.0215-0.1055l-0.0196-0.0681l-0.0051-0.009l-0.0197-0.0198l-0.4601-0.3414v-0.35
		l-0.2735-0.5882l-0.0604-1.2048l-0.1153-1.198l-0.1669-1.1452l-0.2168-1.0749l-0.2626-0.9779l-0.3004-0.8656l-0.3266-0.7641
		l-0.2877-0.6211l-0.3109-0.4583l-0.3248-0.2905l-0.3357-0.1191l-0.0887-0.0153l-0.6979-2.1123l-0.5525-9.5712l-0.4917,9.4743
		l-0.7514,2.1718l-0.1349,0.0244l-0.403,0.1101l-0.3888,0.2819l-0.3695,0.4538l-0.3426,0.6166l-0.3073,0.7641l-0.2666,0.9007
		l-0.22,1.0153l-0.1669,1.1123l-0.1153,1.1872l-0.0553,1.2332v0.313v0.1254l-0.284,0.055l0.0036,0.5286l0.2822,0.4447l0.0018,0.2864
		l-0.7263,0.5331l-0.0302,0.0528l-0.0284,0.088l-0.0284,0.1236l-0.0269,0.1606l-0.0247,0.1917l-0.0229,0.2269l-0.0215,0.2553
		l-0.0215,0.2842l-0.0142,0.2887l0.2008,0.2972l-0.4157,0.3126l0.0036,0.6982l0.6928,0.0992h0.0124l0.0124,3.4816l-0.0018,0.5178
		l-0.0338,0.5088l-0.0691,0.4912l-0.0978,0.4691l-0.1295,0.4402l-0.16,0.4032l-0.1844,0.359l-0.2099,0.3126l-0.2291,0.2643
		l-0.2466,0.2048l-0.2612,0.1452l-0.263,0.0816l-0.2593,0.0329l-0.2306,0.152l-0.1989,0.2643l-0.1527,0.3523l-0.096,0.4231
		l-0.0302,0.4601l0.0356,0.4673l0.0426,0.1958l-0.0407,0.5155l-0.2949,0.0374l0.0054,1.5128l-2.4473,0.2887l0.0036,1.0681
		l1.0104,0.1015l0.0036,0.9734l0.4404,0.0419v0.0947l0.6696,0.0613l0.0197,5.0368l0.0018,0.5201l0.0938,25.3579l-0.467,0.0045
		l0.0124,3.6318l-0.1117,0.0023l0.0018,0.2156l-1.442,0.0266l0.0036,0.9648l-30.8116,0.0437l-9.0765,10.7827l-0.9376,0.009h-0.6979
		l-0.2735,1.3676l0.7012-0.0023l0.0018,0.0641l-4.2142,5.008v0.0749h-0.0604v-1.0942l-0.0371-1.2467v-19.7243l-0.595-5.5943
		l-0.5026,4.5723l-0.1117-1.0505v-4.4379v-14.3442l-0.0782-1.1186v-5.3278l-0.0782-0.1543v-16.599v-4.317l-5.2725-36.7576
		l-5.2762,36.1586v17.7622v2.667l-0.0782,0.1588v5.3273l-0.0764,0.6324v8.0142l-43.0649,0.3545l-2.4615-19.6472l-0.3943,3.1073
		l-0.8914-7.109l-2.7932,21.975v7.6579v7.6579v3.0942l-0.0302,0.0794l-11.3569,0.0925l-9.238,12.0159v1.3856l-1.0354,1.8344v9.5717
		l-0.2026-0.7181l-0.0462,0.1565l-0.3586-1.4163l-1.5308,5.2791v0.2377l-7.7268,0.064l-0.2044,5.3846v0.0771l-8.5542,0.0023
		l-4.9067,0.0045v-0.3965v-0.1917l0.0353,0.0045l0.3073-0.1452l0.1349-0.1985l0.1953-0.0988l0.2132-0.3193l0.0585-0.4077
		l-0.1153-0.392l-0.2539-0.2706l-0.1724-0.0356l0.0407-0.0329l0.0411-4.2881l2.2498-2.4839l0.0091-0.8592l0.3106-0.8543
		l-25.0487-8.8383l-0.0073-0.0618l-0.119-0.0483l-0.1935-0.1872v-0.0726l0.0906-0.1258l-0.0444-0.0771l-0.1313,0.0113v-0.3613
		l-0.0284-0.2422l-0.0658-0.0794l-0.032-0.1123l0.0283-0.1344l-0.016-0.055h-0.0585l-0.0517,0.0419l-0.2859-0.0266l-0.0211-0.0681
		l0.0247-0.0573l-0.016-0.1123l-0.0498-0.0221v-0.0505l0.0287-0.0595l0.0604-0.0374v-0.143l-0.0571-0.0487l-0.0924-0.0199v-0.0812
		l0.064-0.1168l-0.032-0.1277l-0.0746-0.0442l-0.0567,0.0153h-0.0745l-0.0233-0.1628l-0.0869-0.0419l-0.0764,0.0419l-0.2324-0.0266
		l-0.0553-0.3789h-0.0513l-0.2913-0.7045v-0.3216l0.0906-0.0131l0.252-0.1894v-0.2643l-0.188-0.1344l-0.0891-0.0108l-0.2128,0.0658
		v-0.0505l-0.0338-0.1037l-0.1262-0.1123l-0.1226-0.0397h-0.1349l-0.1473,0.0686l-0.1262,0.1719l-0.2328-0.0374l-0.2379,0.2025
		l-0.0247,0.0374l-0.0251,0.1583l0.0375,0.1037l0.0691,0.1123h0.1193l0.0851-0.0704l0.0677,0.0659v0.2467l-0.0873,0.3811
		l-0.2786,0.5859l0.0051,0.0988l-0.1084,0.1281l-0.0476-0.0708h-0.0782l-0.4495,0.4362v0.0749l0.0658,0.1565h-0.0709l-0.0393,0.1583
		l0.0393,0.1434l-0.0233,0.1872h-0.188l-0.016-0.0487h-0.0676l-0.1418,0.1236v0.1497h0.0655v0.0749l-0.0495,0.0636l-0.0782,0.1786
		l-0.032,0.1782v0.2251l-0.1458,0.1299l0.0444,0.2287l-0.2699,0.1985l-0.0087,0.11l-20.2097,7.1532v-0.1782l-0.0778-0.0663v-0.0902
		l0.0302-0.0262l-0.0215-0.1786l-0.1385-0.0244l-0.0051-0.1123l-0.0269-0.1186l-0.1153-0.0334l-0.0247-0.055l-0.0571-0.0591
		l-0.0655-0.0221l-0.0444,0.0397h-0.0535v0.0415h-0.0709v-0.0415h-0.0567l-0.0411,0.0812h-0.1313v-0.0659l-0.0676-0.1322
		l-0.1561-0.1475l-0.144-0.0839l-0.2291-0.0176l0.0178-0.1764l-0.0302-0.0415l-0.0851-0.0199l-0.0444,0.0573l-0.0906,0.1894
		l0.0124,0.0591v0.0862l-0.0408,0.0374l-0.0942,0.0284l-0.0124,0.0334l-0.1157,0.0198h-0.1367l-0.0549-0.0334l-0.016-0.0704
		l0.0371-0.0925l-0.0142-0.0681l0.0302-0.161l0.0942-0.0419l0.0782-0.0239l0.064-0.0352l0.0124-0.0442h0.2008l0.0691-0.055
		l0.144-0.0199l0.0851-0.1434l-0.0036-0.1628l-0.0211-0.1718l-0.0411-0.0374l-0.3586-0.0613v-0.0221l-0.1564-0.0311l-0.0124-0.0374
		h-0.1509v-0.0613l-0.1226-0.0794l-0.1848-0.097h-0.156l-0.1422,0.0771v0.0483l-0.032,0.1434v0.1344l-0.0498,0.0199l-0.0229-0.0532
		l0.0229-0.055l0.0375-0.046v-0.1168l-0.0498-0.0595l-0.0444-0.0198l-0.0407,0.0131l-0.0215-0.0131l-0.0389-0.0947l-0.0585-0.088
		h-0.0695l-0.0975-0.0266l-0.16,0.0199l-0.1066,0.0464l-0.0284,0.0438l-0.0124,0.0708l0.016,0.0613l0.0407,0.0334l0.016,0.2882
		h0.0338l0.0088,0.0198l0.0127,0.1367l0.1258,0.0925l0.0036,0.2512l-0.1848,0.3058l-0.0604,0.1213l0.0124,0.1146l0.0942,0.1606
		l0.0123,0.106l0.0375,0.1362l-0.0124,0.5949l-0.1029,0.4096l-0.016,0.0198l-0.0429,0.1123h-0.0673l-0.1189,0.2445v0.2842
		l-0.0302,0.0397l-0.0269,0.3193l-1.0635,0.3807l0.307,0.8525l0.0109,0.857l2.2535,2.3851l0.0462,4.3824l0.0389,0.0334
		l-0.1829,0.0374l-0.2539,0.2684l-0.1102,0.3902l0.0571,0.4118l0.2131,0.3171l0.2539,0.1231l0.1153,0.1741l0.3055,0.1452
		l0.0124-0.0045v0.1876v0.3942h-4.4164l-7.4162,0.0041l-0.355-17.11l-0.0516-2.4911l0.7601-0.4515l-0.0356-1.6562l0.0462-0.0176
		l0.1386,0.2336l0.5859-1.1741l-1.7563-2.8078l-0.5292-1.7311l-2.1258-4.5281l-3.0845-3.9007l-3.8643-3.1028l-4.7594-2.3811
		l-3.0831-1.5241l-2.93-0.5241l-1.1617-0.0947l-0.0033-3.4708l0.3481-0.3744l0.1473,0.0528l-0.0036-1.907l0.0567-0.018
		l0.2524-1.7839l-0.0036-1.6184l-1.0478,0.392l-0.1208,0.1718l-0.0567,0.1452l-0.0178,0.2905l0.0302,0.1322l-0.0942,0.1917
		l-0.1349,0.2621l0.0036-0.2467v-0.3239h0.1153l0.2131-1.189l-0.332-0.7135l-0.6198-0.0045v-0.9955l0.9554,0.3194l0.0087-1.6341
		l-0.2255-0.1101l0,0v-0.553l-0.6445-1.2882l-0.4048-3.1803c0,0-1.9429-0.7402-2.8132,0.7533l0.0302,0.3965l-0.0815,0.1917
		l0.0284,0.2133l0.0905,0.1434l0.1811,0.1362l0.0105-0.0023l0.1829,0.6585l0.064,0.207l-0.1706,0.2711l-1.7952-0.1299
		l-0.6892,0.5507l2.6445,2.7022l0.092,2.8123l-1.4152-0.5485l-0.0073,1.6959l0.1029,1.5881l0.1298,0.046l-0.0018,0.5065
		l0.0499,1.4447l0.1669-0.0595l0.0018,0.0045l0.3692,0.401l-0.0105,3.451l-1.1224,0.0839l-2.9463,0.4953l-3.4504,1.6761
		l-4.4593,2.1695l-3.896,3.0897l-3.1187,3.8939l-2.1556,4.5416l-0.5063,1.6296l-1.8116,2.9246l0.59,1.1849l0.1367-0.2332
		l0.0476,0.0153l-0.0407,1.6671l0.767,0.4668l-0.0586,2.4934l-0.5859,25.2235h-7.0325l-0.1829-12.6812l0.483-0.1385l-0.0407-2.8127
		l1.2253-1.6914l-1.2519-0.1452l-0.0695-4.7482l-0.7616-0.1101l-0.16-0.5836l-0.8685-0.7555l0.4884-1.064l-0.2342-0.4095
		l0.8718-2.2309l-0.2008-0.1434l-0.8096-0.2309l0.0673-1.0419l-0.5859-0.8831l-0.563,0.8809l0.0997,1.0703l-1.0034,0.3437
		l0.934,2.2331l-0.2237,0.4096l0.5168,1.064l-0.8452,0.7533l-0.128,0.5151l-6.324-0.0086l-0.1418-0.5178l-0.8649-0.7573
		l0.4917-1.0618l-0.2342-0.4095l0.8791-2.2331l-0.2451-0.1434l-0.7656-0.2269l0.0713-1.0482l-0.5845-0.8831l-0.5663,0.8809
		l0.0956,1.0703l-1.0049,0.346l0.9285,2.2354l-0.2255,0.4073l0.5168,1.0663l-0.1633,0.1452l-12.7633-10.0232h-0.3462l-0.0302-4.3364
		h-0.6572l-0.0105-1.7884l-0.1102-0.8877l-2.5714-0.0086l-0.0248,0.3635h-0.1528l-0.0818,1.2354l0.0055,1.0767h-0.1262
		l-0.499,0.9693l0.0196,3.3653l-22.2126-0.055l-0.6856-1.0618l0.0196-8.7255l-0.3535-0.5047l-0.9733-0.4777l-1.5432-0.4253
		l-2.012-0.3302l-2.3426-0.2156l-2.4932-0.0816l-2.4524,0.0658l-2.2288,0.2007l-1.8309,0.3194l-1.3108,0.4141l-0.7067,0.4777
		l-0.0713,0.5002l-0.0691,8.4283l-0.9944,1.3676l-20.3268-0.0483l0.0498-3.3783l-0.7158-0.6387l0.0211-1.4249l-0.1757-1.2381
		h-0.3357l-0.0513-0.3654l-2.5965-0.0068l-0.2237,0.8922l-0.0302,1.7925h-0.7583l-0.0713,4.3567l-0.7048-0.0045l-5.997,4.2173
		l-0.2309-0.3631l-0.6005,0.8831l0.0036,0.0613l-7.9788,5.6074l-0.5877-0.5241l0.5343-1.0726l-0.2237-0.4118l0.9642-2.2485
		l-1.014-0.3505l0.1084-1.0766l-0.5648-0.8899l-0.6019,0.8899l0.0586,1.0392l-0.9143,0.2382l-0.1138,0.1452l0.8685,2.2507
		l-0.2415,0.4141l0.4848,1.0681l-0.794,0.6676l-0.0906,0.0947l-0.1473,0.5196l-6.8797-0.0108l-0.1084-0.4515l-0.8488-0.7623
		l0.5364-1.0703l-0.224-0.4095l0.9715-2.2444l-1.0122-0.35l0.112-1.0748l-0.5612-0.8877l-0.579,0.8281l-0.0248,0.0573l0.0549,1.0352
		l-0.9627,0.2422l-0.0655,0.1457l0.8594,2.2417l-0.204,0.3437l-0.0375,0.0704l0.4794,1.0618l-0.8292,0.6739l-0.0531,0.0947
		L1.817,173.116l-0.359,0.0591l-0.1189,4.7531L0,178.1063l1.2911,1.7113l-0.0727,2.8344l0.7601,0.1412l-0.3197,12.8021H0v27.0146
		h999.0359v-27.0146H980.4421z M138.3091,195.5952h-1.2166l0.0069-0.3347l1.0285-0.0023v0.0045l0.0797-0.0573l0.1102-0.0749
		L138.3091,195.5952z M153.331,187.5788l0.032-6.9245h0.0393l0.0014-0.5106l0.0764-0.4452l-0.0033-0.0023l0.0033-0.0217h-0.0335
		l-0.0516-0.0419h-0.0036l0.0054-0.0244h-0.0178l0.16-0.9513l0.3641-0.9359l0.5379-0.7907l0.6765-0.6035l0.7743-0.3766
		l0.1262-0.0198l-0.0073,2.4447l0.8296,0.9666v0.1872l0.1331,0.0068h0.2379l0.2008-0.0022l0.0516-0.0068v-0.189l0.8347-0.9779
		v-2.414l0.0476,0.0068l0.7743,0.3789l0.675,0.6013l0.5343,0.7925l0.3641,0.9341l0.1564,0.9512h-0.0036l-0.0974,0.0659
		l0.0036,0.0244h-0.0036l0.0745,0.4452v0.5083h0.0389l0.016,6.9245H153.331z M416.7205,195.5952l-0.0393-18.174l0.2131-0.0217
		l-0.0018-1.0352l-0.1528-0.0176l-0.0069-3.1384l-0.0622-0.0045l-0.032-14.5733l0.1011-0.0063l-0.0069-2.9007l0.5077-0.0131
		l-0.0018-0.6148l-0.5182-0.0131l-0.0037-1.7419h-0.0905l-0.0106-5.2484l6.2866-7.422l0.6092,0.7113l0.435,0.5043l0.0069,0.0068
		l0.0127,0.0153l0.0229,0.0266l0.0302,0.0374l0.0425,0.0482l0.0251,0.0289l0.0266,0.0307l0.3248,0.3766l0.9609,1.1186l0.6659,0.7754
		l1.2253,1.4226l1.9055,2.2115v0.7397l0.0018,1.3789l0.0037,2.1912v1.0334l-0.0818,0.0041l0.0127,1.7356l-0.547,0.0199
		l0.0033,0.6143l0.5364,0.009l0.0178,2.8917h0.0658l0.0211,17.6738l-0.0924,0.0135l0.0055,1.0329l0.0887,0.0063l0.0233,18.2665
		H416.7205z M538.8206,195.5952h-4.8088l0.0069-0.7266h-0.3906l0.1171-8.4395l0.391-0.0307l0.0106-0.5241h-0.2488l0.1138-1.0045
		l0.3266-0.9314l0.5045-0.7997l0.6536-0.6121l0.7529-0.3857l0.6074-0.0988l0.1422,0.0726l0.735,0.7068l0.5576,0.9206l0.3481,1.0748
		l0.1102,1.1366l-0.284,0.0194l-0.0073,0.6058h0.4476L538.8206,195.5952z M553.809,195.5952h-8.9681l0.0037-1.1493l-0.4866,0.0022
		l0.0709-14.6108h0.3553l0.0037-0.401l-0.2346-0.3216l0.1066-1.2882l0.4689-1.5065l0.7743-1.295l1.0231-0.9955l1.2002-0.6256
		l1.2861-0.2133l1.2856,0.2156l1.1933,0.6279l1.0228,0.9955l0.7743,1.2972l0.4688,1.5065l0.0997,1.156l-0.3837,0.4492v0.4032h0.3586
		l0.0604,14.5972h-0.4863L553.809,195.5952z M564.6171,195.5952h-4.699l-0.0782-9.0187h0.4478l-0.0073-0.6035l-0.2841-0.0194
		l0.1102-1.1366l0.3444-1.0748l0.5576-0.9183l0.7318-0.7027l0.1171-0.0636l0.5434,0.088l0.7496,0.3879l0.6462,0.6098l0.5009,0.7975
		l0.3233,0.9314l0.1135,1h-0.2484l0.0105,0.5219l0.3873,0.0307l0.1135,8.4197l-0.3906,0.0023L564.6171,195.5952z M728.9602,176.9192
		l-0.0068-1.0063h0.8666L728.9602,176.9192z"/>
	<polygon   points="441.9201,80.5169 442.1667,80.2372 442.3551,79.8692 442.4722,79.4443 442.5133,78.9838 
		442.4704,78.526 442.3482,78.0966 442.158,77.7285 441.9092,77.4443 441.6201,77.2662 441.3252,77.2044 441.3215,77.1845 
		441.3091,77.2021 441.0018,77.2594 440.7123,77.4358 440.4657,77.7154 440.2773,78.0808 440.1602,78.5084 440.1194,78.9662 
		440.162,79.4267 440.2846,79.8538 440.4763,80.2237 440.725,80.5056 441.0145,80.6865 441.3091,80.746 441.3109,80.7613 
		441.3233,80.7478 441.6324,80.6905 	"/>
	<polygon   points="404.4383,80.3274 404.7191,80.2747 405.0101,80.1006 405.2607,79.8209 405.4542,79.4529 
		405.5731,79.0212 405.6142,78.5611 405.5713,78.0966 405.4487,77.6649 405.2534,77.2923 405.0013,77.0064 404.71,76.8255 
		404.3958,76.7597 404.3656,76.7376 404.3601,76.7637 404.0797,76.8147 403.7884,76.9906 403.5382,77.2702 403.3462,77.6383 
		403.2254,78.0677 403.1865,78.5282 403.229,78.9905 403.3534,79.4244 403.5469,79.7988 403.799,80.083 404.0921,80.2656 
		404.4045,80.3319 404.4347,80.3473 	"/>
</g>
</svg>
