<?xml version="1.0" encoding="utf-8"?>
<!-- Generator: Adobe Illustrator 18.1.1, SVG Export Plug-In . SVG Version: 6.00 Build 0)  -->
<svg version="1.1" id="oslo" xmlns="http://www.w3.org/2000/svg" xmlns:xlink="http://www.w3.org/1999/xlink" x="0px" y="0px"
	 viewBox="0 0 1000.5925 161.4113" enable-background="new 0 0 1000.5925 161.4113" xml:space="preserve">
<path   d="M986.648,133.9626l-21.4822-4.7342l-9.463-1.9413l-5.2755-0.0175l-17.2507-3.2087l-0.1641-0.8795
	l-2.0196-10.8723l-0.3439-1.8433l-0.0157-0.513l-41.3707,0.9249l-0.3439-11.2699l-2.9677-1.9445l-30.7411,1.2045l-0.4558,11.7622
	l-3.0267-0.5656l-0.8137-0.1048l-37.4409,0.1291l-0.0121,5.0767l-19.5602,0.0279l-0.0229,6.836l2.8612,0.0036v0.9285l-20.941-0.0347
	v5.6033v3.3377v2.095h-7.0841l0.4662-50.5441l0.0139-0.597l15.5018-22.6449l2.2656-4.3223l0.0193-0.6843l-11.469-2.5348
	l-11.2996,3.4775l-0.0139,0.6668l1.6041,4.0989l-0.0314,0.0036l-0.0787,0.1326l-1.2516-1.2323l-0.1902,0.0311l-4.0517,6.7838
	l-2.9623,4.4793l-3.1669,4.3223l-3.3671,4.1686l-3.5701,4.0013l-3.7707,3.83l-3.9694,3.6448l-4.1672,3.4529l-4.3656,3.2573
	l-4.5598,3.0517l-4.7499,2.8279l-4.8672,2.5627l-6.6647,2.5694l-7.0037,1.9517l-1.0771,0.178l-1.2116,0.1852l-1.2184,0.178
	l-1.2238,0.1605l-1.2324,0.1537l-1.2377,0.1362l-1.2409,0.1219l-1.2485,0.1119l-1.2567,0.0976l-1.2638,0.084l-1.2674,0.0697
	l-1.2813,0.0629l-5.1289,0.2059l0.014,2.4929h-0.0333l0.035,5.9283l-1.5781,0.3629l-3.0689,0.8766l-3.2419,0.9842l-3.2205,1.1523
	l-3.1858,1.3092l-3.144,1.4733l-1.5956,0.8452l-1.4962,0.7922l-3.0303,1.7843l-2.9609,1.9409l-2.1558,1.5573H642.095
	l-0.2374-74.5017l-0.0347-9.842l-0.0647-20.2009h-13.6198l-0.5341,1.0404h-3.0986v-1.0439h-13.6248l-3.8651,13.8046l0.0247,24.4989
	l0.0139,12.4919h-1.3739v-1.0754h-13.213l-0.1066,1.0754h-12.6402l-0.4626-1.0754h-13.213v1.0754h-0.5395l0.0193-12.4919
	l0.0365-24.5021l-5.5425-13.8082l-13.6248-0.0036l-0.0035,1.0439h-2.9713l-0.6596-1.0439l-13.6266-0.0036l-0.0769,20.2113
	l-0.0368,9.8423l-0.281,74.5085H520.89l2.1418-0.8555l0.0157-7.0802l1.5587-0.5692l0.147-0.1083l-0.009-0.0104l0.009-0.0107
	l-8.369-10.0096l0.0018-0.4923l1.3582-0.3489l0.0018-0.3246l0.0576-0.1609l-7.3823-15.8575l-12.7889-0.611l-1.6864-1.9588
	l0.0125-8.5292l-3.0796-0.0837l-0.9338,0.0733l-0.0086,6.5393l-19.2846,2.1855v-0.1991l1.1262-0.1291l-2.4565-1.8469l0.0018-7.1013
	l0.0962-0.0036l0.3021-0.0315l0.1169-0.0315l-0.1623-0.5935l-0.325-0.4644l-0.3507-0.3035l-0.2757-0.4329l-0.1694-0.7018
	l-0.2059-0.8484l-0.1591-0.1991l-0.1938-0.2442l-0.2234-0.1083l-0.0068-0.0036l-0.0104,0.0036l0.197,0.1187l-0.2145-0.1119
	l-0.709-6.2983l-0.0068-0.0279l-0.0107,0.0211l-0.0032,0.0279v-1.5888c0.1988-0.0068,0.3596-0.1745,0.3596-0.3768
	c0-0.2027-0.1609-0.3632-0.3596-0.3772v-0.0071h0.0018h0.0014l0.0125-1.4383l0.1376,0.1712l0.0454-0.0561l-0.1466-0.1816h0.0104
	l0.4941-0.0032h0.049V72.302h-0.049l-0.4941,0.0036h-0.0104l0.1466-0.1884l-0.0454-0.0561l-0.1169,0.1466v-0.6178l-0.0189,0.6425
	l-0.0018,0.0036l0.0207-0.646l-0.0486-0.0036l-0.0157,0.0036h-0.049v0.6178v0.0036v0.0104l-0.1276-0.157h-0.0347h-0.0089v0.0558
	l0.1452,0.1852l0.0261-0.035v0.035h-0.0261h-0.5413v0.0801h0.0472h0.4748h0.0193h0.0261v0.0315l-0.0261-0.0315l-0.1452,0.1852
	l0.0436,0.0526l0.1276-0.1573v0.0104V72.48l0.0225,1.4104h0.0036h0.0036h0.0068v0.0071c-0.2006,0.0139-0.3611,0.1745-0.3611,0.3772
	c0,0.2024,0.1605,0.37,0.3611,0.3768v1.5537l-0.0032-0.0104h-0.0107l-0.0121,0.0418l-0.6721,6.2879l-0.0104-0.0036l-0.0315-0.0104
	l-0.0225,0.0036l-0.2288,0.1012l-0.192,0.241l-0.1623,0.1988l-0.2059,0.8484l-0.1695,0.6982l-0.276,0.4329l-0.3489,0.3039
	l-0.3246,0.4608l-0.1623,0.5935l0.0661,0.0315l0.2549,0.0315l0.1798,0.0104l-0.0018,7.1749l-2.4718,1.9166l1.1415,0.0522v0.3668
	l-9.9171-0.4748l-0.0261-9.9296l0.6196-0.0418v-0.2024l-0.6196-0.0211l-0.0229-9.3429l1.1891-0.0243l-2.4579-1.5502l-4.5493-0.0139
	l-0.0976-0.0733l-1.1959-0.9603l-1.2763-1.1172l-0.7576-0.754l-0.7558-0.9113l-0.4101-0.8101l-0.0804-0.2199l-0.054-0.2199
	l-0.0454-0.3039l0.0068-1.1626v-0.0032h0.0297h0.0107l0.5881,0.0139v-0.5377l-0.138-0.0036l-0.0032-6.787l0.6893-0.0526
	l0.049-0.9217l-1.6567-7.866l0.0036,2.4057l-1.2341-0.0175l-0.6199-2.814l-0.232,2.4683l-0.4694,0.0243l-0.3389-1.7035l-0.37,1.735
	l-0.1501,0.0071l-0.0522-0.0561l-0.3057-0.321l-0.1098-0.1326l-0.0543-0.1151l-0.0365-0.1155l-0.0315-0.1673l-0.0193-0.1748
	l-0.0418-3.1561l-0.035-8.4384l0.1483-0.0315l0.4766-0.2027l0.0315-0.0837l-0.0018-1.3232l-0.157-0.0454l-0.8641-2.6324
	l0.1956-0.1641l-0.0018-3.2226l-0.1047-1.8959l-0.6721-0.0175l-0.0279-0.1115l-0.0018-6.9443l0.1048-0.0139l0.2792-0.0944
	l0.3893-0.2546l0.0243-0.1083v-0.9009l-0.1394-0.0629l-0.6618-1.6581l-0.0036-3.5891l-0.0697-0.3632l-0.2006-0.2967l-0.3021-0.1991
	L438.716,16.87l-0.9041-0.2689l-0.054-0.0104l-0.0036-0.4397l-0.0822-2.2312l-0.0329-0.3597l-0.1065-1.1344l-0.3475-1.2359
	l-0.0243-0.0561L436.4154,9.28l-0.0472-0.1012c0.4154-0.0876,0.7279-0.454,0.7279-0.8938c0-0.4437-0.3125-0.8101-0.7297-0.8938
	V7.3701c0.1083-0.0593,0.1852-0.1677,0.1852-0.3003c0-0.1291-0.0769-0.241-0.1852-0.3003l-0.0018-4.1407l0.295,0.3457l0.1205-0.0243
	l0.0315,0.0104V2.7929l-0.2985-0.3561c0.0157-0.0315,0.0229-0.0661,0.0261-0.1012l1.3496-0.2653l-1.3443,0.241
	c0-0.0036,0.0018-0.0036,0.0018-0.0036l1.3425-0.2374V1.833l-0.1606-0.0418l-1.2763,0.2545l0.3596-0.5688V1.3092l-0.0332-0.0104
	l-0.1205,0.0279l-0.2932,0.4644l-0.0018-1.7493L436.2005,0l-0.1695,0.0347l0.0018,1.8365l-0.295-0.3457l-0.0315-0.0068
	l-0.1205,0.0243v0.1677l0.3336,0.3911c-0.0104,0.0207-0.0243,0.0347-0.035,0.0558L434.5213,2.43v0.2338l0.1641,0.0418l1.2288-0.2442
	c0.0053,0.0032,0.0089,0.0139,0.0139,0.0207l-0.3421,0.5377v0.1677l0.1223-0.0279l0.0315,0.0104l0.2932-0.4644l0.0054,4.0638
	l0.0053-0.0032l0.0175-0.0107l0.0383-0.0104h0.0018h0.0018l0.005-0.0036l0.0107-0.0036h0.0032l0.0139-0.0032h0.0071h0.0157
	c-0.1677,0.0243-0.2985,0.1641-0.2985,0.335c0,0.1291,0.0733,0.2374,0.178,0.3003v0.0175c-0.433,0.0697-0.7647,0.4433-0.7647,0.8974
	c0,0.4537,0.3318,0.8237,0.7665,0.897v0.0139l-0.035,0.0733l-0.7401,1.8612l-0.0243,0.0593l-0.3457,1.3267l-0.103,1.1172
	l-0.0332,0.3525l-0.0751,2.2623l-0.0054,0.335l-0.4834,0.0454l-0.1012,0.0175l-0.0561,0.0247l-0.2985,0.1884l-0.4137,0.3421
	l-0.04,0.035l-0.1151,0.1502l-0.0611,0.1219l-0.0193,0.0422l-0.0472,0.1709l-0.0122,0.1466l0.0036,3.6556l-0.5674,1.4522
	l-0.2935,0.2234v0.8974l0.8641,0.2167l0.0054,7.0173l-0.646-0.0172l-0.0819,2.0947l0.0036,3.2226l0.2234,0.0032l-0.9027,2.7968
	l-0.2968,0.1466v1.3196l0.8223,0.1362l-0.0157,6.117l-0.0053,2.5137l-0.0311,3.1701l-0.0193,0.1709l-0.0139,0.0665l-0.0175,0.0944
	l-0.0383,0.108l-0.0472,0.0908l-0.0089,0.0139l-0.108,0.1362l-0.0944,0.1048l-0.4451-0.0383l-0.5255-2.4404l-0.459,2.3878
	l-0.1587-1.592l-0.4644,1.9763l-1.6828-0.0175l0.0382-2.3742l-1.7021,7.8624l0.0561,0.9356l0.789-0.0068l0.0068,6.9583
	l-0.1501,0.0279v0.5377l0.6371,0.0175h0.0089h0.0279l0.0122,1.1905l-0.04,0.3071l-0.0193,0.0804l-0.0297,0.1362l-0.0769,0.2163
	l-0.2617,0.5098l-0.1502,0.2932l-0.7018,0.9077l-0.4959,0.5134l-0.2252,0.2338l-0.0697,0.0665l-1.1555,1.0296l-1.1576,0.9428
	l-0.2513,0.1888h0.0472h0.0104h-0.0576V74.54l-5.0467-0.0139l-3.1404,1.6095l1.8365,0.0139l0.0401,9.5349l-0.7054,0.0347v0.2131
	l0.7054,0.0211l0.1466,33.8936l0.0593,14.1157h-11.277l1.7772-45.2268l0.0594-1.4944l0.178-4.5737l-3.7199,0.5516l-0.1433,3.8161
	l-9.5224-0.9009l0.1151-3.3549l-3.7828,0.0139l0.04-1.1905l-2.39,0.4748l-0.0226,0.7225h-0.5413l-0.0872,2.706l-0.0347-0.0036
	l-2.4529,0.3318l0.103-3.3728l-1.3947,0.2792l-0.0926,3.0306h-0.6285l0.0822-2.6917l-1.9152,0.3804l-0.0662,2.3181l-5.4885,0.0107
	l-2.7457-0.2796l0.0697-2.7439l-2.2259,0.5409l-0.0504,1.9728l-3.9594-0.4086l-10.0461,0.0247l-0.0994-0.0561l-0.0908,0.0561
	l-6.2375,0.0139l-33.7034-5.5025l0.0279-6.047l5.0277,0.2131l0.0279-4.1654l-5.0381-0.2513l-0.0104-0.0068l-0.0229-0.0071
	l-0.04-0.0068l-0.0526-0.0036h-0.0594h-0.0626h-0.0611l-0.0594,0.0036l-0.049,0.0032l-0.0386,0.0071l-0.0225,0.0068l-0.0071,0.0036
	l-0.0436,10.2542l-33.6337,5.6594l-14.5973,0.0315l-5.9858,0.6389l-0.0368-2.1472l-2.533-0.513l0.0526,2.9291l-0.227,0.0211
	l-4.5036,0.0104l-0.0422-2.2484l-2.0196-0.3632l0.0522,2.6184h-0.7837l-0.0593-2.943l-1.4733-0.2653l0.0715,3.4493l-3.0635-0.4015
	l-0.0751-3.4039l-2.5033-0.4437l0.0261,1.1487l-4.736,0.0139l0.0804,3.233l-9.3078,0.8906l-0.1048-3.652l-3.8511-0.5062
	l0.1326,4.392l0.0418,1.4383l1.3478,44.9651h-20.6181l0.2603-15.2955l-6.7942-0.66l0.0504-3.5891l-0.1326-9.1824l-2.6342-8.8366
	l-4.9333-7.7891l-6.8324-6.1342l-8.1767-4.0184l-0.508-0.241L177.0734,78l-1.6478-0.1816l-1.4715-0.0872l-0.0436-6.0016
	l-0.7404,0.0418l-0.5184-0.1083l-0.7175-0.0944l-0.8655-0.0593l-0.9567-0.0243l-0.9778,0.0104l-0.9249,0.049l-0.3196-0.1083
	l0.0036,0.1398l-0.4941,0.049l-0.6353,0.1048l-0.419,0.1291l-0.1763,0.1326l0.0715,0.1362l0.3157,0.1255l-0.7122,0.0454
	l-0.0661,5.4499l-1.6113,0.1119l-1.6288,0.1884l-1.0858,0.227l-7.8728,3.9173l-0.7404,0.3736l-6.7645,6.1167l-4.8772,7.7266
	l-2.6152,8.7387l-0.0976,5.3663l-2.8383,1.8784l0.0068,0.5863l-2.8522-0.2756l0.0329,2.5905l-11.1162,0.7819l0.0872-13.0539
	l-12.5287-0.0175l0.0854-15.4807h-0.6092l0.0261-5.1914l-2.6009-0.1956l-8.236,0.0139l-4.785,0.2724l-1.8959,0.897l-0.0175,5.0138
	l-0.419,0.1326l-0.0311,8.4559l-49.9315,0.0107l-0.0105-8.4037l-0.2217-0.1362l-0.0052-4.9855l-0.9915-0.8906l-3.3744-0.192
	l-8.0859,0.0175l-3.624,0.2617l0.0122,5.066l-0.5255,0.0036l0.0401,15.4281l-4.0814-0.0872L0,103.2386l0.1466,30.7239H0v27.4488
	h1000.5925v-27.4488H986.648z M469.0088,72.2705l0.0068-0.0243v0.0593h-0.0068V72.2705z M469.0088,72.3856h0.0068v0.0561
	l-0.0068-0.0211V72.3856z M471.285,86.8156l0.0036-0.035l0.0068,0.035H471.285L471.285,86.8156z M471.2779,86.941v-0.0068
	l0.0229,0.0068l-0.0229,0.0071V86.941z M471.2729,87.133l0.0018-0.0068l0.0297,0.0068l-0.0315,0.0107V87.133z M471.2711,87.3565
	l0.0347,0.0107h-0.0347V87.3565z M470.0752,86.861l0.2095,0.0454l-0.2234-0.0418L470.0752,86.861z M469.6319,82.5283l0.0175-0.0071
	l0.0207-0.0036l0.1748,0.1155l-0.2184-0.1048H469.6319z M469.3455,87.4998l0.1816-0.0036l0.035-0.2024l0.1098-0.0107l0.0386-0.2302
	l-0.035,0.0207l0.0121-0.0172v-0.0036l0.0104-0.0072l0.0297-0.0243l0.138-0.1048l0.1852-0.0454l0.0715,0.0211l0.0944,0.0558
	l0.0837,0.0733l0.0665,0.0944l0.0504,0.1048l0.0297,0.1115l0.0121,0.1258l0.1609,0.0104h0.1795l-0.0014,3.4807l-1.4526-0.0522
	V87.4998z M467.1862,87.458l0.0472,0.0032l0.1816-0.0139l0.0208-0.1255h0.089l0.0107-0.1223l0.0315-0.1115l0.0504-0.1083
	l0.0018-0.0036l0.1187-0.0908l0.0733-0.0139l0.1502,0.0383l0.1695,0.1398l0.1115,0.2024l0.0418,0.241l0.3282,0.0107v3.3971
	l-1.4279,0.0383L467.1862,87.458z M443.9006,60.2602l0.0036,6.9583l-1.1033-0.0279h-0.2374l-0.0036-7.1678L443.9006,60.2602z
	 M438.559,44.4378l0.0315-1.0858l0.1484,0.0032l0.0036,0.0107l-0.1519-0.0139l0.1587,0.0593l0.0908,0.5373l0.0036-0.0661
	l0.0139-0.384l0.0036-0.0454v-0.0107l0.0068,0.0139l0.0086,0.0107l0.1451,0.2127l0.1169,0.2481l0.0558,0.2199v0.0036l0.0054,0.0733
	l0.0086,0.1012v0.0243v0.1015v0.0626v0.0629l0.0036,6.3544l-0.6492-0.0629l-0.0036-6.3019V44.4378z M437.3875,44.4027l0.0526-0.3736
	l0.0333-0.1291l0.0593-0.2342l0.1187-0.2967l0.0751-0.1362l0.0225,0.0422l0.0332,0.0801l0.0715,0.2234l0.0472,0.241l0.0175,0.1991
	l0.0036,0.0207l0.0014,0.1048l0.0036,6.7001l-0.5027-0.0107l-0.0279-0.9181l-0.0261-5.1325L437.3875,44.4027z M437.4818,59.9882
	l1.3636,0.0976l0.005,7.0559l-0.0733-0.0032l-2.6724-0.0071l-0.1924,0.0036l-0.005-7.2865L437.4818,59.9882z M436.2652,6.738h0.0018
	l0.0121,0.0036h0.0086l0.0121,0.0036c-0.0121-0.0036-0.0243-0.0036-0.0365-0.0072H436.2652z M436.1412,9.1892v0.0315h-0.0018V9.1892
	H436.1412z M436.0575,7.3841h0.0036h0.0014c0,0-0.0068,0-0.0104,0.0036L436.0575,7.3841z M435.5702,43.652l0.0665-0.3665
	l0.1115-0.3493l0.0665-0.1255l0.1241,0.0139l0.0908,0.035l0.0558,0.0172l0.089,0.049l0.1695,0.1223l0.019,0.0175l0.0944,0.0976
	l0.1641,0.2234l0.1133,0.2167l0.0139,0.0315l0.0962,0.2545l0.0679,0.2689l0.0508,0.311l0.0086,0.1952l0.0071,0.1258l0.0054,6.0366
	l-1.4333-0.0247v-4.0567l-0.0036-2.7128L435.5702,43.652z M433.6797,44.3294l0.0265-1.0439l0.0661-0.0872l0.1291-0.1258v0.5624
	l0.0508-0.2517l-0.0383-0.0068l-0.0054-0.3107l0.0036-0.0036l0.005,0.227l0.035,0.094l0.2914-0.7297l0.0751-0.0801l0.3142,0.0454
	l0.0107,0.0175l0.1219,0.2932l0.0944,0.3561l0.0558,0.3772l0.0157,0.384l-0.0207,5.2579l-0.0386,1.5012l-1.0786,0.0526v0.0068
	l-0.1083,0.0071l-0.0054-6.4174V44.3294z M430.0052,60.0511l1.819,0.0486l0.0068,7.0491h-0.2406l-1.7579,0.0211l-0.0071-7.1538
	L430.0052,60.0511z M786.6224,56.0916l-2.0038,3.8197l-1.4594-0.0944l0.96-3.9069L786.6224,56.0916z M783.7266,55.8821
	l-0.9603,3.9105l-2.6063-0.1677l0.9514-3.9348L783.7266,55.8821z M780.7238,55.6483l-0.9549,3.9627l-2.6603-0.1709l0.9442-3.9873
	L780.7238,55.6483z M777.7093,55.3898l-0.9621,4.0642l-1.7386-0.1119l-0.0071-4.1511L777.7093,55.3898z M774.6575,55.2364
	l0.0107,4.0917l-0.1938,0.0315l-1.1905-1.2045l-0.2095,0.0315l-0.1798,0.3071l-0.6217-2.8522L774.6575,55.2364z M771.9433,55.7148
	l0.7,3.2047l-0.4487,0.7579l-1.7546,0.2617l-0.8448-3.8229L771.9433,55.7148z M769.2531,56.1824l0.838,3.8022l-2.278,0.3421
	l-0.8362-3.7603L769.2531,56.1824z M764.4523,56.9854l2.1891-0.3736l0.838,3.7743l-1.6005,0.241L764.4523,56.9854z
	 M725.0337,118.2585l0.2999-0.1151l1.0826-0.468l1.0665-0.5062l1.0529-0.5413l1.0314-0.5795l2.5208-1.5012l2.4736-1.5502
	l2.4282-1.5956l2.3846-1.641l2.3338-1.6828l2.2921-1.7282l2.2434-1.77l2.1994-1.8083l2.1508-1.8505l2.1069-1.8887l0.7507-0.6879
	l0.7522-0.6775l0.6776-0.6074l-0.143,36.9035h-30.0797l-1.9081-11.8601l2.2885-1.2463l0.0071-0.9917l0.0104-1.1348
	L725.0337,118.2585z M718.9185,133.9626h-0.8083l0.3475-2.5312L718.9185,133.9626z M689.0135,128.6138l0.1219-5.0102l0.0228-0.0036
	l-0.0018-0.803l0.0822,0.0211l3.5837,0.2478l3.5526,0.098l3.514-0.0454l3.4686-0.192l3.425-0.3282l3.3778-0.4644l3.3273-0.6006
	l0.611-0.1362l-1.641,12.5655h-23.1826L689.0135,128.6138z"/>
</svg>
