<?xml version="1.0" encoding="utf-8"?>
<!-- Generator: Adobe Illustrator 18.1.1, SVG Export Plug-In . SVG Version: 6.00 Build 0)  -->
<svg version="1.1" id="paris" xmlns="http://www.w3.org/2000/svg" xmlns:xlink="http://www.w3.org/1999/xlink" x="0px" y="0px"
	 viewBox="0 0 1002.4918 256.757" enable-background="new 0 0 1002.4918 256.757" xml:space="preserve">
<g>
	<path   d="M1002.3091,220.4929l-0.2928-30.9407l-3.9194-9.4188l-0.0074-0.6107l-0.702-2.5341l-0.2194,0.9068
		l-1.7624-4.2193l-0.0071-1.3239l-6.3842-0.0401l-0.0367-4.7278l-5.404-0.0401l-0.0074-1.0457l-2.1574-0.0183l-1.6965,0.4534
		l0.0951,14.9108l-1.47,3.8793H977.27l-0.9799-2.4974l-0.015-1.9522l-0.4385-2.0222l-0.3733,1.8867l-1.616-4.1025l-0.0292-6.0259
		l-5.119-0.0326l-0.4096,0.1022l0.0292,4.8629l-1.0821-0.0071l-1.5284,0.2849l-0.8484,0.161l-0.0292-5.0018l-1.7186-0.0108
		l-1.0674,0.2812l0.0584,12.1906l-0.6874,1.8612l-4.8045-0.0075l-6.7642-0.0108l-0.0075-2.6179l-1.075-4.2964l-0.0584-21.7117
		l0.5264-0.3145l-0.0074-3.3896l-2.5374-0.0292l-1.3603,0.9398l0.0075,3.3016l0.4459,0.0075l0.0292,12.4209l-0.4605-0.0037
		l-3.949-11.4811l-0.0075-8.3147l-8.6437-0.1172l0.0074,8.3439l-3.8246,12.7245l-0.7825,2.6033v-16.7465l0.5047-0.486v-3.4117
		l-2.5741-0.0329l-0.8339,0.9544v3.3237l0.4317,0.0075l-0.0074,24.6258l-0.4459,1.4992v1.2689l-1.397-9.6858l0.0075-8.4686
		l-13.3169-0.1022l0.0075-1.1663l-0.0292-0.0038l0.0145-11.9783l-0.2269-2.0039l-1.0529-1.8024l-1.2067-0.9507l1.0457-0.1134
		l0.1535-0.4059v-0.5998l-0.775-0.1206l0.0075-9.1264l0.6215-0.0839l0.1606-0.5085v-0.4605l-0.5557-0.1063l-0.2486-1.4662
		l-1.1701-1.5355l-1.4699-0.322l0.1389-0.0509l0.2486-0.1831l0.1831-0.2374l0.1243-0.2778l0.0363-0.2999l-0.0363-0.3036
		l-0.1172-0.2816l-0.1902-0.2449l-0.2411-0.1902l-0.2048-0.0839l-0.3729-13.017l-0.4096,13.002l-0.2048,0.0771l-0.2411,0.1827
		l-0.1902,0.2377l-0.1172,0.2778l-0.0438,0.2999l0.0438,0.3033l0.1172,0.2816l0.1827,0.2449l0.2486,0.1902l0.1389,0.0584
		l-1.4186,0.267l-1.148,1.4992l-0.2485,1.4846l-0.4609,0.0696l-0.0801,0.5156v0.453l0.7675,0.1393l-0.0217,9.1335l-0.6874,0.0805
		l-0.0805,0.413v0.5961l1.2067,0.1756l-1.1337,0.8922l-1.0383,1.7807l-0.088,0.4826l-0.2266,1.9964l-0.0221,11.565l-0.073,0.2853
		l-0.0071,1.9305l-0.3583-0.0292l-0.0296,6.823l0.139,0.0037h-0.2045l0.0292-7.8687l-13.5655-0.106l-0.0438,8.5741l-1.6451,13.0683
		l-0.1978,1.6051h-0.6141l0.0071-1.543h0.0438l0.1685-31.1054l0.4092,0.0037l0.0222-3.3712l-0.2708-0.9761l-2.6472-0.0367
		l-0.0221,3.4664l0.3438,0.8922h0.1389l-0.1097,19.2473l-1.4186-5.2871l-3.4955-13.0057l0.0588-8.4978l-9.0167-0.1206
		l-0.0659,8.5232l-3.8172,11.7114l-1.002-0.0071l-0.1681,0.6653l0.1094-13.4337l0.4462,0.0075l0.0218-3.3933l-0.841-0.9944
		l-2.6838-0.0329l-0.0292,3.4881l0.5193,0.5156l-0.1168,14.4394l-0.4755-0.0037l-0.1022,11.927l-0.0588,0.234l-0.0217,3.2982
		l-0.0659,0.194l0.0071-0.7938l-8.0732-0.0071l-8.1245-0.0108l-2.9107-0.0038l-0.3291-0.9398l0.1464-13.7261l-0.8264-0.307
		l-1.8796-0.0112l-0.0584,5.3055l-1.0674-0.2595l-1.2944-0.3108l-7.2543-0.0329l-0.0146,1.1004l-2.3843,5.9345v-0.0038
		l0.2123-16.4245l-1.4407-0.4935l-2.3914-0.0183l-0.0875,6.7642l-1.2723-0.3033l-2.1061-0.5085l-9.3387-0.0547l-0.0217,1.4112
		l-2.2233,5.1849l-0.3729-0.0038l-0.3145-1.4625l-0.6583,2.5303l-0.0292,2.1499l-3.6416,8.4865l-0.4826,30.9407h-1.3895
		l-0.1756-30.3922l-1.009-0.1647h-0.7316l-0.1097-19.6932h-1.0237l-0.0805-14.9258h-0.6945l-0.1756-33.5256h-0.2266v-0.647
		l-0.3583-0.0037l-0.0075-0.5193h-0.4534v-0.2557h-0.8848l-0.0074-1.0862l-0.0438-0.1423l-2.1353-2.0698l-2.0548,2.1795
		l-0.0951,0.146l0.0071,1.2213l-18.6696-0.0292v-0.2561l-2.2963-0.0037l-0.0659,0.2816l-0.0583,0.2415h-0.161l-0.0802,0.3546
		l-0.0733,0.2962h-0.0293l-0.0876,0.3988l-0.1976,0.8297l0.0074,3.2728l-0.5778-0.0037l-0.1097,0.4826h-0.1535l-0.1318,0.5961
		h-0.0292l-0.1681,0.735l0.0367,27.189l-9.463-0.0075l-0.3145-4.384l-0.9506-11.7552l-1.1772-32.3193l-1.1847,32.3155
		l-0.9506,11.7556l-0.3145,4.384l-8.995-0.0037l0.0367-27.204l-0.1389-0.7346h-0.0584l-0.1172-0.5961h-0.1536l-0.1022-0.4864
		h-0.4171l0.0074-3.2724l-0.1682-0.8376l-0.0734-0.3946H742.17l-0.0588-0.3037l-0.0655-0.3437h-0.1756l-0.0513-0.2524
		l-0.0513-0.2778h-1.2577v0.2561l-19.613-0.0292l0.0146-1.5688l-0.0146-0.1389l-2.0331-2.2634l-1.9451,2.0039l-0.1243,0.1281
		l-0.0146,1.5759h-1.2722v0.2557h-0.6583l-0.0075,0.5264h-0.3362v0.6436h-0.234l-0.1827,33.5916h-0.6512l-0.0805,14.9546h-0.8847
		l-0.1097,19.7374h-0.8043l-0.9435,0.161l-0.1827,30.3775h-12.8998l0.0146-2.834l-0.1902-0.1535l-0.7387-0.5669V191.461h0.3804
		v-0.0075l0.0075-1.4662l0.1022-0.1097l0.1097-0.0988l0.1243-0.0985l0.1318-0.0842l0.1389-0.0768l0.1389-0.0621l0.1535-0.0547
		l0.161-0.0442l0.1606-0.0363l0.1609-0.0221l0.1389-0.0071h0.1902v-0.0037l0.0071-0.4463h0.2853v-0.1898l-2.457-0.0075
		l0.1022-14.4682l0.3437-0.1281l0.0659-0.0258l0.0071-0.9982l0.3366-0.1427l0.0659-0.0255l0.0071-1.0787l0.6874-0.3033
		l0.1318-0.0588l0.0071-0.574l-1.6235-0.0071l0.0367-5.3493l0.0071-0.9874l4.1321-2.673l0.0071-1.042l1.0383-0.6945v-0.3366
		l0.1902-0.1281l0.0146-1.3419l0.8776-0.6253l0.1902-0.1352l0.0071-0.7533v-0.1423l-5.5504-0.0476l0.0438-6.0367l1.1996-1.1959
		v-0.0071l0.8702-0.8668l0.1756-0.1719l0.0071-0.8885l-3.0859-0.0329l0.0146-2.4607l-0.0221-0.1172l-0.0292-0.0914l-0.0292-0.0655
		l-0.0292-0.0296h-0.0367l-0.1902-0.0034l-0.0584-0.0367l-0.0584-0.0329l-0.1827-0.0768l-0.1977-0.0513l-0.1973-0.0146
		l-0.1974,0.0112l-0.1902,0.0438l-0.1902,0.0693l-0.1682,0.0988l-0.1609,0.1281l-0.1315,0.1427l-0.5192-0.0037l-0.5119-0.5156
		l-0.5122-0.0075l-0.5189,0.5047l-0.3875-0.0075l-0.5122-0.5118l-0.5189-0.0071l-0.5118,0.501l-0.5193-0.0075l-0.1389-0.146
		l-0.1535-0.1318l-0.1685-0.0988l-0.1827-0.0768l-0.1973-0.0476l-0.1978-0.0183l-0.1973,0.0112l-0.1973,0.0438l-0.1831,0.0693
		l-0.1752,0.1026l-0.1539,0.1206l-0.1389,0.1464l-0.5189-0.0037l-0.5122-0.5156l-0.519-0.0071l-0.5193,0.5043l-0.3875-0.0071
		l-0.5118-0.5122l-0.5194-0.0071l-0.5193,0.501l-0.5189-0.0075l-0.1393-0.1498l-0.1536-0.1281l-0.1752-0.1022l-0.1831-0.0768
		l-0.1973-0.0475l-0.1973-0.0146l-0.1977,0.0109l-0.1902,0.0438l-0.1898,0.0697l-0.1756,0.0985l-0.1536,0.1243l-0.1389,0.1464
		l-0.5193-0.0075l-0.5193-0.5118l-0.5193-0.0071l-0.5189,0.501l-0.3875-0.0037l-0.5193-0.5156l-0.5193-0.0037l-0.5193,0.501
		l-0.5189-0.0037l-0.0804-0.0876l-0.0585-0.0659l-0.1539-0.1281l-0.0656-0.0401l-0.1097-0.0621l-0.1902-0.0768l-0.1902-0.0476
		l-0.2048-0.0183l-0.1973,0.0146l-0.1973,0.0401l-0.1831,0.0734l-0.1755,0.0985l-0.1606,0.1243l-0.1318,0.1464l-0.5264-0.0071
		l-0.5193-0.5122l-0.5189-0.0071l-0.5193,0.501l-0.395-0.0038l-0.5193-0.5156l-0.519-0.0075l-0.5268,0.5047l-0.5189-0.0071
		l-0.1389-0.1501l-0.1539-0.1281l-0.1752-0.106l-0.1902-0.0768l-0.1973-0.0438l-0.1977-0.0184l-0.1973,0.0109l-0.1973,0.0442
		l-0.1902,0.073l-0.1757,0.0988l-0.1535,0.1243l-0.1389,0.146l-0.5192-0.0071l-0.5265-0.5193l-0.5264-0.0037l-0.3511,0.3437
		l-0.8043-0.0876l-0.2782-0.2744l-0.5264-0.0034l-0.1827,0.1752l-0.2194-0.0255l-1.1334-0.0438l-0.1685-0.0696l-0.1973-0.0475
		l-0.2048-0.018l-0.1973,0.0146l-0.1977,0.0401l-0.0292,0.0146l-0.8409-0.0146l-0.7896-0.0292l-0.0513-0.0513l-0.5193-0.0071
		l-0.0801,0.073l-1.2943-0.0146l-0.0734-0.0768l-0.5264-0.0037l-0.0513,0.0513l-0.7679,0.0108l-0.8627-0.0108l-0.0292-0.0112
		l-0.1977-0.0475l-0.2048-0.0217l-0.1973,0.0146l-0.1973,0.0438l-0.1756,0.0659l-1.1188,0.0146l-0.234,0.0221l-0.1902-0.1831
		l-0.5264-0.0071l-0.2782,0.2703l-0.8114,0.0659l-0.3586-0.3546l-0.5265-0.0075l-0.5264,0.5085l-0.5264-0.0075l-0.1389-0.1498
		l-0.161-0.1281l-0.1756-0.106l-0.1902-0.0768l-0.1973-0.0475l-0.2048-0.0184l-0.2049,0.0146l-0.1973,0.0404l-0.1902,0.073
		l-0.1756,0.0988l-0.1606,0.1243l-0.1389,0.1498l-0.5268-0.0038l-0.5265-0.5227l-0.5339-0.0075l-0.5264,0.5085l-0.395-0.0037
		l-0.5336-0.5231l-0.5268-0.0071l-0.5264,0.5081l-0.5339-0.0037l-0.1389-0.1535l-0.1606-0.1277l-0.1756-0.1063l-0.1902-0.0768
		l-0.1973-0.0475l-0.2048-0.0146l-0.2048,0.0112l-0.1973,0.0438l-0.1902,0.073l-0.088,0.0438l-0.0876,0.0551l-0.1609,0.1243
		l-0.0438,0.0438l-0.0951,0.1022l-0.5264-0.0034l-0.5411-0.5231l-0.5268-0.0071l-0.5264,0.5081l-0.4021-0.0037l-0.5339-0.5193
		l-0.5339-0.0071l-0.5264,0.5081l-0.5264-0.0071l-0.1464-0.1501l-0.1606-0.1314l-0.1757-0.106l-0.1902-0.0768l-0.2048-0.0475
		l-0.2048-0.0146l-0.2048,0.0109l-0.1973,0.0438l-0.1902,0.073l-0.1756,0.0988l-0.1606,0.128l-0.1389,0.146l-0.5339-0.0071
		l-0.5339-0.5231l-0.5339-0.0071l-0.5265,0.5118l-0.4021-0.0038l-0.5339-0.5227l-0.5339-0.0075l-0.5335,0.5085l-0.5268-0.0075
		l-0.1461-0.1498l-0.161-0.1318l-0.1827-0.1022l-0.1902-0.0768l-0.1973-0.0513l-0.2123-0.0146l-0.2048,0.0109l-0.1973,0.0438
		l-0.1902,0.0734l-0.1756,0.0985l-0.1606,0.1243l-0.1389,0.1501l-0.5339-0.0038l-0.5414-0.5264l-0.5336-0.0075l-0.5268,0.5122
		l-0.4021-0.0075l-0.541-0.5193l-0.5411-0.0071l-0.5267,0.5118l-0.5336-0.0075l-0.1464-0.1535l-0.161-0.1314l-0.1827-0.1026
		l-0.1902-0.0768l-0.2048-0.0513l-0.2048-0.0146l-0.2044,0.0112l-0.1977,0.0438l-0.1973,0.073l-0.0513,0.0329l-0.0658,0.033h-0.1974
		h-0.0367l-0.0363,0.0367l-0.0292,0.0622l-0.0296,0.0914l-0.0292,0.1206l0.0367,2.5082l-3.2323-0.0363l0.0146,0.9065l1.1041,1.0787
		v0.0146l1.2652,1.2434l0.0805,6.1756l-5.8136-0.0513v0.1464l0.0071,0.7679l0.2048,0.146l0.9215,0.6436l0.022,1.382l0.0363,0.0258
		l0.1685,0.1097v0.3471l1.0966,0.7204l0.0146,1.075l4.3439,2.7718l0.0146,1.0274l0.0731,5.4627l-1.7036-0.0112l0.0145,0.589
		l0.139,0.0621l0.7166,0.3108l0.0146,1.1079l0.0659,0.0292l0.3583,0.1427l0.0146,1.0237l0.0656,0.0255l0.3586,0.1355l0.1973,14.7681
		l-2.567,0.0108l0.0074,0.194h0.3l0.0071,0.4572v0.0034h0.1977l0.146,0.0075l0.1756,0.0221l0.1682,0.0326l0.1609,0.0475l0.161,0.055
		l0.1461,0.0693l0.1464,0.0771l0.1389,0.0876l0.1243,0.0951l0.1168,0.1022l0.1097,0.1134l0.0221,1.4992v0.0037h0.4826
		l0.3438,25.8104l-1.243,0.9469l0.0292,2.2124h-11.5908l-0.7095-1.291l0.0734-0.0401l-0.6072-1.1775l-0.1094,0.055l-0.1247-0.2269
		l0.0734-0.0655l-0.3074-0.3621l-0.6362-1.2906l-0.6582-1.5467l-0.0876,0.0363l-0.0367-0.0768l0.0805-0.0401l-0.5994-1.1663
		l-0.0734,0.0363l-0.0292-0.0584l0.0734-0.0438l-0.5923-1.0057l-12.0588-24.2199c0.6141-0.8192,0.987-1.832,0.987-2.9324
		c0-2.245-1.5284-4.1392-3.6124-4.7315l-7.0424-25.5839l-0.7679-2.8811v-0.1097h-0.0292l-1.7257-6.4501
		c0.9215-0.7859,1.5209-2.0256,1.5209-3.4297c0-1.2322-0.468-2.3438-1.2064-3.1297l0.0146-0.0146l-0.5485-0.5047l-0.0292,0.0292
		c-0.3658-0.2632-0.7751-0.4605-1.2139-0.5702l-1.0895-9.4117l-0.015-0.1681l-2.4423-21.0976l-0.0146-0.3546l-0.0221,0.0037
		l-0.0146-0.1063h0.0075l-0.0075-0.0621l0.0221-0.0071l-0.0805-0.4351l-2.3985-20.7648l-0.0075-0.1685l0.0075-0.1606h-0.0075
		l-0.0071-0.1572v-0.0037l-0.0074-0.0659l-0.4388-9.9528l0.0145-0.4167h-0.0292l-0.0071-0.1827l0.0218-0.0037l-0.0364-0.3254
		l-1.7261-39.131l0.0146-1.47v-0.0034l0.0074-0.4976v-0.4384l0.0071-0.0075l-0.0071-0.0109v-0.0438h-0.0438v-0.0037h0.0438
		l0.0071-0.4643h-0.1097v-0.0037l0.1097,0.0037l-0.1097-0.0037l0.0367-0.033h0.073v-0.0659l0.0588-0.0547l-0.0292-0.0296
		l0.3508,0.0258l0.0146-0.1352l-0.395-0.0296v-0.0401l0.3879,0.0037l0.0071-0.5085h0.0074v-0.0655l0.1168,0.1243l0.322-0.2999
		l0.0584,0.0037l0.1168-0.1685l-0.0583-0.0693l0.0659-0.0584l-0.1097-0.1134v-0.055l0.1389,0.1355l0.0071-0.0075l-0.1461-0.1464
		v-0.2449h-0.088l-0.0071-0.0183l0.2707-0.2486l-0.0074-0.0109l0.3291,0.0255l0.0071-0.1352l-0.4531-0.0367V29.522l0.0146-0.0037
		l-0.0075-0.0401l0.446,0.0034l0.0075-0.0876h-0.0075v-0.0622l0.483,0.0438l0.0146-0.1281h0.446v-4.5338h-1.0237l0.1022-0.0951
		l0.0292-0.0146l-0.0071-0.0109l0.2849-0.2778c1.558-0.7241,2.5086-1.6969,2.5086-2.7681c0-1.3198-1.4482-2.4936-3.6857-3.2323
		v-4.5742c0-0.018,0.0071-0.0401,0.0071-0.0622h0.0588V13.664l-0.0588,0.0037c0-0.0037,0-0.0037,0-0.0037h0.0221v-0.1352h-0.0146
		c0-0.0292,0.0071-0.0584,0.0071-0.0914h0.0074l-0.0074-0.0768c0.0074-0.0659,0.0074-0.1318,0.0074-0.2011
		c0-2.0769-1.0165-3.9052-2.5449-4.9584V8.0077h-0.2999l0,0l0.2999-0.0037h-0.3145c-0.0071-0.0071-0.0217-0.0183-0.0363-0.0255
		V7.9526h0.0071l-0.0292-0.0584l0.0146-0.0109l-0.161,0.0037c-0.0656-0.0367-0.1314-0.0696-0.2044-0.1026l0.0071-0.1022V7.2618
		l0.0292-0.0988h0.0513V7.0787l0.0071-0.0071h-0.0071V7.0495h-0.1026V6.969l0.0075-0.0146l0.3508,0.0037V6.9544l0.0513,0.0037
		V6.2307h-0.0071V6.2198h-0.2269V6.0296l0,0V5.9967V5.9783h-0.0071V5.9746V5.9675h-0.0075l-0.1243,0.0034V5.9675h-0.0438
		l0.0513-0.0476l-0.0805-0.0805V5.8139l0.0805-0.0771l-0.088-0.0914l0,0l0.0952-0.0876l-0.0876-0.0842l0.0217-0.018l0.088-0.0805
		l-0.0074-0.0075l-0.0146,0.0108l-0.0071-0.0146l0.0071-0.0109l-0.0805-0.0876l0.0221-0.5339h-0.0292V4.6289V4.6255V4.4754l0,0
		h0.0146h-0.0146l0.0146-0.0034h-0.0146c0.0071-0.0588,0.0146-0.1209,0.0146-0.1865c0-0.0513-0.0074-0.0988-0.0146-0.1502V4.1062
		l0,0c-0.0438-0.2778-0.1681-0.5377-0.3658-0.7604V3.3237h0.0074V3.3128h-0.0074l0.0074-0.2924h0.0071V3.0092h-0.0071V2.9287
		h-0.0074l0.0074-0.0292V2.874h0.0146V2.8703h-0.0146V2.8594V2.834l0,0V2.7205h0.0071V2.7097h-0.0071V2.7059V2.6947l0.0071-0.5264
		h-0.0071l0,0c0-0.7713-0.3729-1.4771-0.9214-1.8609V0.3037l-0.0075-0.0075h-0.0071c-0.0951-0.0659-0.1977-0.1206-0.2999-0.1681
		V0.1243V0.1206V0.1134l-0.0221-0.0075l-0.0071,0.0146c-0.0439-0.0217-0.1027-0.0401-0.1535-0.0547V0.0622V0.055l-0.0222-0.0075
		V0.055c-0.0438-0.0075-0.0805-0.0183-0.1243-0.0258l0,0V0.0221l-0.0367-0.0037v0.0037c-0.0217-0.0037-0.0438-0.0112-0.073-0.0112
		V0.0075l-0.0292-0.0037v0.0037c-0.0367-0.0037-0.0805-0.0037-0.1172-0.0075l0,0h-0.0292c-0.0438,0-0.0876,0.0037-0.1314,0.0075
		V0.0037l-0.0292,0.0037c-0.0291,0.0034-0.0588,0.0109-0.0951,0.0146l0,0l-0.0221,0.0037v0.0034
		c-0.0659,0.0112-0.1243,0.0258-0.1827,0.0475V0.0734l-0.0221,0.0071l0,0c-0.7751,0.267-1.3236,1.148-1.3236,2.1098v0.5702h0.0075
		v0.0037v0.0221l0,0V2.801h-0.0292V2.834h0.0292v0.018l0,0v0.0075h-0.0075l-0.0071,0.1756l0,0v0.0108l0,0v0.2086v0.0034V3.269l0,0
		v0.0401v0.0037l-0.0075-0.0037l0.0075,0.0146c-0.2123,0.2269-0.3512,0.4939-0.3879,0.7825h-0.0071v0.0513
		c0,0.0438-0.0146,0.0876-0.0146,0.1281c0,0.0509,0.0071,0.0985,0.0146,0.146h-0.0075l-0.0071,0.073l0.0146,0.0037V4.578v0.0292
		h-0.0146l-0.0074,0.0693h0.022v0.0258h-0.022v0.0839h0.022v0.0075h-0.022l-0.0071,0.6107h0.0363v0.0037l-0.0217,0.3546
		l0.073,0.0037l0.0075,0.0217l-0.0805-0.0037l0,0v0.0513l-0.1464-0.0037v0.0146h-0.0071V5.854v0.0221v0.0034v0.1793l-0.2999-0.0037
		l-0.0075,0.7275v0.0037h0.0513L563.371,6.79l-0.0364,0.0037h-0.0513h0.0292l-0.0292,0.0034h0.0438h-0.0292h0.2707v0.1247h-0.0951
		v0.1243h0.0951v0.0034h-0.0951V7.163h0.0951v0.5556l-0.2123,0.0112l-0.0071,0.0509l-0.0367-0.0034h-0.0071l-0.3292-0.0221v0.0183
		l-0.0074,0.0329l0,0l-0.0071,0.0255l0,0v0.0037v0.0367v0.0217v0.0037v0.0071h-0.0074v0.055v0.0183h-0.0071v0.0693v0.0037v0.0037
		v0.0071h-0.0075v0.0112h-0.0071v0.0363h-0.0075V8.132l0,0l0,0v0.0071v0.015l0,0c-1.5651,1.0457-2.6108,2.8957-2.6108,5.0056v1.3749
		l-0.0438,0.5006l0.0438,0.0037v0.0842h-0.0438v0.1352h0.0438v0.0329v2.6142l-0.0509,0.4317
		c-0.2778,0.0914-0.5486,0.1936-0.7972,0.2999l-0.2123,0.0438l0.0075,0.0438c-1.6235,0.7275-2.6254,1.7223-2.6254,2.8227
		c0,1.1225,1.0457,2.1353,2.7351,2.8703l0.0217,0.033l-0.073,0.1389l0.1681,0.0951l0.0075,0.0037l-0.0146,0.0255h-0.8193
		l-0.0217,2.0039h0.0217v0.0146h-0.0217v0.4205h0.0217v0.0034h-0.0217v0.702h0.0217v0.0037h-0.0217v0.556h0.0217l0,0h-0.0217
		l-0.0074,0.2741h0.0292v0.0037h-0.0292v0.1389h0.0292v0.413h0.8409h-0.0071l0.1973,0.1977l-0.0438,0.1314h-0.0071v0.0221
		l-0.088,0.2853l-0.0584,0.0584l0.0292,0.0329l-0.0146,0.0438l0.0367,0.0108l-0.0513,0.0513l0.5047,0.5118l0.146-0.1427
		l-0.0071,0.267l0,0v0.4972l0.4239,0.0037l-0.0585,0.0584l0.1389,0.1427l-0.0071,0.1681h0.0071v0.0075l0,0v0.0367l0,0v0.0839
		h-0.0071v0.1026l-0.1464,0.1427l0.0731,0.0655l-0.0731,0.0696l0.1464,0.146l-0.0074,0.4755l0,0l0,0v0.4205v0.0622l-0.0071,0.5081
		l0,0l-0.0075,0.4939l0,0h0.0075v0.0914l-0.0075,0.2632v0.1172l-2.3472,38.6117l-0.0734,0.6103l0.0367,0.0037l-0.0075,0.1389
		h-0.0438v0.7496l-0.5777,9.463l-0.0364,0.2778h0.0217l-0.0071,0.1389h-0.0221v0.34l-2.6984,20.4724l-0.1389,0.7312l0.0146,0.0037
		l-0.0071,0.0584l0.0217,0.0037l-0.0071,0.0693l-0.0367-0.0034l-0.0367,0.5702l-2.7055,20.5237l-0.0146,0.106l-0.1243-0.0075
		l-0.1318,1.9342l-1.075,8.1833c-0.4243,0.0768-0.8264,0.2265-1.1921,0.4422l-0.0438-0.0547l-0.5557,0.501v0.0034
		c-0.8701,0.7863-1.4261,1.9968-1.4261,3.3458c0,1.4149,0.6069,2.6655,1.543,3.4518l-1.5721,5.7113l-0.0367,0.1097l0.0074,0.0034
		l-0.1318,0.4826h-0.0292v0.1026l-0.4313,1.5613l-7.108,24.476l0.1828,0.0513v0.0071l-0.1828-0.0547l-0.3804,1.3161l-0.3438,0.9327
		l-0.0659,0.0621l-0.0071-0.0037l-0.1171,0.1206c-0.0876,0.0146-0.1757,0.0292-0.2632,0.0475l-0.1168-0.0584l-0.0442,0.0985
		c-2.1645,0.5452-3.7659,2.4682-3.7659,4.7682c0,1.1955,0.4313,2.2963,1.1554,3.1481l0.0952,0.3838l-0.2561,0.6912l-0.0075,0.0146
		l-0.5923,1.1262l-0.0071,0.0109l0,0l-1.1921,2.2817l-0.0071,0.0109l-0.5923,1.1262l-0.0074,0.0184l-2.1866,4.1646l-0.0952,0.194
		l0,0l-0.0071,0.0034l-0.6215,1.1884v0.0037v0.0037l-0.0584,0.1022l-0.0296-0.0108l-0.0438,0.161l-0.9214,1.7586l-0.0438,0.0876
		l-0.0367-0.0146l-1.2723,2.3876l0.0438,0.0221l-0.073,0.146l-0.0367-0.0146l-0.1097,0.2928l-2.6763,5.1078l-2.8519,4.9288
		l0.1314,0.073l-0.0292,0.0404l-0.1243-0.0696l-0.6362,1.2142l0.0584,0.0292l-0.0221,0.0509l-0.0655-0.0255l-0.2853,0.6144
		c0,0-0.6069,0.881-1.4479,2.1207l0.3583-79.5126l-0.8776,0.3804l-1.9159,1.3565l-2.916,2.3218l-2.0698,1.744l-2.0327,3.931
		l0.0071-2.2158l-4.2084,3.6745l-0.8994,2.1866l-6.1756,6.4096l0.0034,37.5806l4.5121,4.6802v0.2741l-3.3784-0.2632l-0.2744-0.073
		l-0.5264-0.1206l-1.2651-0.2561l-1.2869-0.1644l-0.4279-0.055l-0.5631-0.0401l-0.6654-0.0258l-0.501-0.018l-0.3729-0.0075h-0.3875
		l-0.3695,0.0108l-0.5665,0.0221l-0.6474,0.0329l-0.541,0.0475l-1.1263,0.1498l-0.5923,0.0842l-1.2981,0.267l-0.4605,0.1281
		l-0.1501,0.0401l-3.6378,0.3108l4.6873-5.0018l-0.0876-37.6502l-6.1026-6.4901l-0.6803-2.2049l-4.2889-3.7513l0.0146,3.1518
		l-2.0948-4.9071l-2.1319-1.7878l-3.0347-2.3839l-2.0256-1.4003l-0.969-0.3988l0.5886,81.9879h-4.1096l-0.0075-0.289
		l0.0622-102.4269l-2.7752-0.0367l-0.2194-7.075l-0.2048-0.6219l-6.5523-13.075l-0.1864-6.5489l-0.0621-0.1898l-2.1791-3.876
		l-0.0513,0.1168l-0.0075-0.0109l-1.9743,4.223l-0.0184,0.194l0.1682,6.4426l-5.8282,13.9418l-0.0109,0.2486l-0.0183,0.0513
		l0.0071,0.3145v0.0109l0.2048,8.8377l-2.5925,2.7314l0.2782,64.4626l-9.5873-4.4024l-13.7152-7.558l-4.8554-0.3729l-21.5586-0.0363
		v-7.9822l-0.5994-0.0621l-0.0404-1.0491l-0.1535-1.4846l-0.2411-1.47l-0.3291-1.4516l-0.4167-1.4262l-0.5047-1.4003l-0.5886-1.3636
		l-0.6657-1.3239l-0.7496-1.2798l-0.8263-1.2322l-0.8994-1.1772l-0.1022-0.1206l-0.8631-1.0019l0.0217-6.8923l-0.0034-0.5598
		l-0.0404-0.5519l-0.0693-0.5523l-0.1026-0.5448l-0.1352-0.5373l-0.1681-0.5302l-0.201-0.5193l-0.2307-0.5085l-0.2595-0.4897
		l-0.2886-0.4755l-0.3145-0.4568l0,0l-0.0146-0.0184l-0.1902-0.2415h0.0876l0.0038-0.7604h0.0037v-0.2595v-0.0768V137.39
		l-0.0037-0.0659l-0.2853-0.0037v0.2853h-0.0034v0.2632l0.0034,0.073l-0.0071,0.7971l-0.2744,0.3437l-0.3108,0.4426l-0.0217,0.0292
		l-0.2928,0.4751l-0.2666,0.4901l-0.2307,0.501l-0.2082,0.5193l-0.1718,0.5264l-0.1389,0.5373l-0.1097,0.5448l-0.0734,0.5523
		l-0.0438,0.5523l-0.0071,0.5556l-0.0367,6.8885l-0.0913,0.0988l0.0438-7.6164l-0.0367-0.0438l-0.1281-1.5684l-0.0326-0.3913
		v-0.0037l-0.0296-0.3437l-0.3287-2.1536l-0.4864-2.117l-0.629-2.0769l-0.7788-2.0219l-0.9139-1.9563l-1.0533-1.8867l-1.1847-1.8028
		l-0.2632-0.3471l-0.0075-0.0075l-0.3179-0.4167l-0.7166-0.9398l-0.0112-0.0146l-0.2303-0.2999l-1.3932-1.5613l-1.4954-1.455
		l-0.0109-0.0112l-0.201-0.1936l-1.543-1.291l-0.5852-0.2887l-0.6324-0.1827l0.0951-8.1612v-0.7642l-0.0475-0.7642l-0.0914-0.7571
		l-0.1389-0.7496l-0.0037-0.0146l-0.0075-0.0329l-0.1827-0.7421l-0.2303-0.7275l-0.2744-0.7133l-0.3145-0.6983l-0.3583-0.6766
		l-0.3984-0.6545l-0.0475-0.073l-0.413-0.5961l-0.3366-0.4205l0.0075-0.7567h0.0401l0.0038-0.3549l-0.0221-0.1022l-0.0146-0.0659
		l0.0075-0.4972l-0.0221-0.0988l-0.0108-0.0509l-0.0221-0.0988l-0.3984-0.0037l-0.0038,0.3254h-0.04l-0.0075,0.3621l0.0254,0.0988
		l0.0146,0.0693l-0.0146,1.1446l0.0221,0.0988l0.0075,0.0476l0.018,0.0805l-0.1865,0.2157l-0.4497,0.5886l-0.4096,0.6144
		l-0.3692,0.6432l-0.3329,0.6657l-0.2849,0.6874l-0.2452,0.7091l-0.2011,0.7241l-0.1573,0.7383l-0.04,0.2232l-0.1135,0.7571
		l-0.0659,0.7642l-0.0179,0.7642l-0.1172,8.0915l-0.6324,0.1464l-0.6036,0.2557l-1.583,1.2139l-1.4954,1.3457l-0.1902,0.1865
		l-0.161,0.1389l-0.1426,0.1501l-0.0071,0.0071l-0.0914,0.0951l-1.2176,1.2652l-0.0551,0.0659l-0.1206,0.1243l-1.3674,1.6598
		l-1.2472,1.759l-1.1187,1.85l-0.9836,1.9305l-0.8447,2.0076l-0.6983,2.0694l-0.5519,2.1244l-0.395,2.1645l-0.2086,1.905
		l-0.2303,0.1427l-0.0255,1.1955h-0.0734l-0.0034,0.2598h-0.0441l-0.0071,0.2303l0.0438,0.0584l-0.0146,0.735l0.0401,0.0476h0.0292
		v0.0071l-0.1644,0.194l-0.2887,0.3913l-0.2635,0.4021l-0.2412,0.4242l-0.2123,0.4351l-0.1898,0.4459l-0.161,0.4572l-0.128,0.4718
		l-0.106,0.4751l-0.073,0.483l-0.0476,0.486l-0.0146,0.4901l-0.0513,2.2963l-0.4021-0.5414l-0.9473-1.1188l0.1539-6.8264
		l0.0071-0.5594l-0.0255-0.556l-0.0075-0.0985l-0.0622-0.556l-0.0913-0.5448l-0.1281-0.541l-0.1606-0.5302l-0.1865-0.5231
		l-0.2231-0.5043l-0.2523-0.4972l-0.2816-0.4755l-0.3108-0.4605l-0.267-0.3437l0.0183-0.6766h0.0547l0.0075-0.2632l-0.0551-0.0768
		l0.0075-0.3583l-0.0476-0.0696h-0.2887l-0.0075,0.2853h-0.0584l-0.0075,0.2632l0.0584,0.0768l-0.0217,0.8338l0.0513,0.0655
		l0.0655,0.0038l-0.2082,0.2415l-0.3329,0.4388l-0.307,0.4605l-0.2778,0.4789l-0.2453,0.4939l-0.2157,0.5081l-0.1865,0.5231
		l-0.1535,0.5336l-0.1206,0.5448l-0.088,0.5485l-0.0547,0.556l-0.0183,0.5556l-0.1681,6.9361l-1.0166,1.0862l-0.9507,1.1442
		l-0.8776,1.2068l-0.8009,1.258l-0.7237,1.309l-0.6399,1.3528l-0.556,1.3932l-0.4714,1.4295l-0.3804,1.4554l-0.2887,1.4808
		l-0.1977,1.4992l-0.0839,1.2139l-1.1299,0.1243l-0.1719,6.0146l-0.3508,0.501l-0.322,0.5377l-0.2816,0.5556l-0.1719,0.4167
		l-16.1355-0.0292l0.0655-1.8938h0.1243l0.0221-0.6182l-0.1206-0.0401l-1.0495-3.0167l-2.9579-0.0037l0.0071-0.1243l-0.0659-0.2486
		h0.033l0.0108-0.0547l0.0112-0.033l0.0438-1.1446l-0.0183-0.0438h-0.0805l0.0438-0.1022l0.0037-0.0038l-0.0146-0.055
		l-0.0109-0.0034l-0.3692-0.1355l-0.0112-0.0034l-0.3508-0.0037l-0.0183,0.0438l0.0037,0.0075l0.0184,0.073l-0.0659-0.0037
		l-0.0183,0.0329l-0.0438,1.1517l0.0071,0.0404l0.0075,0.0622h0.0038l0,0h0.0401l-0.0951,0.2228l-0.0146,0.3767l-1.2906,2.1757
		h-0.1647l-0.0255,0.6399l0.1389,0.0401l0.4205,0.0038l-0.1936,5.0131l-0.0513,1.2798l-0.3474,0.6103l-0.5302-0.1022l-0.0768-0.0038
		l0.0513-0.4167l0.0183-0.5156l-0.0221-0.5156l-0.073-0.5047l-0.1134-0.501l-0.1573-0.486l-0.201-0.4755l-0.2415-0.4534
		l-0.2778-0.4313l-0.3179-0.4096l-0.3512-0.3804l-0.3875-0.3508l-0.4134,0.3329l-0.38,0.3692l-0.3512,0.395l-0.3179,0.4238
		l-0.2782,0.4463l-0.2374,0.468l-0.1977,0.4826l-0.1572,0.4972l-0.1097,0.5081l-0.0693,0.5122l-0.0221,0.5156l0.0183,0.4313
		l-0.7091,0.0547l-0.0221,0.5268l0.3036,0.0547l-0.2194,5.2871l-0.2194,5.3276h-0.7934l-0.0367,0.8956l0.1644,0.0075l0.4426,0.0184
		l-0.1793,4.3436l-0.0476-0.5485h-0.1569h-0.2014h-0.1569l-0.2523,0.5231l0.0401,0.5669l0.0804,0.4205l0.0221,0.1898l0.106,0.1539
		l0.5043,0.1389l-0.0217,0.5923l-0.4096-0.2232l-0.2232-0.1573l-0.0217-0.1902l-0.1356-0.1427l-0.234-0.0255l-0.1606,0.0075
		l-0.435,0.1865l-0.3108,0.252l-0.4171,0.9327l-0.0546,0.2194l0.0804,0.1827l0.1606-0.0075l0.3182-0.1277l0.3984-0.1647
		l0.3037,0.0146l0.1535,0.3329l0.1939,0.1681l-0.1794,0.1681l-0.0329,0.2048l0.0183,0.3804l0.1318,0.34l0.3617,0.1498l0.2269,0.2048
		l0.1427,0.2928l-0.0951,2.2121l-4.0403,0.0038h-0.9615l-0.0367-0.3366l-0.0038-0.7934l-0.0475-0.5193l-0.0621-0.2632
		l-0.2303-0.1464l0.6361-0.2265l0.4426-0.1719l0.0108-0.2194l0.0367-0.8518l-0.7279-0.5231l-0.5811-0.3033l-0.5377-0.234
		l-0.6653-0.1243l-0.5777-1.4554l-0.1135-0.4242l-0.1243-0.179l-0.2632-0.0988l-0.0438-0.4242l-0.2999-0.1644l0.0217-0.3329h-0.2666
		h-0.2561l-0.194,0.0038l-0.3508,0.3145l0.0146,1.1004l-0.2561,0.2231l-0.4167,0.0401l-0.5523-0.073l-0.1277-1.6089h-0.4059
		l-0.2011,0.0038l-0.2853,0.5886l0.04,0.6399l0.088,0.4755l0.0255,0.2157l0.1205,0.179l0.9031,0.2486l0.6582,0.0988l0.1977-0.0038
		l0.1898-0.2048l0.1464,0.0221l0.0584,0.5485l-0.0438,0.2449l-0.1314,0.055l-0.2816,0.252l-0.1539,0.0442l-0.1606-0.0475
		l-0.4279-0.2232l-0.8518-0.4643l-0.2523-0.1756l-0.0255-0.2157l-0.1539-0.161l-0.2632-0.0292l-0.201,0.0071l-0.4972,0.2086
		l-0.3546,0.289l-0.4718,1.0529l-0.0659,0.2449l0.088,0.2086l0.2082-0.0075l0.3583-0.146l0.4463-0.1827l0.3254,0.0146l0.1756,0.3729
		l0.2157,0.1902l-0.2048,0.1898l-0.0367,0.2378l0.0183,0.4279l0.1464,0.3838l0.4092,0.1719l0.2561,0.2303l0.6436,1.3419
		l0.0509,0.5156l-0.1973,0.0183h-0.0146h0.0146l-0.7934,17.167h-1.616l0.0802-18.7283l-3.3821-0.0217l-1.2247,0.0034l0.0108-2.0986
		h-2.8557l0.0367-8.907l-1.6126,0.2228l-0.0367,8.6805h-1.2431l-1.6126,0.0367v0.4826h-3.4772l-0.8443-0.2303v-0.0513h-0.1902
		l-0.8117-0.2194h-1.5067l0.0258-6.951l-1.4299,0.1719l-0.0217,6.7755l-12.2015-0.0038l-14.4611-5.2029l-16.3298-0.0146
		l0.0037-4.3769v-2.9141l-0.5556-0.2887l-0.7458-0.0768l-1.8796-1.437l-0.4972-0.2632l-4.4938-1.4337l-3.4772-0.4972v-3.8756
		l-0.2303-0.1281l-3.4701-0.8593l-0.2557-0.0622l-0.6841-0.0329l-0.7934,0.0075l-0.5302,0.0475l-3.4772,0.8664l-0.3033,0.1318
		v3.8868l-3.3567,0.4714l-4.4499,1.4153l-0.7058,0.2595l-1.3273,1.0019v-1.5505v-0.0513l-0.0034-4.1025l-0.0988-0.2374
		l0.0071,4.1534l-0.7567-11.3785l-1.3602-0.0075l-0.0146-10.4683l-0.2232-0.8005l0.0184,11.2688l-1.3603-0.0071l-0.146,1.0529
		l-29.0832-0.1168l-0.3108-1.0603l-2.9691-0.0146l-2.4023,4.6727l-0.6399-4.1721l-1.1442,7.4591h-0.7241l0.0038,0.2048
		l-0.2524,0.3583l-3.1627-1.543l0.252-0.3654l-0.0292-0.0329l-0.4714-0.3074l-0.2999,0.4388l-3.1372-1.5321l0.2265-0.3325
		l-0.0217-0.0292l-0.5156-0.3366l-0.2816,0.4134l-3.1118-1.5175l0.2269-0.3362l-0.0183-0.0258l-0.5118-0.3325l-0.2816,0.4092
		l-3.1118-1.5171l0.2303-0.3366l-0.018-0.0217l-0.5085-0.3366l-0.2778,0.4133l-2.9837-1.4554l-0.0146-0.234l0.1134-0.1647
		l-0.0109-0.018l-0.1172-0.0805l-0.1827-2.9324l0.0659-0.0038l0.1205-0.0292l0.9431-0.2449l0.1097-0.0475l0.0842-0.0659
		l0.055-0.0768l0.018-0.0842l-0.0146-0.0842l-0.0509-0.0768l-0.2269-0.2374l-0.0768-0.0659l-0.106-0.0513l-0.0696-0.0146
		l-0.1498-0.1644l-11.046-7.6677l0.6399-0.7496l0.413,0.2707l0.0075-0.0037l0.3362-0.5118l-0.3508-0.2269l2.2779-2.6655
		l0.4167,0.2707l0.3366-0.5156v-0.0038l-0.3475-0.2265l2.2888-2.6801l0.4167,0.2703l0.3437-0.5193v-0.0071l-0.3471-0.2269
		l2.2997-2.6947l0.4171,0.2745l0.3433-0.5231l0,0l0.0075-0.0108l-0.3508-0.2303l2.3105-2.7059l0.4205,0.2741l0.0112-0.018
		l0.3471-0.5231l-0.3508-0.2303l2.3218-2.7168l0.4205,0.2741l0.0146-0.0217l0.3475-0.5302l-0.3546-0.2303l2.3326-2.728
		l0.4242,0.2744l0.0221-0.0292l0.3362-0.5085l-0.3583-0.2303l2.3584-2.7643l0.4242,0.2744l0.0255-0.0292l0.1756-0.267
		l-9.8943-6.4063l-0.1573,0.2452l-0.0108,0.0401l0.3838,0.2486l-1.5976,3.2836l-0.3913-0.2524l-0.3183,0.4864l-0.0037,0.0363
		l0.4388,0.2853l-1.5759,3.2432l-0.3583-0.2303l-0.3437,0.5302l-0.0037,0.0292l0.4134,0.267l-1.5613,3.2065l-0.3546-0.2303
		l-0.3437,0.5264v0.0258l0.413,0.267l-1.5538,3.1919l-0.3546-0.2303l-0.3403,0.5264v0.0146l0.4134,0.267l-1.5505,3.181
		l-0.3508-0.2303l-0.34,0.5193l0.0071,0.0109l0.4096,0.2707l-1.543,3.1627l-0.3512-0.2269l-0.3362,0.5156l0.0071,0.0075
		l0.4059,0.267l-1.5318,3.1481l-0.3437-0.2231l-0.0075-0.0038l-0.3362,0.5156l0.413,0.2707l-0.3913,0.8042l-2.2083-1.5317l0,0
		h-0.0112h-0.0146h-0.0255h-0.0292h-0.0329h-0.033h-0.033h-0.0255h-0.0221h-0.0146h-0.0071l-5.2104,3.594l-1.0716-0.914
		l0.267-0.4133l-0.5043-0.3325h-0.0221l-0.2157,0.3362l-2.6033-2.2229l0.267-0.4171l-0.5047-0.3291l-0.0255-0.0034l-0.2194,0.3362
		l-2.5962-2.2195l0.267-0.4167l-0.5047-0.3291l-0.0292-0.0071l-0.2157,0.3362l-2.5925-2.2121l0.267-0.4167l-0.5047-0.3291
		l-0.0363-0.0112l-0.2157,0.3366l-2.5853-2.2087l0.2632-0.4167l-0.5006-0.3291l-0.0404-0.0146l-0.2157,0.3366l-2.5779-2.2012
		l0.2632-0.4205l-0.5044-0.3291l-0.0442-0.0184l-0.2119,0.34l-2.5741-2.1975l0.2595-0.4205l-0.4789-0.3145l-0.0513-0.0217
		l-0.2119,0.3433l-2.585-2.2121l0.2595-0.4205l-0.2523-0.1644l-0.0547-0.0258l-5.9929,9.7154l0.2303,0.1498l0.0584,0.0108
		l0.2269-0.3654l3.0384,1.4808l-0.2378,0.3804l0.4572,0.2995l0.0584,0.0112l0.2632-0.428l3.0275,1.4771l-0.2194,0.3475l0.501,0.3291
		l0.0513,0.0071l0.2486-0.3984l3.0129,1.47l-0.2194,0.3508l0.501,0.3254l0.0476,0.0038l0.2523-0.3984l3.0238,1.4771l-0.2194,0.3512
		l0.501,0.3254l0.0401,0.0034l0.2524-0.3984l3.0384,1.4808l-0.2228,0.3512l0.5044,0.3291l0.0329-0.0037l0.2561-0.395l3.0492,1.4883
		l-0.2228,0.3471l0.5006,0.3291l0.033-0.0034l0.2561-0.3988l3.0604,1.4954l-0.2269,0.3475l0.4171,0.2707l-7.5763,5.2212
		l0.106,0.0401l-0.3363,0.1427l-0.106,0.0513l-0.0842,0.0621l-0.0513,0.0768l-0.0146,0.0842l0.0183,0.0839l0.0513,0.0734
		l0.0805,0.0693l0.1097,0.0475l0.5886,0.2449l0.1206,0.0292l0.3913,0.055l-0.8922,12.4538l0.5852,0.5336l0.1644,0.0475
		l-0.0034,0.1209l-1.1408,1.3344l-0.3988-0.2632l-0.0363,0.0367l-0.3183,0.4897l0.34,0.2269l-2.117,2.479l-0.395-0.2632
		l-0.0401,0.0401l-0.3183,0.4864l0.3366,0.2265l-2.099,2.461l-0.395-0.2632l-0.0438,0.0438l-0.2999,0.4643l0.3403,0.2231
		l-2.099,2.4644l-0.395-0.2632l-0.0472,0.0475l-0.1572,0.2411l8.9399,5.9379l-0.2523,12.0517H92.266l-0.1243,0.1865l-0.4864,2.1682
		l0.0075-7.4958l-0.0109-0.0034v-1.3749h-0.0988l0.0146-13.2727h-2.4536l-0.0109,0.4751v6.8121l-0.2486-0.3183l-0.5706-0.5923
		l-0.6215-0.5264l-0.6691-0.4572l-0.5373-0.2924v-0.7058l-0.1719-1.6089h-8.3551l0.0075,2.2195l-0.757,0.3875l-0.7129,0.4572
		l-0.6653,0.5264l-0.3111,0.3033l-0.0254-6.2048l-0.2558-0.4751h-2.4536l0.073,13.2727h-0.5556l0.0071,1.3565l-0.0584,0.0217
		l0.0329,5.9895l-0.3988-0.6728l-0.6215-0.1977h-10.11l0.4134-36.0047l-7.4262-0.1827l-4.2597,0.0038l-2.8119,0.0659l0.1647-29.1674
		l-5.4957-1.0128v-0.0292l-0.1464,0.0037l-1.3419-0.2486l-0.0037-0.2123l-1.0929,0.0075l-1.759-0.322l-4.2852,0.0258l-9.3237,1.9268
		l0.0584,14.9437l-3.2653-0.2924l-4.2268,0.0146l-6.9728,0.8447l0.4755,49.1897l-4.6218,1.4187H3.4005l0.2598,8.9291H0v36.2641
		h1002.4918v-36.2641H1002.3091z M568.1609,6.9544L568.1609,6.9544v0.0075V6.9544z M649.0042,188.6416h0.6657h0.9432l-0.2194,0.0038
		l-0.5118,0.0075h-0.8776V188.6416z M647.9514,188.6528l0.446-0.0075h0.1317v0.0075h-0.395l-0.0951,0.0034h-0.0876V188.6528z
		 M651.2859,217.2897h-0.2924v-0.1973l-0.0221-4.6327l-0.8847,0.0071v-0.1644l-0.1243-21.2695l0.3436-0.0914l-0.0074-1.2139
		l0.0734-0.0914l0.0805-0.088l0.0876-0.0768l0.0952-0.0693l0.1022-0.0659l0.1025-0.055l0.1097-0.0475l0.1098-0.0363l0.1096-0.0258
		l0.3654-0.0292v-0.3583l0.2048-0.0071v-0.1539l-0.395,0.0037l-0.1606,0.0038h-0.8556v-0.0075h-0.3732l0.2269-2.585l0.8994-2.3764
		l1.492-2.0514l1.989-1.583l2.3401-0.9911l2.3109-0.307l0.2048,0.0034h0.2048l2.3109,0.3183l2.3326,0.9982l1.9893,1.5834
		l1.4918,2.0511l0.8993,2.3693l0.2486,2.5704h-0.4313h-1.3311v0.1501l0.2048,0.0108v0.3546l0.3875,0.0367l0.0805,0.0184
		l0.1097,0.0401l0.1097,0.0442l0.1026,0.0547l0.1022,0.0621l0.0876,0.0696l0.088,0.0801l0.0805,0.0842l0.073,0.0914v1.2105
		l0.3362,0.0985l0.0146,21.1489v0.1644l-0.8773,0.0075l0.0071,4.6106v0.1939l-0.2924,0.0034v2.0735l0.3362,1.2614h-17.0828
		l0.2999-1.1225L651.2859,217.2897z M570.7792,32.2534v0.0037l0,0l-0.0074-0.0037H570.7792z M561.7112,136.026l0.7751-8.4974
		l0.7166-4.4462v-0.0075l0.0075-0.0146l0.0583-0.3692l-0.0438-0.0075v-0.0109l0.0438,0.0071v-0.0109l-0.0438-0.0071l0.0071-0.0404
		l0.0442,0.0037l0.5043-6.2123l0.0734-0.8447v-0.0034l0.3216-4.0149l0.1756-2.1974l0.0438-0.4793l0.0367,0.0037l0.0364-0.6215
		l-0.0292-0.0037v-0.0655h0.0367v-0.3145v-0.0221h0.0217l0.0438-0.6436l-0.0363-0.0034l0.0071-0.0696h0.0292v-0.0876l0.3512-4.3148
		l0.0146-0.2048l1.0019,12.4467l0.0217,0.6069h0.0296v0.0438l-0.0221,0.0037l0.2632,3.2503l0.1757,3.7663l0.146-0.0112
		l0.0075,0.0842l-0.1318,0.0221l0.1756,1.115l0.0513-0.0071v0.0034l-0.0513,0.0037l0.1026,0.6582h-0.0074l0.3145,3.916
		l-0.0292-0.0037l-0.1026,0.4205l0.1685,0.0404l0.0071,0.0363h0.0075v0.0146l0.0146-0.0034v0.0146l0.1314-0.0112l0.0367,0.4976
		l-0.1243,0.0108v0.0438l0.1314-0.0108v0.0037l-0.1535,0.0146l0.3366,4.2485l0.0071,0.0659l0.4171,5.2542l0,0l0.0217,0.2924h-2.8594
		v0.0221l-0.3437-0.0037h-0.3729v-0.0184h-2.4716h-0.395L561.7112,136.026z M559.1442,154.4577h10.7136l0.2557,1.2652l0.0659,0.395
		l4.9288,25.4851h-21.836L559.1442,154.4577z M537.6957,215.8565l0.1681-0.1756l-0.0509-0.0476l0.1827-0.3546l0.1022,0.0438
		l0.4609-1.0457l-0.0292-0.0146l0.0659-0.1281l0.0876,0.0438l2.0256-4.0474l-0.0951-0.0476l0.1609-0.2632
		c0.3508-4.1609,11.4445-12.5561,24.0301-12.5561c9.4772,0,17.1337,4.7532,20.4686,8.8812l0.0217-0.0255l0.0074,0.0037
		l-0.0292,0.0217c1.17,1.4482,1.8134,2.8156,1.8134,3.876l0.7095,1.4587l-0.1827,0.0917l0.4459,0.914l0.073-0.0367l0.0513,0.088
		l-0.073,0.0438l0.5631,0.9286l0.0876-0.0547l0.6729,1.3782c-0.0292,0.0367-0.0584,0.0696-0.088,0.1134h-0.2044v0.3437
		c-0.395,0.7166-0.6436,1.6381-0.6436,2.6584c0,0.3475,0.0367,0.6762,0.0876,0.9944v0.234h0.0438
		c0.0442,0.1973,0.088,0.3875,0.1464,0.5702l-0.0438,0.0221l0.146,0.2707c0.0588,0.1606,0.1318,0.307,0.2048,0.4534h-51.0143
		c0.1097-0.4572,0.1756-0.9435,0.1756-1.4554c0-1.1004-0.2778-2.0915-0.7313-2.8302L537.6957,215.8565z M134.6987,182.5978
		l0.9323-0.5268l-0.0914-1.5209l1.9747,1.6856l-0.2669,0.395l0.0108,0.0329l0.5085,0.3325l0.234-0.3437l2.6033,2.2267l-0.267,0.3913
		l0.0183,0.0404l0.5081,0.3329l0.234-0.3403l2.5996,2.2233l-0.2666,0.3875l0.0217,0.0438l0.4864,0.322l0.2377-0.3437l2.6179,2.2375
		l-0.2707,0.3875l0.0258,0.0476l0.2557,0.1681l6.3112-9.0789l0.0255,6.9035l0.0475,13.0862l-1.6894,0.0183v0.0401h-4.7899
		l-3.4188,0.0292l0.0112,2.728l-0.808,1.6819l-7.5396,0.0876l-0.2632-23.6751H134.6987z"/>
	<polygon   points="305.7094,174.082 305.7566,174.06 305.7932,174.0416 305.797,174.0379 305.8737,173.9757 
		305.9322,173.899 305.9726,173.8114 305.9835,173.7309 305.9835,173.7309 305.9835,173.7309 305.9872,173.7162 305.976,173.6211 
		305.9467,173.5298 305.8959,173.4493 305.8224,173.3834 305.764,173.3504 305.7349,173.3358 305.6435,173.3104 305.5521,173.3325 
		305.4641,173.3763 305.457,173.3763 305.3836,173.4384 305.3252,173.5189 305.2852,173.6065 305.2706,173.7016 305.2706,173.7162 
		305.2706,173.7162 305.2706,173.72 305.2777,173.7968 305.3069,173.8844 305.3619,173.9649 305.4312,174.0308 305.5154,174.0783 
		305.5192,174.082 305.6105,174.1075 305.7056,174.0854 	"/>
</g>
</svg>
