<?xml version="1.0" encoding="utf-8"?>
<!-- Generator: Adobe Illustrator 18.1.1, SVG Export Plug-In . SVG Version: 6.00 Build 0)  -->
<svg version="1.1" id="prague" xmlns="http://www.w3.org/2000/svg" xmlns:xlink="http://www.w3.org/1999/xlink" x="0px" y="0px"
	 viewBox="0 0 1002.0399 176.6921" enable-background="new 0 0 1002.0399 176.6921" xml:space="preserve">
<g>
	<path   d="M1001.4836,140.6188l0.5166-0.323l0.0397-0.3303l-0.0573-28.2505l-5.3864-4.665l-0.8396-0.007
		l0.011-11.6369h0.1576l-0.4305-0.4306v-0.0037l-0.0394-0.3263l-0.0397-0.2657l-0.0499-0.2047l-0.0467-0.1257l-0.0504-0.05
		l-0.0466,0.0287l-0.0504,0.1077l-0.05,0.1867l-0.0397,0.2473l-1.8945-1.8692l0.0107-7.1159l-0.89-1.3526l0.011-2.1099
		l-2.6878-5.4077l-2.7559,5.081l-0.0106,2.1528l-0.926,1.2919l-0.0393,7.2948l-1.8192,1.6653l-0.0683-0.122l-0.079-0.0503
		l-0.0679,0.0287l-0.0684,0.1077l-0.0679,0.1867l-0.0574,0.2186l-0.7143,0.6603l0.244,0.0254v0.7856l-0.0394-0.165l-0.1256,0.463
		l-1.2416-1.8372v-1.0586l-5.7662-3.6061l0.0504-5.4617l-0.664-0.7389l0.0107-1.5142l-2.4545-3.4018l-2.5295,3.2401l-0.0217,1.5286
		l-0.6926,0.7106l-0.0467,5.526l-6.0999,3.5201l-0.018,1.0942l-2.6088,3.5815l-0.129,8.9884l-0.9869-0.0033l-2.0021-0.011
		l0.1759-11.4179h0.3803l-1.2596-1.1159l-0.0466-0.0897l-0.1183-0.1257l-0.1293-0.0503l-0.007,0.0073l-1.4389-1.2776l0.1076-6.9862
		l-0.9653-1.3279l0.0287-2.0702l-2.9031-5.3037l-3.1251,4.9913l-0.0396,2.1099l-1.055,1.2633l-0.1364,7.1622l-3.3047,2.6445
		l0.4806,0.0254l-0.2366,12.2432l-0.4879,0.0536l-0.664,33.0232h-3.7424l-0.1474-18.9821l-2.8238-3.7498l0.47-0.707l-3.4198-1.0762
		l-0.0106-0.3553v-0.0143l-0.1437-0.1507l-0.0213-3.0825v-0.269l-0.011-0.0073l-0.0176-0.0037l-0.0217-0.0037l-0.0287-0.007h-0.0393
		h-0.029l-0.0394,0.007l-0.0286,0.0037l-0.0181,0.0037l-0.0217,0.0073l-0.0107,0.007l0.0217,3.3478l-0.158,0.1617l0.0106,0.341
		l-2.7054,1.0619l-0.6173,1.2056l0.4126,0.5027l-0.2366,0.3983l-2.5405-0.011v-0.0356h-0.3303l-0.0393-0.0863h0.1866l-0.1866-0.366
		v-0.6709l-0.42-0.14l-0.294-0.9473l0.147-0.9006l-0.1866-0.8003l0.4127-0.5526l0.8183-0.6996l-1.0549,0.4556l-0.4487,0.506
		l-0.2833-0.4343v-1.4066l-0.4883,0.9186v0.7143l-0.323-0.402l-1.4565-0.8003l0.244,0.3086l-3.8288-1.6076v-0.226l-0.011-0.0107
		l-0.1073-0.1113v-2.5012v-0.0107l-0.011-0.0037l-0.018-0.0037h-0.0176l-0.0217-0.007h-0.018h-0.0286h-0.0217l-0.0176,0.007
		l-0.0217,0.0037l-0.0106,0.0037v0.0107v2.5012l-0.1151,0.1077v0.0143v0.165l-5.2173-0.0217v-0.172l-0.0107-0.011l-0.1077-0.111
		l0.0107-2.5082l-0.0107-0.0037l-0.011-0.0037l-0.0176-0.0107h-0.011l-0.0286-0.0037h-0.0287h-0.0217l-0.0176,0.0037h-0.0217
		l-0.018,0.0033l-0.0107,0.011v0.0037l-0.0107,2.5082l-0.1042,0.1077l-0.0107,0.0143v0.269l-3.8107,1.5253v0.0823l0.2333,0.786
		v0.8613l-2.0705,2.3968l-0.3013-0.097l-0.2837-0.9542l0.1543-0.9043l-0.1866-0.804l0.4236-0.5526l0.829-0.6996l-1.066,0.4556
		l-0.4486,0.5096l-0.2833-0.4376l0.0107-1.4069l-0.4987,0.9186l-0.0106,0.7143l-0.3123-0.402l-1.4676-0.8003l1.0476,1.3636
		l0.262,1.2023l0.3123,0.5596l-0.2513,0.2943l-0.0106,1.1302l-0.664,0.9796h0.079l-0.061,0.1183l-2.0595-0.0033l-0.2153-0.3733
		l0.4593-0.531l-0.7929-1.2166l-2.6088-1.0693l0.0106-0.3516v-0.018l-0.1576-0.1613l0.0286-3.3588v-0.0107l-0.0073-0.0037
		l-0.0213-0.0107l-0.018-0.0037l-0.0287-0.0073l-0.0397-0.0033h-0.0287H899.68l-0.029,0.0033l-0.0214,0.0073l-0.018,0.0037
		l-0.0106,0.0033l-0.0287,3.3731l-0.158,0.1507v0.3553l-3.6135,1.0729l0.4773,0.7106l-2.9424,3.7531l-0.2223,19.1544h-5.8743
		l0.1973-30.4217l-1.1339-1.0476l-9.986,0.036l-0.7143-0.6496l0.0287-24.3394l2.3575-2.3289l-0.061-2.4005l-2.2065-11.2783v-5.149
		v-0.011h-0.011h-0.018l-0.032-0.0033h-0.029h-0.0287h-0.0393h-0.0287h-0.0286l-0.0217,0.0033h-0.0179v0.011l-0.0107,5.1563
		l-0.3013,1.5536l-0.0397-0.201v-4.8657l0,0l-0.0106-0.0037l-0.018-0.0033h-0.0287h-0.0287h-0.0323h-0.0287h-0.0287h-0.029
		l-0.0213,0.0033l-0.0074,0.0037l0,0l-0.0106,4.873l-1.4172,7.1945l-3.8898-16.8579h-0.0397v-1.7799l-0.007-0.0033l-0.011-0.0073
		h-0.0106h-0.018l-0.0214-0.0037h-0.0286h-0.0291l-0.0176,0.0037h-0.0217h-0.0179l-0.0107,0.0073v0.0033v1.7799l-4.1444-0.025
		l-0.0073-1.8335v-0.0037l-0.0107-0.0037h-0.0217l-0.018-0.0074h-0.0176h-0.0323H865.06h-0.0287l-0.0217,0.0074h-0.007
		l-0.011,0.0037l-0.0106,0.0037l0.0106,2.2642l-3.7927,17.1232l-1.4749-7.6108l-0.0286-4.905l-0.0107-0.0073h-0.0074l-0.0213-0.0037
		h-0.0286h-0.0287h-0.0397h-0.0287h-0.0286H859.48l-0.018,0.0037l-0.0107,0.0073l0,0l0.0287,4.4494l-0.165-0.829l-0.0287-5.1956l0,0
		l-0.0107-0.0074h-0.0217l-0.0179-0.007h-0.0394l-0.0287-0.0037h-0.0286l-0.0397,0.0037h-0.0287l-0.0217,0.007h-0.0176v0.0037
		l0.0287,5.2067l-2.0599,11.4179l0.036,2.3935l1.0549,1.0226l1.2019,1.2273l0.1867,30.8986l-0.147,0.1224l-0.488-5.3l-0.0287-4.8264
		l0,0l-0.011-0.0073h-0.0176l-0.0217-0.0033h-0.0286h-0.0287h-0.0397h-0.0287l-0.0286,0.0033H858.59l-0.007,0.0073h-0.0106
		l0.0286,4.923v0.0073l-0.499,6.2043l-0.1544,0.1253l-0.1863,0.8363l-1.1163,0.0107l-0.0287,0.0287l-0.0393,0.2227l-0.0286,0.4126
		l-0.018,0.5739l-0.0217,0.725l-0.0176,0.8253v0.9043l-0.0397,0.5276l0.018,0.4986l1.134-0.0037l0.129,18.3075h-6.9973
		l-0.7139-21.3433l-0.323-9.7563l-9.8283-0.0323l0.0864,3.0895l-4.8264-0.018l-2.5298-0.5776l-4.679-0.018l-0.488-0.28
		l-4.5071-0.0143l-0.2227-9.6884l-2.3969-2.7558l-0.4953-22.1145l1.3456-1.3672l-0.0466-2.4185l-1.6146-9.9147l-0.9869,8.4971
		l-0.9866-6.0819l0.1973-0.262l0.1257-0.316l0.0393-0.3373l-0.0466-2.3395l-1.5535-9.577l-1.048,8.9061l-2.8705-17.7622
		l-2.1208,18.1461l-1.4353-9.0891l-1.1662,9.5914l0.0503,2.3288l0.018,0.1363l-0.5743,4.751l-0.7426-4.769l-1.1449,9.4337
		l0.0397,1.9342l-2.0022-5.4613l-4.0154,0.0287l-5.1887,13.7394l-0.097-7.4598l0.4593-0.4667v-0.165l0.8863-0.8936l-0.0287-2.4005
		l-1.4926-9.832l-0.481,3.8144l-0.3123-2.0562l0.029-0.2043l-0.029-2.3219l-1.4352-9.516l-1.1732,9.2364l-2.4509-18.0995
		l-2.1315,18.1781l-1.3959-9.4047l-1.2236,9.5234l0.0217,2.2855h-0.1006l-0.1937-1.3202l-0.2656,1.9985l-0.0574-0.3983
		l-1.2129,9.3834l0.0217,2.2822l1.3096,1.2702l0.1151,13.6215l0.061,7.4312l-2.0345,2.5945l0.1003,12.9248l-0.8899,0.5923
		l0.115,15.5193l0.9579,7.1732l0.0397,0.3406l0.1576,0.0073l0.0074,1.2019l0.0503,0.3697v-0.0143l0.2726,0.5166h-5.4506
		l-3.7714-0.007l-0.0212-15.078l-0.0074-6.3156l-0.0107-4.6827l0.312-0.068l0.176-0.1113l0.1077-0.158l0.0679-0.208l0.0287-0.0897
		l0.0397-0.0323l0.0287-0.0143l0.0503-0.0074l0.05,0.0107l0.0073-0.3406l0.2833-0.061l0.158-0.097l0.1077-0.147l0.0683-0.2443
		v-0.1687v-2.9961l0.1937-0.1936l-0.0393-0.054l-0.183-0.1576l-1.4462-1.9305h-0.0107l-0.018-9.6347h0.1257l0.3697-0.0037v-0.4196
		l1.4278-2.3075l-0.2333-0.093l0.0757-0.1257l-0.3983-0.158v-4.2091h0.2043l-0.4307-0.768L772.46,79.4738h-0.0107h-0.1183h-0.0074
		v-0.0176l0.0467-5.8526h1.0262l-0.0573-0.0467h0.2153l-0.42-0.3193l0.8683-0.323h-1.7402v0.0536h-0.1363v0.6353l-0.0573,5.8453
		h-0.0287h-0.097l0,0l-0.8326,7.9195l-2.0129,0.0143l-1.9735-27.0309h-0.1364l0.05-5.8809l-0.05-0.0037l-0.0577,0.0037
		l-0.061,5.8809h-7.9228l0.0504-5.8809h-0.0504h-0.0573l-0.0504,5.8809h-0.1364l-1.9735,27.0309l-2.0419-0.0143l-0.8326-7.9195
		h-0.0176h-0.09h-0.0287l0.0504-5.8453h-0.0504h1.2203l-0.0577-0.0467l0,0l-0.3623-0.2763l0.8613-0.3123h-0.194l0.1437-0.0536
		h-1.7368v0.6423l-0.061,5.8919l0,0h-0.0176h-0.0397v0.025h-0.0679h-0.011l-1.1016,10.3057l-0.4307,0.7643l0.2153,0.0074v4.191
		l-0.4413,0.1723l0.0897,0.14l-0.2153,0.0823l1.4246,2.3075v0.4196l0.3733,0.0037h0.1077l-0.1686,11.3069v-0.0073l0,0v0.0073
		l-0.0684,4.8153v0.0107l-0.0176,1.0299v0.0107l-0.0577,4.1804l-0.0786,5.2283l-1.6329-0.0073v-0.8503v-0.0217h-0.1757
		l0.0107-0.6959l-0.0107-0.018l-2.4222-0.036v1.5969l-1.9735-0.0143v-0.865l-0.14-0.007l-0.0073-0.7356v-0.0143l-2.3862,0.0323
		l-0.0286,1.5646l-2.0129-0.0217l0.0214-0.8863h-0.0897l0.0107-0.6603l-0.0107-0.0143l-2.4111-0.0217l-0.0323,1.5646l-1.8552-0.0107
		l-0.1077-8.0271l1.2989-0.8646l-1.5932-1.6902v-0.6746v-0.384l-0.1364-0.0536l-0.0573-2.3075v-0.0033l0.3013-0.0074v-0.664
		l-0.2906-0.0966l-0.079-2.0562l-0.0214-0.0073l0.3227-0.0033v-0.664l-0.33-0.104h-0.0393l-0.0504-1.5396l-0.0466-0.007h-0.7033
		l-0.0503,1.5536h-0.373v0.1543h-1.5433l-3.4194-17.3279v-6.1719h-0.1866v6.1469h-8.6765v-4.4747l0.0107-1.4029h-0.0107v-0.2693
		h-0.194v6.1576l0,0h-0.0213l-3.4092,17.3708h-0.7929h-0.7893v-0.0467l-0.2656-0.104h-0.097l-0.0394-1.5429l-0.0286-0.0107h-0.7143
		l-0.0394,1.5535h-0.3409v0.6603l0.244,0.1077h0.0504l-0.0107,0.2693l-0.011,0.348l-0.007,0.3516l-0.0107,0.3443l-0.011,0.3516
		l-0.0106,0.3447h-0.2906v0.664l0.2906,0.1363v0.269l-0.007,0.384l-0.011,0.384v0.384l-0.0107,0.3873l-0.0073,0.3807h-0.1364v0.384
		v0.5883l-1.4962,1.5322l1.2596,1.0369l0.0107,18.8281l-0.0217-0.018l-0.0463-0.0397l-0.0291-0.0033h-0.0393l-0.1183,0.0176
		l-0.0287,0.0037l-0.0397,0.0217l-0.0179,0.0393l-0.0107,0.0287l-0.0393,0.0647v0.0074v0.025l0.0287,0.0287l0.0287,0.054
		l0.0106,0.007l-0.0106,0.0217l0.0213,0.0393l0.0073,0.025v0.036l0.0107,0.061l0.0217,0.061l0.0466,0.0573l0.0213,0.011
		l0.0074,0.007v0.0254l0.0107,0.0786l-0.0181,0.072l-0.0106,0.086v0.3123l0.0504,0.068v0.3696l0.0286,0.0827v0.0467l0.0287,0.0287
		l0.079,0.079l0.0286,0.0356v2.0525l-0.0217,0.011l-0.0463,0.0897l-0.011,0.287l-0.018,0.1363l-0.0896,0.158v0.165v0.409
		l-0.0107,0.3193l0.0107,0.1653l0.011,0.0287l-8.9315,0.007l-25.0107,0.0143l0.0074-0.6889l-0.0573-0.0897h-0.0143l-0.079-0.1077
		l0.007-0.2976l-0.1183-0.122l0.0287-2.1532l0.0143-1.9126l0.1219-0.2366l-0.0176-0.0073l-0.1473-0.0037h-0.1866l-0.111,0.0037
		l0.111,0.2403l-0.018,1.9162l-0.025,2.1532l-0.1183,0.1183l-0.0037,0.2976l-0.068,0.0863h-0.0217l-0.061,0.1003l-0.0107,0.7033
		l-25.1003,0.0037l-8.2278,0.0037v-0.3733h-0.0254l-0.025-0.018l-0.0323-0.0753l-0.0106-0.079v-0.0356l-0.0291-0.0397h-0.0536
		l-0.0073-0.0323l0.0217-0.043l-0.036-0.0823l-0.007-0.079l-0.0074-0.104v-0.0143l0.0287-0.018l0.0217-0.0217l0.0037-0.0323v-0.079
		l0.0356-0.0536l-0.0213-0.0683l-0.0107-0.1507l-0.0073-0.262l-0.0107-0.1973v-0.025l-0.0323-0.0107h-0.061l-0.0684,0.0107
		l-0.0286,0.0037h-0.0143l-0.007-0.0287l-0.0143-0.018l-0.0361-0.0217l-0.036-0.043l-0.018-0.0217l-0.025-0.0323l0.018-0.122
		l0.007-0.025l-0.0176-0.0143l-0.0291-0.018h-0.0393l-0.018-0.0213v-0.0397l0.0143-0.025l0.011-0.0073l0.043-0.0143l-0.0037-0.0213
		l-0.0217-0.0037l-0.025-0.0073l-0.0323-0.0287l-0.0213-0.025l-0.0147-0.0074h-0.0176l-0.0504-0.05l-0.043-0.0647l-0.0037-0.061
		v-0.061l-0.036-0.072l-0.0033-0.0287l0.0143-0.05l-0.011-0.176l-0.0106-0.0647l-0.043-0.068l-0.0179-0.0217h-0.0107l0.0034-0.0107
		l-0.0214,0.0107h-0.0074l-0.0033-0.0107l-0.0143-0.0287v-0.011h0.0176l-0.0176-0.0786l-0.029-0.054l0.061-0.0536l0.0433-0.0577
		l-0.0143-0.0753l-0.0291-0.0716l0.0073-0.0287l0.036-0.0287l0.0467-0.054h0.0287l0.0106-0.0287l0.0143-0.0213l0.025-0.0147v-0.025
		v-0.007l-0.0177-0.011h-0.029l-0.0393-0.0287l-0.0217-0.025l-0.007-0.0683l0.025-0.0356l0.0037-0.0254l0.025-0.0356l-0.0033-0.0073
		l0.0143-0.0323v-0.0213v-0.0254l0.0143-0.0037h0.018l0.007-0.0033v0.0033h0.0107l0.0073-0.0033h0.0143l0.0106,0.0033h0.2407
		l0.0107-0.05l0.007-0.018l0.011-0.0287v-0.0287l0.0107-0.0217l0.0286-0.0393l0.0467-0.0827l0.0073-0.0504l-0.0433-0.0287
		l-0.0393-0.0287l-0.0504-0.018l-0.1076-0.0503l-0.0431-0.0143l-0.036-0.0393l-0.0033-0.0647l-0.0143-0.0287l-0.0037-0.0323
		l-0.036-0.025l-0.0179-0.0107l-0.0214-0.0254l-0.0253-0.0356l-0.007-0.036l0.0037-0.043h-0.0397l-0.0356-0.0287l-0.0216-0.0323
		l-0.0107-0.0074h-0.0577l-0.0107-0.0143l-0.0143-0.0107h-0.043l-0.0074-0.0253l-0.0032-0.0143l-0.0144-0.0143v-0.0143
		l0.0034-0.0143l0.0217-0.0213l0.043-0.061l0.018-0.0253v-0.0467l-0.0037-0.0716l0.0107-0.0323v-0.0393v-0.0683v-0.036l0.018-0.0573
		v-0.0393l-0.0107-0.036l0.0217-0.0467l0.025-0.036l0.0037-0.0463v-0.0933v-0.011l0.0143-0.0033h0.025l0.054-0.0074l0.0717-0.0393
		l0.025-0.029l0.0143-0.025v-0.007l-0.0107-0.0073l-0.0359-0.0143l-0.032-0.0393l-0.018-0.0143l-0.0037-0.018v-0.0503v-0.1903
		l-0.0073-0.0717l0.0143-0.025l-0.0033-0.011v-0.0143l0.0106-0.0143l0.0074-0.025l0.0106-0.0323l0.0037-0.0107l0.0394-0.054
		l0.025-0.043l0.0253-0.0393l-0.0037-0.0647v-0.0683l-0.0073-0.025l-0.007-0.0107v-0.0217v-0.036l0.043-0.0786l0.0037-0.029
		l0.0037-0.0393v-0.086l0.0176-0.0683l-0.0176-0.0753l-0.0143-0.0393l-0.018-0.029l-0.0646-0.0573l-0.054-0.043l-0.0467-0.068
		l-0.025-0.0254l-0.0213-0.0143l-0.0037-0.0323l-0.0254-0.0323l-0.0143-0.025l-0.0106-0.0287v-0.0143l0.0106-0.011l0.0254-0.0287
		l0.0107-0.0287l0.0073-0.025l0.0213-0.018l0.0323-0.018l0.0646-0.0037h0.025l0.0323-0.0143l0.0504-0.0323l0.0107-0.025v-0.036
		l-0.0107-0.111l-0.0037-0.0253l-0.0074-0.0107l-0.0033-0.0143l-0.011-0.0073v-0.0176l0.0217-0.018l0.0143-0.0143l0.0037-0.0254
		v-0.025l-0.0037-0.007l-0.0107-0.0147l-0.0143-0.0107l-0.011-0.007h-0.0033l-0.011-0.0037l-0.0033-0.0107l-0.0074-0.0074v-0.0107
		l0.0107-0.011l0.0073-0.0287l-0.0073-0.025l-0.0143-0.018v-0.0107l-0.0106-0.0107l-0.0394-0.0073h-0.0217l-0.0106-0.0074
		l-0.0143-0.0033l-0.036-0.0287l-0.0037-0.0074l-0.0037-0.0143l-0.007-0.018l-0.0037-0.0143l-0.007-0.0217v-0.0463l-0.0037-0.011
		l-0.0179-0.0107l-0.0287-0.025l-0.0467-0.0434l-0.054-0.0393l-0.0212-0.018l-0.0254-0.0213l-0.0463-0.0467l-0.0147-0.0143
		l-0.0176-0.0254l-0.011-0.0536l-0.0107-0.0253l0.0074-0.0287l0.0536-0.0107l0.0467-0.0143l0.0393-0.0397l0.0291-0.0467l0.05-0.0356
		l0.0217-0.0037h0.007l0.011-0.007l0.0034-0.029l-0.0177-0.025l-0.0037-0.0217l0.0037-0.0107l0.0106-0.0107l0.0071-0.0254
		l-0.0034-0.025l-0.011-0.0143v-0.007l0.0217-0.0254l0.0037-0.0647l-0.0037-0.0467l0.0073-0.025l0.0213-0.025l0.0037-0.0287v-0.029
		l-0.0143-0.0536l-0.0143-0.0217l-0.0254-0.0033l-0.025,0.0033l-0.0323-0.0176l-0.0037-0.0143l-0.0176-0.0074h-0.018h-0.054
		l-0.0536,0.0074l-0.0254,0.0176l-0.025,0.0037l-0.122,0.0074l-0.0466,0.0287l-0.025,0.0143l-0.0253,0.025l-0.0323,0.043
		l-0.0143,0.0143h-0.0176h-0.0143l-0.0074-0.0176v-0.0254v-0.018l-0.0073-0.0176l-0.007-0.0073l-0.0106-0.025l-0.0037-0.0217
		l-0.0217-0.0467l0.0037-0.036l0.0107-0.0033l0.0253-0.0143l0.0106,0.0033l0.0074,0.011l0.0213,0.0143l0.0143,0.0037l0.0037-0.0037
		l0.0143-0.0143l0.0323-0.0037h0.007l0.0143,0.0037l0.0074,0.0107h0.0073h0.0106l0.0107-0.0074l0.0106-0.007h0.0143h0.0433
		l0.025-0.0074h0.0073l0.0177-0.0107l0.0179-0.018l0.0037-0.0107l-0.0037-0.0143v-0.0467v-0.036l-0.0037-0.025H645.8l-0.068-0.0074
		h-0.011l-0.0106-0.025l0.025-0.0393v-0.036l-0.018-0.0143l-0.0536,0.0107l-0.0361-0.0287l-0.0143-0.036v-0.025l-0.025-0.007
		l-0.0037-0.036l0.018-0.043l0.0217-0.0397l-0.011-0.05l-0.0143-0.0753l-0.0037-0.036l-0.007-0.0143l-0.018-0.011h-0.0393
		l-0.0037-0.0033l-0.0143-0.0217l-0.018-0.0323v-0.0393l-0.0143-0.0323l-0.0287-0.036l-0.0253-0.018l-0.043-0.0107h-0.0323
		l-0.032-0.0287l-0.0433-0.0323l-0.018-0.036l-0.007,0.0037l-0.0143-0.0107l-0.025-0.0393l-0.0291-0.054l-0.0717-0.1003
		l-0.043-0.0397l-0.0323-0.0536l-0.0143-0.0217l-0.0143-0.0323l-0.0037-0.025l-0.0287-0.0254l-0.0897-0.0753l-0.054-0.032
		l-0.0536-0.0217l-0.1077-0.0217l-0.054-0.0033l-0.0574-0.061l-0.0356-0.0073h-0.0217h-0.0073l-0.0176-0.0143v-0.054l0.025-0.061
		l-0.0106-0.0536l-0.018-0.0037l-0.036,0.0037l-0.0536,0.0074h-0.0254v-0.029l0.0504-0.0467l0.0324-0.0467v-0.0213l-0.0144-0.0287
		h-0.0573l-0.0433,0.0213h-0.0107l-0.0037-0.0107l-0.007-0.0287l-0.0863-0.0896l-0.007,0.0037l-0.0037-0.0037l-0.0143-0.011h-0.0503
		l-0.0033-0.0143l0.0106-0.032l-0.0143-0.029v-0.032l0.0466-0.0683l0.0536-0.0467l0.0217-0.0287l0.007-0.018l-0.0143-0.018
		l-0.0393-0.0536l-0.0323-0.018l-0.0359-0.0107l-0.1364,0.0033l-0.1003,0.0073l-0.0467,0.007l-0.061,0.011l-0.036,0.0107
		l-0.043,0.025l-0.0646,0.054l-0.0287,0.0213l-0.0106,0.0217l-0.0287,0.018l-0.1473,0.104l-0.018,0.0397l-0.0143,0.0393
		l-0.0213,0.0393l-0.0253,0.0467l-0.007,0.0397l-0.0073,0.043l0.0143,0.0287l0.011,0.0217l0.025,0.0143l0.0863-0.0037l0.0394-0.0074
		l0.0466,0.0217l0.068,0.043l0.0073,0.0143l0.007,0.018l0.0254,0.054l0.0286,0.025l0.0074,0.0143l-0.0037,0.0143l0.0037,0.0107
		v0.011l-0.0037,0.025l0.0037,0.0287v0.0037l-0.0147,0.0107v0.011v0.0143l0.0073,0.007l0.0074,0.0074l0.0213,0.0176l0.0287,0.0467
		v0.0217l-0.0037,0.0323l-0.0213,0.0143l-0.0073,0.007l-0.007,0.0147l-0.018,0.0213l-0.0073,0.0107l-0.0143,0.061v0.0147
		l-0.0069,0.007l-0.0254,0.0073l-0.0823,0.1003h-0.0073l0.0073,0.0287l0.0037,0.018l-0.018,0.025l-0.0073,0.0287v0.0217
		l-0.0033,0.025l-0.0147,0.036v0.0503v0.0213l-0.0143,0.0323l-0.032,0.043l-0.018,0.036l-0.0323,0.0397l-0.036,0.0287
		l-0.0213,0.0467l-0.0147,0.0467l-0.007,0.0176l-0.0286,0.0217h-0.0504l-0.043,0.0143l-0.036,0.0323l-0.0143,0.0143l-0.0143,0.0393
		l-0.0143,0.097v0.025l-0.0217,0.0147l-0.0213,0.007l-0.025,0.018l-0.097,0.0933l-0.0504,0.025l-0.0573,0.0143l-0.054,0.018
		l-0.025,0.0073l-0.036-0.011l-0.086-0.068l-0.0536-0.036l-0.011-0.018l-0.025-0.0287l-0.018,0.0287l0.0037,0.0143l-0.0143,0.011
		l-0.0397,0.007l-0.0323-0.0143h-0.1577h-0.018l-0.0073,0.0143l0.0073,0.018l0.0143,0.007l0.079,0.011h0.0357l0.0359,0.0037
		l0.036,0.0143l0.0037,0.0213l-0.029,0.0037l-0.0753,0.0107l-0.0787,0.018l-0.0323,0.018l-0.0037,0.0143v0.0074l0.007,0.007
		l0.0466,0.0037l0.1544-0.0107l0.0143,0.007l0.011,0.0074l-0.018,0.0107l-0.158,0.0107l-0.0393,0.0107l-0.011,0.0073v0.025
		l0.036,0.0143l0.043-0.0033h0.0753h0.036l0.0217,0.0033l0.0033,0.011v0.0107h-0.007l-0.158,0.018l-0.0213,0.0107l0.0176,0.018
		l0.0397,0.0217l0.086,0.0033l0.079-0.0033l0.0394-0.0074l0.029-0.007l0.043-0.0074l0.0393,0.0107l0.036,0.0037l0.043,0.0143
		l0.0827,0.0503v-0.0037h0.0143l0.0177-0.007l0.011-0.0037l0.0212,0.0107l0.0287,0.0037l0.0146-0.0037l0.0107-0.0217l0.007-0.007
		l0.0143-0.0073h0.036h0.0144l0.0143-0.0107l0.0217-0.0037h0.0143l0.0143-0.0033l0.007,0.0033l0.0073,0.011l0.0143,0.0033h0.0143
		l0.036-0.0033h0.0143l0.018-0.011l0.0143-0.0033l0.0143-0.0074h0.025h0.0106l0.018,0.0074l0.0143,0.007l0.0647,0.0074
		l0.0646-0.0074l0.068-0.0323l0.0466-0.0393l0.054-0.036l0.0323-0.0143h0.0287l0.0323-0.0037l0.0287-0.018l0.0504-0.0463h0.1183
		h0.007l0.0217,0.007l0.0037,0.0287l0.0214,0.0573l0.0037,0.1187l0.0106,0.0643v0.0074v0.025l0.0037,0.0287l0.011,0.1293
		l-0.011,0.0683v0.032l-0.0143,0.036l-0.0357,0.0573l-0.0323,0.0753l-0.0037,0.036l-0.0217,0.0397l-0.043,0.0786l-0.0143,0.0753
		l-0.0287,0.0827l0.0037,0.1543l0.0143,0.237l0.025,0.0753l0.018,0.061l-0.0037,0.025l-0.036,0.0143l-0.0463-0.0467l-0.0253-0.007
		l-0.0107-0.0073l-0.0073-0.0217l-0.0107-0.0643l-0.007-0.0287l-0.0217-0.0397l-0.0933-0.0933l-0.1183-0.068l-0.0646,0.0033
		l-0.0287,0.011l-0.0253,0.0323l-0.0287,0.068v0.0323l0.0253,0.0323l0.025,0.025l0.0323,0.011l0.0536,0.043l0.0468,0.0536v0.0254
		l-0.0394,0.0143h-0.0217l-0.0393,0.0287l-0.061,0.018l-0.054,0.0536l-0.007,0.0323v0.018l-0.0074,0.018l-0.0319,0.0107
		l-0.018,0.043v0.0753l-0.0434,0.0647v0.0753l0.054,0.0467l0.025,0.018l0.018,0.043l0.0037,0.079v0.036l-0.0217,0.043l-0.0754,0.018
		l-0.0716,0.0467l-0.054,0.0213l-0.0143,0.0683l-0.0536,0.1543l-0.0684,0.0287l-0.0536-0.043l-0.061-0.0323l-0.1007,0.0176
		l-0.1363,0.0037l-0.0753-0.0143l-0.0933,0.0717l-0.0967,0.1224l-0.0323,0.1863l0.0037,0.1507l0.0679,0.0074l0.0037,0.1113
		l-0.0037,0.1543l0.0037,0.079l-0.097,0.0536l-0.1363,0.097l-0.1257,0.183l-0.061,0.068l-0.0034,0.0827l0.025,0.0107l0.0143,0.0287
		v0.018l-0.0073,0.036v0.1183l-0.007,0.0217l-0.025,0.025h-0.0146l-0.0287-0.025l-0.0107-0.0577l-0.0429-0.05l-0.0504-0.0287
		l-0.043,0.007l-0.025,0.0037l-0.018,0.0323l0.0037,0.007l-0.0253,0.011l-0.0287,0.007l-0.025,0.0073l-0.0286-0.0217l-0.0504-0.0467
		l-0.043-0.036l-0.0397-0.0033h-0.0394l-0.1113,0.0176l-0.0286,0.0037l-0.0393,0.0217l-0.0253,0.0393l-0.0037,0.0287l-0.0357,0.0577
		l-0.0037,0.0143v0.025l0.025,0.0287l0.0323,0.054l0.0073,0.007v0.0254l0.007,0.0356l0.011,0.0217v0.0393l0.0143,0.061l0.0143,0.061
		l0.0536,0.0577l0.0253,0.0107v0.0107v0.0217l0.0107,0.079l-0.0107,0.0753l-0.0037,0.0823l-0.0073,0.3123l0.0503,0.0717v0.366
		l0.0287,0.0863l-0.0037,0.0356l0.0323,0.036l0.0753,0.079l0.1219,0.1326l0.061,0.054l0.0286,0.0213l0.061-0.0037l0.079-0.043
		l0.0826,0.0254l0.0717,0.0287l0.036,0.1003l0.0037,0.0827l0.0143,0.0467v0.018l-0.0323,0.0107l-0.0107-0.0254l-0.0397-0.0176
		l-0.0393,0.0143l-0.011,0.068l0.072,0.0683l0.0753,0.043l0.0467,0.025l0.043-0.0033l0.097-0.018h0.0323l0.0356,0.018l0.0037,0.0176
		l-0.018,0.011l-0.0393,0.0143l-0.011,0.0393l0.011,0.043l0.0356,0.018l0.0287,0.061l-0.025,0.122l-0.043,0.1257l-0.0143,0.1183
		l-0.0324,0.0467l-0.0753,0.054l-0.183,0.201l-0.1219,0.0753l-0.0934,0.1507l-0.0466,0.0323l0.025,0.061l0.0037,0.061l-0.043,0.0536
		l-0.1006,0.1077l-0.068,0.0397l-0.0467,0.0896l-0.0106,0.287l-0.018,0.1363l-0.0897,0.158v0.165v0.409l-0.011,0.3193l0.011,0.1654
		l0.0033,0.0287l-8.8521,0.007l-25.043,0.0074l0.0073-0.6783l-0.054-0.0933h-0.0107l-0.0826-0.1003l0.0037-0.305l-0.111-0.115
		l0.0176-2.1602l0.0143-1.9158l0.1187-0.2333l-0.0179-0.0074l-0.1437-0.0037h-0.1793l-0.1183,0.0037l0.1077,0.2407l-0.011,1.9158
		l-0.0176,2.1532l-0.1187,0.1183v0.298l-0.0717,0.0897h-0.0143l-0.061,0.0966l-0.0074,0.6963l-25.1143,0.018h-8.3141l0.0037-0.3733
		h-0.0217l-0.0287-0.0143l-0.0323-0.0827l-0.0073-0.0753l-0.007-0.0323l-0.025-0.043h-0.0577l-0.0037-0.0356l0.0253-0.0397
		l-0.036-0.086l-0.0143-0.0827l-0.0037-0.1003l0.0037-0.0143l0.0286-0.018l0.0143-0.025l0.0073-0.0253l0.0037-0.0823l0.0287-0.0503
		l-0.0143-0.0717l-0.0143-0.151l-0.011-0.2583l-0.0107-0.201l0.0074-0.025l-0.0397-0.0107h-0.0574l-0.0717,0.0107l-0.029,0.0037
		h-0.0143l-0.0032-0.0287l-0.0144-0.018l-0.036-0.0254l-0.0397-0.0393l-0.0213-0.018l-0.0217-0.0356l0.0143-0.122l0.011-0.0253
		l-0.0143-0.0143l-0.029-0.018l-0.0356-0.007l-0.0254-0.0074v-0.0393l0.0147-0.0287l0.0107-0.011l0.0393-0.0107l-0.0037-0.018
		l-0.0143-0.0107l-0.025-0.0037l-0.036-0.0323l-0.0176-0.0213l-0.0146-0.011h-0.0213l-0.054-0.0536l-0.043-0.0573l-0.0037-0.0647
		v-0.0647l-0.0356-0.0647v-0.0356l0.0107-0.0467l-0.0037-0.176l-0.0176-0.061l-0.0433-0.068l-0.0181-0.0253h-0.0107l0.0037-0.0107
		l-0.0217,0.0107h-0.007l-0.0037-0.0107l-0.0143-0.0287v-0.0107h0.018l-0.018-0.072l-0.0286-0.061l0.0573-0.0467l0.043-0.0647
		l-0.0034-0.0717l-0.036-0.0753l0.007-0.0287l0.0397-0.0287l0.043-0.054h0.0286l0.0037-0.0287l0.0217-0.0143l0.025-0.0213
		l-0.0073-0.018l0.0073-0.0143l-0.0217-0.011h-0.025l-0.043-0.0287l-0.018-0.025v-0.0683l0.0143-0.0356l0.0037-0.0287l0.025-0.0323
		v-0.0074l0.0143-0.0323l-0.0037-0.0213l0.0037-0.0217l0.0107-0.007h0.018l0.011-0.0037v0.0037h0.0033h0.0143l0.011-0.0037
		l0.0144,0.0037h0.2439l0.007-0.054l0.0073-0.0143l0.007-0.0287v-0.0287l0.0037-0.0217l0.036-0.0393l0.0503-0.0827v-0.0536
		l-0.0433-0.0287l-0.0393-0.0254l-0.0467-0.018l-0.1039-0.05l-0.0467-0.018l-0.036-0.036v-0.068l-0.0143-0.0253l-0.0037-0.0323
		l-0.0466-0.025l-0.0143-0.0107l-0.0176-0.0217l-0.0217-0.0393l-0.0143-0.036l0.007-0.043h-0.0393l-0.0359-0.0287l-0.025-0.0287
		l-0.0074-0.011h-0.061l-0.007-0.0143l-0.0143-0.0107h-0.036l-0.0143-0.025l-0.0037-0.0147l-0.0176-0.0107v-0.018l0.007-0.0143
		l0.018-0.0213l0.0467-0.061l0.018-0.0253l-0.0037-0.043v-0.0753l0.007-0.0323v-0.0467v-0.068v-0.0287l0.0217-0.0577v-0.0393
		l-0.0143-0.0397l0.0217-0.043l0.025-0.0356l0.007-0.0467l-0.007-0.0933l0.007-0.011l0.0074-0.0033h0.0323l0.0466-0.0073
		l0.079-0.043l0.025-0.025l0.0074-0.0254l0.007-0.007l-0.0143-0.0073l-0.0287-0.007l-0.0397-0.0467l-0.0213-0.0143v-0.018
		l-0.0037-0.0503v-0.19v-0.072l0.0106-0.025l-0.007-0.0107l0.007-0.0147l0.0037-0.0143l0.0143-0.025l0.0037-0.0323l0.0074-0.0107
		l0.032-0.054l0.036-0.043l0.018-0.0393l-0.0037-0.0683v-0.0647v-0.025l-0.0143-0.0143v-0.018v-0.0393l0.043-0.0753l0.0073-0.0287
		l0.0037-0.0434v-0.0823l0.0143-0.0683l-0.0143-0.0753l-0.0146-0.0356l-0.0213-0.0323l-0.061-0.0577l-0.054-0.05l-0.05-0.061
		l-0.0179-0.0254l-0.0323-0.0143v-0.0287l-0.0217-0.036l-0.0213-0.025l-0.0037-0.0287v-0.0143l0.0037-0.0107l0.025-0.0323
		l0.0106-0.0254l0.018-0.025l0.0217-0.018l0.0286-0.0143l0.0573-0.007h0.0287l0.036-0.0147l0.043-0.032l0.0143-0.029l-0.0037-0.032
		l-0.0107-0.1113l-0.0037-0.0254v-0.0143l-0.0107-0.0107l-0.0037-0.007l0.0037-0.0143l0.0107-0.0217l0.0143-0.0143l0.0037-0.025
		v-0.0254v-0.007l-0.0107-0.0143l-0.018-0.011l-0.0037-0.0033h-0.0106l-0.0106-0.0073l-0.0037-0.0074v-0.0176v-0.0073l0.0074-0.0107
		v-0.0253l-0.0037-0.025l-0.0144-0.018v-0.0107l-0.011-0.0107l-0.0394-0.0074l-0.0217-0.007h-0.0106l-0.0107-0.0037l-0.0323-0.0287
		l-0.0073-0.0073l-0.0033-0.0143v-0.018l-0.0143-0.0143l-0.0037-0.0213V132.1v-0.007l-0.0217-0.011l-0.0356-0.025l-0.0434-0.043
		l-0.0536-0.0397l-0.025-0.0143l-0.0217-0.018l-0.0467-0.05l-0.0073-0.0217l-0.025-0.018l-0.0106-0.0536l-0.011-0.0287
		l0.0073-0.0253l0.0536-0.0143l0.0467-0.0143l0.0397-0.0356l0.036-0.0467l0.0393-0.036l0.018-0.0037h0.0143l0.0107-0.0107
		l0.0037-0.025l-0.018-0.0254l-0.007-0.0213v-0.011l0.0176-0.0107l0.0037-0.025v-0.029l-0.0107-0.007v-0.0107l0.0143-0.0253
		l0.007-0.0643v-0.054l0.0037-0.018l0.0287-0.0287l0.0073-0.0287l-0.0073-0.025l-0.0144-0.054l-0.018-0.0213l-0.025-0.0037
		l-0.025,0.0037l-0.0254-0.0217l-0.007-0.0107l-0.0107-0.0074h-0.0253h-0.0573l-0.0504,0.0074l-0.018,0.0143l-0.0356,0.0033
		l-0.122,0.0073l-0.0504,0.0323l-0.018,0.0107l-0.025,0.0287l-0.0286,0.0397l-0.0254,0.0143l-0.0106,0.0037h-0.018l-0.0107-0.018
		v-0.0254v-0.025v-0.0074l-0.0073-0.0143l-0.0176-0.0213l-0.0037-0.018l-0.0143-0.0503l0.0033-0.0393h0.011l0.0214-0.0143h0.0073
		l0.0143,0.0143l0.0217,0.0143l0.0107,0.007l0.007-0.0107l0.0217-0.0107l0.0287-0.0107h0.0037l0.0106,0.0107l0.0037,0.0037h0.0106
		h0.0107l0.011-0.0037l0.007-0.0107h0.0217h0.043l0.018-0.0037h0.0143l0.018-0.011l0.018-0.0143v-0.0107v-0.018v-0.043v-0.036
		l-0.011-0.025h-0.0176l-0.0757-0.007h-0.007l-0.0073-0.0253l0.0253-0.043l-0.0037-0.0323l-0.0143-0.0143l-0.054,0.0074
		l-0.0393-0.0254l-0.0107-0.0356l-0.0037-0.0217l-0.0217-0.0143l-0.007-0.036l0.0213-0.0393l0.0143-0.043l-0.0033-0.0434
		l-0.0143-0.0786l-0.0037-0.036l-0.0073-0.018l-0.0176-0.0107l-0.0433,0.0037l-0.007-0.0073l-0.0143-0.0217l-0.0143-0.0287v-0.043
		l-0.0037-0.0287l-0.036-0.036l-0.0286-0.0176l-0.043-0.011h-0.0359l-0.0287-0.0287l-0.043-0.036l-0.0217-0.0393l-0.0032,0.0073
		l-0.0144-0.0073l-0.0253-0.036l-0.0287-0.061l-0.0716-0.0966l-0.0467-0.043l-0.0287-0.054l-0.018-0.0143l-0.0106-0.0393
		l-0.0037-0.0217l-0.0323-0.0287l-0.0897-0.0717l-0.0504-0.036l-0.0503-0.025l-0.1077-0.0147l-0.0573-0.007l-0.0646-0.054
		l-0.0287-0.0107h-0.018h-0.0143l-0.0179-0.0143l-0.0034-0.061l0.0287-0.0536l-0.0074-0.054l-0.0213-0.007l-0.0323,0.0033
		l-0.054,0.011h-0.025l0.0037-0.036l0.0394-0.043l0.0397-0.043v-0.0254l-0.018-0.025h-0.0504l-0.0536,0.0213h-0.011l-0.0037-0.0107
		v-0.0356l-0.0897-0.0863l-0.0033,0.0037l-0.011-0.0037l-0.0143-0.0107l-0.043,0.007l-0.0106-0.0176l0.0143-0.0323l-0.018-0.0287
		v-0.036l0.0467-0.061l0.0609-0.054l0.0143-0.025l0.0107-0.0217l-0.018-0.0176l-0.0356-0.0503l-0.0359-0.018l-0.0287-0.0107h-0.1437
		l-0.1003,0.0037l-0.0393,0.0107l-0.0684,0.0143l-0.036,0.0107l-0.0392,0.018l-0.0684,0.0536l-0.0286,0.0323l-0.007,0.018
		l-0.0323,0.0143l-0.1363,0.1077l-0.0253,0.0397l-0.0143,0.0393l-0.0213,0.0323l-0.0254,0.0503l-0.0106,0.0393l-0.0037,0.043
		l0.0143,0.036l0.0074,0.0143l0.0323,0.0143h0.0823l0.0397-0.007l0.0467,0.0176l0.0679,0.0467l0.011,0.0143v0.0217l0.025,0.0467
		l0.0323,0.025l0.0107,0.0143v0.0217v0.0037l0.0037,0.0143l-0.0037,0.025v0.0287v0.0037l-0.0107,0.0074l-0.0037,0.0143v0.0107
		l0.0037,0.007l0.0144,0.0073l0.0179,0.0217l0.0213,0.0467l0.0073,0.025l-0.0106,0.0287l-0.0143,0.0074l-0.011,0.0107
		l-0.0106,0.0143l-0.0144,0.025l-0.0073,0.0037l-0.0107,0.0683v0.0176l-0.0106,0.0037l-0.0287,0.0037l-0.072,0.1003l-0.007,0.0037
		l0.007,0.0287v0.0143l-0.0179,0.0254l-0.0034,0.0323l-0.0037,0.0213l-0.0074,0.0253l-0.0143,0.032l-0.0033,0.054l0.0033,0.0217
		l-0.0143,0.0287l-0.0287,0.043l-0.018,0.0393l-0.0323,0.0323l-0.0319,0.036l-0.0254,0.0503l-0.0143,0.0393l-0.0106,0.0217
		l-0.0287,0.0143h-0.043l-0.054,0.0213l-0.0287,0.0287l-0.0143,0.0143l-0.0107,0.0397l-0.0147,0.104l-0.0033,0.0217l-0.0217,0.0107
		l-0.018,0.0107l-0.0323,0.018l-0.0966,0.0933l-0.0467,0.025l-0.054,0.011l-0.061,0.025l-0.0213,0.0037l-0.036-0.011l-0.0897-0.068
		l-0.0467-0.0323l-0.0106-0.025l-0.0287-0.0254l-0.018,0.0254l0.0033,0.0143l-0.0143,0.0143l-0.0393,0.0033l-0.0359-0.007h-0.1506
		h-0.0287v0.007l0.0037,0.0217l0.0213,0.0074l0.072,0.0107h0.0393l0.0397,0.007l0.0287,0.0147l0.0033,0.0176l-0.0286,0.0037
		l-0.0717,0.0107l-0.0716,0.0217l-0.0397,0.0074l-0.007,0.0213v0.0107l0.0106,0.0037l0.043,0.0037l0.158-0.0073l0.018,0.0037
		l0.007,0.0107l-0.0213,0.0073l-0.1544,0.0107l-0.036,0.011l-0.0143,0.007v0.0217l0.0394,0.0143h0.0397h0.079h0.0324h0.0176
		l0.0073,0.0143l0.0037,0.0037h-0.011l-0.1577,0.025l-0.0143,0.0107l0.007,0.018l0.0397,0.0217l0.0933,0.0033l0.0717-0.0033
		l0.0393-0.0037l0.036-0.0107l0.0393-0.0074l0.0397,0.0074l0.0356,0.0107l0.0468,0.007l0.0789,0.054l0.0074-0.0037h0.0106
		l0.0143-0.0107h0.0143l0.0143,0.0107l0.0286,0.0037l0.0143-0.0037l0.018-0.0213l0.0073-0.0073l0.0143-0.007h0.0323h0.018
		l0.0107-0.0074l0.025-0.0073l0.0143-0.0033h0.018l0.0037,0.0033l0.007,0.011l0.011,0.0037h0.018l0.0286-0.0037h0.0214l0.018-0.011
		l0.0107-0.007h0.0143h0.0291h0.0106l0.0143,0.0037l0.018,0.0033l0.0647,0.011l0.0643-0.0037l0.061-0.036l0.054-0.043l0.0504-0.0287
		l0.032-0.0217h0.0323h0.0323l0.0254-0.0176l0.05-0.0434l0.115-0.007h0.0106l0.018,0.0107l0.0107,0.0287l0.0143,0.054l0.011,0.122
		l0.0143,0.0647l-0.011,0.007v0.0217l0.0143,0.0323v0.129v0.0683v0.0323l-0.0176,0.0356l-0.0397,0.0577l-0.0286,0.068
		l-0.0037,0.0393l-0.0214,0.0397l-0.0433,0.0827l-0.0143,0.0753l-0.0286,0.0786l0.0037,0.1543l0.0143,0.2407l0.0286,0.079
		l0.0144,0.0573l-0.0034,0.025l-0.036,0.0074l-0.0467-0.0434l-0.0217-0.0033l-0.0143-0.0074l-0.0033-0.0213l-0.011-0.0647
		l-0.0106-0.0287l-0.0181-0.0397l-0.097-0.0933l-0.1183-0.0717l-0.0646,0.0037l-0.0287,0.0143l-0.0287,0.036l-0.025,0.068v0.0217
		l0.025,0.0393l0.025,0.025l0.0397,0.011l0.0466,0.043l0.0467,0.0536v0.0254l-0.0397,0.0143h-0.0143l-0.0466,0.025l-0.061,0.018
		l-0.0536,0.061l-0.0073,0.0287l0.0073,0.0143l-0.0106,0.0254l-0.036,0.007l-0.018,0.0467v0.0683l-0.043,0.061v0.086l0.0537,0.043
		l0.0253,0.018l0.0213,0.0393v0.0827l0.0073,0.036l-0.025,0.0393l-0.079,0.025l-0.072,0.0434l-0.05,0.025l-0.0143,0.0683
		l-0.054,0.1507l-0.0717,0.0287l-0.0504-0.043l-0.0646-0.0287l-0.0967,0.007l-0.14,0.0074l-0.0753-0.0143l-0.0864,0.0753
		l-0.0933,0.122l-0.0393,0.1863l0.0037,0.151l0.068,0.007l0.0073,0.1113l-0.0073,0.158l0.0073,0.0753l-0.1007,0.0536l-0.1363,0.1007
		l-0.1257,0.1793l-0.0573,0.068v0.0827l0.018,0.0074l0.0143,0.032v0.018l-0.0037,0.036v0.1183l-0.0106,0.0254l-0.018,0.0213h-0.025
		l-0.0143-0.0213l-0.0217-0.061l-0.0394-0.054l-0.0466-0.025l-0.0504,0.007l-0.025,0.0037l-0.0143,0.036v0.0033l-0.0253,0.011
		l-0.0214,0.0033l-0.0323,0.0037l-0.0287-0.0143l-0.043-0.0467l-0.0504-0.0356l-0.0397-0.0037h-0.032l-0.1187,0.018l-0.0286,0.007
		l-0.0393,0.018l-0.018,0.036v0.0323l-0.043,0.0643l-0.0073,0.0037v0.025l0.0253,0.036l0.032,0.054l0.0073,0.0033v0.0287
		l0.0144,0.029l0.0106,0.025l-0.007,0.0393l0.0143,0.0647l0.018,0.0573l0.0573,0.0577l0.018,0.0107l0.0107,0.0037v0.0323
		l0.0037,0.0753l-0.0143,0.0753l-0.0037,0.0823v0.3123l0.043,0.0683l0.0074,0.3766l0.0286,0.0716l-0.0074,0.0467l0.036,0.0323
		l0.0717,0.0753l0.122,0.1363l0.0646,0.054l0.036,0.0213l0.0573-0.0033l0.079-0.0397l0.079,0.0217l0.0753,0.0323l0.0356,0.0966
		l0.0037,0.0863l0.0107,0.043v0.018l-0.0393,0.0107l-0.0037-0.025l-0.0356-0.018l-0.0434,0.018l-0.0033,0.0643l0.068,0.0683
		l0.0753,0.043l0.0397,0.025l0.0393-0.0033l0.1077-0.0143h0.036l0.0323,0.0143v0.018l-0.018,0.0107l-0.0359,0.0143l-0.0107,0.0393
		l0.0107,0.0434l0.0359,0.0213l0.0213,0.0573l-0.0176,0.122l-0.0433,0.1257l-0.0213,0.115l-0.0254,0.0536l-0.0717,0.054
		l-0.1866,0.1973l-0.1221,0.079l-0.0933,0.1433l-0.043,0.0397l0.0143,0.0573l0.011,0.0647l-0.0433,0.0536l-0.0966,0.1077
		l-0.072,0.043l-0.043,0.0827l-0.018,0.287l-0.0143,0.1363l-0.0822,0.158v0.165v0.4163l-0.011,0.3123l0.011,0.165l0.0032,0.0356
		h-8.7804l-25.068,0.0147v-0.6857l-0.0574-0.0896h-0.0106l-0.072-0.1077v-0.2943l-0.1077-0.129l0.011-2.1532l0.0143-1.9089
		l0.1113-0.2403l-0.0143-0.0037l-0.1367-0.007h-0.1863l-0.1187,0.007l0.1151,0.237l-0.0143,1.9158l-0.011,2.1495l-0.1183,0.122
		v0.298l-0.068,0.0896h-0.011l-0.0679,0.0966l-0.0037,0.7037l-25.1216,0.0107h-8.3876l0.0051-0.377h-0.0305l-0.0287-0.0107
		l-0.0338-0.0823l-0.011-0.072v-0.0356l-0.0232-0.0434h-0.0591l-0.011-0.0356l0.0305-0.0397l-0.0393-0.086l-0.0143-0.079
		l-0.0055-0.1003l0.0055-0.018l0.0287-0.018l0.0198-0.018l0.0052-0.0356l0.0055-0.079l0.0342-0.054l-0.0254-0.068l-0.0088-0.1473
		l-0.0161-0.262l-0.0088-0.201l0.0051-0.025l-0.0393-0.0107h-0.054l-0.0735,0.0107l-0.0342,0.0073h-0.0088l-0.0055-0.0253
		l-0.0088-0.025l-0.0397-0.025l-0.0448-0.0397l-0.0195-0.018l-0.0198-0.0356l0.0162-0.122l0.0037-0.0254l-0.0143-0.0143
		l-0.0254-0.018h-0.0375l-0.0254-0.0213v-0.036l0.0143-0.0213l0.0147-0.0147l0.0448-0.0107l-0.0055-0.018l-0.0198-0.0107
		l-0.0287-0.0107l-0.0342-0.0217l-0.0143-0.025l-0.0143-0.0143h-0.025l-0.0485-0.0467l-0.0503-0.0573v-0.0647v-0.061l-0.0338-0.0683
		v-0.0356l0.0107-0.0467l-0.0055-0.1797l-0.0144-0.061l-0.0485-0.068l-0.0195-0.0254h-0.011l0.0055-0.0107l-0.0235,0.0107h-0.0051
		l-0.0055-0.0107l-0.0088-0.0287v-0.0107h0.0195l-0.0305-0.072l-0.0232-0.0573l0.0573-0.0536l0.0448-0.061l-0.0106-0.079
		l-0.0287-0.0683l0.0052-0.0287l0.0342-0.0287l0.0485-0.054h0.0287l0.0055-0.0287l0.0198-0.0213l0.0195-0.0143v-0.018l0.0055-0.0143
		l-0.0199-0.0143h-0.0305l-0.0393-0.0253l-0.018-0.025l-0.0055-0.0683l0.0235-0.032v-0.0323l0.0305-0.0323l-0.0055-0.0074
		l0.0143-0.0323v-0.0176v-0.0253l0.0055-0.007h0.025h0.0037l0,0h0.0107h0.0144h0.0092h0.0161h0.2385l0.0107-0.054l0.0092-0.018
		l0.0088-0.025l-0.0037-0.0287l0.0092-0.0217l0.0305-0.0356l0.0522-0.0863v-0.0467l-0.0433-0.0356l-0.0393-0.0254l-0.0485-0.018
		l-0.1077-0.05l-0.043-0.018l-0.0397-0.036v-0.068l-0.0143-0.0217l-0.0051-0.036l-0.0396-0.025l-0.0195-0.007l-0.0198-0.0253
		l-0.0198-0.0393l-0.0088-0.036v-0.043h-0.0342l-0.0393-0.0287l-0.0254-0.0287l-0.0088-0.0143h-0.0591l-0.0037-0.011l-0.0161-0.0107
		h-0.043l-0.0092-0.025l-0.0052-0.0143l-0.0162-0.0143v-0.0147l0.0052-0.0143l0.0198-0.0176l0.0485-0.0647l0.0198-0.0254
		l-0.0037-0.043v-0.0753l0.0037-0.0323v-0.043v-0.0647v-0.0356l0.0195-0.061v-0.036l-0.0088-0.0393l0.0231-0.0467l0.0162-0.0323
		l0.0037-0.054v-0.086v-0.0107l0.0143-0.0037h0.0254l0.0536-0.0037l0.079-0.0467l0.0231-0.0287l0.0143-0.018v-0.0107l-0.0088-0.0037
		l-0.0393-0.0107l-0.0341-0.043l-0.0143-0.0143l-0.0055-0.0254v-0.0467l-0.0052-0.19v-0.072l0.0107-0.025l-0.0055-0.0107
		l0.0055-0.0143v-0.0143l0.0143-0.0254l0.0055-0.0323l0.0033-0.0143l0.0397-0.05l0.0338-0.0434l0.0198-0.0393l-0.0037-0.0683v-0.068
		l-0.0051-0.0254l-0.011-0.0107v-0.018v-0.0393l0.0397-0.0717l0.0107-0.0323v-0.043v-0.0827l0.0143-0.0717l-0.0143-0.0683
		l-0.0162-0.0467l-0.018-0.0213l-0.0643-0.0614l-0.0485-0.0536l-0.0485-0.0573l-0.0305-0.0253l-0.0236-0.0143l-0.0052-0.0287
		l-0.0198-0.0356l-0.0198-0.029v-0.025l-0.0051-0.0143l0.0051-0.0073l0.0305-0.0356l0.0037-0.0287l0.0143-0.0217l0.0199-0.018
		l0.0341-0.0143l0.0592-0.007h0.0287l0.0342-0.0143l0.0448-0.0323l0.0088-0.0287v-0.036l-0.0088-0.1113l-0.0055-0.0213v-0.0143
		l-0.0037-0.0073l-0.0107-0.0107v-0.0143l0.0143-0.0217l0.0107-0.018l0.0092-0.0213v-0.0217l-0.0055-0.0107l-0.0088-0.0143
		l-0.0143-0.0143h-0.011h-0.0033l-0.0055-0.0074l-0.0107-0.007l-0.0037-0.0143l0.0037-0.011l0.0107-0.0107v-0.025l-0.0055-0.029
		l-0.0088-0.0143l-0.0055-0.0107l-0.0089-0.007l-0.0448-0.0147h-0.0198h-0.0144l-0.0107-0.007l-0.0323-0.0287l-0.0055-0.0107
		l-0.0052-0.0147v-0.0143l-0.0143-0.0143l-0.0055-0.0176v-0.054v-0.0107l-0.0198-0.011l-0.0342-0.0287l-0.0393-0.0393
		l-0.0573-0.0397l-0.0198-0.0143l-0.025-0.025l-0.0433-0.043l-0.0143-0.018l-0.025-0.0217l-0.0107-0.0573l-0.0092-0.025v-0.0254
		l0.0591-0.0143l0.054-0.0143l0.0342-0.0393l0.0342-0.043l0.043-0.0397l0.0195-0.0033l0.0143,0.0033l0.011-0.0107v-0.0287
		l-0.0254-0.025v-0.018v-0.0143l0.0143-0.011l0.011-0.025v-0.025l-0.011-0.0073v-0.0143l0.0162-0.025v-0.0577v-0.0573l0.0037-0.0213
		l0.0253-0.0253l0.0052-0.0287v-0.025l-0.0162-0.0577l-0.018-0.0143l-0.0195-0.007l-0.0305,0.007l-0.0287-0.025l-0.0055-0.0107
		l-0.0143-0.011h-0.0235l-0.05,0.0073l-0.054,0.0037l-0.0198,0.0143h-0.0338l-0.122,0.0107l-0.0434,0.0287l-0.025,0.0143
		l-0.0199,0.0254l-0.0375,0.043l-0.0217,0.0143l-0.0143,0.007h-0.0088l-0.0092-0.025v-0.0217v-0.025l-0.0107-0.0143l-0.0055-0.007
		l-0.0088-0.0217l-0.0055-0.018l-0.0195-0.0503l0.0051-0.0393l0.0092-0.0037l0.025-0.0143l0.0107,0.0037l0.0092,0.0107l0.0143,0.018
		h0.0088l0.011-0.0037l0.0195-0.0143l0.0287-0.0037h0.011l0.0088,0.0037l0.0055,0.011h0.0143h0.0088l0.011-0.0074l0.0052-0.0074
		l0.0143-0.007l0.0485,0.007l0.0199-0.007h0.0143l0.0143-0.0107l0.0198-0.018l0.0051-0.0037l-0.0051-0.0217v-0.043v-0.0393
		l-0.0055-0.0254h-0.0231l-0.0739-0.0033h-0.0143l-0.0051-0.0254l0.025-0.043l-0.0055-0.036l-0.0143-0.007l-0.0485,0.0037
		l-0.0393-0.0287l-0.0144-0.029l-0.0055-0.025l-0.0195-0.0213l-0.011-0.0323l0.0254-0.036l0.0195-0.043l-0.0088-0.0503
		l-0.0107-0.0717l-0.0092-0.036l-0.0052-0.0213l-0.0198-0.0073l-0.0397,0.0073l-0.0033-0.011l-0.0162-0.0213l-0.0143-0.029v-0.0463
		l-0.0143-0.029l-0.0291-0.032l-0.0305-0.018l-0.0375-0.011l-0.0342-0.0033l-0.0393-0.0253l-0.0342-0.0393l-0.0198-0.0397
		l-0.0106,0.011l-0.0089-0.011l-0.0254-0.032l-0.0287-0.061l-0.0735-0.1007l-0.043-0.0393l-0.0342-0.054l-0.0162-0.0143
		l-0.0088-0.0393l-0.0147-0.0253l-0.025-0.025l-0.0878-0.0753l-0.054-0.0323l-0.0536-0.0217l-0.1076-0.0176l-0.054-0.0143
		l-0.0573-0.054l-0.0341-0.0037h-0.025h-0.0088l-0.0199-0.018v-0.0536l0.0231-0.054l-0.0088-0.0536l-0.0143-0.0107h-0.0342
		l-0.0591,0.0143l-0.0199-0.0037v-0.0323l0.0449-0.043l0.0378-0.0467v-0.0217l-0.0198-0.0287h-0.0536l-0.0485,0.018h-0.0092
		l-0.0052-0.0037v-0.0393l-0.0878-0.086l-0.0092,0.007l-0.0107-0.007l-0.0092-0.011l-0.05,0.0037l-0.0037-0.0143l0.0088-0.0287
		l-0.0143-0.0323v-0.036l0.0485-0.0573l0.054-0.0536l0.0195-0.029l0.0055-0.0176l-0.0107-0.0217l-0.043-0.0503l-0.029-0.0143
		l-0.0393-0.0107h-0.1327l-0.1025,0.007l-0.043,0.0074l-0.0647,0.0143l-0.0393,0.0107l-0.043,0.0217l-0.0591,0.0467l-0.0291,0.0287
		l-0.0107,0.0217l-0.0287,0.0176l-0.1418,0.1077l-0.0231,0.0397l-0.0162,0.0356l-0.0198,0.036l-0.0232,0.0503l-0.011,0.0356
		l-0.0033,0.0434l0.0143,0.0393l0.0088,0.0143l0.025,0.0143h0.0882l0.0393-0.0037l0.0485,0.0073l0.0684,0.0503l0.0107,0.018v0.0213
		l0.018,0.0467l0.0356,0.0217l0.0143,0.0176l-0.0052,0.0147l0.0052,0.0107v0.0143l-0.0052,0.025v0.0254v0.0107l-0.0092,0.0037
		l-0.0052,0.0107l0.0052,0.0074l0.0037,0.0143l0.0107,0.007l0.018,0.025l0.0305,0.0397v0.0287l-0.0052,0.025l-0.0198,0.0073
		l-0.0092,0.0107l-0.0051,0.0143l-0.0199,0.0287l-0.0088,0.0074l-0.011,0.061v0.0143l-0.0143,0.0074l-0.0194,0.0033l-0.0772,0.1044
		h-0.011l0.0055,0.0287l0.0056,0.0176l-0.0162,0.0217l-0.0037,0.0323l-0.0055,0.0217l-0.0088,0.0287l-0.0161,0.0323v0.0536v0.0143
		l-0.0088,0.0323l-0.0253,0.0467l-0.018,0.0393l-0.0393,0.0287l-0.0305,0.036l-0.0198,0.054l-0.0143,0.0393l-0.0088,0.018
		l-0.0305,0.0213h-0.054l-0.0485,0.018l-0.0232,0.0287l-0.0198,0.0143l-0.0143,0.0397l-0.0107,0.104l-0.0055,0.025l-0.018,0.0074
		l-0.0194,0.0073l-0.0254,0.0213l-0.1021,0.0933l-0.0448,0.0217l-0.0573,0.0143l-0.0591,0.018l-0.0198,0.007l-0.0342-0.0107
		l-0.0878-0.0647l-0.054-0.0393l-0.0088-0.018l-0.0305-0.0287l-0.0198,0.025l0.0055,0.018l-0.0143,0.0143l-0.0342,0.0037
		l-0.0341-0.0074h-0.1562h-0.0305l-0.0033,0.0074l0.0088,0.0213l0.0198,0.011l0.079,0.007h0.0338l0.0342,0.0073l0.0378,0.0143
		l0.0052,0.0143l-0.0286,0.0033l-0.0735,0.011l-0.079,0.018l-0.0375,0.0176v0.018v0.011h0.0033l0.0448,0.007l0.1617-0.0143
		l0.0198,0.0107l0.0033,0.011l-0.0195,0.0033l-0.1562,0.0143l-0.0378,0.0074l-0.0162,0.0143v0.018l0.0397,0.0143l0.0448-0.0037
		h0.0717h0.0397l0.0195,0.0037l0.0055,0.0107l0.0055,0.011h-0.011l-0.1613,0.0176l-0.0198,0.0143l0.0107,0.0143l0.0434,0.0253
		h0.0878l0.0735-0.0037h0.0397l0.0393-0.0143l0.0393-0.0073l0.0342,0.011l0.0378,0.0107l0.05,0.0037l0.0771,0.0573l0.0056-0.007
		h0.0088l0.0198-0.0073l0.0143-0.0037l0.0161,0.011l0.0287,0.0033l0.0092-0.0033l0.0162-0.0217l0.0088-0.0037l0.0143-0.0037h0.0397
		h0.0107l0.018-0.0107l0.0195-0.0107h0.011h0.0194h0.0037l0.0107,0.0143l0.0037,0.007h0.0198l0.0393-0.007l0.0143-0.0037
		l0.0162-0.0107l0.0092-0.0037h0.0143h0.0305h0.0143l0.0143,0.0037h0.0198l0.0573,0.0143l0.0698-0.0037l0.0628-0.036l0.0485-0.043
		l0.0592-0.0356l0.0235-0.0143l0.0356-0.0037h0.0287l0.029-0.018l0.0448-0.0393l0.122-0.0074h0.0088l0.0143,0.0107l0.0143,0.0287
		l0.011,0.054l0.0143,0.122l0.0107,0.061l-0.0055,0.0143l0.0055,0.018l0.0037,0.036l0.0107,0.1253l-0.0107,0.0647v0.0397
		l-0.0143,0.032l-0.0397,0.054l-0.0342,0.0753l-0.0051,0.036l-0.0143,0.0393l-0.0433,0.079l-0.0195,0.079l-0.0253,0.079
		l0.0055,0.1539l0.0143,0.2407l0.0305,0.0717l0.0198,0.0647l-0.0055,0.0213l-0.0394,0.0147l-0.0448-0.0467l-0.0235-0.0037
		l-0.0107-0.0037l-0.0088-0.025l-0.011-0.0683l-0.0037-0.025l-0.025-0.0397l-0.0933-0.0966l-0.1219-0.0683l-0.068,0.0037
		l-0.029,0.0143l-0.0195,0.036l-0.0254,0.068v0.0254l0.0254,0.032l0.0195,0.0253l0.0397,0.0107l0.0537,0.0467l0.0378,0.054v0.025
		l-0.0341,0.0143l-0.018-0.0037l-0.0448,0.0287l-0.0592,0.0143l-0.0536,0.0647l-0.0037,0.0287l0.0037,0.0143l-0.0143,0.0253
		l-0.0341,0.0107l-0.0143,0.043v0.0683l-0.0448,0.0647v0.0823l0.05,0.043l0.029,0.018l0.0195,0.0397l0.0092,0.0823v0.036
		l-0.0287,0.0393l-0.0683,0.0254l-0.0827,0.043l-0.0448,0.025l-0.0143,0.0683l-0.0591,0.1507l-0.0628,0.0287l-0.0537-0.043
		l-0.0592-0.0287l-0.1076,0.007l-0.1364,0.0073l-0.0684-0.0143l-0.097,0.079l-0.0934,0.122l-0.0338,0.1793v0.158h0.0771
		l0.0052,0.111l-0.0052,0.1617v0.079l-0.1025,0.0536l-0.1271,0.097l-0.1312,0.1756l-0.0536,0.072l-0.0055,0.0823l0.025,0.0074
		l0.0143,0.0323l0.0055,0.0213l-0.0162,0.0287v0.122l-0.0037,0.018l-0.0195,0.0287l-0.0254-0.0037l-0.0195-0.025l-0.0199-0.0536
		l-0.0341-0.054l-0.0485-0.0287l-0.0536,0.0073l-0.0235,0.007l-0.0107,0.0287v0.011l-0.025,0.0107l-0.0287,0.0037l-0.0253,0.007
		l-0.0324-0.0107l-0.0393-0.0503l-0.054-0.0393l-0.0393-0.0037h-0.0287l-0.122,0.018l-0.0253,0.007l-0.0393,0.018l-0.025,0.036
		v0.0323l-0.0378,0.061l-0.0107,0.007v0.0323l0.025,0.0287l0.0397,0.054l0.0034,0.0033v0.0253l0.011,0.0323l0.0143,0.025v0.0393
		l0.0088,0.0577l0.0199,0.0647l0.0503,0.0536l0.0195,0.0143l0.0092,0.0074v0.0287l0.0088,0.079l-0.0143,0.0716l-0.0037,0.079v0.3156
		l0.0485,0.0683v0.3766l0.0341,0.079l-0.0055,0.0393l0.0342,0.0323l0.0735,0.0753l0.1219,0.1363l0.0591,0.054l0.0342,0.025h0.0628
		l0.0735-0.0467l0.0878,0.0217l0.0683,0.0287l0.0393,0.104l0.0055,0.0827l0.0092,0.043l0.0052,0.025l-0.0393,0.0037l-0.0143-0.018
		l-0.0342-0.025l-0.0342,0.018l-0.0107,0.0647l0.0647,0.068l0.0823,0.0393l0.0397,0.029l0.0429-0.0037l0.0985-0.0143h0.0397
		l0.0341,0.0143l0.0033,0.018l-0.0195,0.007l-0.0379,0.018l-0.0161,0.0393l0.0161,0.0434l0.0342,0.0143l0.0287,0.0643
		l-0.0199,0.1257l-0.0485,0.122l-0.0195,0.115l-0.0254,0.0536l-0.0735,0.0577l-0.19,0.1973l-0.1169,0.0717l-0.0878,0.147
		l-0.0485,0.0397l0.0199,0.061l0.0088,0.061l-0.0485,0.0536l-0.0985,0.1077l-0.0628,0.043l-0.0485,0.0827l-0.0143,0.287
		l-0.0161,0.14l-0.0878,0.1543v0.1723l0.0107,0.409l-0.0107,0.3123l0.0107,0.172l0.0055,0.029l-8.7124,0.0033l-25.0967,0.011
		l0.0055-0.682l-0.0143-0.018v-0.0033l-0.011-0.0143l-0.0088-0.0147l-0.0341-0.043l-0.0144-0.0213l-0.0591-0.0827v-0.3013
		l-0.1132-0.122l0.011-2.1565l0.0052-1.9092l0.1113-0.2403l-0.0055-0.0037l-0.1363-0.007h-0.1848l-0.122,0.007l0.0915,0.194
		l0.0198,0.05l-0.0037,1.9092l-0.0107,2.1565l-0.1132,0.1146v0.298l-0.068,0.0933h-0.0092l-0.0643,0.0933v0.7033l-25.1364,0.0107
		l-8.4699,0.0037v-0.377h-0.0305l-0.0235-0.0143l-0.0342-0.0823l-0.0052-0.072l-0.0055-0.0356l-0.0232-0.043h-0.0591l-0.0055-0.029
		l0.0198-0.043l-0.0341-0.0897l-0.0092-0.079l-0.0107-0.0966l0.0055-0.0147l0.0287-0.0176l0.0144-0.0253l0.0055-0.0287l0.0052-0.079
		l0.0287-0.0536l-0.0195-0.0753l-0.0143-0.1474l-0.0055-0.262l-0.0144-0.2006l0.0055-0.0254l-0.0397-0.007h-0.0573l-0.0702,0.0033
		l-0.0287,0.011h-0.0143l-0.0051-0.0254l-0.0143-0.025l-0.0342-0.018l-0.0396-0.0467l-0.0232-0.018l-0.0198-0.0356l0.0143-0.122
		l0.0055-0.018l-0.0162-0.0217l-0.0287-0.0176h-0.0287l-0.0254-0.018l-0.0052-0.0397l0.0143-0.0213l0.0162-0.0143l0.0375-0.011
		l-0.0037-0.018l-0.0143-0.0107l-0.0305-0.007l-0.0338-0.0253l-0.0198-0.025l-0.0143-0.0107h-0.0198l-0.0485-0.0467l-0.0448-0.0647
		l-0.0037-0.0573v-0.0647l-0.0393-0.0683v-0.0356l0.0088-0.0467l-0.0088-0.176l-0.0088-0.0647l-0.0448-0.068l-0.0198-0.025
		l-0.0092,0.0033v-0.0143l-0.0195,0.011h-0.011l-0.0033-0.011l-0.011-0.0287v-0.0107h0.0198l-0.025-0.0753l-0.0287-0.054
		l0.0643-0.0536l0.0434-0.061l-0.0092-0.072l-0.0342-0.0717l0.0037-0.0323l0.0397-0.0323l0.0448-0.05h0.0287l0.0052-0.029
		l0.018-0.0176l0.0253-0.0217l-0.0055-0.018l0.0055-0.007l-0.0198-0.018h-0.0235l-0.0393-0.0287l-0.0249-0.0217v-0.068
		l0.0143-0.0323l0.0107-0.0287l0.0199-0.036v-0.0037l0.0088-0.0393v-0.0143v-0.0254l0.0143-0.0033h0.0198h0.0055h0.0051h0.0037
		h0.0162h0.0088h0.0143h0.244l0.0055-0.054l0.0107-0.018l0.0092-0.0287v-0.0287v-0.018l0.0342-0.0393l0.0481-0.0827l0.0055-0.0503
		l-0.0448-0.0356l-0.043-0.0287l-0.0448-0.0143l-0.1077-0.0467l-0.043-0.0217l-0.0397-0.0323v-0.068l-0.0198-0.0254v-0.0356
		l-0.0375-0.0253l-0.0199-0.0143l-0.0198-0.018l-0.0195-0.0393l-0.0143-0.036l0.0033-0.043h-0.0375l-0.0342-0.0287l-0.025-0.0287
		l-0.0092-0.0143h-0.0643v-0.0143l-0.0143-0.0074h-0.0452l-0.0088-0.018l-0.0055-0.0213l-0.0143-0.0074v-0.0213v-0.0143
		l0.0253-0.018l0.0485-0.0647l0.0143-0.025v-0.0434l-0.0055-0.0786l0.0055-0.029v-0.043v-0.0647v-0.032l0.0195-0.0647v-0.036
		l-0.0143-0.0393l0.0235-0.0467l0.025-0.0287l0.0055-0.0503l-0.0055-0.0933l0.0055-0.0107l0.0088-0.0037h0.025l0.054-0.0037
		l0.0772-0.0467l0.025-0.0287l0.0143-0.018v-0.0143l-0.0088-0.007l-0.0393-0.0074l-0.0342-0.0393l-0.0198-0.0143l-0.0055-0.0253
		v-0.043v-0.19l-0.0033-0.079l0.0088-0.0217l-0.0055-0.007l0.0055-0.0143l0.0055-0.018l0.0143-0.0217l0.0052-0.036l0.0037-0.0143
		l0.0397-0.05l0.0338-0.0467l0.0143-0.036v-0.0683v-0.068l-0.0088-0.025l-0.0056-0.0073l-0.0051-0.0217l0.0051-0.0393l0.0397-0.079
		l0.0051-0.0213v-0.0467v-0.0827l0.0143-0.0717l-0.0143-0.0683l-0.0143-0.0467l-0.0162-0.0287l-0.0625-0.0536l-0.0595-0.054
		l-0.043-0.061l-0.025-0.0213l-0.0287-0.0147v-0.0287l-0.0253-0.0356l-0.0195-0.0287l-0.0037-0.029v-0.0107l0.0037-0.007
		l0.025-0.036l0.0088-0.0287l0.0198-0.018l0.0198-0.025l0.0342-0.011l0.0536-0.0033h0.0287l0.0397-0.0143l0.0393-0.036
		l0.0107-0.0287v-0.036l-0.0107-0.1113l-0.0055-0.025v-0.0107l-0.0088-0.0074l-0.0056-0.0107v-0.0143l0.0143-0.0217l0.011-0.018
		l0.0088-0.025v-0.025l-0.0037-0.0037l-0.0107-0.0143l-0.0143-0.0143h-0.0107h-0.0037l-0.0055-0.011l-0.0088-0.0033l-0.0055-0.0143
		l0.0055-0.011l0.0088-0.0107l0.0055-0.0287l-0.0107-0.025l-0.0092-0.0147l-0.0052-0.0143l-0.0092-0.0033l-0.0448-0.0143h-0.0232
		h-0.0055l-0.0143-0.0074l-0.0342-0.0323l-0.0055-0.007l-0.0051-0.0143v-0.018l-0.0143-0.0143l-0.0055-0.0217v-0.0467v-0.0107
		l-0.0198-0.0107l-0.0338-0.029l-0.0397-0.0393l-0.0573-0.0393l-0.0287-0.018l-0.0254-0.0254l-0.0393-0.0393l-0.0088-0.018
		l-0.0254-0.0213l-0.0088-0.0577l-0.0107-0.025v-0.025l0.0592-0.0143l0.043-0.0147l0.0393-0.0393l0.0397-0.0467l0.043-0.036
		l0.0161-0.0033h0.0143l0.0037-0.011l0.0052-0.025l-0.0195-0.025l-0.0037-0.0217l0.0037-0.0107l0.0107-0.011l0.0089-0.025
		l-0.0052-0.0213l-0.0092-0.0147v-0.0107l0.0199-0.025v-0.0573v-0.061l0.0055-0.018l0.0286-0.0287l0.0052-0.0253l-0.0052-0.025
		l-0.0143-0.0573l-0.0198-0.0217l-0.025-0.0037l-0.0198,0.0037l-0.0287-0.018l-0.0091-0.0107l-0.0107-0.0107l-0.0231-0.0037
		l-0.0595,0.0107h-0.0448l-0.0231,0.018h-0.0342l-0.122,0.007l-0.0504,0.0323l-0.0231,0.011l-0.0143,0.0287l-0.0397,0.0393
		l-0.0195,0.0143l-0.0092,0.0037h-0.0195l-0.0055-0.018v-0.0213v-0.029v-0.007l-0.0143-0.018l-0.0107-0.018l-0.0037-0.018
		l-0.0162-0.05v-0.036l0.0162-0.0037l0.0143-0.0143h0.0143l0.0088,0.011l0.0198,0.025h0.0107l0.0092-0.0073l0.0198-0.0176h0.025
		h0.0143h0.0089v0.0143h0.011h0.0088l0.0107-0.0074l0.0092-0.007l0.0143-0.0074h0.0485h0.025h0.0107l0.0143-0.0143l0.0143-0.0143
		l0.0055-0.0107l-0.0055-0.018v-0.043v-0.036l-0.0051-0.025h-0.0199l-0.0735-0.0074h-0.0092l-0.0107-0.025l0.0254-0.0397
		l-0.0055-0.0356l-0.0143-0.0143l-0.054,0.007l-0.0338-0.025l-0.0143-0.036l-0.0055-0.018l-0.0198-0.018l-0.0089-0.0356
		l0.025-0.0397l0.018-0.043l-0.0088-0.043l-0.0147-0.079l-0.0052-0.0287l-0.0055-0.025l-0.0232-0.0074l-0.0397,0.0074
		l-0.0052-0.0143l-0.0092-0.0143l-0.0144-0.036l-0.0055-0.043l-0.0107-0.0287l-0.0287-0.036l-0.025-0.018l-0.043-0.007
		l-0.0342-0.0073l-0.0397-0.025l-0.0393-0.036l-0.0199-0.0393l-0.0088,0.0107l-0.0055-0.0107l-0.0287-0.0397l-0.025-0.0573
		l-0.0772-0.097l-0.0448-0.043l-0.0342-0.0536l-0.0198-0.0147l-0.0088-0.0356l-0.0055-0.0254l-0.0232-0.025l-0.0988-0.0753
		l-0.043-0.0287l-0.054-0.025l-0.1128-0.0253l-0.054-0.0037l-0.0592-0.0536l-0.0342-0.0107h-0.0231h-0.0107l-0.0198-0.0143v-0.061
		l0.025-0.0467l-0.0088-0.061l-0.0198-0.0074l-0.0342,0.0037l-0.0536,0.0107h-0.0199v-0.036l0.0485-0.043l0.0341-0.043v-0.0217
		l-0.0198-0.0287h-0.0536l-0.054,0.0217h-0.0088v-0.0107l-0.0056-0.0287l-0.0878-0.0933l-0.0055,0.0033l-0.0088-0.0033
		l-0.0143-0.011l-0.0448,0.0037l-0.0037-0.0143l0.0089-0.0323l-0.0144-0.036v-0.0287l0.0485-0.061l0.0485-0.05l0.025-0.0287
		l0.0055-0.0147l-0.0107-0.025l-0.0485-0.0503l-0.0287-0.0176l-0.0341-0.011l-0.133,0.0037l-0.1021,0.0073l-0.0448,0.007
		l-0.068,0.0107l-0.0341,0.011l-0.043,0.0176l-0.0647,0.054l-0.0235,0.0323l-0.0106,0.018l-0.0287,0.018l-0.1473,0.104
		l-0.0195,0.0393l-0.0143,0.0397l-0.0253,0.032l-0.0195,0.054l-0.0092,0.036l-0.0088,0.043l0.018,0.0356l0.0052,0.0147
		l0.0305,0.0176l0.0882-0.0033l0.0375-0.0073l0.0503,0.0143l0.0628,0.0467l0.0088,0.018v0.0213l0.025,0.054l0.0342,0.018
		l0.0143,0.0213l-0.0033,0.0074l0.0033,0.0143v0.0107l-0.0033,0.0287l0.0033,0.0217l-0.0033,0.0074l-0.011,0.007l-0.0052,0.0074
		l0.0052,0.0176l0.0055,0.0074l0.0088,0.0107l0.0199,0.018l0.0287,0.0467v0.025l-0.0037,0.0217l-0.0195,0.0143l-0.011,0.0107
		l-0.0033,0.0143l-0.0199,0.0254l-0.0107,0.0107l-0.0092,0.061v0.018h-0.0089l-0.0305,0.007l-0.0735,0.097l-0.0037,0.0074
		l0.0037,0.0287v0.018l-0.0143,0.0213l-0.0055,0.0323v0.0217l-0.0092,0.025l-0.0143,0.0393v0.054v0.0143l-0.0143,0.0287
		l-0.0305,0.043l-0.0088,0.0397l-0.0397,0.0323l-0.0338,0.0356l-0.0198,0.054l-0.0143,0.0393l-0.0107,0.018l-0.0235,0.0217h-0.0536
		l-0.0485,0.007l-0.0253,0.0397l-0.0195,0.0143l-0.0143,0.0356l-0.0143,0.1077v0.018l-0.0198,0.0143l-0.025,0.0074l-0.0235,0.0176
		l-0.1021,0.1007l-0.0397,0.0143l-0.0591,0.0143l-0.0592,0.025l-0.018,0.0037l-0.0356-0.0107l-0.0915-0.0647l-0.0485-0.036
		l-0.011-0.025l-0.0287-0.025l-0.0195,0.025v0.018l-0.0143,0.0143h-0.0305l-0.0379-0.0037h-0.1525h-0.0287l-0.0055,0.011
		l0.0092,0.0176l0.0195,0.0037l0.0739,0.018l0.0393-0.0074l0.0342,0.0074l0.0393,0.0143l0.0055,0.018l-0.0305,0.0037l-0.0772,0.0107
		l-0.0735,0.0213l-0.0396,0.0073l-0.0052,0.0217v0.007l0.0107,0.0073l0.043,0.0107l0.1562-0.018l0.0199,0.0107l0.0051,0.011
		l-0.0143,0.0033l-0.1562,0.011l-0.0393,0.0037l-0.0143,0.0143v0.0213l0.0393,0.0143h0.0378h0.079h0.0393l0.0198,0.0037
		l0.0037,0.0107v0.011h-0.0037l-0.1617,0.0176l-0.0195,0.0147l0.0088,0.0107l0.0448,0.0287h0.0878l0.0739-0.0037h0.0375
		l0.0397-0.0143l0.0338-0.007l0.0397,0.0107l0.0393,0.007l0.0485,0.0074l0.079,0.0536l0.0037-0.0033h0.0107l0.0198-0.011h0.0144
		l0.0143,0.011l0.0287,0.0033l0.0107-0.0033l0.0143-0.0217l0.0092-0.007l0.0161-0.0073h0.0375h0.0055l0.025-0.0074l0.0143-0.007
		h0.0143h0.0198h0.0055l0.0089,0.0107l0.0055,0.0037h0.0195l0.0342-0.0037h0.0144l0.0198-0.0107l0.0088-0.0037h0.0162l0.0287-0.0037
		l0.0143,0.0037l0.0147,0.0037h0.0195l0.0592,0.0107l0.0683-0.0037l0.0592-0.0356l0.0521-0.0397l0.0536-0.032l0.0305-0.0217h0.0341
		h0.0287l0.0287-0.018l0.0448-0.0393l0.1169-0.0073h0.0106l0.0198,0.0107l0.0143,0.0254l0.0088,0.0573l0.0143,0.1183l0.0107,0.0647
		l-0.0051,0.0143l0.0051,0.0143l0.0055,0.0323l0.0092,0.1293l-0.0055,0.068v0.0323l-0.0143,0.0397l-0.043,0.0536l-0.0305,0.0683
		l-0.0037,0.0467l-0.0144,0.032l-0.0503,0.0827l-0.0143,0.079l-0.0287,0.0717l0.0088,0.1617l0.0144,0.2366l0.0305,0.0716
		l0.0198,0.0647l-0.0055,0.0253l-0.0393,0.0143l-0.0485-0.0434l-0.025-0.0107l-0.0055-0.007l-0.0089-0.018l-0.0143-0.0683
		l-0.0055-0.0287l-0.0199-0.036l-0.0915-0.0966l-0.1271-0.0683l-0.0647,0.0037l-0.0287,0.0143l-0.0253,0.0323l-0.0195,0.0716v0.0254
		l0.0195,0.0323l0.0253,0.025l0.0393,0.0107l0.0485,0.043l0.0449,0.054v0.025l-0.0394,0.018l-0.0198-0.0037l-0.0397,0.0287
		l-0.068,0.0143l-0.0448,0.0647l-0.0037,0.0254v0.0176l-0.0107,0.0253l-0.0342,0.0037l-0.0198,0.05v0.0683l-0.043,0.0647v0.0823
		l0.054,0.043l0.0287,0.0143l0.0195,0.0434l0.0092,0.086v0.0287l-0.0287,0.043l-0.0735,0.0254l-0.0739,0.0393l-0.0518,0.0254
		l-0.0055,0.0717l-0.0647,0.1507l-0.068,0.0287l-0.0485-0.043l-0.0628-0.0323l-0.104,0.0143l-0.1363,0.0037l-0.0684-0.0143
		l-0.0966,0.079l-0.0882,0.122l-0.0393,0.1793l0.0037,0.1507l0.0735,0.0074v0.111v0.1617v0.079l-0.097,0.0536l-0.1326,0.097
		l-0.1257,0.1756l-0.0536,0.072l-0.0055,0.0823l0.0199,0.0074l0.0143,0.0323l0.0051,0.0213l-0.0051,0.0287v0.1187l-0.0143,0.0213
		l-0.0143,0.0323h-0.0254l-0.0198-0.0323l-0.0195-0.05l-0.0397-0.054l-0.043-0.0323l-0.0536,0.0074l-0.0254,0.007l-0.0143,0.0323
		v0.0074l-0.0232,0.0107l-0.0254,0.0037l-0.025,0.007l-0.0342-0.0143l-0.043-0.0503l-0.0485-0.0393l-0.0393-0.0037l-0.0341,0.0037
		l-0.1183,0.0217l-0.0287,0.0033l-0.0341,0.0143l-0.025,0.0397v0.036l-0.0434,0.0573l-0.0051,0.0143v0.018l0.025,0.0356
		l0.0378,0.0504l0.0051,0.0073v0.025l0.0143,0.036l0.0055,0.0213v0.0397l0.0107,0.0643l0.0179,0.0577l0.054,0.0536l0.025,0.0143
		l0.0055,0.0073v0.0287l0.0143,0.079l-0.0198,0.0717l-0.0055,0.079v0.3156l0.0485,0.0683v0.3766l0.036,0.079l-0.0055,0.043
		l0.0342,0.0287l0.0735,0.079l0.1275,0.1326l0.0574,0.054l0.0341,0.025l0.0592-0.007l0.079-0.036l0.0823,0.018l0.0739,0.0287
		l0.0338,0.104l0.0037,0.0827l0.0162,0.043v0.025h-0.0394l-0.011-0.0176l-0.0338-0.0217l-0.0378,0.0217l-0.0055,0.061l0.0684,0.0643
		l0.079,0.0434l0.0375,0.0287l0.0397-0.0073l0.1021-0.0107h0.0342l0.0393,0.0143v0.025h-0.0195l-0.0342,0.018l-0.0092,0.0467
		l0.0092,0.036l0.0342,0.018l0.0305,0.061l-0.0253,0.129l-0.0393,0.122l-0.0198,0.1113l-0.0287,0.0573l-0.0735,0.0503l-0.1848,0.201
		l-0.1183,0.0717l-0.0882,0.1507l-0.0536,0.0397l0.025,0.0536l0.0092,0.0647l-0.0485,0.0536l-0.0933,0.1077l-0.0721,0.0397
		l-0.05,0.0933l-0.0037,0.287l-0.0198,0.1326l-0.0841,0.1543v0.1687v0.4126l-0.0037,0.3123l0.0088,0.1723l0.0055,0.0033h-18.9211
		l0.0143-4.521l0.0143-3.1685l0.097-23.5358l-5.1978-7.2089l-2.955-0.061l-1.3044-1.6149l-10.8814,0.4847l-1.6506-1.6399
		l-1.2504,0.2366l0.0287-22.5558l-8.6514-19.4991l-51.9281,0.6529l-0.0845-13.7897l-2.8274-23.7654L312.26,44.2441l0.0915,13.8184
		L305.2,57.5709l-0.4057,0.8146l-3.3907,0.036l-0.0628-13.5208v-0.4057l0.1113-0.007l0.6313-0.0753v-0.4163l-0.3678-0.0683
		l-1.1571-1.1552l-0.4792-1.2633l1.0891-1.2596l0.2153-0.8429l-1.8658-1.2633l-0.2403-2.1029l0.2602-0.269v-0.2583l-0.2693-0.305
		l-0.2205-2.5478l-0.1653,2.5225l-0.244,0.2763v0.2583l0.244,0.2943h-0.025l-0.043,0.011l-0.2098,2.1099l-1.8482,1.2702
		l0.2352,0.8396l1.1141,1.2772l-0.3174,0.8936l-0.8253-0.9149l-0.9528-3.0035l-0.0055-0.8503l0.9186-0.8613l-0.3803-0.4306
		l-0.5865-1.7189l-1.1773-1.7222l-1.3581-0.9833l-0.0878-0.8793l-0.0647,0.7716l-0.8932-0.646l-0.0452-7.3128l0.4112-0.219
		l-0.3913-0.4343l-0.6154-1.2952l-0.0088-1.2989l-1.5249-2.5368l-0.0341-5.1743l0.5272-0.4237l-0.5364-1.2989l0.1312-0.4126
		l-0.3858-0.3123l-1.5591-7.3918l0.4307-0.2726l-0.0055-0.3193l-0.4343-0.298L288.1734,0l-0.122,2.1675l-0.4306,0.2726v0.3156
		l0.4362,0.305l-1.4319,7.3026l-0.3821,0.305l0.1418,0.4126l-0.5166,1.2916l0.5328,0.438l0.0342,5.185l-1.4804,2.6338l0.0092,1.2952
		l-0.5956,1.2846l-0.3858,0.4273l0.4196,0.226l0.0485,7.3202l-2.3899,1.6972l-1.1464,1.7152l-0.5633,1.7152l-0.3752,0.4306
		l0.9384,0.8646l0.0037,0.8613l-0.9024,3.0035l-0.7573,0.8359l-0.2888-0.2833l-0.4986-1.3099l1.2019-1.3059l0.2245-0.8723
		l-1.9485-1.3169l-0.255-2.1815l-0.0592-0.0107h-0.0088l0.2888-0.273l-0.0055-0.2653l-0.312-0.3123l-0.2693-2.6228l-0.2098,2.6085
		l-0.323,0.298l0.0055,0.269l0.3263,0.298l0.0684,0.0033l-0.0485,0.011l-0.2098,2.1778l-1.925,1.3063l0.2491,0.8756l1.2273,1.3026
		l-0.4755,1.3096l-1.1913,1.1986l-0.323,0.043l0.0055,0.4343l0.689,0.1077l0.0052,0.3553l0.1113,14.5933l-8.9348,0.115
		l-6.8017-33.3388l-6.1054,33.5001l-1.5197,0.0143l-7.8618-37.8995l-10.302,56.4869l0.4968,30.8597l0.3623,22.5095l0.054,3.3584
		l0.1021,6.3046l-2.9799-0.007l0.165-5.257l-3.1505-2.2822l-0.987-0.269l0.255-8.7161l0.2925-9.979l0.513-17.4642l-2.2425-0.1113
		l0.0735-2.5978h-0.5078l-2.302-4.4854l-2.8723-1.9236l-0.61-0.1576l-0.054-3.6064l-0.2348,3.6601l-0.9528,0.4233l-0.0397,0.0397
		l-1.1085,0.5203l-1.7726,1.4892l-1.3154,1.8909l-0.3659,0.9113l-1.4514-2.6228l-2.0077-1.2453l-0.3318-0.0717l-0.054-2.8455
		l-0.1701,2.8885l-0.7771,0.2943l-0.8752,0.4736l-1.0748,0.8789l-0.3178,0.298l-1.0296,1.4893l-0.5975,1.7009h-17.886
		l-1.3922-4.5537h-1.3529l-0.1415,0.0647l-0.244,0.7713l0.0625-6.7135l-0.1558-1.1122h-0.9781l-0.5508-4.3887l-0.6743,0.0037
		l-0.0254,0.0536l-0.1705,1.1986l-0.4196,0.0037l-0.0199,0.043l-0.2495,1.7762l-0.2976-1.6899l-0.9958-2.2572l-2.7363-2.8741
		l-0.6349-0.499l0.0378-6.5735l-0.7375-2.1602l-1.4948-1.4712l-0.0735-1.4999l0.1021-0.104l0.0342-0.1293l-0.0287-0.1326
		l-0.097-0.0933l-0.0162-0.0143l-0.0231-0.0073l-0.079-1.5502l-0.097,1.5502l-0.025,0.0107l-0.0143,0.011l-0.097,0.0966
		l-0.0356,0.133l0.0356,0.1257l0.1025,0.104l-0.0882,1.4999l-1.5142,1.5036l-0.7569,2.1635l-0.0254,6.5633l-0.6404,0.506
		l-2.7595,2.8991l-1.0116,2.2535l-0.2892,1.5572l-0.2098-1.6325l-0.0231-0.043h-0.4593l-0.1562-1.1912l-0.0305-0.054l-0.664,0.0037
		l-0.5919,4.3671h-0.9421l-0.1702,1.1192v6.7066l-0.2495-0.8109l-0.1525-0.0573h-1.3275l-1.4231,4.5251h-17.2793l-1.6219-3.2798
		l-2.4472-1.6902l-0.377-0.1003l-0.1363-2.7881l-0.0735,2.8238h-0.0052l-0.8363,0.323l-0.7232,0.4417l-1.4602,1.2809l-0.7768,1.3276
		l-0.1848,0.5776l-2.1999-3.5524l-2.4813-1.6612l-0.3516-0.0933l-0.1848-3.5131l-0.0786,3.5561l-0.0739,0.0254l-0.8253,0.2976
		l-0.0735,0.043l-0.9815,0.5956l-1.4801,1.1736l-1.3187,2.1168l-0.7823,2.0959h-0.4791l0.0448,2.5188l-2.1205,0.1077l0.3174,16.9189
		l0.1793,9.6777l0.158,8.4541l-0.9348,0.2403l-2.7341,1.9412l-0.0198-2.3289l-0.323-0.2153l-1.5822-0.8359l-0.1418-17.4069v-0.542
		l-0.1668-1.6719h-0.7823l-0.0628-8.6158l-0.1363-17.3925h0.1271l0.4255-0.3193l-1.3151-0.5739h-0.0628l-0.122-15.9323v-0.0213
		l-0.1525-1.5109l-0.8109-0.0033h-0.2891l-0.61-7.2092l-1.4713-0.007l-0.0088-1.3493l-0.8595-5.2713l-0.244,1.7226l-0.3876-2.1352
		l-0.2186-0.452l-0.1903,0.0287l-4.1051-21.1963l-0.0088-1.9699l0.9237,0.0073l0.0434-0.1687v-0.5563l-0.9726-0.0107l-0.0037-1.0156
		l-0.2348-0.086l-0.499-0.0073l-0.2635,0.0897l-0.0254,0.1687l0.0055,0.8506l-0.9583,0.007l-0.0231,0.1687l0.0037,0.5526
		l0.9778-0.0037l0.0107,2.1352l-3.3136,20.8909l-0.5133-0.079l-0.068,0.445l-0.621,3.8971l-0.0628,0.4163l0.0988,0.0143
		l-0.323,2.8598l-1.0013-0.0074l-1.0656-0.0033L97.2664,66.47h-0.3568l-0.0254,1.8266l0.0055,0.5273h-0.341l-0.0198,1.7115h0.0434
		l0.0305,13.1442l-5.4293-0.018v-1.1339l0.542-0.147v-1.9056l-0.0037-4.0797v-0.1257V76.144l-0.3571-1.4676l-0.4303,0.0287
		l-0.054,0.2297l-1.5969-6.2759l-0.6151,2.5442h-0.0827l-0.0055,0.0356v0.316l-0.1756,0.7283l-0.8558,0.0037v0.0323v0.2333
		l0.7911-0.0037l-0.5956,2.4652l-0.0628-0.298l-0.488-0.0287l-0.348,1.4643v0.1326v0.1183v4.0834v1.9019l0.4159,0.1077
		l-0.5669,1.3779l-5.404-0.007l0.029-13.2445l-0.0378-1.7009l-0.5096,0.007v-0.628L80.7246,66.47h-0.2694l-0.1668-6.7029
		l-1.7185-0.0073l-0.6801-4.5034l-0.054,0.3336l-0.4431-2.6335l-0.1668-0.8899l-0.4163,0.068l-3.5506-20.9486l0.0092-2.0702
		l0.8161-0.0073v-0.506l-0.0338-0.1613h-0.7771v-0.9149l-0.0338-0.1617l-0.273-0.1003h-0.4446l-0.2444,0.0933l-0.0051,1.0762
		l-0.7966-0.0037v0.5027l0.025,0.172l0.7661,0.0037l-0.0088,1.9162l-4.0371,21.2033l-0.2583-0.043l-0.1848,0.4487l-0.3281,1.8229
		l-0.244-1.6796l-0.8936,5.2067l-0.0107,1.7082l-1.4606-0.0073l-0.4593,6.7282l-0.8198-0.0073l-0.0933,1.4999l-0.1168,16.0003
		h-0.0338l-0.8899,0.5526l0.2348,0.2546h0.2047l-0.1326,17.2959l-0.0629,8.8127h-0.5813l-0.1021,1.6972v0.5453l-0.1132,14.3857
		l-0.1507,0.147l-0.0254,3.1578l-0.8253,0.8539l-0.068,9.0461H44.8001l-0.043-13.5961l0.8738-0.3263l-0.0143-4.855l-1.6274-0.0074
		l-0.0628,0.0397v0.6063l-0.1613,0.104v0.0933h-0.1507l-0.1867,0.115v0.4736h-0.7768l-0.0055-1.4352h-1.6076l-0.054,0.0393
		l0.0055,0.9186h-0.5078l-0.043,0.0323v0.4413h-0.7481l-0.0055-1.4352H38.117l-0.043,0.0393v0.9186h-0.621l-0.0393,0.0323v0.4413
		h-0.6155v-1.4389h-0.8899v-2.2069h-0.5471l-0.0882,0.1187v0.1003h-0.0735l-0.0823,0.1183v0.097h-0.0683l-0.079,0.1077v0.0933
		h-0.068l-0.0772,0.1183v0.0863h-0.0683l-0.079,0.1077h-0.2888l0.011-0.018l0.0393-0.0073v-0.079l0.0143-0.0213l0.0287-0.2657
		v-0.1363l0.2745-0.0323v-0.391l0.0573-0.011v-0.147l0.2352-0.0287l0.0485-0.3913l0.0536-0.0107v-0.409l0.0198-0.1507l0.2943-0.0503
		l0.1308-1.0693l-0.0051-4.916l0.1128-0.025l-0.1128-0.219v-1.1053l0.5721-0.1257l-0.7283-1.4136l-1.1141-6.2079l-0.0397-0.0143
		l-0.0966-0.0107l-0.1025,0.0107l-0.0485,0.0143l-1.1049,6.2006l-0.1991,0.3803l-3.0987,0.262l-1.3239-5.447H28.199l-0.2495-1.4209
		l-0.043-0.0143l-0.0988-0.011l-0.1021,0.0073l-0.043,0.0143l-0.255,1.4209l-3.1898-0.0143l-0.1367-2.0562l0.5332-0.183
		l-0.7033-1.4496l0.0716-0.0287l0.0107-5.9206l0.5526-0.2297l-0.6996-1.3636l-1.066-5.9853l-0.0375-0.018l-0.0988-0.011
		l-0.0966,0.011l-0.0397,0.018l-1.0891,5.9709l-0.7084,1.3526l0.5526,0.2297l-0.0161,5.9353l0.0698,0.025l-0.8073,1.4459
		l0.5328,0.176l-0.176,2.0669l-1.6307-0.0073l-0.1918-1.0873l-0.0434-0.0107l-0.1021-0.0037l-0.104,0.0037l-0.0378,0.0107
		l-0.1955,1.084h-0.9528l-1.505,6.0389l-2.7451-0.2546l-0.8955-5.1133l-0.043-0.0107l-0.0985-0.011l-0.0915,0.011l-0.0342,0.0107
		l-0.1381,0.7356l-0.4538-2.6195l-0.0485-0.0073l-0.1025-0.0107l-0.0985,0.0037l-0.0378,0.0143l-1.1534,6.2256l-0.7375,1.4139
		l0.5707,0.122l-0.0342,6.2903l0.1382,1.0803l0.3156,0.05l-0.0037,0.567l0.3267,0.043h0.0107v0.5313l0.1168,0.0143l-0.0198,3.4051
		h-0.0735l0.0051-0.0823l-0.122-0.097h-0.0051l0.0107-1.2162l-0.0503-0.0434l-1.6594-0.007l-0.011,1.4459H8.5405v-0.445
		l-0.0449-0.032L7.67,122.767l0.0055-0.9186l-0.0536-0.0467l-1.5881-0.0037l-0.0107,1.4463H5.3989l0.0051-0.445l-0.0536-0.0323
		l-0.621-0.0074l0.0055-0.9186l-0.068-0.043l-1.6274-0.0037l-0.0055,1.4463H2.4725l0.0055-0.481l-0.2208-0.1146H2.0761v-0.1007
		l-0.2153-0.1146H1.7549l0.0037-0.5956l-0.0739-0.0397l-1.645-0.007L0,126.678l0.8848,0.2873l-0.1077,13.6891H0v36.0377h421.8362
		v-0.3516l1.8173,0.1396l12.4728-1.0873l0.011-3.1038l-1.8141-1.8155l0.0162-4.0764l2.8815-4.234l3.6152-3.6998l4.2072-2.9998
		l4.6647-2.2138l4.9788-1.3566l5.1457-0.4593l5.1295,0.456l4.9733,1.3562l4.6504,2.2032l4.1822,3.0035l3.5903,3.6888l2.8778,4.2664
		l0.0051-1.3779l0.0342-0.5093l-0.025,5.9276l-1.7729,1.8159l-0.0088,3.1075l14.3082,1.0729l11.9405-1.0872l0.0143-3.1005
		l-1.8122-1.8192l0.025-4.0944l2.8778-4.216l3.6208-3.6924l4.2161-2.9998l4.665-2.2175l4.984-1.3599l5.135-0.4593l5.1346,0.4593
		l4.9627,1.3492l4.647,2.2138l4.173,2.9961l3.5742,3.6888l2.8635,4.2631l0.0106-1.3779l0.0468-0.5023l-0.0394,5.9206l-1.7619,1.8192
		l-0.0217,3.1038l14.8304,1.0659l11.4072-1.0803l0.018-3.1001l-1.8119-1.8192l0.0287-4.1124l2.8778-4.1984l3.6241-3.6888
		l4.2164-2.9961l4.6754-2.2212l4.9807-1.3526l5.1383-0.463l5.1244,0.4593l4.9659,1.3526l4.629,2.2068l4.1694,2.9965l3.5671,3.6888
		l2.8525,4.2664l0.0107-1.3853l0.061-0.4986l-0.0463,5.9173l-1.762,1.8192l-0.0217,3.1001l15.34,1.0692l10.8796-1.0836l0.029-3.1001
		l-1.8229-1.8159l0.043-4.1301l2.8635-4.173l3.6421-3.6924l4.2197-2.9998l4.6757-2.2142l4.984-1.3526l5.135-0.4593l5.124,0.452
		l4.9557,1.3529l4.6216,2.2102l4.1518,2.9928l3.5594,3.6851l2.8311,4.2667l0.0287-1.3853l0.0789-0.4953l-0.0789,5.9136
		l-1.7366,1.8192l-0.0397,3.1005l9.1934,0.628v0.8146h288.794v-36.0377h-0.7032L1001.4836,140.6188z M10.8745,123.2476v0.0073l0,0
		V123.2476z M745.6771,131.7017c3.5844,0,6.5269,3.9078,6.8679,8.9061l-13.7361-0.0287
		C739.1679,135.5951,742.0994,131.7017,745.6771,131.7017z"/>
	<polygon   points="607.0679,134.5258 607.3406,134.5258 607.4519,134.5185 607.6779,133.3166 607.6635,133.2879 
		607.6492,133.2589 607.6275,133.2339 607.6132,133.2196 607.6099,133.2053 607.6062,133.1946 607.5952,133.1873 607.5952,133.1803 
		607.5882,133.1803 607.3766,132.8393 607.3766,132.6633 607.2292,132.5666 607.2292,132.405 607.2366,132.405 607.2435,132.405 
		607.2472,132.4013 607.2546,132.4013 607.2582,132.3943 607.2689,132.3837 607.2726,132.3763 607.2726,132.3656 607.2726,132.362 
		607.2689,132.344 607.2582,132.3403 607.2546,132.3296 607.2435,132.3296 607.2329,132.326 607.2329,132.2686 607.2329,132.2617 
		607.2292,132.258 607.2292,132.258 607.2292,132.2543 607.2222,132.2473 607.2186,132.2473 607.2186,132.2437 607.2186,132.2437 
		607.2149,132.2437 607.2042,132.2437 607.1973,132.2437 607.1936,132.2437 607.1936,132.2437 607.1899,132.2437 607.1826,132.2437 
		607.1826,132.2473 607.1793,132.2473 607.1756,132.2543 607.1756,132.258 607.1756,132.258 607.1682,132.2617 607.1682,132.2686 
		607.1682,132.326 607.1682,132.326 607.1613,132.3296 607.1506,132.3296 607.1396,132.3403 607.1359,132.344 607.1289,132.3546 
		607.1289,132.3656 607.1289,132.3763 607.1359,132.3837 607.1359,132.3837 607.1396,132.3943 607.1469,132.4013 607.1506,132.4013 
		607.1613,132.405 607.1649,132.405 607.1682,132.405 607.1682,132.5666 607.0176,132.6633 607.0176,132.8393 606.8096,133.1623 
		606.8022,133.1623 606.7953,133.1659 606.7879,133.1766 606.7842,133.1803 606.7773,133.1946 606.7736,133.2122 606.7556,133.2302 
		606.7379,133.2556 606.72,133.2843 606.7056,133.3166 606.9099,134.5185 	"/>
	<polygon   points="680.6641,134.4972 680.9297,134.4972 681.0338,134.4898 681.2634,133.2949 681.249,133.2589 
		681.238,133.2302 681.2237,133.2053 681.2061,133.1909 681.1987,133.1803 681.195,133.1659 681.1913,133.1586 681.1844,133.1512 
		681.1771,133.1479 681.17,133.1479 680.9654,132.8139 680.9654,132.6346 680.8254,132.538 680.8254,132.3763 680.829,132.3763 
		680.829,132.3763 680.8434,132.3693 680.847,132.3656 680.8577,132.362 680.8577,132.3513 680.8577,132.3403 680.8577,132.3296 
		680.8577,132.3227 680.847,132.3116 680.8434,132.3083 680.829,132.301 680.8254,132.2973 680.8254,132.24 680.8254,132.2326 
		680.8254,132.2326 680.8254,132.2293 680.8254,132.2293 680.8184,132.222 680.8184,132.222 680.8147,132.222 680.8077,132.2183 
		680.8041,132.2183 680.8004,132.2183 680.793,132.2183 680.7897,132.2183 680.7861,132.2183 680.7787,132.2183 680.7754,132.2183 
		680.7717,132.222 680.7644,132.222 680.7644,132.222 680.761,132.2293 680.761,132.2293 680.761,132.2326 680.761,132.24 
		680.761,132.2973 680.7468,132.301 680.7357,132.301 680.7321,132.3116 680.7214,132.3153 680.7214,132.326 680.7214,132.3403 
		680.7214,132.3513 680.7214,132.362 680.7321,132.3656 680.7357,132.3693 680.7468,132.3763 680.7501,132.3763 680.7574,132.3763 
		680.7574,132.538 680.61,132.6346 680.6031,132.8139 680.4021,133.1336 680.3947,133.1336 680.3878,133.1336 680.3804,133.1369 
		680.3734,133.1479 680.3698,133.1586 680.3591,133.1729 680.3554,133.1803 680.3411,133.2016 680.3194,133.2269 680.3124,133.2556 
		680.3018,133.2949 680.4954,134.4898 	"/>
	<polygon   points="533.4358,134.5582 533.7051,134.5545 533.8234,134.5439 534.0531,133.3489 534.0387,133.3129 
		534.017,133.2879 534.0027,133.2626 533.9884,133.2482 533.9777,133.2413 533.9777,133.2339 533.9704,133.2196 533.9704,133.2159 
		533.9597,133.2122 533.7518,132.868 533.7518,132.6919 533.6044,132.5953 533.6044,132.4336 533.6081,132.4336 533.6118,132.4336 
		533.6224,132.4303 533.6224,132.423 533.6331,132.423 533.6331,132.416 533.6367,132.416 533.6441,132.405 533.6441,132.3943 
		533.6441,132.3837 533.6367,132.3763 533.6331,132.3656 533.6224,132.362 533.6118,132.362 533.6044,132.3546 533.6044,132.2973 
		533.6044,132.2936 533.6044,132.2867 533.5975,132.283 533.5975,132.283 533.5975,132.276 533.5938,132.2723 533.5938,132.276 
		533.5901,132.2723 533.5831,132.2723 533.5794,132.2723 533.5721,132.2723 533.5721,132.2723 533.5687,132.2723 533.5687,132.2723 
		533.5687,132.2723 533.5577,132.2723 533.5577,132.2723 533.5507,132.2723 533.5434,132.276 533.5434,132.283 533.5401,132.283 
		533.5401,132.2867 533.5401,132.2936 533.5401,132.2973 533.5401,132.3546 533.5364,132.3546 533.5291,132.362 533.5221,132.362 
		533.5147,132.3656 533.5041,132.3763 533.5004,132.3837 533.5004,132.3943 533.5004,132.405 533.5041,132.416 533.511,132.4193 
		533.5147,132.423 533.5147,132.423 533.5221,132.4303 533.5254,132.4303 533.5364,132.4336 533.5401,132.4336 533.5401,132.5916 
		533.5401,132.5953 533.3928,132.6919 533.3928,132.868 533.1848,133.1873 533.1774,133.1909 533.1738,133.1946 533.1631,133.2016 
		533.1594,133.2122 533.1525,133.2269 533.1487,133.2413 533.1308,133.2589 533.1127,133.2843 533.0951,133.3129 533.0808,133.3489 
		533.2957,134.5439 	"/>
	<polygon   points="459.7786,134.5832 460.0424,134.5832 460.1681,134.5725 460.3885,133.3776 460.3742,133.3416 
		460.3547,133.3129 460.3349,133.2949 460.3294,133.2879 460.3242,133.2843 460.3242,133.2843 460.0803,132.8966 460.0803,132.7173 
		459.9348,132.6203 459.9348,132.459 459.9384,132.459 459.9439,132.459 459.9546,132.459 459.9583,132.4516 459.9634,132.448 
		459.9689,132.4447 459.9689,132.4447 459.9726,132.4336 459.9726,132.423 459.9726,132.416 459.9726,132.416 459.9689,132.405 
		459.9634,132.3943 459.9546,132.3906 459.9439,132.3837 459.9348,132.38 459.9348,132.326 459.9348,132.3227 459.9348,132.3153 
		459.9348,132.3116 459.9292,132.3116 459.9292,132.3083 459.9241,132.301 459.9241,132.301 459.9149,132.301 459.9149,132.2973 
		459.9149,132.2973 459.9149,132.301 459.9042,132.301 459.9042,132.2973 459.9006,132.2973 459.9006,132.301 459.8954,132.2973 
		459.8954,132.301 459.8899,132.301 459.8844,132.301 459.8811,132.3083 459.8811,132.3116 459.8756,132.3116 459.8756,132.3153 
		459.8756,132.3227 459.8756,132.326 459.8756,132.38 459.8649,132.3837 459.8557,132.3837 459.8469,132.3943 459.8414,132.405 
		459.8363,132.416 459.8326,132.423 459.8363,132.4336 459.8414,132.4447 459.8469,132.448 459.8557,132.459 459.8649,132.459 
		459.8649,132.459 459.8701,132.459 459.8756,132.459 459.8756,132.6203 459.7249,132.7173 459.7249,132.8966 459.5133,133.2196 
		459.5133,133.2196 459.5041,133.2302 459.4953,133.2413 459.4898,133.2556 459.4846,133.2626 459.4846,133.2699 459.4699,133.2879 
		459.4505,133.3092 459.4306,133.3416 459.4163,133.3776 459.6316,134.5725 	"/>
</g>
</svg>
