<?xml version="1.0" encoding="utf-8"?>
<!-- Generator: Adobe Illustrator 18.1.1, SVG Export Plug-In . SVG Version: 6.00 Build 0)  -->
<svg version="1.1" id="rome" xmlns="http://www.w3.org/2000/svg" xmlns:xlink="http://www.w3.org/1999/xlink" x="0px" y="0px"
	 viewBox="0 0 1000.2394 105.6858" enable-background="new 0 0 1000.2394 105.6858" xml:space="preserve">
<path   d="M996.0449,74.2001l0.0313-4.4177l-6.008-0.4845l-0.6448-0.0839l-1.0044-0.0503v0.0296l-0.5092-0.0453
	l-1.2968-0.0664l-1.5482-0.0346v0.1653h-0.3246l-1.405-0.1567l-1.6771-0.0382l-2.0815-0.0071l-0.1221,0.2546l-1.21,0.0018h-0.2299
	l-0.1396-0.3053l-6.189-0.0225l-0.8369,0.2003l-0.3032-0.0018l-7.127-1.3928l-0.7987-0.1239l-0.401,0.1378l-2.2315,0.0261
	l-4.5781,0.0089l-0.4602-3.8861l-0.272-1.1961l0.0107-3.8561l0.8819-1.4489l0.0175-4.3185l-0.1882-0.5856l-2.3851-0.5841
	l-4.6619-0.537l-6.7364-0.427l-4.1178-0.1325l0.0071-5.7777l-2.7303-0.3574v-1.1679l-0.3766-0.823l0.0035-1.8238l-0.3973-0.005
	v-1.2275l-0.7952,0.0646v-0.387l-4.1213-0.0211l-0.0593,0.2564v1.2518h-0.0278v-0.2074l-0.0104-0.1464l-1.0914-0.0036v-1.1558
	l-1.6107-0.0089v-0.7094l0.1464,0.0018l0.0314-0.3767v-0.176l0.3939,0.0018l-0.7916-1.7888l0.5267-0.2353v-0.6173l0.3906-0.2039
	l0.1846-0.6537l-0.23-0.7166l0.6345-1.0843l1.5481-0.8369v-0.3588l-0.4812-0.3192l-1.6003,0.2842l-0.3731,0.5752l-0.0036-0.542
	l-0.8508-0.638l-1.2447,1.1697l0.2057,0.6223l-0.4917,0.1639l-0.7008-0.6398l-1.1122-0.1567l-1.29,0.5873v0.246l0.3067,0.3417
	l1.2868,0.1253l1.1993,0.863l0.2443,0.6802l-0.3035,0.3642l-0.2859,0.9048l0.5895,0.1899l-0.5128,0.7848v0.8751l0.7288,0.0036
	v0.5523h0.1778v0.708l-0.5263-0.0018l-0.0107,0.2564v0.8473h-0.9272v-1.1108l-4.1007-0.0189l0.0035,0.4742l-1.4435-0.1571
	l0.0036,1.9213h-0.0593v0.8455v1.0444l-0.3174,0.2999v1.039l-1.8688,0.2353v0.7273l-0.9205-0.0036l0.0068,5.1186l-6.8271,0.286
	l-5.9309,0.4688l-3.7204,0.5595l-1.4332,0.5895l0.0175,4.4474l0.9205,1.501v0.2721l-0.6309,0.3013l0.1218,0.0543h0.056
	l0.0068,1.6492l0.1185,0.04l0.335,0.0036l0.0068,1.6474l-0.2825,1.2293l-0.1985,1.677h-0.5509l0.0032,0.0279h-0.3834l-0.3767-0.0018
	v-0.0225l-0.2578-0.0036l-0.9276,0.0018l-0.7705,0.0018v0.0032h-0.5649l-0.3174,0.0036l-0.0521,0.0054l0.0068,1.3825l-3.8843,0.0018
	l-3.7271,0.6798l0.0036,0.9465l-1.7471,0.0543l0.0036,0.2928l-0.5159-0.1114l-1.0847,0.0346l-1.1296,0.0071l-0.0032-0.6416
	l-9.1915,0.0193l0.0071,0.6223l-0.3174-0.0018l-0.1638-0.5056l-2.2595,0.0054l-3.3541,0.0436l-0.2756,0.1725v-0.101l-0.3206,0.005
	l0.0907-0.2824l-0.7498-0.582v-0.1328l-0.6205-0.4774l0.0696-13.3892l0.1464-0.2635l0.2371-0.0625l0.1011-0.15l0.0035-0.3121
	l0.1185-0.0471v-0.3385l-0.5159-0.0139l0.0036-0.3642l0.1532-0.4409l0.2685-0.3403h-0.5088l0.0068-1.0929l0.3278-0.2057
	l0.2896-0.3367l0.0104-0.1639l0.1114-0.2789l0.6241-0.3435l0.3314-0.7669l-0.9973-0.0018l0.0071-1.0704h-0.3524l-0.2474-0.2667
	l-0.2788-0.0714l-0.0768-6.1315l0.6624-0.8351l0.122-0.427l-0.8819-0.0018l0.0032-0.4202l-1.255-0.0054l-0.2685,0.4202
	l-4.3863-0.0139v-0.1849l-0.1325-0.2389l-16.3287-0.0575l-0.2928,0.4202l-4.6166-0.0157l-0.3453-0.4235l-1.3702-0.0054
	l0.0035,0.4288l-0.9448,0.0157l0.1707,0.5581l0.4498,0.5245l0.3871,0.3906l0.0521,5.9605l-1.0283,0.5074l0.0104,1.0758
	l-1.1785-0.0018l0.5751,0.9433l1.2903,1.2029l0.0103,1.0197l-0.3349-0.0018v0.206l0.0908,0.0296l0.0663,0.1392l0.0593,0.3906
	l0.0975,0.3381h-0.4845l0.0036,0.3192l0.1186,0.1935l0.2648,0.4217l0.0036,0.4445l0.2231,0.0403l-0.1432,13.0457l-0.0103,0.08
	l-0.0732,0.1935l-0.5056,0.3192v0.2353l-0.7566,0.4866l0.1532,0.4634l0.2859,0.0107l0.136,0.3103l0.1536,0.0104l0.0346,3.5826
	l-0.1949,0.1814l-0.0489,0.1464l-0.551,0.5145l0.0068,0.7512h-23.0684l-0.0629-0.3435l-0.0521-0.1814l-0.8858-1.0301l-0.0557-0.1832
	l-1.1019-0.9604l-0.0835-0.2042l-0.4011-0.718l-0.1746-0.401l-0.9272-0.7776l-0.1082-0.2182l-0.5613-0.3885l-1.1157-2.0905
	l-0.4535-0.0364v-2.1237l-0.1778-0.3749l-0.1707-0.5124l-0.0978-0.3942l-0.1428-0.0121l-0.0278-0.0575l-3.0474-0.1917v-1.8795
	l-0.1328-0.6102l-0.3624,0.0018l-0.0071-4.0168l0.3104-0.6502l-0.1187-0.3992l-0.1114,0.0018v-0.2546l-0.0942-0.3399h-0.4113
	v-0.0471l-0.0629-0.2478h-0.0732v-0.1707l-0.1046-0.0386v-0.0993l0.0696-0.0314v-0.1464l-0.0696-0.0261l-0.2789-20.3541
	l0.0139-0.0054l0.2232-2.6743l-0.0872-0.0471l-0.2685-0.04l-0.4116-0.0279l-0.4913-0.0104l-0.4952,0.0068l-0.4149,0.0243
	l-0.2824,0.0403l-0.0942,0.0436l0.2613,2.6761l-0.0068,0.0036l-0.1778,20.3712l-0.0696,0.0264v0.1482l0.0696,0.0278v0.101
	l-0.1046,0.0418l0.0035,0.1692h-0.0942v0.2492v0.0489l-0.4812,0.0018l-0.0176,0.3417v0.2528l-0.1949,0.0018l-0.0247,0.401
	l0.3278,0.6466l0.0139,4.0289l-0.4495,0.0421l-0.0247,0.4881l-0.0068,0.5038l0.0068,1.4503l-3.3227,0.4884l-0.0839,0.2074
	l-0.1918,0.5734l0.0139,2.1426l-0.537,0.1446v-0.2596l-1.5203,0.0121l-0.0418,0.1482v0.1307l-0.9833,0.0071l-0.0032-0.401
	l-0.6034,0.005l-0.1114,0.2999l0.0032,0.101h-0.08l-0.3488,0.0036l-0.0244-0.1428l-0.5895,0.0032l-0.1464,0.2389l0.0035,0.3995
	l-0.0768,0.1271l0.0036,0.3399l-0.3035,0.0229l-0.2195,0.3592l-0.3628,0.0296l-0.2231,0.3538l-0.2963,0.1168l-0.2686,0.427
	l-0.1985,0.0803l-0.5231,0.8212h-0.1185l-0.6173,0.9587h-0.0836l-2.0294,3.1416l0.0035,0.2946h-28.3823l-0.1428-7.8625l1.0112-1.632
	l-0.056-3.0367l-0.8644-3.9611l-14.8887,0.2178l-0.3696-2.5575l-0.9483,0.0157l-1.2693-2.5225l-3.5147,0.0678l-1.5096-1.7417
	l-4.0064-3.3455l-1.3596-0.898l-4.2367-2.4843l-4.4838-1.656l-1.5306-0.4934l-2.1237-0.4131l-1.963-0.2564l-1.6667-0.1935
	l-1.8234-0.101h-1.8342l-1.7084,0.1028l-1.9037,0.1514l-2.2316,0.2981l-1.6456,0.4152l-4.6166,1.4485l-4.4492,2.3361l-1.6142,0.8526
	l-4.3481,3.2845l-3.8215,4.015l-0.2546,8.1206l-6.1333,0.0714l-0.1324-0.106l-1.6142-1.2954l0.2649-7.4897l-1.9908-1.215
	l-6.3879-0.0453l0.2335-8.166l-0.4845-0.5545l-7.5104-4.6427l-2.3572-0.0054l0.0696-3.4466l0.1432-0.0193l0.0175-0.7373
	l-0.2128-1.5114l-0.0071-0.0525l-0.8194-1.9105l-1.2936-1.6249l-1.6735-1.2311l-1.9455-0.7477l0.0417-2.751l-0.1535-0.0229
	l-0.2753-0.0068l0.0068-0.4831l0.0732-0.115l0.0768-0.1603l0.0453-0.171l0.014-0.1742l-0.0104-0.176l-0.0386-0.171l-0.066-0.1603
	l-0.0907-0.1482l-0.0139-0.0175l-0.115-0.1289l-0.1324-0.1082l-0.1046-0.0664l-0.1014-0.0696l-0.0975-0.0732l-0.0943-0.0786
	l-0.0975-0.08l-0.0871-0.0839l-0.087-0.0871l-0.084-0.0907l-0.08-0.0939l0,0l-0.0732-0.0925l-0.0035-0.0036l-0.0247-0.0036
	l-0.0243-0.0032l-0.0174-0.0857l-0.0176-0.0993l-0.0172-0.0975l-0.0139-0.096l-0.0143-0.0993l-0.0103-0.0996l-0.0104-0.0975
	L645.3,21.2467l-0.0068-0.0996l-0.0035-0.0993l-0.0036-0.0714l0.0139-0.0107l0.0243-0.0328l0.0175-0.0386l0.0071-0.0418
	l-0.0036-0.0436l-0.0175-0.04v-0.0018l-0.0243-0.0332l-0.035-0.0243l-0.0382-0.0175h-0.0036l-0.0382-0.0036l-0.035,0.0036H645.15
	l0,0l-0.0381,0.0175l-0.0386,0.0243l-0.0243,0.035l-0.0175,0.04l-0.0068,0.0436l0.0068,0.0418l0.0139,0.0386l0.0247,0.0328
	l0.0032,0.0036l0.0107,0.0071l-0.0071,0.0714l-0.0035,0.0993l-0.0104,0.0996l-0.0104,0.0975l-0.0107,0.0993l-0.0172,0.0996
	l-0.0139,0.0993l-0.0175,0.096l-0.0211,0.0975l-0.0206,0.0975l-0.0211,0.0889l-0.0382,0.0054l-0.0143,0.0018l-0.0799,0.0975
	l-0.084,0.096l-0.0903,0.0907l-0.0907,0.0871l-0.0907,0.0853l-0.0978,0.0803l-0.1011,0.0785l-0.1011,0.075l-0.1046,0.0714
	l-0.1046,0.0661l-0.1428,0.1082l-0.1185,0.1307l-0.0942,0.1464l-0.0732,0.1625l-0.0453,0.1689l-0.0176,0.176l0.0104,0.1746
	l0.0421,0.1707l0.066,0.1621l0.0907,0.1464l0.115,0.1292l0.0071,0.0068l-0.0036,0.3278l-0.1118,0.0036l-0.3242,0.0225
	l-0.0314,2.7496l-1.9663,0.7459l-0.5616,0.4045l0.0699-1.7731l-0.6802-4.597l-1.7049-3.7101l-2.6118-3.1416l-0.2195-0.2335
	l-3.3226-2.3119l-3.6473-1.2604v-0.2599l-0.1293-0.1464l-0.4042-0.1325l-0.6662-0.1132l-0.4464-0.0436l-0.0242-3.6544
	l-0.5999-0.1603l-0.0068-1.0408l-0.0557-0.0835l-0.1849-0.0786l-0.2963-0.0646l-0.0243-0.0036l-0.0071-0.7216l0.101-0.0332
	l0.0036-0.0018l0.0071-0.0032l0.0975-0.0525l-0.0071-0.0489L625.91,5.0768l-0.0625-0.0125l-0.1221-0.1464l-0.2128-0.2771
	l-0.2056-0.2878l-0.035-0.0225l-0.0836-0.0193l-0.0211-0.0036l-0.0453-0.2406l-0.0453-0.291l-0.0417-0.291l-0.0382-0.2931
	l-0.0278-0.2928l-0.0279-0.2946l-0.0211-0.2946l-0.0175-0.2981l-0.0104-0.2967l-0.0104-0.2963V1.2065l0.0243-0.0211l0.0696-0.0993
	l0.0071-0.0157l-0.0175-0.0104l-0.0417-0.0143l-0.0418-0.005l0.0032-0.1742l0.0525-0.0071l0.0661-0.0175l0.0385-0.0207
	l0.0139-0.0211l0.0521-0.1271l0.0139-0.136l-0.0139-0.1378l-0.0521-0.1275l-0.0803-0.1096l-0.0175-0.0175l-0.101-0.0785
	l-0.028-0.0121l-0.1082-0.0418l-0.0172-0.0036l-0.0314-0.005l-0.0314-0.0018L624.606,0l-0.035,0.0018L624.54,0.005l-0.0282,0.0036
	l-0.0172,0.0054l-0.1118,0.0418l-0.0243,0.0121l-0.101,0.0785l-0.0839,0.1064l-0.0104,0.0207l-0.0488,0.1293l-0.0208,0.136
	l0.0208,0.1357l0.0488,0.1293l0.0175,0.0207l0.0521,0.0193l0.0732,0.0175l0.0386,0.0054l-0.0071,0.1828h-0.0035l-0.0557,0.0107
	l-0.0314,0.0139l-0.0068,0.0139l0.0629,0.0993l0.0311,0.0243l-0.0104,0.2199l-0.0207,0.2981l-0.0247,0.2963l-0.0278,0.2981
	l-0.0382,0.2963l-0.0386,0.2963l-0.0453,0.2963l-0.0485,0.2928l-0.0525,0.2946l-0.0592,0.2931l-0.0522,0.2335l-0.0628,0.0121
	l-0.0664,0.0229l-0.216,0.2892l-0.22,0.2824l-0.1114,0.1307l-0.0629,0.0229l-0.0767,0.0611v0.0643l-0.0068,0.0018l0.0068,0.0229
	l-0.0068,0.0104l0.0068,0.0036l0.0071,0.7548l-0.2999,0.0696l-0.1917,0.0786l-0.0629,0.0853l0.0071,1.0426l-0.6102,0.1849
	l0.0382,3.6454l-0.502,0.0593l-0.638,0.1253l-0.3803,0.1414l-0.0975,0.1482l0.0035,0.3488l-3.6332,1.426l-3.2391,2.4511
	l-2.4968,3.262l-0.1217,0.2214l-1.545,3.769l-0.5088,4.6148l0.0068,0.1917L608.152,27.61l-0.035-2.7335l-0.3799-0.0229h-0.0382
	l-0.0107-0.5038l0.0525-0.0835l0.066-0.1571l0.0421-0.1689l0.0139-0.1728l-0.0175-0.1742l-0.0418-0.1675l-0.0071-0.0193
	l-0.0696-0.1603l-0.0942-0.1482l-0.1185-0.1289l-0.136-0.1082l-0.1046-0.0661l-0.101-0.0718l-0.1011-0.0732l-0.0978-0.0782
	l-0.0939-0.0803l-0.0907-0.0853l-0.0907-0.0889l-0.0839-0.0907l-0.08-0.0943l-0.0836-0.0975l-0.0175-0.0036l-0.0314-0.0018
	l-0.0211-0.0871l-0.0208-0.096l-0.0175-0.0975l-0.0175-0.0993l-0.0139-0.0978l-0.0139-0.0975l-0.0104-0.0978l-0.0107-0.0993
	l-0.0067-0.0978l-0.0071-0.0993v-0.0732l0.0103-0.0068l0.0247-0.0332l0.0139-0.0386l0.0035-0.0418l-0.0035-0.0436v-0.0036
	l-0.0175-0.0382l-0.0242-0.0332l-0.0351-0.0243l-0.0382-0.0175h-0.0035l-0.0386-0.0054l-0.0381,0.0054h-0.0035l-0.0383,0.0139
	l-0.035,0.0261l-0.0242,0.0332l-0.014,0.04l-0.0035,0.0403l0.0035,0.0418l0.0175,0.04v0.0036l0.0278,0.0332l0.0068,0.0086v0.0696
	l-0.0035,0.0978l-0.0068,0.0993l-0.0071,0.0978l-0.0104,0.0993l-0.0103,0.0975l-0.014,0.0978l-0.0139,0.0975l-0.0174,0.096
	l-0.0176,0.0957l-0.0211,0.0889l-0.0311,0.0036l-0.0211,0.0036l-0.0732,0.0957l-0.0839,0.0925L605.638,22.31l-0.0871,0.0853
	l-0.0907,0.0839l-0.0942,0.08l-0.0975,0.075l-0.0975,0.075l-0.1013,0.0664l-0.1047,0.0661l-0.136,0.1064l-0.1149,0.1292
	l-0.0939,0.1464l-0.0664,0.1585l-0.0417,0.1692l-0.0104,0.1742l0.0139,0.1742l0.0453,0.171l0.0697,0.1603l0.0974,0.1482
	l0.1153,0.1289l0.0139,0.0139l0.0172,0.0125l0.0036,0.3121l-0.3206,0.0086l-0.0943,0.0243l0.0418,2.7268h-0.014l-1.9419,0.7444
	l-1.6807,1.229l-1.3007,1.6285l-0.8262,1.9177l-0.2128,1.496l0.0139,0.6587l-0.5266,0.0561l0.07,3.4466l-1.0425-0.0054
	l-0.0279,0.0089l-8.3577,4.5395l0.2335,8.4331l-13.2429-0.0943l-1.9665,1.25l0.2895,7.3012l-0.9205,0.7673l0.0243-2.5193
	l-4.0693-1.7174l-6.1087-0.08l0.0593-7.2455l-0.4952,0.1064l-0.9205,0.3503l-0.2546,0.0925l-2.9288-0.4238l0.0035-0.1657
	l-0.4881-0.0032l-0.537,0.0207l-0.4045-0.0575l0.0489-6.5936l-7.0852-1.8199l0.0211-3.3805l0.216-0.0018l0.0071-0.638
	l-0.2199-0.0646l0.0282-4.578l0.2196-0.0054l0.0035-0.6066l-0.2199-0.1307l0.0489-7.8l0.2999-0.0104l-0.2649-1.9734l-0.2896,0.0121
	l0.0453-0.5459l0.436-0.0521l-0.7148-0.9155l-0.7252-1.175l-0.1989-0.2178l-0.7184-0.4813l0.0036-0.6116l-0.0836-0.0925
	l-0.537-0.4395l-0.6277,0.4988l-0.0036,0.6448l-0.9276,0.6227l-0.7566,1.1418l-0.7319,0.889l0.4635,0.3767l0.0421,0.5595
	l-0.3489,0.0157l-0.3834,1.3582l0.2928,0.2317l-0.0417,7.6083l-4.1146,0.0871l-0.0485-3.804l-0.3767-0.7987l-0.3835,0.7516
	l-0.1324,3.8722l-3.4799,0.0732l-0.0386-0.0107l-0.2788,0.0071l0.0278-7.1602l0.3035-0.0104l-0.4916-1.9073l-0.1464,0.0071
	l0.0417-0.5338l0.4288-0.0539l-0.7077-0.8873l-0.7183-1.1404l-0.9031-0.6448v-0.6259l-0.6102-0.5163l-0.6173,0.4849l-0.0036,0.6277
	l-0.9133,0.603l-0.7426,1.109l-0.722,0.863l0.4463,0.2232l0.0557,0.692l-0.2092,0.0104l-0.5995,1.325l0.2928,0.1396l-0.0211,7.7425
	l-0.2542,0.005v0.5998l0.0454,0.0139l0.2056,0.0507l-0.0035,2.6968l-6.7018,0.0943l-1.4503,1.8166l-0.0211,12.1513l-1.0844,0.1517
	l-1.2343,0.2424l-0.0696-0.0314l-0.8054-0.3574l-0.4464-0.1014l-0.0035,3.072l-10.0766-0.1446l-17.6398,3.8179l0.0593,18.431
	h-4.5116l-0.3592-22.1286l0.0768-0.0803l-0.0071-0.4899l0.0593-0.0628l-0.0068-0.3174l0.066-0.0746l-0.0103-0.6573h-0.2025
	l-0.0103-0.5352l0.2928-0.3453l0.1571-0.321l0.6448-0.7705l-0.0068-0.4027h-0.115l-0.0036-0.2317l-0.7566-0.0054l-0.0386-2.2226
	l-0.2474-0.2407l-0.0975-5.9973l0.6866-1.1786v-0.1846l-0.7041-0.0054l-0.0036-0.1953l-43.9123-0.3417l-0.0036,0.1971
	l-0.7391-0.0054l-0.0036,0.1832l0.7077,1.0547l-0.1567,6.1994l-0.2581,0.2371l-0.0593,2.2472l-0.7916-0.0036l-0.0032,0.2321h-0.1256
	l-0.0104,0.4077l0.5613,0.5773l0.0175,0.0243l0.251,0.5091l0.2196,0.2389l0.0839,0.0835l-0.0175,0.5684h-0.2127l-0.0175,0.6623
	l0.0696,0.0646l-0.0068,0.3313l0.0593,0.0557l-0.0103,0.5002l0.0768,0.075l-0.5756,22.3485h-3.8425v-1.2029v-1.5428v-0.1028v-0.4463
	v-1.2118v-0.155v-0.0089l-0.0695-0.0036l-0.1568-1.5724l-0.0175-3.3594l-1.1854,0.0036l-0.2406,0.0139l0.0036,0.6919l-0.5652-0.0768
	l-0.0346-7.0013l-0.0036-0.7741l-5.7288-0.0453l-0.0103-2.5786l-2.6882-0.6309l-0.9137,0.2124l-1.5832,0.4902l-0.3242-0.5231
	l-0.5369-0.7969l-3.1103,0.0543h-0.7809l-0.0071-1.8116l-0.8262-2.479l-7.1723,0.0821l-0.2511-0.11v-0.598l-3.996-1.5167
	l-1.039,0.4724l-16.4262,0.2074l-0.0031-1.5671l0.2788-0.3977l-0.2823-0.0311l-0.0071-2.6257l0.2652-0.3592l-0.2652,0.0036
	l-0.0104-2.8678l0.2928-0.3713l-0.216-0.0157l0.0103-0.0139v-0.2249l-2.5314-0.9433l-2.2383,1.0304l-0.1639,0.2581l-0.0071,0.0014
	l-0.2614,0.4099l0.286,0.3103l0.0103,2.5086l-0.2581,0.3524l0.2581,0.3121l0.0068,2.3344l-0.0103,0.0018l-0.2614,0.3171
	l0.2753,0.3542l0.0036,1.2829l-3.1241,0.0386l-0.0453,0.3399l-0.0732-2.2401l-1.8723,0.0311l-0.1221,2.4497l0.0036,0.5141h-0.0175
	v0.1292v0.0714v0.1271v0.0682v0.0764l-0.0036,0.0296v0.0907l0.0036,0.2389v0.096l-0.0036,0.0853l-0.0036,0.0785v0.0193h-0.0417
	v0.115l-15.5023-0.2214v-0.1325l-0.3031-0.8091l-0.0175-0.502l-2.901-0.145l-0.0103-3.9764l0.5194-0.0139v-0.211l-0.523-0.4724
	l-2.3187-1.2868l-3.2148,1.4664v0.2124l0.4706,0.2824l0.0139,6.8567l-1.5374,0.347l0.0172,9.0972l-2.5975-0.096l0.0036,1.3511
	l-2.1166,0.0036l-0.0211-13.5531l-0.0032-0.0018v-0.1132l-0.0036-0.0071v-0.1325v-0.0453v-0.0539v-0.0593v-0.0611v-0.0557v-0.0507
	l-0.0036-0.04l-0.0036-0.0264v-0.0121l-0.08,0.0018V47.793v-0.0521v-0.0403l-0.0036-0.0261l-0.0036-0.0104h-0.0453v-0.0278
	l-0.0036-0.0403v-0.0278v-0.0121l-0.0975,0.0018v-0.0211l-0.0036-0.0575v-0.0539v-0.04l-0.0036-0.0282v-0.0121h-0.0521v-0.0296
	v-0.0418l-0.0036-0.0279v-0.0104h-0.0593l-0.0036-0.0525V47.141l-0.0032-0.0278v-0.0121h-0.0139v-0.7044l-0.0592-0.1253
	l-0.0036-2.2926l0.1464-0.0036l0.15-0.2774v-0.1882l-0.2964,0.0036v-0.0993l-0.2825,0.0014l-0.0036-0.1707l0.1675-0.0211
	l0.0036-0.0678v-0.2285l-0.3277-0.0382l0.1531-0.2285l0.0036-0.0628v-0.1899l-0.1046-0.1778l-0.5334-0.3138l-0.5684-0.4356
	l-0.1361-0.206v-0.0921h0.0561l-0.0036-1.646l-0.2581,0.0036l-0.2753,0.0036l0.0032,1.6456l0.0732-0.0018v0.0907l-0.1428,0.2128
	l-0.5613,0.4463l-0.5334,0.326l-0.1015,0.1796v0.1917l0.0036,0.0611l0.1535,0.2267l-0.3242,0.0453v0.2281l0.0036,0.0664
	l0.1671,0.0189v0.1639l-0.1778,0.0018l-0.0346,0.0978l-0.2407,0.0018l-0.101,0.2806v0.1864l0.2892-0.0018v0.6348l-3.6158-0.8473
	l-0.2232,0.0018l-0.0036-1.3968l-36.3668,0.3995v1.3753l-0.2442,0.0018l-7.127,1.8045v0.8455l-10.8856,0.0714l-0.0243-0.0104
	l-1.5239-0.2442l-0.9519-0.5159v-2.2508l0.251,0.1135v-0.1639l-0.6658-0.356l-0.5406-0.2474l-0.6762,0.3731v0.1657l0.2545,0.1114
	v1.5064l-0.1606-0.0853l-1.7606-0.7287l-2.5175,1.0651v1.3668h-0.3381v0.3699l-3.0895,0.0243v1.1697l-1.7085,0.0139v0.0943
	l-2.2105-0.0975v-0.4917l-0.7673-0.2267l-3.7375,0.0279v0.2021l-1.3425-0.1639l-0.3489-0.0014l-0.1289-0.3088l-0.8437-1.1279
	l-1.0044-0.5002v-1.0026l0.0732-0.0054l0.0036-0.0328l-0.0036-0.0857l-0.0104-0.0835l-0.0975-0.2317l-0.1745-0.2371l-0.2125-0.1046
	l0.0032-0.2199l-0.066-0.0068h-0.0943l-0.066,0.0036v0.0068v0.2146l-0.2093,0.1028l-0.1778,0.2335l-0.0978,0.2303l-0.0104,0.0835
	l-0.0036,0.0835l0.0036,0.0368l0.0732,0.0054v1.0022l-0.4813,0.2321l0.0036-0.075v-0.0279V46.076v-0.0296l-0.0036-0.0264v-0.0243
	l-0.0068-0.0211v-0.0139l-0.0071-0.0104l-0.0036-0.0036l-0.0171-0.0018l0.0032-1.4139l0.321,0.0054l0.1568-0.0678l-0.0383-0.5213
	l-0.0557-0.4481l-0.07-0.3574l-0.08-0.2546l-0.0907-0.1378l-0.0907-0.0175l-1.4225-0.0279v-0.4131l-0.4499-0.0086l0.0036-2.3361
	l-0.1046,0.0018l-0.0943,0.0068l-0.0803,0.0071l-0.0625,0.0068l-0.0489,0.0089l-0.0246,0.0104l-0.0103,0.0086v2.2769l-0.2614-0.0068
	l-0.171,0.0889l-0.0036,0.3224l-0.3067-0.0071l-0.0871,0.1046l-0.0836,0.2199l-0.0767,0.3278l-0.0629,0.4185l-0.0525,0.4931
	l-0.0381,0.5491l0.4705,0.0071l-0.0032,1.4193h-0.0071l-0.0067,0.0032l-0.0036,0.0089l-0.0036,0.0121l-0.0036,0.0193l-0.0036,0.0225
	l-0.0033,0.0261v0.0282l-0.0036,0.0296v0.0296l0.0036,0.0296v0.0957v0.0978l-0.0036,0.0975l-0.0036,0.0943l-0.0068,0.0871
	l-0.0107,0.0818l-0.0104,0.07l-0.0103,0.0575l-0.0139,0.0436l-0.0139,0.0261l-0.0071,0.0054h-0.0314l-0.0103,0.0068l-0.0071,0.0139
	l-0.0103,0.0229l-0.0068,0.0332l-0.0071,0.0382l-0.0071,0.0453l-0.0068,0.0521l-0.0036,0.0561l-0.0036,0.0593v0.0611l-0.0032,0.0625
	v0.2146l-6.8342-0.1239l-1.3528,3.3266v1.039l-0.0104,6.194l-1.5378,0.1135l-0.0557,0.0086l-1.3668,0.2007l-0.0525,0.0068
	l-0.0036,1.5099l-0.2264,0.0068l-0.0036,0.3278l-2.0016,0.0018V59.573l-0.1778-0.0243l-8.2531,0.0036l-2.7093,0.387v0.7337
	l-17.8033,4.2138l-0.0071-0.101l-0.3067-0.0525l-0.0628-1.3214h-0.2474l-0.0036-2.3429l-0.0139-2.3954l-0.0243-2.3918l-0.035-2.3868
	l-0.0418-2.3868l-0.0557-2.3811l-0.0664-2.3765l-0.0768-2.3726l-0.0871-2.3694l-0.0975-2.3658l-0.1082-2.3604l-0.1117-2.2822
	l0.1467-0.0786l0.0486-0.0346h0.3453l0.0314-0.5213l-0.0036-0.6923l-0.0418-1.0704h-0.6937v-0.4809l0.0558-0.0611v-0.8091
	l0.0556-0.0611v-0.0957l-0.0628-0.07l0,0l-0.0522-0.3745l-0.171-0.4152l-0.2753-0.3556l-0.0418-0.0503l-0.3452-0.2581l-0.0907-0.035
	l-0.2963-0.1132V29.362h-0.0071v-0.2285l-0.0068-0.0104l-0.0489-0.0193l-0.0732-0.0154l-0.0943-0.0125l-0.1078-0.0068
	l-0.1153-0.0018l-0.1185,0.0018l-0.1046,0.0086l-0.0903,0.0121l-0.07,0.0157l-0.0418,0.0193l-0.0104,0.0175v0.2285h-0.0036v0.0503
	l-0.3138,0.1168l-0.0768,0.035l-0.3485,0.2596l-0.2721,0.347l-0.035,0.0628l-0.1742,0.4149l-0.0453,0.366l-0.0243,0.0089
	l-0.0421,0.0696v0.0943l0.056,0.0471l-0.0036,1.365l-0.7844,0.0018l-0.0036,1.0722v0.6884l0.136,0.2949l0.101,0.2282l0.216-0.0018
	l0.0839,0.0611l0.1882,0.0525l-0.115,2.2976l-0.1082,2.3536l-0.0975,2.359l-0.0871,2.3604l-0.0768,2.364l-0.07,2.3676
	l-0.0557,2.3708l-0.0453,2.3747l-0.0347,2.3779l-0.0246,2.3797l-0.0175,2.3851l-0.0032,2.369l-0.0314,0.0193l-0.0107,0.0139h-0.1253
	l-0.3174,1.3528l-0.101,0.0175l-0.3942,1.646V66.47l-6.1469,1.4557l-4.1703,0.2232l-11.0041,1.3161h-3.5844l-8.6823,0.6695
	l0.0107-1.3371l-2.6814-0.4742l-0.6659,0.1064v-0.2074l-0.2721-0.6363l0.0139-2.4897l0.2789-0.5249l0.0036-0.1846l-0.2896-0.0386
	V64.181l-0.5509-0.0732v-0.2703l-0.6937-0.0889v-0.2042l-0.0453-0.0418l-0.1289-0.0382l-0.0279-0.0036l0.08-18.5863l0.185-2.0241
	l0.0768-0.005l0.1882-0.0139l0.1918-0.0107l0.1428-0.005v-0.0036l0.0036-0.3731l-0.1464-0.0054l-0.1989-0.0068l-0.1917-0.0104
	l-0.0939-0.0071l0.0171-3.6158l0.206-0.0332v-0.2371l0.9726-0.1532l0.0036-0.4552l-3.4798-0.5002v-0.3367l0.0521-0.0104v-0.1203
	l-1.4292-0.211l-0.4463,0.0839v0.3345l-2.2073-0.3171l-1.8898,0.3606l0.0036,0.4324l-0.5092,0.0943v0.7045l-2.2419,0.3974
	l0.0032,0.8508l-0.0593,0.1953v0.2685l0.0453,0.1114l0.0036,0.5038l-0.2546,0.0418l0.0071,1.7627l0.1814,0.0157l-0.1046,0.0086
	l-0.1746,0.0121l-0.1846,0.0107l-0.1257,0.005l0.0036,0.382l0.0068,0.0032l0.1396,0.0054l0.2092,0.0071l0.0557,0.0032l0.171,1.897
	l0.0593,18.4885l-0.0768,0.0139l-0.1082,0.0403l-0.0175,0.04v0.1796l-0.7741,0.075v0.2928l-0.4742,0.0471v0.1724l-0.2824,0.0279
	v0.1832l0.2721,0.5266l0.0104,2.4704l-0.2649,0.6241v0.4706l-0.1221,0.0175l0.0036,0.6398l0.1221,0.0278l0.0036,0.5702
	l-1.1054,0.1689l0.0036,0.708l-1.8306,0.0032v0.1239v3.3769h-13.6648l0.3071-26.5899l-2.6397-0.281l-9.6792-0.3013l-20.6104-0.2635
	l-10.9799-0.0328l-0.0104,1.0736l-0.0104,2.786l-0.035,6.0898l-4.2503,0.0157l0.0311-7.7861l0.2478-0.4795l0.2963-0.4481
	l0.3485-0.4095l0.387-0.3713l0.422-0.3224l0.4567-0.2721l0.4849-0.2196l0.502-0.1607l0.3035-0.0607L96.5,46.1735l0.5124,0.075
	l0.9555-0.0785l0.0175-3.4483l0.3103-0.04l0.0139-2.9881h-0.3035l0.0036-1.1647l-4.4281-0.0368l0.0279-7.0188l0.202-0.4077
	l0.2478-0.3803l0.2963-0.3381l0.3277-0.2928l0.2232-0.0175l0.4288,0.0243l0.4252,0.0821l0.4081,0.1375l1.8898-0.7009l0.014-1.9613
	l-1.1019-2.1808l0.3035-0.1396l-1.5481-3.0752l-0.3803-0.0086l-1.3703-2.72l-16.9489-3.579l-0.8229-0.4306l-0.0036-0.0036
	l-1.6039-0.863l-1.3425-0.7234l0.7844,0.4463l-0.8051-0.4256v0.673l-1.8167,0.1899v-1.7417l-2.2665-1.2743l-0.0139-0.0054
	l-0.9729-0.5159L68.1453,3.187l-2.7964-1.8866L38.3545,2.9567l-0.3313,0.0575l-6.5061,1.114l0.0243,2.5557l0.8994,0.1903
	l0.0143,1.114l-5.5231,0.8665l-0.0211-1.7574l-5.7566-1.189l-6.1819,1.0615l-0.1293,0.0436L3.8425,10.952l-0.035,0.0328L0,14.4893
	l0.035,1.9823l0.0036,0.0243l0.5751,2.8817l0.0243,0.0157l0.3835,0.2789L1.21,29.5537l-0.924,0.4795l0.0383,2.038l0.0036,0.0139
	l0.5509,1.5724l0.0243,0.0071l0.3838,0.15l0.1567,8.6401l-0.9205,0.1899l0.0418,2.1619l0.0036,0.0054l0.5299,0.507h0.0246
	L1.496,45.368l0.2021,10.9938L1.325,56.4124H1.3007l-0.5056,0.4984v0.0036H0.7916l0.0418,2.2387l0.9205,0.1899l0.1535,14.857H1.8759
	v31.4857h998.3635V74.2001H996.0449z M844.0946,71.6583l-0.2717,0.0018l-0.0107-2.0484l-0.0903,0.0014l-0.0453-10.1376
	l0.4252-1.1229l0.6591-1.004l0.8611-0.8369l1.0251-0.6309l1.1365-0.3924l1.1926-0.136l1.1961,0.1239l1.14,0.3817l1.0358,0.6188
	l0.8681,0.8266l0.6729,0.9937l0.4427,1.1158l-0.0068,10.2911h-0.136v2.1323h-0.2963v2.0344l0.0661,0.3296h-9.9651l0.1116-0.2963
	L844.0946,71.6583z M750.4228,66.9581l0.1185,7.242h-3.0438l-0.1046-7.2209L750.4228,66.9581z M745.4123,66.9931l0.094,7.207
	h-2.8697l-0.08-7.1862L745.4123,66.9931z M740.3597,67.0295l0.07,7.1705h-1.1194l-0.0664-7.1616L740.3597,67.0295z
	 M474.7553,63.9839l-0.3803-0.0368l0.0732-0.8105l0.2374-0.6259l0.1603-0.1307l0.6798-0.286l0.7323-0.096l0.7324,0.0996
	l0.6833,0.2892l0.5823,0.4584l0.4463,0.5963l0.2682,0.6905l0.0596,0.5195l-0.3278,0.216v0.1014l0.3417,0.1132l0.0557,9.0186h-0.1742
	v0.0993h-4.5367l-0.0557-9.7348l0.4221-0.4274V63.9839z M458.0501,61.5642l0.2406-0.3488l0.4634-0.3924v-0.0889l-0.5995-1.3232
	l-0.0139-0.0036l0.0139-0.106l0.5577-1.2711l0.8612-1.0843l1.1157-0.828l1.2868-0.5145l1.3771-0.1689l1.3739,0.1882l1.2797,0.5316
	l1.0947,0.8405l0.8441,1.0929l0.5366,1.2747l0.0036,0.0486h-0.1778l-0.317,1.3182l-0.035,0.2717l0.3695,0.2128l0.3207,0.2963
	l-0.094,7.3519l-0.0664,5.2511l-0.0975,0.0871h-10.4568l0.0486-5.3485L458.0501,61.5642z M447.513,65.1172l0.286-0.2024
	l-0.272-0.1464l0.0524-0.5823l0.2542-0.6902l0.4292-0.5963l0.5716-0.4674l0.6695-0.3017l0.7287-0.1132l0.7252,0.0785l0.4606,0.1814
	l0.0279,0.04l0.2964,0.7409l0.0871,0.7934h-0.4567v0.0925l0.4463,0.3381l-0.1468,9.918h-4.3338L447.513,65.1172z M164.9417,44.5453
	l0.1814-2.0523l0.1814-0.0139l0.2057-0.0121l0.1499-0.0068v-0.1221l1.4539,0.1378l-0.0036,0.3556l0.0036,0.0068l0.1325,0.0036
	h0.0071l-0.0071,0.0086l0.1742,2.0398l-0.0521,18.5549h-0.0036l-0.1428,0.0368l-0.0593,0.04v0.2196l-0.638,0.0714v0.2896
	l-1.1961,0.1325l-0.1953-0.0278v-0.1796l-0.0278-0.0471l-0.1221-0.0418l-0.0629-0.0104L164.9417,44.5453z M162.0232,42.453v0.0261
	l0.0036,0.0071l0.1428,0.0036l0.1885,0.0068l0.181,2.0626l0.0143,19.3654l-0.136,0.035l-0.0767,0.0418v0.0907l-0.2128-0.0314
	v-0.2792l-0.7494-0.1078v-0.2196l-0.0839-0.0403l-0.1186-0.0243l-0.0278-18.4557l0.1638-1.9334l0.0943-0.005l0.1918-0.0107
	l0.1393-0.0068v-0.3803l-0.0033-0.0032l-0.1571-0.0054l-0.2092-0.0104l-0.2057-0.0089l-0.0521-0.0018L162.0232,42.453z
	 M131.2074,64.8469l0.1217-0.352l0.0314,0.0957l0.0871,0.4081l-0.0453,9.2014h-0.3346l0.0418-8.9158L131.2074,64.8469z
	 M128.4249,64.899l0.101,0.2635l-0.0418,9.0375h-0.1607l0.0489-9.4089L128.4249,64.899z M127.438,62.605l0.7184,0.0243v0.0364
	h-0.0071l-1.4539-0.0853L127.438,62.605z M125.1369,65.6385l0.1464-0.4867l0.2371-0.427l0.0207-0.0243l0.1014,0.1828l0.1393,0.4656
	l0.0386,0.5038l-0.035,8.3474h-0.7391l0.0314-8.0421L125.1369,65.6385z M120.3146,66.1333l0.1846-0.4949l0.2653-0.4256
	l0.1428-0.1393l0.1778,0.2753l0.1707,0.4706l0.0768,0.5163l-0.0278,7.8643h-1.1086l0.0278-7.5297L120.3146,66.1333z
	 M114.809,66.6793l0.2371-0.4917l0.3067-0.4131l0.2931-0.2564l0.2753,0.3556l0.2195,0.462l0.136,0.5159l-0.0243,7.3484h-1.6146
	l0.0211-6.9806L114.809,66.6793z M93.1806,67.2563l0.2825-0.4567l0.3206-0.4342l0.3521-0.401l0.3906-0.3713l0.4149-0.3313
	l0.443-0.2981l0.467-0.2546l0.4881-0.211l0.4988-0.1689l0.0768-0.0175l-0.0246,9.8884h-3.9678l0.0175-6.4593L93.1806,67.2563z
	 M79.1706,30.7812l0.3209-0.5998l0.1814-0.347l0.6762-0.8208l0.115-0.096l0.4292-0.3488l0.8123-0.2403l1.0147-0.0839l1.0111,0.1168
	l0.9726,0.3174l0.8962,0.4988l0.7844,0.6695l0.6416,0.8141l0.4778,0.9187l-0.0175,6.5814l-7.0327-0.0561l-0.3278-0.0068
	l-0.9622-0.0071L79.1706,30.7812z M79.1112,48.6385l0.6348-0.8837L80.5233,47l0.8895-0.6155l0.9761-0.4445l0.8787-0.2321
	l0.4845-0.0418l1.0461,0.096l1.0147,0.2717l0.9519,0.4449l0.8611,0.6084l0.753,0.7409l0.6102,0.863l-0.0243,7.704l-9.8569,0.0368
	L79.1112,48.6385z M79.4111,66.6582l0.6488-0.9083l0.8194-0.7512l0.9519-0.5648l1.0458-0.3506l1.0879-0.1289l1.0076,0.0975
	l0.3591,0.1168l0.924,0.537l0.7984,0.7184l0.6276,0.8733l0.4324,0.9922l-0.0139,6.9106h-9.1458l0.0068-6.5186L79.4111,66.6582z
	 M77.0089,67.2056l-0.0036,6.9945h-9.0168l-0.0104-7.4597l0.4742-0.9904l0.6555-0.8716l0.8123-0.7148l0.9415-0.5284l0.5509-0.1671
	l0.4567-0.0421l1.0983,0.131l1.0533,0.3606l0.969,0.5684l0.8441,0.7601l0.6798,0.9205L77.0089,67.2056z M57.1447,66.5415
	l0.3799-0.9065l0.5545-0.7969l0.7009-0.6605l0.8194-0.4863l0.5509-0.1832h0.035l0.9587,0.1203l0.9312,0.3345l0.8401,0.5231
	l0.7323,0.6991l0.5788,0.8423l0.3974,0.9447l0.0139,7.228H57.169L57.1447,66.5415z M69.5018,30.2232l0.6276-0.8141l0.7673-0.6766
	l0.8715-0.5124l0.9483-0.326l0.9904-0.1307l0.5299,0.04l0.185,0.0121l0.0207,0.0121l0.8019,0.6609l0.5927,0.7355l0.0665,0.0821
	l0.4952,0.9362v3.4815v3.1538l-2.1583,0.0364l-5.1989,0.0907l-0.0068-5.8577L69.5018,30.2232z M67.9432,47.5227l0.638-0.9098
	L69.38,45.856l0.9376-0.5734l1.0286-0.3556l1.0286-0.1203l0.0418,0.0054l1.0497,0.3503l0.9658,0.5702l0.8333,0.7669l0.6591,0.9326
	l0.4567,1.0533v6.8567l-8.8633-0.0489l-0.0107-6.7382L67.9432,47.5227z M60.8198,21.447l0.286-0.0086v0.8212l-0.286,0.0068V21.447z
	 M58.4872,30.6102l0.5438-0.6309l0.1046-0.1203l0.7637-0.6241l0.8541-0.4638l0.9205-0.2999l0.5823-0.0732l0.3663-0.0453
	l0.3242,0.0211l0.0489,0.0364l0.7427,0.5581l0.6834,0.7512l0.5473,0.8751l0.0139,6.8692l-5.917,0.0993l-1.0636,0.0157
	l-0.0243-6.1055L58.4872,30.6102z M57.0019,47.7302l0.6309-0.8176l0.7705-0.6727l0.8823-0.5042l0.959-0.3135l0.7948-0.0857
	l0.9276,0.2878l0.9133,0.5038l0.7987,0.6816l0.6623,0.8333l0.4988,0.9555l0.0207,7.5751l-8.2984-0.0557l-0.0315-7.453
	L57.0019,47.7302z M47.943,13.3771l0.0211,3.0195l-1.5342,0.0661l-0.0207-3.0177L47.943,13.3771z M44.4703,31.7381l0.1639-0.2439
	l0.2546-0.3924l0.6309-0.6887l0.7359-0.5663l0.8091-0.4256l0.8645-0.2721l0.7115-0.0818l0.7005,0.4952l0.6802,0.6852l0.5509,0.8001
	l0.0347,5.0122l-0.0418-0.0036v0.1935l0.0036,0.7269h0.0418l0.0071,1.1872l-6.1998,0.1014l-0.0382-4.9426l-0.0071-1.4296
	L44.4703,31.7381z M43.8812,31.977l0.0032,0.0211l0.0525,6.2744H43.923l-0.049-6.2797L43.8812,31.977z M43.0336,47.7912
	l0.687-0.7705l0.7952-0.6327l0.8926-0.4656l0.9586-0.2896l0.6384-0.0643l0.868,0.2456l0.924,0.4674l0.8333,0.6398l0.7184,0.7844
	l0.5788,0.9119l0.0453,7.3273l-8.4206-0.0539l-0.0593-7.2105L43.0336,47.7912z M42.7619,65.4953l0.6309-0.7948l0.7601-0.6434
	l0.8719-0.4759l0.537-0.1639l0.9065,0.1064l0.9658,0.3224l0.8994,0.5159l0.7988,0.6905l0.6587,0.8387l0.5056,0.9519l0.0314,7.3569
	h-7.9917l-0.0453-7.7947L42.7619,65.4953z M38.2428,31.4646l0.3313-0.8423l0.2303-0.3624l0.1532,0.3503l0.2128,0.9294l0.0628,6.8321
	l-1.1229,0.0507l-0.0593-6.0409L38.2428,31.4646z M35.7081,48.4607l0.3278-0.8505l0.467-0.7184l0.572-0.5473l0.2545-0.1378
	l0.0732,0.0364l0.5998,0.5459l0.4916,0.7269l0.3625,0.8666l0.2056,0.9622l0.0664,7.017l-3.5322-0.0696l-0.0696-6.8985
	L35.7081,48.4607z M35.5303,66.2208l0.3453-0.7812l0.467-0.6484l0.4709-0.3942l0.3799,0.2039l0.5891,0.5509l0.5024,0.7148
	l0.3731,0.8441l0.2403,0.938l0.035,6.5514h-3.5669l-0.0489-7.1009L35.5303,66.2208z M26.8969,66.8728l0.1814-0.9205l0.3242-0.8248
	l0.4534-0.687l0.4705-0.4288l0.3417,0.1971l0.5859,0.5788l0.4881,0.7548l0.3592,0.8926l0.2092,0.9747h0.0068l0.0418,6.7903h-3.4098
	L26.8969,66.8728z M29.8643,32.6868l0.1046-0.347l0.2999-0.6102l0.2089,0.6155l0.0736,6.4679l-0.7569,0.0382l-0.0625-5.6763
	l0.1392,0.0157L29.8643,32.6868z M28.4069,46.7104l0.1289-0.0696l0.537,0.4949l0.4638,0.6887l0.3417,0.823l0.2057,0.9169
	l0.0696,6.435l-3.1206-0.0628l-0.0731-6.3322l0.1742-0.889l0.3138-0.8073l0.4288-0.6816L28.4069,46.7104z M27.6746,23.4814
	l0.0104,0.8598l-1.1786,0.1132l-0.0172-1.1297L27.6746,23.4814z M21.9633,33.2445l0.1185-0.2685l0.0975,0.3592l0.0839,6.2047
	l-0.422,0.0157l-0.0732-5.4935L21.9633,33.2445z M19.3936,49.1423l0.2963-0.7634l0.4077-0.6398l0.4881-0.4795l0.4324,0.4045
	l0.4396,0.6484l0.3277,0.7759l0.2021,0.8665l0.0839,6.168l-2.7653-0.0539l-0.0871-6.0844L19.3936,49.1423z M19.484,64.5399
	l0.3838-0.4199l0.15-0.1028l0.2789,0.1778l0.4392,0.4113l0.387,0.5127l0.3242,0.5977l0.2617,0.6695l0.0628,7.8139h-4.2888
	l1.7574-0.1603l-0.0839-8.9818L19.484,64.5399z M15.0873,65.0579l0.2474,0.9815l0.0664,7.3726l0.0068,0.6155l1.0533,0.1725H13.853
	l-0.0557-8.8094l0.2092-0.8926l0.2789-0.7669l0.1253-0.2232l0.3592,0.687L15.0873,65.0579z M13.7484,48.8374l0.2442-0.8387
	l0.1707-0.3853l0.1396,0.2824l0.2824,0.8598l0.2021,0.9779l0.0907,5.9466l-1.2029-0.0453l-0.0907-5.8577L13.7484,48.8374z
	 M8.6334,48.7556l0.1675-0.5213l0.1568,0.4463l0.1881,0.8037l0.0978,6.0948L8.5777,55.553l-0.1014-6.0184L8.6334,48.7556z
	 M8.4659,64.6848l0.1535-0.7844l0.1046-0.3385l0.0175,0.0418l0.2474,0.7551l0.1882,0.8491l0.0557,8.9922H8.5287L8.4659,64.6848z"/>
</svg>
