<?xml version="1.0" encoding="utf-8"?>
<!-- Generator: Adobe Illustrator 18.1.1, SVG Export Plug-In . SVG Version: 6.00 Build 0)  -->
<svg version="1.1" id="stockholm" xmlns="http://www.w3.org/2000/svg" xmlns:xlink="http://www.w3.org/1999/xlink" x="0px" y="0px"
	 viewBox="0 0 999.0485 187.3286" enable-background="new 0 0 999.0485 187.3286" xml:space="preserve">
<g>
	<polygon   points="621.2068,117.6445 621.6375,118.1695 622.1904,118.5647 622.8235,118.7994 622.8307,118.7994 
		623.5058,118.8657 624.1708,118.7539 624.7833,118.4704 625.3082,118.0365 625.2974,118.0365 624.7306,118.1834 624.1465,118.201 
		623.5797,118.082 623.0475,117.8334 622.5893,117.4697 622.2252,117.011 621.9665,116.4757 621.844,115.902 621.8543,115.3072 
		621.9976,114.7367 622.2671,114.2154 622.6451,113.7603 622.6415,113.7603 622.0223,114.0473 621.5046,114.4777 621.1126,115.0409 
		620.8746,115.6745 620.8116,116.3531 620.9234,117.0286 	"/>
	<polygon   points="280.8984,87.544 280.9507,87.5511 280.9507,87.2011 280.8984,87.1975 280.8984,86.6553 
		280.8633,86.6446 280.8633,87.1907 280.811,87.1799 280.811,87.53 280.8633,87.5372 280.8597,89.2725 280.8773,89.2725 
		280.8913,89.2725 	"/>
	<polygon   points="315.086,87.047 315.114,87.0366 315.114,86.6378 315.0824,86.6517 315.0824,86.0358 
		315.0616,86.043 315.0616,86.6586 315.0266,86.6725 315.0266,87.0645 315.0616,87.0541 315.0648,89.0102 315.0756,89.0066 
		315.086,89.0066 	"/>
	<polygon   points="278.2601,87.0577 279.0334,87.0577 279.0334,86.6621 278.2601,86.6621 278.2601,86.0498 
		277.7667,86.0498 277.7667,86.6621 276.9966,86.6621 276.9966,87.0577 277.7631,87.0577 277.7595,89.0102 278.0078,89.0102 
		278.2565,89.0102 	"/>
	<polygon   points="313.8856,87.5336 314.5646,87.5336 314.5646,87.1871 313.8856,87.1871 313.8824,86.6446 
		313.4449,86.6446 313.4449,87.1871 312.7626,87.1871 312.7626,87.5336 313.4449,87.5336 313.4485,89.2693 313.6653,89.2693 
		313.8856,89.2693 	"/>
	<polygon   points="245.5911,59.2981 245.619,59.158 246.4238,59.1652 246.4238,58.9831 245.647,58.9796 
		245.647,58.8466 245.619,58.9796 244.8107,58.9763 244.8107,59.158 245.5911,59.158 	"/>
	<polygon   points="247.1025,78.0821 248.9887,78.2885 248.4813,76.9552 247.974,75.6326 247.3021,68.9069 
		246.8786,68.2598 246.1684,68.1584 245.1256,68.1548 244.3664,68.2526 243.9533,68.9001 243.2814,75.6222 243.2466,75.72 
		242.7847,76.9484 242.2806,78.2709 244.3069,78.0749 	"/>
	<polygon   points="245.2829,68.0706 245.9795,68.0742 246.0318,68.0813 246.4027,68.1372 246.0143,64.5819 
		245.8151,60.9708 245.724,60.9428 245.6681,60.9428 245.5664,60.9428 245.5209,60.9428 245.4127,60.9672 245.2095,64.5819 
		244.8035,68.1372 245.2271,68.0813 	"/>
	<path   d="M999.0485,159.7997l-0.5598-0.9761v-1.3752h-0.7908l-2.0403-3.5309l0.6019-3.0056l0.315-3.1214v-0.0491l0,0
		l0.0176-3.0934v-0.0348l-0.2835-3.1145l-0.574-3.0791l-0.8715-3.0096l-1.1509-2.9114l-0.0175-0.0244l-1.4244-2.8032l-1.697-2.6487
		l-1.9385-2.4739l-2.1593-2.271l-2.3688-2.0507l-2.5509-1.8092l-0.0946-0.0631l-2.7014-1.5429l-2.8307-1.2738l-0.1157-0.0455
		l-2.9078-0.9832l-0.119-0.0351l-0.1469-0.0348l-2.8974-0.665l-0.1154-0.0208l-0.1401-0.0279l-0.1505-0.0211l-0.1749-0.0211
		l-2.649-0.3218l-0.0942-0.014l-0.1018-0.0072l-0.1082-0.0104l-0.119-0.0104l-0.1225-0.0072l-0.1262-0.0104l-0.1365-0.0072
		l-0.1469-0.0068l-0.1433-0.0036l-0.1541-0.0068l-0.1537-0.0072l-0.1613-0.0036l-0.1608-0.0068h-0.1645l-0.1713-0.0036
		l-0.168-0.0036h-0.168h-0.1713h-0.1752h-0.1711l-0.1682,0.0036l-0.1749,0.0036h-0.1645l-0.168,0.0068l-0.1609,0.0036
		l-0.1577,0.0072l-0.1573,0.0032l-0.1505,0.0072l-0.1469,0.0068l-0.1401,0.0072l-0.1365,0.0068l-0.1294,0.0107l-0.119,0.0104
		l-0.1153,0.0104l-0.1122,0.0072l-0.1014,0.014l-0.0909,0.0068l-2.6631,0.3325l-0.1645,0.0247l-0.15,0.0208l-0.1366,0.0244
		l-0.1157,0.0247l-2.9006,0.6719l-0.1436,0.0383l-0.1119,0.0387l-2.9114,0.9868l-0.1085,0.0455l-2.8276,1.2771l-2.6942,1.5573
		l-0.0983,0.0595l-2.5437,1.8092l-2.3585,2.0539l-2.1624,2.2639l-1.9318,2.4706l-1.6902,2.6383l-1.4276,2.7924l-1.1617,2.9114
		l-0.8503,2.9289l-7.0582-13.8044l0.014-4.871l-0.6192-1.5293l-0.5948-10.5748l-0.6475,10.5433l-0.6227,1.4802l-0.014,4.5632
		l-6.4423,0.0208l-0.1469-9.3816h-0.0491h-0.0698h-0.0316l-0.1924,9.3816l-16.3308,0.0527l-0.0875-9.4447h-0.0419h-0.0734h-0.0316
		l-0.105,9.4447l-7.261,0.0208l-0.0383-0.5249l-0.0352,0.5249l-22.2307,0.0735l-0.0387-0.6124l-0.0348,0.6124l-12.5692,0.0419
		l-0.1469,5.9453l-0.0424-16.7788l-0.5912-1.4802l-0.0211-9.1469l-0.028-0.014l-0.063-28.0606l-0.0803-0.1852l-0.1577-0.0247
		l-1.4347-13.493l-0.0595-0.0208l-0.0032-1.5329l0.2272-0.1645v-0.2695l-0.2835-0.21l-0.2834,0.2064v0.2662l0.2523,0.1924
		l0.0032,1.5118h-0.0316l-0.0487,0.014l-0.1609,1.5677l-0.3501-3.7305l-0.014-0.0172l-0.0419-0.0072l-0.0035-1.6028l0.21-0.1537
		v-0.2766l-0.0176-0.0523l-0.2483-0.196l-0.2626,0.1924v0.2763l0.0211,0.0491l0.196,0.1609l0.0032,1.5992l-0.0595,0.0072
		l-1.2874,14.0599h-0.0107l-4.584-48.6921h0.0703l-0.0036-2.0539h0.0667l0.014-0.0383l0.0068-0.2347l-0.0104-0.2867l-0.0104-0.1612
		h-0.0351l-0.0352-0.1294v-0.9728l0.0036-0.224l-0.0036-0.2902l-0.0208-0.1752l-0.3464-0.0068l-0.014,0.0559l-0.0072,0.2415
		l0.0108,0.287v0.5808h-0.0667l-0.0176,0.0315l-0.0036,0.2412l0.0072,0.2906l0.0175,0.1573h0.0316l0.0349,0.1365l0.0071,2.4427
		l0.0279,0.105h0.0419l-4.3354,47.8522l-1.0954-11.1417l-0.0071-0.0176l-0.0487-0.0072l-0.0036-1.529l0.2168-0.1505l-0.0032-0.2695
		l-0.0283-0.0491l-0.2308-0.1853l-0.2623,0.182v0.2691l0.028,0.0491l0.1816,0.1469l0.0072,1.5361l-0.0523,0.0036l-0.3956,4.2132
		l-0.6894-6.386l-0.0698-0.0211h-0.0104l-0.0072-1.592l0.2623-0.1892v-0.2799l-0.2974-0.2204l-0.2974,0.2136v0.2799l0.238,0.1784
		l0.0071,1.6096h-0.0104l-0.0527,0.0176l-1.4172,14.0075l-0.3325,0.0491l0.1086,29.663h-0.0667l0.0351,9.7138l-0.6579,1.5888
		l0.0631,17.0938l-8.5278-1.3649l-2.1485,0.406l-0.1154-0.0455l-1.4906-0.2483l0.0244-1.5082l-0.077-0.7593l-0.3077-0.7141
		l-0.5354-0.6192l-0.7209-0.4723l-0.105-0.0455l-0.7629-0.273l0.0455-3.0655l-1.0638-0.9341h0.0072l0.0175-0.0036l0.2448-0.0631
		l0.0667-0.0208l0.2308-0.2275l0.0806-0.3114l-0.0734-0.3082l-0.2239-0.2308l-0.0176-0.0176l-0.2275-0.0699l-0.0316-0.0036
		l0.0455-3.1178l-0.1609,0.0104l-0.0419,3.1178l-0.2451,0.0842l-0.224,0.2272l-0.0874,0.3082l0.0806,0.3114l0.2168,0.2308
		l0.0247,0.0176l0.2834,0.0631l0.0104,0.0036h0.0175l-1.0882,0.9238l-0.0455,3.1074l-0.8503,0.3218l-0.1365,0.091l0.0068-0.5669
		l-1.5325-1.4663h0.0104l0.0211-0.0036l0.0068-0.0032l0.3149-0.0842l0.0806-0.0208l0.2974-0.2942l0.1086-0.4024l-0.1018-0.4024
		l-0.2834-0.2938l-0.0348-0.0244l-0.287-0.091l-0.0419-0.0036l0.0523-4.0347l-0.1992,0.014l-0.0595,4.0311l-0.3046,0.1086
		l-0.2938,0.2938l-0.1121,0.4024l0.1013,0.4024l0.287,0.2942l0.028,0.0244l0.3677,0.0838l0.014,0.0036h0.0175l0,0l-1.5572,1.7393
		l-0.0316,2.6559h-0.8327l-0.602,0.1469l-0.5425,0.3186l-0.8396,0.6894l-0.5321,0.5386l-0.3776,0.6335l-0.196,0.6823l-0.0175,1.5748
		l-0.8435,0.6192l-21.6743,0.0036l0.0036-0.0208l0.0455-16.2123l-0.483,0.0387l-0.0036,0.1118l-1.0251,0.0946l-0.5425,0.287
		l-0.3569,0.3637l-0.3533,0.6719l-0.4096,1.1585l0.8192,0.1749l1.1964-0.0946l0.3465-0.4024l0.1752-0.4511l0.1501-0.2311
		l-0.0383,14.5114l-19.2144,0.0036l-0.3956-0.616l-0.0068-1.5712l-0.1821-0.6858l-0.3605-0.6299l-0.4443-0.7557l-0.4655-0.4723
		l-0.5737-0.315l-0.6335-0.1505h-1.0532l-0.0175-2.6491l-0.1682-0.2763l-1.3018-1.4663h0.0211h0.014l0.3533-0.0874l0.0455-0.0211
		l0.2871-0.2974l0.1013-0.4024l-0.1085-0.3988l-0.2903-0.2974l-0.3115-0.105l-0.0279-4.0275l-0.196-0.0176l0.028,4.0311
		l-0.0455,0.0068l-0.2799,0.0874l-0.0455,0.0247l-0.287,0.2974l-0.1014,0.4024l0.1082,0.3988l0.2906,0.2974l0.0735,0.0211
		l0.3289,0.0874h0.0176h0.0139l-1.4627,1.4663l0.0176,2.9289h-1.3856l-0.6966,0.1397v-0.0032l-0.0839-0.7629l-0.3254-0.7141
		l-0.5461-0.6228l-0.7173-0.4862l-0.1329-0.0527l-0.7209-0.2695l-0.0244-3.1038l-1.0814-0.9238h0.0107h0.0104l0.2798-0.0631
		l0.028-0.0208l0.2208-0.2311l0.0767-0.3114l-0.0839-0.315l-0.2275-0.2204l-0.2343-0.0838l-0.028-3.1145l-0.1577-0.0104
		l0.0247,3.1142l-0.028,0.0072l-0.2171,0.0663l-0.0316,0.0211l-0.224,0.2204l-0.0767,0.315l0.0839,0.3114l0.2275,0.2311
		l0.0594,0.0208l0.2484,0.0631h0.0176h0.0067l-1.0671,0.9345l0.0316,3.0723l-0.7245,0.2587l-0.1258,0.0491l-0.7105,0.4759
		l-0.5389,0.616l-0.3077,0.7174l-0.0771,0.7525l0.0211,1.515l-0.196,0.0383l-0.8156-0.1537l-15.8759,2.614l1.0323-50.9037
		l0.8116-0.1505v-0.0631h-0.1677l0.1677-0.0348l-1.137-0.0036l-0.105-0.0068l-0.4271-0.0598l-0.3637-0.0838l0.0523-2.5298
		l-0.1505-0.3289l-0.0874-0.3289v-2.614l-0.014-1.9632h-0.0036h0.0455l0.1014-0.301l0.0771,0.0107l0.1154-0.0072l-0.0874-0.3357
		l0.0981-0.3186l-0.1891-0.0211l-0.0911-0.3357l-0.1118,0.0068l-0.0981,0.301l-0.0803-0.0068l-0.1154,0.0068l0.091,0.3361
		l-0.1018,0.315l0.1924,0.0172l0.0878,0.3361h0.0384v0.0244l-0.0911,1.9353l-0.1014,2.6172l-0.1014,0.3289l-0.1613,0.3289
		l-0.0455,2.3097l-0.4966-0.2136l-0.5074-0.2695l-0.483-0.315l-0.4655-0.3605l-0.4443-0.406l-0.42-0.4407l-0.3744-0.4619v-0.0036
		l-0.0208-0.2136l-0.0108-0.0032L733.33,77.956v-0.0455v-0.0663v-0.0036l0.0244-0.1645v-0.0559l0.0419-0.1154l0.0455-0.1541v-0.0735
		l-0.0035-0.0107v-0.0383l-0.0032-0.0068v-0.0351l-0.0036-0.0072l0.0036-0.0419l-0.0455-0.0631h-0.0036l0.0036-0.0348l-0.0211-0.224
		l-0.0176-0.0036l0.0212-1.1441l0.077-0.0176l0.0032-0.2487l0.0491-0.0104l0.0315-0.0068l0.0072-0.2591l-0.7106-0.0036v-0.0419
		l-0.2063-0.014l-0.0385-0.0315l-0.0247-0.0279l0.028-0.0036v-0.2799l0.0316-0.2032l0.0036-0.0172v-0.0176l0,0v-0.0036
		l0.0067-0.0176v-0.0176l0.0143-0.3601l-0.0036-0.1541l0.301-0.0104l-0.1541-0.3082l0.1681-0.3289l-0.0703-0.0036l-0.2203,0.0107
		l-0.0068-0.0351v-0.1154l-0.0806-0.1609h-0.0071l-0.0244-0.0036l-0.0035-0.014l0.0071-0.0107l0.0036-0.014l0.0383,0.0107
		l0.0104-0.0176l0.0107-0.0631l0.0033-0.0279l0.0139-0.0072l-0.0103-0.0032v-0.0423l0.0103-0.0172l0.0107-0.0176l0.0176-0.1469
		l-0.0878-0.028l-0.0384-0.0036l-0.0491-0.0072l0.2835-14.8682l0.0386-0.1329v-0.1261l-0.0315-0.1329l0.0491-0.0663l0.9517-0.1681
		v-0.1261l-0.0175-0.3637l-1.578-0.7629l-0.0212-0.1924l0.0279-0.1996l0.0387-0.196l0.0559-0.196l-0.0211-0.1956l-0.0595-0.196
		l0.028-0.1996l0.0283-0.1924l0.1082-0.1996l-0.0316-0.196l-0.1221-0.1956l-0.0878-0.1892l-0.0487-0.1992l-0.0176-0.1928
		l-0.014-0.1992h-0.0036l0,0h-0.0035l0,0l0,0h-0.0068l0,0l0,0v0.0036l-0.0212,0.1956l-0.0244,0.1752l-0.0036,0.0176l-0.0068,0.0244
		l-0.0455,0.1749l-0.0946,0.196l-0.1329,0.1996l-0.0419,0.196l0.1082,0.1956l0.0211,0.1928l0.0212,0.1956l-0.0703,0.1996
		l-0.028,0.1996l0.0527,0.1924l0.028,0.1992l0.0244,0.1928l-0.0036,0.014l-0.8047-0.392l0.014-0.6507l-0.3848-0.3852l-0.3605-0.4128
		l-0.3497-0.4443l-0.3221-0.4726l-0.3078-0.4934l-0.2834-0.5178l-0.2694-0.5457l-0.2451-0.5636l-0.2168-0.5877l-0.1996-0.5984
		l-0.1713-0.6228l-0.9238-0.5704h-0.2311l0.0385-0.0072l0.0841-0.014l0.0523-0.014l0.0212-0.0176l0.1397-0.2623l0.4339-0.4235
		v-0.0036l0.4235-0.4966l0.5145-0.6263l0.0523-0.0667l0.0455-0.0663l0.0559-0.0667l0.0455-0.0699l0.0491-0.0595l0.0419-0.0595
		l0.0419-0.0491l0.0352-0.0455l0.0315-0.0383l0.0209-0.0283l0.0211-0.0244l0.014-0.014l0.1155-0.1573l-0.0768-0.6754l-0.1927-0.1996
		l-0.0839-0.0663l-0.2519-0.1681l-0.2172-0.2064l-0.2308-0.2415l-0.2239-0.2415l-0.2027-0.2555l-0.1961-0.2695l-0.182-0.2727
		l-0.1716-0.2802l-0.1609-0.2902l-0.1434-0.2974l0.1015-5.5816l0.0662-0.2659l0.0807-0.0942l0.2028-0.0982l0.1752-0.1014
		l0.028-0.0315l0.0663-0.105l-0.0627-0.1014l-0.0982-0.1014l-0.0942-0.105l-0.0211-0.0176l-0.1226-0.0982l-0.1644-0.0874
		l-0.1294-0.2064v-0.0036l-0.0104-0.0032h-0.0176l-0.0107-0.0036l0.119-6.7465l0.301-0.0946l0.3536-0.1086l0.3569-0.105
		l0.3533-0.1014l0.3533-0.0978l0.3605-0.0946l0.3604-0.091l0.364-0.0874l0.3569-0.0838l0.3605-0.0806l0.3636-0.0806l0.3709-0.0735
		h0.0035l0.0352-0.0315l0.1469-0.1294l0.1121-0.091l0.0735-0.0631l0.1852-0.1537l0.0703-0.0595l0.1118-0.091l0.1154-0.0946
		l0.0702-0.0559l0.1889-0.1505l0.063-0.0491l0.119-0.0942l0.1226-0.0982l0.0698-0.0491l0.1852-0.1469l0.196-0.1433l0.1784-0.1329
		l0.0072-0.0072l0.014-0.0104l0.182-0.1261v-0.0068v-0.0036l-0.0036-0.0068l-0.0035-0.0072l1.0602-0.0631l0.0667-0.2659h0.0036
		l0.0172-0.0595l-0.0104-0.0036l0.0875-0.3357l0.1785-0.0806l0.0314-0.1853l-0.0279-0.0211l-0.7138-0.0595v0.1749l0.028,0.0176
		l0.063-0.0036l-0.0946,0.1018l-0.525,0.0279l0.2136-0.287l-0.3533-0.273l-0.0283-0.0176l-0.3673,0.3186l0.21,0.2763l-0.5529,0.0315
		l-0.091-0.0874l0.1121-0.0036l0.0033-0.1817l-0.028-0.0176l-0.7137,0.1397l0.0211,0.1892l0.0316,0.014l0.1469,0.0523l0.0699,0.315
		h-0.0068l0.0104,0.0559l0.0068,0.0036l0.0594,0.2695l0.0212,0.0176l0.9692-0.0523l-0.1329,0.0978l-0.1925,0.1365l-0.1891,0.1469
		l-0.1888,0.1433l-0.1888,0.1437l-0.1892,0.1537l-0.1888,0.1473l-0.182,0.1537l-0.1888,0.1469l-0.1785,0.1541l-0.182,0.1541
		l-0.1749,0.1469l-0.3536,0.0735l-0.3602,0.0735l-0.3641,0.0842l-0.3605,0.0838l-0.3605,0.0874l-0.3605,0.091l-0.3569,0.0978
		l-0.3636,0.0982l-0.3538,0.1014L727.5,28.2702l-0.0663,0.0176l-0.0702,0.0211l-0.2798,0.0874l-0.2731,0.0874l0.014-0.9868
		l1.0079-0.0527l0.0631-0.2691h0.0068l0.014-0.0631l-0.0068-0.0036l0.0803-0.3289l0.1783-0.0838l0.028-0.182l-0.028-0.0176
		l-0.7034-0.0631l-0.0032,0.1752l0.0316,0.0172l0.056-0.0032l-0.0875,0.0978l-0.5214,0.0279l0.2132-0.2799l-0.3532-0.273
		l-0.0316-0.014l-0.3641,0.3114l0.2136,0.273l-0.5493,0.0315l-0.0875-0.091l0.105-0.0036l0.0068-0.1784l-0.0316-0.0176
		l-0.7066,0.1437l0.0244,0.1853l0.028,0.0176l0.1541,0.0491l0.063,0.3114h-0.0072l0.0072,0.0595l0.0104,0.0072l0.0559,0.2623
		l0.0247,0.014l0.9832-0.0523l-0.0175,0.99l-0.2798-0.0631l-0.3536-0.0663l-0.3498-0.0699l-0.3536-0.0666l-0.3497-0.0559
		l-0.3533-0.0563l-0.35-0.0523l-0.3569-0.0491l-0.3465-0.0487l-0.3569-0.0423l-0.3533-0.0348l-0.343-0.0351l-0.168-0.1294
		l-0.1785-0.1297l-0.1749-0.1362l-0.1856-0.1297l-0.1749-0.1294l-0.1856-0.1294l-0.1784-0.1261l-0.1856-0.1225l-0.1853-0.1294
		l-0.1888-0.1154l-0.1821-0.1225l-0.1329-0.0806l0.9901-0.0595l0.063-0.2623h0.0072l0.014-0.0631l-0.0072-0.0036l0.0735-0.3289
		l0.182-0.0803l0.0316-0.1856l-0.0316-0.0176l-0.6998-0.0663l-0.0036,0.1784l0.028,0.0176l0.0595-0.0036l-0.0911,0.0942
		l-0.5106,0.0283l0.21-0.2766l-0.3536-0.2695l-0.0316-0.0208l-0.3605,0.3146l0.2172,0.2766l-0.5457,0.0315l-0.0878-0.091
		l0.1085-0.0072l0.0036-0.1784l-0.0351-0.014l-0.6962,0.1401l0.0208,0.1856l0.0316,0.0172l0.1437,0.0491l0.0663,0.3114h-0.0068
		l0.0104,0.0559l0.0071,0.0072l0.0595,0.2659l0.0312,0.0176l1.0044-0.0595l-0.0036,0.0072v0.0032l0.0036,0.0107h0.0035l0.1924,0.119
		l0.182,0.119l0.1852,0.1222l0.1821,0.1225l0.1856,0.1225l0.1821,0.1261l0.1852,0.1294l0.1752,0.1294l0.1749,0.1297l0.182,0.1362
		l0.1749,0.1297l0.1855,0.1397h0.0032l0.3641,0.0423l0.3533,0.0348l0.3569,0.0419l0.35,0.0455l0.3533,0.0455l0.3501,0.0563
		l0.3497,0.0559l0.35,0.0559l0.3533,0.0666l0.3465,0.0699l0.3533,0.0663l0.287,0.0631l-0.1226,6.7433h-0.014l-0.0175,0.0068h-0.0068
		l-0.0419,0.0735l-0.0981,0.1401l-0.1713,0.0978l-0.1298,0.1086l-0.0942,0.1014l-0.0946,0.105l-0.028,0.0247l-0.0667,0.105
		l0.0631,0.1046l0.0315,0.0247l0.1749,0.0946l0.1856,0.0907l0.0839,0.091l0.1017,0.105l-0.1365,5.7353l-0.1645,0.3046
		l-0.1645,0.2974l-0.182,0.2902l-0.1924,0.2802l-0.2064,0.2727l-0.2172,0.2662l-0.2275,0.2551l-0.2028,0.2136l-0.2239,0.21
		l-0.3149,0.2171l-0.0663,0.0663l-0.1996,0.2171l-0.1014,0.6719l0.1118,0.1537l0.0176,0.0107l0.0211,0.0244l0.028,0.028
		l0.028,0.0351l0.0383,0.0455l0.0352,0.0455l0.0455,0.0627l0.0491,0.0563l0.0455,0.0663l0.0487,0.0631l0.0491,0.0631l0.0455,0.0663
		l0.4898,0.6056l0.3988,0.4759l-0.014,0.0104l0.4236,0.4096l0.1261,0.2555l0.0208,0.014l0.0631,0.014l0.0838,0.0104l-0.2064,0.0874
		l-0.9377,0.7174l-0.196,0.6475l-0.2168,0.6299l-0.2379,0.6192l-0.2662,0.5948l-0.2762,0.5844l-0.3046,0.5565l-0.3182,0.5425
		l-0.3397,0.5106l-0.3569,0.4902l-0.3709,0.4619l-0.3848,0.4372l-0.0104,0.5565l-0.7944,0.2763l0.0104-0.0487l0.0315-0.196
		l0.0631-0.1924l-0.0212-0.196l-0.063-0.1888l0.028-0.196l0.0314-0.1924l0.105-0.196l-0.0316-0.1924l-0.1258-0.1928l-0.0838-0.1888
		l-0.0455-0.196l-0.0211-0.1888v-0.0036l-0.0104-0.196h-0.0035l0,0l-0.0036-0.0032h-0.0036l0,0h-0.0032l-0.0035,0.0032l0,0h-0.0036
		l-0.014,0.196l-0.028,0.196l-0.0526,0.196l-0.0943,0.1924l-0.1297,0.1996l-0.0383,0.1924l0.1014,0.1924l0.0248,0.1924
		l0.0172,0.1924l-0.0699,0.1924l-0.028,0.196l0.0559,0.1924l0.028,0.1924l0.0247,0.1681l-1.7357,0.602l-0.0036,0.1258l0.1154,0.3605
		l0.861,0.1122l0.0488,0.0735l-0.0348,0.1329v0.1258l0.028,0.1297l0.014-0.0176l-0.2343,14.1545h-0.0419l-0.1473-0.3114
		l-0.0735-0.0072l-0.1644,0.3393l-0.3218,0.0143l0.1573,0.3146l-0.1713,0.3397l0.0699,0.0068l0.2591-0.014l0.1505,0.3114
		l0.0243,0.0036l0,0h-0.0036v0.0036l-0.0104,0.2343l-0.0036,0.0176v0.0631l-0.0035,0.1154l-0.0312,0.1226l0.0068,0.0068v0.0072
		h0.0176l-0.0631,1.396v0.0423l-0.028,0.0068l-0.028,0.0104h-0.4443l-0.3429,0.091l-0.0036,0.2519l0.0735,0.0036l-0.0036,0.2555
		h0.0595h0.0175l-0.0175,1.3086l-0.0631,0.0036v0.0631l0.0491,0.0946v0.0032v0.0842l-0.0383,0.0595l-0.0455,0.0631v0.0767
		l0.0383,0.1541l0.0387,0.1154l-0.0036,0.0527l0.0104,0.0699l-0.0068,0.3186l-0.063,0.0068v0.0631l0.0594,0.105v0.0211
		l-0.0594,0.0068l-0.2798,0.7453l-0.42,0.4898l-0.4375,0.4479l-0.4551,0.4096l-0.4687,0.3709l-0.4866,0.3185l-0.4336,0.2379
		l0.0383-2.0962l-0.1505-0.315l-0.0806-0.3182l-0.0105-2.5369l-0.0208-1.9073h-0.0036l0.042-0.0032l0.0978-0.301l0.0946,0.0104
		l0.105-0.0036l-0.0911-0.3289l0.105-0.3042l-0.1996-0.0176l-0.0907-0.3289l-0.105,0.0036l-0.1017,0.2938l-0.091-0.0068h-0.105
		l0.0878,0.3322l-0.0982,0.3082l0.1924,0.0172l0.0946,0.3289h0.0383v0.0176l-0.0837,1.8898l-0.0911,2.5405l-0.091,0.3182
		l-0.1573,0.3221l-0.0352,2.3513l-1.9141,0.4235h0.1401l-0.1433,0.0348v0.0595l0.7593,0.0036l-0.5497,34.7544l-0.0558,0.0527
		l-0.6998,0.4443l-0.3079,0.4479l-0.0036,0.4479l0.2903,0.4515l0.3186,0.4268l-1.4136,0.014v0.301h-1.0919l-0.287,1.2319
		l-0.0244,1.3996l-6.2076-0.5318l-58.2346,0.0838l-0.2344-1.8722v-0.0874l-0.119-3.4152h-0.0035h-0.0072h-0.0067h-0.0105h-0.014
		h-0.014h-0.0143h-0.014h-0.014h-0.0068h-0.0036l0,0l-0.1469,3.4152v0.0874l-0.2451,1.8722l-3.0339,0.0036l0.0176-0.2032
		l0.1437-0.2308l-0.2415-1.9597v-0.0839l-0.119-3.2124l0,0h-0.0036h-0.0067h-0.0107h-0.0105h-0.014h-0.0104h-0.0107h-0.014h-0.0068
		h-0.0072h-0.0036l-0.1329,3.2124v0.0803l-0.2555,1.9597l0.1473,0.2343l0.014,0.2032l-14.1755,0.0176l-2.2851,0.0068l-1.4276-0.2623
		v-2.5932h-0.0035l0,0h-0.0072h-0.0103h-0.0104h-0.014h-0.014h-0.0107h-0.0104h-0.0104h-0.0104h-0.0036l0,0v2.5756l-8.6503-1.5712
		l-0.0036-0.5844l-0.119-0.0279l-0.8363-0.0068v-0.2978h0.182l0.0419-0.0068l-0.014-5.0004l-0.0942-0.0036h-0.1296v-0.3186
		l0.1541-0.0032l0.0454-0.0036l-0.0559-0.224l-0.0667-0.2275l-0.182-0.2275l-0.2798-0.224l-0.6299-0.2308l0.2942-0.2204
		l0.0419-0.2311l0.0315-0.2275l0.0348-0.224l-0.0419-0.2272l-0.1645-0.2275l-0.2028-0.2275l-0.2627-0.2275l-0.3848-0.224
		l-0.0839-0.2308l0.1083-0.903l-0.1294-0.9098l-0.0875-0.9098l-0.0558-0.9062l-0.0352-0.9066l-0.0383-0.913l-0.028-0.9066
		l-0.0211-0.9062l0.014-0.1856l-0.028-0.1784l0,0l0.0176,0.1784h-0.0036h-0.0104l-0.0036-0.1784h-0.0072l0,0l0,0l-0.0104,0.1784
		h-0.0067h-0.0072l0.0211-0.1784l0,0l-0.0247,0.1784l0.0175,0.1856l-0.0175,0.9062l-0.0245,0.9066l-0.0387,0.913l-0.0208,0.9066
		l-0.0527,0.9062l-0.0839,0.9098l-0.1261,0.9062l0.1121,0.9066l-0.077,0.2308l-0.3848,0.224l-0.2627,0.2275l-0.2064,0.2275
		l-0.1573,0.2275l-0.0419,0.2272l0.0383,0.224l0.0351,0.2275l0.0383,0.2311l0.2974,0.2204l-0.6263,0.2308l-0.287,0.224
		l-0.1785,0.2275l-0.0595,0.2275l-0.0627,0.224l0.105,0.0036l0.0978,0.0032v0.3221h-0.1785l-0.0419,0.0036l0.014,5.0004
		l0.0978,0.0068h0.1261v0.2942l-0.9449,0.014l0.0036,0.5773l-14.8403,0.0176l-1.5501-0.2626l-7.4711,1.2599l0.0491-3.6499
		l-0.0491-0.0104l-0.2064-0.0068l-0.3568-0.0036l-0.5007-0.0072l-0.6332-0.0032l-6.932-0.0036l-6.2603-3.475l-35.9197-0.0559
		l0.0036-1.998l-2.8483-0.0068l-0.0071,1.998h-0.7453l0.0036-2.0016l-2.8591-0.0036v2.0016l-3.3313-0.0072l-1.2667-1.6304
		l-1.095-2.1381l-0.6719-2.313l-0.0702-0.7385l0.1541-0.1888l0.392-0.483l0.063-0.3605l-0.1333-0.3393l-0.2762-0.2343
		l-0.0698-0.0455l-0.2803-0.0527l-0.3217-0.0487l-0.4164-0.0423l-0.5668-0.0312l-0.1014-0.0036v-0.2171l0.2519-0.4164l0.1014-0.2483
		l-0.1014-0.2451l-0.0491-0.0348l-0.2028-0.0806l-0.0035-2.782l-0.0387-0.0419l-0.1258-0.0315l-0.21-0.0244l-0.2798-0.0176
		l-0.329-0.014l-0.4479-0.0072h-0.0072l-0.0175-10.1685l0.5704-0.0631v-0.5461l-0.5704-0.0523l-0.0033-0.0211l0.7522-0.0523V89.318
		l-2.2676-0.3357l-0.3149,0.0663l-0.3605-0.8327l-0.4056-1.3541l-0.2487-1.4104l-0.0839-1.438l-0.3536-0.3537l-0.4443-0.2132
		l-0.2799-0.0491l-0.2028-0.0036h-0.196l-0.287,0.0419l-0.4375,0.2064l-0.3465,0.3465l-0.0803,1.4383l-0.2343,1.4032l-0.3956,1.3541
		l-0.3465,0.8084l-0.2204-0.0559l-2.3373,0.301v0.5597l0.752,0.0667v0.0104l-0.7102,0.0455v0.5529l0.7138,0.0978l0.0315,10.1656
		l-0.378,0.0032l-0.3358,0.0107l-0.2834,0.0172l-0.2207,0.0247l-0.1361,0.0279l-0.0563,0.0351l0.014,2.7992l-0.1889,0.077
		l-0.0595,0.0315l-0.1014,0.2483l0.1014,0.5493l0.1015,0.2379l0.0666,0.0351l0.0839,0.0315v0.0383h-0.0316l-0.5772,0.0279
		l-0.441,0.0351l-0.3218,0.0491l-0.3046,0.0455l-0.0874,0.0523l-0.2798,0.2275l-0.1261,0.3429l0.063,0.3569l0.1717,0.4934
		l0.2239,0.2695l0.119,0.0419l0,0l0,0l0,0l0.0244,0.0107l-0.0559,0.6016l-0.6651,2.3201l-1.095,2.1521l-1.2667,1.6307l-3.118-0.0072
		l-0.0105-2.012l-2.9042-0.0072l0.0104,2.0156h-0.7593l-0.014-2.0191l-2.9081-0.0032l0.0143,2.0188l-7.6986-0.014v-0.105h-1.6619
		l-2.2327-0.1956l-0.4795-0.0247h-0.6471v-0.1609l-0.3221,0.182l-0.0631,0.0036l-2.1485,0.2168l-0.3218,0.0735l-18.9764-0.0351
		v-0.4336l-2.9744,0.0032v0.4271h-0.3533l-1.0639,0.5808h-0.5389l-1.3577-0.616l0.0068-10.1409l-4.2339,0.0036l0.0036-7.4184
		v-2.2359l-0.182-0.1784l-0.5669-0.1612l-0.8958-0.1222l-0.5844-0.0455l-0.2974-0.3325l-0.9308-0.9485l-0.0663-0.0627l-0.5249-0.497
		l-0.3466-0.3221l-0.0244-0.0244l0,0l-1.0008-0.7209l-1.0252-0.6683l-1.057-0.616l-1.0775-0.5597l-1.099-0.5038l-1.0567-0.4235
		l-0.0036-1.1688h0.4024v-1.4415l-0.0663-0.5353h-0.3604l-0.0316-0.2275h-2.3269v0.2308h-0.4096v1.4559l0.105,0.5178h0.3046v1.1477
		l-1.1828,0.4479l-1.1581,0.5074l-1.1409,0.5601l-1.1161,0.616l-1.0814,0.6719l-1.0567,0.7278h-0.0244l-0.0036,0.0211l-0.364,0.3218
		l-0.5318,0.4934l-0.9098,0.9202l-0.3709,0.4164l-0.7768,0.0563l-0.8471,0.1294l-0.5002,0.1645l-0.105,0.1749l0.0036,2.2359
		l0.0139,7.4115l-4.6295,0.0036l0.0244,9.7417l-2.8902,0.0036l0.0068,2.0088l-13.7589,0.0032l-0.7385,0.2207l-0.0032-0.3289h-1.5888
		v-0.5285l-0.2906-0.1261l0.0036,0.6547h-0.8152l-0.1784-0.0735l-0.0036-1.0151l-0.3114-0.1362l0.0069,1.2419l-2.3549-0.927
		l-1.2316-0.2942v-0.4794l-0.5146-0.21l0.0036,0.5601l-0.6894-0.1645l-2.0786-0.2136l-0.3466-0.0244h-0.6647l-0.497,0.0244
		l-2.3585,0.2064v-0.0068l-1.9629,0.0036v0.3988l-1.0116,0.2064l-0.8782,0.2938l-0.1258-0.0383v0.0838l-1.3509,0.4447
		l-0.0036-0.9625l-0.4232-0.1365l0.0104,1.2423l0.0244,4.9549l0.0247,3.7162l0.0663,11.4179l-16.576-0.0244l-1.004-0.6823
		l-0.5424-0.0072l0.0211-17.9301l-0.1365-0.014l-1.1022-8.9301l-2.3445-3.8072l-5.1964-2.4739l-0.0072-10.4523l-1.305-0.287v-6.5577
		l-2.1066-0.5808l-0.2415-0.0595l-0.3394-0.0032l-0.2451,0.0559l-2.089,0.5565l-0.0036,0.4791l0.0104,6.089l-1.2947,0.2587
		l0.014,10.4662l-5.1685,2.4319l-2.3269,3.7864l-1.0882,8.9441l-0.1293,0.0176l0.0455,17.9756h-0.4024l-1.008,0.6823l-6.295-0.0104
		l-0.7349-3.9054l-0.028-8.5241l-1.6411-24.1413l-11.81-0.0036l-2.5648-9.4339l-0.7385,2.7433l-0.6718-2.4807l-1.2176,4.5525
		l-0.1225-0.6124l-0.4723-0.0036l-0.0247-0.0982l-1.2212,0.0036l-0.2135-11.1557l-1.2807-1.3996l-0.0068-6.6311l-0.1473-7.3797
		l-1.1964,0.0032L297.1176,8.1078h-0.0492l0.7314-0.3046V6.8862l-0.1505-0.2659l-0.6403-0.2587h0.1681V3.6287l0.4128-0.2415
		l0.2415-0.4096h0.5493V2.5054l-0.0036-0.0559h-0.5493l-0.2415-0.406l-0.4128-0.2379L297.0613,0h-0.2415l-0.119,1.8092
		l-0.4128,0.2379l-0.2379,0.4092h-0.5529v0.4759l0.0072,0.0527h0.5493l0.2379,0.4092l0.4092,0.2347V6.309l0.0036,0.0527h0.1645
		l-0.7944,0.3322v0.9134l0.1577,0.2659l0.5737,0.2347h-0.0524l-10.9073,58.4618h-0.9481l-0.4236,7.3728l-0.0104,6.6275
		l-1.2527,1.3964l-0.2204,11.1413l-0.6542-0.0032l-0.0248,0.0978h-0.3708l-1.0639-3.9297l-1.4068,5.109l-1.4627-5.3713
		l-2.6068,9.4164l-10.9385-0.0036l-2.3481,24.0714l-0.0036,0.406l-1.5677-1.2982l-1.3365,0.0036l0.0175-2.978l-0.6579,0.0315
		l-0.3257-0.392l0.6476-0.0244l0.0454-8.1916l0.3429-0.0036l-0.2307-1.3684l-0.2276-1.3717l-0.2798-6.8759l-0.1892-0.6858
		L258.15,99.613l-0.2101-0.0072h-0.315l-0.2415,0.0072l-0.1856,0.1329l-0.1888,0.6858l-0.0455,0.014l-0.091,1.788l-0.0523-1.2946
		l-0.182-0.6335l-0.1784-0.1258l-0.1924-0.0072h-0.1086l0.0068-1.9805l-0.3322-0.3533l0.0244-4.4862l-0.1154-0.0068l-0.0072-0.9309
		l-0.0315-0.8399l-0.0455-0.5389l-0.0627-0.1505l-0.0631,0.2487l-0.0527,0.6156l-0.0383,0.8818l-0.014,0.6966l-0.6299-0.028
		l-0.2136-1.4627l-0.4056-1.4663l-0.5669-1.3717l-0.2978-0.5146l0.0176-0.5808l-0.014-0.6124l-0.0315-0.224h-0.9273l-0.3114-0.3956
		l-0.9585-0.9062l-1.0571-0.7102l-2.4635-0.2064l-0.5038-0.4447l1.8443,0.1612v-0.8994l-0.6686-0.0595l0.0108-4.99v-0.3046
		l-1.477-0.1573l-2.1904-0.0036l-1.5816,0.1505l-0.0491,0.2171v0.1014l-0.0032,4.9864l-0.602,0.0487l-0.0667,0.2239v0.7034
		l0.0667-0.0315l1.9772-0.1537l-0.4307,0.4479l-2.6419,0.196l-1.0323,0.7066l-0.9378,0.9066l-0.3042,0.3952h-1.1165v0.2974v0.6439
		v0.6124l0.0036,0.1716l-0.1118,0.2064l-0.5601,1.3681l-0.3952,1.4698l-0.2208,1.4695l-1.018,0.0455l-0.0036-2.2008l-0.0036-0.2451
		v0.1505l0.0036,2.2954h-0.0036l0.0072,4.4898l-0.3257,0.3569l0.0176,8.2862l-0.2554-5.5253l-0.0033-0.014l-0.0735-0.2555
		l-0.0107-0.2347l-0.0036-0.014l-0.1924-0.6858l-0.1924-0.1365l-0.224-0.0068h-0.3218l-0.224,0.0068l-0.1924,0.1333l-0.1892,0.6891
		l-0.2867,6.883l-0.2347,1.3717l-0.2204,1.3752h0.3289l0.0211,7.4467v0.0348l-0.378,0.2136l0.3078,0.0104v0.5042l0.0702-0.0351
		v0.028l-0.6578,0.378l0.3321,0.014l0.0072,2.9812l-2.1729,0.0036l-0.3712,0.3254l0.0735-1.6795l-0.8363-0.5249l-0.7417-0.6056
		l-0.6367-0.6858l-0.5214-0.7489l-0.3956-0.7976l-0.2555-0.8327l-1.018-1.5537l-1.2774-1.386l-1.5082-1.1964l-1.683-0.9696
		l-1.8232-0.717l-1.9106-0.4622l0.1365-3.6707l-0.2136-0.2028l0.392-10.4942l-1.3824,0.0068v-0.0315l-0.2132,0.0315h-0.7908
		l0.1222-3.527l-0.8711,0.2064l-0.1329,3.6635h-0.5213v-0.028l-0.1892,0.028l-1.4974,0.0036l-0.3046,8.972l-44.3636-0.0348
		l0.0283-4.1748h-1.3017v-0.0874l-9.7805,0.0036v4.2479l-41.6482-0.0348l-0.2307-8.7692l-1.4244,0.0036l-0.3218-0.0279l0.2415,8.79
		h-1.6203l0.5425-0.028L111.8952,92.31l-1.4659-0.196l0.0978,3.4643l-1.1373,0.0036l-0.3605-0.0315v0.0315h-1.1581l0.3046,10.2212
		l-0.3537,0.1996l0.1086,3.5761l-1.9804,0.4375l-1.8862,0.6962l-1.7462,0.9273l-1.5573,1.1549l-1.3261,1.3437l-1.0567,1.4978
		l-0.273,0.8048l-0.4128,0.7697l-0.5425,0.7209l-0.6507,0.6611l-0.77,0.5812l-0.8607,0.5002l0.5808,15.0782l-1.7182-0.7242
		l0.0036-12.9752v-0.9413l-0.0982-2.5649l-0.2974-2.5373l-0.4898-2.4843l-0.6754-2.3828l-0.8607-2.2678l-0.8224-1.9314
		l-1.0044-2.0471l-1.1477-1.8231l-1.2771-1.5816l-1.3824-1.3122l-1.4766-1.0323l-1.5362-0.7278l-1.2036-0.3221l0.0208-12.6044
		l-0.3533-2.0084l-0.3497-0.8363l-2.0962-1.7321l-0.7034-0.1573l-0.4655-6.1904l-0.0243-0.0631l0.5457-0.4619v-0.8152
		l-0.0942-0.2415l-0.5497-0.497l-0.2695-0.0627H77.043l0.0068-2.3936l0.1225,0.3114l0.0036-0.5285l-0.1261-0.3114l0.0036-0.8188
		l-0.0383-0.1014h0.0631v-0.1261h0.0663l0.2659-0.1852l0.1681-0.3114l0.1329-0.6475l0.0036-0.8152l0.196-0.3884l0.3465-0.3114
		l0.1609-0.3465L78.1523,64.33l-0.2383-0.0036l-0.1573,0.2415l-0.2028,0.5178l-0.1225,0.8084l-0.0036,0.3325l-0.0838,0.1749
		l-0.3641-0.0036l-0.2623-0.2272l-0.3745-0.5601l-0.3221-0.3393l-0.3181-0.1014l-0.2695-0.0036l-0.287,0.2275l-0.091,0.3042v0.3046
		l0.1433,0.2974l0.2347,0.2555h0.1365l0.0452-0.1226l0.1612-0.1713h0.2028l0.2379,0.1713l0.1892,0.3465l0.1537,0.4092l0.1577,0.182
		l0.1609,0.0842h0.0663v0.1294h0.0247v0.7209l-0.1261-0.315v0.5317l0.1261,0.3114l-0.0107,2.5964h-0.1784l-0.21,0.0735
		l-0.6088,0.5181l-0.0032,0.8188l0.1014,0.2308l0.4232,0.392l-0.0068,0.0036l-0.511,6.2251l-0.8714,0.2766l-2.3198,1.788
		l-0.3745,1.9665l-0.0419,13.3636l-1.7497,0.4619l-1.697,0.7665l-1.6239,1.0567l-1.5257,1.3365l-1.41,1.5992l-1.2667,1.8407
		l-1.1094,2.0611l-0.9309,2.2463l-0.7453,2.404l-0.5493,2.5301l-0.3357,2.614l-0.1225,2.6631l-0.0036,0.9865l-0.0595,11.9046
		l-41.5221,0.2659l-0.1713-45.861l-0.8155-0.8854L16.7017,81.13l-2.3793-0.9728l-0.1609-0.1014l-0.0595-14.5848l-0.4902-0.6439
		l-0.6611-0.5285l-0.483-0.2451l-0.6894-0.3289l-0.7521-0.1537l-0.5529-0.0842l0.5876-1.6795l-1.1126-1.8056L9.6403,54.546
		l-0.105-0.0279l-0.1956-0.0036l-0.0982,0.028L8.986,59.9875L7.8802,61.758l0.6088,1.6902l-0.5876,0.077l-0.7733,0.1294
		l-0.6998,0.3082l-0.4132,0.2308l-0.6579,0.5146l-0.4898,0.6296l0.077,14.6199l-2.8275,1.0359l0.0279,3.9645l-0.8643,0.8783
		l0.2659,46.9077l-0.1222,0.0032l-0.0563,0.0738l-0.5318,0.7625l-0.0595,0.091l0.0036,0.287l-0.21,0.0036l-0.1189,0.1749
		l0.0103,2.0435l0.0387,6.3968l-0.2766,0.0036L0,143.007l0.0838,14.4415H0v29.8802h998.4887v-27.0387l0.2623-0.1018l-0.2203-0.3916
		L999.0485,159.7997z M727.4337,46.9177l0.3741-0.6719h0.0107l-0.3708,0.6719l0,0H727.4337L727.4337,46.9177z M726.3907,45.7177
		h0.0139l-0.0032,0.4898h-0.014L726.3907,45.7177z M726.3875,46.2111h0.014l0,0v0.0032h-0.0107h-0.0032V46.2111z M724.6621,74.8454
		h0.0036H724.6621L724.6621,74.8454z M719.5847,75.0063L719.5847,75.0063L719.5847,75.0063L719.5847,75.0063z M719.3854,78.0155
		h0.0032l-0.0032,0.0036V78.0155z M719.2593,74.9608L719.2593,74.9608L719.2593,74.9608L719.2593,74.9608z M624.2233,124.9719
		L624.2233,124.9719l-0.0596-0.5074L624.2233,124.9719z M623.996,124.3735L623.996,124.3735l-0.0176-0.1537L623.996,124.3735z
		 M237.8682,88.5308h0.1365l-0.1401,0.2415L237.8682,88.5308z"/>
	<polygon   points="514.2318,82.5715 513.9866,81.9767 513.8257,81.9068 513.4514,81.7456 513.6473,81.6897 
		513.4442,76.2238 513.8781,76.6194 513.8781,76.5915 513.6262,76.0071 514.1755,75.6885 514.1791,75.6641 513.5316,75.72 
		513.3918,75.0761 513.2481,75.7165 512.6042,75.643 512.6042,75.671 513.1539,76.0035 512.9052,76.5775 512.9052,76.6055 
		513.3392,76.2206 513.1678,81.6897 513.3499,81.7456 512.8214,81.9663 512.5798,82.554 512.8214,83.142 513.4094,83.3939 
		513.9902,83.156 	"/>
</g>
</svg>
