<?xml version="1.0" encoding="utf-8"?>
<!-- Generator: Adobe Illustrator 18.1.1, SVG Export Plug-In . SVG Version: 6.00 Build 0)  -->
<svg version="1.1" id="vienna" xmlns="http://www.w3.org/2000/svg" xmlns:xlink="http://www.w3.org/1999/xlink" x="0px" y="0px"
	 viewBox="0 0 1002.9947 234.056" enable-background="new 0 0 1002.9947 234.056" xml:space="preserve">
<g>
	<path   d="M1001.7197,204.7159l0.007-0.9557l0.0324-4.5767l0.018-2.1267l0.0181-2.9709l0.018-1.9151l0.0033-1.1349
		l0.0143-2.4287l0.0217-2.4898v-0.1254l0.0791-11.7907l0.6-0.2516l0.0033-0.3447v-0.0037h-0.643v-0.0037h1.1028v-0.3521h-1.1028
		v-0.8836h-15.7027l-0.7438-0.4598l-0.7398,0.4598h-10.9395l0.011-2.389l-19.7518-8.2772l0.018-6.7829l-3.7324,0.0107h-0.018
		h-0.2119l0.1147-0.5386l-0.7184-4.7173l-2.3677-4.1599l-1.6451-1.0779l-3.334-2.9349l-4.1853-1.5738l-1.1316-0.3734l-1.491-0.2766
		l-1.6992-0.1438l-1.7316-0.007l-1.5808,0.1398l-1.2681,0.266l-4.0631,1.207l-1.5591,0.6898l-3.934,2.8849l-0.7004,1.0455
		l-0.007,0.0107l-1.9545,2.9172l-1.0956,4.6738l-0.8012,1.1246l0.1258,0.923l-3.1221,0.011l0.011,5.8558l-21.5515,9.1464
		l0.0143,2.3459h-11.4747l-0.6897-0.4311l-0.6824,0.4311h-13.576v0.9053h-1.0815l0.0037,0.3414h1.0779v0.0033h-0.6073l0,0
		l0.0037,0.3414l0.5889,0.2479l0.0147,2.1197v4.0164h0.0287l0.0287,3.6534l0.0037,0.6324l0.0143,1.9291l0.0106,1.5807l0.0107,1.9255
		l0.0287,3.3627l0.0143,1.8644l0.0541,7.3325l0.0037,0.9377l0.007,0.6644l0.0181,2.7844h-11.6973l0.1329-8.6509l0.0864-5.7587
		l0.1291-8.0042l1.175-0.0107l0.0323-1.9869l-0.8406-0.3771l-0.3307,0.0037l0.2803-18.0023l1.5267-1.3221l-3.5206-0.0033
		l0.1041-7.3108l0.3594-0.3521l-0.3663-0.0254l-0.9808-2.978l-1.0131-1.2791l-1.5377-0.6143l0.0217-1.5807l-0.2479-0.5246
		l-0.248-0.1758l-0.2549,0.1689l-0.2553,0.5246l-0.0181,1.6058l-1.3434,0.5783l-0.1939,0.1221l-1.0241,1.3148l-0.9628,2.8275
		l-0.0287,0.007l-0.3844,0.1869l0.3451,0.334l-0.0037,1.0529l-4.2284-3.7722l-14.8334-0.0861v-0.0324l-0.3881-0.4131l-0.8156-0.1942
		l-0.6754,0.1508l-0.5172,0.4422v0.0357l-15.606-0.0898l-3.6824,3.2549l-0.0143-0.532l0.3414-0.334l-0.1869-0.2012l-0.2369-0.0107
		l-1.0242-2.8849l-1.0598-1.3508l-0.1042-0.1254l-1.4586-0.6143l-0.043-1.6381l-0.2836-0.532l-0.266-0.1795l-0.2549,0.1725
		l-0.2479,0.5316l0.0467,1.6238l-1.5447,0.6037l-1.0095,1.2931l-0.9451,3.0431l-0.3734,0.018l0.3771,0.3664l0.2405,7.494
		l-3.3947-0.0037l1.5554,1.3578l0.6287,18.4695l-0.8046,0.0107l-0.593,0.3951l0.0754,2.0443l1.4049-0.0143l0.2803,8.2087
		l0.1975,5.9062l0.2656,7.8173h-12.1534l0.2336-14.6756l0.1258-7.7345l1.4513-0.309l0.0323-1.9652h-1.4512l0.3196-20.1253
		l1.7853-1.5771h-2.5759l0.0143-1.0885l-0.0787-0.1328l0.0144-0.7906h-0.1189l-0.043-0.3304l0.036-2.2455l-0.4672-2.0152h-0.7435
		l0.007-0.3127l0.4062-0.3844l-0.4529-0.1148l-1.0451-2.9099l-1.1176-1.2541l-1.7316-0.5496l0.0217-1.5914l-0.2586-0.5353
		l-0.0217-0.043l-0.2369-0.1402l-0.266,0.1832l-0.2729,0.5353l-0.0217,1.6345l-1.3005,0.5139l-0.4344,0.3447l-1.1426,1.4156
		l-1.0275,2.8164l-0.5172,0.3881l0.3845,0.327l-0.0217,1.4009l-0.9017-0.2119l-5.9312-1.0635h-0.2947l0.0143-0.959h-1.0164
		l-1.1139,0.927v0.032h-5.3743l0.0107-1.0271h-5.7551l-0.5713,0.6107l-0.3988,0.4164h-18.8031l-0.2623-1.6058l-0.8012-1.832h-18.038
		l-1.9939-3.298h-3.5422l-1.8033,3.007l-0.2586,0.291h-18.1174l-0.6824,1.832l-0.2263,1.6058l-33.4644-0.0033l-5.8165,1.0598
		l-0.9053,0.2119l-0.0177-1.4119l0.3807-0.3307l-0.5139-0.3771l-1.0239-2.8238l-1.1389-1.4119l-0.4381-0.341l-1.2898-0.5102
		l-0.0214-1.6381l-0.2733-0.5353l-0.2656-0.1762l-0.2336,0.1365l-0.0287,0.0397l-0.2586,0.5353l0.025,1.5984l-1.7278,0.5533
		L637.309,150.3l-1.0418,2.9066l-0.4492,0.1185l0.3989,0.3877l0.0069,0.3127h-0.7328l-0.4418,2.0156l0.0324,2.2381l-0.043,0.341
		h-0.1008l0.011,0.7869l-0.0721,0.1328l0.0143,1.0779h-2.5505l1.7603,1.5701l0.3054,20.1253h-1.4656l0.0324,1.9685l1.4726,0.327
		l0.1151,7.7202l0.2263,14.6756h-8.7407l-0.025-2.8238L625.838,183.15l-0.0037-0.3197h0.9197l-0.007-1.3402l-0.9234-0.2513
		l-0.1328-15.5342l-0.011-1.4836l0.909-0.6504l-0.0107-1.6882l-1.9435-0.1725l-0.0323-3.6644l-0.0791-0.6647h-0.2623l-0.0648,0.6574
		l0.0143,1.6525l-0.7472-3.33h-1.3004l-3.5566-9.8185l-0.0106-1.3185l-0.011-1.3218l-3.237-0.0037l-0.0394-5.1591h0.6251
		l0.5209,0.248l0.2586,0.0037l0.3521,0.4455l0.2733,0.2479v-0.4565l-0.0074-0.4562l-0.0037-0.3951l-0.2729-0.2516l-0.3521-0.4418
		l-0.2586-0.0037l-0.5173-0.2476h-0.6254l-0.007-0.6611h-0.1295l-0.043,0.007l0.0541,7.1206l-1.5594-0.0037l-1.6201,0.1508
		l0.0106,1.3004l0.0073,1.3004l-1.9508,5.7804h-4.6521l-2.759-12.6563l-5.353-0.007l-0.625,3.1648l-0.4565-2.1373l-4.9325-0.011
		l-2.2562,11.6469h-2.9996l-1.232-3.7792l-0.0074-0.8586l-0.0037-0.8623h-1.9291l-0.0143-2.996l0.0107,0.0213v0.2586l0.0361-0.1689
		v-0.2873v-0.2836v-0.2803l-0.0504-0.1151l-0.0033-0.8189h-0.0865h-0.018l0.0037,0.4312l-0.0537,0.0107l0.0033,0.284l0.0037,0.2836
		v0.284l0.0504,0.0861l0.0143,3.2906h-1.2144l-0.6934,0.0684l0.0037,0.8443l0.0074,0.8549l-1.1677,3.7255h-0.0647l-0.0217-5.5144
		h-0.334l-0.0037-1.3725l-0.384-1.3722l-0.3738,1.3865l0.007,1.3582h-0.1111l-0.0791,0.0033l-0.018-4.3648l0.7758-0.6791
		l-0.0033-1.3615l-1.3184-0.1545h-0.4025l-0.025-6.646l-0.7689-0.1472h-0.1725l-0.0217-5.2919l-0.7111-1.3615l0.2656-0.6828
		l-0.2767-0.6754l-0.2263-0.0574h-0.3123l-0.011-2.6619l0.8156,0.316l-0.0037-0.3127h0.3738v-0.1795l-1.189-0.5029v-0.6754h-0.2733
		l0.018,4.0128h-0.0934l-0.4525,0.0574l-0.266,0.6791l0.2767,0.6791l-0.7078,1.3578l0.0217,5.3529l-0.9377,0.0754l0.025,6.7108
		l-1.7242,0.0971l0.0106,1.3615l0.7832,0.6791l0.0181,4.3648h-0.0107l-0.0217,0.0037l-0.007-1.2537l-0.3701-1.3438l-0.3594,1.3615
		l0.0073,1.3332h-0.1332l-0.1865,0.0213l0.0176,5.3997h-0.4885l-0.8226,0.0037l-1.3615-2.709v-0.6l-0.1115-1.3038h-0.8443
		l-3.7972-7.5517l-0.0037-1.6418l-10.5944-0.018l-0.007-4.9505l-0.9451-0.1435l-0.0107-5.3136l-0.7148-1.3615l0.273-0.6861
		l-0.2767-0.6791l-0.2767-0.0611h-0.266l-0.0033-2.6619l0.8152,0.316v-0.3123h0.3774v-0.1832l-1.1963-0.5029v-0.6791h-0.2729
		l0.007,4.0234h-0.1438l-0.3988,0.0541l-0.2729,0.6824l0.2729,0.6828l-0.7074,1.3578l0.007,5.3599l-0.9447,0.0934l0.007,4.9615
		l-18.3794-0.0324l0.0037-12.1715l0.2012-0.1939l0.0323-0.1008l0.0971-0.0861l0.1185-0.3881l0.2013-0.1869l0.086-0.2656h-0.8226
		l0.0718-0.259h-0.4201l0.0033-10.7416l-0.3377-0.0287v-0.9877v-1.7029l-0.5099-0.0037v-1.3545l-0.0287-0.1041v-4.2464
		l-0.2479-0.0754v-1.25l-0.2373-0.0758v-1.0919l-0.2369-0.0791v-1.5844l-0.0827-0.4131l-0.1616-0.4201l-0.0254-0.2156v-0.3955
		l-0.0861-0.4308l-0.1652-0.4278l-0.0865-0.8549l-0.0823,0.8549l-0.1689,0.4278l-0.0254,0.1255l0.0037-3.4271v-2.8021
		l-0.3447,1.2754l-1.2648-0.4709l0.0037-8.7944v-1.4012l-0.0254,0.1008v-0.1115l-0.3553,1.2537l-0.2336-0.0967l-0.2299-1.5053
		l-0.2336,1.3041l-0.1147-0.0504l0.0033-5.6583l-0.9877-0.4598v-2.6226l-0.5533-3.8476l-0.564-3.8476l-0.5639,3.8369l-0.5643,3.8406
		l-0.007,2.6189l-0.9844,0.4455l0,0l0,0l-0.0074,5.6509l-0.1542,0.0647l-0.2336-1.3115l-0.2336,1.5017l-0.2336,0.0971
		l-0.3447-1.2537v0.0611l-0.0143-0.0574l0.0106,1.3972l-0.0106,8.7911l-1.2861,0.4635l-0.3414-1.2791l-0.0037,2.8058l-0.0037,2.6873
		l-0.0644-0.6684l-0.0901,0.8549l-0.1652,0.4278l-0.0861,0.4238l-0.0037,1.6312l-0.2443,0.0754l-0.0073,2.4177l-0.0681,0.0213
		l-0.4275,0.1295l-0.0073,4.7423l-0.298,0.9373l-0.0037,1.3582l-0.4958-0.0037l-0.0034,1.7102v0.9914l-0.345,0.025l-0.0181,10.7563
		l-0.4024-0.0037l0.0648,0.2549h-0.8226l0.0754,0.2697l0.1976,0.1832l0.1184,0.3877l0.0934,0.0898l0.0287,0.1045l0.2229,0.2119
		l-0.0217,12.1785l-18.5427-0.0324l0.0143-4.9935l-0.9539-0.0971l0.018-5.3886l-0.7203-1.3722l0.2785-0.6865l-0.2711-0.6861
		l-0.4061-0.0574h-0.1472l0.0089-2.6873l0.8244,0.3197l0.0037-0.316h0.3807l0.0037-0.1795l-1.2088-0.5066v-0.6864h-0.2729
		l-0.0143,4.0562l-0.2697-0.0037l-0.2836,0.0574l-0.2785,0.6864l0.2748,0.6861l-0.7291,1.3652l-0.018,5.3562l-0.9575,0.1332
		l-0.0181,4.9935l-10.7864-0.018l-0.007,1.6598l-1.3203,2.5865h-0.0125l-0.0037,0.0287l-2.4806,4.8681h-1.0242l-0.1184,1.3291
		l-0.0037,0.9267l-1.2949,2.5402l-0.8226-0.0037h-0.5176l0.0305-5.4644l-0.1869-0.0213h-0.1328l0.0055-1.3508l-0.3664-1.3758
		l-0.3807,1.3615l-0.0055,1.2644l-0.0162-0.0033h-0.0143l0.025-4.4119l0.8068-0.6861l0.0052-1.3795l-1.7621-0.1041l0.036-6.7829
		l-0.9609-0.0861l0.0305-5.4247l-0.7188-1.3758l0.2803-0.6828l-0.2711-0.6898l-0.4635-0.0574h-0.0934l0.0162-2.6906l0.8299,0.316
		v-0.316l0.3844,0.0033l0.0037-0.1869l-1.2162-0.5062l0.0074-0.6864h-0.2785l-0.0253,4.0668l-0.3197-0.0037l-0.2336,0.0541
		l-0.2799,0.6898l0.2711,0.6898l-0.7346,1.3722l-0.0323,5.3636h-0.1725l-0.7884,0.1402l-0.0397,6.7288h-0.4076l-1.3596,0.1582
		l-0.0092,1.3795l0.7994,0.6861l-0.0269,4.4259l-0.0717-0.007h-0.1188l0.0074-1.3759l-0.3789-1.4012l-0.3955,1.3902l-0.0052,1.3869
		h-0.3395l-0.036,5.5935h-0.2513l-1.1875-3.7795l0.0055-0.8619l0.0033-0.866l-0.7074-0.0647h-1.2504l0.0305-4.7419h-0.0213h-0.0883
		l-0.0033,0.4345h-0.426l-0.2513,0.1762h-0.1744l-0.1365,0.3127l-0.1869,0.1615v0.2623l-0.0037,0.3017v0.3053l0.1817-0.1652
		l0.1383-0.309h0.1758l0.2516-0.1758h0.4256l-0.018,3.4378h-1.9884l-0.0037,0.8697l-0.0055,0.873l-1.2824,3.8366h-3.0427
		l-2.3121-11.8371l-5.0995-0.0074l-0.4562,2.1053l-0.6323-3.1542l-5.5487-0.0074l-2.8867,12.9006h-4.7762l-2.0189-5.9059
		l0.0125-1.3295l0.0125-1.3254l-1.6812-0.1619h-1.6311l0.0666-7.2747l-0.0467-0.007h-0.1346l-0.0074,0.6574l-0.1596-0.0254
		l-0.4223,0.2443l-0.0952-0.0143l-0.3683,0.4565l-0.0986,0.2369l-0.0037,0.4095l-0.0055,0.4672l-0.0033,0.4705l0.0968-0.2406
		l0.3719-0.4562l0.0898,0.0107l0.4256-0.2443l0.1619,0.025l-0.0522,5.2845h-3.3786l-0.0162,1.3475l-0.011,1.3541l-3.7361,10.0448
		l-1.3722,0.0037l-0.785,3.4091l0.018-1.6885l-0.0702-0.6754h-0.273l-0.0843,0.6791l-0.0397,3.7542l-2.0277,0.1799l-0.018,1.7316
		l0.9554,0.6644l-0.0143,1.5197l-0.167,15.9113l-0.9697,0.2693l-0.0147,1.3762l0.9664-0.0074v0.327l-0.0699,6.2472l-0.0773,7.6448
		l-0.079,7.6595l-0.0181,1.5484h-11.0108l0.1652-7.7419l0.1328-6.2833l0.1942-8.9132l1.807-0.1078l0.0485-2.2595l-1.2898-0.0397
		v-0.0107h-0.3271l-0.1869-0.0037l0.4473-20.9191l1.7926-1.5484l-4.0687,0.0037l0.5768-0.2586l0.0537-2.716l0.0342-1.4479
		l-0.3447-1.0705h-0.2803l0.036-1.6812l0.4039-0.3881l-0.4381-0.0861l-1.0418-2.9927l-1.1191-1.2861l-1.7283-0.5676l0.0324-1.6275
		l-0.2568-0.5426l-0.0324-0.032l-0.2336-0.1475l-0.2711,0.1832l-0.2818,0.5463l-0.0305,1.6632l-1.3509,0.5426l-0.3863,0.298
		l-1.1496,1.4299l-1.0418,2.8595l-0.5172,0.3737l0.3808,0.3304l-0.0217,1.1963l-0.6213-0.1185l-2.567-0.2336l0.0254-1.3795
		l-1.7084,0.0037l-1.4082,1.0238v0.0721l-5.2918-0.4815l-8.8772,0.0107l0.0199-1.7673l-0.0898-0.1188l-0.2354-0.043l-0.2369-0.0467
		l-0.7221-0.025l-0.7795,0.0324l-0.6254,0.0861l-0.3016,0.1185l-0.018,1.764l-22.0438,0.0217l0.0037-0.3881l-4.4259,0.0037
		l-1.4803-4.9324l-22.7136,0.025l-1.5716,4.9291h-3.7005l0.0037,0.3951l-14.7437,0.0143l-1.9527-1.7209l-11.8625,0.0144
		l0.0305,1.7172l-9.3944,0.011l-9.5022,0.7758l-3.4919-2.3853l-4.7062,2.1697l-2.2113,5.9816l-1.9129,0.0033l1.8861,1.5377
		l0.5496,21.1204h-1.164l0.0537,2.0549l1.1676,0.0574l0.2318,8.8989l0.1633,6.2583l0.185,7.1165l0.0181,0.6684h-15.3992
		l0.0125-6.3013l0.0143-10.1419l-0.9863-1.789l-0.4793-0.018l0.0519-38.0985l2.5652-0.6287l0.0088-4.3038l-2.5648-1.2754
		l-0.866-0.0684l-1.4656-5.687l-1.5539-0.8799l-4.963-2.2455l-6.5331,3.032l-1.4961,5.7517l-3.4363,1.2394l0.0019,4.3218
		l3.2582,1.0242h0.0055l-0.0055,0.0467l0.0162,20.1429l-3.174-0.032l-1.0256,0.0143l-0.4201-4.1209l-0.4131,4.1316l-2.6748,0.0324
		l-0.4687-4.4836l-0.4565,4.4943l-1.8986,0.025l-0.7975-7.562l-0.7795,7.5837l-0.8818,0.0754l-0.7619-7.0878l-0.7508,7.228
		l-0.1383,0.0107l0.0758,31.043l0.0088,4.5267h-14.6252l0.2678-37.057l-7.3163-0.0644l-1.8592-89.5114l9.1755-2.7804l-0.3289-1.7209
		h-0.0037l-0.3248-1.7209l-0.9072-0.043l-3.6787-0.0287v-4.6021l0.5441-0.0037l0.8192-0.0144l0.2388-0.0143V56.0287l-0.3539-0.0143
		l-0.9197-0.007l-1.4263-0.0143l-1.8338-0.0037l-1.4693-0.0037v-6.1538l-0.1096-0.0037l-0.284-0.0037l-0.44-0.0037h-0.5713h-0.6574
		h-0.0357v-1.4119l0.5621-0.2443l0.3881-0.3086l0.1059,0.3377l0.2189,0.3807l0.2372,0.1291l0.2354-0.1402l0.2207-0.3914
		l0.1869-0.6217l0.1457-0.8082l0.0898-0.9377l0.0338-1.0021l-0.0338-1.0061l-0.0898-0.934l-0.1457-0.8009l-0.1869-0.6143
		l-0.2207-0.3844l-0.2354-0.1258l-0.2372,0.1402l-0.2189,0.3914l-0.0879,0.291l-0.4061-0.3197l-0.5621-0.2406V0.0033h-0.0217
		h-0.0647h-0.0968h-0.1277L182.7582,0h-0.3072l-0.1453,0.0033h-0.1221h-0.0934h-0.0537h-0.018v40.9333l-0.106-0.0107l-0.5838,0.0754
		l-0.3252-0.0611l-0.7291,0.1328l-0.6809,0.3844l-0.5802,0.6107l-0.4492,0.8049l-0.2785,0.9304l-0.0968,1.0058l0.0968,1.0094
		l0.2785,0.9344l0.4492,0.8082l0.5802,0.6213l0.6809,0.3881l0.7291,0.1365l0.4562-0.0791l0.4529,0.0611l0.106-0.0143v1.1459h-0.1637
		h-0.643h-0.5477l-0.4132,0.0037l-0.2549,0.0037l-0.0754,0.007v6.1505l-1.8379,0.0037l-1.7673,0.007l-1.3402,0.011l-0.8156,0.0107
		l-0.2424,0.0107v13.4219l0.352,0.007l0.9252,0.0144l0.3285,0.0037v4.6021l-3.5871,0.0287l-0.273,0.043l-0.3142,1.7246l0,0l0,0
		l-0.3109,1.7172l8.4173,2.7156l-1.9884,95.7156h-0.1402l0.0305-5.5144l-0.5982-0.0037l-3.6269,0.0971l-3.2546,0.0717
		l-4.4171,0.0611l-0.0235,5.3636l-4.8839,0.018l-11.751,0.007l0.1435-42.7653l-0.6088-1.4583l-2.7355,0.0967l-0.018,5.9997
		l-7.5661,0.4418l-3.8421-0.0287l0.0125-5.371l-0.0754-0.0681l-3.192-0.0791l-2.457-0.1365l-2.7826-0.2623l-0.3877,0.0574
		l-0.0055,3.5099l-3.5191-0.1725l0.0074-5.5144l-1.8018-0.3627l-7.0698,1.1029l-0.0125,32.4693l-5.425-0.0898v-2.5291
		l-2.5773-0.1725l-8.9904,0.5279l0.0217,23.3729l-0.5227,0.0037l-4.9148,0.1258l-1.6919,0.1689l0.0055,2.5508l-2.3515,0.0898
		l-1.9707,0.28l-0.0717-36.9308l-2.9386-0.9521l-2.7951,0.0611l0.0092,4.5591l-6.9554,0.2619l-3.9749-0.0143l-0.0144-4.0882
		l-0.1869-0.043l-3.564-0.0504l-2.865-0.0898l-3.4253-0.1725l-0.327,0.036l0.0107,2.091l-2.0439-0.0578l-0.4293,0.2336
		l0.0051,1.6381l-4.6017-0.5746l-0.0254-4.7997l-2.5472-0.2443l-5.8609,0.7328l0.061,10.9034l-5.9816-0.2266l-4.4763-0.3521
		l-0.043-6.646l-0.0684-0.4885l0.0019,0.1652l-12.2072-0.2803l0.0467,7.0091l-3.1869,0.1906l-6.5562,0.0357l-0.0324-4.0271
		l-6.5868-0.8443H2.7767L0,155.0025l0.4687,52.0019H0v0.5459v10.7669v15.7388h1002.9947v-15.7388v-10.7669v-0.5459h-1.2894
		L1001.7197,204.7159z M258.8893,207.0044l-0.0199-0.7365l-0.1832-7.0952l0.1743-1.1606l0.5691-1.0885l0.9252-0.9447l0.0268-0.0144
		l0.1961,0.6717l0.1722,1.0131l0.0754,1.1029l0.1725,6.8296l0.036,1.4226H258.8893z M262.1745,207.0044l-0.0375-1.4873
		l-0.1689-6.8042l0.0089-0.0898l0.2086,8.3813H262.1745z M263.8325,207.0044l-0.0357-1.5951l-0.1637-6.6964h1.6543l0.142,6.0534
		l0.0393,1.6238h1.1389l0.4168-0.1078l0.415-0.1041l-0.036-1.6095l-0.124-5.396l0.0055,0.0467l0.167,7.1202l0.0143,0.6647H263.8325z
		 M271.9426,207.0044l-0.1758-8.0796l1.2751-0.2119l0.1188-1.0455l0.3808-0.9808l0.6287-0.8406l0.8244-0.643l0.309-0.1295
		l0.1508,0.0217l1.0312,0.4201l0.8855,0.6754l0.6898,0.873l0.44,1.0205l0.167,1.0955l0.1365,7.0952l0.0143,0.7295H271.9426z
		 M282.5694,207.0044l-0.1475-8.0366l1.2754-0.2549l0.1203-1.0455l0.3863-0.9771l0.6287-0.841l0.8281-0.6463l0.4186-0.1725
		l0.501,0.0647l1.0238,0.4238l0.8858,0.6717l0.6861,0.8766l0.4381,1.0201l0.1637,1.0922l0.1093,7.0989l0.011,0.7258H282.5694z
		 M293.1995,207.0044l-0.1184-7.9755l1.2754-0.309l0.124-1.0488l0.3896-0.9774l0.6324-0.8406l0.8336-0.6467l0.5261-0.2226
		l0.8443,0.1148l1.0275,0.4205l0.8855,0.6754l0.6828,0.8766l0.433,1.0201l0.156,1.0922l0.0883,7.1025l0.0089,0.7185H293.1995z
		 M303.8406,207.0044l-0.0088-0.8156l-0.0772-7.0628l1.268-0.3988l0.124-1.0529l0.3969-0.9808l0.6375-0.8406l0.8336-0.6467
		l0.5514-0.2262l0.1795-0.025l1.0977,0.1435l1.0256,0.4242l0.8818,0.6754l0.6809,0.8766l0.4312,1.0164l0.1545,1.0996l0.0574,7.1022
		l0.0055,0.7115H303.8406z M317.591,207.0044l-0.0522-7.8714l0.778-0.4058l0.1148-1.0492l0.3502-0.9807l0.5625-0.8406l0.7365-0.6467
		l0.3053-0.1435l0.731-0.1115l0.9682,0.1472l0.898,0.4242l0.7762,0.6717l0.5963,0.8766l0.3771,1.0238l0.1328,1.0955l0.0305,7.8103
		H317.591z M327.3069,207.0044l-0.0268-7.8714l0.4362-0.4021l0.1151-1.0492l0.3557-0.9807l0.5658-0.8406l0.4525-0.3988l0.76-0.3594
		l0.9627-0.1435l0.9682,0.1471l0.8961,0.4205l0.7744,0.6754l0.5963,0.8763l0.3734,1.0242l0.1277,1.0918l0.0092,7.8103H327.3069z
		 M344.427,207.0044h-7.3932l-0.0055-7.8714l0.0879-0.4021l0.0953-0.8156l0.3035-0.8373l0.5945-0.8763l0.7707-0.6721l0.9016-0.4238
		l0.9646-0.1471l0.9664,0.1471l0.8983,0.4238l0.7703,0.6721l0.4889,0.7291l0.273,0.7545l0.1203,1.0488l0.1777,0.4025
		L344.427,207.0044z M358.2098,206.2176l-0.007,0.7869h-8.3511v-0.6934l0.0272-7.1095l0.149-1.0959l0.4293-1.0238l0.6791-0.8766
		l0.8799-0.6717l1.0238-0.4275l1.101-0.1438l1.0941,0.1475l0.4238,0.1758l0.7527,0.5787l0.6431,0.8406l0.3988,0.9807l0.1313,1.0488
		l0.6699,0.4061L358.2098,206.2176z M369.2784,206.2176l-0.0074,0.7869h-8.2967l0.007-0.6898l0.0504-7.1095l0.1545-1.0996
		l0.433-1.0201l0.6769-0.8803l0.8858-0.6717l1.0275-0.4201l1.0992-0.1512l0.5352,0.0754l0.4419,0.1836l0.8405,0.6464l0.6342,0.8406
		l0.3988,0.9807l0.1277,1.0529l1.0632,0.4025L369.2784,206.2176z M380.1674,207.0044h-8.0601l0.0056-0.6828l0.0791-7.1165
		l0.1564-1.0959l0.4362-1.0201l0.6828-0.8766l0.8873-0.6754l1.0308-0.4238l1.0311-0.1368l0.5857,0.2479l0.8387,0.6431l0.6342,0.8443
		l0.3933,0.9807l0.1258,1.0562l1.2791,0.3488L380.1674,207.0044z M390.8516,207.0044h-7.6128l0.0107-0.6791l0.1063-7.1169
		l0.1615-1.0955l0.4381-1.0238l0.6883-0.8766l0.8888-0.6754l1.033-0.4238l0.6861-0.0864l0.4742,0.1975l0.8354,0.6467l0.6342,0.8406
		l0.3932,0.9844l0.1203,1.0525l1.2791,0.2766L390.8516,207.0044z M400.2603,207.0044h-6.1111l0.142-7.7456l0.1762-1.1603
		l0.4687-1.0816l0.7276-0.9303l0.9466-0.7078l1.0904-0.4525l0.2928-0.0397l0.3627,0.1508l0.8748,0.6828l0.6644,0.8873l0.408,1.0381
		l0.124,1.1066L400.2603,207.0044z M402.8575,207.0044h-1.5123l0.1707-8.2124l0.0592-1.1066l0.1402-1.0205l0.0629-0.273
		l0.5261,0.5676l0.5463,1.0959l0.1707,1.1603L402.8575,207.0044z M635.9185,207.0044l-0.1221-8.4173l0.1725-1.1496l0.5533-1.0635
		l0.4815-0.4992l0.1398,0.625l0.1331,1.0418l0.0574,1.1136l0.1221,8.3493H635.9185z M638.541,207.0044l-0.0107-0.6324
		l-0.1078-7.7095l0.1295-1.1102l0.4094-1.0275l0.6647-0.8906l0.8763-0.6791l1.0274-0.4311l0.1365-0.018l0.5032,0.2086l0.9304,0.7074
		l0.7184,0.927l0.4598,1.0742l0.1652,1.1566l0.1078,7.9251l-0.1472-0.0033l0.0037,0.1365l0.1434-0.018l0.0074,0.3844H638.541z
		 M650.4756,207.0044l-0.1009-8.3419l0.1439-1.218l0.4598-1.1353l0.7365-0.9771l0.9627-0.7508l1.1279-0.4705l0.8373-0.1078
		l0.8406,0.3484l1.0201,0.7762l0.7869,1.0131l0.4996,1.1783l0.1758,1.2681l0.0897,8.4173H650.4756z M662.4098,207.0044
		l-0.0791-8.3419l0.1508-1.218l0.4598-1.1353l0.7365-0.9771l0.9664-0.7508l1.1316-0.4705l1.182-0.1545l0.952,0.3951l1.0205,0.7762
		l0.7832,1.0131l0.4955,1.1816l0.1762,1.2647l0.0648,8.4173H662.4098z M674.3444,207.0044l-0.0541-8.3419l0.1508-1.218
		l0.4598-1.1353l0.7438-0.9771l0.9664-0.7508l1.1279-0.4705l1.218-0.1582l0.6177,0.0791l0.7652,0.3197l1.0131,0.7762l0.7832,1.0131
		l0.4958,1.1816l0.1689,1.2647l0.043,8.4173H674.3444z M685.7036,207.0044l-0.032-8.3419h5.4677l0.0287,8.3419H685.7036z
		 M693.6036,207.0044l-0.0217-8.3419l0.1512-1.1963l0.4525-1.1136l0.7184-0.9594l0.9415-0.7365l1.0955-0.4598l1.1783-0.1578
		l1.182,0.1578l1.0959,0.4598l0.83,0.6504l0.6644,0.8766l0.4742,1.1603l0.1619,1.243l0.007,8.4173H693.6036z M712.7698,207.0044
		h-9.0784l-0.0037-8.3419l0.1508-1.1963l0.4528-1.1136l0.7255-0.9594l0.9451-0.7365l1.0955-0.4598l1.1783-0.1578l1.1786,0.1578
		l1.0955,0.4598l0.9447,0.7365l0.7221,0.9594l0.4529,1.1136l0.1545,1.1963L712.7698,207.0044z M722.8577,207.0044h-8.7947
		l0.011-8.4173l0.1616-1.243l0.4741-1.1603l0.7546-0.9951l0.7689-0.6l0.941-0.3918l1.1783-0.1578l1.175,0.1578l1.0992,0.4598
		l0.9377,0.7365l0.7221,0.9594l0.4488,1.1136l0.1512,1.1963L722.8577,207.0044z M730.8689,207.0044h-5.439l0.0323-8.3419h5.4497
		L730.8689,207.0044z M742.117,207.0044h-8.3669l0.0468-8.4173l0.1725-1.2647l0.4919-1.1816l0.7831-1.0131l1.0204-0.7762
		l0.8263-0.3447l0.4201-0.0541l1.2144,0.1619l1.1315,0.4668l0.9664,0.7508l0.7438,0.9771l0.4598,1.1353l0.1472,1.218
		L742.117,207.0044z M754.0479,207.0044h-7.907l0.0754-8.4173l0.1722-1.2647l0.496-1.1816l0.7868-1.0131l1.0201-0.7762l0.916-0.3808
		l1.0852,0.1438l1.1279,0.4668l0.9664,0.7508l0.7402,0.9771l0.4562,1.1353l0.1472,1.218L754.0479,207.0044z M765.9784,207.0044
		h-7.4398l0.0897-8.4173l0.1795-1.2647l0.5029-1.1816l0.7869-1.0131l1.0168-0.7762l0.8082-0.3377l0.7365,0.1008l1.1246,0.4668
		l0.9661,0.7508l0.7365,0.9771l0.4528,1.1353l0.1439,1.218L765.9784,207.0044z M776.2818,207.0044h-4.239l0.0033-0.3414h0.0074
		l0.1078-7.8353l0.0037-0.0681h1.0992l-0.1152,8.119l0.3234,0.025l0.3234,0.0324h1.225l0.1221-8.1944v-0.0684h1.261
		L776.2818,207.0044z M780.6683,207.0044h-1.6562l0.1259-8.3493l0.0574-1.1136l0.1438-1.0418l0.1578-0.7004l0.5676,0.5746
		l0.5569,1.0635l0.1762,1.1496L780.6683,207.0044z M824.8923,197.7035l0.3484-0.8553l0.5602-0.7398l0.7365-0.5676l0.8553-0.3631
		l0.4276-0.0644l0.4921-0.0684l0.923,0.1078l0.8553,0.3414l0.7365,0.5496l0.3053,0.3844l0.0898,0.6537l0.564,1.2357l0.0073,2.7414
		v5.9456h-7.0488v-0.1942h0.097l-0.0143-1.7926l-0.0504-6.4091L824.8923,197.7035z M804.2818,207.0044l-0.0214-0.8549l0,0
		l0.025,0.8549H804.2818z M805.5535,207.0044l-0.0033-0.0934l-0.1943-8.0259l0.0684-0.1939l0.4562-1.2717l0.0541-0.4959
		l0.4202-0.5639l0.7401-0.5713l0.8656-0.3697l0.934-0.1295l0.3918,0.0467l0.546,0.0611l0.8766,0.3451l0.7615,0.5529l0.5856,0.7258
		l0.3738,0.8516l0.1435,0.9086l0.1188,6.4378l0.0287,1.7857H805.5535z M813.9819,207.0008L813.9819,207.0008l1.2574-0.0217l0,0
		l-0.0037-0.2406l-0.1295-7.9899l0.0143-0.1111l0.0934-0.8049l0.3484-0.8586l0.5569-0.7365l0.7365-0.5746l0.8623-0.3631
		l0.8766-0.1255l0.05-0.0074l0.9271,0.1041l0.873,0.3451l0.7435,0.5533l0.5787,0.7221l0.3447,0.7939l0.1221,0.7652l0.011,1.2824l0,0
		v7.2714h-8.5505L813.9819,207.0008z M841.2958,207.0044h-7.0558v-0.3594l0.1295-0.0037v-1.789v-6.3804l0.1185-0.9017l0.3521-0.8513
		l0.5602-0.7328l0.7365-0.5676l0.8406-0.3631h0.011l0.9124-0.1328l0.9127,0.1078l0.8513,0.3414l0.3807,0.291l0.1796,0.4312
		l0.1078,0.8619l0.9307,1.2324l-0.0397,6.5493l-0.0107,1.5484l0.0828,0.1365V207.0044z M921.0674,155.0025v-0.0107l0.0143,0.0107
		H921.0674z M944.832,155.0025h-0.0074l0.0074-0.0681V155.0025z"/>
	<polygon   points="522.2837,68.3907 522.1185,68.387 522.2227,67.3776 522.553,67.1153 522.6751,66.8853 
		522.3268,66.2964 522.2227,66.2927 522.1579,66.1238 522.2296,65.9406 522.2296,65.7214 522.1579,65.5525 522.1579,64.9132 
		522.4632,64.773 522.7435,64.7767 522.844,64.6112 523.0956,64.3599 523.0956,64.2304 522.9268,64.2304 522.7972,64.3345 
		522.4308,64.3312 522.273,64.2665 522.2263,63.9214 522.0968,63.9214 522.0968,65.5956 521.8993,65.5919 521.8132,65.7788 
		521.8132,65.9874 521.8599,66.1021 521.5616,66.1812 521.2923,66.4005 521.3497,66.5874 521.6263,66.6484 521.5079,66.8997 
		521.5759,67.198 521.6656,68.3403 521.5759,68.3403 521.6656,68.6743 521.8419,68.6743 522.1185,68.678 	"/>
	<polygon   points="847.3204,146.3122 848.125,146.3196 848.1287,146.2332 847.3204,146.2262 847.3311,145.4393 
		847.2627,145.4393 847.2557,146.2225 846.4474,146.2188 846.4474,146.3053 847.252,146.3122 847.2377,148.0512 847.27,148.0512 
		847.3024,148.0512 	"/>
	<polygon   points="798.0452,145.8885 798.8858,145.8921 798.8825,145.8057 798.0452,145.7987 798.0239,144.9975 
		797.9518,144.9975 797.9735,145.7987 797.1329,145.7913 797.1399,145.8811 797.9772,145.8885 798.0272,147.6668 798.0632,147.6668 
		798.0993,147.6668 	"/>
</g>
</svg>
