<?xml version="1.0" encoding="utf-8"?>
<!-- Generator: Adobe Illustrator 18.1.1, SVG Export Plug-In . SVG Version: 6.00 Build 0)  -->
<svg version="1.1" id="warsaw" xmlns="http://www.w3.org/2000/svg" xmlns:xlink="http://www.w3.org/1999/xlink" x="0px" y="0px"
	 viewBox="0 0 1002.2535 236.1143" enable-background="new 0 0 1002.2535 236.1143" xml:space="preserve">
<path   d="M1001.4547,189.3797l0.7988-0.0198l-0.1973-0.0789l-0.1896-0.095l-0.179-0.1199l-0.1614-0.1397
	l-0.1504-0.1541l-0.1292-0.1753l-0.1218-0.1882l-0.0931-0.197l-0.0715-0.2094l-0.0535-0.2168l-0.0287-0.2186l-0.0143-0.2219
	l-0.5125-5.8154l-0.0286-0.2435l-0.0609-0.2399l-0.0825-0.2256l-0.1075-0.2204l-0.1251-0.2025l-0.1508-0.1878l-0.1647-0.1665
	l-0.179-0.1504l-0.197-0.1236l-0.2043-0.1023l-0.2149-0.077l-0.2255-0.0484l-1.5369-0.1522l0.011-2.3515h0.007l0.4479-0.0268
	l-0.0895-0.0018l-0.0862-0.0213l-0.0752-0.0323l-0.0785-0.0429l-0.0646-0.0558l-0.0609-0.0664l-0.0466-0.0752l-0.0429-0.0785
	l-0.0286-0.088l-0.018-0.0913v-0.0932l0.0033-0.0913l-0.0212-0.1915l-0.043-0.1882l-0.0466-0.1845l-0.0645-0.179l-0.0859-0.172
	l-0.0899-0.1647l-0.1001-0.1541l-0.1181-0.1467l-0.1255-0.1346l-0.136-0.1218l-0.1434-0.1108l-0.1504-0.095v-0.2472h0.054
	l0.0895-0.0125l0.0715-0.0286l0.0535-0.0539l0.0359-0.0715l0.018-0.077l-0.0143-0.0807l-0.0396-0.0715l-0.0535-0.0521
	l-0.0715-0.0286l-0.1434-0.0033v-0.2509l-0.1899-0.0018v-0.4801h-0.0499h-0.0645l-0.0107,0.0018l-0.0073,0.4801l-0.1287,0.0037
	l-0.0609,0.0051v0.2454h-0.0608l-0.0826,0.011l-0.0715,0.0304l-0.054,0.0536l-0.0359,0.0715l-0.0176,0.0807l0.0176,0.077
	l0.0359,0.0715l0.054,0.0502l0.0641,0.0304l0.1508,0.0037l-0.0073,0.2491l-0.1467,0.0983l-0.1508,0.1148l-0.1324,0.1251
	l-0.1254,0.1364l-0.118,0.1485l-0.1002,0.1559l-0.0968,0.1665l-0.0752,0.1716l-0.0682,0.1794l-0.0535,0.1845l-0.0396,0.1878
	l-0.0249,0.1918l0.0073,0.0913l-0.0073,0.0932l-0.018,0.0895l-0.025,0.0858l-0.0396,0.0807l-0.0499,0.0752l-0.0573,0.0645
	l-0.0719,0.0572l-0.0715,0.0448l-0.0789,0.0323l-0.0825,0.0216l-0.0822,0.0051l0.4442,0.0073l-0.011,2.3441l-1.5078,0.1559
	l-0.215,0.0466l-0.2076,0.0752l-0.197,0.0987l-0.19,0.1254l-0.1721,0.143l-0.161,0.1632l-0.1434,0.1845l-0.1254,0.2003
	l-0.1038,0.2116l-0.0822,0.2237l-0.054,0.2329l-0.0356,0.2381l-0.5373,5.6595l-0.0037,0.2168l-0.0323,0.2113l-0.0535,0.2094
	l-0.072,0.1988l-0.0931,0.1918l-0.1075,0.1753l-0.0176,0.0268l-3.6646-5.0664l-0.1504-0.018l-0.197-2.2744l-0.025-0.1757
	l-0.0396-0.1716l-0.0535-0.1651l-0.0789-0.1573l-0.0895-0.1489l-0.1005-0.1379l-0.1181-0.1218l-0.1254-0.1075l-0.1398-0.0895
	l-0.143-0.0734l-0.147-0.0536l-0.1541-0.0359l-1.0817-0.1148v-1.7103h0.0862l0.2292-0.0107l-0.0502-0.0073l-0.0609-0.0106
	l-0.0609-0.0268l-0.0466-0.0304l-0.0466-0.0411l-0.0502-0.0484l-0.0286-0.0503l-0.0286-0.0627l-0.018-0.0627l-0.0143-0.066
	l-0.0037-0.0646l0.0037-0.0701l-0.018-0.1361l-0.0212-0.1379l-0.043-0.1342l-0.0433-0.1306l-0.0573-0.1254l-0.0679-0.1181
	l-0.0719-0.1148l-0.0822-0.1056l-0.0825-0.0987l-0.0968-0.0877l-0.1002-0.0807l-0.1075-0.0697v-0.179h0.0107l0.0429-0.0037
	l0.0466-0.0055l0.0502-0.0213l0.0392-0.0396l0.0253-0.0499l0.0106-0.0594l-0.0106-0.0572l-0.0253-0.0499l-0.0392-0.0396
	l-0.0502-0.0198h-0.0535h-0.0466v-0.186l-0.136-0.0018l0.0037-0.3492h-0.0396h-0.043h-0.0106v0.351h-0.1075l-0.0253,0.007v0.179
	h-0.0176h-0.0396l-0.0503,0.0055l-0.0466,0.0216l-0.0356,0.0374l-0.0286,0.0521l-0.0074,0.0591l0.0074,0.0591l0.0212,0.0484
	l0.0429,0.0374l0.0466,0.0217l0.054,0.0037h0.0466v0.1808l-0.1074,0.0715l-0.1005,0.0844l-0.0928,0.0895l-0.0898,0.1001
	l-0.0858,0.1075l-0.0715,0.113l-0.0646,0.1199l-0.0539,0.1273l-0.0466,0.1287l-0.0356,0.1346l-0.0323,0.1375l-0.0143,0.1364
	l0.0037,0.0679l-0.0037,0.0664l-0.0143,0.066l-0.0179,0.0609l-0.0286,0.0609l-0.0359,0.0539l-0.0429,0.0466l-0.0466,0.0429
	l-0.0465,0.0323l-0.061,0.0231l-0.0535,0.0128l-0.0609,0.0051l0.3114,0.0037l-0.007,1.7103l-1.0604,0.1111l-0.1541,0.0359
	l-0.1434,0.0536l-0.1431,0.0734l-0.1324,0.0895l-0.1254,0.1042l-0.1111,0.1232l-0.1038,0.1309l-0.0895,0.1449l-0.0719,0.1559
	l-0.0572,0.1632l-0.0359,0.1698l-0.025,0.1738l-0.1467,1.6296l-1.3541-0.1251l-9.8287-0.0055l-1.2284-2.1222l-0.2938-0.0125
	h-19.0486l-0.007,0.0088l-1.0853,2.1134l-14.8398-0.0055l-2.0811,0.351l-0.1541-1.8446l-0.025-0.172l-0.0428-0.1684l-0.0466-0.1629
	l-0.0719-0.1522l-0.0822-0.1452l-0.0969-0.1324l-0.1074-0.1163l-0.1181-0.1075l-0.1255-0.088l-0.136-0.0715l-0.1434-0.0536
	l-0.1431-0.0359l-1.0138-0.1075v-1.696h0.2974l-0.0538-0.0055l-0.0536-0.0161l-0.0539-0.0231l-0.0535-0.0323l-0.0396-0.0429
	l-0.0429-0.0447l-0.0286-0.0539l-0.0322-0.0591l-0.018-0.0627l-0.0107-0.0627v-0.0679v-0.0664l-0.0106-0.1361l-0.0323-0.1379
	l-0.0359-0.1306l-0.0392-0.1273l-0.054-0.1254l-0.0609-0.1199l-0.0715-0.113l-0.0751-0.1038l-0.0862-0.0983l-0.0895-0.0899
	l-0.0931-0.084l-0.1075-0.0682v-0.1845h0.0466h0.0539l0.043-0.0213l0.0392-0.0359l0.0253-0.0502l0.007-0.0572l-0.007-0.0591
	l-0.0253-0.0502l-0.0392-0.0392l-0.043-0.0217l-0.0286-0.0051h-0.0502l-0.0217-0.0037v-0.1757l-0.0176-0.0033h-0.1147v-0.3477
	v-0.0033h-0.043h-0.0396v0.351h-0.1251v0.179l-0.0502,0.0037h-0.0502l-0.043,0.0213l-0.0429,0.0378l-0.0216,0.0517l-0.007,0.0558
	l0.007,0.0572l0.0216,0.0502l0.0429,0.0392l0.043,0.0198l0.0286,0.007h0.0466h0.0253v0.1812l-0.1005,0.0679l-0.1038,0.0807
	l-0.0895,0.0877l-0.0825,0.0987l-0.0789,0.1038l-0.0715,0.113l-0.0573,0.1163l-0.0539,0.1254l-0.0499,0.1306l-0.0359,0.131
	l-0.0217,0.1342l-0.0176,0.1379l0.0033,0.0678v0.0664l-0.0107,0.0646l-0.0179,0.0627l-0.0286,0.0591l-0.0359,0.0517l-0.0356,0.0502
	l-0.0466,0.0396l-0.0502,0.0286l-0.0535,0.0249l-0.0576,0.0143l-0.0535,0.0037l0.1467,0.0143h0.1504l0.0073,1.696l-1.0281,0.1075
	l-0.1467,0.0359l-0.1434,0.0536l-0.1361,0.0734l-0.1324,0.0895l-0.1184,0.1075l-0.1145,0.1199l-0.0969,0.1328l-0.0894,0.1467
	l-0.0646,0.1577l-0.0609,0.1647l-0.0356,0.1702l-0.0217,0.172l-0.2684,3.1375l-0.233-2.679l-0.0286-0.2347l-0.0539-0.2274
	l-0.0789-0.2223l-0.0964-0.2094l-0.1111-0.197l-0.1324-0.1808l-0.1541-0.1614l-0.1614-0.1431l-0.179-0.1218l-0.1827-0.0987
	l-0.197-0.0752l-0.2043-0.0466l-1.4077-0.1504l-0.0034-2.321h0.4152l-0.0822-0.0088l-0.0715-0.018l-0.0789-0.0359l-0.0645-0.0448
	l-0.0646-0.0535l-0.0535-0.0646l-0.0503-0.0719l-0.0359-0.0803l-0.0213-0.0862l-0.0179-0.0895l-0.0074-0.0895l0.0074-0.0895
	l-0.0253-0.1918l-0.0356-0.1845l-0.0466-0.1808l-0.0609-0.1772l-0.0789-0.1684l-0.0825-0.1647l-0.0965-0.1541l-0.1038-0.1471
	l-0.1221-0.1342l-0.1251-0.1218l-0.1361-0.1126l-0.1434-0.0987v-0.2472l0.0646-0.0037h0.0679l0.0645-0.0268l0.054-0.0502
	l0.0356-0.0697l0.011-0.0807l-0.011-0.0789l-0.0356-0.0697l-0.054-0.0536l-0.0645-0.029l-0.0536-0.0088l-0.0609-0.0037l0,0h-0.018
	v-0.2417l-0.0359-0.0055h-0.143v-0.4761h-0.011l-0.0609-0.0037l-0.0535,0.0037v0.4728l-0.179,0.0033v0.2472l-0.1292,0.0037
	l-0.0679,0.0268l-0.0539,0.0539l-0.0323,0.0679l-0.0143,0.077l0.0143,0.0807l0.0323,0.0682l0.0539,0.0535l0.0679,0.0304
	l0.0539,0.0088l0.0573,0.0037h0.018v0.2399l-0.1361,0.0968l-0.1365,0.1093l-0.1324,0.1199l-0.1111,0.1342l-0.1074,0.1434
	l-0.1039,0.1504l-0.0822,0.1647l-0.0789,0.1702l-0.0576,0.1757l-0.0499,0.1808l-0.0322,0.1882l-0.025,0.1878l0.0033,0.0932
	l-0.0033,0.0895l-0.011,0.0895l-0.0323,0.0862l-0.0356,0.0807l-0.0466,0.0715l-0.0539,0.0645l-0.0646,0.0536l-0.0715,0.0447
	l-0.0715,0.0304l-0.0789,0.0217l-0.0825,0.0051l0.2868,0.0235h0.1361v2.3192l-1.433,0.1486l-0.2076,0.0502l-0.2006,0.0752
	l-0.1933,0.0987l-0.1827,0.1254l-0.1683,0.1449l-0.1541,0.1647l-0.1361,0.1882l-0.1217,0.1988l-0.1006,0.2149l-0.0751,0.2237
	l-0.0573,0.2347l-0.0286,0.2381l-0.387,4.5401v-3.0157h-0.0106l-0.1254-2.8639l-0.358-2.6361l-0.566-2.2315l-0.7452-1.6693
	l-0.8594-0.9977l-0.928-0.256l-2.6111-0.0429v-6.3006l-1.0673-0.0987v-2.5715l0.3437-0.2582l0.2868-0.322l0.2219-0.3671
	l0.147-0.4031l0.0715-0.4225l-0.0106-0.428l-0.0898-0.4174l-0.1717-0.3939l-0.2402-0.351l-0.3044-0.3081l-0.351-0.2384
	l-0.3975-0.1698l-0.197-0.0987l-0.197-0.1075l-0.1896-0.1163l-0.1793-0.1236l-0.179-0.1328l-0.1757-0.1431l-0.1574-0.1485
	l-0.1614-0.1577l-0.143-0.1614l-0.1434-0.1698l-0.1324-0.1775l-0.1254-0.1826l-0.5766-2.3603l-0.0286-0.0055l-0.061-0.0073
	l-0.0825-0.0018h-0.0216v-0.5461l-0.0143-0.0018l-0.0356-0.007h-0.0539l-0.0679-0.0037h-0.0756h-0.0858h-0.0752h-0.0715
	l-0.0682,0.0037l-0.0392,0.0037l-0.0253,0.0033l-0.0034,0.0055v0.5425l-0.0682,0.0018l-0.0751,0.0037l-0.043,0.0055l-0.0073,0.007
	l-0.5766,2.3625l-0.1254,0.1827l-0.1324,0.179l-0.1434,0.172l-0.1467,0.1647l-0.1577,0.1577l-0.1647,0.1522l-0.1684,0.1397
	l-0.1609,0.1199l-0.1614,0.1126l-0.1827,0.113l-0.1933,0.1075l-0.1936,0.095l-0.394,0.1702l-0.3474,0.238l-0.0571,0.0448
	l-0.3044,0.3044l-0.244,0.3547l-0.1683,0.3958l-0.0965,0.4174l-0.0106,0.4299l0.0715,0.4225l0.1504,0.3994l0.2255,0.3672
	l0.2865,0.3187l0.3367,0.2597v2.529l-1.0637,0.1412v2.69l-1.6693-0.0231v-1.2518l-1.0673-0.0987v-2.5719l0.3404-0.2597
	l0.2864-0.3187l0.2256-0.369l0.1471-0.4027l0.0715-0.4229l-0.0106-0.4295l-0.0968-0.4174l-0.1647-0.3921l-0.2436-0.3528
	l-0.3011-0.303l-0.358-0.2417l-0.3976-0.1735l-0.197-0.095l-0.1899-0.1075l-0.1897-0.1166l-0.1863-0.1251l-0.179-0.1309
	l-0.1721-0.1431l-0.1614-0.1489l-0.1541-0.1559l-0.1504-0.1629l-0.143-0.1735l-0.1291-0.1757l-0.1255-0.1845l-0.2578-1.0424
	l0.0429-5.3404l-1.2214-0.1111v-6.0461l0.1218-0.0433l0.6734-0.7358l0.5447-0.8366l0.3939-0.9133l0.233-0.9654l0.0641-0.9922
	l-0.1002-0.9885l-0.2615-0.9599l-0.4262-0.9008l-0.5696-0.8187l-0.6946-0.7127l-0.8096-0.5839l-0.892-0.4478l-0.6448-0.2703
	l-0.6375-0.2989l-0.6199-0.3242l-0.6088-0.3528l-0.5909-0.3745l-0.5766-0.4027l-0.5553-0.4229l-0.541-0.4493l-0.5157-0.4691
	l-0.4977-0.4908l-0.4765-0.5124l-0.4585-0.5337l-0.179-0.197l-0.1683-0.2094l-0.1541-0.2204l-0.1398-0.2292l-0.1181-0.2417
	l-0.0931-0.2472l-0.0862-0.256l-0.0642-0.2597l-0.0433-0.2652l-0.0213-0.2648l-0.0073-0.2688l0.011-0.2685l-0.0179-0.0055
	l-0.0466-0.0055l-0.0825-0.0033h-0.025v-0.6771l-0.0106-0.0018l-0.0323-0.0037l-0.0576-0.0037l-0.0715-0.0015l-0.1754-0.0037
	h-0.0861l-0.0859,0.0037l-0.0718,0.0015l-0.0536,0.0037l-0.0359,0.0037l-0.0107,0.0018v0.6771h-0.0179l-0.0895,0.0033
	l-0.0466,0.0055l-0.0179,0.0055l0.011,0.2685l-0.0073,0.2688l-0.0217,0.2648l-0.0429,0.2634l-0.0645,0.2615l-0.0822,0.2523
	l-0.0969,0.2509l-0.1181,0.2417l-0.1398,0.2292l-0.154,0.2204l-0.1684,0.2094l-0.1753,0.197l-0.4622,0.53l-0.4764,0.5124
	l-0.4944,0.4926l-0.5226,0.4709l-0.5374,0.4493l-0.5553,0.4229l-0.5766,0.3994l-0.5909,0.3759l-0.6093,0.351l-0.6195,0.3261
	l-0.6375,0.3008l-0.6448,0.2703l-0.892,0.4405l-0.8132,0.5876l-0.6946,0.7127l-0.566,0.8205l-0.4225,0.899l-0.2653,0.9562
	l-0.1005,0.9907l0.0646,0.9922l0.2328,0.9687l0.394,0.9118l0.541,0.8381l0.6735,0.7361l0.1288,0.0447v6.0549l-1.2251,0.1614
	l-0.0033,4.4201l-0.1397,0.5604l-0.1218,0.1808l-0.1328,0.179l-0.143,0.172l-0.1434,0.1647l-0.161,0.1577l-0.1614,0.1485
	l-0.1717,0.1434l-0.1541,0.1199l-0.1683,0.113l-0.1863,0.1126l-0.19,0.1075l-0.197,0.095l-0.387,0.1684l-0.351,0.2399
	l-0.0609,0.0448l-0.3044,0.3048l-0.2362,0.3543l-0.172,0.3958l-0.0895,0.4174l-0.0143,0.4299l0.0715,0.4225l0.1504,0.3994
	l0.2186,0.3672l0.2865,0.3187l0.3477,0.2597v2.5308l-1.0677,0.1397v5.5696l-1.5148-0.0213v-4.1535l-1.071-0.0983v-2.5719
	l0.3437-0.2597l0.2864-0.3224l0.226-0.3653l0.1504-0.4031l0.0645-0.4225l-0.011-0.4262l-0.0895-0.4207l-0.1684-0.3943
	l-0.2362-0.3547l-0.3044-0.3026l-0.3584-0.2399l-0.3976-0.1684l-0.197-0.0987l-0.197-0.1075l-0.1863-0.1163l-0.1826-0.1254
	l-0.179-0.1306l-0.1757-0.1434l-0.1577-0.1486l-0.1573-0.1559l-0.147-0.1628l-0.1431-0.1702l-0.1328-0.179l-0.1251-0.1827
	l-0.5769-2.3606l-0.0323-0.0055l-0.0536-0.0051l-0.0895-0.0037l-0.0179-0.0037v-0.5406l-0.018-0.0037l-0.0323-0.0037l-0.0571-0.0018
	l-0.0646-0.0037h-0.0789h-0.0822h-0.0751h-0.072l-0.0609,0.0037l-0.0466,0.0018l-0.0249,0.0037l-0.007,0.0037v0.5406l-0.0646,0.0073
	l-0.0719,0.0018l-0.0429,0.007l-0.0106,0.0055l-0.5766,2.3603l-0.1254,0.1882l-0.1324,0.1757l-0.1433,0.1735l-0.1467,0.1632
	l-0.1577,0.1573l-0.1614,0.1489l-0.1718,0.143l-0.1541,0.1199l-0.1683,0.113l-0.1827,0.113l-0.1937,0.1075l-0.1932,0.0965
	l-0.3903,0.1665l-0.351,0.2417l-0.0609,0.0451l-0.3011,0.3026l-0.2472,0.3547l-0.1647,0.3939l-0.0895,0.4207l-0.0106,0.428
	l0.0642,0.4244l0.1541,0.3976l0.2222,0.3671l0.2865,0.3191l0.3441,0.256v2.5341l-1.071,0.1398v3.9902l-2.2601-0.0359l-0.9243,0.5014
	l-0.863,1.2269l-0.7416,1.8662l-0.5729,2.3782l-0.351,2.7329l-0.1255,2.8943l0,0v9.0336l-0.0286-0.018l-0.541-0.4137l-0.4835-0.4424
	l-0.4229-0.4621l-0.3653-0.4798l-0.2971-0.4962l-0.2329-0.5102l0.0609-0.1471l0.0895-0.1397l0.1111-0.1342l0.1324-0.1254
	l0.1614-0.1144l0.179-0.1056l0.1896-0.0895l0.215-0.0807l0.2259-0.0627l0.2325-0.0466l0.2403-0.0304l0.2505-0.018l-0.1398-0.417
	l-0.2003-0.4104l-0.2582-0.3976l-0.3224-0.3815l-0.3759-0.3598l-0.4262-0.3367l-0.4835-0.3136l-0.5267-0.2791l-0.5586-0.2509
	l-0.6019-0.2186l-0.6268-0.1845l-0.6485-0.1431l0.1075-2.0221l-3.6785-0.1826l-3.546,0.0752l-0.0969,1.9971l-0.6481,0.1232
	l-0.6268,0.1614l-0.5946,0.197l-0.5659,0.2292l-0.5337,0.2597l-0.4871,0.2883l-0.4409,0.3169l-0.3939,0.3367l-0.34,0.3583
	l-0.2869,0.3778l-0.2256,0.3906l-0.1683,0.4027l0.2292,0.0235l0.2256,0.0411l0.2223,0.0539l0.2006,0.0715l0.197,0.084l0.179,0.095
	l0.1541,0.1093l0.1434,0.1199l0.1181,0.1254l0.0968,0.1379l0.0642,0.1361l0.0502,0.1467l-0.2758,0.4856l-0.326,0.4709
	l-0.1218,0.1431l-0.2722-0.0249l-2.2781-0.1628l-2.3712-0.1471l-2.4572-0.1342l-2.5216-0.1218l-2.5862-0.1075l-2.6324-0.0913
	l-2.6721-0.0789l-2.701-0.0627l-2.7186-0.0447l-2.7292-0.0338l-0.9635-0.0073l0.0466-2.4677l0.369-0.3657l0.007-0.2989h0.7989
	l0.0037-0.3903l-3.8076-1.963h-0.2938l-0.2615-0.1342h-1.1965l-9.3593-6.1198l-0.4695-0.2025h-1.6046l0.0179-4.572h-5.935
	l-0.0073-3.129h-0.007h-0.011l-0.0286-0.0033h-0.0143v-0.4086v-0.0018h-0.0107h-0.0179l-0.018-0.0033l-0.007-5.4482h-0.0037l0,0
	l-0.0143-0.0037h-0.0037h-0.0143h-0.0179h-0.0106h-0.0107h-0.0146l-0.0033,0.0037h-0.0073l0,0v0.1485l-0.2795,0.1023l-0.2934,0.1254
	l-0.3405,0.0143l-0.1467,0.0591l-0.1507,0.0249l-0.2791,0.0591l-0.2795,0.1023l-0.1254,0.0767l-0.1324,0.018h-0.0752l-0.0503,0.0271
	l-0.1434,0.0447l-0.1537,0.0231l-0.1254,0.0664l-0.2509,0.095l-0.136,0.077l-0.025,0.0697v0.0502l0.007,0.1218l0.0253,0.0752v0.0268
	l0.0212,0.0106l0.1075,0.1218l0.0715,0.1203v0.1287l0.0073,0.0286v0.0268l0.0037,0.0304l-0.0037,0.029v0.0304l-0.0073,0.0268
	l-0.0106,0.0268l-0.007,0.0304l-0.011,0.0268l-0.0106,0.0235l-0.018,0.0268l-0.0143,0.0216l-0.0037,0.0627l0.011,0.0106
	l0.007,0.0088l0.0037,0.0161l0.007,0.0143v0.0125l0.0073,0.0143v0.0147l-0.0073,0.0158v0.0147l-0.007,0.0106l-0.0037,0.0125
	l-0.0143,0.0125l0.0359,0.1093h0.172l0.1754-0.1702l0.1827-0.0822l0.1614-0.0664l0.1609-0.077l0.3474-0.0216l0.2509-0.0051
	l0.0645-0.0271l0.179-0.0536l0.1467-0.0825l0.0969-0.0088l0.0645,0.0323l0.018-0.0037l0.0143,0.0125l0.0176-0.0088h0.0179
	l0.0825,0.0055l0.0646,0.0088l0.0322,0.0055l0.0286,0.0213h0.025l0.1541,0.0217l0.1434,0.0447l0.1896,0.0286l0.0106,3.428
	l-0.0213,0.0033h-0.0143h-0.0106l-0.0073,0.0018v0.4086h-0.0107l-0.0253,0.0033h-0.0107h-0.007l0.007,3.129h-6.0248l0.0286,4.572
	h-1.4074l-0.6913,0.2025l-9.4777,6.1216h-0.6914l-0.2971,0.1342h-0.2402l-4.4091,1.9645l0.0106,0.387h0.8132l0.0037,0.3008
	l0.376,0.3672l0.0539,2.4681l-0.7666,0.0051l-2.7366,0.0359l-2.7296,0.0484l-2.7186,0.0627l-2.6901,0.077l-2.6577,0.095
	l-2.6038,0.1038l-2.5576,0.1236l-2.4857,0.1342l-2.4072,0.1485l-2.285,0.1614l-0.1721-0.1794l-0.3939-0.5102l-0.3403-0.5337
	l-0.2722-0.548l0.0392-0.1632l0.0715-0.1559l0.0899-0.1522l0.1218-0.1431l0.136-0.1328l0.161-0.1199l0.179-0.1108l0.1974-0.0913
	l0.2075-0.0789l0.215-0.0609l0.2329-0.0447l0.2256-0.0271l-0.1721-0.453l-0.2329-0.4423l-0.2934-0.4262l-0.344-0.4049
	l-0.4013-0.3815l-0.4475-0.358l-0.4944-0.3242l-0.5336-0.2956l-0.5732-0.2597l-0.6016-0.2219l-0.6342-0.1863l-0.6554-0.1416
	l-0.1111-2.251l-3.5245-0.0594l-3.7679,0.1452l0.1251,2.2832l-0.6555,0.1614l-0.6301,0.2025l-0.6019,0.2454l-0.5589,0.2791
	l-0.5264,0.3173l-0.4835,0.3474l-0.4229,0.3796l-0.3796,0.4013l-0.3187,0.4299l-0.2542,0.4456l-0.2043,0.4603l-0.1292,0.4713
	l0.2509,0.0194l0.2435,0.0359l0.2329,0.0535l0.2329,0.0752l0.2076,0.0862l0.197,0.1038l0.1827,0.1163l0.1614,0.131l0.1394,0.1434
	l0.1111,0.1504l0.0895,0.1592l0.0609,0.1614l-0.2256,0.5729l-0.2938,0.5608l-0.3653,0.5388l-0.4156,0.5175l-0.4834,0.4963
	l-0.541,0.464l-0.5978,0.435l-0.6412,0.4031l-0.6914,0.3653l-0.7343,0.3312l-0.7739,0.2865l-0.8058,0.2472l0.0967,1.4239
	l0.738,11.2614l-78.8232-42.6281v-1.3986h-3.4708v1.3986l-80.0549,43.2928l-0.5374-11.7844l-9.3417-1.2643l-0.1254-2.8855
	l-0.2828-6.5798l-6.469-0.5157l-29.3678-0.0092l-0.0826-2.2942l-4.0654-0.3275l-37.2372-0.0073l0.0176,0.6896l-21.7257-0.007
	l0.0844,4.0545l0.0821,4.5419h-2.8727l-0.0231-1.1785l-0.1614-0.0536l-0.7809-42.4598l-0.102-5.6309l-14.6212,0.0128
	l-0.8455-57.4268l-0.0789-5.5913l-9.8537,0.0198l-0.1845,0.4082l-1.1425,0.0018l-0.2043-17.0838l-0.0268-2.8584l-3.9492,0.0106
	l-0.1287-11.6088l-2.8316-3.3311l-1.4774-43.9999V0.0176l-0.0056-0.0051l-0.0161-0.0037l-0.0143-0.0055L403.5283,0h-0.0213h-0.0235
	l-0.0179,0.0033l-0.018,0.0055l-0.0143,0.0055l-0.0088,0.0051l-0.0037,0.0073l-0.369,43.5092l-2.8136,3.845l-0.3939,1.7034
	l0.0895,9.9021l-3.0784,0.007l-0.6771,3.1683l0.0235,2.6218l0.1075,13.6649l-8.4551,0.018l-0.2436,1.4239l0.0143,2.5899h-0.5124
	l-0.2381,1.3824l0.0323,5.5913l0.2865,51.9947l-12.646,0.0073l-0.0822,0.9331v1.1532l-0.1255,0.0037l-0.0664,0.7325l0.0128,5.8994
	l0.0946,40.5881l-2.953-0.0037l-0.0128-6.8574l-0.0088-6.0497h-14.7107l-0.4174,0.1845l-0.0107,6.2181l-0.0161,6.4994l-5.767-0.0037
	l0.0055-1.3736h-0.1937l0.0217-5.2296l0.0216-6.2361h-6.308l-0.8487,0.2094l-0.0359,6.4261l-0.0231,4.667h-2.6669l0.0143-2.7597
	l0.0286-5.0074l-36.8234-0.0092l-2.1189,0.3224l-0.0393,2.3335l-14.6355-0.007l-3.3473,0.5139l-0.1309,6.5442l-0.0517,2.5682
	l-3.3348-0.0018l-0.0198-3.8505l-0.0161-2.9926l-1.0369-0.0037l-0.077-15.3324l0.1757-0.2039l-9.2272-8.9961l-7.7813,8.9441
	l-0.6969,2.3085h0.1416l-0.0198,0.0682l0.0092,13.1973h-0.2186l-0.0734,0.179l-0.0037-3.5996h-0.0447l-0.0037-3.6965l-1.3432-0.0018
	l-0.0055-9.5349l-1.1693-3.3025l-1.1374,3.2486l-2.1974-0.0033l0.0073-7.4146l-0.011-0.208l-0.8183-3.1268l-0.9903,2.7509
	l-2.2711-0.0037l0.0125-7.1494l-0.0305-0.2509l-1.0549-2.8815l-1.1048,2.8639l-2.5359-0.0018l0.0194-7.3357l-0.0536-0.2883
	l-0.4871-2.1868l-0.9151,2.4479l-2.7868-0.0051l0.0268-7.0386l-0.5839-2.5378l-0.0803-0.3418l-1.0622,2.2583l-2.5037-0.0055
	l0.0359-7.1637l-0.0986-0.3672l-0.7773-1.7371l-0.8847,1.2929l-0.0092,1.6208l-1.2482-1.6245l-0.9599,1.4044l0.0018-0.6342
	l-0.1181-0.3708l-1.0442-2.0595l-0.9082,3.2435l-0.048,7.2568l-1.9704-0.0037l0.0092-1.1319l-0.1434-0.3312l-1.0387-1.8985
	l-0.9672,2.4912l-0.0624,8.5483l-2.3034-0.0055l0.0092-0.9815l-1.064-2.2025l-0.1735-0.303l-0.7504,2.2227l-0.0719,8.2134
	l-2.4641-0.0055l-0.8832-2.9856l-0.1951-0.2666l-1.1084,4.2569l-0.0664,6.9256l-2.0632-0.0018l-0.8792-2.6199l-0.2204-0.2241
	l-1.0208,4.2767l-0.0715,6.7984h-2.2693l0.0125-1.0853l-0.8579-2.9442l-0.2454-0.1845l-0.9294,4.2107l-0.0895,7.6097l-1.2573,1.517
	l-0.0356,2.9497h-0.713l-0.0642,5.362l-1.166,1.5258l-4.9986-2.4446l0.1218-6.9829l-5.1401-11.5893l-12.3144-0.161l0.1397-10.8855
	l-3.469-3.5784l0.0143-1.1873l1.9289-0.9529l-3.1019-2.8459l0.6338-0.7431l1.2735-1.3468l0.0198-1.714l-1.8592-2.226l-1.2427-1.1623
	l-0.9188-2.2675l-0.3925-11.5013l-0.179-0.0286l-0.2186-0.0073l-0.3778,0.0216l-0.0734,0.0194l-0.6448,11.5017l-0.9617,2.2708
	l-1.268,1.1697l-1.9036,2.2315l-0.0143,1.7103l1.239,1.345l0.6162,0.738l-3.1555,2.8492l1.9036,0.9492l-0.0106,1.1854
	l-3.2075,3.1254l-3.6752-3.6858l0.0125-1.2878l2.0866-1.0369l-3.3777-3.0927l0.6859-0.8113l1.3736-1.4668l0.0161-1.8629
	l-2.0272-2.4193l-1.3524-1.2643l-1.0083-2.4663l-0.4765-12.5114l-0.2113-0.0396l-0.2417-0.0051l-0.3995,0.0231l-0.0715,0.0231
	l-0.643,12.5154l-1.0387,2.4732l-1.3666,1.2698l-2.054,2.4267l-0.0128,1.8625l1.3505,1.4594l0.6771,0.8044l-3.41,3.1001
	l2.065,1.0281l-0.0055,1.2874l-4.035,3.8509l-0.0216,5.088l-6.0244-5.7849l-14.3024,0.0913l-9.9971,9.5617l-12.9523-0.1342
	l-4.3035-3.7555l-1.7463-0.0088l-8.1309,7.2781l0.0396,3.9635l-4.1051,4.7568l-2.142-2.4556l-0.0789,0.018l-0.0161,0.0018
	l-0.0157,0.0037l0.0088,0.0143l0.0037,0.0037l0,0v0.0033l-0.0037-0.007l-7.2891,9.8412l-17.0445-0.0055v-0.048l-10.124-14.6571
	l-0.2116-0.1166l-6.6942,9.7106l-0.7292,0.0037l0.011,1.0387l-0.749,1.0853l-0.0088-0.0128l-0.1753-0.1808l-0.1937-0.1647
	l-0.2076-0.1434l-0.2241-0.1218l-0.3939,0.077l-0.2256,0.1291l-0.2113,0.1522l-0.1951,0.1753l-0.018,0.018l-0.0539-4.1924
	l-0.0374-0.0932l-1.9289-0.0125l0.059,4.2657l-0.0268-0.1251l-0.0862-0.3404l-0.1251-0.3279l-0.154-0.3151l-0.1882-0.2956
	l-0.2186-0.2777l-0.2435-0.2523l-0.2722-0.2274l-0.2883-0.1988l-0.3099-0.1665l-0.3132,0.1716l-0.2883,0.2061l-0.2689,0.2347
	l-0.2417,0.263l-0.1882,0.2509l-0.007-0.5696l-0.1522-0.0484h-0.4068l-0.0374-2.4156l-0.1056-0.0968l-1.9451-0.0106l0.0715,4.1513
	l-0.0393-0.0268l-0.0216-0.0125l-0.0106-0.0323l-0.1559-0.3099l-0.1933-0.3136l-0.19-0.2971l-0.2219-0.2777l-0.2472-0.256
	l-0.2703-0.2274l-0.292-0.1988l-0.3136-0.1702l-0.3132,0.1753l-0.292,0.2061l-0.1129,0.0983l-0.5891-0.0033l-0.1416,0.0447
	l0.0161,0.8201l-0.0789,0.1342l-0.1485,0.3242l-0.113,0.3404l-0.0124,0.0411l-0.077-4.0941l-0.1702-0.0968l-1.9608-0.0106
	l0.0803,3.9418l-0.0803-0.1577l-0.0826-0.1342l-0.1056-0.161l-0.0359-0.0466l-0.0231-1.0442l-1.0585-0.0106l-0.2615-0.1827
	l-0.3169-0.1665l-0.3118,0.1753l-0.2953,0.2061l-0.2707,0.238l-0.2417,0.2615l-0.2149,0.2901l-0.1827,0.3063l-0.1485,0.3279
	l-0.0503,0.1522l-0.1126,0.0752l-0.0899-3.958l-0.102-0.0899l-2.0738-0.0088l0.0572,2.3247l-0.3635,0.0268l0.0018,0.1702
	l-0.1937-0.1075l-1.2159-0.3492l-0.3044,0.179l-0.2795,0.2098l-0.179,0.1592l-0.0092-0.3455l-0.6411-0.0143l-0.0499-2.0918
	l-0.5161-0.0932l-1.97,0.0088l0.0627,2.3284l-0.8469-0.1471v-0.0858l-0.6199-0.0198l-0.2938-0.0517l-0.0624,0.0392l-0.2545-0.0055
	l-0.5927,0.018l-0.0572-1.9341l-0.8847-0.088l-1.7859,0.0253l0.0576,1.868l-0.3154-0.0128l-1.1532,0.0253l0.0051,0.1416
	l-0.0447-0.0055l-0.2417,0.179l-0.1218,0.113l-0.0679-2.1457l-1.2144-0.084l-1.5222,0.0429l0.0536,1.6065l-0.2256,0.0018
	l0.018,0.4654l-0.6536-0.066l-0.0147-0.5179H7.558l-0.0447-1.3179l-1.4686-0.0719l-1.2163,0.0521l0.0414,1.1407l-0.1093-0.0125
	l-0.0341-0.9437L3.07,179.3664l-0.874,0.0591l0.007,0.1577l-1.0582-0.0286l-0.5249,0.0642l0.0051,0.1416l-0.3275-0.007
	l-0.1933,0.0679l0.1735,4.6387H0.387l0.102,0.0913l-0.2021,0.0517l0.0679,1.886l0.4387,11.6198l-0.245,0.1504L0,198.7389
	l0.5535,14.5335H0v22.8419h1001.6443v-22.8419h-0.2971L1001.4547,189.3797z M857.5952,178.8291l-0.8597,0.1056l-0.0033-0.0304
	L857.5952,178.8291z M635.4429,163.9105l78.8339,43.5935h-5.595l-73.239-43.5308V163.9105z M635.4429,163.993l71.5627,43.511
	h-5.7241l-65.8387-43.4321V163.993z M635.4429,164.095l64.2842,43.409h-5.8348l-58.4495-43.3067V164.095z M635.4429,164.2204
	l57.0058,43.2836h-5.946l-51.0598-43.153V164.2204z M635.4429,164.3832l49.7273,43.1207h-6.0604l-43.6669-42.9432V164.3832z
	 M635.4429,164.6019l42.4455,42.9021h-6.1646l-36.2809-42.6513V164.6019z M635.4429,164.9026l35.1564,42.6014h-6.838
	l-28.3184-42.1803V164.9026z M635.4429,165.4044l27.305,42.0996h-6.2185l-21.0865-41.4621V165.4044z M655.5839,207.504h-6.2753
	l-13.8656-40.0706v-0.5696c0-0.256-0.0106-0.5032-0.0323-0.7486L655.5839,207.504z M648.4132,207.504h-6.3186l-6.6517-36.22v-3.5802
	L648.4132,207.504z M634.8881,182.3055c0-2.4054,0.125-4.3735,0.2754-4.3735c0.1541,0,0.2795-1.963,0.2795-4.3681v-1.3094
	l5.7919,35.2495h-6.3468V182.3055z M634.8881,211.7268v-2.4765h79.5571l0.2615,4.0222h-79.8187v-1.4004h-0.0073
	C634.8881,211.8218,634.8881,211.7734,634.8881,211.7268z M632.2552,177.9319c0.1467,0,0.2721,1.9682,0.2721,4.3735v25.1985h-6.3472
	l5.7919-35.2514v1.3112C631.9721,175.9689,632.0975,177.9319,632.2552,177.9319z M625.3171,207.504h-6.3149l12.9699-39.8002v3.5802
	L625.3171,207.504z M632.0043,166.1134c-0.0179,0.2472-0.0322,0.4944-0.0322,0.7504v0.5696l-13.869,40.0706h-6.272
	L632.0043,166.1134z M631.9721,164.095v0.1023L573.523,207.504h-5.8348L631.9721,164.095z M566.1264,207.504h-5.7167l71.5624-43.511
	v0.0789L566.1264,207.504z M631.9721,164.2204v0.1306l-51.0562,43.153h-5.9495L631.9721,164.2204z M631.9721,164.3832v0.1775
	l-43.6666,42.9432h-6.0607L631.9721,164.3832z M631.9721,164.6019v0.2472l-36.2809,42.6549h-6.1642L631.9721,164.6019z
	 M631.9721,164.9026v0.4211l-28.3184,42.1803h-6.8376L631.9721,164.9026z M631.9721,165.4007v0.6411l-21.0865,41.4621h-6.2181
	L631.9721,165.4007z M631.9721,163.9105v0.0627l-73.2423,43.5308h-5.5912L631.9721,163.9105z M632.5273,209.2502v2.4765
	c0,0.0466,0,0.095,0,0.1452l0,0v1.4004h-80.3311l-0.186-4.0222H632.5273z"/>
</svg>
